<svg width="192" height="82" viewBox="0 0 192 82" fill="none" xmlns="http://www.w3.org/2000/svg">
<path fill-rule="evenodd" clip-rule="evenodd" d="M3.45117 66.6336C3.44071 65.7282 45.2241 64.5101 96.7177 63.9147C148.211 63.3192 190.012 63.5708 190.022 64.4762C190.033 65.3816 148.249 66.5996 96.7556 67.1951C45.262 67.7905 3.46164 67.539 3.45117 66.6336Z" fill="#616161"/>
<path d="M32.9046 80.9817C23.2474 80.9817 15.4186 73.3161 15.4186 63.86C15.4186 54.4039 23.2474 46.7383 32.9046 46.7383C42.5619 46.7383 50.3906 54.4039 50.3906 63.86C50.3906 73.3161 42.5619 80.9817 32.9046 80.9817Z" fill="#616161" stroke="#F3F3F3" stroke-width="0.94357" stroke-linecap="round"/>
<path d="M32.9054 74.0955C27.2531 74.0955 22.6711 69.5135 22.6711 63.8612C22.6711 58.209 27.2531 53.627 32.9054 53.627C38.5576 53.627 43.1396 58.209 43.1396 63.8612C43.1396 69.5135 38.5576 74.0955 32.9054 74.0955Z" fill="white" stroke="#F3F3F3" stroke-width="0.5581" stroke-linecap="round"/>
<path d="M164.113 80.9817C154.455 80.9817 146.627 73.3161 146.627 63.86C146.627 54.4039 154.455 46.7383 164.113 46.7383C173.77 46.7383 181.599 54.4039 181.599 63.86C181.599 73.3161 173.77 80.9817 164.113 80.9817Z" fill="#616161" stroke="#F3F3F3" stroke-width="0.94357" stroke-linecap="round"/>
<path d="M164.113 74.0955C158.461 74.0955 153.879 69.5135 153.879 63.8612C153.879 58.209 158.461 53.627 164.113 53.627C169.766 53.627 174.348 58.209 174.348 63.8612C174.348 69.5135 169.766 74.0955 164.113 74.0955Z" fill="white" stroke="#F3F3F3" stroke-width="0.5581" stroke-linecap="round"/>
<path fill-rule="evenodd" clip-rule="evenodd" d="M24.7344 26.2616C24.7905 25.4952 44.6792 26.9787 73.8455 26.0922C84.4713 25.7687 103.437 24.714 116.86 24.7188C120.008 24.7198 123.112 24.7666 126.185 24.8701C142.425 25.4169 156.504 27.5479 168.903 30.9463C171.756 31.7247 174.406 32.5612 176.931 33.7521C179.719 35.0671 182.11 36.7583 184.017 38.7392C186.222 41.0412 187.676 43.6516 188.573 46.078C189.67 49.0582 190.121 52.2815 190.392 54.3249C190.977 58.6853 191.196 61.1073 190.981 61.1458C190.765 61.1844 190.133 58.836 189.172 54.5429C188.728 52.5737 188.053 49.3851 186.902 46.7468C185.954 44.562 184.518 42.2475 182.47 40.2805C180.702 38.5734 178.49 37.137 175.905 36.0045C173.553 34.974 171.038 34.2659 168.22 33.5625C155.931 30.5109 142.14 28.623 126.08 28.1326C123.045 28.0399 119.978 27.9989 116.859 27.9978C107.058 27.9944 81.1405 28.9103 73.9063 28.9936C44.5353 29.3334 24.699 26.7458 24.7344 26.2616Z" fill="#616161"/>
<path fill-rule="evenodd" clip-rule="evenodd" d="M0.169995 65.271C0.0049729 65.2595 -0.455957 60.6532 1.45417 52.8603C3.32645 45.2218 7.73847 34.2076 17.3655 24.4491C25.9244 15.8019 37.565 9.10289 51.6531 5.04512C52.818 4.70958 53.982 4.39736 55.1428 4.1074C66.892 1.2527 78.2729 0.557943 88.5226 1.21155C98.774 1.86525 107.601 3.84047 114.652 6.0939C121.442 17.6612 125.247 24.654 124.883 24.8735C124.52 25.0927 120.125 18.5016 113.414 7.69629C106.39 5.78185 97.7895 4.15925 87.9037 3.79793C78.0228 3.43679 67.151 4.35411 55.9439 7.28568C54.8198 7.57166 53.693 7.87748 52.5656 8.20412C38.9271 12.1556 27.723 18.4034 19.4107 26.5088C10.0525 35.6019 5.39951 46.0195 3.10815 53.3212C0.775357 60.7549 0.62227 65.3026 0.169995 65.271Z" fill="#616161"/>
</svg>
