<?xml version="1.0" encoding="utf-8"?>
<!-- Generator: Adobe Illustrator 24.3.0, SVG Export Plug-In . SVG Version: 6.00 Build 0)  -->
<svg version="1.1" id="Layer_1" xmlns="http://www.w3.org/2000/svg" xmlns:xlink="http://www.w3.org/1999/xlink" x="0px" y="0px"
	 viewBox="0 0 301 370" style="enable-background:new 0 0 301 370;" xml:space="preserve">
<style type="text/css">
	.st0{fill:#FFFFFF;}
	.st1{fill:#404D61;}
	.st2{fill:#FDFDFF;}
	.st3{fill:url(#SVGID_1_);}
	.st4{fill:url(#SVGID_2_);stroke:url(#SVGID_3_);}
	.st5{fill:#4F4F4F;}
	.st6{fill:#282B80;stroke:#282B80;}
	.st7{fill:#282B80;}
</style>
<g>
	<path class="st0" d="M13,0h275c7.2,0,13,5.8,13,13v344c0,7.2-5.8,13-13,13H13c-7.2,0-13-5.8-13-13V13C0,5.8,5.8,0,13,0z"/>
</g>
<path class="st1" d="M38,43V31.4h4.6c0.9,0,1.6,0.2,2.3,0.5c0.6,0.3,1.1,0.8,1.4,1.4c0.3,0.6,0.5,1.3,0.5,2s-0.2,1.5-0.5,2
	c-0.3,0.6-0.8,1.1-1.4,1.4c-0.6,0.3-1.4,0.5-2.3,0.5h-2.9v-2h2.5c0.5,0,0.9-0.1,1.2-0.2c0.3-0.2,0.5-0.4,0.7-0.7
	c0.2-0.3,0.2-0.6,0.2-1c0-0.4-0.1-0.7-0.2-1c-0.2-0.3-0.4-0.5-0.7-0.7c-0.3-0.2-0.7-0.2-1.2-0.2h-1.7V43H38z M52.9,43.2
	c-0.9,0-1.6-0.2-2.3-0.6c-0.6-0.4-1.1-0.9-1.5-1.6c-0.3-0.7-0.5-1.5-0.5-2.4c0-0.9,0.2-1.7,0.5-2.4c0.3-0.7,0.8-1.2,1.5-1.6
	c0.6-0.4,1.4-0.6,2.3-0.6c0.9,0,1.6,0.2,2.3,0.6c0.6,0.4,1.1,0.9,1.5,1.6c0.3,0.7,0.5,1.5,0.5,2.4c0,0.9-0.2,1.7-0.5,2.4
	c-0.3,0.7-0.8,1.2-1.5,1.6C54.6,43,53.8,43.2,52.9,43.2z M52.9,41.3c0.4,0,0.7-0.1,1-0.3c0.3-0.2,0.5-0.5,0.6-0.9
	c0.1-0.4,0.2-0.9,0.2-1.4c0-0.5-0.1-1-0.2-1.4c-0.1-0.4-0.3-0.7-0.6-0.9c-0.3-0.2-0.6-0.3-1-0.3c-0.4,0-0.7,0.1-1,0.3
	c-0.3,0.2-0.5,0.5-0.6,0.9c-0.1,0.4-0.2,0.9-0.2,1.4c0,0.5,0.1,1,0.2,1.4c0.1,0.4,0.3,0.7,0.6,0.9C52.2,41.2,52.5,41.3,52.9,41.3z
	 M61.1,43l-2.4-8.7h2.4l1.4,5.9h0.1l1.4-5.9h2.4l1.4,5.8h0.1l1.3-5.8h2.4L69.3,43h-2.6l-1.5-5.5h-0.1L63.7,43H61.1z M77.5,43.2
	c-0.9,0-1.7-0.2-2.3-0.5c-0.6-0.4-1.1-0.9-1.5-1.6c-0.3-0.7-0.5-1.5-0.5-2.4c0-0.9,0.2-1.7,0.5-2.4c0.3-0.7,0.8-1.2,1.5-1.6
	c0.6-0.4,1.4-0.6,2.2-0.6c0.6,0,1.1,0.1,1.6,0.3c0.5,0.2,0.9,0.5,1.3,0.8c0.4,0.4,0.7,0.8,0.9,1.4c0.2,0.6,0.3,1.2,0.3,1.9v0.7h-7.4
	v-1.5h5.1c0-0.3-0.1-0.7-0.2-0.9c-0.2-0.3-0.4-0.5-0.6-0.6C78.1,36,77.8,36,77.5,36c-0.4,0-0.7,0.1-1,0.3c-0.3,0.2-0.5,0.4-0.7,0.7
	c-0.2,0.3-0.2,0.6-0.2,0.9v1.4c0,0.4,0.1,0.8,0.2,1.1c0.2,0.3,0.4,0.6,0.7,0.7c0.3,0.2,0.6,0.3,1.1,0.3c0.3,0,0.5,0,0.7-0.1
	c0.2-0.1,0.4-0.2,0.6-0.3c0.2-0.2,0.3-0.3,0.4-0.6l2.2,0.1c-0.1,0.5-0.3,1-0.7,1.4c-0.3,0.4-0.8,0.7-1.4,0.9
	C78.9,43.1,78.3,43.2,77.5,43.2z M83.9,43v-8.7h2.3v1.5h0.1c0.2-0.5,0.4-1,0.8-1.2c0.4-0.3,0.8-0.4,1.3-0.4c0.1,0,0.3,0,0.4,0
	c0.1,0,0.3,0,0.4,0.1v2.1c-0.1,0-0.3-0.1-0.5-0.1c-0.2,0-0.4,0-0.6,0c-0.4,0-0.7,0.1-1,0.2c-0.3,0.2-0.5,0.4-0.7,0.6
	c-0.2,0.3-0.2,0.6-0.2,0.9V43H83.9z M95.8,43V31.4h4.7c0.9,0,1.6,0.1,2.1,0.4c0.6,0.3,1,0.6,1.3,1.1c0.3,0.4,0.4,1,0.4,1.5
	c0,0.5-0.1,0.9-0.3,1.2c-0.2,0.3-0.4,0.6-0.8,0.8c-0.3,0.2-0.7,0.4-1.1,0.5V37c0.4,0,0.9,0.1,1.2,0.4c0.4,0.2,0.7,0.6,0.9,1
	c0.2,0.4,0.4,0.9,0.4,1.5c0,0.6-0.2,1.2-0.5,1.7c-0.3,0.5-0.8,0.9-1.3,1.1c-0.6,0.3-1.3,0.4-2.2,0.4H95.8z M98.3,41h2
	c0.7,0,1.2-0.1,1.5-0.4c0.3-0.3,0.5-0.6,0.5-1.1c0-0.3-0.1-0.6-0.2-0.9c-0.2-0.2-0.4-0.4-0.7-0.6c-0.3-0.1-0.6-0.2-1-0.2h-2.1V41z
	 M98.3,36.2h1.8c0.3,0,0.6-0.1,0.9-0.2c0.3-0.1,0.5-0.3,0.6-0.5c0.2-0.2,0.2-0.5,0.2-0.8c0-0.4-0.2-0.8-0.4-1
	c-0.3-0.3-0.7-0.4-1.3-0.4h-1.9V36.2z M107.2,43v-8.7h2.4V43H107.2z M108.4,33.1c-0.4,0-0.7-0.1-0.9-0.4c-0.3-0.2-0.4-0.5-0.4-0.9
	c0-0.3,0.1-0.6,0.4-0.9c0.3-0.2,0.6-0.4,0.9-0.4c0.4,0,0.7,0.1,0.9,0.4c0.3,0.2,0.4,0.5,0.4,0.9c0,0.3-0.1,0.6-0.4,0.9
	C109,33,108.7,33.1,108.4,33.1z"/>
<path class="st2" d="M203.1,130.1c-0.6,0-1.2-0.1-1.7-0.3c-0.5-0.2-0.9-0.5-1.1-0.9c-0.3-0.4-0.4-0.8-0.4-1.3c0-0.4,0.1-0.7,0.2-1
	c0.2-0.3,0.4-0.6,0.7-0.8c0.3-0.2,0.6-0.3,0.9-0.4v-0.1c-0.4-0.1-0.8-0.3-1.1-0.7c-0.3-0.4-0.4-0.8-0.4-1.2c0-0.4,0.1-0.8,0.4-1.2
	c0.3-0.4,0.6-0.6,1-0.8c0.4-0.2,0.9-0.3,1.5-0.3c0.6,0,1.1,0.1,1.5,0.3c0.4,0.2,0.8,0.5,1,0.8c0.3,0.4,0.4,0.8,0.4,1.2
	c0,0.5-0.1,0.9-0.4,1.2c-0.3,0.4-0.6,0.6-1.1,0.7v0.1c0.3,0.1,0.6,0.2,0.9,0.4c0.3,0.2,0.5,0.5,0.7,0.8c0.2,0.3,0.2,0.6,0.2,1
	c0,0.5-0.1,0.9-0.4,1.3c-0.3,0.4-0.7,0.7-1.2,0.9C204.2,130,203.7,130.1,203.1,130.1z M203.1,128.9c0.3,0,0.6-0.1,0.9-0.2
	c0.2-0.1,0.4-0.3,0.6-0.5c0.1-0.2,0.2-0.4,0.2-0.7c0-0.3-0.1-0.5-0.2-0.7c-0.1-0.2-0.3-0.4-0.6-0.5c-0.2-0.1-0.5-0.2-0.8-0.2
	c-0.3,0-0.6,0.1-0.8,0.2c-0.2,0.1-0.4,0.3-0.6,0.5c-0.1,0.2-0.2,0.5-0.2,0.7c0,0.3,0.1,0.5,0.2,0.7c0.1,0.2,0.3,0.4,0.6,0.5
	C202.4,128.8,202.7,128.9,203.1,128.9z M203.1,124.9c0.3,0,0.5-0.1,0.7-0.2c0.2-0.1,0.4-0.3,0.5-0.5c0.1-0.2,0.2-0.4,0.2-0.7
	c0-0.2-0.1-0.5-0.2-0.7c-0.1-0.2-0.3-0.3-0.5-0.4c-0.2-0.1-0.4-0.2-0.7-0.2c-0.3,0-0.5,0.1-0.7,0.2c-0.2,0.1-0.4,0.2-0.5,0.4
	c-0.1,0.2-0.2,0.4-0.2,0.7c0,0.3,0.1,0.5,0.2,0.7c0.1,0.2,0.3,0.3,0.5,0.5C202.5,124.9,202.8,124.9,203.1,124.9z M210.9,130.1
	c-0.4,0-0.8-0.1-1.2-0.2c-0.4-0.1-0.8-0.4-1.1-0.7c-0.3-0.3-0.6-0.8-0.8-1.3c-0.2-0.5-0.3-1.2-0.3-2c0-0.7,0.1-1.4,0.2-2
	c0.2-0.6,0.4-1.1,0.7-1.5c0.3-0.4,0.7-0.7,1.1-0.9c0.4-0.2,0.9-0.3,1.4-0.3c0.5,0,1,0.1,1.5,0.3c0.4,0.2,0.8,0.5,1,0.9
	c0.3,0.4,0.4,0.8,0.5,1.3h-1.6c-0.1-0.3-0.2-0.6-0.5-0.8c-0.2-0.2-0.6-0.3-0.9-0.3c-0.6,0-1.1,0.3-1.4,0.8c-0.3,0.5-0.5,1.2-0.5,2.2
	h0.1c0.1-0.2,0.3-0.5,0.5-0.6c0.2-0.2,0.5-0.3,0.8-0.4c0.3-0.1,0.6-0.1,0.9-0.1c0.5,0,1,0.1,1.4,0.4c0.4,0.2,0.7,0.6,1,1
	c0.2,0.4,0.4,0.9,0.4,1.5c0,0.6-0.1,1.1-0.4,1.5c-0.3,0.5-0.6,0.8-1.1,1.1C212.1,130,211.5,130.1,210.9,130.1z M210.9,128.8
	c0.3,0,0.6-0.1,0.8-0.2c0.2-0.2,0.4-0.4,0.6-0.6c0.1-0.3,0.2-0.5,0.2-0.9c0-0.3-0.1-0.6-0.2-0.8c-0.1-0.3-0.3-0.5-0.6-0.6
	s-0.5-0.2-0.8-0.2c-0.2,0-0.4,0-0.6,0.1c-0.2,0.1-0.4,0.2-0.5,0.4c-0.1,0.2-0.3,0.3-0.3,0.5c-0.1,0.2-0.1,0.4-0.1,0.6
	c0,0.3,0.1,0.6,0.2,0.8c0.1,0.3,0.3,0.5,0.6,0.6C210.3,128.8,210.6,128.8,210.9,128.8z M220.1,128.4v-0.5c0-0.3,0.1-0.6,0.2-0.9
	c0.1-0.3,0.4-0.5,0.6-0.7c0.3-0.2,0.6-0.3,1-0.3c0.4,0,0.7,0.1,1,0.3c0.3,0.2,0.5,0.4,0.6,0.7c0.1,0.3,0.2,0.6,0.2,0.9v0.5
	c0,0.3-0.1,0.6-0.2,0.9s-0.4,0.5-0.6,0.7c-0.3,0.2-0.6,0.3-1,0.3c-0.4,0-0.7-0.1-1-0.3c-0.3-0.2-0.5-0.4-0.6-0.7
	C220.2,129,220.1,128.7,220.1,128.4z M221.3,127.9v0.5c0,0.2,0.1,0.4,0.2,0.6c0.1,0.2,0.3,0.3,0.6,0.3c0.3,0,0.5-0.1,0.6-0.3
	c0.1-0.2,0.2-0.4,0.2-0.6v-0.5c0-0.2-0.1-0.4-0.2-0.6c-0.1-0.2-0.3-0.3-0.6-0.3c-0.3,0-0.5,0.1-0.6,0.3
	C221.3,127.5,221.3,127.7,221.3,127.9z M215.7,123.4v-0.5c0-0.3,0.1-0.7,0.2-0.9c0.1-0.3,0.4-0.5,0.6-0.7c0.3-0.2,0.6-0.3,1-0.3
	c0.4,0,0.7,0.1,1,0.3c0.3,0.2,0.5,0.4,0.6,0.7c0.1,0.3,0.2,0.6,0.2,0.9v0.5c0,0.3-0.1,0.7-0.2,0.9c-0.1,0.3-0.3,0.5-0.6,0.7
	c-0.3,0.2-0.6,0.3-1,0.3c-0.4,0-0.7-0.1-1-0.3c-0.3-0.2-0.5-0.4-0.6-0.7C215.8,124,215.7,123.7,215.7,123.4z M216.8,122.9v0.5
	c0,0.2,0.1,0.4,0.2,0.6c0.1,0.2,0.3,0.3,0.6,0.3c0.3,0,0.5-0.1,0.6-0.3c0.1-0.2,0.2-0.4,0.2-0.6v-0.5c0-0.2,0-0.4-0.1-0.6
	c-0.1-0.2-0.3-0.3-0.6-0.3c-0.3,0-0.5,0.1-0.6,0.3C216.9,122.5,216.8,122.7,216.8,122.9z M216.2,130l6-8.7h1.1l-6,8.7H216.2z"/>
<linearGradient id="SVGID_1_" gradientUnits="userSpaceOnUse" x1="147.98" y1="212.3724" x2="192.778" y2="122.8734" gradientTransform="matrix(1 0 0 -1 0 369.8898)">
	<stop  offset="0" style="stop-color:#282B80"/>
	<stop  offset="0.9698" style="stop-color:#28A745"/>
</linearGradient>
<path class="st3" d="M196.5,165c11.1,9.3,20,20.9,26.1,34.1c6.1,13.1,9.2,27.5,9,41.9l-95.2-0.8c-1.4,0-2.1-1.6-1.2-2.7L196.5,165z"
	/>
<path class="st2" d="M177.3,211.1v14.1h-2.6v-11.6h-0.1l-3.3,2.1v-2.3l3.5-2.3H177.3z M180.6,222.6v-2l6-9.5h1.7v2.9h-1l-4,6.4v0.1
	h8.4v2.1H180.6z M187.4,225.2V222l0-0.9v-10h2.4v14.1H187.4z M201.4,222.5v-0.7c0-0.5,0.1-1,0.3-1.5c0.2-0.5,0.6-0.8,1-1.1
	c0.4-0.3,1-0.4,1.6-0.4c0.7,0,1.2,0.1,1.6,0.4c0.4,0.3,0.8,0.6,1,1.1c0.2,0.5,0.3,1,0.3,1.5v0.7c0,0.5-0.1,1-0.3,1.5
	c-0.2,0.5-0.6,0.8-1,1.1c-0.4,0.3-1,0.4-1.6,0.4s-1.2-0.1-1.6-0.4c-0.4-0.3-0.8-0.6-1-1.1C201.5,223.6,201.4,223.1,201.4,222.5z
	 M203.2,221.8v0.7c0,0.4,0.1,0.7,0.3,1c0.2,0.3,0.5,0.5,0.9,0.5c0.4,0,0.8-0.1,0.9-0.4c0.2-0.3,0.3-0.6,0.3-1v-0.7
	c0-0.4-0.1-0.7-0.2-1c-0.2-0.3-0.5-0.5-0.9-0.5c-0.4,0-0.7,0.2-0.9,0.5C203.3,221.1,203.2,221.4,203.2,221.8z M194.2,214.5v-0.7
	c0-0.6,0.1-1.1,0.4-1.5c0.2-0.5,0.6-0.8,1-1.1c0.4-0.3,1-0.4,1.6-0.4c0.6,0,1.2,0.1,1.6,0.4c0.4,0.3,0.8,0.6,1,1.1
	c0.2,0.5,0.3,1,0.3,1.5v0.7c0,0.6-0.1,1.1-0.3,1.5c-0.2,0.5-0.6,0.8-1,1.1c-0.4,0.3-1,0.4-1.6,0.4c-0.6,0-1.2-0.1-1.6-0.4
	c-0.4-0.3-0.8-0.6-1-1.1C194.3,215.5,194.2,215,194.2,214.5z M196,213.7v0.7c0,0.4,0.1,0.7,0.3,1c0.2,0.3,0.5,0.4,0.9,0.4
	s0.7-0.1,0.9-0.4c0.2-0.3,0.3-0.6,0.3-1v-0.7c0-0.4-0.1-0.7-0.2-1c-0.2-0.3-0.5-0.5-0.9-0.5c-0.4,0-0.7,0.2-0.9,0.5
	C196.1,213,196,213.4,196,213.7z M195,225.2l9.7-14.1h1.7l-9.7,14.1H195z"/>
<linearGradient id="SVGID_2_" gradientUnits="userSpaceOnUse" x1="192.9702" y1="280.17" x2="203.7372" y2="263.5989" gradientTransform="matrix(1 0 0 -1 0 369.8898)">
	<stop  offset="0" style="stop-color:#282B80"/>
	<stop  offset="0.9698" style="stop-color:#28A745"/>
</linearGradient>
<linearGradient id="SVGID_3_" gradientUnits="userSpaceOnUse" x1="192.9702" y1="280.17" x2="203.7372" y2="263.5989" gradientTransform="matrix(1 0 0 -1 0 369.8898)">
	<stop  offset="0" style="stop-color:#282B80"/>
	<stop  offset="0.9698" style="stop-color:#28A745"/>
</linearGradient>
<path class="st4" d="M196,91.5h6c2.5,0,4.5,2,4.5,4.5v6c0,2.5-2,4.5-4.5,4.5h-6c-2.5,0-4.5-2-4.5-4.5v-6
	C191.5,93.5,193.5,91.5,196,91.5z"/>
<path class="st5" d="M216.9,103v-8.7h1.6v7.4h3.8v1.3H216.9z M226.4,103.1c-0.6,0-1.2-0.1-1.7-0.4c-0.5-0.3-0.8-0.7-1.1-1.2
	c-0.3-0.5-0.4-1.1-0.4-1.8c0-0.7,0.1-1.3,0.4-1.8c0.3-0.5,0.6-0.9,1.1-1.2c0.5-0.3,1-0.4,1.7-0.4c0.6,0,1.2,0.1,1.7,0.4
	c0.5,0.3,0.8,0.7,1.1,1.2c0.3,0.5,0.4,1.1,0.4,1.8c0,0.7-0.1,1.3-0.4,1.8c-0.3,0.5-0.6,0.9-1.1,1.2
	C227.6,103,227.1,103.1,226.4,103.1z M226.5,101.9c0.3,0,0.6-0.1,0.9-0.3c0.2-0.2,0.4-0.5,0.5-0.8c0.1-0.3,0.2-0.7,0.2-1.1
	c0-0.4-0.1-0.8-0.2-1.1c-0.1-0.3-0.3-0.6-0.5-0.8c-0.2-0.2-0.5-0.3-0.9-0.3c-0.4,0-0.6,0.1-0.9,0.3c-0.2,0.2-0.4,0.5-0.5,0.8
	c-0.1,0.3-0.2,0.7-0.2,1.1c0,0.4,0.1,0.8,0.2,1.1c0.1,0.3,0.3,0.6,0.5,0.8C225.8,101.8,226.1,101.9,226.5,101.9z M230.9,103v-6.5
	h1.5v1.1h0.1c0.1-0.4,0.3-0.7,0.6-0.9c0.3-0.2,0.6-0.3,1-0.3c0.1,0,0.2,0,0.3,0c0.1,0,0.2,0,0.3,0v1.4c-0.1,0-0.2,0-0.3-0.1
	c-0.1,0-0.3,0-0.4,0c-0.3,0-0.5,0.1-0.8,0.2c-0.2,0.1-0.4,0.3-0.5,0.5c-0.1,0.2-0.2,0.5-0.2,0.7v3.8H230.9z M238.3,103.1
	c-0.7,0-1.2-0.1-1.7-0.4c-0.5-0.3-0.8-0.7-1.1-1.2c-0.3-0.5-0.4-1.1-0.4-1.8c0-0.7,0.1-1.3,0.4-1.8c0.3-0.5,0.6-0.9,1.1-1.2
	c0.5-0.3,1-0.4,1.6-0.4c0.4,0,0.8,0.1,1.1,0.2c0.4,0.1,0.7,0.3,1,0.6c0.3,0.3,0.5,0.6,0.7,1c0.2,0.4,0.2,0.9,0.2,1.5v0.5h-5.4v-1
	h3.9c0-0.3-0.1-0.6-0.2-0.8c-0.1-0.2-0.3-0.4-0.5-0.6c-0.2-0.1-0.5-0.2-0.8-0.2c-0.3,0-0.6,0.1-0.8,0.2c-0.2,0.2-0.4,0.4-0.6,0.6
	c-0.1,0.2-0.2,0.5-0.2,0.8v0.9c0,0.4,0.1,0.7,0.2,1c0.1,0.3,0.3,0.5,0.6,0.6c0.2,0.1,0.5,0.2,0.9,0.2c0.2,0,0.4,0,0.6-0.1
	c0.2-0.1,0.3-0.2,0.5-0.3c0.1-0.1,0.2-0.3,0.3-0.5l1.4,0.2c-0.1,0.4-0.3,0.7-0.5,1c-0.3,0.3-0.6,0.5-1,0.7
	C239.2,103.1,238.8,103.1,238.3,103.1z M242.5,103v-6.5h1.5v1.1h0.1c0.1-0.4,0.4-0.7,0.7-0.9c0.3-0.2,0.7-0.3,1.1-0.3
	c0.4,0,0.8,0.1,1.1,0.3c0.3,0.2,0.5,0.5,0.6,0.9h0.1c0.1-0.4,0.4-0.7,0.7-0.9c0.3-0.2,0.8-0.3,1.2-0.3c0.6,0,1.1,0.2,1.5,0.6
	c0.4,0.4,0.6,0.9,0.6,1.7v4.4h-1.5v-4.2c0-0.4-0.1-0.7-0.3-0.9c-0.2-0.2-0.5-0.3-0.8-0.3c-0.4,0-0.7,0.1-0.9,0.3
	c-0.2,0.2-0.3,0.5-0.3,0.9v4.1h-1.5v-4.2c0-0.3-0.1-0.6-0.3-0.8c-0.2-0.2-0.5-0.3-0.8-0.3c-0.2,0-0.4,0.1-0.6,0.2
	c-0.2,0.1-0.3,0.3-0.4,0.5c-0.1,0.2-0.2,0.4-0.2,0.7v4H242.5z"/>
<path class="st6" d="M196,118.5h6c2.5,0,4.5,2,4.5,4.5v6c0,2.5-2,4.5-4.5,4.5h-6c-2.5,0-4.5-2-4.5-4.5v-6
	C191.5,120.5,193.5,118.5,196,118.5z"/>
<path class="st5" d="M216.9,130v-8.7h1.6v7.4h3.8v1.3H216.9z M226.4,130.1c-0.6,0-1.2-0.1-1.7-0.4c-0.5-0.3-0.8-0.7-1.1-1.2
	c-0.3-0.5-0.4-1.1-0.4-1.8c0-0.7,0.1-1.3,0.4-1.8c0.3-0.5,0.6-0.9,1.1-1.2c0.5-0.3,1-0.4,1.7-0.4c0.6,0,1.2,0.1,1.7,0.4
	c0.5,0.3,0.8,0.7,1.1,1.2c0.3,0.5,0.4,1.1,0.4,1.8c0,0.7-0.1,1.3-0.4,1.8c-0.3,0.5-0.6,0.9-1.1,1.2
	C227.6,130,227.1,130.1,226.4,130.1z M226.5,128.9c0.3,0,0.6-0.1,0.9-0.3c0.2-0.2,0.4-0.5,0.5-0.8c0.1-0.3,0.2-0.7,0.2-1.1
	c0-0.4-0.1-0.8-0.2-1.1c-0.1-0.3-0.3-0.6-0.5-0.8c-0.2-0.2-0.5-0.3-0.9-0.3c-0.4,0-0.6,0.1-0.9,0.3c-0.2,0.2-0.4,0.5-0.5,0.8
	c-0.1,0.3-0.2,0.7-0.2,1.1c0,0.4,0.1,0.8,0.2,1.1c0.1,0.3,0.3,0.6,0.5,0.8C225.8,128.8,226.1,128.9,226.5,128.9z M230.9,130v-6.5
	h1.5v1.1h0.1c0.1-0.4,0.3-0.7,0.6-0.9c0.3-0.2,0.6-0.3,1-0.3c0.1,0,0.2,0,0.3,0c0.1,0,0.2,0,0.3,0v1.4c-0.1,0-0.2,0-0.3-0.1
	c-0.1,0-0.3,0-0.4,0c-0.3,0-0.5,0.1-0.8,0.2c-0.2,0.1-0.4,0.3-0.5,0.5c-0.1,0.2-0.2,0.5-0.2,0.7v3.8H230.9z M238.3,130.1
	c-0.7,0-1.2-0.1-1.7-0.4c-0.5-0.3-0.8-0.7-1.1-1.2c-0.3-0.5-0.4-1.1-0.4-1.8c0-0.7,0.1-1.3,0.4-1.8c0.3-0.5,0.6-0.9,1.1-1.2
	c0.5-0.3,1-0.4,1.6-0.4c0.4,0,0.8,0.1,1.1,0.2c0.4,0.1,0.7,0.3,1,0.6c0.3,0.3,0.5,0.6,0.7,1c0.2,0.4,0.2,0.9,0.2,1.5v0.5h-5.4v-1
	h3.9c0-0.3-0.1-0.6-0.2-0.8c-0.1-0.2-0.3-0.4-0.5-0.6c-0.2-0.1-0.5-0.2-0.8-0.2c-0.3,0-0.6,0.1-0.8,0.2c-0.2,0.2-0.4,0.4-0.6,0.6
	c-0.1,0.2-0.2,0.5-0.2,0.8v0.9c0,0.4,0.1,0.7,0.2,1c0.1,0.3,0.3,0.5,0.6,0.6c0.2,0.1,0.5,0.2,0.9,0.2c0.2,0,0.4,0,0.6-0.1
	c0.2-0.1,0.3-0.2,0.5-0.3c0.1-0.1,0.2-0.3,0.3-0.5l1.4,0.2c-0.1,0.4-0.3,0.7-0.5,1c-0.3,0.3-0.6,0.5-1,0.7
	C239.2,130.1,238.8,130.1,238.3,130.1z M242.5,130v-6.5h1.5v1.1h0.1c0.1-0.4,0.4-0.7,0.7-0.9c0.3-0.2,0.7-0.3,1.1-0.3
	c0.4,0,0.8,0.1,1.1,0.3c0.3,0.2,0.5,0.5,0.6,0.9h0.1c0.1-0.4,0.4-0.7,0.7-0.9c0.3-0.2,0.8-0.3,1.2-0.3c0.6,0,1.1,0.2,1.5,0.6
	c0.4,0.4,0.6,0.9,0.6,1.7v4.4h-1.5v-4.2c0-0.4-0.1-0.7-0.3-0.9c-0.2-0.2-0.5-0.3-0.8-0.3c-0.4,0-0.7,0.1-0.9,0.3
	c-0.2,0.2-0.3,0.5-0.3,0.9v4.1h-1.5v-4.2c0-0.3-0.1-0.6-0.3-0.8c-0.2-0.2-0.5-0.3-0.8-0.3c-0.2,0-0.4,0.1-0.6,0.2
	c-0.2,0.1-0.3,0.3-0.4,0.5c-0.1,0.2-0.2,0.4-0.2,0.7v4H242.5z"/>
<path class="st7" d="M233,242.5c0,23.3-7.9,45.9-22.5,64.1c-14.6,18.2-34.9,30.9-57.6,35.9c-22.7,5.1-46.5,2.3-67.5-8
	c-20.9-10.3-37.7-27.3-47.7-48.4c-9.9-21.1-12.4-44.9-6.9-67.6c5.4-22.7,18.4-42.8,36.8-57.1c18.4-14.3,41.1-21.9,64.4-21.5
	s45.8,8.7,63.7,23.5l-65.3,79H233z"/>
<path class="st2" d="M77.6,250.1c-0.6,0-1.2-0.1-1.7-0.3c-0.5-0.2-0.9-0.5-1.2-0.9c-0.3-0.4-0.4-0.8-0.4-1.3c0-0.4,0.1-0.7,0.2-1
	c0.2-0.3,0.4-0.6,0.7-0.8c0.3-0.2,0.6-0.3,0.9-0.4v-0.1c-0.4-0.1-0.8-0.3-1.1-0.7c-0.3-0.4-0.4-0.8-0.4-1.2c0-0.4,0.1-0.9,0.4-1.2
	c0.3-0.4,0.6-0.6,1-0.8c0.4-0.2,0.9-0.3,1.5-0.3c0.6,0,1.1,0.1,1.5,0.3c0.4,0.2,0.8,0.5,1,0.8c0.3,0.4,0.4,0.8,0.4,1.2
	c0,0.5-0.1,0.9-0.4,1.2c-0.3,0.4-0.6,0.6-1.1,0.7v0.1c0.3,0.1,0.6,0.2,0.9,0.4c0.3,0.2,0.5,0.5,0.7,0.8c0.2,0.3,0.2,0.6,0.2,1
	c0,0.5-0.1,0.9-0.4,1.3c-0.3,0.4-0.7,0.7-1.2,0.9C78.7,250,78.2,250.1,77.6,250.1z M77.6,248.9c0.3,0,0.6-0.1,0.9-0.2
	c0.2-0.1,0.4-0.3,0.6-0.5c0.1-0.2,0.2-0.4,0.2-0.7c0-0.3-0.1-0.5-0.2-0.7c-0.1-0.2-0.3-0.4-0.6-0.5c-0.2-0.1-0.5-0.2-0.8-0.2
	c-0.3,0-0.6,0.1-0.8,0.2c-0.2,0.1-0.4,0.3-0.6,0.5c-0.1,0.2-0.2,0.5-0.2,0.7c0,0.3,0.1,0.5,0.2,0.7c0.1,0.2,0.3,0.4,0.6,0.5
	C76.9,248.8,77.2,248.9,77.6,248.9z M77.6,244.9c0.3,0,0.5-0.1,0.7-0.2c0.2-0.1,0.4-0.3,0.5-0.5c0.1-0.2,0.2-0.4,0.2-0.7
	c0-0.2-0.1-0.5-0.2-0.7c-0.1-0.2-0.3-0.3-0.5-0.4c-0.2-0.1-0.4-0.2-0.7-0.2c-0.3,0-0.5,0.1-0.7,0.2c-0.2,0.1-0.4,0.2-0.5,0.4
	c-0.1,0.2-0.2,0.4-0.2,0.7c0,0.3,0.1,0.5,0.2,0.7c0.1,0.2,0.3,0.3,0.5,0.5C77,244.9,77.3,244.9,77.6,244.9z M85.4,250.1
	c-0.4,0-0.8-0.1-1.2-0.2c-0.4-0.1-0.8-0.4-1.1-0.7c-0.3-0.3-0.6-0.8-0.8-1.3c-0.2-0.5-0.3-1.2-0.3-2c0-0.7,0.1-1.4,0.2-2
	c0.2-0.6,0.4-1.1,0.7-1.5c0.3-0.4,0.7-0.7,1.1-0.9c0.4-0.2,0.9-0.3,1.4-0.3c0.5,0,1,0.1,1.5,0.3c0.4,0.2,0.8,0.5,1,0.9
	c0.3,0.4,0.4,0.8,0.5,1.3h-1.6c-0.1-0.3-0.2-0.6-0.5-0.8c-0.2-0.2-0.6-0.3-0.9-0.3c-0.6,0-1.1,0.3-1.4,0.8c-0.3,0.5-0.5,1.2-0.5,2.2
	h0.1c0.1-0.2,0.3-0.5,0.5-0.6c0.2-0.2,0.5-0.3,0.8-0.4c0.3-0.1,0.6-0.1,0.9-0.1c0.5,0,1,0.1,1.4,0.4c0.4,0.2,0.7,0.6,1,1
	c0.2,0.4,0.4,0.9,0.4,1.5c0,0.6-0.1,1.1-0.4,1.5c-0.3,0.5-0.6,0.8-1.1,1.1C86.6,250,86,250.1,85.4,250.1z M85.4,248.8
	c0.3,0,0.6-0.1,0.8-0.2c0.2-0.2,0.4-0.4,0.6-0.6c0.1-0.3,0.2-0.5,0.2-0.9c0-0.3-0.1-0.6-0.2-0.8c-0.1-0.3-0.3-0.5-0.6-0.6
	c-0.2-0.1-0.5-0.2-0.8-0.2c-0.2,0-0.4,0-0.6,0.1c-0.2,0.1-0.4,0.2-0.5,0.4c-0.1,0.2-0.3,0.3-0.3,0.5c-0.1,0.2-0.1,0.4-0.1,0.6
	c0,0.3,0.1,0.6,0.2,0.8c0.1,0.3,0.3,0.5,0.6,0.6C84.8,248.8,85.1,248.8,85.4,248.8z M94.6,248.4v-0.5c0-0.3,0.1-0.6,0.2-0.9
	c0.1-0.3,0.4-0.5,0.6-0.7c0.3-0.2,0.6-0.3,1-0.3c0.4,0,0.7,0.1,1,0.3c0.3,0.2,0.5,0.4,0.6,0.7c0.1,0.3,0.2,0.6,0.2,0.9v0.5
	c0,0.3-0.1,0.6-0.2,0.9s-0.4,0.5-0.6,0.7c-0.3,0.2-0.6,0.3-1,0.3c-0.4,0-0.7-0.1-1-0.3c-0.3-0.2-0.5-0.4-0.6-0.7
	C94.7,249,94.6,248.7,94.6,248.4z M95.8,247.9v0.5c0,0.2,0.1,0.4,0.2,0.6c0.1,0.2,0.3,0.3,0.6,0.3c0.3,0,0.5-0.1,0.6-0.3
	c0.1-0.2,0.2-0.4,0.2-0.6v-0.5c0-0.2-0.1-0.4-0.1-0.6c-0.1-0.2-0.3-0.3-0.6-0.3c-0.3,0-0.5,0.1-0.6,0.3
	C95.8,247.5,95.8,247.7,95.8,247.9z M90.2,243.4v-0.5c0-0.3,0.1-0.7,0.2-0.9c0.1-0.3,0.4-0.5,0.6-0.7c0.3-0.2,0.6-0.3,1-0.3
	c0.4,0,0.7,0.1,1,0.3c0.3,0.2,0.5,0.4,0.6,0.7c0.1,0.3,0.2,0.6,0.2,0.9v0.5c0,0.3-0.1,0.7-0.2,0.9c-0.1,0.3-0.3,0.5-0.6,0.7
	c-0.3,0.2-0.6,0.3-1,0.3c-0.4,0-0.7-0.1-1-0.3c-0.3-0.2-0.5-0.4-0.6-0.7C90.3,244,90.2,243.7,90.2,243.4z M91.3,242.9v0.5
	c0,0.2,0.1,0.4,0.2,0.6c0.1,0.2,0.3,0.3,0.6,0.3c0.3,0,0.5-0.1,0.6-0.3c0.1-0.2,0.2-0.4,0.2-0.6v-0.5c0-0.2,0-0.4-0.1-0.6
	c-0.1-0.2-0.3-0.3-0.6-0.3c-0.3,0-0.5,0.1-0.6,0.3C91.4,242.5,91.3,242.7,91.3,242.9z M90.7,250l6-8.7h1.1l-6,8.7H90.7z"/>
</svg>
