<?xml version="1.0" encoding="utf-8"?>
<!-- Generator: Adobe Illustrator 24.3.0, SVG Export Plug-In . SVG Version: 6.00 Build 0)  -->
<svg version="1.1" id="Layer_1" xmlns="http://www.w3.org/2000/svg" xmlns:xlink="http://www.w3.org/1999/xlink" x="0px" y="0px"
	 viewBox="0 0 964 370" style="enable-background:new 0 0 964 370;" xml:space="preserve">
<style type="text/css">
	.st0{fill:#FFFFFF;}
	.st1{clip-path:url(#SVGID_2_);}
	.st2{fill:#404D61;}
	.st3{fill:#828282;}
	.st4{fill:#66DC76;}
	.st5{fill:#2D9CDB;}
	.st6{fill:none;stroke:#F2F2F2;stroke-width:0.6676;stroke-dasharray:4,4;}
	.st7{fill:#F2F2F2;}
</style>
<g>
	<path class="st0" d="M10,0h944c5.5,0,10,4.5,10,10v350c0,5.5-4.5,10-10,10H10c-5.5,0-10-4.5-10-10V10C0,4.5,4.5,0,10,0z"/>
</g>
<g>
	<defs>
		<rect id="SVGID_1_" x="22.6" y="19" width="167.2" height="50"/>
	</defs>
	<clipPath id="SVGID_2_">
		<use xlink:href="#SVGID_1_"  style="overflow:visible;"/>
	</clipPath>
	<g class="st1">
		<path class="st2" d="M23.9,37V23.9h4.9c1,0,1.8,0.2,2.5,0.6c0.7,0.4,1.2,0.9,1.6,1.5c0.4,0.7,0.5,1.4,0.5,2.2
			c0,0.8-0.2,1.6-0.5,2.2S32,31.6,31.3,32c-0.7,0.4-1.5,0.6-2.6,0.6h-3.3v-1.9h2.9c0.6,0,1.1-0.1,1.4-0.3c0.4-0.2,0.7-0.5,0.8-0.8
			c0.2-0.4,0.3-0.8,0.3-1.2s-0.1-0.9-0.3-1.2c-0.2-0.4-0.5-0.6-0.8-0.8c-0.4-0.2-0.9-0.3-1.5-0.3h-2.2V37H23.9z M39.1,37.2
			c-1,0-1.8-0.2-2.5-0.6c-0.7-0.4-1.2-1-1.6-1.8c-0.4-0.8-0.6-1.6-0.6-2.7c0-1,0.2-1.9,0.6-2.7c0.4-0.8,0.9-1.4,1.6-1.8
			c0.7-0.4,1.5-0.6,2.5-0.6c1,0,1.8,0.2,2.5,0.6c0.7,0.4,1.2,1,1.6,1.8c0.4,0.8,0.6,1.7,0.6,2.7c0,1-0.2,1.9-0.6,2.7
			c-0.4,0.8-0.9,1.3-1.6,1.8C40.9,37,40,37.2,39.1,37.2z M39.1,35.3c0.5,0,1-0.1,1.3-0.4c0.3-0.3,0.6-0.7,0.8-1.2
			c0.2-0.5,0.3-1,0.3-1.6c0-0.6-0.1-1.1-0.3-1.6c-0.2-0.5-0.4-0.9-0.8-1.2c-0.3-0.3-0.8-0.4-1.3-0.4c-0.5,0-1,0.1-1.3,0.4
			c-0.3,0.3-0.6,0.7-0.8,1.2c-0.2,0.5-0.3,1-0.3,1.6c0,0.6,0.1,1.1,0.3,1.6c0.2,0.5,0.4,0.9,0.8,1.2C38.1,35.2,38.6,35.3,39.1,35.3z
			 M47.1,37l-2.8-9.8h2.4l1.7,6.9h0.1l1.8-6.9h2.3l1.8,6.9h0.1l1.7-6.9h2.4L55.7,37h-2.4l-1.8-6.6h-0.1L49.5,37H47.1z M63.8,37.2
			c-1,0-1.8-0.2-2.5-0.6c-0.7-0.4-1.3-1-1.6-1.8c-0.4-0.8-0.6-1.7-0.6-2.7c0-1,0.2-1.9,0.6-2.7c0.4-0.8,0.9-1.4,1.6-1.8
			c0.7-0.4,1.5-0.6,2.4-0.6c0.6,0,1.2,0.1,1.7,0.3c0.5,0.2,1,0.5,1.4,0.9c0.4,0.4,0.7,0.9,1,1.5c0.2,0.6,0.4,1.4,0.4,2.2v0.7h-8
			v-1.6h5.8c0-0.4-0.1-0.8-0.3-1.2c-0.2-0.3-0.4-0.6-0.8-0.8c-0.3-0.2-0.7-0.3-1.2-0.3c-0.5,0-0.9,0.1-1.2,0.3
			c-0.4,0.2-0.6,0.5-0.8,0.9c-0.2,0.4-0.3,0.8-0.3,1.2v1.4c0,0.6,0.1,1.1,0.3,1.5c0.2,0.4,0.5,0.7,0.9,0.9c0.4,0.2,0.8,0.3,1.3,0.3
			c0.3,0,0.6,0,0.9-0.1c0.3-0.1,0.5-0.2,0.7-0.4c0.2-0.2,0.4-0.4,0.5-0.7l2.2,0.2c-0.1,0.6-0.4,1.1-0.8,1.5c-0.4,0.4-0.9,0.8-1.5,1
			C65.2,37.1,64.6,37.2,63.8,37.2z M69.7,37v-9.8H72v1.6h0.1c0.2-0.6,0.5-1,0.9-1.3c0.4-0.3,0.9-0.5,1.5-0.5c0.1,0,0.3,0,0.4,0
			c0.2,0,0.3,0,0.4,0v2.1c-0.1,0-0.3-0.1-0.5-0.1c-0.2,0-0.4,0-0.6,0c-0.4,0-0.8,0.1-1.1,0.3c-0.3,0.2-0.6,0.4-0.8,0.7
			c-0.2,0.3-0.3,0.7-0.3,1.1V37H69.7z M80.6,37V23.9h5c0.9,0,1.7,0.1,2.4,0.4c0.6,0.3,1.1,0.7,1.4,1.2c0.3,0.5,0.5,1.1,0.5,1.7
			c0,0.5-0.1,1-0.3,1.4c-0.2,0.4-0.5,0.7-0.8,0.9c-0.3,0.2-0.7,0.4-1.2,0.5v0.1c0.5,0,0.9,0.2,1.3,0.4c0.4,0.3,0.8,0.6,1.1,1.1
			c0.3,0.5,0.4,1,0.4,1.7c0,0.7-0.2,1.3-0.5,1.8c-0.3,0.5-0.8,1-1.5,1.3c-0.7,0.3-1.5,0.5-2.5,0.5H80.6z M83,35h2.6
			c0.9,0,1.5-0.2,1.9-0.5c0.4-0.3,0.6-0.8,0.6-1.3c0-0.4-0.1-0.7-0.3-1c-0.2-0.3-0.5-0.6-0.8-0.7c-0.4-0.2-0.8-0.3-1.3-0.3H83V35z
			 M83,29.5h2.3c0.4,0,0.8-0.1,1.1-0.2c0.3-0.2,0.6-0.4,0.8-0.6c0.2-0.3,0.3-0.6,0.3-1c0-0.5-0.2-0.9-0.5-1.3
			c-0.4-0.3-0.9-0.5-1.6-0.5H83V29.5z M91.9,37v-9.8h2.3V37H91.9z M93.1,25.8c-0.4,0-0.7-0.1-0.9-0.4c-0.3-0.2-0.4-0.5-0.4-0.9
			c0-0.3,0.1-0.6,0.4-0.9c0.3-0.2,0.6-0.4,0.9-0.4c0.4,0,0.7,0.1,0.9,0.4c0.3,0.2,0.4,0.5,0.4,0.9c0,0.3-0.1,0.6-0.4,0.9
			C93.8,25.7,93.5,25.8,93.1,25.8z"/>
		<path class="st3" d="M31.9,53.8V64h-1.2l-5.5-8H25v8h-1.2V53.8H25l5.6,8h0.1v-8H31.9z M36.8,64.2c-0.7,0-1.3-0.2-1.8-0.5
			c-0.5-0.3-0.9-0.8-1.2-1.4c-0.3-0.6-0.4-1.3-0.4-2.1c0-0.8,0.1-1.5,0.4-2.1c0.3-0.6,0.7-1.1,1.2-1.4c0.5-0.3,1.1-0.5,1.8-0.5
			c0.7,0,1.3,0.2,1.8,0.5c0.5,0.3,0.9,0.8,1.2,1.4c0.3,0.6,0.4,1.3,0.4,2.1c0,0.8-0.1,1.5-0.4,2.1c-0.3,0.6-0.7,1-1.2,1.4
			C38.1,64,37.5,64.2,36.8,64.2z M36.8,63.1c0.5,0,1-0.1,1.3-0.4c0.3-0.3,0.6-0.6,0.8-1.1s0.2-0.9,0.2-1.4c0-0.5-0.1-1-0.2-1.4
			c-0.2-0.4-0.4-0.8-0.8-1.1c-0.3-0.3-0.8-0.4-1.3-0.4c-0.5,0-1,0.1-1.3,0.4c-0.3,0.3-0.6,0.6-0.8,1.1c-0.2,0.4-0.2,0.9-0.2,1.4
			c0,0.5,0.1,1,0.2,1.4s0.4,0.8,0.8,1.1C35.8,63,36.3,63.1,36.8,63.1z M47.5,56.4L44.7,64h-1.2l-2.8-7.6h1.3l2.1,6.1h0.1l2.1-6.1
			H47.5z M56.4,58.4v1.1h-4.5v-1.1H56.4z M65.4,53.8h1.2v7.3c0,0.6-0.1,1.2-0.4,1.7c-0.2,0.5-0.6,0.8-1,1c-0.4,0.2-0.9,0.4-1.5,0.4
			c-0.6,0-1.1-0.1-1.5-0.3c-0.4-0.2-0.8-0.5-1-0.9c-0.2-0.4-0.4-0.8-0.4-1.3h1.2c0,0.3,0.1,0.5,0.2,0.8c0.1,0.2,0.3,0.4,0.6,0.5
			s0.5,0.2,0.9,0.2c0.4,0,0.7-0.1,0.9-0.2c0.2-0.1,0.4-0.4,0.6-0.7c0.1-0.3,0.2-0.6,0.2-1.1V53.8z M73.3,60.9v-4.5h1.2V64h-1.2v-1.3
			h-0.1c-0.2,0.4-0.5,0.7-0.8,1c-0.4,0.3-0.9,0.4-1.4,0.4c-0.5,0-0.9-0.1-1.3-0.3c-0.4-0.2-0.7-0.5-0.9-1c-0.2-0.4-0.3-1-0.3-1.6
			v-4.9h1.2v4.8c0,0.6,0.2,1,0.5,1.3c0.3,0.3,0.7,0.5,1.2,0.5c0.3,0,0.6-0.1,0.9-0.2c0.3-0.1,0.6-0.4,0.8-0.7
			C73.2,61.7,73.3,61.4,73.3,60.9z M77.3,53.8V64h-1.2V53.8H77.3z M79.7,66.9c-0.2,0-0.4,0-0.5,0c-0.2,0-0.3-0.1-0.3-0.1l0.3-1
			c0.3,0.1,0.5,0.1,0.8,0.1c0.2,0,0.4-0.1,0.6-0.3c0.2-0.2,0.3-0.5,0.5-0.8l0.2-0.6l-2.8-7.7h1.3l2.1,6.1h0.1l2.1-6.1h1.3l-3.2,8.8
			c-0.1,0.4-0.3,0.7-0.5,1c-0.2,0.3-0.5,0.5-0.8,0.6C80.4,66.8,80,66.9,79.7,66.9z"/>
	</g>
</g>
<path class="st3" d="M38.3,99.9v8.7H37v-7.4H37l-2.1,1.4v-1.3l2.2-1.4H38.3z M43.4,108.8c-0.7,0-1.2-0.2-1.7-0.5
	c-0.5-0.4-0.8-0.9-1.1-1.5c-0.3-0.7-0.4-1.5-0.4-2.4c0-0.9,0.1-1.8,0.4-2.4c0.3-0.7,0.6-1.2,1.1-1.5c0.5-0.4,1.1-0.5,1.7-0.5
	c0.7,0,1.2,0.2,1.7,0.5c0.5,0.4,0.8,0.9,1.1,1.5c0.3,0.7,0.4,1.5,0.4,2.4c0,1-0.1,1.8-0.4,2.4c-0.3,0.7-0.6,1.2-1.1,1.5
	C44.7,108.6,44.1,108.8,43.4,108.8z M43.4,107.6c0.6,0,1.1-0.3,1.4-0.9c0.3-0.6,0.5-1.4,0.5-2.5c0-0.7-0.1-1.3-0.2-1.8
	c-0.2-0.5-0.4-0.9-0.7-1.1c-0.3-0.3-0.6-0.4-1-0.4c-0.6,0-1,0.3-1.4,0.9c-0.3,0.6-0.5,1.4-0.5,2.5c0,0.7,0.1,1.3,0.2,1.8
	c0.2,0.5,0.4,0.9,0.7,1.1C42.7,107.5,43,107.6,43.4,107.6z M50.9,108.8c-0.7,0-1.2-0.2-1.7-0.5c-0.5-0.4-0.8-0.9-1.1-1.5
	c-0.3-0.7-0.4-1.5-0.4-2.4c0-0.9,0.1-1.8,0.4-2.4c0.3-0.7,0.6-1.2,1.1-1.5c0.5-0.4,1.1-0.5,1.7-0.5c0.7,0,1.2,0.2,1.7,0.5
	c0.5,0.4,0.8,0.9,1.1,1.5c0.3,0.7,0.4,1.5,0.4,2.4c0,1-0.1,1.8-0.4,2.4c-0.3,0.7-0.6,1.2-1.1,1.5C52.1,108.6,51.5,108.8,50.9,108.8z
	 M50.9,107.6c0.6,0,1.1-0.3,1.4-0.9c0.3-0.6,0.5-1.4,0.5-2.5c0-0.7-0.1-1.3-0.2-1.8c-0.2-0.5-0.4-0.9-0.7-1.1
	c-0.3-0.3-0.6-0.4-1-0.4c-0.6,0-1,0.3-1.4,0.9c-0.3,0.6-0.5,1.4-0.5,2.5c0,0.7,0.1,1.3,0.2,1.8c0.2,0.5,0.4,0.9,0.7,1.1
	C50.1,107.5,50.5,107.6,50.9,107.6z"/>
<path class="st3" d="M50.9,325.3c-0.7,0-1.2-0.2-1.7-0.5c-0.5-0.4-0.8-0.9-1.1-1.5c-0.3-0.7-0.4-1.5-0.4-2.4c0-0.9,0.1-1.8,0.4-2.4
	c0.3-0.7,0.6-1.2,1.1-1.5c0.5-0.4,1.1-0.5,1.7-0.5c0.7,0,1.2,0.2,1.7,0.5c0.5,0.4,0.8,0.9,1.1,1.5c0.3,0.7,0.4,1.5,0.4,2.4
	c0,1-0.1,1.8-0.4,2.4c-0.3,0.7-0.6,1.2-1.1,1.5C52.1,325.1,51.5,325.3,50.9,325.3z M50.9,324.2c0.6,0,1.1-0.3,1.4-0.9
	c0.3-0.6,0.5-1.4,0.5-2.5c0-0.7-0.1-1.3-0.2-1.8c-0.1-0.5-0.4-0.9-0.7-1.1c-0.3-0.3-0.6-0.4-1-0.4c-0.6,0-1,0.3-1.4,0.9
	c-0.3,0.6-0.5,1.4-0.5,2.5c0,0.7,0.1,1.3,0.2,1.8c0.2,0.5,0.4,0.9,0.7,1.1C50.1,324,50.5,324.2,50.9,324.2z"/>
<path class="st3" d="M41.1,253v-1l3-3.1c0.3-0.3,0.6-0.6,0.8-0.9c0.2-0.3,0.4-0.5,0.5-0.7c0.1-0.2,0.2-0.5,0.2-0.7
	c0-0.3-0.1-0.5-0.2-0.8c-0.1-0.2-0.3-0.4-0.6-0.5c-0.2-0.1-0.5-0.2-0.8-0.2c-0.3,0-0.6,0.1-0.8,0.2c-0.2,0.1-0.4,0.3-0.5,0.5
	c-0.1,0.2-0.2,0.5-0.2,0.8h-1.3c0-0.5,0.1-1,0.4-1.4c0.2-0.4,0.6-0.7,1-0.9c0.4-0.2,0.9-0.3,1.5-0.3c0.5,0,1,0.1,1.4,0.3
	c0.4,0.2,0.7,0.5,1,0.9c0.2,0.4,0.4,0.8,0.4,1.3c0,0.3-0.1,0.6-0.2,1c-0.1,0.3-0.3,0.7-0.6,1c-0.3,0.4-0.7,0.8-1.2,1.4l-1.7,1.8v0.1
	h3.9v1.1H41.1z M51,253.1c-0.5,0-1-0.1-1.4-0.3c-0.4-0.2-0.8-0.5-1-0.9c-0.3-0.4-0.4-0.8-0.4-1.2h1.3c0,0.4,0.2,0.7,0.5,0.9
	c0.3,0.2,0.7,0.4,1.1,0.4c0.3,0,0.6-0.1,0.9-0.2c0.3-0.2,0.5-0.4,0.6-0.6c0.2-0.3,0.2-0.6,0.2-0.9c0-0.4-0.1-0.7-0.2-1
	c-0.2-0.3-0.4-0.5-0.6-0.7c-0.3-0.2-0.6-0.2-0.9-0.2c-0.3,0-0.5,0-0.8,0.1c-0.3,0.1-0.5,0.2-0.6,0.4l-1.2-0.2l0.5-4.4h4.8v1.1h-3.7
	l-0.3,2.4h0.1c0.2-0.2,0.4-0.3,0.7-0.4c0.3-0.1,0.6-0.2,0.9-0.2c0.5,0,1,0.1,1.4,0.4c0.4,0.3,0.7,0.6,1,1c0.2,0.4,0.4,0.9,0.4,1.5
	c0,0.6-0.1,1.1-0.4,1.5c-0.3,0.4-0.6,0.8-1.1,1C52.1,253,51.6,253.1,51,253.1z"/>
<path class="st3" d="M43.6,180.9c-0.5,0-1-0.1-1.4-0.3c-0.4-0.2-0.8-0.5-1-0.9c-0.3-0.4-0.4-0.8-0.4-1.2H42c0,0.4,0.2,0.7,0.5,0.9
	c0.3,0.2,0.7,0.4,1.1,0.4c0.3,0,0.6-0.1,0.9-0.2c0.3-0.2,0.5-0.4,0.6-0.6c0.2-0.3,0.2-0.6,0.2-0.9c0-0.4-0.1-0.7-0.2-1
	c-0.2-0.3-0.4-0.5-0.6-0.7c-0.3-0.2-0.6-0.2-0.9-0.2c-0.3,0-0.5,0-0.8,0.1c-0.3,0.1-0.5,0.2-0.6,0.4l-1.2-0.2l0.5-4.4h4.8v1.1h-3.7
	l-0.3,2.4h0.1c0.2-0.2,0.4-0.3,0.7-0.4c0.3-0.1,0.6-0.2,0.9-0.2c0.5,0,1,0.1,1.4,0.4c0.4,0.3,0.7,0.6,1,1c0.2,0.4,0.4,0.9,0.4,1.5
	c0,0.6-0.1,1.1-0.4,1.5c-0.3,0.4-0.6,0.8-1.1,1C44.7,180.8,44.2,180.9,43.6,180.9z M50.9,180.9c-0.7,0-1.2-0.2-1.7-0.5
	c-0.5-0.4-0.8-0.9-1.1-1.5c-0.3-0.7-0.4-1.5-0.4-2.4c0-0.9,0.1-1.8,0.4-2.4c0.3-0.7,0.6-1.2,1.1-1.5c0.5-0.4,1.1-0.5,1.7-0.5
	s1.2,0.2,1.7,0.5c0.5,0.4,0.8,0.9,1.1,1.5c0.3,0.7,0.4,1.5,0.4,2.4c0,1-0.1,1.8-0.4,2.4c-0.3,0.7-0.6,1.2-1.1,1.5
	C52.1,180.8,51.5,180.9,50.9,180.9z M50.9,179.8c0.6,0,1.1-0.3,1.4-0.9c0.3-0.6,0.5-1.4,0.5-2.5c0-0.7-0.1-1.3-0.2-1.8
	c-0.2-0.5-0.4-0.9-0.7-1.1c-0.3-0.3-0.6-0.4-1-0.4c-0.6,0-1,0.3-1.4,0.9c-0.3,0.6-0.5,1.4-0.5,2.5c0,0.7,0.1,1.3,0.2,1.8
	c0.2,0.5,0.4,0.9,0.7,1.1C50.1,179.7,50.5,179.8,50.9,179.8z"/>
<path class="st3" d="M664.4,33v1.2h-4.3V33H664.4z M660.6,25.7v8.5h-1.5v-8.5H660.6z M669.3,26.8l-2.5,7.4h-1.5l3.2-8.5h1
	L669.3,26.8z M671.4,34.2l-2.6-7.4l-0.1-1.1h1l3.2,8.5H671.4z M671.3,31v1.2h-4.6V31H671.3z M678.7,32c0-0.2,0-0.3-0.1-0.5
	c-0.1-0.1-0.1-0.3-0.3-0.4c-0.1-0.1-0.3-0.2-0.6-0.3c-0.2-0.1-0.5-0.2-0.9-0.3c-0.4-0.1-0.8-0.3-1.1-0.4c-0.3-0.2-0.6-0.3-0.9-0.5
	c-0.3-0.2-0.5-0.4-0.6-0.7c-0.1-0.3-0.2-0.6-0.2-0.9c0-0.3,0.1-0.7,0.2-0.9c0.1-0.3,0.4-0.5,0.6-0.7c0.3-0.2,0.6-0.4,1-0.5
	c0.4-0.1,0.8-0.2,1.2-0.2c0.6,0,1.2,0.1,1.6,0.4c0.5,0.2,0.8,0.5,1.1,0.9c0.2,0.4,0.4,0.8,0.4,1.3h-1.5c0-0.3-0.1-0.5-0.2-0.7
	c-0.1-0.2-0.3-0.4-0.5-0.5c-0.2-0.1-0.5-0.2-0.9-0.2c-0.3,0-0.6,0.1-0.9,0.2c-0.2,0.1-0.4,0.2-0.5,0.4c-0.1,0.2-0.2,0.4-0.2,0.6
	c0,0.2,0,0.3,0.1,0.4c0.1,0.1,0.2,0.2,0.3,0.4c0.2,0.1,0.3,0.2,0.6,0.3c0.2,0.1,0.5,0.2,0.8,0.3c0.5,0.1,0.9,0.3,1.2,0.5
	c0.4,0.2,0.6,0.4,0.9,0.6c0.2,0.2,0.4,0.5,0.5,0.7c0.1,0.3,0.2,0.6,0.2,0.9c0,0.4-0.1,0.7-0.2,1c-0.1,0.3-0.4,0.5-0.6,0.7
	c-0.3,0.2-0.6,0.4-1,0.5c-0.4,0.1-0.8,0.2-1.2,0.2c-0.4,0-0.8-0.1-1.2-0.2c-0.4-0.1-0.8-0.3-1.1-0.5c-0.3-0.2-0.6-0.5-0.8-0.8
	c-0.2-0.3-0.3-0.7-0.3-1.2h1.5c0,0.3,0,0.5,0.1,0.7c0.1,0.2,0.2,0.4,0.4,0.5c0.2,0.1,0.4,0.2,0.6,0.3c0.2,0.1,0.5,0.1,0.7,0.1
	c0.3,0,0.6,0,0.9-0.1c0.2-0.1,0.4-0.2,0.5-0.4C678.7,32.4,678.7,32.2,678.7,32z M685.3,25.7v8.5h-1.5v-8.5H685.3z M688,25.7v1.2
	h-6.8v-1.2H688z M696.5,25.6h0.2v1.2h-0.1c-0.5,0-0.9,0.1-1.3,0.2c-0.4,0.2-0.7,0.4-0.9,0.6c-0.2,0.3-0.4,0.6-0.5,1
	c-0.1,0.4-0.2,0.8-0.2,1.2v1.3c0,0.3,0,0.6,0.1,0.9c0.1,0.3,0.2,0.5,0.3,0.7c0.1,0.2,0.3,0.3,0.5,0.4c0.2,0.1,0.4,0.1,0.6,0.1
	c0.2,0,0.4,0,0.6-0.1c0.2-0.1,0.3-0.2,0.4-0.4c0.1-0.2,0.2-0.3,0.3-0.6c0.1-0.2,0.1-0.4,0.1-0.7c0-0.2,0-0.5-0.1-0.7
	c-0.1-0.2-0.1-0.4-0.3-0.6c-0.1-0.2-0.3-0.3-0.4-0.4c-0.2-0.1-0.4-0.1-0.6-0.1c-0.3,0-0.5,0.1-0.8,0.2c-0.2,0.1-0.4,0.3-0.6,0.5
	c-0.1,0.2-0.2,0.4-0.2,0.7l-0.5-0.2c0-0.4,0.1-0.7,0.2-1c0.1-0.3,0.3-0.5,0.5-0.7c0.2-0.2,0.5-0.4,0.7-0.5c0.3-0.1,0.6-0.2,0.9-0.2
	c0.4,0,0.8,0.1,1.1,0.2c0.3,0.2,0.6,0.4,0.8,0.6c0.2,0.3,0.4,0.6,0.5,0.9c0.1,0.3,0.2,0.7,0.2,1.1c0,0.4-0.1,0.8-0.2,1.1
	c-0.1,0.4-0.3,0.7-0.6,0.9c-0.2,0.3-0.5,0.5-0.9,0.6c-0.3,0.1-0.7,0.2-1.2,0.2c-0.5,0-0.9-0.1-1.2-0.3c-0.4-0.2-0.7-0.4-0.9-0.7
	c-0.2-0.3-0.4-0.7-0.6-1.1c-0.1-0.4-0.2-0.8-0.2-1.3v-0.6c0-0.6,0.1-1.3,0.2-1.8c0.2-0.6,0.4-1.1,0.8-1.5c0.3-0.4,0.8-0.8,1.3-1
	C695.1,25.8,695.7,25.6,696.5,25.6z M703.4,25.7h1.3l2.5,6.6l2.5-6.6h1.3l-3.3,8.5h-1L703.4,25.7z M702.8,25.7h1.2l0.2,5.7v2.8h-1.5
	V25.7z M710.3,25.7h1.3v8.5h-1.5v-2.8L710.3,25.7z M720.4,29.7v0.5c0,0.6-0.1,1.2-0.3,1.7c-0.2,0.5-0.4,0.9-0.7,1.3
	c-0.3,0.4-0.7,0.6-1.1,0.8c-0.4,0.2-0.9,0.3-1.4,0.3c-0.5,0-1-0.1-1.4-0.3c-0.4-0.2-0.8-0.5-1.1-0.8c-0.3-0.4-0.6-0.8-0.7-1.3
	c-0.2-0.5-0.3-1.1-0.3-1.7v-0.5c0-0.6,0.1-1.2,0.3-1.7c0.2-0.5,0.4-0.9,0.7-1.3c0.3-0.4,0.7-0.6,1.1-0.8c0.4-0.2,0.9-0.3,1.4-0.3
	c0.5,0,1,0.1,1.4,0.3c0.4,0.2,0.8,0.5,1.1,0.8c0.3,0.4,0.6,0.8,0.7,1.3C720.3,28.5,720.4,29.1,720.4,29.7z M719,30.2v-0.5
	c0-0.5,0-0.9-0.1-1.3c-0.1-0.4-0.2-0.7-0.4-0.9c-0.2-0.2-0.4-0.4-0.7-0.6c-0.3-0.1-0.5-0.2-0.9-0.2s-0.6,0.1-0.9,0.2
	c-0.3,0.1-0.5,0.3-0.6,0.6c-0.2,0.2-0.3,0.6-0.4,0.9c-0.1,0.4-0.1,0.8-0.1,1.3v0.5c0,0.5,0,0.9,0.1,1.3c0.1,0.4,0.2,0.7,0.4,0.9
	c0.2,0.2,0.4,0.4,0.7,0.6c0.3,0.1,0.5,0.2,0.9,0.2c0.3,0,0.6-0.1,0.9-0.2c0.3-0.1,0.5-0.3,0.6-0.6c0.2-0.3,0.3-0.6,0.4-0.9
	C718.9,31.1,719,30.7,719,30.2z M729,25.7v8.5h-1.5l-3.8-6.1v6.1h-1.5v-8.5h1.5l3.8,6.1v-6.1H729z M734.4,25.7v8.5h-1.5v-8.5H734.4z
	 M737,25.7v1.2h-6.8v-1.2H737z M744.1,29.2v1.2h-4.5v-1.2H744.1z M739.9,25.7v8.5h-1.5v-8.5H739.9z M745.2,25.7v8.5h-1.5v-8.5H745.2
	z M751.8,32c0-0.2,0-0.3-0.1-0.5c-0.1-0.1-0.1-0.3-0.3-0.4c-0.1-0.1-0.3-0.2-0.6-0.3c-0.2-0.1-0.5-0.2-0.9-0.3
	c-0.4-0.1-0.8-0.3-1.1-0.4c-0.3-0.2-0.6-0.3-0.9-0.5c-0.3-0.2-0.5-0.4-0.6-0.7c-0.1-0.3-0.2-0.6-0.2-0.9c0-0.3,0.1-0.7,0.2-0.9
	c0.1-0.3,0.4-0.5,0.6-0.7c0.3-0.2,0.6-0.4,1-0.5c0.4-0.1,0.8-0.2,1.2-0.2c0.6,0,1.2,0.1,1.6,0.4c0.5,0.2,0.8,0.5,1.1,0.9
	c0.2,0.4,0.4,0.8,0.4,1.3h-1.5c0-0.3-0.1-0.5-0.2-0.7c-0.1-0.2-0.3-0.4-0.5-0.5c-0.2-0.1-0.5-0.2-0.9-0.2c-0.3,0-0.6,0.1-0.9,0.2
	c-0.2,0.1-0.4,0.2-0.5,0.4c-0.1,0.2-0.2,0.4-0.2,0.6c0,0.2,0,0.3,0.1,0.4c0.1,0.1,0.2,0.2,0.3,0.4c0.2,0.1,0.3,0.2,0.6,0.3
	c0.2,0.1,0.5,0.2,0.8,0.3c0.5,0.1,0.9,0.3,1.2,0.5c0.4,0.2,0.6,0.4,0.9,0.6c0.2,0.2,0.4,0.5,0.5,0.7c0.1,0.3,0.2,0.6,0.2,0.9
	c0,0.4-0.1,0.7-0.2,1c-0.1,0.3-0.4,0.5-0.6,0.7c-0.3,0.2-0.6,0.4-1,0.5c-0.4,0.1-0.8,0.2-1.2,0.2c-0.4,0-0.8-0.1-1.2-0.2
	c-0.4-0.1-0.8-0.3-1.1-0.5c-0.3-0.2-0.6-0.5-0.8-0.8c-0.2-0.3-0.3-0.7-0.3-1.2h1.5c0,0.3,0,0.5,0.1,0.7c0.1,0.2,0.2,0.4,0.4,0.5
	c0.2,0.1,0.4,0.2,0.6,0.3c0.2,0.1,0.5,0.1,0.7,0.1c0.3,0,0.6,0,0.9-0.1c0.2-0.1,0.4-0.2,0.5-0.4C751.7,32.4,751.8,32.2,751.8,32z"/>
<path class="st2" d="M666.9,57.2v1.5h-8.2l-0.1-1.1l4.9-7.7h1.5l-1.6,2.8l-2.8,4.5H666.9z M665.5,49.8v11.4h-1.9V49.8H665.5z
	 M675.3,49.8v1l-4.5,10.3h-2l4.5-9.9h-5.9v-1.5H675.3z M678.4,55.9l-1.5-0.4l0.6-5.7h6.1v1.6h-4.6l-0.3,2.8c0.2-0.1,0.4-0.2,0.7-0.3
	c0.3-0.1,0.7-0.2,1.1-0.2c0.5,0,1,0.1,1.4,0.3c0.4,0.2,0.8,0.4,1.1,0.8c0.3,0.3,0.5,0.7,0.7,1.2c0.2,0.5,0.2,1,0.2,1.6
	c0,0.5-0.1,1-0.2,1.5c-0.2,0.5-0.4,0.9-0.7,1.2c-0.3,0.3-0.7,0.6-1.2,0.8c-0.5,0.2-1,0.3-1.6,0.3c-0.5,0-0.9-0.1-1.4-0.2
	c-0.4-0.1-0.8-0.3-1.2-0.6c-0.3-0.3-0.6-0.6-0.8-1c-0.2-0.4-0.3-0.9-0.4-1.4h1.8c0,0.4,0.1,0.7,0.3,0.9c0.2,0.3,0.4,0.5,0.6,0.6
	c0.3,0.1,0.6,0.2,0.9,0.2c0.3,0,0.6-0.1,0.8-0.2c0.2-0.1,0.4-0.3,0.6-0.5c0.2-0.2,0.3-0.5,0.3-0.8c0.1-0.3,0.1-0.6,0.1-1
	c0-0.3,0-0.6-0.1-0.9c-0.1-0.3-0.2-0.5-0.4-0.7c-0.2-0.2-0.4-0.4-0.6-0.5c-0.3-0.1-0.5-0.2-0.9-0.2c-0.4,0-0.8,0.1-1,0.2
	C678.9,55.6,678.6,55.7,678.4,55.9z M696.4,59.7v1.5h-7.6v-1.3l3.7-4c0.4-0.5,0.7-0.9,1-1.2c0.2-0.3,0.4-0.6,0.5-0.9
	c0.1-0.3,0.1-0.5,0.1-0.8c0-0.4-0.1-0.7-0.2-0.9c-0.1-0.3-0.3-0.5-0.6-0.6c-0.3-0.2-0.6-0.2-0.9-0.2c-0.4,0-0.8,0.1-1.1,0.3
	c-0.3,0.2-0.5,0.4-0.6,0.8c-0.1,0.3-0.2,0.7-0.2,1.1h-1.9c0-0.7,0.2-1.3,0.5-1.8c0.3-0.6,0.7-1,1.3-1.3c0.6-0.3,1.3-0.5,2.1-0.5
	c0.8,0,1.4,0.1,1.9,0.4c0.5,0.3,0.9,0.6,1.2,1.1c0.3,0.5,0.4,1,0.4,1.7c0,0.4-0.1,0.7-0.2,1.1c-0.1,0.3-0.3,0.7-0.5,1
	c-0.2,0.3-0.5,0.7-0.7,1c-0.3,0.3-0.6,0.7-0.9,1l-2.5,2.7H696.4z M705,49.8v1l-4.5,10.3h-2l4.5-9.9h-5.9v-1.5H705z M708.3,54.7h1.1
	c0.4,0,0.8-0.1,1.1-0.2c0.3-0.2,0.5-0.4,0.6-0.6c0.1-0.3,0.2-0.6,0.2-0.9c0-0.4-0.1-0.7-0.2-0.9c-0.1-0.3-0.3-0.5-0.6-0.6
	c-0.3-0.1-0.6-0.2-1-0.2c-0.3,0-0.6,0.1-0.9,0.2c-0.3,0.1-0.5,0.3-0.6,0.6c-0.2,0.2-0.2,0.5-0.2,0.9H706c0-0.6,0.2-1.1,0.5-1.6
	c0.3-0.5,0.8-0.8,1.3-1.1c0.6-0.3,1.2-0.4,1.9-0.4c0.7,0,1.4,0.1,1.9,0.4c0.6,0.2,1,0.6,1.3,1.1c0.3,0.5,0.5,1.1,0.5,1.8
	c0,0.3-0.1,0.7-0.2,1c-0.2,0.3-0.4,0.6-0.7,0.9c-0.3,0.3-0.7,0.5-1.1,0.7c-0.4,0.2-1,0.2-1.5,0.2h-1.4V54.7z M708.3,56.1v-1h1.4
	c0.7,0,1.2,0.1,1.7,0.2c0.5,0.2,0.9,0.4,1.2,0.6c0.3,0.3,0.5,0.6,0.6,0.9c0.1,0.3,0.2,0.7,0.2,1.1c0,0.5-0.1,1-0.3,1.4
	c-0.2,0.4-0.5,0.8-0.8,1s-0.8,0.5-1.2,0.6c-0.5,0.1-1,0.2-1.5,0.2c-0.5,0-1-0.1-1.4-0.2c-0.4-0.1-0.8-0.3-1.2-0.6
	c-0.4-0.3-0.6-0.6-0.8-1c-0.2-0.4-0.3-0.9-0.3-1.4h1.9c0,0.3,0.1,0.6,0.2,0.9c0.2,0.3,0.4,0.5,0.7,0.6c0.3,0.1,0.6,0.2,1,0.2
	c0.4,0,0.7-0.1,1-0.2c0.3-0.1,0.5-0.3,0.7-0.6c0.2-0.3,0.2-0.6,0.2-1c0-0.4-0.1-0.8-0.3-1.1c-0.2-0.3-0.4-0.5-0.7-0.6
	c-0.3-0.1-0.7-0.2-1.1-0.2H708.3z"/>
<path class="st4" d="M646.2,25.2L646.2,25.2c2.2,0,4,1.8,4,4l0,0c0,2.2-1.8,4-4,4l0,0c-2.2,0-4-1.8-4-4l0,0
	C642.2,27,644,25.2,646.2,25.2z"/>
<path class="st3" d="M843.9,31h-2.2v-1.2h2.2c0.4,0,0.7-0.1,0.9-0.2c0.2-0.1,0.4-0.3,0.5-0.5c0.1-0.2,0.2-0.5,0.2-0.8
	c0-0.3-0.1-0.5-0.2-0.8c-0.1-0.2-0.3-0.4-0.5-0.6c-0.2-0.1-0.6-0.2-0.9-0.2h-1.8v7.4h-1.5v-8.5h3.2c0.7,0,1.2,0.1,1.7,0.4
	c0.5,0.2,0.8,0.6,1.1,1c0.2,0.4,0.4,0.9,0.4,1.4c0,0.6-0.1,1-0.4,1.4c-0.2,0.4-0.6,0.7-1.1,0.9C845.1,30.9,844.6,31,843.9,31z
	 M848.6,25.7h3c0.6,0,1.2,0.1,1.7,0.3c0.5,0.2,0.8,0.5,1,0.9c0.2,0.4,0.4,0.8,0.4,1.4c0,0.4-0.1,0.8-0.2,1.1
	c-0.2,0.3-0.4,0.6-0.7,0.8c-0.3,0.2-0.6,0.4-1,0.5l-0.4,0.2h-2.7l0-1.2h2c0.4,0,0.6-0.1,0.9-0.2s0.4-0.3,0.5-0.5
	c0.1-0.2,0.2-0.5,0.2-0.7c0-0.3-0.1-0.6-0.2-0.8c-0.1-0.2-0.3-0.4-0.5-0.5c-0.2-0.1-0.5-0.2-0.9-0.2h-1.5v7.4h-1.5V25.7z
	 M853.5,34.2l-2-3.8l1.5,0l2,3.8v0.1H853.5z M862.1,33v1.2h-4.5V33H862.1z M858,25.7v8.5h-1.5v-8.5H858z M861.5,29.2v1.1h-3.9v-1.1
	H861.5z M862,25.7v1.2h-4.5v-1.2H862z M866.5,32.6l2.2-7h1.6l-3.1,8.5h-1.1L866.5,32.6z M864.4,25.7l2.2,7l0.3,1.6h-1.1l-3-8.5
	H864.4z M873.2,25.7v8.5h-1.5v-8.5H873.2z M882.1,29.7v0.5c0,0.6-0.1,1.2-0.3,1.7c-0.2,0.5-0.4,0.9-0.7,1.3
	c-0.3,0.4-0.7,0.6-1.1,0.8c-0.4,0.2-0.9,0.3-1.4,0.3c-0.5,0-1-0.1-1.4-0.3c-0.4-0.2-0.8-0.5-1.1-0.8c-0.3-0.4-0.6-0.8-0.7-1.3
	c-0.2-0.5-0.3-1.1-0.3-1.7v-0.5c0-0.6,0.1-1.2,0.3-1.7c0.2-0.5,0.4-0.9,0.7-1.3c0.3-0.4,0.7-0.6,1.1-0.8c0.4-0.2,0.9-0.3,1.4-0.3
	c0.5,0,1,0.1,1.4,0.3c0.4,0.2,0.8,0.5,1.1,0.8c0.3,0.4,0.6,0.8,0.7,1.3C882,28.5,882.1,29.1,882.1,29.7z M880.7,30.2v-0.5
	c0-0.5,0-0.9-0.1-1.3c-0.1-0.4-0.2-0.7-0.4-0.9c-0.2-0.2-0.4-0.4-0.7-0.6c-0.3-0.1-0.5-0.2-0.9-0.2c-0.3,0-0.6,0.1-0.9,0.2
	c-0.3,0.1-0.5,0.3-0.7,0.6c-0.2,0.2-0.3,0.6-0.4,0.9c-0.1,0.4-0.1,0.8-0.1,1.3v0.5c0,0.5,0,0.9,0.1,1.3c0.1,0.4,0.2,0.7,0.4,0.9
	c0.2,0.2,0.4,0.4,0.7,0.6c0.3,0.1,0.5,0.2,0.9,0.2c0.3,0,0.6-0.1,0.9-0.2c0.3-0.1,0.5-0.3,0.6-0.6c0.2-0.3,0.3-0.6,0.4-0.9
	C880.6,31.1,880.7,30.7,880.7,30.2z M888.7,25.7h1.5v5.7c0,0.6-0.1,1.2-0.4,1.6s-0.7,0.8-1.1,1c-0.5,0.2-1,0.3-1.6,0.3
	c-0.6,0-1.2-0.1-1.6-0.3c-0.5-0.2-0.9-0.6-1.1-1c-0.3-0.4-0.4-1-0.4-1.6v-5.7h1.5v5.7c0,0.4,0.1,0.7,0.2,1c0.1,0.3,0.3,0.5,0.6,0.6
	s0.6,0.2,0.9,0.2s0.7-0.1,0.9-0.2c0.3-0.1,0.5-0.3,0.6-0.6c0.1-0.3,0.2-0.6,0.2-1V25.7z M896.5,32c0-0.2,0-0.3-0.1-0.5
	c-0.1-0.1-0.1-0.3-0.3-0.4c-0.1-0.1-0.3-0.2-0.6-0.3c-0.2-0.1-0.5-0.2-0.9-0.3c-0.4-0.1-0.8-0.3-1.1-0.4c-0.3-0.2-0.6-0.3-0.9-0.5
	c-0.3-0.2-0.5-0.4-0.6-0.7c-0.1-0.3-0.2-0.6-0.2-0.9c0-0.3,0.1-0.7,0.2-0.9c0.1-0.3,0.4-0.5,0.6-0.7c0.3-0.2,0.6-0.4,1-0.5
	c0.4-0.1,0.8-0.2,1.2-0.2c0.6,0,1.2,0.1,1.6,0.4c0.5,0.2,0.8,0.5,1.1,0.9c0.2,0.4,0.4,0.8,0.4,1.3h-1.5c0-0.3-0.1-0.5-0.2-0.7
	c-0.1-0.2-0.3-0.4-0.5-0.5c-0.2-0.1-0.5-0.2-0.9-0.2c-0.3,0-0.6,0.1-0.9,0.2c-0.2,0.1-0.4,0.2-0.5,0.4c-0.1,0.2-0.2,0.4-0.2,0.6
	c0,0.2,0,0.3,0.1,0.4c0.1,0.1,0.2,0.2,0.3,0.4c0.2,0.1,0.3,0.2,0.6,0.3c0.2,0.1,0.5,0.2,0.8,0.3c0.5,0.1,0.9,0.3,1.2,0.5
	c0.4,0.2,0.6,0.4,0.9,0.6c0.2,0.2,0.4,0.5,0.5,0.7c0.1,0.3,0.2,0.6,0.2,0.9c0,0.4-0.1,0.7-0.2,1c-0.1,0.3-0.4,0.5-0.6,0.7
	c-0.3,0.2-0.6,0.4-1,0.5c-0.4,0.1-0.8,0.2-1.2,0.2c-0.4,0-0.8-0.1-1.2-0.2c-0.4-0.1-0.8-0.3-1.1-0.5c-0.3-0.2-0.6-0.5-0.8-0.8
	c-0.2-0.3-0.3-0.7-0.3-1.2h1.5c0,0.3,0,0.5,0.1,0.7c0.1,0.2,0.2,0.4,0.4,0.5c0.2,0.1,0.4,0.2,0.6,0.3c0.2,0.1,0.5,0.1,0.7,0.1
	c0.3,0,0.6,0,0.9-0.1c0.2-0.1,0.4-0.2,0.5-0.4C896.5,32.4,896.5,32.2,896.5,32z"/>
<path class="st2" d="M848.2,49.8v1l-4.5,10.3h-2l4.5-9.9h-5.9v-1.5H848.2z M856.8,58.1c0,0.7-0.2,1.3-0.5,1.8
	c-0.3,0.5-0.8,0.9-1.3,1.1c-0.6,0.2-1.2,0.4-1.9,0.4c-0.7,0-1.3-0.1-1.9-0.4c-0.6-0.2-1-0.6-1.3-1.1c-0.3-0.5-0.5-1.1-0.5-1.8
	c0-0.5,0.1-0.9,0.3-1.3c0.2-0.4,0.4-0.7,0.8-1c0.3-0.3,0.7-0.5,1.2-0.6c0.5-0.2,1-0.2,1.5-0.2c0.7,0,1.4,0.1,1.9,0.4
	c0.6,0.3,1,0.6,1.3,1.1C856.6,56.9,856.8,57.5,856.8,58.1z M854.9,58c0-0.4-0.1-0.7-0.2-1c-0.2-0.3-0.4-0.5-0.7-0.7
	c-0.3-0.2-0.6-0.2-1-0.2c-0.4,0-0.7,0.1-1,0.2c-0.3,0.2-0.5,0.4-0.6,0.7c-0.2,0.3-0.2,0.6-0.2,1c0,0.4,0.1,0.7,0.2,1
	c0.2,0.3,0.4,0.5,0.6,0.6c0.3,0.1,0.6,0.2,1,0.2s0.7-0.1,1-0.2c0.3-0.1,0.5-0.4,0.6-0.6C854.8,58.7,854.9,58.4,854.9,58z
	 M856.5,52.8c0,0.6-0.2,1.1-0.5,1.5c-0.3,0.4-0.7,0.8-1.2,1c-0.5,0.2-1.1,0.4-1.8,0.4c-0.7,0-1.3-0.1-1.8-0.4
	c-0.5-0.3-0.9-0.6-1.2-1c-0.3-0.4-0.4-0.9-0.4-1.5c0-0.7,0.1-1.2,0.4-1.7c0.3-0.5,0.7-0.8,1.2-1.1c0.5-0.2,1.1-0.4,1.8-0.4
	s1.3,0.1,1.8,0.4c0.5,0.2,0.9,0.6,1.2,1.1C856.4,51.6,856.5,52.1,856.5,52.8z M854.7,52.9c0-0.3-0.1-0.6-0.2-0.9
	c-0.1-0.3-0.3-0.5-0.6-0.6c-0.2-0.1-0.5-0.2-0.9-0.2c-0.3,0-0.6,0.1-0.9,0.2c-0.2,0.1-0.4,0.3-0.6,0.6c-0.1,0.3-0.2,0.6-0.2,0.9
	c0,0.3,0.1,0.7,0.2,0.9c0.1,0.3,0.3,0.5,0.6,0.6c0.2,0.1,0.5,0.2,0.9,0.2s0.6-0.1,0.9-0.2c0.2-0.1,0.4-0.3,0.6-0.6
	C854.6,53.5,854.7,53.2,854.7,52.9z M865.7,59.7v1.5H858v-1.3l3.7-4c0.4-0.5,0.7-0.9,1-1.2c0.2-0.3,0.4-0.6,0.5-0.9
	c0.1-0.3,0.1-0.5,0.1-0.8c0-0.4-0.1-0.7-0.2-0.9c-0.1-0.3-0.3-0.5-0.6-0.6c-0.3-0.2-0.6-0.2-0.9-0.2c-0.4,0-0.8,0.1-1.1,0.3
	c-0.3,0.2-0.5,0.4-0.6,0.8c-0.1,0.3-0.2,0.7-0.2,1.1h-1.9c0-0.7,0.2-1.3,0.5-1.8c0.3-0.6,0.7-1,1.3-1.3c0.6-0.3,1.3-0.5,2.1-0.5
	c0.8,0,1.4,0.1,1.9,0.4c0.5,0.3,0.9,0.6,1.2,1.1c0.3,0.5,0.4,1,0.4,1.7c0,0.4-0.1,0.7-0.2,1.1c-0.1,0.3-0.3,0.7-0.5,1
	c-0.2,0.3-0.5,0.7-0.7,1c-0.3,0.3-0.6,0.7-0.9,1l-2.5,2.7H865.7z M872.5,54.7h1.1c0.4,0,0.8-0.1,1.1-0.2c0.3-0.2,0.5-0.4,0.6-0.6
	s0.2-0.6,0.2-0.9c0-0.4-0.1-0.7-0.2-0.9c-0.1-0.3-0.3-0.5-0.6-0.6c-0.3-0.1-0.6-0.2-1-0.2c-0.3,0-0.6,0.1-0.9,0.2
	c-0.3,0.1-0.5,0.3-0.6,0.6c-0.2,0.2-0.2,0.5-0.2,0.9h-1.9c0-0.6,0.2-1.1,0.5-1.6c0.3-0.5,0.8-0.8,1.3-1.1c0.6-0.3,1.2-0.4,1.9-0.4
	c0.7,0,1.4,0.1,1.9,0.4c0.6,0.2,1,0.6,1.3,1.1c0.3,0.5,0.5,1.1,0.5,1.8c0,0.3-0.1,0.7-0.2,1c-0.2,0.3-0.4,0.6-0.7,0.9
	c-0.3,0.3-0.7,0.5-1.1,0.7c-0.4,0.2-1,0.2-1.5,0.2h-1.4V54.7z M872.5,56.1v-1h1.4c0.7,0,1.2,0.1,1.7,0.2c0.5,0.2,0.9,0.4,1.2,0.6
	c0.3,0.3,0.5,0.6,0.6,0.9c0.1,0.3,0.2,0.7,0.2,1.1c0,0.5-0.1,1-0.3,1.4c-0.2,0.4-0.5,0.8-0.8,1s-0.8,0.5-1.2,0.6
	c-0.5,0.1-1,0.2-1.5,0.2c-0.5,0-1-0.1-1.4-0.2c-0.4-0.1-0.8-0.3-1.2-0.6c-0.4-0.3-0.6-0.6-0.8-1c-0.2-0.4-0.3-0.9-0.3-1.4h1.9
	c0,0.3,0.1,0.6,0.2,0.9c0.2,0.3,0.4,0.5,0.7,0.6c0.3,0.1,0.6,0.2,1,0.2c0.4,0,0.7-0.1,1-0.2c0.3-0.1,0.5-0.3,0.7-0.6
	c0.2-0.3,0.2-0.6,0.2-1c0-0.4-0.1-0.8-0.3-1.1c-0.2-0.3-0.4-0.5-0.7-0.6c-0.3-0.1-0.7-0.2-1.1-0.2H872.5z M880.5,59.7h0.2
	c0.7,0,1.3-0.1,1.8-0.3c0.5-0.2,0.9-0.5,1.2-0.8c0.3-0.3,0.5-0.7,0.6-1.2c0.1-0.5,0.2-1,0.2-1.5v-2c0-0.5,0-0.9-0.1-1.2
	c-0.1-0.4-0.2-0.6-0.4-0.9c-0.2-0.2-0.4-0.4-0.6-0.5c-0.2-0.1-0.5-0.2-0.7-0.2c-0.3,0-0.5,0.1-0.8,0.2c-0.2,0.1-0.4,0.3-0.6,0.5
	c-0.2,0.2-0.3,0.5-0.4,0.8c-0.1,0.3-0.1,0.6-0.1,0.9c0,0.3,0,0.6,0.1,0.9c0.1,0.3,0.2,0.5,0.3,0.8c0.2,0.2,0.3,0.4,0.6,0.5
	c0.2,0.1,0.5,0.2,0.8,0.2c0.3,0,0.6-0.1,0.8-0.2c0.2-0.1,0.5-0.3,0.6-0.5c0.2-0.2,0.3-0.4,0.4-0.6c0.1-0.2,0.2-0.5,0.2-0.7l0.7,0.2
	c0,0.4-0.1,0.8-0.2,1.2c-0.2,0.4-0.4,0.7-0.7,1c-0.3,0.3-0.6,0.6-1,0.8c-0.4,0.2-0.8,0.3-1.2,0.3c-0.5,0-1-0.1-1.4-0.3
	c-0.4-0.2-0.8-0.5-1-0.8c-0.3-0.4-0.5-0.8-0.6-1.2c-0.1-0.5-0.2-0.9-0.2-1.4c0-0.5,0.1-1.1,0.2-1.5c0.2-0.5,0.4-0.9,0.7-1.3
	c0.3-0.4,0.7-0.7,1.2-0.9c0.5-0.2,1-0.3,1.6-0.3c0.6,0,1.2,0.1,1.6,0.4c0.5,0.2,0.9,0.6,1.2,1c0.3,0.4,0.6,0.9,0.7,1.5
	c0.2,0.6,0.2,1.2,0.2,1.8V55c0,0.7-0.1,1.3-0.2,1.9c-0.1,0.6-0.3,1.2-0.6,1.7c-0.3,0.5-0.6,1-1.1,1.4c-0.4,0.4-1,0.7-1.6,0.9
	c-0.6,0.2-1.4,0.3-2.2,0.3h-0.2V59.7z M893.4,49.8h0.2v1.5h-0.1c-0.7,0-1.3,0.1-1.7,0.3c-0.5,0.2-0.9,0.5-1.2,0.9
	c-0.3,0.4-0.5,0.8-0.7,1.3c-0.2,0.5-0.2,1-0.2,1.5v1.8c0,0.5,0,0.9,0.1,1.2c0.1,0.3,0.2,0.6,0.4,0.9c0.2,0.2,0.4,0.4,0.6,0.5
	c0.2,0.1,0.5,0.2,0.8,0.2c0.3,0,0.5-0.1,0.8-0.2c0.2-0.1,0.4-0.3,0.6-0.5c0.2-0.2,0.3-0.5,0.4-0.7c0.1-0.3,0.1-0.6,0.1-0.9
	c0-0.3,0-0.6-0.1-0.9c-0.1-0.3-0.2-0.5-0.4-0.8c-0.2-0.2-0.4-0.4-0.6-0.5c-0.2-0.1-0.5-0.2-0.8-0.2c-0.4,0-0.7,0.1-1,0.3
	c-0.3,0.2-0.5,0.4-0.7,0.7c-0.2,0.3-0.3,0.6-0.3,0.9l-0.7-0.2c0-0.5,0.1-0.9,0.3-1.3c0.2-0.4,0.4-0.7,0.7-1s0.6-0.5,1-0.6
	c0.4-0.1,0.8-0.2,1.2-0.2c0.6,0,1,0.1,1.4,0.3c0.4,0.2,0.7,0.5,1,0.9c0.3,0.4,0.5,0.8,0.6,1.2c0.1,0.5,0.2,0.9,0.2,1.4
	c0,0.5-0.1,1.1-0.2,1.5c-0.2,0.5-0.4,0.9-0.7,1.2c-0.3,0.4-0.7,0.6-1.2,0.8c-0.5,0.2-1,0.3-1.5,0.3c-0.6,0-1.2-0.1-1.6-0.4
	c-0.5-0.2-0.9-0.6-1.2-1c-0.3-0.4-0.6-0.9-0.8-1.4s-0.3-1.1-0.3-1.7v-0.8c0-0.9,0.1-1.7,0.3-2.4c0.2-0.8,0.6-1.5,1-2
	c0.5-0.6,1-1,1.8-1.4C891.6,49.9,892.4,49.8,893.4,49.8z"/>
<path class="st5" d="M827.8,25.2L827.8,25.2c2.2,0,4,1.8,4,4l0,0c0,2.2-1.8,4-4,4l0,0c-2.2,0-4-1.8-4-4l0,0
	C823.8,27,825.6,25.2,827.8,25.2z"/>
<rect x="65.8" y="104.8" class="st6" width="0.7" height="225.9"/>
<rect x="935" y="104.8" class="st6" width="0.7" height="225.9"/>
<rect x="189.6" y="104.5" class="st7" width="1.3" height="226.5"/>
<rect x="313.8" y="104.5" class="st7" width="1.3" height="226.5"/>
<rect x="437.9" y="104.5" class="st7" width="1.3" height="226.5"/>
<rect x="562.1" y="104.5" class="st7" width="1.3" height="226.5"/>
<rect x="686.3" y="104.5" class="st7" width="1.3" height="226.5"/>
<rect x="810.5" y="104.5" class="st7" width="1.3" height="226.5"/>
<path class="st5" d="M66.8,276.8c0.7,0.7,0.7,0.7,0.7,0.7c0,0,0,0,0,0c0,0,0,0,0,0c0,0,0,0,0,0c0,0,0,0,0.1-0.1
	c0.1-0.1,0.2-0.2,0.3-0.3c0.3-0.3,0.7-0.6,1.2-1.1c1.1-0.9,2.6-2.3,4.5-3.9c3.9-3.2,9.3-7.6,15.4-11.9c6.1-4.3,13-8.6,19.7-11.9
	c6.8-3.2,13.3-5.3,19-5.3v-2c-6.1,0-13,2.2-19.8,5.5c-6.9,3.3-13.8,7.7-20,12c-6.2,4.4-11.6,8.7-15.5,12c-2,1.6-3.5,3-4.6,4
	c-0.5,0.5-1,0.9-1.2,1.1c-0.1,0.1-0.2,0.2-0.3,0.3c0,0-0.1,0.1-0.1,0.1c0,0,0,0,0,0c0,0,0,0,0,0l0,0
	C66.1,276.1,66.1,276.1,66.8,276.8z M127.7,243.1c11.6,0,21.1,2.9,30.9,5.8c9.7,2.9,19.7,5.8,31.9,5.8v-2c-11.9,0-21.5-2.9-31.3-5.8
	c-9.7-2.9-19.5-5.8-31.4-5.8V243.1z M190.4,254.6c12.3,0,22-4.4,31.4-8.8c9.5-4.4,18.7-8.6,30.1-8.6v-2c-12,0-21.5,4.4-31,8.8
	c-9.5,4.4-18.8,8.6-30.6,8.6V254.6z M252,237.3c5.7,0,11.5,1.6,17.4,4.1c5.9,2.5,11.9,5.7,17.9,8.9c12,6.3,24.4,12.3,36.7,10.2
	l-0.3-2c-11.5,1.9-23.3-3.7-35.4-10c-6-3.1-12.1-6.4-18.1-9c-6-2.5-12.1-4.3-18.1-4.3V237.3z M324,260.5
	c11.4-1.9,18.3,4.2,25.5,11.2c7.1,6.9,14.6,14.8,26.8,14.8v-2c-11.2,0-18.1-7.2-25.4-14.2c-7.2-7-14.8-13.9-27.2-11.8L324,260.5z
	 M376.2,286.5c6.3,0,11.9-3.9,17-9.4c5.2-5.5,10.1-12.8,14.9-20c4.9-7.3,9.7-14.4,14.8-19.8c5.1-5.4,10.3-8.7,15.9-8.7v-2
	c-6.4,0-12.1,3.9-17.4,9.4c-5.2,5.5-10.2,12.8-15,20c-4.9,7.3-9.7,14.4-14.7,19.8c-5,5.4-10.1,8.7-15.6,8.7V286.5z M438.9,228.6
	c5.8,0,11,2.1,15.9,5.3c5,3.2,9.7,7.5,14.4,11.8c4.7,4.3,9.5,8.7,14.6,12c5.1,3.3,10.6,5.6,16.7,5.6v-2c-5.6,0-10.7-2.1-15.6-5.3
	c-4.9-3.2-9.6-7.5-14.3-11.8c-4.7-4.3-9.5-8.7-14.7-12c-5.2-3.3-10.7-5.6-17-5.6V228.6z M500.5,263.3c12,0,21.8-4.4,31.5-8.8
	c9.8-4.4,19.4-8.6,31.2-8.6v-2c-12.3,0-22.3,4.4-32,8.8c-9.8,4.4-19.3,8.6-30.7,8.6V263.3z M563.2,246c5.7,0,10.1,2.1,14.1,5.2
	c4,3.2,7.6,7.4,11.7,11.8c8.1,8.8,18,17.7,36.9,17.7v-2c-18.1,0-27.5-8.4-35.5-17.1c-4-4.3-7.7-8.7-11.9-12
	c-4.2-3.4-9.1-5.6-15.4-5.6V246z M625.9,280.7c19.1,0,28.9-15,36.7-29.5c4-7.3,7.4-14.4,11.3-19.8c3.9-5.3,8.1-8.6,13.5-8.6v-2
	c-6.3,0-11.1,3.9-15.1,9.5c-4,5.5-7.6,12.9-11.5,20c-7.9,14.5-17.1,28.4-35,28.4V280.7z M687.4,222.8c11.4,0,20.9,6.3,30.8,12.9
	c9.8,6.5,19.8,13.2,31.9,13.2v-2c-11.4,0-20.9-6.3-30.8-12.9c-9.8-6.5-19.8-13.2-31.9-13.2V222.8z M750.2,248.9
	c6.1,0,11.6-2.3,16.8-5.6c5.1-3.3,9.9-7.7,14.7-12c4.8-4.4,9.5-8.6,14.4-11.8c4.9-3.2,10.1-5.3,15.7-5.3v-2
	c-6.1,0-11.6,2.3-16.8,5.6c-5.1,3.3-9.9,7.7-14.7,12c-4.8,4.4-9.5,8.6-14.4,11.8c-4.9,3.2-10.1,5.3-15.7,5.3V248.9z M811.7,214.1
	c5.6,0,10.8,1.9,15.9,4.8c5.1,2.9,9.9,6.9,14.8,10.9c4.9,4,9.9,8,15.1,11c5.2,3,10.8,5.1,16.9,5.1v-2c-5.6,0-10.8-1.9-15.9-4.8
	c-5.1-2.9-9.9-6.9-14.8-10.9c-4.9-4-9.9-8-15.1-11c-5.2-3-10.8-5.1-16.9-5.1V214.1z M874.4,246c3.2,0,6.5-1.2,9.9-3.3
	c3.4-2.1,6.9-5,10.3-8.5c6.9-7,13.9-16.3,20.2-25.5c6.2-9.3,11.8-18.5,15.7-25.4c2-3.5,3.6-6.4,4.6-8.4c0.5-1,1-1.8,1.3-2.4
	c0.1-0.3,0.3-0.5,0.3-0.6c0-0.1,0.1-0.1,0.1-0.2c0,0,0,0,0,0c0,0,0,0,0,0c0,0,0,0,0,0c0,0,0,0-0.9-0.5c-0.9-0.5-0.9-0.5-0.9-0.5
	c0,0,0,0,0,0c0,0,0,0,0,0c0,0,0,0,0,0c0,0,0,0.1-0.1,0.2c-0.1,0.1-0.2,0.3-0.3,0.6c-0.3,0.5-0.7,1.3-1.2,2.3c-1.1,2-2.7,4.9-4.6,8.3
	c-3.9,6.9-9.4,16.1-15.6,25.3c-6.2,9.2-13.1,18.4-19.9,25.2c-3.4,3.4-6.8,6.3-9.9,8.2c-3.2,2-6.2,3-8.9,3V246z"/>
<path class="st4" d="M66.8,240c0,1,0,1,0,1c0,0,0,0,0,0c0,0,0,0,0,0s0,0,0,0s0,0,0,0c0,0,0,0,0,0c0,0,0,0,0,0s0,0,0,0c0,0,0,0,0,0
	c0,0,0,0,0,0c0,0,0,0,0,0s0,0,0,0s0,0,0,0c0,0,0,0,0,0c0,0,0,0,0,0c0,0,0,0,0,0c0,0,0,0,0,0c0,0,0,0,0,0c0,0,0,0,0,0c0,0,0,0,0,0
	c0,0,0,0,0,0c0,0,0,0,0,0c0,0,0,0,0,0c0,0,0,0,0,0c0,0,0,0,0,0c0,0,0,0,0,0c0,0,0,0,0,0c0,0,0,0,0,0s0,0,0,0c0,0,0,0,0,0
	c0,0,0,0,0,0c0,0,0,0,0,0c0,0,0,0,0,0s0,0,0,0s0,0,0,0c0,0,0,0,0,0s0,0,0,0c0,0,0,0,0,0c0,0,0,0,0,0s0,0,0,0s0,0,0,0c0,0,0,0,0,0
	c0,0,0,0,0,0c0,0,0,0,0,0s0,0,0,0c0,0,0,0,0,0c0,0,0,0,0,0c0,0,0,0,0,0c0,0,0,0,0,0s0,0,0,0s0,0,0,0c0,0,0,0,0,0c0,0,0,0,0,0
	c0,0,0,0,0,0s0,0,0,0c0,0,0,0,0,0c0,0,0,0,0,0s0,0,0,0s0,0,0,0c0,0,0,0,0,0s0,0,0,0s0,0,0,0c0,0,0,0,0,0c0,0,0,0,0,0c0,0,0,0,0.1,0
	c0,0,0,0,0.1,0c0,0,0,0,0.1,0c0,0,0,0,0.1,0c0,0,0,0,0.1,0c0,0,0,0,0.1,0c0,0,0,0,0.1,0c0,0,0,0,0.1,0c0,0,0,0,0.1,0c0,0,0,0,0.1,0
	c0,0,0,0,0.1,0c0,0,0,0,0.1,0c0,0,0,0,0.1,0c0,0,0,0,0.1,0c0,0,0,0,0.1,0c0,0,0,0,0.1,0c0,0,0,0,0.1,0c0,0,0,0,0.1,0c0,0,0,0,0.1,0
	c0,0,0,0,0.1,0c0,0,0,0,0.1,0c0,0,0,0,0.1,0c0,0,0,0,0.1,0c0,0,0,0,0.1,0c0,0,0,0,0.1,0c0,0,0,0,0.1,0c0,0,0,0,0.1,0c0,0,0,0,0.1,0
	c0,0,0,0,0.1,0c0,0,0,0,0.1,0c0,0,0,0,0.1,0c0,0,0,0,0.1,0s0,0,0.1,0s0,0,0.1,0s0,0,0.1,0c0,0,0.1,0,0.1,0c0,0,0,0,0.1,0
	s0.1,0,0.1,0c0,0,0.1,0,0.1,0c0,0,0.1,0,0.1,0c0,0,0.1,0,0.1,0s0.1,0,0.1,0s0.1,0,0.1,0c0,0,0.1,0,0.1,0c0,0,0.1,0,0.1,0
	c0,0,0.1,0,0.1,0c0,0,0.1,0,0.1,0s0.1,0,0.1,0s0.1,0,0.1,0c0,0,0.1,0,0.1,0c0,0,0.1,0,0.1,0c0,0,0.1,0,0.1,0s0.1,0,0.1,0
	s0.1,0,0.1,0c0,0,0.1,0,0.1,0c0,0,0.1,0,0.1,0c0,0,0.1,0,0.1,0s0.1,0,0.1,0c0,0,0.1,0,0.1,0c0,0,0.1,0,0.1,0c0,0,0.1,0,0.1,0
	s0.1,0,0.1,0s0.1,0,0.1,0c0,0,0.1,0,0.1,0c0,0,0.1,0,0.1,0c0,0,0.1,0,0.1,0c0,0,0.1,0,0.1,0c0,0,0.1,0,0.1,0c0,0,0.1,0,0.1,0
	c0,0,0.1,0,0.1,0c0,0,0.1,0,0.1,0c0,0,0.1,0,0.1,0c0,0,0.1,0,0.1,0c0,0,0.1,0,0.1,0c0,0,0.1,0,0.1,0c0,0,0.1,0,0.1,0
	c0,0,0.1,0,0.1,0c0,0,0.1,0,0.1,0c0,0,0.1,0,0.1,0c0,0,0.1,0,0.1,0c0,0,0.1,0,0.1,0s0.1,0,0.1,0c0,0,0.1,0,0.1,0c0,0,0.1,0,0.1,0
	c0,0,0.1,0,0.1,0c0,0,0.1,0,0.1,0c0,0,0.1,0,0.1,0c0,0,0.1,0,0.1,0c0,0,0.1,0,0.1,0c0,0,0.1,0,0.1,0c0,0,0.1,0,0.1,0
	c0,0,0.1,0,0.1,0c0,0,0.1,0,0.1,0c0,0,0.1,0,0.1,0c0,0,0.1,0,0.1,0c0,0,0.1,0,0.1,0c0,0,0.1,0,0.1,0c0,0,0.1,0,0.1,0s0.1,0,0.1,0
	c0,0,0.1,0,0.1,0c0,0,0.1,0,0.1,0c0,0,0.1,0,0.1,0c0,0,0.1,0,0.1,0c0,0,0.1,0,0.1,0c0,0,0.1,0,0.1,0c0,0,0.1,0,0.1,0
	c0,0,0.1,0,0.1,0s0.1,0,0.1,0s0.1,0,0.1,0s0.1,0,0.1,0c0,0,0.1,0,0.1,0c0,0,0.1,0,0.1,0c0,0,0.1,0,0.1,0c0,0,0.1,0,0.1,0
	s0.1,0,0.1,0c0,0,0.1,0,0.1,0s0.1,0,0.1,0s0.1,0,0.1,0c0,0,0.1,0,0.1,0c0,0,0.1,0,0.1,0c0,0,0.1,0,0.1,0s0.1,0,0.1,0
	c0,0,0.1,0,0.1,0c0,0,0.1,0,0.1,0s0.1,0,0.1,0c0,0,0.1,0,0.1,0c0,0,0.1,0,0.1,0c0,0,0.1,0,0.1,0c0,0,0.1,0,0.1,0c0,0,0.1,0,0.1,0
	c0,0,0.1,0,0.1,0s0.1,0,0.1,0c0,0,0.1,0,0.1,0c0,0,0.1,0,0.1,0c0,0,0.1,0,0.1,0c0,0,0.1,0,0.1,0c0,0,0.1,0,0.1,0c0,0,0.1,0,0.1,0
	c0,0,0.1,0,0.1,0c0,0,0.1,0,0.1,0c0,0,0.1,0,0.1,0c0,0,0.1,0,0.1,0c0,0,0.1,0,0.1,0c0,0,0.1,0,0.1,0s0.1,0,0.1,0c0,0,0.1,0,0.1,0
	s0.1,0,0.1,0s0.1,0,0.1,0s0.1,0,0.1,0c0,0,0.1,0,0.1,0c0,0,0.1,0,0.1,0s0.1,0,0.1,0c0,0,0.1,0,0.1,0c0,0,0.1,0,0.1,0
	c0,0,0.1,0,0.1,0c0,0,0.1,0,0.1,0c0,0,0.1,0,0.1,0c0,0,0.1,0,0.1,0c0,0,0.1,0,0.1,0s0.1,0,0.1,0s0.1,0,0.1,0c0,0,0.1,0,0.1,0
	s0.1,0,0.1,0s0.1,0,0.1,0s0.1,0,0.1,0s0.1,0,0.1,0c0,0,0.1,0,0.1,0c0,0,0.1,0,0.1,0c0,0,0.1,0,0.1,0c0,0,0.1,0,0.1,0
	c0,0,0.1,0,0.1,0s0.1,0,0.1,0s0.1,0,0.1,0c0,0,0.1,0,0.1,0c0,0,0.1,0,0.1,0c0,0,0.1,0,0.1,0c0,0,0.1,0,0.1,0s0.1,0,0.1,0
	s0.1,0,0.1,0c0,0,0.1,0,0.1,0s0.1,0,0.1,0c0,0,0.1,0,0.1,0c0,0,0.1,0,0.1,0s0.1,0,0.1,0c0,0,0.1,0,0.1,0s0.1,0,0.1,0
	c0,0,0.1,0,0.1,0c0,0,0.1,0,0.1,0c0,0,0.1,0,0.1,0c0,0,0.1,0,0.1,0c0,0,0.1,0,0.1,0c0,0,0.1,0,0.1,0s0.1,0,0.1,0s0.1,0,0.1,0
	s0.1,0,0.1,0c0,0,0.1,0,0.1,0c0,0,0.1,0,0.1,0c0,0,0.1,0,0.1,0c0,0,0.1,0,0.1,0c0,0,0.1,0,0.1,0c0,0,0.1,0,0.1,0c0,0,0.1,0,0.1,0
	s0.1,0,0.1,0c0,0,0.1,0,0.1,0c0.1,0,0.1,0,0.1,0c0,0,0.1,0,0.1,0c0,0,0.1,0,0.1,0c0.1,0,0.1,0,0.1,0c0,0,0.1,0,0.1,0
	c0,0,0.1,0,0.1,0c0.1,0,0.1,0,0.1,0c0.1,0,0.1,0,0.1,0c0.1,0,0.1,0,0.1,0c0,0,0.1,0,0.1,0c0.1,0,0.1,0,0.2,0s0.1,0,0.1,0
	s0.1,0,0.2,0c0,0,0.1,0,0.1,0s0.1,0,0.2,0c0.1,0,0.1,0,0.1,0c0.1,0,0.1,0,0.2,0c0.1,0,0.1,0,0.2,0c0.1,0,0.1,0,0.2,0
	c0,0,0.1,0,0.2,0c0.1,0,0.1,0,0.2,0s0.1,0,0.2,0c0.1,0,0.1,0,0.2,0s0.1,0,0.2,0c0.1,0,0.1,0,0.2,0c0.1,0,0.1,0,0.2,0
	c0.1,0,0.1,0,0.2,0c0.1,0,0.1,0,0.2,0c0.1,0,0.1,0,0.2,0c0.1,0,0.1,0,0.2,0c0.1,0,0.1,0,0.2,0c0.1,0,0.1,0,0.2,0c0.1,0,0.1,0,0.2,0
	c0.1,0,0.1,0,0.2,0c0.1,0,0.1,0,0.2,0c0.1,0,0.1,0,0.2,0c0.1,0,0.1,0,0.2,0c0.1,0,0.1,0,0.2,0c0.1,0,0.1,0,0.2,0c0.1,0,0.1,0,0.2,0
	c0.1,0,0.1,0,0.2,0c0.1,0,0.1,0,0.2,0c0.1,0,0.1,0,0.2,0s0.1,0,0.2,0c0.1,0,0.1,0,0.2,0s0.1,0,0.2,0c0.1,0,0.1,0,0.2,0s0.1,0,0.2,0
	s0.1,0,0.2,0c0.1,0,0.1,0,0.2,0c0.1,0,0.1,0,0.2,0c0.1,0,0.1,0,0.2,0c0.1,0,0.1,0,0.2,0c0.1,0,0.1,0,0.2,0c0.1,0,0.1,0,0.2,0
	c0.1,0,0.1,0,0.2,0c0.1,0,0.1,0,0.2,0c0.1,0,0.1,0,0.2,0c0.1,0,0.1,0,0.2,0c0.1,0,0.1,0,0.2,0c0.1,0,0.1,0,0.2,0c0.1,0,0.1,0,0.2,0
	c0.1,0,0.1,0,0.2,0c0.1,0,0.1,0,0.2,0c0.1,0,0.1,0,0.2,0c0.1,0,0.1,0,0.2,0c0.1,0,0.1,0,0.2,0c0.1,0,0.1,0,0.2,0c0.1,0,0.1,0,0.2,0
	c0.1,0,0.1,0,0.2,0c0.1,0,0.1,0,0.2,0c0.1,0,0.1,0,0.2,0c0.1,0,0.1,0,0.2,0c0.1,0,0.1,0,0.2,0c0.1,0,0.1,0,0.2,0c0.1,0,0.1,0,0.2,0
	c0.1,0,0.1,0,0.2,0s0.1,0,0.2,0c0.1,0,0.1,0,0.2,0c0.1,0,0.1,0,0.2,0c0.1,0,0.1,0,0.2,0s0.1,0,0.2,0c0.1,0,0.1,0,0.2,0s0.1,0,0.2,0
	c0.1,0,0.1,0,0.2,0c0.1,0,0.1,0,0.2,0c0.1,0,0.1,0,0.2,0c0.1,0,0.1,0,0.2,0c0.1,0,0.1,0,0.2,0c0.1,0,0.1,0,0.2,0c0.1,0,0.1,0,0.2,0
	c0.1,0,0.1,0,0.2,0c0.1,0,0.1,0,0.2,0c0.1,0,0.1,0,0.2,0c0.1,0,0.1,0,0.2,0c0.1,0,0.1,0,0.2,0c0.1,0,0.1,0,0.2,0c0.1,0,0.1,0,0.2,0
	c0.1,0,0.1,0,0.2,0c0.1,0,0.1,0,0.2,0c0.1,0,0.1,0,0.2,0c0.1,0,0.1,0,0.2,0c0.1,0,0.1,0,0.2,0c0.1,0,0.1,0,0.2,0c0.1,0,0.1,0,0.2,0
	c0.1,0,0.1,0,0.2,0c0.1,0,0.1,0,0.2,0c0.1,0,0.1,0,0.2,0c0.1,0,0.1,0,0.2,0c0.1,0,0.1,0,0.2,0c0.1,0,0.1,0,0.2,0c0.1,0,0.1,0,0.2,0
	c0.1,0,0.1,0,0.2,0c0.1,0,0.1,0,0.2,0c0.1,0,0.1,0,0.2,0c0.1,0,0.1,0,0.2,0c0.1,0,0.1,0,0.2,0c0.1,0,0.1,0,0.2,0c0.1,0,0.1,0,0.2,0
	c0.1,0,0.1,0,0.2,0c0.1,0,0.1,0,0.2,0c0.1,0,0.1,0,0.2,0c0.1,0,0.1,0,0.2,0c0.1,0,0.1,0,0.2,0c0.1,0,0.1,0,0.2,0c0.1,0,0.1,0,0.2,0
	c0.1,0,0.1,0,0.2,0c0.1,0,0.1,0,0.2,0c0.1,0,0.1,0,0.2,0c0.1,0,0.1,0,0.2,0s0.1,0,0.2,0c0.1,0,0.1,0,0.2,0s0.1,0,0.2,0
	c0.1,0,0.1,0,0.2,0c0.1,0,0.1,0,0.2,0c0.1,0,0.1,0,0.2,0c0.1,0,0.1,0,0.2,0c0.1,0,0.1,0,0.2,0c0.1,0,0.1,0,0.2,0c0.1,0,0.1,0,0.2,0
	c0.1,0,0.1,0,0.2,0c0.1,0,0.1,0,0.2,0c0.1,0,0.1,0,0.2,0c0.1,0,0.1,0,0.2,0c0.1,0,0.1,0,0.2,0c0.1,0,0.1,0,0.2,0c0.1,0,0.1,0,0.2,0
	c0.1,0,0.1,0,0.2,0c0.1,0,0.1,0,0.2,0c0.1,0,0.1,0,0.2,0c0.1,0,0.1,0,0.2,0c0.1,0,0.1,0,0.2,0s0.1,0,0.2,0c0.1,0,0.1,0,0.2,0
	c0.1,0,0.1,0,0.2,0c0.1,0,0.1,0,0.2,0s0.1,0,0.2,0s0.1,0,0.2,0c0.1,0,0.1,0,0.2,0s0.1,0,0.2,0c0.1,0,0.1,0,0.2,0s0.1,0,0.2,0
	s0.1,0,0.2,0c0.1,0,0.1,0,0.2,0s0.1,0,0.2,0c0.1,0,0.1,0,0.2,0c0.1,0,0.1,0,0.2,0s0.1,0,0.2,0s0.1,0,0.2,0c0.1,0,0.1,0,0.2,0
	c0.1,0,0.1,0,0.2,0c0.1,0,0.1,0,0.2,0c0.1,0,0.1,0,0.2,0c0.1,0,0.1,0,0.2,0c0.1,0,0.1,0,0.2,0c0.1,0,0.1,0,0.2,0c0.1,0,0.1,0,0.2,0
	c0.1,0,0.1,0,0.2,0s0.1,0,0.2,0c0.1,0,0.1,0,0.2,0c0.1,0,0.1,0,0.2,0c0.1,0,0.1,0,0.2,0c0.1,0,0.1,0,0.2,0c0.1,0,0.1,0,0.2,0
	c0.1,0,0.1,0,0.2,0s0.1,0,0.2,0c0.1,0,0.1,0,0.2,0c0.1,0,0.1,0,0.2,0c0.1,0,0.1,0,0.2,0s0.1,0,0.2,0c0.1,0,0.1,0,0.2,0
	c0.1,0,0.1,0,0.2,0s0.1,0,0.2,0s0.1,0,0.2,0c0.1,0,0.1,0,0.2,0c0,0,0.1,0,0.1,0s0.1,0,0.1,0c0.1,0,0.1,0,0.2,0s0.1,0,0.1,0
	s0.1,0,0.1,0s0.1,0,0.1,0c0.1,0,0.1,0,0.1,0c0,0,0.1,0,0.1,0c0,0,0.1,0,0.1,0c0,0,0.1,0,0.1,0c0,0,0.1,0,0.1,0s0.1,0,0.1,0
	c0,0,0.1,0,0.1,0c0.1,0,0.1,0,0.1,0c0,0,0.1,0,0.1,0c0,0,0.1,0,0.1,0s0.1,0,0.1,0c0,0,0.1,0,0.1,0c0,0,0.1,0,0.1,0c0,0,0.1,0,0.1,0
	c0,0,0.1,0,0.1,0c0,0,0.1,0,0.1,0c0,0,0.1,0,0.1,0c0,0,0.1,0,0.1,0c0,0,0.1,0,0.1,0c0,0,0.1,0,0.1,0c0,0,0.1,0,0.1,0
	c0,0,0.1,0,0.1,0s0.1,0,0.1,0c0,0,0.1,0,0.1,0c0,0,0.1,0,0.1,0c0,0,0.1,0,0.1,0c0,0,0.1,0,0.1,0c0,0,0.1,0,0.1,0s0.1,0,0.1,0
	c0,0,0.1,0,0.1,0s0.1,0,0.1,0c0,0,0.1,0,0.1,0s0.1,0,0.1,0c0,0,0.1,0,0.1,0c0,0,0.1,0,0.1,0c0,0,0.1,0,0.1,0c0,0,0.1,0,0.1,0
	c0,0,0.1,0,0.1,0c0,0,0.1,0,0.1,0c0,0,0.1,0,0.1,0c0,0,0.1,0,0.1,0c0,0,0.1,0,0.1,0c0,0,0.1,0,0.1,0v-2c0,0-0.1,0-0.1,0
	c0,0-0.1,0-0.1,0c0,0-0.1,0-0.1,0c0,0-0.1,0-0.1,0c0,0-0.1,0-0.1,0c0,0-0.1,0-0.1,0c0,0-0.1,0-0.1,0c0,0-0.1,0-0.1,0
	c0,0-0.1,0-0.1,0c0,0-0.1,0-0.1,0c0,0-0.1,0-0.1,0s-0.1,0-0.1,0c0,0-0.1,0-0.1,0s-0.1,0-0.1,0c0,0-0.1,0-0.1,0s-0.1,0-0.1,0
	c0,0-0.1,0-0.1,0c0,0-0.1,0-0.1,0c0,0-0.1,0-0.1,0c0,0-0.1,0-0.1,0c0,0-0.1,0-0.1,0s-0.1,0-0.1,0c0,0-0.1,0-0.1,0c0,0-0.1,0-0.1,0
	c0,0-0.1,0-0.1,0c0,0-0.1,0-0.1,0c0,0-0.1,0-0.1,0c0,0-0.1,0-0.1,0c0,0-0.1,0-0.1,0c0,0-0.1,0-0.1,0c0,0-0.1,0-0.1,0
	c0,0-0.1,0-0.1,0c0,0-0.1,0-0.1,0s-0.1,0-0.1,0c0,0-0.1,0-0.1,0c0,0-0.1,0-0.1,0c0,0-0.1,0-0.1,0c0,0-0.1,0-0.1,0s-0.1,0-0.1,0
	c0,0-0.1,0-0.1,0c0,0-0.1,0-0.1,0c0,0-0.1,0-0.1,0c0,0-0.1,0-0.1,0c0,0-0.1,0-0.1,0s-0.1,0-0.1,0s-0.1,0-0.1,0s-0.1,0-0.2,0
	c0,0-0.1,0-0.1,0s-0.1,0-0.1,0c-0.1,0-0.1,0-0.2,0c-0.1,0-0.1,0-0.2,0s-0.1,0-0.2,0s-0.1,0-0.2,0c-0.1,0-0.1,0-0.2,0
	c-0.1,0-0.1,0-0.2,0s-0.1,0-0.2,0c0,0-0.1,0-0.2,0c-0.1,0-0.1,0-0.2,0c0,0-0.1,0-0.2,0s-0.1,0-0.2,0c-0.1,0-0.1,0-0.2,0
	c-0.1,0-0.1,0-0.2,0c-0.1,0-0.1,0-0.2,0c-0.1,0-0.1,0-0.2,0c-0.1,0-0.1,0-0.2,0c-0.1,0-0.1,0-0.2,0s-0.1,0-0.2,0c-0.1,0-0.1,0-0.2,0
	c-0.1,0-0.1,0-0.2,0c-0.1,0-0.1,0-0.2,0c-0.1,0-0.1,0-0.2,0c-0.1,0-0.1,0-0.2,0c-0.1,0-0.1,0-0.2,0c-0.1,0-0.1,0-0.2,0
	c-0.1,0-0.1,0-0.2,0c-0.1,0-0.1,0-0.2,0s-0.1,0-0.2,0s-0.1,0-0.2,0c-0.1,0-0.1,0-0.2,0c-0.1,0-0.1,0-0.2,0s-0.1,0-0.2,0
	c-0.1,0-0.1,0-0.2,0s-0.1,0-0.2,0s-0.1,0-0.2,0c-0.1,0-0.1,0-0.2,0s-0.1,0-0.2,0c-0.1,0-0.1,0-0.2,0s-0.1,0-0.2,0s-0.1,0-0.2,0
	c-0.1,0-0.1,0-0.2,0c-0.1,0-0.1,0-0.2,0c-0.1,0-0.1,0-0.2,0s-0.1,0-0.2,0c-0.1,0-0.1,0-0.2,0c-0.1,0-0.1,0-0.2,0c-0.1,0-0.1,0-0.2,0
	c-0.1,0-0.1,0-0.2,0c-0.1,0-0.1,0-0.2,0c-0.1,0-0.1,0-0.2,0c-0.1,0-0.1,0-0.2,0c-0.1,0-0.1,0-0.2,0c-0.1,0-0.1,0-0.2,0
	c-0.1,0-0.1,0-0.2,0c-0.1,0-0.1,0-0.2,0c-0.1,0-0.1,0-0.2,0c-0.1,0-0.1,0-0.2,0c-0.1,0-0.1,0-0.2,0c-0.1,0-0.1,0-0.2,0
	c-0.1,0-0.1,0-0.2,0c-0.1,0-0.1,0-0.2,0c-0.1,0-0.1,0-0.2,0c-0.1,0-0.1,0-0.2,0s-0.1,0-0.2,0c-0.1,0-0.1,0-0.2,0s-0.1,0-0.2,0
	c-0.1,0-0.1,0-0.2,0c-0.1,0-0.1,0-0.2,0c-0.1,0-0.1,0-0.2,0c-0.1,0-0.1,0-0.2,0c-0.1,0-0.1,0-0.2,0c-0.1,0-0.1,0-0.2,0
	c-0.1,0-0.1,0-0.2,0c-0.1,0-0.1,0-0.2,0c-0.1,0-0.1,0-0.2,0c-0.1,0-0.1,0-0.2,0c-0.1,0-0.1,0-0.2,0c-0.1,0-0.1,0-0.2,0
	c-0.1,0-0.1,0-0.2,0c-0.1,0-0.1,0-0.2,0c-0.1,0-0.1,0-0.2,0c-0.1,0-0.1,0-0.2,0c-0.1,0-0.1,0-0.2,0c-0.1,0-0.1,0-0.2,0
	c-0.1,0-0.1,0-0.2,0c-0.1,0-0.1,0-0.2,0c-0.1,0-0.1,0-0.2,0c-0.1,0-0.1,0-0.2,0c-0.1,0-0.1,0-0.2,0c-0.1,0-0.1,0-0.2,0
	c-0.1,0-0.1,0-0.2,0c-0.1,0-0.1,0-0.2,0c-0.1,0-0.1,0-0.2,0c-0.1,0-0.1,0-0.2,0c-0.1,0-0.1,0-0.2,0c-0.1,0-0.1,0-0.2,0
	c-0.1,0-0.1,0-0.2,0c-0.1,0-0.1,0-0.2,0c-0.1,0-0.1,0-0.2,0c-0.1,0-0.1,0-0.2,0c-0.1,0-0.1,0-0.2,0c-0.1,0-0.1,0-0.2,0
	c-0.1,0-0.1,0-0.2,0c-0.1,0-0.1,0-0.2,0c-0.1,0-0.1,0-0.2,0c-0.1,0-0.1,0-0.2,0c-0.1,0-0.1,0-0.2,0c-0.1,0-0.1,0-0.2,0
	c-0.1,0-0.1,0-0.2,0c-0.1,0-0.1,0-0.2,0c-0.1,0-0.1,0-0.2,0c-0.1,0-0.1,0-0.2,0s-0.1,0-0.2,0c-0.1,0-0.1,0-0.2,0s-0.1,0-0.2,0
	c-0.1,0-0.1,0-0.2,0c-0.1,0-0.1,0-0.2,0c-0.1,0-0.1,0-0.2,0s-0.1,0-0.2,0c-0.1,0-0.1,0-0.2,0c-0.1,0-0.1,0-0.2,0c-0.1,0-0.1,0-0.2,0
	c-0.1,0-0.1,0-0.2,0c-0.1,0-0.1,0-0.2,0c-0.1,0-0.1,0-0.2,0c-0.1,0-0.1,0-0.2,0c-0.1,0-0.1,0-0.2,0c-0.1,0-0.1,0-0.2,0
	c-0.1,0-0.1,0-0.2,0c-0.1,0-0.1,0-0.2,0c-0.1,0-0.1,0-0.2,0c-0.1,0-0.1,0-0.2,0c-0.1,0-0.1,0-0.2,0c-0.1,0-0.1,0-0.2,0
	c-0.1,0-0.1,0-0.2,0c-0.1,0-0.1,0-0.2,0c-0.1,0-0.1,0-0.2,0c-0.1,0-0.1,0-0.2,0c-0.1,0-0.1,0-0.2,0c-0.1,0-0.1,0-0.2,0
	c-0.1,0-0.1,0-0.2,0c-0.1,0-0.1,0-0.2,0c-0.1,0-0.1,0-0.2,0c-0.1,0-0.1,0-0.2,0c-0.1,0-0.1,0-0.2,0c-0.1,0-0.1,0-0.2,0
	c-0.1,0-0.1,0-0.2,0s-0.1,0-0.2,0s-0.1,0-0.2,0c-0.1,0-0.1,0-0.2,0s-0.1,0-0.2,0c-0.1,0-0.1,0-0.2,0s-0.1,0-0.2,0
	c-0.1,0-0.1,0-0.2,0c-0.1,0-0.1,0-0.2,0c-0.1,0-0.1,0-0.2,0c-0.1,0-0.1,0-0.2,0c-0.1,0-0.1,0-0.2,0c-0.1,0-0.1,0-0.2,0
	c-0.1,0-0.1,0-0.2,0c-0.1,0-0.1,0-0.2,0c-0.1,0-0.1,0-0.2,0c-0.1,0-0.1,0-0.2,0c-0.1,0-0.1,0-0.2,0c-0.1,0-0.1,0-0.2,0
	c-0.1,0-0.1,0-0.2,0c-0.1,0-0.1,0-0.2,0c-0.1,0-0.1,0-0.2,0c-0.1,0-0.1,0-0.2,0c-0.1,0-0.1,0-0.2,0c-0.1,0-0.1,0-0.2,0
	c0,0-0.1,0-0.2,0s-0.1,0-0.2,0c-0.1,0-0.1,0-0.2,0s-0.1,0-0.2,0c-0.1,0-0.1,0-0.2,0c-0.1,0-0.1,0-0.2,0c-0.1,0-0.1,0-0.2,0
	c-0.1,0-0.1,0-0.2,0c-0.1,0-0.1,0-0.1,0c-0.1,0-0.1,0-0.2,0s-0.1,0-0.1,0c-0.1,0-0.1,0-0.2,0s-0.1,0-0.1,0s-0.1,0-0.2,0
	c0,0-0.1,0-0.1,0c0,0-0.1,0-0.1,0c0,0-0.1,0-0.1,0c0,0-0.1,0-0.1,0c0,0-0.1,0-0.1,0c-0.1,0-0.1,0-0.1,0c-0.1,0-0.1,0-0.1,0
	c0,0-0.1,0-0.1,0c-0.1,0-0.1,0-0.1,0c0,0-0.1,0-0.1,0c0,0-0.1,0-0.1,0c0,0-0.1,0-0.1,0s-0.1,0-0.1,0c0,0-0.1,0-0.1,0
	c0,0-0.1,0-0.1,0c0,0-0.1,0-0.1,0c0,0-0.1,0-0.1,0c0,0-0.1,0-0.1,0c0,0-0.1,0-0.1,0c0,0-0.1,0-0.1,0s-0.1,0-0.1,0s-0.1,0-0.1,0
	s-0.1,0-0.1,0c0,0-0.1,0-0.1,0c0,0-0.1,0-0.1,0c0,0-0.1,0-0.1,0c0,0-0.1,0-0.1,0c0,0-0.1,0-0.1,0c0,0-0.1,0-0.1,0s-0.1,0-0.1,0
	c0,0-0.1,0-0.1,0s-0.1,0-0.1,0c0,0-0.1,0-0.1,0c0,0-0.1,0-0.1,0s-0.1,0-0.1,0c0,0-0.1,0-0.1,0s-0.1,0-0.1,0s-0.1,0-0.1,0
	c0,0-0.1,0-0.1,0c0,0-0.1,0-0.1,0c0,0-0.1,0-0.1,0c0,0-0.1,0-0.1,0s-0.1,0-0.1,0s-0.1,0-0.1,0c0,0-0.1,0-0.1,0c0,0-0.1,0-0.1,0
	c0,0-0.1,0-0.1,0c0,0-0.1,0-0.1,0c0,0-0.1,0-0.1,0s-0.1,0-0.1,0s-0.1,0-0.1,0s-0.1,0-0.1,0s-0.1,0-0.1,0c0,0-0.1,0-0.1,0
	s-0.1,0-0.1,0s-0.1,0-0.1,0c0,0-0.1,0-0.1,0c0,0-0.1,0-0.1,0c0,0-0.1,0-0.1,0c0,0-0.1,0-0.1,0c0,0-0.1,0-0.1,0c0,0-0.1,0-0.1,0
	c0,0-0.1,0-0.1,0s-0.1,0-0.1,0c0,0-0.1,0-0.1,0c0,0-0.1,0-0.1,0s-0.1,0-0.1,0s-0.1,0-0.1,0s-0.1,0-0.1,0c0,0-0.1,0-0.1,0
	s-0.1,0-0.1,0c0,0-0.1,0-0.1,0c0,0-0.1,0-0.1,0c0,0-0.1,0-0.1,0c0,0-0.1,0-0.1,0c0,0-0.1,0-0.1,0c0,0-0.1,0-0.1,0c0,0-0.1,0-0.1,0
	c0,0-0.1,0-0.1,0c0,0-0.1,0-0.1,0c0,0-0.1,0-0.1,0c0,0-0.1,0-0.1,0c0,0-0.1,0-0.1,0s-0.1,0-0.1,0c0,0-0.1,0-0.1,0c0,0-0.1,0-0.1,0
	c0,0-0.1,0-0.1,0c0,0-0.1,0-0.1,0c0,0-0.1,0-0.1,0c0,0-0.1,0-0.1,0s-0.1,0-0.1,0c0,0-0.1,0-0.1,0c0,0-0.1,0-0.1,0s-0.1,0-0.1,0
	c0,0-0.1,0-0.1,0c0,0-0.1,0-0.1,0c0,0-0.1,0-0.1,0s-0.1,0-0.1,0s-0.1,0-0.1,0c0,0-0.1,0-0.1,0s-0.1,0-0.1,0c0,0-0.1,0-0.1,0
	c0,0-0.1,0-0.1,0c0,0-0.1,0-0.1,0c0,0-0.1,0-0.1,0s-0.1,0-0.1,0s-0.1,0-0.1,0s-0.1,0-0.1,0c0,0-0.1,0-0.1,0c0,0-0.1,0-0.1,0
	c0,0-0.1,0-0.1,0c0,0-0.1,0-0.1,0c0,0-0.1,0-0.1,0c0,0-0.1,0-0.1,0c0,0-0.1,0-0.1,0c0,0-0.1,0-0.1,0s-0.1,0-0.1,0c0,0-0.1,0-0.1,0
	c0,0-0.1,0-0.1,0c0,0-0.1,0-0.1,0c0,0-0.1,0-0.1,0c0,0-0.1,0-0.1,0c0,0-0.1,0-0.1,0c0,0-0.1,0-0.1,0c0,0-0.1,0-0.1,0
	c0,0-0.1,0-0.1,0c0,0-0.1,0-0.1,0c0,0-0.1,0-0.1,0c0,0-0.1,0-0.1,0c0,0-0.1,0-0.1,0c0,0-0.1,0-0.1,0c0,0-0.1,0-0.1,0
	c0,0-0.1,0-0.1,0s-0.1,0-0.1,0c0,0-0.1,0-0.1,0c0,0-0.1,0-0.1,0c0,0-0.1,0-0.1,0c0,0-0.1,0-0.1,0c0,0-0.1,0-0.1,0c0,0-0.1,0-0.1,0
	c0,0-0.1,0-0.1,0c0,0-0.1,0-0.1,0c0,0-0.1,0-0.1,0c0,0-0.1,0-0.1,0c0,0-0.1,0-0.1,0c0,0-0.1,0-0.1,0c0,0-0.1,0-0.1,0
	c0,0-0.1,0-0.1,0c0,0-0.1,0-0.1,0c0,0-0.1,0-0.1,0c0,0-0.1,0-0.1,0c0,0-0.1,0-0.1,0s-0.1,0-0.1,0s-0.1,0-0.1,0c0,0-0.1,0-0.1,0
	c0,0-0.1,0-0.1,0c0,0-0.1,0-0.1,0s-0.1,0-0.1,0c0,0-0.1,0-0.1,0c0,0-0.1,0-0.1,0c0,0-0.1,0-0.1,0s-0.1,0-0.1,0s-0.1,0-0.1,0
	c0,0-0.1,0-0.1,0c0,0-0.1,0-0.1,0c0,0-0.1,0-0.1,0s-0.1,0-0.1,0s-0.1,0-0.1,0c0,0-0.1,0-0.1,0c0,0-0.1,0-0.1,0c0,0-0.1,0-0.1,0
	c0,0-0.1,0-0.1,0s-0.1,0-0.1,0s-0.1,0-0.1,0c0,0-0.1,0-0.1,0c0,0-0.1,0-0.1,0c0,0-0.1,0-0.1,0s0,0-0.1,0c0,0,0,0-0.1,0
	c0,0,0,0-0.1,0s0,0-0.1,0s0,0-0.1,0s0,0-0.1,0c0,0,0,0-0.1,0c0,0,0,0-0.1,0c0,0,0,0-0.1,0c0,0,0,0-0.1,0c0,0,0,0-0.1,0
	c0,0,0,0-0.1,0c0,0,0,0-0.1,0c0,0,0,0-0.1,0c0,0,0,0-0.1,0c0,0,0,0-0.1,0c0,0,0,0-0.1,0c0,0,0,0-0.1,0c0,0,0,0-0.1,0c0,0,0,0-0.1,0
	c0,0,0,0-0.1,0c0,0,0,0-0.1,0c0,0,0,0-0.1,0c0,0,0,0-0.1,0c0,0,0,0-0.1,0c0,0,0,0-0.1,0c0,0,0,0-0.1,0c0,0,0,0-0.1,0c0,0,0,0-0.1,0
	c0,0,0,0-0.1,0c0,0,0,0-0.1,0c0,0,0,0-0.1,0c0,0,0,0-0.1,0c0,0,0,0-0.1,0c0,0,0,0-0.1,0c0,0,0,0-0.1,0c0,0,0,0-0.1,0c0,0,0,0,0,0
	c0,0,0,0,0,0c0,0,0,0,0,0s0,0,0,0s0,0,0,0c0,0,0,0,0,0s0,0,0,0s0,0,0,0c0,0,0,0,0,0c0,0,0,0,0,0s0,0,0,0c0,0,0,0,0,0c0,0,0,0,0,0
	c0,0,0,0,0,0s0,0,0,0s0,0,0,0c0,0,0,0,0,0c0,0,0,0,0,0c0,0,0,0,0,0c0,0,0,0,0,0s0,0,0,0c0,0,0,0,0,0c0,0,0,0,0,0c0,0,0,0,0,0
	s0,0,0,0s0,0,0,0c0,0,0,0,0,0c0,0,0,0,0,0s0,0,0,0c0,0,0,0,0,0s0,0,0,0s0,0,0,0c0,0,0,0,0,0c0,0,0,0,0,0c0,0,0,0,0,0c0,0,0,0,0,0
	s0,0,0,0c0,0,0,0,0,0c0,0,0,0,0,0c0,0,0,0,0,0c0,0,0,0,0,0c0,0,0,0,0,0c0,0,0,0,0,0c0,0,0,0,0,0c0,0,0,0,0,0c0,0,0,0,0,0
	c0,0,0,0,0,0c0,0,0,0,0,0c0,0,0,0,0,0c0,0,0,0,0,0c0,0,0,0,0,0c0,0,0,0,0,0s0,0,0,0s0,0,0,0c0,0,0,0,0,0c0,0,0,0,0,0c0,0,0,0,0,0
	s0,0,0,0c0,0,0,0,0,0c0,0,0,0,0,0s0,0,0,0s0,0,0,0c0,0,0,0,0,0C66.8,239,66.8,239,66.8,240z M127.7,241c6.2,0,11.8-2.9,16.9-7.2
	c5.2-4.2,10.1-9.8,14.9-15.4c4.9-5.6,9.7-11,14.8-15.1c5.1-4.1,10.3-6.7,16-6.7v-2c-6.3,0-12,2.9-17.3,7.2
	c-5.3,4.2-10.2,9.9-15.1,15.4c-4.9,5.6-9.7,11.1-14.7,15.2c-5,4.1-10.1,6.7-15.7,6.7V241z M190.4,196.5c5.5,0,10.7,3.8,15.7,10
	c5,6.2,9.7,14.4,14.4,22.8c4.7,8.3,9.5,16.7,14.5,23c5,6.3,10.6,10.8,16.9,10.8v-2c-5.4,0-10.4-3.8-15.3-10
	c-4.9-6.2-9.6-14.4-14.3-22.8c-4.7-8.3-9.5-16.7-14.6-23c-5.1-6.3-10.7-10.8-17.2-10.8V196.5z M252,263.2c6.2,0,11.8-2.9,16.9-7.2
	c5.2-4.2,10.1-9.8,14.9-15.4c4.9-5.6,9.7-11,14.8-15.1c5.1-4.1,10.3-6.7,16-6.7v-2c-6.3,0-12,2.9-17.3,7.2
	c-5.3,4.2-10.2,9.9-15.1,15.4c-4.9,5.6-9.7,11.1-14.7,15.2c-5,4.1-10.1,6.7-15.7,6.7V263.2z M314.7,218.8c5.6,0,10.7,3.2,15.7,8.4
	c5,5.1,9.7,12,14.4,19c4.7,6.9,9.5,13.9,14.5,19.2c5.1,5.3,10.6,9,16.8,9v-2c-5.4,0-10.5-3.2-15.4-8.4c-4.9-5.1-9.6-12-14.3-19
	c-4.7-6.9-9.5-13.9-14.6-19.2c-5.1-5.3-10.8-9-17.2-9V218.8z M376.2,274.3c6.2,0,11.8-2.9,16.9-7.2c5.2-4.2,10.1-9.8,14.9-15.4
	c4.9-5.6,9.7-11.1,14.8-15.1c5.1-4.1,10.3-6.7,16-6.7v-2c-6.3,0-12,2.9-17.3,7.2c-5.3,4.2-10.2,9.9-15.1,15.4
	c-4.9,5.6-9.7,11.1-14.7,15.2c-5,4.1-10.1,6.7-15.7,6.7V274.3z M438.9,229.9c5.5,0,10.7,3.8,15.7,10c5,6.2,9.7,14.4,14.4,22.8
	c4.7,8.3,9.5,16.7,14.5,23c5,6.3,10.6,10.8,16.9,10.8v-2c-5.4,0-10.4-3.8-15.3-10c-4.9-6.2-9.6-14.4-14.3-22.8
	c-4.7-8.3-9.5-16.7-14.6-23c-5.1-6.3-10.7-10.8-17.2-10.8V229.9z M500.5,296.5c3.4,0,6.5-2.4,9.2-6.1c2.8-3.7,5.4-9,8-15.3
	c5.1-12.6,10-29.3,14.9-45.9c4.9-16.7,9.8-33.3,14.9-45.7c2.6-6.2,5.2-11.3,7.9-14.9c2.7-3.6,5.3-5.3,7.8-5.3v-2
	c-3.5,0-6.6,2.4-9.4,6.1c-2.8,3.7-5.5,9-8.1,15.3c-5.2,12.6-10.1,29.3-15,45.9c-4.9,16.7-9.7,33.3-14.8,45.7
	c-2.5,6.2-5.1,11.3-7.7,14.9c-2.7,3.6-5.2,5.3-7.6,5.3V296.5z M563.2,163.2c2.5,0,5.1,1.8,7.8,5.3c2.7,3.5,5.3,8.7,7.9,14.9
	c5.1,12.4,10,29,14.9,45.7c4.9,16.6,9.7,33.4,14.9,45.9c2.6,6.3,5.2,11.6,8,15.3c2.8,3.7,5.8,6.1,9.2,6.1v-2c-2.4,0-5-1.7-7.6-5.3
	c-2.6-3.5-5.2-8.7-7.7-14.9c-5.1-12.4-9.9-29-14.8-45.7c-4.9-16.6-9.8-33.4-15-45.9c-2.6-6.3-5.3-11.6-8.1-15.3
	c-2.8-3.7-5.9-6.1-9.4-6.1V163.2z M625.9,296.5c6.2,0,11.7-2.9,16.8-7.2c5.1-4.2,9.9-9.9,14.7-15.4c4.8-5.6,9.5-11,14.4-15.1
	c5-4.1,10-6.7,15.6-6.7v-2c-6.2,0-11.7,2.9-16.8,7.2c-5.1,4.2-9.9,9.9-14.7,15.4c-4.8,5.6-9.5,11.1-14.4,15.1
	c-5,4.1-10,6.7-15.6,6.7V296.5z M687.4,252.1c6.1,0,11.7-2.2,16.9-5.4c5.2-3.2,10.2-7.4,15.1-11.5c4.9-4.2,9.8-8.3,14.8-11.4
	c5.1-3.1,10.3-5.1,15.9-5.1v-2c-6.1,0-11.7,2.2-16.9,5.3c-5.2,3.2-10.2,7.4-15.1,11.5c-4.9,4.2-9.8,8.3-14.8,11.4
	c-5.1,3.1-10.3,5.1-15.9,5.1V252.1z M750.2,218.8c5.4,0,10.4,3.8,15.4,10c5,6.2,9.7,14.4,14.5,22.8c4.8,8.3,9.6,16.7,14.7,23
	c5.1,6.3,10.6,10.8,17,10.8v-2c-5.4,0-10.4-3.8-15.4-10c-5-6.2-9.7-14.4-14.5-22.8c-4.8-8.3-9.6-16.7-14.7-23
	c-5.1-6.3-10.6-10.8-17-10.8V218.8z M811.7,285.4c6.3,0,11.9-3.7,17.1-9c5.2-5.3,10.2-12.3,15.1-19.2c4.9-7,9.8-13.8,14.9-19
	c5.1-5.1,10.2-8.4,15.7-8.4v-2c-6.3,0-11.9,3.7-17.1,9c-5.2,5.3-10.2,12.3-15.1,19.2c-4.9,7-9.8,13.8-14.9,19
	c-5.1,5.1-10.2,8.4-15.7,8.4V285.4z M874.4,229.9c11.6,0,26.9,2.5,39.4,5c6.2,1.2,11.7,2.5,15.6,3.4c2,0.5,3.5,0.9,4.6,1.1
	c0.5,0.1,1,0.2,1.2,0.3c0.1,0,0.2,0.1,0.3,0.1c0,0,0.1,0,0.1,0c0,0,0,0,0,0c0,0,0,0,0,0h0c0,0,0,0,0.3-1c0.3-1,0.3-1,0.3-1
	c0,0,0,0,0,0c0,0,0,0,0,0c0,0,0,0,0,0c0,0,0,0-0.1,0c-0.1,0-0.2,0-0.3-0.1c-0.3-0.1-0.7-0.2-1.3-0.3c-1.1-0.3-2.7-0.7-4.6-1.1
	c-3.9-0.9-9.5-2.2-15.7-3.4c-12.5-2.5-27.9-5-39.8-5V229.9z"/>
<path class="st3" d="M737.5,334.2h1.6l2.8,6.8h0.1l2.8-6.8h1.6v8.7h-1.3v-6.3h-0.1l-2.6,6.3h-1l-2.6-6.3h-0.1v6.3h-1.3V334.2z
	 M749.8,343.1c-0.4,0-0.8-0.1-1.1-0.2c-0.3-0.2-0.6-0.4-0.8-0.7c-0.2-0.3-0.3-0.7-0.3-1.1c0-0.4,0.1-0.7,0.2-0.9
	c0.1-0.2,0.3-0.4,0.6-0.6c0.2-0.1,0.5-0.2,0.8-0.3c0.3-0.1,0.6-0.1,0.9-0.2c0.4,0,0.7-0.1,1-0.1c0.2,0,0.4-0.1,0.5-0.1
	c0.1-0.1,0.2-0.2,0.2-0.3v0c0-0.4-0.1-0.7-0.3-0.9c-0.2-0.2-0.5-0.3-0.9-0.3c-0.4,0-0.8,0.1-1,0.3c-0.2,0.2-0.4,0.4-0.5,0.6
	l-1.2-0.3c0.1-0.4,0.3-0.7,0.6-1c0.3-0.2,0.6-0.4,1-0.5c0.4-0.1,0.7-0.2,1.1-0.2c0.3,0,0.5,0,0.8,0.1c0.3,0.1,0.6,0.2,0.8,0.3
	c0.3,0.2,0.5,0.4,0.6,0.7c0.2,0.3,0.2,0.7,0.2,1.2v4.3h-1.2V342h-0.1c-0.1,0.2-0.2,0.3-0.4,0.5s-0.4,0.3-0.6,0.4
	C750.5,343,750.2,343.1,749.8,343.1z M750.1,342c0.4,0,0.7-0.1,0.9-0.2c0.3-0.1,0.4-0.3,0.6-0.5c0.1-0.2,0.2-0.5,0.2-0.7v-0.8
	c0,0-0.1,0.1-0.3,0.1c-0.1,0-0.3,0.1-0.4,0.1c-0.2,0-0.3,0-0.5,0.1c-0.2,0-0.3,0-0.4,0.1c-0.2,0-0.5,0.1-0.7,0.2
	c-0.2,0.1-0.4,0.2-0.5,0.3c-0.1,0.1-0.2,0.3-0.2,0.5c0,0.3,0.1,0.6,0.3,0.7C749.4,342,749.7,342,750.1,342z M755,345.4
	c-0.2,0-0.4,0-0.5,0c-0.2,0-0.3-0.1-0.3-0.1l0.3-1c0.2,0.1,0.4,0.1,0.6,0.1c0.2,0,0.3-0.1,0.5-0.2c0.1-0.1,0.3-0.3,0.4-0.6l0.2-0.4
	l-2.4-6.6h1.4l1.7,5.1h0.1l1.7-5.1h1.4l-2.7,7.4c-0.1,0.3-0.3,0.6-0.5,0.9c-0.2,0.2-0.4,0.4-0.7,0.5
	C755.7,345.3,755.4,345.4,755,345.4z"/>
<path class="st3" d="M867.4,334.2h1.3v6.2c0,0.6-0.1,1-0.3,1.4c-0.2,0.4-0.5,0.7-0.9,0.9c-0.4,0.2-0.9,0.3-1.4,0.3
	c-0.5,0-0.9-0.1-1.3-0.3c-0.4-0.2-0.7-0.4-0.9-0.8c-0.2-0.3-0.3-0.8-0.3-1.3h1.3c0,0.2,0.1,0.5,0.2,0.6c0.1,0.2,0.3,0.3,0.5,0.4
	c0.2,0.1,0.4,0.1,0.7,0.1c0.3,0,0.5-0.1,0.7-0.2c0.2-0.1,0.3-0.3,0.4-0.5c0.1-0.2,0.2-0.5,0.2-0.8V334.2z M874.4,340.2v-3.8h1.3v6.5
	h-1.3v-1.1h-0.1c-0.2,0.3-0.4,0.6-0.7,0.9c-0.3,0.2-0.7,0.3-1.2,0.3c-0.4,0-0.8-0.1-1.1-0.3c-0.3-0.2-0.6-0.5-0.8-0.8
	c-0.2-0.4-0.3-0.8-0.3-1.4v-4.2h1.3v4c0,0.4,0.1,0.8,0.4,1.1c0.2,0.3,0.6,0.4,1,0.4c0.2,0,0.5-0.1,0.7-0.2c0.2-0.1,0.4-0.3,0.6-0.5
	C874.3,340.9,874.4,340.6,874.4,340.2z M878.3,339v3.9h-1.3v-6.5h1.2v1.1h0.1c0.2-0.3,0.4-0.6,0.7-0.8c0.3-0.2,0.7-0.3,1.2-0.3
	c0.4,0,0.8,0.1,1.2,0.3c0.3,0.2,0.6,0.5,0.8,0.8c0.2,0.4,0.3,0.8,0.3,1.4v4.2h-1.3v-4c0-0.5-0.1-0.8-0.4-1.1c-0.2-0.3-0.6-0.4-1-0.4
	c-0.3,0-0.6,0.1-0.8,0.2c-0.2,0.1-0.4,0.3-0.5,0.6C878.4,338.4,878.3,338.7,878.3,339z"/>
<path class="st3" d="M616,342.9h-1.4l3.1-8.7h1.5l3.1,8.7H621l-2.5-7.1h-0.1L616,342.9z M616.2,339.5h4.5v1.1h-4.5V339.5z
	 M623.3,345.4v-9h1.2v1.1h0.1c0.1-0.1,0.2-0.3,0.3-0.5c0.1-0.2,0.3-0.3,0.6-0.5c0.2-0.1,0.6-0.2,1-0.2c0.5,0,1,0.1,1.4,0.4
	c0.4,0.3,0.7,0.7,1,1.2c0.2,0.5,0.4,1.1,0.4,1.8c0,0.7-0.1,1.3-0.4,1.8c-0.2,0.5-0.6,0.9-1,1.2c-0.4,0.3-0.9,0.4-1.4,0.4
	c-0.4,0-0.7-0.1-1-0.2c-0.2-0.1-0.4-0.3-0.6-0.5c-0.1-0.2-0.3-0.3-0.3-0.5h-0.1v3.5H623.3z M624.5,339.6c0,0.5,0.1,0.9,0.2,1.2
	c0.1,0.3,0.3,0.6,0.6,0.8c0.3,0.2,0.6,0.3,0.9,0.3c0.4,0,0.7-0.1,1-0.3c0.3-0.2,0.4-0.5,0.6-0.8c0.1-0.4,0.2-0.7,0.2-1.2
	c0-0.4-0.1-0.8-0.2-1.2c-0.1-0.3-0.3-0.6-0.6-0.8c-0.3-0.2-0.6-0.3-1-0.3c-0.4,0-0.7,0.1-0.9,0.3c-0.3,0.2-0.4,0.5-0.6,0.8
	C624.6,338.8,624.5,339.2,624.5,339.6z M630.4,342.9v-6.5h1.2v1h0.1c0.1-0.4,0.3-0.6,0.6-0.8c0.3-0.2,0.6-0.3,1-0.3
	c0.1,0,0.2,0,0.3,0c0.1,0,0.2,0,0.3,0v1.2c-0.1,0-0.1,0-0.3,0c-0.1,0-0.3,0-0.4,0c-0.3,0-0.6,0.1-0.8,0.2c-0.2,0.1-0.4,0.3-0.6,0.5
	c-0.1,0.2-0.2,0.5-0.2,0.8v4H630.4z"/>
<path class="st3" d="M491.5,334.2h1.6l2.8,6.8h0.1l2.8-6.8h1.6v8.7h-1.3v-6.3H499l-2.6,6.3h-1l-2.6-6.3h-0.1v6.3h-1.3V334.2z
	 M503.8,343.1c-0.4,0-0.8-0.1-1.1-0.2c-0.3-0.2-0.6-0.4-0.8-0.7c-0.2-0.3-0.3-0.7-0.3-1.1c0-0.4,0.1-0.7,0.2-0.9
	c0.1-0.2,0.3-0.4,0.6-0.6c0.2-0.1,0.5-0.2,0.8-0.3c0.3-0.1,0.6-0.1,0.9-0.2c0.4,0,0.7-0.1,1-0.1c0.2,0,0.4-0.1,0.5-0.1
	c0.1-0.1,0.2-0.2,0.2-0.3v0c0-0.4-0.1-0.7-0.3-0.9c-0.2-0.2-0.5-0.3-0.9-0.3c-0.4,0-0.8,0.1-1,0.3c-0.2,0.2-0.4,0.4-0.5,0.6
	l-1.2-0.3c0.1-0.4,0.4-0.7,0.6-1c0.3-0.2,0.6-0.4,1-0.5c0.4-0.1,0.7-0.2,1.1-0.2c0.3,0,0.5,0,0.8,0.1c0.3,0.1,0.6,0.2,0.8,0.3
	c0.3,0.2,0.5,0.4,0.6,0.7c0.2,0.3,0.2,0.7,0.2,1.2v4.3h-1.2V342h-0.1c-0.1,0.2-0.2,0.3-0.4,0.5c-0.2,0.2-0.4,0.3-0.6,0.4
	C504.5,343,504.2,343.1,503.8,343.1z M504.1,342c0.4,0,0.7-0.1,0.9-0.2c0.3-0.1,0.4-0.3,0.6-0.5c0.1-0.2,0.2-0.5,0.2-0.7v-0.8
	c0,0-0.1,0.1-0.3,0.1c-0.1,0-0.3,0.1-0.4,0.1c-0.2,0-0.3,0-0.5,0.1c-0.2,0-0.3,0-0.4,0.1c-0.2,0-0.5,0.1-0.7,0.2
	c-0.2,0.1-0.4,0.2-0.5,0.3c-0.1,0.1-0.2,0.3-0.2,0.5c0,0.3,0.1,0.6,0.3,0.7C503.4,342,503.7,342,504.1,342z M508.4,342.9v-6.5h1.2v1
	h0.1c0.1-0.4,0.3-0.6,0.6-0.8c0.3-0.2,0.6-0.3,1-0.3c0.1,0,0.2,0,0.3,0c0.1,0,0.2,0,0.3,0v1.2c-0.1,0-0.1,0-0.3,0
	c-0.1,0-0.3,0-0.4,0c-0.3,0-0.6,0.1-0.8,0.2c-0.2,0.1-0.4,0.3-0.6,0.5c-0.1,0.2-0.2,0.5-0.2,0.8v4H508.4z"/>
<path class="st3" d="M367.2,342.9v-8.7h5.4v1.1h-4.1v2.7h3.7v1.1h-3.7v3.8H367.2z M376.2,343c-0.6,0-1.2-0.1-1.7-0.4
	c-0.5-0.3-0.8-0.7-1.1-1.2c-0.2-0.5-0.4-1.1-0.4-1.8c0-0.7,0.1-1.3,0.4-1.8c0.3-0.5,0.6-0.9,1.1-1.2c0.5-0.3,1-0.4,1.6-0.4
	c0.4,0,0.7,0.1,1.1,0.2c0.3,0.1,0.7,0.3,0.9,0.6c0.3,0.3,0.5,0.6,0.7,1c0.2,0.4,0.2,0.9,0.2,1.5v0.5h-5.2v-1h4
	c0-0.3-0.1-0.6-0.2-0.9c-0.1-0.3-0.3-0.5-0.6-0.6c-0.2-0.2-0.5-0.2-0.9-0.2c-0.4,0-0.7,0.1-0.9,0.3c-0.3,0.2-0.5,0.4-0.6,0.7
	c-0.1,0.3-0.2,0.6-0.2,0.9v0.7c0,0.4,0.1,0.8,0.2,1.1c0.2,0.3,0.4,0.5,0.7,0.7c0.3,0.2,0.6,0.2,1,0.2c0.2,0,0.5,0,0.7-0.1
	c0.2-0.1,0.4-0.2,0.5-0.3c0.1-0.1,0.3-0.3,0.3-0.5l1.2,0.2c-0.1,0.4-0.3,0.7-0.5,0.9c-0.2,0.3-0.6,0.5-0.9,0.6
	C377.1,343,376.7,343,376.2,343z M380.2,342.9v-8.7h1.3v3.2h0.1c0.1-0.1,0.2-0.3,0.3-0.5s0.3-0.3,0.6-0.5c0.2-0.1,0.6-0.2,1-0.2
	c0.5,0,1,0.1,1.4,0.4c0.4,0.3,0.7,0.7,1,1.2c0.2,0.5,0.4,1.1,0.4,1.8c0,0.7-0.1,1.3-0.4,1.8c-0.2,0.5-0.6,0.9-1,1.2
	c-0.4,0.3-0.9,0.4-1.4,0.4c-0.4,0-0.7-0.1-1-0.2c-0.2-0.1-0.4-0.3-0.6-0.5c-0.1-0.2-0.3-0.3-0.3-0.5h-0.1v1H380.2z M381.5,339.6
	c0,0.5,0.1,0.9,0.2,1.2c0.1,0.3,0.3,0.6,0.6,0.8c0.3,0.2,0.6,0.3,0.9,0.3c0.4,0,0.7-0.1,1-0.3c0.3-0.2,0.4-0.5,0.6-0.8
	c0.1-0.4,0.2-0.7,0.2-1.2c0-0.4-0.1-0.8-0.2-1.2c-0.1-0.3-0.3-0.6-0.6-0.8c-0.3-0.2-0.6-0.3-1-0.3c-0.4,0-0.7,0.1-0.9,0.3
	c-0.3,0.2-0.4,0.5-0.6,0.8C381.5,338.8,381.5,339.2,381.5,339.6z"/>
<path class="st3" d="M246.7,334.2h1.3v6.2c0,0.6-0.1,1-0.3,1.4c-0.2,0.4-0.5,0.7-0.9,0.9c-0.4,0.2-0.9,0.3-1.4,0.3
	c-0.5,0-0.9-0.1-1.3-0.3c-0.4-0.2-0.7-0.4-0.9-0.8c-0.2-0.3-0.3-0.8-0.3-1.3h1.3c0,0.2,0.1,0.5,0.2,0.6c0.1,0.2,0.3,0.3,0.5,0.4
	c0.2,0.1,0.4,0.1,0.7,0.1c0.3,0,0.5-0.1,0.7-0.2c0.2-0.1,0.3-0.3,0.4-0.5c0.1-0.2,0.2-0.5,0.2-0.8V334.2z M251.4,343.1
	c-0.4,0-0.8-0.1-1.1-0.2c-0.3-0.2-0.6-0.4-0.8-0.7c-0.2-0.3-0.3-0.7-0.3-1.1c0-0.4,0.1-0.7,0.2-0.9c0.1-0.2,0.3-0.4,0.6-0.6
	c0.2-0.1,0.5-0.2,0.8-0.3c0.3-0.1,0.6-0.1,0.9-0.2c0.4,0,0.7-0.1,1-0.1c0.2,0,0.4-0.1,0.5-0.1c0.1-0.1,0.2-0.2,0.2-0.3v0
	c0-0.4-0.1-0.7-0.3-0.9c-0.2-0.2-0.5-0.3-0.9-0.3c-0.4,0-0.8,0.1-1,0.3c-0.2,0.2-0.4,0.4-0.5,0.6l-1.2-0.3c0.1-0.4,0.4-0.7,0.6-1
	c0.3-0.2,0.6-0.4,1-0.5c0.4-0.1,0.7-0.2,1.1-0.2c0.3,0,0.5,0,0.8,0.1c0.3,0.1,0.6,0.2,0.8,0.3c0.3,0.2,0.5,0.4,0.6,0.7
	c0.2,0.3,0.2,0.7,0.2,1.2v4.3h-1.2V342h-0.1c-0.1,0.2-0.2,0.3-0.4,0.5s-0.4,0.3-0.6,0.4C252.1,343,251.8,343.1,251.4,343.1z
	 M251.7,342c0.4,0,0.7-0.1,0.9-0.2c0.3-0.1,0.4-0.3,0.6-0.5c0.1-0.2,0.2-0.5,0.2-0.7v-0.8c0,0-0.1,0.1-0.3,0.1
	c-0.1,0-0.3,0.1-0.4,0.1c-0.2,0-0.3,0-0.5,0.1c-0.2,0-0.3,0-0.4,0.1c-0.2,0-0.5,0.1-0.7,0.2c-0.2,0.1-0.4,0.2-0.5,0.3
	c-0.1,0.1-0.2,0.3-0.2,0.5c0,0.3,0.1,0.6,0.3,0.7C251,342,251.3,342,251.7,342z M257.3,339v3.9H256v-6.5h1.2v1.1h0.1
	c0.2-0.3,0.4-0.6,0.7-0.8c0.3-0.2,0.7-0.3,1.2-0.3c0.4,0,0.8,0.1,1.2,0.3c0.3,0.2,0.6,0.5,0.8,0.8c0.2,0.4,0.3,0.8,0.3,1.4v4.2h-1.3
	v-4c0-0.5-0.1-0.8-0.4-1.1c-0.2-0.3-0.6-0.4-1-0.4c-0.3,0-0.6,0.1-0.8,0.2c-0.2,0.1-0.4,0.3-0.5,0.6
	C257.4,338.4,257.3,338.7,257.3,339z"/>
<path class="st3" d="M118.6,342.9h-2.8v-8.7h2.9c0.9,0,1.6,0.2,2.2,0.5c0.6,0.3,1.1,0.8,1.4,1.5c0.3,0.6,0.5,1.4,0.5,2.3
	c0,0.9-0.2,1.7-0.5,2.3c-0.3,0.7-0.8,1.2-1.4,1.5C120.3,342.7,119.5,342.9,118.6,342.9z M117.1,341.8h1.4c0.7,0,1.2-0.1,1.7-0.4
	c0.4-0.3,0.8-0.6,1-1.1c0.2-0.5,0.3-1.1,0.3-1.8c0-0.7-0.1-1.3-0.3-1.7c-0.2-0.5-0.5-0.8-1-1.1c-0.4-0.2-1-0.4-1.6-0.4h-1.5V341.8z
	 M126.9,343c-0.6,0-1.2-0.1-1.7-0.4c-0.5-0.3-0.8-0.7-1.1-1.2c-0.2-0.5-0.4-1.1-0.4-1.8c0-0.7,0.1-1.3,0.4-1.8
	c0.3-0.5,0.6-0.9,1.1-1.2c0.5-0.3,1-0.4,1.6-0.4c0.4,0,0.7,0.1,1.1,0.2c0.3,0.1,0.7,0.3,0.9,0.6c0.3,0.3,0.5,0.6,0.7,1
	c0.2,0.4,0.2,0.9,0.2,1.5v0.5h-5.2v-1h4c0-0.3-0.1-0.6-0.2-0.9c-0.1-0.3-0.3-0.5-0.6-0.6c-0.2-0.2-0.5-0.2-0.9-0.2
	c-0.4,0-0.7,0.1-0.9,0.3c-0.3,0.2-0.5,0.4-0.6,0.7c-0.1,0.3-0.2,0.6-0.2,0.9v0.7c0,0.4,0.1,0.8,0.2,1.1c0.2,0.3,0.4,0.5,0.7,0.7
	c0.3,0.2,0.6,0.2,1,0.2c0.2,0,0.5,0,0.7-0.1c0.2-0.1,0.4-0.2,0.5-0.3c0.1-0.1,0.3-0.3,0.3-0.5l1.2,0.2c-0.1,0.4-0.3,0.7-0.5,0.9
	c-0.2,0.3-0.6,0.5-0.9,0.6C127.8,343,127.3,343,126.9,343z M133.5,343c-0.6,0-1.2-0.1-1.6-0.4c-0.5-0.3-0.8-0.7-1-1.2
	c-0.2-0.5-0.4-1.1-0.4-1.7c0-0.7,0.1-1.3,0.4-1.8c0.2-0.5,0.6-0.9,1.1-1.2c0.5-0.3,1-0.4,1.6-0.4c0.5,0,0.9,0.1,1.3,0.3
	c0.4,0.2,0.7,0.4,0.9,0.8c0.2,0.3,0.4,0.7,0.4,1.2H135c-0.1-0.3-0.2-0.6-0.5-0.8c-0.2-0.2-0.6-0.3-1-0.3c-0.4,0-0.7,0.1-0.9,0.3
	c-0.3,0.2-0.5,0.4-0.6,0.8c-0.1,0.3-0.2,0.7-0.2,1.2c0,0.5,0.1,0.9,0.2,1.2c0.1,0.3,0.3,0.6,0.6,0.8c0.3,0.2,0.6,0.3,0.9,0.3
	c0.2,0,0.5,0,0.7-0.1c0.2-0.1,0.4-0.2,0.5-0.4c0.1-0.2,0.2-0.4,0.3-0.6h1.2c0,0.4-0.2,0.8-0.4,1.1c-0.2,0.3-0.5,0.6-0.9,0.8
	C134.5,343,134.1,343,133.5,343z"/>
</svg>
