<svg width="401" height="470" viewBox="0 0 401 470" fill="none" xmlns="http://www.w3.org/2000/svg">
<g filter="url(#filter0_d_1378_8243)">
<rect x="50" y="35" width="301" height="370" rx="13" fill="white"/>
</g>
<path d="M88.0114 78V66.3636H92.6023C93.4848 66.3636 94.2367 66.5322 94.858 66.8693C95.4792 67.2027 95.9527 67.6667 96.2784 68.2614C96.608 68.8523 96.7727 69.5341 96.7727 70.3068C96.7727 71.0795 96.6061 71.7614 96.2727 72.3523C95.9394 72.9432 95.4564 73.4034 94.8239 73.733C94.1951 74.0625 93.4337 74.2273 92.5398 74.2273H89.6136V72.2557H92.142C92.6155 72.2557 93.0057 72.1742 93.3125 72.0114C93.6231 71.8447 93.8542 71.6155 94.0057 71.3239C94.161 71.0284 94.2386 70.6894 94.2386 70.3068C94.2386 69.9205 94.161 69.5833 94.0057 69.2955C93.8542 69.0038 93.6231 68.7784 93.3125 68.6193C93.0019 68.4564 92.608 68.375 92.1307 68.375H90.4716V78H88.0114ZM102.928 78.1705C102.045 78.1705 101.282 77.983 100.638 77.608C99.9979 77.2292 99.5036 76.7027 99.1551 76.0284C98.8066 75.3504 98.6324 74.5644 98.6324 73.6705C98.6324 72.7689 98.8066 71.9811 99.1551 71.3068C99.5036 70.6288 99.9979 70.1023 100.638 69.7273C101.282 69.3485 102.045 69.1591 102.928 69.1591C103.81 69.1591 104.572 69.3485 105.212 69.7273C105.856 70.1023 106.352 70.6288 106.701 71.3068C107.049 71.9811 107.223 72.7689 107.223 73.6705C107.223 74.5644 107.049 75.3504 106.701 76.0284C106.352 76.7027 105.856 77.2292 105.212 77.608C104.572 77.983 103.81 78.1705 102.928 78.1705ZM102.939 76.2955C103.341 76.2955 103.676 76.1818 103.945 75.9545C104.214 75.7235 104.416 75.4091 104.553 75.0114C104.693 74.6136 104.763 74.161 104.763 73.6534C104.763 73.1458 104.693 72.6932 104.553 72.2955C104.416 71.8977 104.214 71.5833 103.945 71.3523C103.676 71.1212 103.341 71.0057 102.939 71.0057C102.534 71.0057 102.193 71.1212 101.916 71.3523C101.644 71.5833 101.437 71.8977 101.297 72.2955C101.161 72.6932 101.093 73.1458 101.093 73.6534C101.093 74.161 101.161 74.6136 101.297 75.0114C101.437 75.4091 101.644 75.7235 101.916 75.9545C102.193 76.1818 102.534 76.2955 102.939 76.2955ZM111.1 78L108.725 69.2727H111.174L112.526 75.1364H112.606L114.015 69.2727H116.418L117.85 75.1023H117.924L119.253 69.2727H121.697L119.327 78H116.765L115.265 72.5114H115.157L113.657 78H111.1ZM127.546 78.1705C126.649 78.1705 125.876 77.9886 125.228 77.625C124.584 77.2576 124.088 76.7386 123.739 76.0682C123.391 75.3939 123.217 74.5966 123.217 73.6761C123.217 72.7784 123.391 71.9905 123.739 71.3125C124.088 70.6345 124.579 70.1061 125.211 69.7273C125.847 69.3485 126.594 69.1591 127.45 69.1591C128.025 69.1591 128.561 69.2519 129.058 69.4375C129.558 69.6193 129.993 69.8939 130.364 70.2614C130.739 70.6288 131.031 71.0909 131.239 71.6477C131.448 72.2008 131.552 72.8485 131.552 73.5909V74.2557H124.183V72.7557H129.274C129.274 72.4072 129.198 72.0985 129.046 71.8295C128.895 71.5606 128.685 71.3504 128.416 71.1989C128.15 71.0436 127.842 70.9659 127.489 70.9659C127.122 70.9659 126.796 71.0511 126.512 71.2216C126.232 71.3883 126.012 71.6136 125.853 71.8977C125.694 72.178 125.613 72.4905 125.609 72.8352V74.2614C125.609 74.6932 125.688 75.0663 125.847 75.3807C126.01 75.6951 126.239 75.9375 126.535 76.108C126.83 76.2784 127.181 76.3636 127.586 76.3636C127.855 76.3636 128.101 76.3258 128.325 76.25C128.548 76.1742 128.739 76.0606 128.899 75.9091C129.058 75.7576 129.179 75.572 129.262 75.3523L131.501 75.5C131.387 76.0379 131.154 76.5076 130.802 76.9091C130.454 77.3068 130.003 77.6174 129.45 77.8409C128.9 78.0606 128.266 78.1705 127.546 78.1705ZM133.932 78V69.2727H136.278V70.7955H136.369C136.528 70.2538 136.795 69.8447 137.17 69.5682C137.545 69.2879 137.977 69.1477 138.466 69.1477C138.587 69.1477 138.718 69.1553 138.858 69.1705C138.998 69.1856 139.121 69.2064 139.227 69.233V71.3807C139.113 71.3466 138.956 71.3163 138.755 71.2898C138.555 71.2633 138.371 71.25 138.204 71.25C137.848 71.25 137.53 71.3277 137.25 71.483C136.973 71.6345 136.754 71.8466 136.591 72.1193C136.432 72.392 136.352 72.7064 136.352 73.0625V78H133.932ZM145.827 78V66.3636H150.486C151.342 66.3636 152.056 66.4905 152.628 66.7443C153.2 66.9981 153.63 67.3504 153.918 67.8011C154.206 68.2481 154.35 68.7633 154.35 69.3466C154.35 69.8011 154.259 70.2008 154.077 70.5455C153.895 70.8864 153.645 71.1667 153.327 71.3864C153.013 71.6023 152.653 71.7557 152.247 71.8466V71.9602C152.691 71.9792 153.105 72.1042 153.492 72.3352C153.882 72.5663 154.198 72.8902 154.441 73.3068C154.683 73.7197 154.804 74.2121 154.804 74.7841C154.804 75.4015 154.651 75.9527 154.344 76.4375C154.041 76.9186 153.592 77.2992 152.997 77.5795C152.403 77.8598 151.67 78 150.799 78H145.827ZM148.287 75.9886H150.293C150.979 75.9886 151.479 75.858 151.793 75.5966C152.107 75.3314 152.264 74.9792 152.264 74.5398C152.264 74.2178 152.187 73.9337 152.032 73.6875C151.876 73.4413 151.655 73.2481 151.367 73.108C151.083 72.9678 150.744 72.8977 150.35 72.8977H148.287V75.9886ZM148.287 71.233H150.111C150.448 71.233 150.747 71.1742 151.009 71.0568C151.274 70.9356 151.482 70.7652 151.634 70.5455C151.789 70.3258 151.867 70.0625 151.867 69.7557C151.867 69.3352 151.717 68.9962 151.418 68.7386C151.122 68.4811 150.702 68.3523 150.157 68.3523H148.287V71.233ZM157.16 78V69.2727H159.58V78H157.16ZM158.376 68.1477C158.016 68.1477 157.707 68.0284 157.449 67.7898C157.196 67.5473 157.069 67.2576 157.069 66.9205C157.069 66.5871 157.196 66.3011 157.449 66.0625C157.707 65.8201 158.016 65.6989 158.376 65.6989C158.735 65.6989 159.042 65.8201 159.296 66.0625C159.554 66.3011 159.682 66.5871 159.682 66.9205C159.682 67.2576 159.554 67.5473 159.296 67.7898C159.042 68.0284 158.735 68.1477 158.376 68.1477Z" fill="#404D61"/>
<path d="M253.052 165.119C252.418 165.119 251.856 165.013 251.364 164.8C250.876 164.587 250.492 164.295 250.214 163.926C249.938 163.554 249.802 163.132 249.805 162.661C249.802 162.294 249.881 161.957 250.043 161.651C250.205 161.344 250.424 161.088 250.699 160.884C250.978 160.676 251.287 160.544 251.628 160.487V160.428C251.18 160.328 250.816 160.099 250.537 159.741C250.262 159.381 250.126 158.964 250.128 158.493C250.126 158.044 250.251 157.643 250.503 157.291C250.756 156.939 251.103 156.662 251.543 156.46C251.983 156.256 252.486 156.153 253.052 156.153C253.611 156.153 254.11 156.256 254.547 156.46C254.988 156.662 255.334 156.939 255.587 157.291C255.843 157.643 255.971 158.044 255.971 158.493C255.971 158.964 255.83 159.381 255.549 159.741C255.27 160.099 254.911 160.328 254.471 160.428V160.487C254.812 160.544 255.118 160.676 255.391 160.884C255.667 161.088 255.885 161.344 256.047 161.651C256.212 161.957 256.295 162.294 256.295 162.661C256.295 163.132 256.155 163.554 255.877 163.926C255.599 164.295 255.215 164.587 254.726 164.8C254.241 165.013 253.682 165.119 253.052 165.119ZM253.052 163.901C253.378 163.901 253.662 163.845 253.904 163.734C254.145 163.621 254.333 163.462 254.466 163.257C254.6 163.053 254.668 162.817 254.671 162.55C254.668 162.271 254.596 162.026 254.454 161.812C254.314 161.597 254.123 161.428 253.878 161.305C253.637 161.183 253.361 161.122 253.052 161.122C252.739 161.122 252.461 161.183 252.216 161.305C251.972 161.428 251.779 161.597 251.637 161.812C251.498 162.026 251.43 162.271 251.432 162.55C251.43 162.817 251.495 163.053 251.628 163.257C251.762 163.459 251.949 163.616 252.191 163.73C252.435 163.844 252.722 163.901 253.052 163.901ZM253.052 159.925C253.319 159.925 253.555 159.871 253.759 159.763C253.966 159.655 254.13 159.504 254.249 159.311C254.368 159.118 254.43 158.895 254.432 158.642C254.43 158.392 254.37 158.173 254.253 157.986C254.137 157.795 253.975 157.649 253.768 157.547C253.56 157.442 253.322 157.389 253.052 157.389C252.776 157.389 252.533 157.442 252.323 157.547C252.116 157.649 251.954 157.795 251.837 157.986C251.724 158.173 251.668 158.392 251.671 158.642C251.668 158.895 251.725 159.118 251.841 159.311C251.961 159.501 252.124 159.652 252.331 159.763C252.542 159.871 252.782 159.925 253.052 159.925ZM260.892 165.119C260.474 165.116 260.066 165.044 259.669 164.902C259.271 164.757 258.913 164.523 258.595 164.199C258.276 163.872 258.024 163.439 257.836 162.899C257.649 162.357 257.556 161.685 257.559 160.884C257.559 160.136 257.639 159.47 257.798 158.885C257.957 158.3 258.186 157.805 258.484 157.402C258.782 156.996 259.142 156.686 259.562 156.473C259.985 156.26 260.458 156.153 260.981 156.153C261.529 156.153 262.015 156.261 262.438 156.477C262.865 156.693 263.208 156.989 263.47 157.364C263.731 157.736 263.893 158.156 263.955 158.625H262.4C262.32 158.29 262.157 158.023 261.91 157.824C261.666 157.622 261.356 157.521 260.981 157.521C260.376 157.521 259.91 157.784 259.583 158.31C259.259 158.835 259.096 159.557 259.093 160.474H259.153C259.292 160.224 259.472 160.01 259.694 159.831C259.916 159.652 260.166 159.514 260.444 159.418C260.725 159.318 261.022 159.268 261.335 159.268C261.846 159.268 262.305 159.391 262.711 159.635C263.12 159.879 263.444 160.216 263.683 160.645C263.921 161.071 264.039 161.56 264.036 162.111C264.039 162.685 263.909 163.2 263.644 163.658C263.38 164.112 263.012 164.47 262.541 164.732C262.069 164.993 261.519 165.122 260.892 165.119ZM260.883 163.841C261.193 163.841 261.47 163.766 261.714 163.615C261.958 163.464 262.151 163.261 262.294 163.006C262.436 162.75 262.505 162.463 262.502 162.145C262.505 161.832 262.437 161.55 262.298 161.297C262.161 161.044 261.972 160.844 261.731 160.696C261.49 160.548 261.214 160.474 260.904 160.474C260.674 160.474 260.46 160.518 260.261 160.607C260.062 160.695 259.889 160.817 259.741 160.973C259.593 161.126 259.477 161.305 259.392 161.51C259.309 161.712 259.267 161.928 259.264 162.158C259.267 162.462 259.338 162.741 259.477 162.997C259.616 163.253 259.808 163.457 260.052 163.611C260.296 163.764 260.573 163.841 260.883 163.841ZM270.143 163.364V162.903C270.143 162.565 270.214 162.254 270.356 161.97C270.501 161.686 270.711 161.457 270.987 161.284C271.262 161.111 271.596 161.024 271.988 161.024C272.392 161.024 272.73 161.111 273.002 161.284C273.275 161.455 273.481 161.682 273.62 161.966C273.762 162.25 273.833 162.562 273.833 162.903V163.364C273.833 163.702 273.762 164.013 273.62 164.297C273.478 164.581 273.269 164.81 272.994 164.983C272.721 165.156 272.386 165.243 271.988 165.243C271.59 165.243 271.254 165.156 270.978 164.983C270.703 164.81 270.494 164.581 270.352 164.297C270.213 164.013 270.143 163.702 270.143 163.364ZM271.255 162.903V163.364C271.255 163.588 271.309 163.794 271.417 163.982C271.525 164.169 271.715 164.263 271.988 164.263C272.264 164.263 272.453 164.17 272.555 163.986C272.66 163.798 272.713 163.591 272.713 163.364V162.903C272.713 162.676 272.663 162.469 272.563 162.281C272.464 162.091 272.272 161.996 271.988 161.996C271.721 161.996 271.532 162.091 271.421 162.281C271.311 162.469 271.255 162.676 271.255 162.903ZM265.707 158.369V157.909C265.707 157.568 265.779 157.256 265.924 156.972C266.069 156.687 266.279 156.46 266.555 156.29C266.83 156.116 267.164 156.03 267.556 156.03C267.957 156.03 268.294 156.116 268.566 156.29C268.842 156.46 269.049 156.687 269.188 156.972C269.328 157.256 269.397 157.568 269.397 157.909V158.369C269.397 158.71 269.326 159.023 269.184 159.307C269.045 159.588 268.838 159.814 268.562 159.984C268.286 160.155 267.951 160.24 267.556 160.24C267.156 160.24 266.818 160.155 266.542 159.984C266.269 159.814 266.062 159.587 265.92 159.303C265.778 159.018 265.707 158.707 265.707 158.369ZM266.828 157.909V158.369C266.828 158.597 266.88 158.804 266.985 158.991C267.093 159.176 267.284 159.268 267.556 159.268C267.829 159.268 268.017 159.176 268.119 158.991C268.224 158.804 268.276 158.597 268.276 158.369V157.909C268.276 157.682 268.227 157.474 268.127 157.287C268.028 157.097 267.838 157.001 267.556 157.001C267.286 157.001 267.097 157.097 266.99 157.287C266.882 157.477 266.828 157.685 266.828 157.909ZM266.193 165L272.193 156.273H273.258L267.258 165H266.193Z" fill="#FDFDFF"/>
<path d="M246.508 200C257.63 209.308 266.546 220.947 272.619 234.086C278.691 247.224 281.77 261.537 281.634 276L186.443 275.156C185.074 275.144 184.339 273.541 185.224 272.495L246.508 200Z" fill="url(#paint0_linear_1378_8243)"/>
<path d="M227.313 246.079V260.191H224.757V248.567H224.674L221.373 250.675V248.332L224.881 246.079H227.313ZM230.641 257.573V255.54L236.629 246.079H238.325V248.973H237.291L233.26 255.361V255.471H241.618V257.573H230.641ZM237.374 260.191V256.953L237.401 256.043V246.079H239.813V260.191H237.374ZM251.365 257.545V256.801C251.365 256.255 251.48 255.751 251.71 255.292C251.944 254.833 252.284 254.463 252.73 254.183C253.175 253.902 253.715 253.762 254.349 253.762C255.001 253.762 255.548 253.902 255.989 254.183C256.43 254.458 256.763 254.826 256.988 255.285C257.218 255.745 257.333 256.25 257.333 256.801V257.545C257.333 258.092 257.218 258.595 256.988 259.054C256.758 259.514 256.421 259.884 255.975 260.164C255.534 260.444 254.992 260.584 254.349 260.584C253.706 260.584 253.161 260.444 252.716 260.164C252.27 259.884 251.933 259.514 251.703 259.054C251.478 258.595 251.365 258.092 251.365 257.545ZM253.164 256.801V257.545C253.164 257.908 253.251 258.241 253.426 258.545C253.6 258.848 253.908 258.999 254.349 258.999C254.795 258.999 255.1 258.85 255.265 258.551C255.435 258.248 255.52 257.913 255.52 257.545V256.801C255.52 256.434 255.44 256.098 255.279 255.795C255.118 255.487 254.808 255.333 254.349 255.333C253.917 255.333 253.612 255.487 253.432 255.795C253.253 256.098 253.164 256.434 253.164 256.801ZM244.192 249.469V248.725C244.192 248.174 244.309 247.669 244.543 247.209C244.778 246.75 245.118 246.382 245.563 246.107C246.009 245.827 246.549 245.686 247.183 245.686C247.83 245.686 248.375 245.827 248.816 246.107C249.261 246.382 249.597 246.75 249.822 247.209C250.047 247.669 250.159 248.174 250.159 248.725V249.469C250.159 250.021 250.045 250.526 249.815 250.985C249.59 251.44 249.254 251.805 248.809 252.081C248.363 252.357 247.821 252.494 247.183 252.494C246.535 252.494 245.988 252.357 245.543 252.081C245.102 251.805 244.766 251.438 244.537 250.979C244.307 250.519 244.192 250.016 244.192 249.469ZM246.004 248.725V249.469C246.004 249.837 246.089 250.172 246.259 250.475C246.434 250.774 246.742 250.923 247.183 250.923C247.624 250.923 247.927 250.774 248.092 250.475C248.262 250.172 248.347 249.837 248.347 249.469V248.725C248.347 248.358 248.267 248.022 248.106 247.719C247.945 247.411 247.637 247.258 247.183 247.258C246.746 247.258 246.441 247.411 246.266 247.719C246.092 248.027 246.004 248.362 246.004 248.725ZM244.978 260.191L254.68 246.079H256.402L246.7 260.191H244.978Z" fill="#FDFDFF"/>
<rect x="241.5" y="126.5" width="15" height="15" rx="4.5" fill="url(#paint1_linear_1378_8243)" stroke="url(#paint2_linear_1378_8243)"/>
<path d="M266.861 138V129.273H268.442V136.675H272.286V138H266.861ZM276.445 138.128C275.805 138.128 275.251 137.987 274.783 137.706C274.314 137.425 273.95 137.031 273.692 136.526C273.436 136.02 273.308 135.429 273.308 134.753C273.308 134.077 273.436 133.484 273.692 132.976C273.95 132.467 274.314 132.072 274.783 131.791C275.251 131.51 275.805 131.369 276.445 131.369C277.084 131.369 277.638 131.51 278.107 131.791C278.575 132.072 278.938 132.467 279.193 132.976C279.452 133.484 279.581 134.077 279.581 134.753C279.581 135.429 279.452 136.02 279.193 136.526C278.938 137.031 278.575 137.425 278.107 137.706C277.638 137.987 277.084 138.128 276.445 138.128ZM276.453 136.892C276.8 136.892 277.089 136.797 277.322 136.607C277.555 136.413 277.729 136.155 277.842 135.831C277.959 135.507 278.017 135.146 278.017 134.749C278.017 134.348 277.959 133.986 277.842 133.662C277.729 133.335 277.555 133.075 277.322 132.882C277.089 132.689 276.8 132.592 276.453 132.592C276.098 132.592 275.803 132.689 275.567 132.882C275.334 133.075 275.159 133.335 275.043 133.662C274.929 133.986 274.872 134.348 274.872 134.749C274.872 135.146 274.929 135.507 275.043 135.831C275.159 136.155 275.334 136.413 275.567 136.607C275.803 136.797 276.098 136.892 276.453 136.892ZM280.89 138V131.455H282.386V132.545H282.454C282.574 132.168 282.778 131.876 283.068 131.672C283.36 131.464 283.694 131.361 284.069 131.361C284.154 131.361 284.25 131.365 284.355 131.374C284.463 131.379 284.552 131.389 284.623 131.403V132.822C284.558 132.8 284.454 132.78 284.312 132.763C284.173 132.743 284.038 132.733 283.907 132.733C283.626 132.733 283.373 132.794 283.149 132.916C282.927 133.036 282.752 133.202 282.625 133.415C282.497 133.628 282.433 133.874 282.433 134.152V138H280.89ZM288.276 138.128C287.62 138.128 287.053 137.991 286.576 137.719C286.102 137.443 285.737 137.054 285.481 136.551C285.225 136.045 285.097 135.45 285.097 134.766C285.097 134.092 285.225 133.501 285.481 132.993C285.739 132.482 286.1 132.084 286.563 131.8C287.026 131.513 287.57 131.369 288.195 131.369C288.599 131.369 288.979 131.435 289.337 131.565C289.698 131.693 290.016 131.892 290.292 132.162C290.57 132.432 290.789 132.776 290.948 133.193C291.107 133.608 291.187 134.102 291.187 134.676V135.149H285.822V134.109H289.708C289.705 133.814 289.641 133.551 289.516 133.321C289.391 133.088 289.217 132.905 288.992 132.771C288.771 132.638 288.512 132.571 288.217 132.571C287.901 132.571 287.624 132.648 287.386 132.801C287.147 132.952 286.961 133.151 286.827 133.398C286.697 133.642 286.63 133.911 286.627 134.203V135.111C286.627 135.491 286.697 135.818 286.836 136.091C286.975 136.361 287.17 136.568 287.42 136.713C287.67 136.855 287.962 136.926 288.298 136.926C288.522 136.926 288.725 136.895 288.907 136.832C289.089 136.767 289.246 136.672 289.38 136.547C289.513 136.422 289.614 136.267 289.683 136.082L291.123 136.244C291.032 136.625 290.859 136.957 290.603 137.241C290.35 137.523 290.026 137.741 289.631 137.898C289.237 138.051 288.785 138.128 288.276 138.128ZM292.492 138V131.455H293.966V132.567H294.043C294.179 132.192 294.405 131.899 294.721 131.689C295.036 131.476 295.412 131.369 295.85 131.369C296.293 131.369 296.667 131.477 296.971 131.693C297.277 131.906 297.493 132.197 297.618 132.567H297.686C297.831 132.203 298.076 131.913 298.419 131.697C298.766 131.479 299.176 131.369 299.651 131.369C300.253 131.369 300.745 131.56 301.125 131.94C301.506 132.321 301.696 132.876 301.696 133.607V138H300.15V133.845C300.15 133.439 300.042 133.142 299.826 132.955C299.61 132.764 299.346 132.669 299.033 132.669C298.661 132.669 298.37 132.786 298.159 133.018C297.952 133.249 297.848 133.548 297.848 133.918V138H296.336V133.781C296.336 133.443 296.233 133.173 296.029 132.972C295.827 132.77 295.563 132.669 295.236 132.669C295.015 132.669 294.813 132.726 294.631 132.839C294.449 132.95 294.304 133.108 294.196 133.312C294.088 133.514 294.034 133.75 294.034 134.02V138H292.492Z" fill="#4F4F4F"/>
<rect x="241.5" y="153.5" width="15" height="15" rx="4.5" fill="#282B80" stroke="#282B80"/>
<path d="M266.861 165V156.273H268.442V163.675H272.286V165H266.861ZM276.445 165.128C275.805 165.128 275.251 164.987 274.783 164.706C274.314 164.425 273.95 164.031 273.692 163.526C273.436 163.02 273.308 162.429 273.308 161.753C273.308 161.077 273.436 160.484 273.692 159.976C273.95 159.467 274.314 159.072 274.783 158.791C275.251 158.51 275.805 158.369 276.445 158.369C277.084 158.369 277.638 158.51 278.107 158.791C278.575 159.072 278.938 159.467 279.193 159.976C279.452 160.484 279.581 161.077 279.581 161.753C279.581 162.429 279.452 163.02 279.193 163.526C278.938 164.031 278.575 164.425 278.107 164.706C277.638 164.987 277.084 165.128 276.445 165.128ZM276.453 163.892C276.8 163.892 277.089 163.797 277.322 163.607C277.555 163.413 277.729 163.155 277.842 162.831C277.959 162.507 278.017 162.146 278.017 161.749C278.017 161.348 277.959 160.986 277.842 160.662C277.729 160.335 277.555 160.075 277.322 159.882C277.089 159.689 276.8 159.592 276.453 159.592C276.098 159.592 275.803 159.689 275.567 159.882C275.334 160.075 275.159 160.335 275.043 160.662C274.929 160.986 274.872 161.348 274.872 161.749C274.872 162.146 274.929 162.507 275.043 162.831C275.159 163.155 275.334 163.413 275.567 163.607C275.803 163.797 276.098 163.892 276.453 163.892ZM280.89 165V158.455H282.386V159.545H282.454C282.574 159.168 282.778 158.876 283.068 158.672C283.36 158.464 283.694 158.361 284.069 158.361C284.154 158.361 284.25 158.365 284.355 158.374C284.463 158.379 284.552 158.389 284.623 158.403V159.822C284.558 159.8 284.454 159.78 284.312 159.763C284.173 159.743 284.038 159.733 283.907 159.733C283.626 159.733 283.373 159.794 283.149 159.916C282.927 160.036 282.752 160.202 282.625 160.415C282.497 160.628 282.433 160.874 282.433 161.152V165H280.89ZM288.276 165.128C287.62 165.128 287.053 164.991 286.576 164.719C286.102 164.443 285.737 164.054 285.481 163.551C285.225 163.045 285.097 162.45 285.097 161.766C285.097 161.092 285.225 160.501 285.481 159.993C285.739 159.482 286.1 159.084 286.563 158.8C287.026 158.513 287.57 158.369 288.195 158.369C288.599 158.369 288.979 158.435 289.337 158.565C289.698 158.693 290.016 158.892 290.292 159.162C290.57 159.432 290.789 159.776 290.948 160.193C291.107 160.608 291.187 161.102 291.187 161.676V162.149H285.822V161.109H289.708C289.705 160.814 289.641 160.551 289.516 160.321C289.391 160.088 289.217 159.905 288.992 159.771C288.771 159.638 288.512 159.571 288.217 159.571C287.901 159.571 287.624 159.648 287.386 159.801C287.147 159.952 286.961 160.151 286.827 160.398C286.697 160.642 286.63 160.911 286.627 161.203V162.111C286.627 162.491 286.697 162.818 286.836 163.091C286.975 163.361 287.17 163.568 287.42 163.713C287.67 163.855 287.962 163.926 288.298 163.926C288.522 163.926 288.725 163.895 288.907 163.832C289.089 163.767 289.246 163.672 289.38 163.547C289.513 163.422 289.614 163.267 289.683 163.082L291.123 163.244C291.032 163.625 290.859 163.957 290.603 164.241C290.35 164.523 290.026 164.741 289.631 164.898C289.237 165.051 288.785 165.128 288.276 165.128ZM292.492 165V158.455H293.966V159.567H294.043C294.179 159.192 294.405 158.899 294.721 158.689C295.036 158.476 295.412 158.369 295.85 158.369C296.293 158.369 296.667 158.477 296.971 158.693C297.277 158.906 297.493 159.197 297.618 159.567H297.686C297.831 159.203 298.076 158.913 298.419 158.697C298.766 158.479 299.176 158.369 299.651 158.369C300.253 158.369 300.745 158.56 301.125 158.94C301.506 159.321 301.696 159.876 301.696 160.607V165H300.15V160.845C300.15 160.439 300.042 160.142 299.826 159.955C299.61 159.764 299.346 159.669 299.033 159.669C298.661 159.669 298.37 159.786 298.159 160.018C297.952 160.249 297.848 160.548 297.848 160.918V165H296.336V160.781C296.336 160.443 296.233 160.173 296.029 159.972C295.827 159.77 295.563 159.669 295.236 159.669C295.015 159.669 294.813 159.726 294.631 159.839C294.449 159.95 294.304 160.108 294.196 160.312C294.088 160.514 294.034 160.75 294.034 161.02V165H292.492Z" fill="#4F4F4F"/>
<path d="M283 277.5C283 300.799 275.062 323.404 260.494 341.587C245.926 359.771 225.598 372.449 202.86 377.531C180.121 382.614 156.33 379.798 135.406 369.548C114.483 359.297 97.6757 342.224 87.7552 321.142C77.8348 300.06 75.3929 276.228 80.8321 253.572C86.2712 230.916 99.2668 210.79 117.677 196.509C136.087 182.229 158.813 174.647 182.11 175.013C205.407 175.379 227.883 183.671 245.836 198.522L180.5 277.5H283Z" fill="#282B80"/>
<path d="M127.552 285.119C126.918 285.119 126.356 285.013 125.864 284.8C125.376 284.587 124.992 284.295 124.714 283.926C124.438 283.554 124.302 283.132 124.305 282.661C124.302 282.294 124.381 281.957 124.543 281.651C124.705 281.344 124.924 281.088 125.199 280.884C125.478 280.676 125.787 280.544 126.128 280.487V280.428C125.68 280.328 125.316 280.099 125.037 279.741C124.762 279.381 124.626 278.964 124.628 278.493C124.626 278.044 124.751 277.643 125.003 277.291C125.256 276.939 125.603 276.662 126.043 276.46C126.483 276.256 126.986 276.153 127.552 276.153C128.111 276.153 128.61 276.256 129.047 276.46C129.488 276.662 129.834 276.939 130.087 277.291C130.343 277.643 130.471 278.044 130.471 278.493C130.471 278.964 130.33 279.381 130.049 279.741C129.77 280.099 129.411 280.328 128.971 280.428V280.487C129.312 280.544 129.618 280.676 129.891 280.884C130.167 281.088 130.385 281.344 130.547 281.651C130.712 281.957 130.795 282.294 130.795 282.661C130.795 283.132 130.655 283.554 130.377 283.926C130.099 284.295 129.715 284.587 129.226 284.8C128.741 285.013 128.182 285.119 127.552 285.119ZM127.552 283.901C127.878 283.901 128.162 283.845 128.404 283.734C128.645 283.621 128.833 283.462 128.966 283.257C129.1 283.053 129.168 282.817 129.171 282.55C129.168 282.271 129.096 282.026 128.954 281.812C128.814 281.597 128.623 281.428 128.378 281.305C128.137 281.183 127.861 281.122 127.552 281.122C127.239 281.122 126.961 281.183 126.716 281.305C126.472 281.428 126.279 281.597 126.137 281.812C125.998 282.026 125.93 282.271 125.932 282.55C125.93 282.817 125.995 283.053 126.128 283.257C126.262 283.459 126.449 283.616 126.691 283.73C126.935 283.844 127.222 283.901 127.552 283.901ZM127.552 279.925C127.819 279.925 128.055 279.871 128.259 279.763C128.466 279.655 128.63 279.504 128.749 279.311C128.868 279.118 128.93 278.895 128.932 278.642C128.93 278.392 128.87 278.173 128.753 277.986C128.637 277.795 128.475 277.649 128.268 277.547C128.06 277.442 127.822 277.389 127.552 277.389C127.276 277.389 127.033 277.442 126.823 277.547C126.616 277.649 126.454 277.795 126.337 277.986C126.224 278.173 126.168 278.392 126.171 278.642C126.168 278.895 126.225 279.118 126.341 279.311C126.461 279.501 126.624 279.652 126.831 279.763C127.042 279.871 127.282 279.925 127.552 279.925ZM135.392 285.119C134.974 285.116 134.566 285.044 134.169 284.902C133.771 284.757 133.413 284.523 133.095 284.199C132.776 283.872 132.524 283.439 132.336 282.899C132.149 282.357 132.056 281.685 132.059 280.884C132.059 280.136 132.139 279.47 132.298 278.885C132.457 278.3 132.686 277.805 132.984 277.402C133.282 276.996 133.642 276.686 134.062 276.473C134.485 276.26 134.958 276.153 135.481 276.153C136.029 276.153 136.515 276.261 136.938 276.477C137.365 276.693 137.708 276.989 137.97 277.364C138.231 277.736 138.393 278.156 138.455 278.625H136.9C136.82 278.29 136.657 278.023 136.41 277.824C136.166 277.622 135.856 277.521 135.481 277.521C134.876 277.521 134.41 277.784 134.083 278.31C133.759 278.835 133.596 279.557 133.593 280.474H133.653C133.792 280.224 133.972 280.01 134.194 279.831C134.416 279.652 134.666 279.514 134.944 279.418C135.225 279.318 135.522 279.268 135.835 279.268C136.346 279.268 136.805 279.391 137.211 279.635C137.62 279.879 137.944 280.216 138.183 280.645C138.421 281.071 138.539 281.56 138.536 282.111C138.539 282.685 138.409 283.2 138.144 283.658C137.88 284.112 137.512 284.47 137.041 284.732C136.569 284.993 136.019 285.122 135.392 285.119ZM135.383 283.841C135.693 283.841 135.97 283.766 136.214 283.615C136.458 283.464 136.651 283.261 136.794 283.006C136.936 282.75 137.005 282.463 137.002 282.145C137.005 281.832 136.937 281.55 136.798 281.297C136.661 281.044 136.472 280.844 136.231 280.696C135.99 280.548 135.714 280.474 135.404 280.474C135.174 280.474 134.96 280.518 134.761 280.607C134.562 280.695 134.389 280.817 134.241 280.973C134.093 281.126 133.977 281.305 133.892 281.51C133.809 281.712 133.767 281.928 133.764 282.158C133.767 282.462 133.838 282.741 133.977 282.997C134.116 283.253 134.308 283.457 134.552 283.611C134.796 283.764 135.073 283.841 135.383 283.841ZM144.643 283.364V282.903C144.643 282.565 144.714 282.254 144.856 281.97C145.001 281.686 145.211 281.457 145.487 281.284C145.762 281.111 146.096 281.024 146.488 281.024C146.892 281.024 147.23 281.111 147.502 281.284C147.775 281.455 147.981 281.682 148.12 281.966C148.262 282.25 148.333 282.562 148.333 282.903V283.364C148.333 283.702 148.262 284.013 148.12 284.297C147.978 284.581 147.769 284.81 147.494 284.983C147.221 285.156 146.886 285.243 146.488 285.243C146.09 285.243 145.754 285.156 145.478 284.983C145.203 284.81 144.994 284.581 144.852 284.297C144.713 284.013 144.643 283.702 144.643 283.364ZM145.755 282.903V283.364C145.755 283.588 145.809 283.794 145.917 283.982C146.025 284.169 146.215 284.263 146.488 284.263C146.764 284.263 146.953 284.17 147.055 283.986C147.16 283.798 147.213 283.591 147.213 283.364V282.903C147.213 282.676 147.163 282.469 147.063 282.281C146.964 282.091 146.772 281.996 146.488 281.996C146.221 281.996 146.032 282.091 145.921 282.281C145.811 282.469 145.755 282.676 145.755 282.903ZM140.207 278.369V277.909C140.207 277.568 140.279 277.256 140.424 276.972C140.569 276.687 140.779 276.46 141.055 276.29C141.33 276.116 141.664 276.03 142.056 276.03C142.457 276.03 142.794 276.116 143.066 276.29C143.342 276.46 143.549 276.687 143.688 276.972C143.828 277.256 143.897 277.568 143.897 277.909V278.369C143.897 278.71 143.826 279.023 143.684 279.307C143.545 279.588 143.338 279.814 143.062 279.984C142.786 280.155 142.451 280.24 142.056 280.24C141.656 280.24 141.318 280.155 141.042 279.984C140.769 279.814 140.562 279.587 140.42 279.303C140.278 279.018 140.207 278.707 140.207 278.369ZM141.328 277.909V278.369C141.328 278.597 141.38 278.804 141.485 278.991C141.593 279.176 141.784 279.268 142.056 279.268C142.329 279.268 142.517 279.176 142.619 278.991C142.724 278.804 142.776 278.597 142.776 278.369V277.909C142.776 277.682 142.727 277.474 142.627 277.287C142.528 277.097 142.338 277.001 142.056 277.001C141.786 277.001 141.597 277.097 141.49 277.287C141.382 277.477 141.328 277.685 141.328 277.909ZM140.693 285L146.693 276.273H147.758L141.758 285H140.693Z" fill="#FDFDFF"/>
<defs>
<filter id="filter0_d_1378_8243" x="0" y="0" width="401" height="470" filterUnits="userSpaceOnUse" color-interpolation-filters="sRGB">
<feFlood flood-opacity="0" result="BackgroundImageFix"/>
<feColorMatrix in="SourceAlpha" type="matrix" values="0 0 0 0 0 0 0 0 0 0 0 0 0 0 0 0 0 0 127 0" result="hardAlpha"/>
<feOffset dy="15"/>
<feGaussianBlur stdDeviation="25"/>
<feComposite in2="hardAlpha" operator="out"/>
<feColorMatrix type="matrix" values="0 0 0 0 0.627451 0 0 0 0 0.639216 0 0 0 0 0.741176 0 0 0 0.1 0"/>
<feBlend mode="normal" in2="BackgroundImageFix" result="effect1_dropShadow_1378_8243"/>
<feBlend mode="normal" in="SourceGraphic" in2="effect1_dropShadow_1378_8243" result="shape"/>
</filter>
<linearGradient id="paint0_linear_1378_8243" x1="183.031" y1="200" x2="227.829" y2="289.499" gradientUnits="userSpaceOnUse">
<stop stop-color="#282B80"/>
<stop offset="0.969835" stop-color="#28A745"/>
</linearGradient>
<linearGradient id="paint1_linear_1378_8243" x1="241" y1="126" x2="251.767" y2="142.571" gradientUnits="userSpaceOnUse">
<stop stop-color="#282B80"/>
<stop offset="0.969835" stop-color="#28A745"/>
</linearGradient>
<linearGradient id="paint2_linear_1378_8243" x1="241" y1="126" x2="251.767" y2="142.571" gradientUnits="userSpaceOnUse">
<stop stop-color="#282B80"/>
<stop offset="0.969835" stop-color="#28A745"/>
</linearGradient>
</defs>
</svg>
