<svg width="113" height="48" viewBox="0 0 113 48" fill="none" xmlns="http://www.w3.org/2000/svg">
<rect x="0.75" y="0.25" width="111.5" height="47.5" rx="7.75" fill="white"/>
<path fill-rule="evenodd" clip-rule="evenodd" d="M33.5 26.5C33.5 26.2239 33.7239 26 34 26H37C37.2761 26 37.5 26.2239 37.5 26.5C37.5 26.7761 37.2761 27 37 27H34C33.7239 27 33.5 26.7761 33.5 26.5Z" fill="#414141"/>
<path fill-rule="evenodd" clip-rule="evenodd" d="M31.5 23.5C31.5 23.2239 31.7239 23 32 23H39C39.2761 23 39.5 23.2239 39.5 23.5C39.5 23.7761 39.2761 24 39 24H32C31.7239 24 31.5 23.7761 31.5 23.5Z" fill="#414141"/>
<path fill-rule="evenodd" clip-rule="evenodd" d="M29.5 20.5C29.5 20.2239 29.7239 20 30 20H41C41.2761 20 41.5 20.2239 41.5 20.5C41.5 20.7761 41.2761 21 41 21H30C29.7239 21 29.5 20.7761 29.5 20.5Z" fill="#414141"/>
<path d="M52.733 29.5V19.3182H58.8381V20.4119H53.9659V23.8523H58.3807V24.946H53.9659V29.5H52.733ZM60.7907 29.5V21.8636H61.964V29.5H60.7907ZM61.3873 20.5909C61.1586 20.5909 60.9614 20.513 60.7956 20.3572C60.6332 20.2015 60.552 20.0142 60.552 19.7955C60.552 19.5767 60.6332 19.3894 60.7956 19.2337C60.9614 19.0779 61.1586 19 61.3873 19C61.6159 19 61.8115 19.0779 61.9739 19.2337C62.1396 19.3894 62.2225 19.5767 62.2225 19.7955C62.2225 20.0142 62.1396 20.2015 61.9739 20.3572C61.8115 20.513 61.6159 20.5909 61.3873 20.5909ZM64.1129 19.3182H65.2862V27.5114C65.2862 27.8826 65.3277 28.1428 65.4105 28.2919C65.4934 28.4411 65.6641 28.5123 65.9226 28.5057C66.0618 28.4991 66.1645 28.4891 66.2308 28.4759C66.3004 28.4593 66.3634 28.4427 66.4197 28.4261L66.6584 29.4403C66.5556 29.4702 66.4264 29.4967 66.2706 29.5199C66.1148 29.5464 65.9524 29.5597 65.7834 29.5597C65.2266 29.5597 64.8089 29.4072 64.5305 29.1023C64.2521 28.7973 64.1129 28.3731 64.1129 27.8295V19.3182ZM71.057 21.8636V22.858H67.0996V21.8636H71.057ZM68.253 20.0341H69.4263V27.3125C69.4263 27.6439 69.4744 27.8925 69.5705 28.0582C69.6699 28.2206 69.7959 28.33 69.9483 28.3864C70.1041 28.4394 70.2682 28.4659 70.4405 28.4659C70.5698 28.4659 70.6758 28.4593 70.7587 28.446C70.8416 28.4295 70.9078 28.4162 70.9576 28.4062L71.1962 29.4602C71.1167 29.4901 71.0056 29.5199 70.8631 29.5497C70.7206 29.5829 70.54 29.5994 70.3212 29.5994C69.9898 29.5994 69.665 29.5282 69.3468 29.3857C69.0319 29.2431 68.7701 29.026 68.5613 28.7344C68.3558 28.4427 68.253 28.0748 68.253 27.6307V20.0341ZM75.9416 29.6591C75.2058 29.6591 74.5711 29.4967 74.0375 29.1719C73.5072 28.8438 73.0978 28.3864 72.8095 27.7997C72.5244 27.2098 72.3819 26.5237 72.3819 25.7415C72.3819 24.9593 72.5244 24.2699 72.8095 23.6733C73.0978 23.0734 73.4989 22.6061 74.0126 22.2713C74.5297 21.9332 75.1329 21.7642 75.8223 21.7642C76.22 21.7642 76.6127 21.8305 77.0005 21.9631C77.3883 22.0956 77.7413 22.3111 78.0595 22.6094C78.3777 22.9044 78.6312 23.2955 78.8201 23.7827C79.0091 24.2699 79.1035 24.8698 79.1035 25.5824V26.0795H73.2172V25.0653H77.9103C77.9103 24.6345 77.8242 24.25 77.6518 23.9119C77.4828 23.5739 77.2408 23.3071 76.926 23.1115C76.6144 22.916 76.2465 22.8182 75.8223 22.8182C75.3549 22.8182 74.9506 22.9342 74.6092 23.1662C74.2711 23.3949 74.0109 23.6932 73.8287 24.0611C73.6464 24.429 73.5552 24.8234 73.5552 25.2443V25.9205C73.5552 26.4972 73.6547 26.986 73.8535 27.3871C74.0557 27.7848 74.3358 28.0881 74.6937 28.2969C75.0517 28.5024 75.4676 28.6051 75.9416 28.6051C76.2498 28.6051 76.5282 28.562 76.7768 28.4759C77.0287 28.3864 77.2458 28.2538 77.4281 28.0781C77.6104 27.8991 77.7512 27.6771 77.8507 27.4119L78.9842 27.7301C78.8649 28.1146 78.6644 28.4527 78.3826 28.7443C78.1009 29.0327 77.7529 29.258 77.3386 29.4205C76.9243 29.5795 76.4586 29.6591 75.9416 29.6591ZM80.8883 29.5V21.8636H82.0218V23.017H82.1014C82.2373 22.6392 82.4875 22.3326 82.8521 22.0973C83.2167 21.862 83.6293 21.7443 84.09 21.7443C84.3021 21.7443 84.4877 21.7692 84.6468 21.8189C84.8059 21.8686 84.9451 21.9366 85.0645 22.0227L84.6667 23.017C84.5839 22.974 84.4861 22.9408 84.3734 22.9176C84.264 22.8911 84.1364 22.8778 83.9906 22.8778C83.6194 22.8778 83.2879 22.9557 82.9963 23.1115C82.7079 23.2673 82.4792 23.4794 82.3102 23.7479C82.1445 24.0163 82.0616 24.3229 82.0616 24.6676V29.5H80.8883Z" fill="#414141"/>
<rect x="0.75" y="0.25" width="111.5" height="47.5" rx="7.75" stroke="#C0C0C0" stroke-width="0.5"/>
</svg>
