<svg width="146" height="17" viewBox="0 0 146 17" fill="none" xmlns="http://www.w3.org/2000/svg">
  <g clip-path="url(#clip0_1348_5932)">
  <path d="M15.8327 12L9.49935 5.66667L6.16602 9L1.16602 4" stroke="#F26464" stroke-linecap="round" stroke-linejoin="round"/>
  <path d="M11.834 12H15.834V8" stroke="#F26464" stroke-linecap="round" stroke-linejoin="round"/>
  </g>
  <path d="M26.1335 3.81818V14H24.9006V5.1108H24.8409L22.3551 6.76136V5.50852L24.9006 3.81818H26.1335ZM29.3352 14.0795C29.09 14.0795 28.8795 13.9917 28.7038 13.8161C28.5282 13.6404 28.4403 13.4299 28.4403 13.1847C28.4403 12.9394 28.5282 12.7289 28.7038 12.5533C28.8795 12.3776 29.09 12.2898 29.3352 12.2898C29.5805 12.2898 29.791 12.3776 29.9666 12.5533C30.1423 12.7289 30.2301 12.9394 30.2301 13.1847C30.2301 13.3471 30.1887 13.4962 30.1058 13.6321C30.0263 13.768 29.9186 13.8774 29.7827 13.9602C29.6501 14.0398 29.5009 14.0795 29.3352 14.0795ZM35.3409 14.1392C34.9233 14.1326 34.5057 14.053 34.0881 13.9006C33.6705 13.7481 33.2893 13.4912 32.9446 13.13C32.5999 12.7654 32.3232 12.2732 32.1143 11.6534C31.9055 11.0303 31.8011 10.2481 31.8011 9.30682C31.8011 8.4053 31.8857 7.60653 32.0547 6.91051C32.2237 6.21117 32.469 5.62287 32.7905 5.1456C33.112 4.66501 33.4998 4.30043 33.9538 4.05185C34.4112 3.80327 34.9266 3.67898 35.5 3.67898C36.0701 3.67898 36.5772 3.79332 37.0213 4.02202C37.4688 4.2474 37.8333 4.56226 38.1151 4.96662C38.3968 5.37098 38.5791 5.83665 38.6619 6.36364H37.4489C37.3362 5.90625 37.1174 5.52675 36.7926 5.22514C36.4678 4.92353 36.0369 4.77273 35.5 4.77273C34.7112 4.77273 34.0897 5.11577 33.6357 5.80185C33.1849 6.48793 32.9579 7.45076 32.9545 8.69034H33.0341C33.2197 8.40862 33.4401 8.16832 33.6953 7.96946C33.9538 7.76728 34.2389 7.61151 34.5504 7.50213C34.862 7.39276 35.1918 7.33807 35.5398 7.33807C36.1231 7.33807 36.6567 7.4839 37.1406 7.77557C37.6245 8.06392 38.0123 8.4633 38.304 8.97372C38.5956 9.48082 38.7415 10.0625 38.7415 10.7188C38.7415 11.3485 38.6006 11.9252 38.3189 12.4489C38.0372 12.9692 37.6411 13.3835 37.1307 13.6918C36.6236 13.9967 36.027 14.1458 35.3409 14.1392ZM35.3409 13.0455C35.7585 13.0455 36.133 12.9411 36.4645 12.7322C36.7992 12.5234 37.0627 12.2434 37.255 11.892C37.4505 11.5407 37.5483 11.1496 37.5483 10.7188C37.5483 10.2978 37.4538 9.91501 37.2649 9.57031C37.0793 9.2223 36.8224 8.94555 36.4943 8.74006C36.1695 8.53456 35.7983 8.43182 35.3807 8.43182C35.0658 8.43182 34.7725 8.49479 34.5007 8.62074C34.2289 8.74337 33.9903 8.91241 33.7848 9.12784C33.5826 9.34328 33.4235 9.5902 33.3075 9.86861C33.1915 10.1437 33.1335 10.4337 33.1335 10.7386C33.1335 11.143 33.228 11.5208 33.4169 11.8722C33.6091 12.2235 33.871 12.5069 34.2024 12.7223C34.5372 12.9377 34.9167 13.0455 35.3409 13.0455ZM40.4579 11.9119V10.8977L44.9324 3.81818H45.6681V5.3892H45.171L41.7903 10.7386V10.8182H47.8159V11.9119H40.4579ZM45.2505 14V11.6037V11.1314V3.81818H46.4238V14H45.2505ZM54.8693 12.0909V11.554C54.8693 11.1828 54.9455 10.843 55.098 10.5348C55.2538 10.2232 55.4792 9.97467 55.7741 9.78906C56.0724 9.60014 56.4337 9.50568 56.858 9.50568C57.2888 9.50568 57.6501 9.60014 57.9418 9.78906C58.2334 9.97467 58.4538 10.2232 58.603 10.5348C58.7521 10.843 58.8267 11.1828 58.8267 11.554V12.0909C58.8267 12.4621 58.7505 12.8035 58.598 13.1151C58.4489 13.4233 58.2268 13.6719 57.9318 13.8608C57.6402 14.0464 57.2822 14.1392 56.858 14.1392C56.4271 14.1392 56.0642 14.0464 55.7692 13.8608C55.4742 13.6719 55.2505 13.4233 55.098 13.1151C54.9455 12.8035 54.8693 12.4621 54.8693 12.0909ZM55.8835 11.554V12.0909C55.8835 12.3991 55.9564 12.6759 56.1023 12.9212C56.2481 13.1631 56.5 13.2841 56.858 13.2841C57.206 13.2841 57.4512 13.1631 57.5938 12.9212C57.7396 12.6759 57.8125 12.3991 57.8125 12.0909V11.554C57.8125 11.2457 57.7429 10.9706 57.6037 10.7287C57.4645 10.4834 57.2159 10.3608 56.858 10.3608C56.5099 10.3608 56.2597 10.4834 56.1072 10.7287C55.9581 10.9706 55.8835 11.2457 55.8835 11.554ZM49.7983 6.2642V5.72727C49.7983 5.35606 49.8745 5.01634 50.027 4.7081C50.1828 4.39654 50.4081 4.14796 50.7031 3.96236C51.0014 3.77344 51.3627 3.67898 51.7869 3.67898C52.2178 3.67898 52.5791 3.77344 52.8707 3.96236C53.1624 4.14796 53.3828 4.39654 53.532 4.7081C53.6811 5.01634 53.7557 5.35606 53.7557 5.72727V6.2642C53.7557 6.63542 53.6795 6.9768 53.527 7.28835C53.3778 7.59659 53.1558 7.84517 52.8608 8.03409C52.5691 8.2197 52.2112 8.3125 51.7869 8.3125C51.3561 8.3125 50.9931 8.2197 50.6982 8.03409C50.4032 7.84517 50.1795 7.59659 50.027 7.28835C49.8745 6.9768 49.7983 6.63542 49.7983 6.2642ZM50.8125 5.72727V6.2642C50.8125 6.57244 50.8854 6.8492 51.0312 7.09446C51.1771 7.33641 51.429 7.45739 51.7869 7.45739C52.1349 7.45739 52.3802 7.33641 52.5227 7.09446C52.6686 6.8492 52.7415 6.57244 52.7415 6.2642V5.72727C52.7415 5.41903 52.6719 5.14394 52.5327 4.90199C52.3935 4.65672 52.1449 4.53409 51.7869 4.53409C51.4389 4.53409 51.1887 4.65672 51.0362 4.90199C50.8871 5.14394 50.8125 5.41903 50.8125 5.72727ZM50.1761 14L57.1761 3.81818H58.3097L51.3097 14H50.1761Z" fill="#F26464"/>
  <path d="M71.733 14V3.81818H72.9659V12.9062H77.6989V14H71.733ZM81.696 14.179C81.2121 14.179 80.773 14.0878 80.3786 13.9055C79.9841 13.7199 79.6709 13.4531 79.4389 13.1051C79.2069 12.7538 79.0909 12.3295 79.0909 11.8324C79.0909 11.3949 79.1771 11.0402 79.3494 10.7685C79.5218 10.4934 79.7521 10.2779 80.0405 10.1222C80.3288 9.96638 80.647 9.85038 80.995 9.77415C81.3464 9.6946 81.6993 9.63163 82.054 9.58523C82.518 9.52557 82.8942 9.48082 83.1825 9.45099C83.4742 9.41785 83.6863 9.36316 83.8189 9.28693C83.9548 9.2107 84.0227 9.07812 84.0227 8.8892V8.84943C84.0227 8.3589 83.8885 7.97775 83.62 7.70597C83.3549 7.43419 82.9522 7.2983 82.4119 7.2983C81.8518 7.2983 81.4126 7.42093 81.0945 7.66619C80.7763 7.91146 80.5526 8.1733 80.4233 8.4517L79.3097 8.05398C79.5085 7.58996 79.7737 7.22869 80.1051 6.97017C80.4399 6.70833 80.8045 6.52604 81.1989 6.4233C81.5966 6.31723 81.9877 6.2642 82.3722 6.2642C82.6174 6.2642 82.8991 6.29403 83.2173 6.35369C83.5388 6.41004 83.8487 6.5277 84.147 6.70668C84.4486 6.88565 84.6989 7.15578 84.8977 7.51705C85.0966 7.87831 85.196 8.36222 85.196 8.96875V14H84.0227V12.9659H83.9631C83.8835 13.1316 83.7509 13.3089 83.5653 13.4979C83.3797 13.6868 83.1328 13.8475 82.8246 13.9801C82.5163 14.1127 82.1402 14.179 81.696 14.179ZM81.875 13.125C82.339 13.125 82.7301 13.0339 83.0483 12.8516C83.3698 12.6693 83.6117 12.4339 83.7741 12.1456C83.9399 11.8572 84.0227 11.554 84.0227 11.2358V10.1619C83.973 10.2216 83.8636 10.2763 83.6946 10.326C83.5289 10.3724 83.3366 10.4138 83.1179 10.4503C82.9025 10.4834 82.692 10.5133 82.4865 10.5398C82.2843 10.563 82.1203 10.5829 81.9943 10.5994C81.6894 10.6392 81.4044 10.7038 81.1392 10.7933C80.8774 10.8795 80.6652 11.0104 80.5028 11.1861C80.3438 11.3584 80.2642 11.5937 80.2642 11.892C80.2642 12.2997 80.415 12.608 80.7166 12.8168C81.0215 13.0223 81.4077 13.125 81.875 13.125ZM92.7466 8.07386L91.6926 8.37216C91.6264 8.1965 91.5286 8.0258 91.3993 7.86009C91.2734 7.69105 91.101 7.55185 90.8823 7.44247C90.6635 7.3331 90.3835 7.27841 90.0421 7.27841C89.5748 7.27841 89.1853 7.38613 88.8738 7.60156C88.5655 7.81368 88.4114 8.08381 88.4114 8.41193C88.4114 8.7036 88.5175 8.93395 88.7296 9.10298C88.9417 9.27202 89.2731 9.41288 89.7239 9.52557L90.8574 9.80398C91.5402 9.9697 92.0489 10.2232 92.3837 10.5646C92.7185 10.9027 92.8858 11.3385 92.8858 11.8722C92.8858 12.3097 92.7599 12.7008 92.508 13.0455C92.2594 13.3902 91.9114 13.6619 91.464 13.8608C91.0165 14.0597 90.4962 14.1591 89.9029 14.1591C89.124 14.1591 88.4793 13.9901 87.9689 13.652C87.4585 13.3139 87.1354 12.8201 86.9995 12.1705L88.1131 11.892C88.2192 12.303 88.4197 12.6113 88.7147 12.8168C89.013 13.0223 89.4024 13.125 89.883 13.125C90.4299 13.125 90.8641 13.009 91.1855 12.777C91.5104 12.5417 91.6728 12.2599 91.6728 11.9318C91.6728 11.6667 91.58 11.4446 91.3944 11.2656C91.2087 11.0833 90.9237 10.9474 90.5392 10.858L89.2665 10.5597C88.5672 10.3939 88.0534 10.1371 87.7253 9.78906C87.4005 9.43774 87.2381 8.99858 87.2381 8.47159C87.2381 8.04072 87.3591 7.65956 87.601 7.32812C87.8463 6.99669 88.1794 6.73651 88.6003 6.54758C89.0246 6.35866 89.5051 6.2642 90.0421 6.2642C90.7978 6.2642 91.391 6.42992 91.8219 6.76136C92.2561 7.0928 92.5643 7.5303 92.7466 8.07386ZM97.973 6.36364V7.35795H94.0156V6.36364H97.973ZM95.169 4.53409H96.3423V11.8125C96.3423 12.1439 96.3904 12.3925 96.4865 12.5582C96.5859 12.7206 96.7119 12.83 96.8643 12.8864C97.0201 12.9394 97.1842 12.9659 97.3565 12.9659C97.4858 12.9659 97.5919 12.9593 97.6747 12.946C97.7576 12.9295 97.8239 12.9162 97.8736 12.9062L98.1122 13.9602C98.0327 13.9901 97.9216 14.0199 97.7791 14.0497C97.6366 14.0829 97.456 14.0994 97.2372 14.0994C96.9058 14.0994 96.581 14.0282 96.2628 13.8857C95.9479 13.7431 95.6861 13.526 95.4773 13.2344C95.2718 12.9427 95.169 12.5748 95.169 12.1307V4.53409ZM103.675 14V6.36364H104.809V7.55682H104.908C105.067 7.14915 105.324 6.83262 105.679 6.60724C106.034 6.37855 106.46 6.2642 106.957 6.2642C107.46 6.2642 107.88 6.37855 108.214 6.60724C108.553 6.83262 108.816 7.14915 109.005 7.55682H109.085C109.28 7.16241 109.573 6.84919 109.964 6.61719C110.356 6.38187 110.825 6.2642 111.371 6.2642C112.054 6.2642 112.613 6.47798 113.047 6.90554C113.481 7.32978 113.698 7.991 113.698 8.8892V14H112.525V8.8892C112.525 8.32576 112.371 7.92306 112.062 7.68111C111.754 7.43916 111.391 7.31818 110.974 7.31818C110.437 7.31818 110.021 7.48059 109.726 7.8054C109.431 8.12689 109.283 8.53456 109.283 9.02841V14H108.09V8.76989C108.09 8.3357 107.949 7.98603 107.668 7.72088C107.386 7.45241 107.023 7.31818 106.579 7.31818C106.274 7.31818 105.989 7.39938 105.724 7.56179C105.462 7.72419 105.25 7.94957 105.087 8.23793C104.928 8.52296 104.849 8.85275 104.849 9.22727V14H103.675ZM118.946 14.1591C118.256 14.1591 117.651 13.995 117.131 13.6669C116.614 13.3388 116.21 12.8797 115.918 12.2898C115.63 11.6998 115.485 11.0104 115.485 10.2216C115.485 9.42614 115.63 8.73177 115.918 8.13849C116.21 7.54522 116.614 7.08452 117.131 6.75639C117.651 6.42827 118.256 6.2642 118.946 6.2642C119.635 6.2642 120.238 6.42827 120.755 6.75639C121.276 7.08452 121.68 7.54522 121.968 8.13849C122.26 8.73177 122.406 9.42614 122.406 10.2216C122.406 11.0104 122.26 11.6998 121.968 12.2898C121.68 12.8797 121.276 13.3388 120.755 13.6669C120.238 13.995 119.635 14.1591 118.946 14.1591ZM118.946 13.1051C119.469 13.1051 119.9 12.9709 120.238 12.7024C120.576 12.4339 120.827 12.081 120.989 11.6435C121.151 11.206 121.233 10.732 121.233 10.2216C121.233 9.71117 121.151 9.23556 120.989 8.79474C120.827 8.35393 120.576 7.99763 120.238 7.72585C119.9 7.45407 119.469 7.31818 118.946 7.31818C118.422 7.31818 117.991 7.45407 117.653 7.72585C117.315 7.99763 117.065 8.35393 116.902 8.79474C116.74 9.23556 116.659 9.71117 116.659 10.2216C116.659 10.732 116.74 11.206 116.902 11.6435C117.065 12.081 117.315 12.4339 117.653 12.7024C117.991 12.9709 118.422 13.1051 118.946 13.1051ZM125.37 9.40625V14H124.197V6.36364H125.33V7.55682H125.43C125.609 7.16903 125.881 6.85748 126.245 6.62216C126.61 6.38352 127.08 6.2642 127.657 6.2642C128.174 6.2642 128.627 6.37027 129.014 6.58239C129.402 6.79119 129.704 7.10938 129.919 7.53693C130.135 7.96117 130.242 8.49811 130.242 9.14773V14H129.069V9.22727C129.069 8.62737 128.913 8.16004 128.602 7.82528C128.29 7.48722 127.863 7.31818 127.319 7.31818C126.945 7.31818 126.61 7.39938 126.315 7.56179C126.023 7.72419 125.793 7.96117 125.624 8.27273C125.455 8.58428 125.37 8.96212 125.37 9.40625ZM135.707 6.36364V7.35795H131.75V6.36364H135.707ZM132.903 4.53409H134.077V11.8125C134.077 12.1439 134.125 12.3925 134.221 12.5582C134.32 12.7206 134.446 12.83 134.599 12.8864C134.754 12.9394 134.919 12.9659 135.091 12.9659C135.22 12.9659 135.326 12.9593 135.409 12.946C135.492 12.9295 135.558 12.9162 135.608 12.9062L135.847 13.9602C135.767 13.9901 135.656 14.0199 135.513 14.0497C135.371 14.0829 135.19 14.0994 134.972 14.0994C134.64 14.0994 134.315 14.0282 133.997 13.8857C133.682 13.7431 133.42 13.526 133.212 13.2344C133.006 12.9427 132.903 12.5748 132.903 12.1307V4.53409ZM138.81 9.40625V14H137.636V3.81818H138.81V7.55682H138.909C139.088 7.16241 139.357 6.84919 139.714 6.61719C140.076 6.38187 140.556 6.2642 141.156 6.2642C141.677 6.2642 142.132 6.36861 142.523 6.57741C142.915 6.78291 143.218 7.09943 143.433 7.52699C143.652 7.95123 143.761 8.49148 143.761 9.14773V14H142.588V9.22727C142.588 8.62074 142.431 8.15175 142.116 7.82031C141.804 7.48556 141.372 7.31818 140.818 7.31818C140.434 7.31818 140.089 7.39938 139.784 7.56179C139.482 7.72419 139.244 7.96117 139.068 8.27273C138.896 8.58428 138.81 8.96212 138.81 9.40625Z" fill="#B9B9B9"/>
  <defs>
  <clipPath id="clip0_1348_5932">
  <rect width="16" height="16" fill="white" transform="translate(0.5)"/>
  </clipPath>
  </defs>
</svg>
