<svg width="148" height="17" viewBox="0 0 148 17" fill="none" xmlns="http://www.w3.org/2000/svg">
  <g clip-path="url(#clip0_1348_5944)">
  <path d="M15.8327 4L9.49935 10.3333L6.16602 7L1.16602 12" stroke="#FFB648" stroke-linecap="round" stroke-linejoin="round"/>
  <path d="M11.834 4H15.834V8" stroke="#FFB648" stroke-linecap="round" stroke-linejoin="round"/>
  </g>
  <path d="M25.875 14.1392C25.1259 14.1392 24.4879 13.9354 23.9609 13.5277C23.4339 13.1167 23.0313 12.5218 22.7528 11.7429C22.4744 10.9607 22.3352 10.0161 22.3352 8.90909C22.3352 7.80871 22.4744 6.86908 22.7528 6.0902C23.0346 5.308 23.4389 4.71141 23.9659 4.30043C24.4962 3.88613 25.1326 3.67898 25.875 3.67898C26.6174 3.67898 27.2521 3.88613 27.7791 4.30043C28.3094 4.71141 28.7138 5.308 28.9922 6.0902C29.2739 6.86908 29.4148 7.80871 29.4148 8.90909C29.4148 10.0161 29.2756 10.9607 28.9972 11.7429C28.7188 12.5218 28.3161 13.1167 27.7891 13.5277C27.2621 13.9354 26.6241 14.1392 25.875 14.1392ZM25.875 13.0455C26.6174 13.0455 27.1941 12.6875 27.6051 11.9716C28.0161 11.2557 28.2216 10.2348 28.2216 8.90909C28.2216 8.02746 28.1271 7.27675 27.9382 6.65696C27.7526 6.03717 27.4841 5.56487 27.1328 5.24006C26.7848 4.91525 26.3655 4.75284 25.875 4.75284C25.1392 4.75284 24.5642 5.11577 24.1499 5.84162C23.7356 6.56416 23.5284 7.58665 23.5284 8.90909C23.5284 9.79072 23.6212 10.5398 23.8068 11.1562C23.9924 11.7727 24.2592 12.2417 24.6072 12.5632C24.9586 12.8847 25.3812 13.0455 25.875 13.0455ZM31.8235 14.0795C31.5782 14.0795 31.3678 13.9917 31.1921 13.8161C31.0165 13.6404 30.9286 13.4299 30.9286 13.1847C30.9286 12.9394 31.0165 12.7289 31.1921 12.5533C31.3678 12.3776 31.5782 12.2898 31.8235 12.2898C32.0688 12.2898 32.2792 12.3776 32.4549 12.5533C32.6306 12.7289 32.7184 12.9394 32.7184 13.1847C32.7184 13.3471 32.677 13.4962 32.5941 13.6321C32.5146 13.768 32.4068 13.8774 32.271 13.9602C32.1384 14.0398 31.9892 14.0795 31.8235 14.0795ZM37.7695 14.1392C37.0205 14.1392 36.3825 13.9354 35.8555 13.5277C35.3285 13.1167 34.9258 12.5218 34.6474 11.7429C34.369 10.9607 34.2298 10.0161 34.2298 8.90909C34.2298 7.80871 34.369 6.86908 34.6474 6.0902C34.9291 5.308 35.3335 4.71141 35.8604 4.30043C36.3907 3.88613 37.0271 3.67898 37.7695 3.67898C38.512 3.67898 39.1467 3.88613 39.6737 4.30043C40.204 4.71141 40.6083 5.308 40.8867 6.0902C41.1684 6.86908 41.3093 7.80871 41.3093 8.90909C41.3093 10.0161 41.1701 10.9607 40.8917 11.7429C40.6133 12.5218 40.2106 13.1167 39.6836 13.5277C39.1566 13.9354 38.5186 14.1392 37.7695 14.1392ZM37.7695 13.0455C38.512 13.0455 39.0887 12.6875 39.4996 11.9716C39.9106 11.2557 40.1161 10.2348 40.1161 8.90909C40.1161 8.02746 40.0217 7.27675 39.8327 6.65696C39.6471 6.03717 39.3787 5.56487 39.0273 5.24006C38.6793 4.91525 38.2601 4.75284 37.7695 4.75284C37.0337 4.75284 36.4587 5.11577 36.0444 5.84162C35.6301 6.56416 35.4229 7.58665 35.4229 8.90909C35.4229 9.79072 35.5157 10.5398 35.7013 11.1562C35.887 11.7727 36.1538 12.2417 36.5018 12.5632C36.8531 12.8847 37.2757 13.0455 37.7695 13.0455ZM46.5195 14.1392C45.7705 14.1392 45.1325 13.9354 44.6055 13.5277C44.0785 13.1167 43.6758 12.5218 43.3974 11.7429C43.119 10.9607 42.9798 10.0161 42.9798 8.90909C42.9798 7.80871 43.119 6.86908 43.3974 6.0902C43.6791 5.308 44.0835 4.71141 44.6104 4.30043C45.1407 3.88613 45.7771 3.67898 46.5195 3.67898C47.262 3.67898 47.8967 3.88613 48.4237 4.30043C48.954 4.71141 49.3583 5.308 49.6367 6.0902C49.9184 6.86908 50.0593 7.80871 50.0593 8.90909C50.0593 10.0161 49.9201 10.9607 49.6417 11.7429C49.3633 12.5218 48.9606 13.1167 48.4336 13.5277C47.9066 13.9354 47.2686 14.1392 46.5195 14.1392ZM46.5195 13.0455C47.262 13.0455 47.8387 12.6875 48.2496 11.9716C48.6606 11.2557 48.8661 10.2348 48.8661 8.90909C48.8661 8.02746 48.7717 7.27675 48.5827 6.65696C48.3971 6.03717 48.1287 5.56487 47.7773 5.24006C47.4293 4.91525 47.0101 4.75284 46.5195 4.75284C45.7837 4.75284 45.2087 5.11577 44.7944 5.84162C44.3801 6.56416 44.1729 7.58665 44.1729 8.90909C44.1729 9.79072 44.2657 10.5398 44.4513 11.1562C44.637 11.7727 44.9038 12.2417 45.2518 12.5632C45.6031 12.8847 46.0257 13.0455 46.5195 13.0455ZM57.1388 12.0909V11.554C57.1388 11.1828 57.2151 10.843 57.3675 10.5348C57.5233 10.2232 57.7487 9.97467 58.0437 9.78906C58.342 9.60014 58.7032 9.50568 59.1275 9.50568C59.5584 9.50568 59.9196 9.60014 60.2113 9.78906C60.503 9.97467 60.7234 10.2232 60.8725 10.5348C61.0217 10.843 61.0962 11.1828 61.0962 11.554V12.0909C61.0962 12.4621 61.02 12.8035 60.8675 13.1151C60.7184 13.4233 60.4963 13.6719 60.2013 13.8608C59.9097 14.0464 59.5517 14.1392 59.1275 14.1392C58.6966 14.1392 58.3337 14.0464 58.0387 13.8608C57.7437 13.6719 57.52 13.4233 57.3675 13.1151C57.2151 12.8035 57.1388 12.4621 57.1388 12.0909ZM58.1531 11.554V12.0909C58.1531 12.3991 58.226 12.6759 58.3718 12.9212C58.5176 13.1631 58.7695 13.2841 59.1275 13.2841C59.4755 13.2841 59.7208 13.1631 59.8633 12.9212C60.0091 12.6759 60.082 12.3991 60.082 12.0909V11.554C60.082 11.2457 60.0124 10.9706 59.8732 10.7287C59.734 10.4834 59.4854 10.3608 59.1275 10.3608C58.7795 10.3608 58.5292 10.4834 58.3768 10.7287C58.2276 10.9706 58.1531 11.2457 58.1531 11.554ZM52.0678 6.2642V5.72727C52.0678 5.35606 52.1441 5.01634 52.2965 4.7081C52.4523 4.39654 52.6777 4.14796 52.9727 3.96236C53.271 3.77344 53.6322 3.67898 54.0565 3.67898C54.4873 3.67898 54.8486 3.77344 55.1403 3.96236C55.4319 4.14796 55.6523 4.39654 55.8015 4.7081C55.9506 5.01634 56.0252 5.35606 56.0252 5.72727V6.2642C56.0252 6.63542 55.949 6.9768 55.7965 7.28835C55.6474 7.59659 55.4253 7.84517 55.1303 8.03409C54.8387 8.2197 54.4807 8.3125 54.0565 8.3125C53.6256 8.3125 53.2627 8.2197 52.9677 8.03409C52.6727 7.84517 52.449 7.59659 52.2965 7.28835C52.1441 6.9768 52.0678 6.63542 52.0678 6.2642ZM53.082 5.72727V6.2642C53.082 6.57244 53.1549 6.8492 53.3008 7.09446C53.4466 7.33641 53.6985 7.45739 54.0565 7.45739C54.4045 7.45739 54.6497 7.33641 54.7923 7.09446C54.9381 6.8492 55.011 6.57244 55.011 6.2642V5.72727C55.011 5.41903 54.9414 5.14394 54.8022 4.90199C54.663 4.65672 54.4144 4.53409 54.0565 4.53409C53.7085 4.53409 53.4582 4.65672 53.3058 4.90199C53.1566 5.14394 53.082 5.41903 53.082 5.72727ZM52.4457 14L59.4457 3.81818H60.5792L53.5792 14H52.4457Z" fill="#FFB648"/>
  <path d="M73.733 14V3.81818H74.9659V12.9062H79.6989V14H73.733ZM83.696 14.179C83.2121 14.179 82.773 14.0878 82.3786 13.9055C81.9841 13.7199 81.6709 13.4531 81.4389 13.1051C81.2069 12.7538 81.0909 12.3295 81.0909 11.8324C81.0909 11.3949 81.1771 11.0402 81.3494 10.7685C81.5218 10.4934 81.7521 10.2779 82.0405 10.1222C82.3288 9.96638 82.647 9.85038 82.995 9.77415C83.3464 9.6946 83.6993 9.63163 84.054 9.58523C84.518 9.52557 84.8942 9.48082 85.1825 9.45099C85.4742 9.41785 85.6863 9.36316 85.8189 9.28693C85.9548 9.2107 86.0227 9.07812 86.0227 8.8892V8.84943C86.0227 8.3589 85.8885 7.97775 85.62 7.70597C85.3549 7.43419 84.9522 7.2983 84.4119 7.2983C83.8518 7.2983 83.4126 7.42093 83.0945 7.66619C82.7763 7.91146 82.5526 8.1733 82.4233 8.4517L81.3097 8.05398C81.5085 7.58996 81.7737 7.22869 82.1051 6.97017C82.4399 6.70833 82.8045 6.52604 83.1989 6.4233C83.5966 6.31723 83.9877 6.2642 84.3722 6.2642C84.6174 6.2642 84.8991 6.29403 85.2173 6.35369C85.5388 6.41004 85.8487 6.5277 86.147 6.70668C86.4486 6.88565 86.6989 7.15578 86.8977 7.51705C87.0966 7.87831 87.196 8.36222 87.196 8.96875V14H86.0227V12.9659H85.9631C85.8835 13.1316 85.7509 13.3089 85.5653 13.4979C85.3797 13.6868 85.1328 13.8475 84.8246 13.9801C84.5163 14.1127 84.1402 14.179 83.696 14.179ZM83.875 13.125C84.339 13.125 84.7301 13.0339 85.0483 12.8516C85.3698 12.6693 85.6117 12.4339 85.7741 12.1456C85.9399 11.8572 86.0227 11.554 86.0227 11.2358V10.1619C85.973 10.2216 85.8636 10.2763 85.6946 10.326C85.5289 10.3724 85.3366 10.4138 85.1179 10.4503C84.9025 10.4834 84.692 10.5133 84.4865 10.5398C84.2843 10.563 84.1203 10.5829 83.9943 10.5994C83.6894 10.6392 83.4044 10.7038 83.1392 10.7933C82.8774 10.8795 82.6652 11.0104 82.5028 11.1861C82.3438 11.3584 82.2642 11.5937 82.2642 11.892C82.2642 12.2997 82.415 12.608 82.7166 12.8168C83.0215 13.0223 83.4077 13.125 83.875 13.125ZM94.7466 8.07386L93.6926 8.37216C93.6264 8.1965 93.5286 8.0258 93.3993 7.86009C93.2734 7.69105 93.101 7.55185 92.8823 7.44247C92.6635 7.3331 92.3835 7.27841 92.0421 7.27841C91.5748 7.27841 91.1853 7.38613 90.8738 7.60156C90.5655 7.81368 90.4114 8.08381 90.4114 8.41193C90.4114 8.7036 90.5175 8.93395 90.7296 9.10298C90.9417 9.27202 91.2731 9.41288 91.7239 9.52557L92.8574 9.80398C93.5402 9.9697 94.0489 10.2232 94.3837 10.5646C94.7185 10.9027 94.8858 11.3385 94.8858 11.8722C94.8858 12.3097 94.7599 12.7008 94.508 13.0455C94.2594 13.3902 93.9114 13.6619 93.464 13.8608C93.0165 14.0597 92.4962 14.1591 91.9029 14.1591C91.124 14.1591 90.4793 13.9901 89.9689 13.652C89.4585 13.3139 89.1354 12.8201 88.9995 12.1705L90.1131 11.892C90.2192 12.303 90.4197 12.6113 90.7147 12.8168C91.013 13.0223 91.4024 13.125 91.883 13.125C92.4299 13.125 92.8641 13.009 93.1855 12.777C93.5104 12.5417 93.6728 12.2599 93.6728 11.9318C93.6728 11.6667 93.58 11.4446 93.3944 11.2656C93.2087 11.0833 92.9237 10.9474 92.5392 10.858L91.2665 10.5597C90.5672 10.3939 90.0534 10.1371 89.7253 9.78906C89.4005 9.43774 89.2381 8.99858 89.2381 8.47159C89.2381 8.04072 89.3591 7.65956 89.601 7.32812C89.8463 6.99669 90.1794 6.73651 90.6003 6.54758C91.0246 6.35866 91.5051 6.2642 92.0421 6.2642C92.7978 6.2642 93.391 6.42992 93.8219 6.76136C94.2561 7.0928 94.5643 7.5303 94.7466 8.07386ZM99.973 6.36364V7.35795H96.0156V6.36364H99.973ZM97.169 4.53409H98.3423V11.8125C98.3423 12.1439 98.3904 12.3925 98.4865 12.5582C98.5859 12.7206 98.7119 12.83 98.8643 12.8864C99.0201 12.9394 99.1842 12.9659 99.3565 12.9659C99.4858 12.9659 99.5919 12.9593 99.6747 12.946C99.7576 12.9295 99.8239 12.9162 99.8736 12.9062L100.112 13.9602C100.033 13.9901 99.9216 14.0199 99.7791 14.0497C99.6366 14.0829 99.456 14.0994 99.2372 14.0994C98.9058 14.0994 98.581 14.0282 98.2628 13.8857C97.9479 13.7431 97.6861 13.526 97.4773 13.2344C97.2718 12.9427 97.169 12.5748 97.169 12.1307V4.53409ZM105.675 14V6.36364H106.809V7.55682H106.908C107.067 7.14915 107.324 6.83262 107.679 6.60724C108.034 6.37855 108.46 6.2642 108.957 6.2642C109.46 6.2642 109.88 6.37855 110.214 6.60724C110.553 6.83262 110.816 7.14915 111.005 7.55682H111.085C111.28 7.16241 111.573 6.84919 111.964 6.61719C112.356 6.38187 112.825 6.2642 113.371 6.2642C114.054 6.2642 114.613 6.47798 115.047 6.90554C115.481 7.32978 115.698 7.991 115.698 8.8892V14H114.525V8.8892C114.525 8.32576 114.371 7.92306 114.062 7.68111C113.754 7.43916 113.391 7.31818 112.974 7.31818C112.437 7.31818 112.021 7.48059 111.726 7.8054C111.431 8.12689 111.283 8.53456 111.283 9.02841V14H110.09V8.76989C110.09 8.3357 109.949 7.98603 109.668 7.72088C109.386 7.45241 109.023 7.31818 108.579 7.31818C108.274 7.31818 107.989 7.39938 107.724 7.56179C107.462 7.72419 107.25 7.94957 107.087 8.23793C106.928 8.52296 106.849 8.85275 106.849 9.22727V14H105.675ZM120.946 14.1591C120.256 14.1591 119.651 13.995 119.131 13.6669C118.614 13.3388 118.21 12.8797 117.918 12.2898C117.63 11.6998 117.485 11.0104 117.485 10.2216C117.485 9.42614 117.63 8.73177 117.918 8.13849C118.21 7.54522 118.614 7.08452 119.131 6.75639C119.651 6.42827 120.256 6.2642 120.946 6.2642C121.635 6.2642 122.238 6.42827 122.755 6.75639C123.276 7.08452 123.68 7.54522 123.968 8.13849C124.26 8.73177 124.406 9.42614 124.406 10.2216C124.406 11.0104 124.26 11.6998 123.968 12.2898C123.68 12.8797 123.276 13.3388 122.755 13.6669C122.238 13.995 121.635 14.1591 120.946 14.1591ZM120.946 13.1051C121.469 13.1051 121.9 12.9709 122.238 12.7024C122.576 12.4339 122.827 12.081 122.989 11.6435C123.151 11.206 123.233 10.732 123.233 10.2216C123.233 9.71117 123.151 9.23556 122.989 8.79474C122.827 8.35393 122.576 7.99763 122.238 7.72585C121.9 7.45407 121.469 7.31818 120.946 7.31818C120.422 7.31818 119.991 7.45407 119.653 7.72585C119.315 7.99763 119.065 8.35393 118.902 8.79474C118.74 9.23556 118.659 9.71117 118.659 10.2216C118.659 10.732 118.74 11.206 118.902 11.6435C119.065 12.081 119.315 12.4339 119.653 12.7024C119.991 12.9709 120.422 13.1051 120.946 13.1051ZM127.37 9.40625V14H126.197V6.36364H127.33V7.55682H127.43C127.609 7.16903 127.881 6.85748 128.245 6.62216C128.61 6.38352 129.08 6.2642 129.657 6.2642C130.174 6.2642 130.627 6.37027 131.014 6.58239C131.402 6.79119 131.704 7.10938 131.919 7.53693C132.135 7.96117 132.242 8.49811 132.242 9.14773V14H131.069V9.22727C131.069 8.62737 130.913 8.16004 130.602 7.82528C130.29 7.48722 129.863 7.31818 129.319 7.31818C128.945 7.31818 128.61 7.39938 128.315 7.56179C128.023 7.72419 127.793 7.96117 127.624 8.27273C127.455 8.58428 127.37 8.96212 127.37 9.40625ZM137.707 6.36364V7.35795H133.75V6.36364H137.707ZM134.903 4.53409H136.077V11.8125C136.077 12.1439 136.125 12.3925 136.221 12.5582C136.32 12.7206 136.446 12.83 136.599 12.8864C136.754 12.9394 136.919 12.9659 137.091 12.9659C137.22 12.9659 137.326 12.9593 137.409 12.946C137.492 12.9295 137.558 12.9162 137.608 12.9062L137.847 13.9602C137.767 13.9901 137.656 14.0199 137.513 14.0497C137.371 14.0829 137.19 14.0994 136.972 14.0994C136.64 14.0994 136.315 14.0282 135.997 13.8857C135.682 13.7431 135.42 13.526 135.212 13.2344C135.006 12.9427 134.903 12.5748 134.903 12.1307V4.53409ZM140.81 9.40625V14H139.636V3.81818H140.81V7.55682H140.909C141.088 7.16241 141.357 6.84919 141.714 6.61719C142.076 6.38187 142.556 6.2642 143.156 6.2642C143.677 6.2642 144.132 6.36861 144.523 6.57741C144.915 6.78291 145.218 7.09943 145.433 7.52699C145.652 7.95123 145.761 8.49148 145.761 9.14773V14H144.588V9.22727C144.588 8.62074 144.431 8.15175 144.116 7.82031C143.804 7.48556 143.372 7.31818 142.818 7.31818C142.434 7.31818 142.089 7.39938 141.784 7.56179C141.482 7.72419 141.244 7.96117 141.068 8.27273C140.896 8.58428 140.81 8.96212 140.81 9.40625Z" fill="#B9B9B9"/>
  <defs>
  <clipPath id="clip0_1348_5944">
  <rect width="16" height="16" fill="white" transform="translate(0.5)"/>
  </clipPath>
  </defs>
</svg>
