<svg width="146" height="17" viewBox="0 0 146 17" fill="none" xmlns="http://www.w3.org/2000/svg">
  <path d="M15.3327 4L8.99935 10.3333L5.66602 7L0.666016 12" stroke="#4BDE97" stroke-linecap="round" stroke-linejoin="round"/>
  <path d="M11.334 4H15.334V8" stroke="#4BDE97" stroke-linecap="round" stroke-linejoin="round"/>
  <path d="M21.8153 11.9119V10.8977L26.2898 3.81818H27.0256V5.3892H26.5284L23.1477 10.7386V10.8182H29.1733V11.9119H21.8153ZM26.608 14V11.6037V11.1314V3.81818H27.7812V14H26.608ZM31.4329 14.0795C31.1876 14.0795 30.9772 13.9917 30.8015 13.8161C30.6258 13.6404 30.538 13.4299 30.538 13.1847C30.538 12.9394 30.6258 12.7289 30.8015 12.5533C30.9772 12.3776 31.1876 12.2898 31.4329 12.2898C31.6781 12.2898 31.8886 12.3776 32.0643 12.5533C32.2399 12.7289 32.3278 12.9394 32.3278 13.1847C32.3278 13.3471 32.2863 13.4962 32.2035 13.6321C32.1239 13.768 32.0162 13.8774 31.8803 13.9602C31.7478 14.0398 31.5986 14.0795 31.4329 14.0795ZM37.3789 14.1392C36.6299 14.1392 35.9918 13.9354 35.4648 13.5277C34.9379 13.1167 34.5352 12.5218 34.2567 11.7429C33.9783 10.9607 33.8391 10.0161 33.8391 8.90909C33.8391 7.80871 33.9783 6.86908 34.2567 6.0902C34.5385 5.308 34.9428 4.71141 35.4698 4.30043C36.0001 3.88613 36.6365 3.67898 37.3789 3.67898C38.1213 3.67898 38.756 3.88613 39.283 4.30043C39.8133 4.71141 40.2177 5.308 40.4961 6.0902C40.7778 6.86908 40.9187 7.80871 40.9187 8.90909C40.9187 10.0161 40.7795 10.9607 40.5011 11.7429C40.2227 12.5218 39.82 13.1167 39.293 13.5277C38.766 13.9354 38.128 14.1392 37.3789 14.1392ZM37.3789 13.0455C38.1213 13.0455 38.698 12.6875 39.109 11.9716C39.52 11.2557 39.7255 10.2348 39.7255 8.90909C39.7255 8.02746 39.631 7.27675 39.4421 6.65696C39.2565 6.03717 38.988 5.56487 38.6367 5.24006C38.2887 4.91525 37.8694 4.75284 37.3789 4.75284C36.6431 4.75284 36.0681 5.11577 35.6538 5.84162C35.2395 6.56416 35.0323 7.58665 35.0323 8.90909C35.0323 9.79072 35.1251 10.5398 35.3107 11.1562C35.4963 11.7727 35.7631 12.2417 36.1112 12.5632C36.4625 12.8847 36.8851 13.0455 37.3789 13.0455ZM42.8526 14L47.4066 4.99148V4.91193H42.1566V3.81818H48.6793V4.97159L44.1452 14H42.8526ZM55.7228 12.0909V11.554C55.7228 11.1828 55.7991 10.843 55.9515 10.5348C56.1073 10.2232 56.3327 9.97467 56.6277 9.78906C56.926 9.60014 57.2872 9.50568 57.7115 9.50568C58.1423 9.50568 58.5036 9.60014 58.7953 9.78906C59.0869 9.97467 59.3074 10.2232 59.4565 10.5348C59.6056 10.843 59.6802 11.1828 59.6802 11.554V12.0909C59.6802 12.4621 59.604 12.8035 59.4515 13.1151C59.3024 13.4233 59.0803 13.6719 58.7853 13.8608C58.4937 14.0464 58.1357 14.1392 57.7115 14.1392C57.2806 14.1392 56.9177 14.0464 56.6227 13.8608C56.3277 13.6719 56.104 13.4233 55.9515 13.1151C55.7991 12.8035 55.7228 12.4621 55.7228 12.0909ZM56.737 11.554V12.0909C56.737 12.3991 56.81 12.6759 56.9558 12.9212C57.1016 13.1631 57.3535 13.2841 57.7115 13.2841C58.0595 13.2841 58.3047 13.1631 58.4473 12.9212C58.5931 12.6759 58.666 12.3991 58.666 12.0909V11.554C58.666 11.2457 58.5964 10.9706 58.4572 10.7287C58.318 10.4834 58.0694 10.3608 57.7115 10.3608C57.3635 10.3608 57.1132 10.4834 56.9608 10.7287C56.8116 10.9706 56.737 11.2457 56.737 11.554ZM50.6518 6.2642V5.72727C50.6518 5.35606 50.728 5.01634 50.8805 4.7081C51.0363 4.39654 51.2617 4.14796 51.5566 3.96236C51.8549 3.77344 52.2162 3.67898 52.6404 3.67898C53.0713 3.67898 53.4326 3.77344 53.7243 3.96236C54.0159 4.14796 54.2363 4.39654 54.3855 4.7081C54.5346 5.01634 54.6092 5.35606 54.6092 5.72727V6.2642C54.6092 6.63542 54.533 6.9768 54.3805 7.28835C54.2314 7.59659 54.0093 7.84517 53.7143 8.03409C53.4226 8.2197 53.0647 8.3125 52.6404 8.3125C52.2096 8.3125 51.8467 8.2197 51.5517 8.03409C51.2567 7.84517 51.033 7.59659 50.8805 7.28835C50.728 6.9768 50.6518 6.63542 50.6518 6.2642ZM51.666 5.72727V6.2642C51.666 6.57244 51.7389 6.8492 51.8848 7.09446C52.0306 7.33641 52.2825 7.45739 52.6404 7.45739C52.9885 7.45739 53.2337 7.33641 53.3762 7.09446C53.5221 6.8492 53.595 6.57244 53.595 6.2642V5.72727C53.595 5.41903 53.5254 5.14394 53.3862 4.90199C53.247 4.65672 52.9984 4.53409 52.6404 4.53409C52.2924 4.53409 52.0422 4.65672 51.8897 4.90199C51.7406 5.14394 51.666 5.41903 51.666 5.72727ZM51.0297 14L58.0297 3.81818H59.1632L52.1632 14H51.0297Z" fill="#4BDE97"/>
  <path d="M72.233 14V3.81818H73.4659V12.9062H78.1989V14H72.233ZM82.196 14.179C81.7121 14.179 81.273 14.0878 80.8786 13.9055C80.4841 13.7199 80.1709 13.4531 79.9389 13.1051C79.7069 12.7538 79.5909 12.3295 79.5909 11.8324C79.5909 11.3949 79.6771 11.0402 79.8494 10.7685C80.0218 10.4934 80.2521 10.2779 80.5405 10.1222C80.8288 9.96638 81.147 9.85038 81.495 9.77415C81.8464 9.6946 82.1993 9.63163 82.554 9.58523C83.018 9.52557 83.3942 9.48082 83.6825 9.45099C83.9742 9.41785 84.1863 9.36316 84.3189 9.28693C84.4548 9.2107 84.5227 9.07812 84.5227 8.8892V8.84943C84.5227 8.3589 84.3885 7.97775 84.12 7.70597C83.8549 7.43419 83.4522 7.2983 82.9119 7.2983C82.3518 7.2983 81.9126 7.42093 81.5945 7.66619C81.2763 7.91146 81.0526 8.1733 80.9233 8.4517L79.8097 8.05398C80.0085 7.58996 80.2737 7.22869 80.6051 6.97017C80.9399 6.70833 81.3045 6.52604 81.6989 6.4233C82.0966 6.31723 82.4877 6.2642 82.8722 6.2642C83.1174 6.2642 83.3991 6.29403 83.7173 6.35369C84.0388 6.41004 84.3487 6.5277 84.647 6.70668C84.9486 6.88565 85.1989 7.15578 85.3977 7.51705C85.5966 7.87831 85.696 8.36222 85.696 8.96875V14H84.5227V12.9659H84.4631C84.3835 13.1316 84.2509 13.3089 84.0653 13.4979C83.8797 13.6868 83.6328 13.8475 83.3246 13.9801C83.0163 14.1127 82.6402 14.179 82.196 14.179ZM82.375 13.125C82.839 13.125 83.2301 13.0339 83.5483 12.8516C83.8698 12.6693 84.1117 12.4339 84.2741 12.1456C84.4399 11.8572 84.5227 11.554 84.5227 11.2358V10.1619C84.473 10.2216 84.3636 10.2763 84.1946 10.326C84.0289 10.3724 83.8366 10.4138 83.6179 10.4503C83.4025 10.4834 83.192 10.5133 82.9865 10.5398C82.7843 10.563 82.6203 10.5829 82.4943 10.5994C82.1894 10.6392 81.9044 10.7038 81.6392 10.7933C81.3774 10.8795 81.1652 11.0104 81.0028 11.1861C80.8438 11.3584 80.7642 11.5937 80.7642 11.892C80.7642 12.2997 80.915 12.608 81.2166 12.8168C81.5215 13.0223 81.9077 13.125 82.375 13.125ZM93.2466 8.07386L92.1926 8.37216C92.1264 8.1965 92.0286 8.0258 91.8993 7.86009C91.7734 7.69105 91.601 7.55185 91.3823 7.44247C91.1635 7.3331 90.8835 7.27841 90.5421 7.27841C90.0748 7.27841 89.6853 7.38613 89.3738 7.60156C89.0655 7.81368 88.9114 8.08381 88.9114 8.41193C88.9114 8.7036 89.0175 8.93395 89.2296 9.10298C89.4417 9.27202 89.7731 9.41288 90.2239 9.52557L91.3574 9.80398C92.0402 9.9697 92.5489 10.2232 92.8837 10.5646C93.2185 10.9027 93.3858 11.3385 93.3858 11.8722C93.3858 12.3097 93.2599 12.7008 93.008 13.0455C92.7594 13.3902 92.4114 13.6619 91.964 13.8608C91.5165 14.0597 90.9962 14.1591 90.4029 14.1591C89.624 14.1591 88.9793 13.9901 88.4689 13.652C87.9585 13.3139 87.6354 12.8201 87.4995 12.1705L88.6131 11.892C88.7192 12.303 88.9197 12.6113 89.2147 12.8168C89.513 13.0223 89.9024 13.125 90.383 13.125C90.9299 13.125 91.3641 13.009 91.6855 12.777C92.0104 12.5417 92.1728 12.2599 92.1728 11.9318C92.1728 11.6667 92.08 11.4446 91.8944 11.2656C91.7087 11.0833 91.4237 10.9474 91.0392 10.858L89.7665 10.5597C89.0672 10.3939 88.5534 10.1371 88.2253 9.78906C87.9005 9.43774 87.7381 8.99858 87.7381 8.47159C87.7381 8.04072 87.8591 7.65956 88.101 7.32812C88.3463 6.99669 88.6794 6.73651 89.1003 6.54758C89.5246 6.35866 90.0051 6.2642 90.5421 6.2642C91.2978 6.2642 91.891 6.42992 92.3219 6.76136C92.7561 7.0928 93.0643 7.5303 93.2466 8.07386ZM98.473 6.36364V7.35795H94.5156V6.36364H98.473ZM95.669 4.53409H96.8423V11.8125C96.8423 12.1439 96.8904 12.3925 96.9865 12.5582C97.0859 12.7206 97.2119 12.83 97.3643 12.8864C97.5201 12.9394 97.6842 12.9659 97.8565 12.9659C97.9858 12.9659 98.0919 12.9593 98.1747 12.946C98.2576 12.9295 98.3239 12.9162 98.3736 12.9062L98.6122 13.9602C98.5327 13.9901 98.4216 14.0199 98.2791 14.0497C98.1366 14.0829 97.956 14.0994 97.7372 14.0994C97.4058 14.0994 97.081 14.0282 96.7628 13.8857C96.4479 13.7431 96.1861 13.526 95.9773 13.2344C95.7718 12.9427 95.669 12.5748 95.669 12.1307V4.53409ZM104.175 14V6.36364H105.309V7.55682H105.408C105.567 7.14915 105.824 6.83262 106.179 6.60724C106.534 6.37855 106.96 6.2642 107.457 6.2642C107.96 6.2642 108.38 6.37855 108.714 6.60724C109.053 6.83262 109.316 7.14915 109.505 7.55682H109.585C109.78 7.16241 110.073 6.84919 110.464 6.61719C110.856 6.38187 111.325 6.2642 111.871 6.2642C112.554 6.2642 113.113 6.47798 113.547 6.90554C113.981 7.32978 114.198 7.991 114.198 8.8892V14H113.025V8.8892C113.025 8.32576 112.871 7.92306 112.562 7.68111C112.254 7.43916 111.891 7.31818 111.474 7.31818C110.937 7.31818 110.521 7.48059 110.226 7.8054C109.931 8.12689 109.783 8.53456 109.783 9.02841V14H108.59V8.76989C108.59 8.3357 108.449 7.98603 108.168 7.72088C107.886 7.45241 107.523 7.31818 107.079 7.31818C106.774 7.31818 106.489 7.39938 106.224 7.56179C105.962 7.72419 105.75 7.94957 105.587 8.23793C105.428 8.52296 105.349 8.85275 105.349 9.22727V14H104.175ZM119.446 14.1591C118.756 14.1591 118.151 13.995 117.631 13.6669C117.114 13.3388 116.71 12.8797 116.418 12.2898C116.13 11.6998 115.985 11.0104 115.985 10.2216C115.985 9.42614 116.13 8.73177 116.418 8.13849C116.71 7.54522 117.114 7.08452 117.631 6.75639C118.151 6.42827 118.756 6.2642 119.446 6.2642C120.135 6.2642 120.738 6.42827 121.255 6.75639C121.776 7.08452 122.18 7.54522 122.468 8.13849C122.76 8.73177 122.906 9.42614 122.906 10.2216C122.906 11.0104 122.76 11.6998 122.468 12.2898C122.18 12.8797 121.776 13.3388 121.255 13.6669C120.738 13.995 120.135 14.1591 119.446 14.1591ZM119.446 13.1051C119.969 13.1051 120.4 12.9709 120.738 12.7024C121.076 12.4339 121.327 12.081 121.489 11.6435C121.651 11.206 121.733 10.732 121.733 10.2216C121.733 9.71117 121.651 9.23556 121.489 8.79474C121.327 8.35393 121.076 7.99763 120.738 7.72585C120.4 7.45407 119.969 7.31818 119.446 7.31818C118.922 7.31818 118.491 7.45407 118.153 7.72585C117.815 7.99763 117.565 8.35393 117.402 8.79474C117.24 9.23556 117.159 9.71117 117.159 10.2216C117.159 10.732 117.24 11.206 117.402 11.6435C117.565 12.081 117.815 12.4339 118.153 12.7024C118.491 12.9709 118.922 13.1051 119.446 13.1051ZM125.87 9.40625V14H124.697V6.36364H125.83V7.55682H125.93C126.109 7.16903 126.381 6.85748 126.745 6.62216C127.11 6.38352 127.58 6.2642 128.157 6.2642C128.674 6.2642 129.127 6.37027 129.514 6.58239C129.902 6.79119 130.204 7.10938 130.419 7.53693C130.635 7.96117 130.742 8.49811 130.742 9.14773V14H129.569V9.22727C129.569 8.62737 129.413 8.16004 129.102 7.82528C128.79 7.48722 128.363 7.31818 127.819 7.31818C127.445 7.31818 127.11 7.39938 126.815 7.56179C126.523 7.72419 126.293 7.96117 126.124 8.27273C125.955 8.58428 125.87 8.96212 125.87 9.40625ZM136.207 6.36364V7.35795H132.25V6.36364H136.207ZM133.403 4.53409H134.577V11.8125C134.577 12.1439 134.625 12.3925 134.721 12.5582C134.82 12.7206 134.946 12.83 135.099 12.8864C135.254 12.9394 135.419 12.9659 135.591 12.9659C135.72 12.9659 135.826 12.9593 135.909 12.946C135.992 12.9295 136.058 12.9162 136.108 12.9062L136.347 13.9602C136.267 13.9901 136.156 14.0199 136.013 14.0497C135.871 14.0829 135.69 14.0994 135.472 14.0994C135.14 14.0994 134.815 14.0282 134.497 13.8857C134.182 13.7431 133.92 13.526 133.712 13.2344C133.506 12.9427 133.403 12.5748 133.403 12.1307V4.53409ZM139.31 9.40625V14H138.136V3.81818H139.31V7.55682H139.409C139.588 7.16241 139.857 6.84919 140.214 6.61719C140.576 6.38187 141.056 6.2642 141.656 6.2642C142.177 6.2642 142.632 6.36861 143.023 6.57741C143.415 6.78291 143.718 7.09943 143.933 7.52699C144.152 7.95123 144.261 8.49148 144.261 9.14773V14H143.088V9.22727C143.088 8.62074 142.931 8.15175 142.616 7.82031C142.304 7.48556 141.872 7.31818 141.318 7.31818C140.934 7.31818 140.589 7.39938 140.284 7.56179C139.982 7.72419 139.744 7.96117 139.568 8.27273C139.396 8.58428 139.31 8.96212 139.31 9.40625Z" fill="#B9B9B9"/>
</svg>
