<svg width="50" height="50" viewBox="0 0 34 34" fill="none" xmlns="http://www.w3.org/2000/svg">
<path d="M17.0007 0.332031C7.78398 0.332031 0.333984 7.78203 0.333984 16.9987C0.333984 26.2154 7.78398 33.6654 17.0007 33.6654C26.2173 33.6654 33.6673 26.2154 33.6673 16.9987C33.6673 7.78203 26.2173 0.332031 17.0007 0.332031ZM24.1673 24.1654C23.5173 24.8154 22.4673 24.8154 21.8173 24.1654L17.0007 19.3487L12.184 24.1654C11.534 24.8154 10.484 24.8154 9.83398 24.1654C9.18398 23.5154 9.18398 22.4654 9.83398 21.8154L14.6507 16.9987L9.83398 12.182C9.18398 11.532 9.18398 10.482 9.83398 9.83203C10.484 9.18203 11.534 9.18203 12.184 9.83203L17.0007 14.6487L21.8173 9.83203C22.4673 9.18203 23.5173 9.18203 24.1673 9.83203C24.8173 10.482 24.8173 11.532 24.1673 12.182L19.3507 16.9987L24.1673 21.8154C24.8007 22.4487 24.8007 23.5154 24.1673 24.1654Z" fill="#5A5454"/>
</svg>
