<svg width="82" height="72" viewBox="0 0 82 72" fill="none" xmlns="http://www.w3.org/2000/svg">
<path d="M76.4956 12.0172C76.4956 11.5132 76.3963 11.0142 76.2035 10.5486C76.0106 10.0831 75.7279 9.66001 75.3716 9.30367C75.0152 8.94732 74.5922 8.66465 74.1266 8.4718C73.661 8.27895 73.162 8.17969 72.6581 8.17969H9.34141C8.83746 8.17969 8.33845 8.27895 7.87286 8.4718C7.40727 8.66465 6.98423 8.94732 6.62788 9.30367C6.27154 9.66001 5.98887 10.0831 5.79602 10.5486C5.60317 11.0142 5.50391 11.5132 5.50391 12.0172V59.9839C5.50391 61.0016 5.90821 61.9777 6.62788 62.6974C7.34755 63.417 8.32364 63.8214 9.34141 63.8214H72.6581C73.6758 63.8214 74.6519 63.417 75.3716 62.6974C76.0913 61.9777 76.4956 61.0016 76.4956 59.9839V12.0172Z" stroke="#616161" stroke-width="0.666667" stroke-linecap="round" stroke-linejoin="round"/>
<path d="M17.9754 52.3066H41.0004M70.2921 8.17746L69.0796 3.64413C68.816 2.66122 68.1727 1.82328 67.2913 1.3146C66.4099 0.805919 65.3625 0.668164 64.3796 0.93163L37.3379 8.17746H70.2921ZM76.4963 55.29L78.7796 54.6775C79.2665 54.5471 79.7229 54.3222 80.1228 54.0155C80.5228 53.7087 80.8583 53.3262 81.1104 52.8898C81.3625 52.4533 81.5261 51.9715 81.592 51.4718C81.6578 50.9721 81.6246 50.4643 81.4942 49.9775L76.4942 31.3254L76.4963 55.29ZM11.7088 63.8191L12.9213 68.3504C13.0516 68.8372 13.2765 69.2937 13.5833 69.6936C13.89 70.0935 14.2725 70.4291 14.709 70.6812C15.1454 70.9333 15.6272 71.0969 16.1269 71.1628C16.6266 71.2286 17.1344 71.1954 17.6213 71.065L44.6629 63.8191H11.7088ZM5.50459 16.7066L3.22126 17.3191C2.73438 17.4494 2.27795 17.6744 1.87802 17.9811C1.47809 18.2879 1.1425 18.6704 0.890422 19.1068C0.638342 19.5433 0.474708 20.0251 0.408864 20.5248C0.34302 21.0245 0.376257 21.5323 0.506676 22.0191L5.53584 40.7858L5.50459 16.7066ZM17.9754 19.69H64.0233H17.9754ZM17.9754 30.5629H64.0233H17.9754ZM17.9754 41.4337H64.0233H17.9754Z" stroke="#616161" stroke-width="0.666667" stroke-linecap="round" stroke-linejoin="round"/>
</svg>
