<svg width="88" height="102" viewBox="0 0 88 102" fill="none" xmlns="http://www.w3.org/2000/svg">
<path d="M6.55664 86.0393V19.3861C6.55664 15.3241 9.84951 12.0312 13.9115 12.0312H64.0163" stroke="#818181" stroke-width="1.83871"/>
<path d="M81.4834 12.031L81.4834 78.6842C81.4834 82.7462 78.1905 86.0391 74.1286 86.0391H24.0237" stroke="#818181" stroke-width="1.83871"/>
<path d="M7.0166 71.3317L16.885 55.4824C19.5116 51.264 25.4788 50.8104 28.7127 54.5833L30.4602 56.622" stroke="#818181" stroke-width="1.83871"/>
<path d="M1.5 100.75L87 1" stroke="#818181" stroke-width="1.83871"/>
<path d="M34.5967 61.2174L34.8882 61.6789C37.4329 65.708 43.2025 65.9964 46.1363 62.2411L49.4789 57.9626C50.5558 56.5842 52.6436 56.5921 53.7101 57.9785V57.9785C54.886 59.5072 57.2438 59.3282 58.1755 57.6395L59.9566 54.4113C61.6878 51.2735 66.0326 50.8582 68.3268 53.6113L81.9435 69.9512" stroke="#818181" stroke-width="1.83871"/>
</svg>
