<svg width="550" height="316" viewBox="0 0 550 316" fill="none" xmlns="http://www.w3.org/2000/svg">
      <g filter="url(#filter0_d_1378_8305)">
        <rect x="50" y="35" width="450" height="242" rx="13" fill="white" />
      </g>
      <path
        d="M75.2642 80V65.4545H81.0028C82.1061 65.4545 83.0459 65.6652 83.8224 66.0866C84.599 66.5033 85.1908 67.0833 85.598 67.8267C86.0099 68.5653 86.2159 69.4176 86.2159 70.3835C86.2159 71.3494 86.0076 72.2017 85.5909 72.9403C85.1742 73.679 84.5705 74.2543 83.7798 74.6662C82.9938 75.0781 82.0421 75.2841 80.9247 75.2841H77.267V72.8196H80.4276C81.0194 72.8196 81.5071 72.7178 81.8906 72.5142C82.2789 72.3059 82.5677 72.0194 82.7571 71.6548C82.9512 71.2855 83.0483 70.8617 83.0483 70.3835C83.0483 69.9006 82.9512 69.4792 82.7571 69.1193C82.5677 68.7547 82.2789 68.473 81.8906 68.2741C81.5024 68.0705 81.0099 67.9688 80.4134 67.9688H78.3395V80H75.2642ZM92.9098 80.2131C91.8066 80.2131 90.8525 79.9787 90.0476 79.5099C89.2474 79.0365 88.6295 78.3783 88.1939 77.5355C87.7583 76.688 87.5405 75.7055 87.5405 74.5881C87.5405 73.4612 87.7583 72.4763 88.1939 71.6335C88.6295 70.786 89.2474 70.1278 90.0476 69.6591C90.8525 69.1856 91.8066 68.9489 92.9098 68.9489C94.013 68.9489 94.9647 69.1856 95.7649 69.6591C96.5698 70.1278 97.1901 70.786 97.6257 71.6335C98.0613 72.4763 98.2791 73.4612 98.2791 74.5881C98.2791 75.7055 98.0613 76.688 97.6257 77.5355C97.1901 78.3783 96.5698 79.0365 95.7649 79.5099C94.9647 79.9787 94.013 80.2131 92.9098 80.2131ZM92.924 77.8693C93.4259 77.8693 93.8449 77.7273 94.1811 77.4432C94.5173 77.1544 94.7706 76.7614 94.9411 76.2642C95.1162 75.767 95.2038 75.2012 95.2038 74.5668C95.2038 73.9323 95.1162 73.3665 94.9411 72.8693C94.7706 72.3722 94.5173 71.9792 94.1811 71.6903C93.8449 71.4015 93.4259 71.2571 92.924 71.2571C92.4174 71.2571 91.9912 71.4015 91.6456 71.6903C91.3047 71.9792 91.0466 72.3722 90.8714 72.8693C90.701 73.3665 90.6158 73.9323 90.6158 74.5668C90.6158 75.2012 90.701 75.767 90.8714 76.2642C91.0466 76.7614 91.3047 77.1544 91.6456 77.4432C91.9912 77.7273 92.4174 77.8693 92.924 77.8693ZM102.125 80L99.1562 69.0909H102.217L103.908 76.4205H104.007L105.768 69.0909H108.773L110.562 76.3778H110.655L112.317 69.0909H115.371L112.409 80H109.206L107.331 73.1392H107.196L105.321 80H102.125ZM121.683 80.2131C120.561 80.2131 119.595 79.9858 118.785 79.5312C117.98 79.072 117.36 78.4233 116.924 77.5852C116.489 76.7424 116.271 75.7457 116.271 74.5952C116.271 73.473 116.489 72.4882 116.924 71.6406C117.36 70.7931 117.973 70.1326 118.764 69.6591C119.559 69.1856 120.492 68.9489 121.562 68.9489C122.282 68.9489 122.952 69.0649 123.572 69.2969C124.197 69.5241 124.742 69.8674 125.206 70.3267C125.674 70.786 126.039 71.3636 126.299 72.0597C126.56 72.7509 126.69 73.5606 126.69 74.4886V75.3196H117.478V73.4446H123.842C123.842 73.009 123.747 72.6231 123.558 72.2869C123.368 71.9508 123.106 71.688 122.77 71.4986C122.438 71.3045 122.052 71.2074 121.612 71.2074C121.153 71.2074 120.745 71.3139 120.39 71.527C120.04 71.7353 119.765 72.017 119.566 72.3722C119.368 72.7225 119.266 73.1132 119.261 73.544V75.3267C119.261 75.8665 119.36 76.3329 119.559 76.7259C119.763 77.1188 120.049 77.4219 120.419 77.6349C120.788 77.848 121.226 77.9545 121.733 77.9545C122.069 77.9545 122.377 77.9072 122.656 77.8125C122.935 77.7178 123.174 77.5758 123.373 77.3864C123.572 77.197 123.724 76.965 123.828 76.6903L126.626 76.875C126.484 77.5473 126.193 78.1345 125.752 78.6364C125.317 79.1335 124.753 79.5218 124.062 79.8011C123.376 80.0758 122.583 80.2131 121.683 80.2131ZM128.664 80V69.0909H131.598V70.9943H131.711C131.91 70.3172 132.244 69.8059 132.713 69.4602C133.181 69.1098 133.721 68.9347 134.332 68.9347C134.484 68.9347 134.647 68.9441 134.822 68.9631C134.997 68.982 135.151 69.008 135.284 69.0412V71.7259C135.142 71.6832 134.945 71.6454 134.694 71.6122C134.443 71.5791 134.214 71.5625 134.005 71.5625C133.56 71.5625 133.163 71.6596 132.812 71.8537C132.467 72.0431 132.192 72.3082 131.988 72.6491C131.789 72.9901 131.69 73.383 131.69 73.8281V80H128.664ZM141.534 80V65.4545H147.358C148.428 65.4545 149.32 65.6132 150.035 65.9304C150.75 66.2476 151.288 66.688 151.647 67.2514C152.007 67.8101 152.187 68.4541 152.187 69.1832C152.187 69.7514 152.074 70.2509 151.846 70.6818C151.619 71.108 151.306 71.4583 150.909 71.733C150.516 72.0028 150.066 72.1946 149.559 72.3082V72.4503C150.113 72.474 150.632 72.6302 151.115 72.919C151.602 73.2079 151.998 73.6127 152.301 74.1335C152.604 74.6496 152.755 75.2652 152.755 75.9801C152.755 76.7519 152.564 77.4408 152.18 78.0469C151.801 78.6482 151.24 79.1241 150.497 79.4744C149.753 79.8248 148.837 80 147.748 80H141.534ZM144.609 77.4858H147.116C147.973 77.4858 148.598 77.3224 148.991 76.9957C149.384 76.6643 149.581 76.224 149.581 75.6747C149.581 75.2723 149.484 74.9171 149.289 74.6094C149.095 74.3016 148.818 74.0601 148.458 73.8849C148.103 73.7098 147.68 73.6222 147.187 73.6222H144.609V77.4858ZM144.609 71.5412H146.889C147.31 71.5412 147.684 71.4678 148.011 71.321C148.342 71.1695 148.603 70.9564 148.792 70.6818C148.986 70.4072 149.083 70.0781 149.083 69.6946C149.083 69.169 148.896 68.7453 148.522 68.4233C148.153 68.1013 147.627 67.9403 146.946 67.9403H144.609V71.5412ZM154.7 80V69.0909H157.725V80H154.7ZM156.219 67.6847C155.77 67.6847 155.384 67.5355 155.062 67.2372C154.745 66.9342 154.586 66.572 154.586 66.1506C154.586 65.7339 154.745 65.3764 155.062 65.0781C155.384 64.7751 155.77 64.6236 156.219 64.6236C156.669 64.6236 157.053 64.7751 157.37 65.0781C157.692 65.3764 157.853 65.7339 157.853 66.1506C157.853 66.572 157.692 66.9342 157.37 67.2372C157.053 67.5355 156.669 67.6847 156.219 67.6847Z"
        fill="#4F4F4F" />
      <path
        d="M379.392 77V68.2727H380.973V75.6747H384.817V77H379.392ZM388.976 77.1278C388.337 77.1278 387.783 76.9872 387.314 76.706C386.845 76.4247 386.482 76.0312 386.223 75.5256C385.967 75.0199 385.839 74.429 385.839 73.7528C385.839 73.0767 385.967 72.4844 386.223 71.9759C386.482 71.4673 386.845 71.0724 387.314 70.7912C387.783 70.5099 388.337 70.3693 388.976 70.3693C389.615 70.3693 390.169 70.5099 390.638 70.7912C391.107 71.0724 391.469 71.4673 391.724 71.9759C391.983 72.4844 392.112 73.0767 392.112 73.7528C392.112 74.429 391.983 75.0199 391.724 75.5256C391.469 76.0312 391.107 76.4247 390.638 76.706C390.169 76.9872 389.615 77.1278 388.976 77.1278ZM388.984 75.892C389.331 75.892 389.621 75.7969 389.854 75.6065C390.087 75.4134 390.26 75.1548 390.374 74.831C390.49 74.5071 390.548 74.1463 390.548 73.7486C390.548 73.348 390.49 72.9858 390.374 72.6619C390.26 72.3352 390.087 72.0753 389.854 71.8821C389.621 71.6889 389.331 71.5923 388.984 71.5923C388.629 71.5923 388.334 71.6889 388.098 71.8821C387.865 72.0753 387.69 72.3352 387.574 72.6619C387.46 72.9858 387.403 73.348 387.403 73.7486C387.403 74.1463 387.46 74.5071 387.574 74.831C387.69 75.1548 387.865 75.4134 388.098 75.6065C388.334 75.7969 388.629 75.892 388.984 75.892ZM393.422 77V70.4545H394.917V71.5455H394.985C395.105 71.1676 395.309 70.8764 395.599 70.6719C395.892 70.4645 396.225 70.3608 396.6 70.3608C396.686 70.3608 396.781 70.3651 396.886 70.3736C396.994 70.3793 397.083 70.3892 397.154 70.4034V71.8224C397.089 71.7997 396.985 71.7798 396.843 71.7628C396.704 71.7429 396.569 71.733 396.439 71.733C396.157 71.733 395.904 71.794 395.68 71.9162C395.458 72.0355 395.284 72.2017 395.156 72.4148C395.028 72.6278 394.964 72.8736 394.964 73.152V77H393.422ZM400.808 77.1278C400.151 77.1278 399.585 76.9915 399.107 76.7188C398.633 76.4432 398.268 76.054 398.012 75.5511C397.756 75.0455 397.629 74.4503 397.629 73.7656C397.629 73.0923 397.756 72.5014 398.012 71.9929C398.271 71.4815 398.631 71.0838 399.094 70.7997C399.558 70.5128 400.102 70.3693 400.727 70.3693C401.13 70.3693 401.511 70.4347 401.869 70.5653C402.229 70.6932 402.548 70.892 402.823 71.1619C403.102 71.4318 403.32 71.7756 403.479 72.1932C403.638 72.608 403.718 73.1023 403.718 73.6761V74.1491H398.353V73.1094H402.239C402.237 72.8139 402.173 72.5511 402.048 72.321C401.923 72.0881 401.748 71.9048 401.523 71.7713C401.302 71.6378 401.043 71.571 400.748 71.571C400.433 71.571 400.156 71.6477 399.917 71.8011C399.678 71.9517 399.492 72.1506 399.359 72.3977C399.228 72.642 399.161 72.9105 399.158 73.2031V74.1108C399.158 74.4915 399.228 74.8182 399.367 75.0909C399.506 75.3608 399.701 75.5682 399.951 75.7131C400.201 75.8551 400.494 75.9261 400.829 75.9261C401.053 75.9261 401.256 75.8949 401.438 75.8324C401.62 75.767 401.778 75.6719 401.911 75.5469C402.045 75.4219 402.146 75.267 402.214 75.0824L403.654 75.2443C403.563 75.625 403.39 75.9574 403.134 76.2415C402.881 76.5227 402.558 76.7415 402.163 76.8977C401.768 77.0511 401.316 77.1278 400.808 77.1278ZM405.023 77V70.4545H406.498V71.5668H406.574C406.711 71.1918 406.936 70.8991 407.252 70.6889C407.567 70.4759 407.944 70.3693 408.381 70.3693C408.824 70.3693 409.198 70.4773 409.502 70.6932C409.809 70.9062 410.025 71.1974 410.15 71.5668H410.218C410.363 71.2031 410.607 70.9134 410.951 70.6974C411.297 70.4787 411.708 70.3693 412.182 70.3693C412.784 70.3693 413.276 70.5597 413.657 70.9403C414.037 71.321 414.228 71.8764 414.228 72.6065V77H412.681V72.8452C412.681 72.4389 412.573 72.142 412.357 71.9545C412.141 71.7642 411.877 71.669 411.564 71.669C411.192 71.669 410.901 71.7855 410.691 72.0185C410.483 72.2486 410.38 72.5483 410.38 72.9176V77H408.867V72.7812C408.867 72.4432 408.765 72.1733 408.56 71.9716C408.358 71.7699 408.094 71.669 407.767 71.669C407.546 71.669 407.344 71.7259 407.162 71.8395C406.98 71.9503 406.836 72.108 406.728 72.3125C406.62 72.5142 406.566 72.75 406.566 73.0199V77H405.023Z"
        fill="#4F4F4F" />
      <path
        d="M426.935 77V68.2727H428.252V75.8665H432.207V77H426.935ZM436.364 77.1321C435.75 77.1321 435.214 76.9915 434.757 76.7102C434.3 76.429 433.945 76.0355 433.692 75.5298C433.439 75.0241 433.312 74.4332 433.312 73.7571C433.312 73.0781 433.439 72.4844 433.692 71.9759C433.945 71.4673 434.3 71.0724 434.757 70.7912C435.214 70.5099 435.75 70.3693 436.364 70.3693C436.977 70.3693 437.513 70.5099 437.97 70.7912C438.428 71.0724 438.783 71.4673 439.036 71.9759C439.288 72.4844 439.415 73.0781 439.415 73.7571C439.415 74.4332 439.288 75.0241 439.036 75.5298C438.783 76.0355 438.428 76.429 437.97 76.7102C437.513 76.9915 436.977 77.1321 436.364 77.1321ZM436.368 76.0625C436.766 76.0625 437.095 75.9574 437.357 75.7472C437.618 75.5369 437.811 75.2571 437.936 74.9077C438.064 74.5582 438.128 74.1733 438.128 73.7528C438.128 73.3352 438.064 72.9517 437.936 72.6023C437.811 72.25 437.618 71.9673 437.357 71.7543C437.095 71.5412 436.766 71.4347 436.368 71.4347C435.967 71.4347 435.635 71.5412 435.371 71.7543C435.109 71.9673 434.915 72.25 434.787 72.6023C434.662 72.9517 434.599 73.3352 434.599 73.7528C434.599 74.1733 434.662 74.5582 434.787 74.9077C434.915 75.2571 435.109 75.5369 435.371 75.7472C435.635 75.9574 435.967 76.0625 436.368 76.0625ZM440.837 77V70.4545H442.069V71.4943H442.137C442.256 71.142 442.466 70.8651 442.767 70.6634C443.071 70.4588 443.415 70.3565 443.799 70.3565C443.878 70.3565 443.972 70.3594 444.08 70.3651C444.191 70.3707 444.277 70.3778 444.34 70.3864V71.6051C444.289 71.5909 444.198 71.5753 444.067 71.5582C443.936 71.5384 443.806 71.5284 443.675 71.5284C443.374 71.5284 443.105 71.5923 442.87 71.7202C442.637 71.8452 442.452 72.0199 442.316 72.2443C442.179 72.4659 442.111 72.7187 442.111 73.0028V77H440.837ZM448.029 77.1321C447.384 77.1321 446.829 76.9943 446.363 76.7188C445.9 76.4403 445.542 76.0497 445.289 75.5469C445.039 75.0412 444.914 74.4489 444.914 73.7699C444.914 73.0994 445.039 72.5085 445.289 71.9972C445.542 71.4858 445.894 71.0866 446.346 70.7997C446.8 70.5128 447.332 70.3693 447.94 70.3693C448.309 70.3693 448.667 70.4304 449.013 70.5526C449.36 70.6747 449.671 70.8665 449.947 71.1278C450.222 71.3892 450.44 71.7287 450.599 72.1463C450.758 72.5611 450.837 73.0653 450.837 73.6591V74.1108H445.634V73.1562H449.589C449.589 72.821 449.521 72.5241 449.384 72.2656C449.248 72.0043 449.056 71.7983 448.809 71.6477C448.565 71.4972 448.278 71.4219 447.948 71.4219C447.59 71.4219 447.278 71.5099 447.011 71.6861C446.746 71.8594 446.542 72.0866 446.397 72.3679C446.255 72.6463 446.184 72.9489 446.184 73.2756V74.0213C446.184 74.4588 446.261 74.831 446.414 75.1378C446.57 75.4446 446.788 75.679 447.066 75.8409C447.344 76 447.67 76.0795 448.042 76.0795C448.283 76.0795 448.504 76.0455 448.702 75.9773C448.901 75.9062 449.073 75.8011 449.218 75.6619C449.363 75.5227 449.474 75.3509 449.55 75.1463L450.756 75.3636C450.66 75.7187 450.487 76.0298 450.237 76.2969C449.989 76.5611 449.678 76.767 449.303 76.9148C448.931 77.0597 448.506 77.1321 448.029 77.1321ZM452.251 77V70.4545H453.474V71.5199H453.555C453.691 71.1591 453.914 70.8778 454.224 70.6761C454.534 70.4716 454.904 70.3693 455.336 70.3693C455.774 70.3693 456.14 70.4716 456.436 70.6761C456.734 70.8807 456.954 71.1619 457.096 71.5199H457.164C457.321 71.1705 457.569 70.892 457.91 70.6847C458.251 70.4744 458.657 70.3693 459.129 70.3693C459.723 70.3693 460.207 70.5554 460.582 70.9276C460.96 71.2997 461.149 71.8608 461.149 72.6108V77H459.875V72.7301C459.875 72.2869 459.754 71.9659 459.512 71.767C459.271 71.5682 458.983 71.4688 458.647 71.4688C458.233 71.4688 457.91 71.5966 457.68 71.8523C457.45 72.1051 457.335 72.4304 457.335 72.8281V77H456.065V72.6491C456.065 72.294 455.954 72.0085 455.733 71.7926C455.511 71.5767 455.223 71.4688 454.868 71.4688C454.626 71.4688 454.403 71.5327 454.199 71.6605C453.997 71.7855 453.833 71.9602 453.708 72.1847C453.586 72.4091 453.525 72.669 453.525 72.9645V77H452.251Z"
        fill="#979797" />
      <rect x="295" y="130" width="140" height="10" rx="5" fill="#EFF3F9" />
      <rect x="295" y="130" width="13" height="10" rx="5" fill="url(#paint0_linear_1378_8305)" />
      <path
        d="M295.959 119V110.273H297.276V117.866H301.23V119H295.959ZM305.387 119.132C304.773 119.132 304.238 118.991 303.781 118.71C303.323 118.429 302.968 118.036 302.715 117.53C302.462 117.024 302.336 116.433 302.336 115.757C302.336 115.078 302.462 114.484 302.715 113.976C302.968 113.467 303.323 113.072 303.781 112.791C304.238 112.51 304.773 112.369 305.387 112.369C306.001 112.369 306.536 112.51 306.994 112.791C307.451 113.072 307.806 113.467 308.059 113.976C308.312 114.484 308.438 115.078 308.438 115.757C308.438 116.433 308.312 117.024 308.059 117.53C307.806 118.036 307.451 118.429 306.994 118.71C306.536 118.991 306.001 119.132 305.387 119.132ZM305.391 118.062C305.789 118.062 306.119 117.957 306.38 117.747C306.641 117.537 306.835 117.257 306.96 116.908C307.087 116.558 307.151 116.173 307.151 115.753C307.151 115.335 307.087 114.952 306.96 114.602C306.835 114.25 306.641 113.967 306.38 113.754C306.119 113.541 305.789 113.435 305.391 113.435C304.991 113.435 304.658 113.541 304.394 113.754C304.133 113.967 303.938 114.25 303.81 114.602C303.685 114.952 303.623 115.335 303.623 115.753C303.623 116.173 303.685 116.558 303.81 116.908C303.938 117.257 304.133 117.537 304.394 117.747C304.658 117.957 304.991 118.062 305.391 118.062ZM309.86 119V112.455H311.092V113.494H311.16C311.279 113.142 311.49 112.865 311.791 112.663C312.095 112.459 312.439 112.357 312.822 112.357C312.902 112.357 312.995 112.359 313.103 112.365C313.214 112.371 313.301 112.378 313.363 112.386V113.605C313.312 113.591 313.221 113.575 313.091 113.558C312.96 113.538 312.829 113.528 312.699 113.528C312.397 113.528 312.129 113.592 311.893 113.72C311.66 113.845 311.475 114.02 311.339 114.244C311.203 114.466 311.135 114.719 311.135 115.003V119H309.86ZM317.053 119.132C316.408 119.132 315.852 118.994 315.386 118.719C314.923 118.44 314.565 118.05 314.312 117.547C314.062 117.041 313.938 116.449 313.938 115.77C313.938 115.099 314.062 114.509 314.312 113.997C314.565 113.486 314.918 113.087 315.369 112.8C315.824 112.513 316.355 112.369 316.963 112.369C317.332 112.369 317.69 112.43 318.037 112.553C318.384 112.675 318.695 112.866 318.97 113.128C319.246 113.389 319.463 113.729 319.622 114.146C319.781 114.561 319.861 115.065 319.861 115.659V116.111H314.658V115.156H318.612C318.612 114.821 318.544 114.524 318.408 114.266C318.271 114.004 318.08 113.798 317.832 113.648C317.588 113.497 317.301 113.422 316.972 113.422C316.614 113.422 316.301 113.51 316.034 113.686C315.77 113.859 315.565 114.087 315.42 114.368C315.278 114.646 315.207 114.949 315.207 115.276V116.021C315.207 116.459 315.284 116.831 315.438 117.138C315.594 117.445 315.811 117.679 316.089 117.841C316.368 118 316.693 118.08 317.065 118.08C317.307 118.08 317.527 118.045 317.726 117.977C317.925 117.906 318.097 117.801 318.241 117.662C318.386 117.523 318.497 117.351 318.574 117.146L319.78 117.364C319.683 117.719 319.51 118.03 319.26 118.297C319.013 118.561 318.702 118.767 318.327 118.915C317.955 119.06 317.53 119.132 317.053 119.132ZM321.275 119V112.455H322.498V113.52H322.578C322.715 113.159 322.938 112.878 323.248 112.676C323.557 112.472 323.928 112.369 324.36 112.369C324.797 112.369 325.164 112.472 325.459 112.676C325.757 112.881 325.978 113.162 326.12 113.52H326.188C326.344 113.17 326.593 112.892 326.934 112.685C327.275 112.474 327.681 112.369 328.152 112.369C328.746 112.369 329.23 112.555 329.605 112.928C329.983 113.3 330.172 113.861 330.172 114.611V119H328.898V114.73C328.898 114.287 328.777 113.966 328.536 113.767C328.294 113.568 328.006 113.469 327.671 113.469C327.256 113.469 326.934 113.597 326.703 113.852C326.473 114.105 326.358 114.43 326.358 114.828V119H325.088V114.649C325.088 114.294 324.978 114.009 324.756 113.793C324.534 113.577 324.246 113.469 323.891 113.469C323.65 113.469 323.426 113.533 323.222 113.661C323.02 113.786 322.857 113.96 322.732 114.185C322.61 114.409 322.549 114.669 322.549 114.964V119H321.275Z"
        fill="#4F4F4F" />
      <path
        d="M431.065 119.145C430.392 119.142 429.817 118.964 429.339 118.612C428.862 118.26 428.497 117.747 428.244 117.074C427.991 116.401 427.865 115.589 427.865 114.641C427.865 113.695 427.991 112.886 428.244 112.216C428.5 111.545 428.866 111.034 429.344 110.682C429.824 110.33 430.398 110.153 431.065 110.153C431.733 110.153 432.305 110.331 432.783 110.686C433.26 111.038 433.625 111.55 433.878 112.22C434.134 112.888 434.261 113.695 434.261 114.641C434.261 115.592 434.135 116.405 433.882 117.078C433.629 117.749 433.264 118.261 432.787 118.616C432.31 118.969 431.736 119.145 431.065 119.145ZM431.065 118.007C431.656 118.007 432.118 117.719 432.45 117.142C432.786 116.565 432.953 115.732 432.953 114.641C432.953 113.916 432.876 113.304 432.723 112.804C432.572 112.301 432.355 111.92 432.071 111.662C431.79 111.401 431.455 111.27 431.065 111.27C430.477 111.27 430.016 111.56 429.68 112.139C429.345 112.719 429.176 113.553 429.173 114.641C429.173 115.368 429.249 115.983 429.399 116.486C429.553 116.986 429.77 117.365 430.051 117.624C430.332 117.879 430.67 118.007 431.065 118.007ZM437.131 117.807L437.067 118.271C437.025 118.612 436.952 118.967 436.85 119.337C436.751 119.709 436.647 120.054 436.539 120.372C436.434 120.69 436.347 120.943 436.279 121.131H435.376C435.413 120.955 435.464 120.716 435.529 120.415C435.594 120.116 435.658 119.783 435.721 119.413C435.783 119.044 435.83 118.668 435.862 118.284L435.904 117.807H437.131ZM438.914 119V118.045L441.867 114.986C442.182 114.653 442.442 114.362 442.647 114.112C442.854 113.859 443.009 113.619 443.111 113.392C443.213 113.165 443.265 112.923 443.265 112.668C443.265 112.378 443.196 112.128 443.06 111.918C442.924 111.705 442.738 111.541 442.502 111.428C442.266 111.311 442 111.253 441.705 111.253C441.392 111.253 441.12 111.317 440.887 111.445C440.654 111.572 440.475 111.753 440.35 111.986C440.225 112.219 440.162 112.491 440.162 112.804H438.905C438.905 112.273 439.027 111.808 439.272 111.411C439.516 111.013 439.851 110.705 440.277 110.486C440.703 110.264 441.188 110.153 441.73 110.153C442.279 110.153 442.762 110.263 443.179 110.482C443.6 110.697 443.928 110.993 444.164 111.368C444.4 111.74 444.517 112.161 444.517 112.629C444.517 112.953 444.456 113.27 444.334 113.58C444.215 113.889 444.006 114.234 443.708 114.615C443.409 114.993 442.995 115.452 442.463 115.991L440.729 117.807V117.871H444.658V119H438.914ZM449.32 119.119C448.931 119.114 448.547 119.043 448.169 118.906C447.794 118.77 447.453 118.543 447.147 118.224C446.84 117.906 446.594 117.479 446.409 116.942C446.228 116.405 446.137 115.734 446.137 114.93C446.137 114.169 446.212 113.493 446.363 112.902C446.516 112.311 446.736 111.812 447.023 111.406C447.31 110.997 447.657 110.686 448.063 110.473C448.469 110.26 448.925 110.153 449.431 110.153C449.951 110.153 450.412 110.256 450.816 110.46C451.219 110.665 451.546 110.947 451.796 111.308C452.049 111.669 452.209 112.08 452.277 112.54H450.978C450.89 112.176 450.715 111.879 450.453 111.649C450.192 111.419 449.851 111.304 449.431 111.304C448.792 111.304 448.293 111.582 447.935 112.139C447.58 112.696 447.401 113.47 447.398 114.462H447.462C447.613 114.214 447.797 114.004 448.016 113.831C448.238 113.655 448.485 113.52 448.757 113.426C449.033 113.33 449.323 113.281 449.627 113.281C450.132 113.281 450.59 113.405 450.999 113.652C451.411 113.896 451.739 114.234 451.983 114.666C452.228 115.098 452.35 115.592 452.35 116.149C452.35 116.706 452.223 117.21 451.971 117.662C451.721 118.114 451.368 118.472 450.914 118.736C450.459 118.997 449.928 119.125 449.32 119.119ZM449.316 118.011C449.651 118.011 449.951 117.929 450.215 117.764C450.479 117.599 450.688 117.378 450.841 117.099C450.995 116.821 451.071 116.51 451.071 116.166C451.071 115.831 450.996 115.526 450.846 115.25C450.698 114.974 450.493 114.756 450.232 114.594C449.973 114.432 449.678 114.351 449.346 114.351C449.093 114.351 448.858 114.399 448.642 114.496C448.429 114.592 448.242 114.726 448.08 114.896C447.918 115.067 447.79 115.263 447.696 115.484C447.605 115.703 447.56 115.935 447.56 116.179C447.56 116.506 447.635 116.808 447.786 117.087C447.939 117.365 448.148 117.589 448.412 117.76C448.679 117.928 448.98 118.011 449.316 118.011ZM458.457 117.364V116.903C458.457 116.574 458.526 116.273 458.662 116C458.801 115.724 459.003 115.504 459.267 115.339C459.534 115.172 459.857 115.088 460.234 115.088C460.621 115.088 460.945 115.17 461.206 115.335C461.467 115.5 461.665 115.72 461.798 115.996C461.935 116.271 462.003 116.574 462.003 116.903V117.364C462.003 117.693 461.935 117.996 461.798 118.271C461.662 118.544 461.462 118.764 461.197 118.932C460.936 119.097 460.615 119.179 460.234 119.179C459.851 119.179 459.527 119.097 459.263 118.932C458.999 118.764 458.798 118.544 458.662 118.271C458.526 117.996 458.457 117.693 458.457 117.364ZM459.45 116.903V117.364C459.45 117.608 459.509 117.83 459.625 118.028C459.741 118.227 459.945 118.327 460.234 118.327C460.521 118.327 460.722 118.227 460.835 118.028C460.949 117.83 461.006 117.608 461.006 117.364V116.903C461.006 116.659 460.95 116.437 460.839 116.239C460.732 116.04 460.53 115.94 460.234 115.94C459.95 115.94 459.749 116.04 459.629 116.239C459.51 116.437 459.45 116.659 459.45 116.903ZM454.068 112.369V111.909C454.068 111.58 454.136 111.277 454.273 111.001C454.412 110.726 454.614 110.506 454.878 110.341C455.145 110.176 455.467 110.094 455.845 110.094C456.232 110.094 456.555 110.176 456.817 110.341C457.078 110.506 457.276 110.726 457.409 111.001C457.543 111.277 457.609 111.58 457.609 111.909V112.369C457.609 112.699 457.541 113.001 457.405 113.277C457.271 113.55 457.072 113.77 456.808 113.938C456.547 114.102 456.226 114.185 455.845 114.185C455.459 114.185 455.134 114.102 454.869 113.938C454.608 113.77 454.409 113.55 454.273 113.277C454.136 113.001 454.068 112.699 454.068 112.369ZM455.065 111.909V112.369C455.065 112.614 455.122 112.835 455.236 113.034C455.352 113.233 455.555 113.332 455.845 113.332C456.129 113.332 456.328 113.233 456.442 113.034C456.558 112.835 456.616 112.614 456.616 112.369V111.909C456.616 111.665 456.561 111.443 456.45 111.244C456.339 111.045 456.138 110.946 455.845 110.946C455.561 110.946 455.359 111.045 455.24 111.244C455.124 111.443 455.065 111.665 455.065 111.909ZM454.473 119L460.473 110.273H461.491L455.491 119H454.473Z"
        fill="#979797" />
      <rect x="75" y="185" width="140" height="10" rx="5" fill="#EFF3F9" />
      <rect x="75" y="185" width="5" height="10" rx="2.5" fill="url(#paint1_linear_1378_8305)" />
      <path
        d="M75.9588 173V164.273H77.2756V171.866H81.2301V173H75.9588ZM85.3871 173.132C84.7734 173.132 84.2379 172.991 83.7805 172.71C83.3232 172.429 82.968 172.036 82.7152 171.53C82.4624 171.024 82.3359 170.433 82.3359 169.757C82.3359 169.078 82.4624 168.484 82.7152 167.976C82.968 167.467 83.3232 167.072 83.7805 166.791C84.2379 166.51 84.7734 166.369 85.3871 166.369C86.0007 166.369 86.5362 166.51 86.9936 166.791C87.451 167.072 87.8061 167.467 88.0589 167.976C88.3118 168.484 88.4382 169.078 88.4382 169.757C88.4382 170.433 88.3118 171.024 88.0589 171.53C87.8061 172.036 87.451 172.429 86.9936 172.71C86.5362 172.991 86.0007 173.132 85.3871 173.132ZM85.3913 172.062C85.7891 172.062 86.1186 171.957 86.38 171.747C86.6413 171.537 86.8345 171.257 86.9595 170.908C87.0874 170.558 87.1513 170.173 87.1513 169.753C87.1513 169.335 87.0874 168.952 86.9595 168.602C86.8345 168.25 86.6413 167.967 86.38 167.754C86.1186 167.541 85.7891 167.435 85.3913 167.435C84.9908 167.435 84.6584 167.541 84.3942 167.754C84.1328 167.967 83.9382 168.25 83.8104 168.602C83.6854 168.952 83.6229 169.335 83.6229 169.753C83.6229 170.173 83.6854 170.558 83.8104 170.908C83.9382 171.257 84.1328 171.537 84.3942 171.747C84.6584 171.957 84.9908 172.062 85.3913 172.062ZM89.8604 173V166.455H91.092V167.494H91.1602C91.2795 167.142 91.4897 166.865 91.7908 166.663C92.0948 166.459 92.4386 166.357 92.8221 166.357C92.9016 166.357 92.9954 166.359 93.1033 166.365C93.2141 166.371 93.3008 166.378 93.3633 166.386V167.605C93.3121 167.591 93.2212 167.575 93.0906 167.558C92.9599 167.538 92.8292 167.528 92.6985 167.528C92.3974 167.528 92.1289 167.592 91.8931 167.72C91.6602 167.845 91.4755 168.02 91.3391 168.244C91.2028 168.466 91.1346 168.719 91.1346 169.003V173H89.8604ZM97.0526 173.132C96.4077 173.132 95.8523 172.994 95.3864 172.719C94.9233 172.44 94.5653 172.05 94.3125 171.547C94.0625 171.041 93.9375 170.449 93.9375 169.77C93.9375 169.099 94.0625 168.509 94.3125 167.997C94.5653 167.486 94.9176 167.087 95.3693 166.8C95.8239 166.513 96.3551 166.369 96.9631 166.369C97.3324 166.369 97.6903 166.43 98.0369 166.553C98.3835 166.675 98.6946 166.866 98.9702 167.128C99.2457 167.389 99.4631 167.729 99.6222 168.146C99.7813 168.561 99.8608 169.065 99.8608 169.659V170.111H94.6577V169.156H98.6122C98.6122 168.821 98.544 168.524 98.4077 168.266C98.2713 168.004 98.0795 167.798 97.8324 167.648C97.5881 167.497 97.3011 167.422 96.9716 167.422C96.6136 167.422 96.3011 167.51 96.0341 167.686C95.7699 167.859 95.5653 168.087 95.4205 168.368C95.2784 168.646 95.2074 168.949 95.2074 169.276V170.021C95.2074 170.459 95.2841 170.831 95.4375 171.138C95.5938 171.445 95.8111 171.679 96.0895 171.841C96.3679 172 96.6932 172.08 97.0653 172.08C97.3068 172.08 97.527 172.045 97.7259 171.977C97.9247 171.906 98.0966 171.801 98.2415 171.662C98.3864 171.523 98.4972 171.351 98.5739 171.146L99.7798 171.364C99.6832 171.719 99.5099 172.03 99.2599 172.297C99.0128 172.561 98.7017 172.767 98.3267 172.915C97.9545 173.06 97.5298 173.132 97.0526 173.132ZM101.275 173V166.455H102.498V167.52H102.578C102.715 167.159 102.938 166.878 103.248 166.676C103.557 166.472 103.928 166.369 104.36 166.369C104.797 166.369 105.164 166.472 105.459 166.676C105.757 166.881 105.978 167.162 106.12 167.52H106.188C106.344 167.17 106.593 166.892 106.934 166.685C107.275 166.474 107.681 166.369 108.152 166.369C108.746 166.369 109.23 166.555 109.605 166.928C109.983 167.3 110.172 167.861 110.172 168.611V173H108.898V168.73C108.898 168.287 108.777 167.966 108.536 167.767C108.294 167.568 108.006 167.469 107.671 167.469C107.256 167.469 106.934 167.597 106.703 167.852C106.473 168.105 106.358 168.43 106.358 168.828V173H105.088V168.649C105.088 168.294 104.978 168.009 104.756 167.793C104.534 167.577 104.246 167.469 103.891 167.469C103.65 167.469 103.426 167.533 103.222 167.661C103.02 167.786 102.857 167.96 102.732 168.185C102.61 168.409 102.549 168.669 102.549 168.964V173H101.275Z"
        fill="#4F4F4F" />
      <path
        d="M196.948 173.145C196.275 173.142 195.7 172.964 195.222 172.612C194.745 172.26 194.38 171.747 194.127 171.074C193.874 170.401 193.748 169.589 193.748 168.641C193.748 167.695 193.874 166.886 194.127 166.216C194.383 165.545 194.749 165.034 195.227 164.682C195.707 164.33 196.281 164.153 196.948 164.153C197.616 164.153 198.188 164.331 198.665 164.686C199.143 165.038 199.508 165.55 199.761 166.22C200.016 166.888 200.144 167.695 200.144 168.641C200.144 169.592 200.018 170.405 199.765 171.078C199.512 171.749 199.147 172.261 198.67 172.616C198.192 172.969 197.619 173.145 196.948 173.145ZM196.948 172.007C197.539 172.007 198.001 171.719 198.333 171.142C198.668 170.565 198.836 169.732 198.836 168.641C198.836 167.916 198.759 167.304 198.606 166.804C198.455 166.301 198.238 165.92 197.954 165.662C197.673 165.401 197.337 165.27 196.948 165.27C196.36 165.27 195.898 165.56 195.563 166.139C195.228 166.719 195.059 167.553 195.056 168.641C195.056 169.368 195.131 169.983 195.282 170.486C195.435 170.986 195.653 171.365 195.934 171.624C196.215 171.879 196.553 172.007 196.948 172.007ZM203.014 171.807L202.95 172.271C202.908 172.612 202.835 172.967 202.733 173.337C202.634 173.709 202.53 174.054 202.422 174.372C202.317 174.69 202.23 174.943 202.162 175.131H201.259C201.295 174.955 201.347 174.716 201.412 174.415C201.477 174.116 201.541 173.783 201.604 173.413C201.666 173.044 201.713 172.668 201.744 172.284L201.787 171.807H203.014ZM204.797 173V172.045L207.75 168.986C208.065 168.653 208.325 168.362 208.529 168.112C208.737 167.859 208.892 167.619 208.994 167.392C209.096 167.165 209.147 166.923 209.147 166.668C209.147 166.378 209.079 166.128 208.943 165.918C208.806 165.705 208.62 165.541 208.385 165.428C208.149 165.311 207.883 165.253 207.588 165.253C207.275 165.253 207.002 165.317 206.77 165.445C206.537 165.572 206.358 165.753 206.233 165.986C206.108 166.219 206.045 166.491 206.045 166.804H204.788C204.788 166.273 204.91 165.808 205.154 165.411C205.399 165.013 205.734 164.705 206.16 164.486C206.586 164.264 207.071 164.153 207.613 164.153C208.162 164.153 208.645 164.263 209.062 164.482C209.483 164.697 209.811 164.993 210.047 165.368C210.282 165.74 210.4 166.161 210.4 166.629C210.4 166.953 210.339 167.27 210.217 167.58C210.098 167.889 209.889 168.234 209.591 168.615C209.292 168.993 208.877 169.452 208.346 169.991L206.612 171.807V171.871H210.541V173H204.797ZM215.194 173.145C214.521 173.142 213.946 172.964 213.468 172.612C212.991 172.26 212.626 171.747 212.373 171.074C212.12 170.401 211.994 169.589 211.994 168.641C211.994 167.695 212.12 166.886 212.373 166.216C212.629 165.545 212.995 165.034 213.473 164.682C213.953 164.33 214.527 164.153 215.194 164.153C215.862 164.153 216.434 164.331 216.912 164.686C217.389 165.038 217.754 165.55 218.007 166.22C218.262 166.888 218.39 167.695 218.39 168.641C218.39 169.592 218.264 170.405 218.011 171.078C217.758 171.749 217.393 172.261 216.916 172.616C216.439 172.969 215.865 173.145 215.194 173.145ZM215.194 172.007C215.785 172.007 216.247 171.719 216.579 171.142C216.914 170.565 217.082 169.732 217.082 168.641C217.082 167.916 217.005 167.304 216.852 166.804C216.701 166.301 216.484 165.92 216.2 165.662C215.919 165.401 215.583 165.27 215.194 165.27C214.606 165.27 214.145 165.56 213.809 166.139C213.474 166.719 213.305 167.553 213.302 168.641C213.302 169.368 213.377 169.983 213.528 170.486C213.681 170.986 213.899 171.365 214.18 171.624C214.461 171.879 214.799 172.007 215.194 172.007ZM224.457 171.364V170.903C224.457 170.574 224.526 170.273 224.662 170C224.801 169.724 225.003 169.504 225.267 169.339C225.534 169.172 225.857 169.088 226.234 169.088C226.621 169.088 226.945 169.17 227.206 169.335C227.467 169.5 227.665 169.72 227.798 169.996C227.935 170.271 228.003 170.574 228.003 170.903V171.364C228.003 171.693 227.935 171.996 227.798 172.271C227.662 172.544 227.462 172.764 227.197 172.932C226.936 173.097 226.615 173.179 226.234 173.179C225.851 173.179 225.527 173.097 225.263 172.932C224.999 172.764 224.798 172.544 224.662 172.271C224.526 171.996 224.457 171.693 224.457 171.364ZM225.45 170.903V171.364C225.45 171.608 225.509 171.83 225.625 172.028C225.741 172.227 225.945 172.327 226.234 172.327C226.521 172.327 226.722 172.227 226.835 172.028C226.949 171.83 227.006 171.608 227.006 171.364V170.903C227.006 170.659 226.95 170.437 226.839 170.239C226.732 170.04 226.53 169.94 226.234 169.94C225.95 169.94 225.749 170.04 225.629 170.239C225.51 170.437 225.45 170.659 225.45 170.903ZM220.068 166.369V165.909C220.068 165.58 220.136 165.277 220.273 165.001C220.412 164.726 220.614 164.506 220.878 164.341C221.145 164.176 221.467 164.094 221.845 164.094C222.232 164.094 222.555 164.176 222.817 164.341C223.078 164.506 223.276 164.726 223.409 165.001C223.543 165.277 223.609 165.58 223.609 165.909V166.369C223.609 166.699 223.541 167.001 223.405 167.277C223.271 167.55 223.072 167.77 222.808 167.938C222.547 168.102 222.226 168.185 221.845 168.185C221.459 168.185 221.134 168.102 220.869 167.938C220.608 167.77 220.409 167.55 220.273 167.277C220.136 167.001 220.068 166.699 220.068 166.369ZM221.065 165.909V166.369C221.065 166.614 221.122 166.835 221.236 167.034C221.352 167.233 221.555 167.332 221.845 167.332C222.129 167.332 222.328 167.233 222.442 167.034C222.558 166.835 222.616 166.614 222.616 166.369V165.909C222.616 165.665 222.561 165.443 222.45 165.244C222.339 165.045 222.138 164.946 221.845 164.946C221.561 164.946 221.359 165.045 221.24 165.244C221.124 165.443 221.065 165.665 221.065 165.909ZM220.473 173L226.473 164.273H227.491L221.491 173H220.473Z"
        fill="#979797" />
      <rect x="75" y="131" width="140" height="10" rx="5" fill="#EFF3F9" />
      <rect x="75" y="131" width="128" height="10" rx="5" fill="url(#paint2_linear_1378_8305)" />
      <path
        d="M75.9588 119V110.273H77.2756V117.866H81.2301V119H75.9588ZM85.3871 119.132C84.7734 119.132 84.2379 118.991 83.7805 118.71C83.3232 118.429 82.968 118.036 82.7152 117.53C82.4624 117.024 82.3359 116.433 82.3359 115.757C82.3359 115.078 82.4624 114.484 82.7152 113.976C82.968 113.467 83.3232 113.072 83.7805 112.791C84.2379 112.51 84.7734 112.369 85.3871 112.369C86.0007 112.369 86.5362 112.51 86.9936 112.791C87.451 113.072 87.8061 113.467 88.0589 113.976C88.3118 114.484 88.4382 115.078 88.4382 115.757C88.4382 116.433 88.3118 117.024 88.0589 117.53C87.8061 118.036 87.451 118.429 86.9936 118.71C86.5362 118.991 86.0007 119.132 85.3871 119.132ZM85.3913 118.062C85.7891 118.062 86.1186 117.957 86.38 117.747C86.6413 117.537 86.8345 117.257 86.9595 116.908C87.0874 116.558 87.1513 116.173 87.1513 115.753C87.1513 115.335 87.0874 114.952 86.9595 114.602C86.8345 114.25 86.6413 113.967 86.38 113.754C86.1186 113.541 85.7891 113.435 85.3913 113.435C84.9908 113.435 84.6584 113.541 84.3942 113.754C84.1328 113.967 83.9382 114.25 83.8104 114.602C83.6854 114.952 83.6229 115.335 83.6229 115.753C83.6229 116.173 83.6854 116.558 83.8104 116.908C83.9382 117.257 84.1328 117.537 84.3942 117.747C84.6584 117.957 84.9908 118.062 85.3913 118.062ZM89.8604 119V112.455H91.092V113.494H91.1602C91.2795 113.142 91.4897 112.865 91.7908 112.663C92.0948 112.459 92.4386 112.357 92.8221 112.357C92.9016 112.357 92.9954 112.359 93.1033 112.365C93.2141 112.371 93.3008 112.378 93.3633 112.386V113.605C93.3121 113.591 93.2212 113.575 93.0906 113.558C92.9599 113.538 92.8292 113.528 92.6985 113.528C92.3974 113.528 92.1289 113.592 91.8931 113.72C91.6602 113.845 91.4755 114.02 91.3391 114.244C91.2028 114.466 91.1346 114.719 91.1346 115.003V119H89.8604ZM97.0526 119.132C96.4077 119.132 95.8523 118.994 95.3864 118.719C94.9233 118.44 94.5653 118.05 94.3125 117.547C94.0625 117.041 93.9375 116.449 93.9375 115.77C93.9375 115.099 94.0625 114.509 94.3125 113.997C94.5653 113.486 94.9176 113.087 95.3693 112.8C95.8239 112.513 96.3551 112.369 96.9631 112.369C97.3324 112.369 97.6903 112.43 98.0369 112.553C98.3835 112.675 98.6946 112.866 98.9702 113.128C99.2457 113.389 99.4631 113.729 99.6222 114.146C99.7813 114.561 99.8608 115.065 99.8608 115.659V116.111H94.6577V115.156H98.6122C98.6122 114.821 98.544 114.524 98.4077 114.266C98.2713 114.004 98.0795 113.798 97.8324 113.648C97.5881 113.497 97.3011 113.422 96.9716 113.422C96.6136 113.422 96.3011 113.51 96.0341 113.686C95.7699 113.859 95.5653 114.087 95.4205 114.368C95.2784 114.646 95.2074 114.949 95.2074 115.276V116.021C95.2074 116.459 95.2841 116.831 95.4375 117.138C95.5938 117.445 95.8111 117.679 96.0895 117.841C96.3679 118 96.6932 118.08 97.0653 118.08C97.3068 118.08 97.527 118.045 97.7259 117.977C97.9247 117.906 98.0966 117.801 98.2415 117.662C98.3864 117.523 98.4972 117.351 98.5739 117.146L99.7798 117.364C99.6832 117.719 99.5099 118.03 99.2599 118.297C99.0128 118.561 98.7017 118.767 98.3267 118.915C97.9545 119.06 97.5298 119.132 97.0526 119.132ZM101.275 119V112.455H102.498V113.52H102.578C102.715 113.159 102.938 112.878 103.248 112.676C103.557 112.472 103.928 112.369 104.36 112.369C104.797 112.369 105.164 112.472 105.459 112.676C105.757 112.881 105.978 113.162 106.12 113.52H106.188C106.344 113.17 106.593 112.892 106.934 112.685C107.275 112.474 107.681 112.369 108.152 112.369C108.746 112.369 109.23 112.555 109.605 112.928C109.983 113.3 110.172 113.861 110.172 114.611V119H108.898V114.73C108.898 114.287 108.777 113.966 108.536 113.767C108.294 113.568 108.006 113.469 107.671 113.469C107.256 113.469 106.934 113.597 106.703 113.852C106.473 114.105 106.358 114.43 106.358 114.828V119H105.088V114.649C105.088 114.294 104.978 114.009 104.756 113.793C104.534 113.577 104.246 113.469 103.891 113.469C103.65 113.469 103.426 113.533 103.222 113.661C103.02 113.786 102.857 113.96 102.732 114.185C102.61 114.409 102.549 114.669 102.549 114.964V119H101.275Z"
        fill="#4F4F4F" />
      <path
        d="M207.324 110.153C207.713 110.156 208.096 110.227 208.474 110.366C208.852 110.506 209.193 110.733 209.497 111.048C209.804 111.364 210.048 111.79 210.23 112.327C210.414 112.861 210.508 113.526 210.511 114.321C210.511 115.085 210.434 115.766 210.281 116.362C210.127 116.956 209.907 117.457 209.62 117.866C209.336 118.276 208.991 118.587 208.585 118.8C208.179 119.013 207.721 119.119 207.213 119.119C206.693 119.119 206.231 119.017 205.828 118.812C205.424 118.608 205.096 118.325 204.843 117.964C204.591 117.601 204.433 117.183 204.37 116.712H205.67C205.755 117.087 205.929 117.391 206.19 117.624C206.454 117.854 206.795 117.969 207.213 117.969C207.852 117.969 208.35 117.69 208.708 117.134C209.066 116.574 209.247 115.793 209.25 114.79H209.181C209.034 115.034 208.849 115.244 208.627 115.42C208.409 115.597 208.163 115.733 207.89 115.83C207.618 115.926 207.326 115.974 207.017 115.974C206.514 115.974 206.056 115.851 205.645 115.604C205.233 115.357 204.904 115.017 204.66 114.585C204.416 114.153 204.294 113.661 204.294 113.107C204.294 112.555 204.419 112.055 204.669 111.607C204.922 111.158 205.274 110.803 205.725 110.541C206.18 110.277 206.713 110.148 207.324 110.153ZM207.328 111.261C206.995 111.261 206.696 111.344 206.429 111.509C206.164 111.67 205.956 111.891 205.802 112.169C205.649 112.445 205.572 112.751 205.572 113.089C205.572 113.428 205.646 113.734 205.794 114.01C205.944 114.283 206.149 114.5 206.407 114.662C206.669 114.821 206.967 114.901 207.302 114.901C207.552 114.901 207.785 114.852 208.001 114.756C208.217 114.659 208.406 114.526 208.568 114.355C208.73 114.182 208.856 113.986 208.947 113.767C209.038 113.548 209.083 113.318 209.083 113.077C209.083 112.756 209.007 112.457 208.853 112.182C208.703 111.906 208.495 111.685 208.231 111.517C207.967 111.347 207.666 111.261 207.328 111.261ZM211.867 117.295V116.23L215.638 110.273H216.478V111.841H215.945L213.248 116.111V116.179H218.417V117.295H211.867ZM216.005 119V116.972L216.013 116.486V110.273H217.262V119H216.005ZM224.457 117.364V116.903C224.457 116.574 224.526 116.273 224.662 116C224.801 115.724 225.003 115.504 225.267 115.339C225.534 115.172 225.857 115.088 226.234 115.088C226.621 115.088 226.945 115.17 227.206 115.335C227.467 115.5 227.665 115.72 227.798 115.996C227.935 116.271 228.003 116.574 228.003 116.903V117.364C228.003 117.693 227.935 117.996 227.798 118.271C227.662 118.544 227.462 118.764 227.197 118.932C226.936 119.097 226.615 119.179 226.234 119.179C225.851 119.179 225.527 119.097 225.263 118.932C224.999 118.764 224.798 118.544 224.662 118.271C224.526 117.996 224.457 117.693 224.457 117.364ZM225.45 116.903V117.364C225.45 117.608 225.509 117.83 225.625 118.028C225.741 118.227 225.945 118.327 226.234 118.327C226.521 118.327 226.722 118.227 226.835 118.028C226.949 117.83 227.006 117.608 227.006 117.364V116.903C227.006 116.659 226.95 116.437 226.839 116.239C226.732 116.04 226.53 115.94 226.234 115.94C225.95 115.94 225.749 116.04 225.629 116.239C225.51 116.437 225.45 116.659 225.45 116.903ZM220.068 112.369V111.909C220.068 111.58 220.136 111.277 220.273 111.001C220.412 110.726 220.614 110.506 220.878 110.341C221.145 110.176 221.467 110.094 221.845 110.094C222.232 110.094 222.555 110.176 222.817 110.341C223.078 110.506 223.276 110.726 223.409 111.001C223.543 111.277 223.609 111.58 223.609 111.909V112.369C223.609 112.699 223.541 113.001 223.405 113.277C223.271 113.55 223.072 113.77 222.808 113.938C222.547 114.102 222.226 114.185 221.845 114.185C221.459 114.185 221.134 114.102 220.869 113.938C220.608 113.77 220.409 113.55 220.273 113.277C220.136 113.001 220.068 112.699 220.068 112.369ZM221.065 111.909V112.369C221.065 112.614 221.122 112.835 221.236 113.034C221.352 113.233 221.555 113.332 221.845 113.332C222.129 113.332 222.328 113.233 222.442 113.034C222.558 112.835 222.616 112.614 222.616 112.369V111.909C222.616 111.665 222.561 111.443 222.45 111.244C222.339 111.045 222.138 110.946 221.845 110.946C221.561 110.946 221.359 111.045 221.24 111.244C221.124 111.443 221.065 111.665 221.065 111.909ZM220.473 119L226.473 110.273H227.491L221.491 119H220.473Z"
        fill="#979797" />
      <rect x="295" y="184" width="140" height="10" rx="5" fill="#EFF3F9" />
      <rect x="295" y="184" width="5" height="10" rx="2.5" fill="url(#paint3_linear_1378_8305)" />
      <path
        d="M295.959 172V163.273H297.276V170.866H301.23V172H295.959ZM305.387 172.132C304.773 172.132 304.238 171.991 303.781 171.71C303.323 171.429 302.968 171.036 302.715 170.53C302.462 170.024 302.336 169.433 302.336 168.757C302.336 168.078 302.462 167.484 302.715 166.976C302.968 166.467 303.323 166.072 303.781 165.791C304.238 165.51 304.773 165.369 305.387 165.369C306.001 165.369 306.536 165.51 306.994 165.791C307.451 166.072 307.806 166.467 308.059 166.976C308.312 167.484 308.438 168.078 308.438 168.757C308.438 169.433 308.312 170.024 308.059 170.53C307.806 171.036 307.451 171.429 306.994 171.71C306.536 171.991 306.001 172.132 305.387 172.132ZM305.391 171.062C305.789 171.062 306.119 170.957 306.38 170.747C306.641 170.537 306.835 170.257 306.96 169.908C307.087 169.558 307.151 169.173 307.151 168.753C307.151 168.335 307.087 167.952 306.96 167.602C306.835 167.25 306.641 166.967 306.38 166.754C306.119 166.541 305.789 166.435 305.391 166.435C304.991 166.435 304.658 166.541 304.394 166.754C304.133 166.967 303.938 167.25 303.81 167.602C303.685 167.952 303.623 168.335 303.623 168.753C303.623 169.173 303.685 169.558 303.81 169.908C303.938 170.257 304.133 170.537 304.394 170.747C304.658 170.957 304.991 171.062 305.391 171.062ZM309.86 172V165.455H311.092V166.494H311.16C311.279 166.142 311.49 165.865 311.791 165.663C312.095 165.459 312.439 165.357 312.822 165.357C312.902 165.357 312.995 165.359 313.103 165.365C313.214 165.371 313.301 165.378 313.363 165.386V166.605C313.312 166.591 313.221 166.575 313.091 166.558C312.96 166.538 312.829 166.528 312.699 166.528C312.397 166.528 312.129 166.592 311.893 166.72C311.66 166.845 311.475 167.02 311.339 167.244C311.203 167.466 311.135 167.719 311.135 168.003V172H309.86ZM317.053 172.132C316.408 172.132 315.852 171.994 315.386 171.719C314.923 171.44 314.565 171.05 314.312 170.547C314.062 170.041 313.938 169.449 313.938 168.77C313.938 168.099 314.062 167.509 314.312 166.997C314.565 166.486 314.918 166.087 315.369 165.8C315.824 165.513 316.355 165.369 316.963 165.369C317.332 165.369 317.69 165.43 318.037 165.553C318.384 165.675 318.695 165.866 318.97 166.128C319.246 166.389 319.463 166.729 319.622 167.146C319.781 167.561 319.861 168.065 319.861 168.659V169.111H314.658V168.156H318.612C318.612 167.821 318.544 167.524 318.408 167.266C318.271 167.004 318.08 166.798 317.832 166.648C317.588 166.497 317.301 166.422 316.972 166.422C316.614 166.422 316.301 166.51 316.034 166.686C315.77 166.859 315.565 167.087 315.42 167.368C315.278 167.646 315.207 167.949 315.207 168.276V169.021C315.207 169.459 315.284 169.831 315.438 170.138C315.594 170.445 315.811 170.679 316.089 170.841C316.368 171 316.693 171.08 317.065 171.08C317.307 171.08 317.527 171.045 317.726 170.977C317.925 170.906 318.097 170.801 318.241 170.662C318.386 170.523 318.497 170.351 318.574 170.146L319.78 170.364C319.683 170.719 319.51 171.03 319.26 171.297C319.013 171.561 318.702 171.767 318.327 171.915C317.955 172.06 317.53 172.132 317.053 172.132ZM321.275 172V165.455H322.498V166.52H322.578C322.715 166.159 322.938 165.878 323.248 165.676C323.557 165.472 323.928 165.369 324.36 165.369C324.797 165.369 325.164 165.472 325.459 165.676C325.757 165.881 325.978 166.162 326.12 166.52H326.188C326.344 166.17 326.593 165.892 326.934 165.685C327.275 165.474 327.681 165.369 328.152 165.369C328.746 165.369 329.23 165.555 329.605 165.928C329.983 166.3 330.172 166.861 330.172 167.611V172H328.898V167.73C328.898 167.287 328.777 166.966 328.536 166.767C328.294 166.568 328.006 166.469 327.671 166.469C327.256 166.469 326.934 166.597 326.703 166.852C326.473 167.105 326.358 167.43 326.358 167.828V172H325.088V167.649C325.088 167.294 324.978 167.009 324.756 166.793C324.534 166.577 324.246 166.469 323.891 166.469C323.65 166.469 323.426 166.533 323.222 166.661C323.02 166.786 322.857 166.96 322.732 167.185C322.61 167.409 322.549 167.669 322.549 167.964V172H321.275Z"
        fill="#4F4F4F" />
      <path
        d="M430.948 172.145C430.275 172.142 429.7 171.964 429.222 171.612C428.745 171.26 428.38 170.747 428.127 170.074C427.874 169.401 427.748 168.589 427.748 167.641C427.748 166.695 427.874 165.886 428.127 165.216C428.383 164.545 428.749 164.034 429.227 163.682C429.707 163.33 430.281 163.153 430.948 163.153C431.616 163.153 432.188 163.331 432.665 163.686C433.143 164.038 433.508 164.55 433.761 165.22C434.016 165.888 434.144 166.695 434.144 167.641C434.144 168.592 434.018 169.405 433.765 170.078C433.512 170.749 433.147 171.261 432.67 171.616C432.192 171.969 431.619 172.145 430.948 172.145ZM430.948 171.007C431.539 171.007 432.001 170.719 432.333 170.142C432.668 169.565 432.836 168.732 432.836 167.641C432.836 166.916 432.759 166.304 432.606 165.804C432.455 165.301 432.238 164.92 431.954 164.662C431.673 164.401 431.337 164.27 430.948 164.27C430.36 164.27 429.898 164.56 429.563 165.139C429.228 165.719 429.059 166.553 429.056 167.641C429.056 168.368 429.131 168.983 429.282 169.486C429.435 169.986 429.653 170.365 429.934 170.624C430.215 170.879 430.553 171.007 430.948 171.007ZM437.014 170.807L436.95 171.271C436.908 171.612 436.835 171.967 436.733 172.337C436.634 172.709 436.53 173.054 436.422 173.372C436.317 173.69 436.23 173.943 436.162 174.131H435.259C435.295 173.955 435.347 173.716 435.412 173.415C435.477 173.116 435.541 172.783 435.604 172.413C435.666 172.044 435.713 171.668 435.744 171.284L435.787 170.807H437.014ZM438.797 172V171.045L441.75 167.986C442.065 167.653 442.325 167.362 442.529 167.112C442.737 166.859 442.892 166.619 442.994 166.392C443.096 166.165 443.147 165.923 443.147 165.668C443.147 165.378 443.079 165.128 442.943 164.918C442.806 164.705 442.62 164.541 442.385 164.428C442.149 164.311 441.883 164.253 441.588 164.253C441.275 164.253 441.002 164.317 440.77 164.445C440.537 164.572 440.358 164.753 440.233 164.986C440.108 165.219 440.045 165.491 440.045 165.804H438.788C438.788 165.273 438.91 164.808 439.154 164.411C439.399 164.013 439.734 163.705 440.16 163.486C440.586 163.264 441.071 163.153 441.613 163.153C442.162 163.153 442.645 163.263 443.062 163.482C443.483 163.697 443.811 163.993 444.047 164.368C444.282 164.74 444.4 165.161 444.4 165.629C444.4 165.953 444.339 166.27 444.217 166.58C444.098 166.889 443.889 167.234 443.591 167.615C443.292 167.993 442.877 168.452 442.346 168.991L440.612 170.807V170.871H444.541V172H438.797ZM449.194 172.145C448.521 172.142 447.946 171.964 447.468 171.612C446.991 171.26 446.626 170.747 446.373 170.074C446.12 169.401 445.994 168.589 445.994 167.641C445.994 166.695 446.12 165.886 446.373 165.216C446.629 164.545 446.995 164.034 447.473 163.682C447.953 163.33 448.527 163.153 449.194 163.153C449.862 163.153 450.434 163.331 450.912 163.686C451.389 164.038 451.754 164.55 452.007 165.22C452.262 165.888 452.39 166.695 452.39 167.641C452.39 168.592 452.264 169.405 452.011 170.078C451.758 170.749 451.393 171.261 450.916 171.616C450.439 171.969 449.865 172.145 449.194 172.145ZM449.194 171.007C449.785 171.007 450.247 170.719 450.579 170.142C450.914 169.565 451.082 168.732 451.082 167.641C451.082 166.916 451.005 166.304 450.852 165.804C450.701 165.301 450.484 164.92 450.2 164.662C449.919 164.401 449.583 164.27 449.194 164.27C448.606 164.27 448.145 164.56 447.809 165.139C447.474 165.719 447.305 166.553 447.302 167.641C447.302 168.368 447.377 168.983 447.528 169.486C447.681 169.986 447.899 170.365 448.18 170.624C448.461 170.879 448.799 171.007 449.194 171.007ZM458.457 170.364V169.903C458.457 169.574 458.526 169.273 458.662 169C458.801 168.724 459.003 168.504 459.267 168.339C459.534 168.172 459.857 168.088 460.234 168.088C460.621 168.088 460.945 168.17 461.206 168.335C461.467 168.5 461.665 168.72 461.798 168.996C461.935 169.271 462.003 169.574 462.003 169.903V170.364C462.003 170.693 461.935 170.996 461.798 171.271C461.662 171.544 461.462 171.764 461.197 171.932C460.936 172.097 460.615 172.179 460.234 172.179C459.851 172.179 459.527 172.097 459.263 171.932C458.999 171.764 458.798 171.544 458.662 171.271C458.526 170.996 458.457 170.693 458.457 170.364ZM459.45 169.903V170.364C459.45 170.608 459.509 170.83 459.625 171.028C459.741 171.227 459.945 171.327 460.234 171.327C460.521 171.327 460.722 171.227 460.835 171.028C460.949 170.83 461.006 170.608 461.006 170.364V169.903C461.006 169.659 460.95 169.437 460.839 169.239C460.732 169.04 460.53 168.94 460.234 168.94C459.95 168.94 459.749 169.04 459.629 169.239C459.51 169.437 459.45 169.659 459.45 169.903ZM454.068 165.369V164.909C454.068 164.58 454.136 164.277 454.273 164.001C454.412 163.726 454.614 163.506 454.878 163.341C455.145 163.176 455.467 163.094 455.845 163.094C456.232 163.094 456.555 163.176 456.817 163.341C457.078 163.506 457.276 163.726 457.409 164.001C457.543 164.277 457.609 164.58 457.609 164.909V165.369C457.609 165.699 457.541 166.001 457.405 166.277C457.271 166.55 457.072 166.77 456.808 166.938C456.547 167.102 456.226 167.185 455.845 167.185C455.459 167.185 455.134 167.102 454.869 166.938C454.608 166.77 454.409 166.55 454.273 166.277C454.136 166.001 454.068 165.699 454.068 165.369ZM455.065 164.909V165.369C455.065 165.614 455.122 165.835 455.236 166.034C455.352 166.233 455.555 166.332 455.845 166.332C456.129 166.332 456.328 166.233 456.442 166.034C456.558 165.835 456.616 165.614 456.616 165.369V164.909C456.616 164.665 456.561 164.443 456.45 164.244C456.339 164.045 456.138 163.946 455.845 163.946C455.561 163.946 455.359 164.045 455.24 164.244C455.124 164.443 455.065 164.665 455.065 164.909ZM454.473 172L460.473 163.273H461.491L455.491 172H454.473Z"
        fill="#979797" />
      <rect x="75" y="238" width="140" height="10" rx="5" fill="#EFF3F9" />
      <rect x="75" y="238" width="4" height="10" rx="2" fill="url(#paint4_linear_1378_8305)" />
      <path
        d="M75.9588 227V218.273H77.2756V225.866H81.2301V227H75.9588ZM85.3871 227.132C84.7734 227.132 84.2379 226.991 83.7805 226.71C83.3232 226.429 82.968 226.036 82.7152 225.53C82.4624 225.024 82.3359 224.433 82.3359 223.757C82.3359 223.078 82.4624 222.484 82.7152 221.976C82.968 221.467 83.3232 221.072 83.7805 220.791C84.2379 220.51 84.7734 220.369 85.3871 220.369C86.0007 220.369 86.5362 220.51 86.9936 220.791C87.451 221.072 87.8061 221.467 88.0589 221.976C88.3118 222.484 88.4382 223.078 88.4382 223.757C88.4382 224.433 88.3118 225.024 88.0589 225.53C87.8061 226.036 87.451 226.429 86.9936 226.71C86.5362 226.991 86.0007 227.132 85.3871 227.132ZM85.3913 226.062C85.7891 226.062 86.1186 225.957 86.38 225.747C86.6413 225.537 86.8345 225.257 86.9595 224.908C87.0874 224.558 87.1513 224.173 87.1513 223.753C87.1513 223.335 87.0874 222.952 86.9595 222.602C86.8345 222.25 86.6413 221.967 86.38 221.754C86.1186 221.541 85.7891 221.435 85.3913 221.435C84.9908 221.435 84.6584 221.541 84.3942 221.754C84.1328 221.967 83.9382 222.25 83.8104 222.602C83.6854 222.952 83.6229 223.335 83.6229 223.753C83.6229 224.173 83.6854 224.558 83.8104 224.908C83.9382 225.257 84.1328 225.537 84.3942 225.747C84.6584 225.957 84.9908 226.062 85.3913 226.062ZM89.8604 227V220.455H91.092V221.494H91.1602C91.2795 221.142 91.4897 220.865 91.7908 220.663C92.0948 220.459 92.4386 220.357 92.8221 220.357C92.9016 220.357 92.9954 220.359 93.1033 220.365C93.2141 220.371 93.3008 220.378 93.3633 220.386V221.605C93.3121 221.591 93.2212 221.575 93.0906 221.558C92.9599 221.538 92.8292 221.528 92.6985 221.528C92.3974 221.528 92.1289 221.592 91.8931 221.72C91.6602 221.845 91.4755 222.02 91.3391 222.244C91.2028 222.466 91.1346 222.719 91.1346 223.003V227H89.8604ZM97.0526 227.132C96.4077 227.132 95.8523 226.994 95.3864 226.719C94.9233 226.44 94.5653 226.05 94.3125 225.547C94.0625 225.041 93.9375 224.449 93.9375 223.77C93.9375 223.099 94.0625 222.509 94.3125 221.997C94.5653 221.486 94.9176 221.087 95.3693 220.8C95.8239 220.513 96.3551 220.369 96.9631 220.369C97.3324 220.369 97.6903 220.43 98.0369 220.553C98.3835 220.675 98.6946 220.866 98.9702 221.128C99.2457 221.389 99.4631 221.729 99.6222 222.146C99.7813 222.561 99.8608 223.065 99.8608 223.659V224.111H94.6577V223.156H98.6122C98.6122 222.821 98.544 222.524 98.4077 222.266C98.2713 222.004 98.0795 221.798 97.8324 221.648C97.5881 221.497 97.3011 221.422 96.9716 221.422C96.6136 221.422 96.3011 221.51 96.0341 221.686C95.7699 221.859 95.5653 222.087 95.4205 222.368C95.2784 222.646 95.2074 222.949 95.2074 223.276V224.021C95.2074 224.459 95.2841 224.831 95.4375 225.138C95.5938 225.445 95.8111 225.679 96.0895 225.841C96.3679 226 96.6932 226.08 97.0653 226.08C97.3068 226.08 97.527 226.045 97.7259 225.977C97.9247 225.906 98.0966 225.801 98.2415 225.662C98.3864 225.523 98.4972 225.351 98.5739 225.146L99.7798 225.364C99.6832 225.719 99.5099 226.03 99.2599 226.297C99.0128 226.561 98.7017 226.767 98.3267 226.915C97.9545 227.06 97.5298 227.132 97.0526 227.132ZM101.275 227V220.455H102.498V221.52H102.578C102.715 221.159 102.938 220.878 103.248 220.676C103.557 220.472 103.928 220.369 104.36 220.369C104.797 220.369 105.164 220.472 105.459 220.676C105.757 220.881 105.978 221.162 106.12 221.52H106.188C106.344 221.17 106.593 220.892 106.934 220.685C107.275 220.474 107.681 220.369 108.152 220.369C108.746 220.369 109.23 220.555 109.605 220.928C109.983 221.3 110.172 221.861 110.172 222.611V227H108.898V222.73C108.898 222.287 108.777 221.966 108.536 221.767C108.294 221.568 108.006 221.469 107.671 221.469C107.256 221.469 106.934 221.597 106.703 221.852C106.473 222.105 106.358 222.43 106.358 222.828V227H105.088V222.649C105.088 222.294 104.978 222.009 104.756 221.793C104.534 221.577 104.246 221.469 103.891 221.469C103.65 221.469 103.426 221.533 103.222 221.661C103.02 221.786 102.857 221.96 102.732 222.185C102.61 222.409 102.549 222.669 102.549 222.964V227H101.275Z"
        fill="#4F4F4F" />
      <path
        d="M199.702 227.145C199.029 227.142 198.453 226.964 197.976 226.612C197.499 226.26 197.134 225.747 196.881 225.074C196.628 224.401 196.502 223.589 196.502 222.641C196.502 221.695 196.628 220.886 196.881 220.216C197.137 219.545 197.503 219.034 197.98 218.682C198.461 218.33 199.034 218.153 199.702 218.153C200.37 218.153 200.942 218.331 201.419 218.686C201.897 219.038 202.262 219.55 202.515 220.22C202.77 220.888 202.898 221.695 202.898 222.641C202.898 223.592 202.772 224.405 202.519 225.078C202.266 225.749 201.901 226.261 201.424 226.616C200.946 226.969 200.373 227.145 199.702 227.145ZM199.702 226.007C200.293 226.007 200.755 225.719 201.087 225.142C201.422 224.565 201.59 223.732 201.59 222.641C201.59 221.916 201.513 221.304 201.36 220.804C201.209 220.301 200.992 219.92 200.708 219.662C200.426 219.401 200.091 219.27 199.702 219.27C199.114 219.27 198.652 219.56 198.317 220.139C197.982 220.719 197.813 221.553 197.81 222.641C197.81 223.368 197.885 223.983 198.036 224.486C198.189 224.986 198.407 225.365 198.688 225.624C198.969 225.879 199.307 226.007 199.702 226.007ZM205.768 225.807L205.704 226.271C205.662 226.612 205.589 226.967 205.487 227.337C205.387 227.709 205.284 228.054 205.176 228.372C205.071 228.69 204.984 228.943 204.916 229.131H204.012C204.049 228.955 204.1 228.716 204.166 228.415C204.231 228.116 204.295 227.783 204.358 227.413C204.42 227.044 204.467 226.668 204.498 226.284L204.541 225.807H205.768ZM209.807 218.273V227H208.486V219.594H208.435L206.347 220.957V219.696L208.524 218.273H209.807ZM215.206 227.119C214.621 227.119 214.098 227.018 213.638 226.817C213.18 226.615 212.818 226.335 212.551 225.977C212.287 225.616 212.145 225.199 212.125 224.724H213.463C213.48 224.983 213.567 225.207 213.723 225.398C213.882 225.585 214.089 225.73 214.345 225.832C214.601 225.935 214.885 225.986 215.197 225.986C215.541 225.986 215.845 225.926 216.109 225.807C216.376 225.687 216.585 225.521 216.736 225.308C216.886 225.092 216.962 224.844 216.962 224.562C216.962 224.27 216.886 224.013 216.736 223.791C216.588 223.567 216.371 223.391 216.084 223.263C215.8 223.135 215.456 223.071 215.053 223.071H214.315V221.997H215.053C215.376 221.997 215.661 221.939 215.905 221.822C216.152 221.706 216.345 221.544 216.484 221.337C216.624 221.126 216.693 220.881 216.693 220.599C216.693 220.33 216.632 220.095 216.51 219.896C216.391 219.695 216.22 219.537 215.999 219.423C215.78 219.31 215.521 219.253 215.223 219.253C214.939 219.253 214.673 219.305 214.426 219.411C214.182 219.513 213.983 219.661 213.83 219.854C213.676 220.044 213.594 220.273 213.582 220.54H212.308C212.322 220.068 212.462 219.653 212.726 219.295C212.993 218.937 213.345 218.658 213.783 218.456C214.22 218.254 214.706 218.153 215.24 218.153C215.8 218.153 216.283 218.263 216.689 218.482C217.098 218.697 217.413 218.986 217.635 219.347C217.859 219.707 217.97 220.102 217.967 220.531C217.97 221.02 217.834 221.435 217.558 221.776C217.286 222.116 216.922 222.345 216.467 222.462V222.53C217.047 222.618 217.496 222.848 217.814 223.22C218.135 223.592 218.294 224.054 218.291 224.605C218.294 225.085 218.161 225.516 217.891 225.896C217.624 226.277 217.259 226.577 216.795 226.795C216.332 227.011 215.803 227.119 215.206 227.119ZM224.457 225.364V224.903C224.457 224.574 224.526 224.273 224.662 224C224.801 223.724 225.003 223.504 225.267 223.339C225.534 223.172 225.857 223.088 226.234 223.088C226.621 223.088 226.945 223.17 227.206 223.335C227.467 223.5 227.665 223.72 227.798 223.996C227.935 224.271 228.003 224.574 228.003 224.903V225.364C228.003 225.693 227.935 225.996 227.798 226.271C227.662 226.544 227.462 226.764 227.197 226.932C226.936 227.097 226.615 227.179 226.234 227.179C225.851 227.179 225.527 227.097 225.263 226.932C224.999 226.764 224.798 226.544 224.662 226.271C224.526 225.996 224.457 225.693 224.457 225.364ZM225.45 224.903V225.364C225.45 225.608 225.509 225.83 225.625 226.028C225.741 226.227 225.945 226.327 226.234 226.327C226.521 226.327 226.722 226.227 226.835 226.028C226.949 225.83 227.006 225.608 227.006 225.364V224.903C227.006 224.659 226.95 224.437 226.839 224.239C226.732 224.04 226.53 223.94 226.234 223.94C225.95 223.94 225.749 224.04 225.629 224.239C225.51 224.437 225.45 224.659 225.45 224.903ZM220.068 220.369V219.909C220.068 219.58 220.136 219.277 220.273 219.001C220.412 218.726 220.614 218.506 220.878 218.341C221.145 218.176 221.467 218.094 221.845 218.094C222.232 218.094 222.555 218.176 222.817 218.341C223.078 218.506 223.276 218.726 223.409 219.001C223.543 219.277 223.609 219.58 223.609 219.909V220.369C223.609 220.699 223.541 221.001 223.405 221.277C223.271 221.55 223.072 221.77 222.808 221.938C222.547 222.102 222.226 222.185 221.845 222.185C221.459 222.185 221.134 222.102 220.869 221.938C220.608 221.77 220.409 221.55 220.273 221.277C220.136 221.001 220.068 220.699 220.068 220.369ZM221.065 219.909V220.369C221.065 220.614 221.122 220.835 221.236 221.034C221.352 221.233 221.555 221.332 221.845 221.332C222.129 221.332 222.328 221.233 222.442 221.034C222.558 220.835 222.616 220.614 222.616 220.369V219.909C222.616 219.665 222.561 219.443 222.45 219.244C222.339 219.045 222.138 218.946 221.845 218.946C221.561 218.946 221.359 219.045 221.24 219.244C221.124 219.443 221.065 219.665 221.065 219.909ZM220.473 227L226.473 218.273H227.491L221.491 227H220.473Z"
        fill="#979797" />
      <rect x="295" y="237" width="140" height="10" rx="5" fill="#EFF3F9" />
      <rect x="295" y="237" width="15" height="10" rx="5" fill="url(#paint5_linear_1378_8305)" />
      <path
        d="M295.959 226V217.273H297.276V224.866H301.23V226H295.959ZM305.387 226.132C304.773 226.132 304.238 225.991 303.781 225.71C303.323 225.429 302.968 225.036 302.715 224.53C302.462 224.024 302.336 223.433 302.336 222.757C302.336 222.078 302.462 221.484 302.715 220.976C302.968 220.467 303.323 220.072 303.781 219.791C304.238 219.51 304.773 219.369 305.387 219.369C306.001 219.369 306.536 219.51 306.994 219.791C307.451 220.072 307.806 220.467 308.059 220.976C308.312 221.484 308.438 222.078 308.438 222.757C308.438 223.433 308.312 224.024 308.059 224.53C307.806 225.036 307.451 225.429 306.994 225.71C306.536 225.991 306.001 226.132 305.387 226.132ZM305.391 225.062C305.789 225.062 306.119 224.957 306.38 224.747C306.641 224.537 306.835 224.257 306.96 223.908C307.087 223.558 307.151 223.173 307.151 222.753C307.151 222.335 307.087 221.952 306.96 221.602C306.835 221.25 306.641 220.967 306.38 220.754C306.119 220.541 305.789 220.435 305.391 220.435C304.991 220.435 304.658 220.541 304.394 220.754C304.133 220.967 303.938 221.25 303.81 221.602C303.685 221.952 303.623 222.335 303.623 222.753C303.623 223.173 303.685 223.558 303.81 223.908C303.938 224.257 304.133 224.537 304.394 224.747C304.658 224.957 304.991 225.062 305.391 225.062ZM309.86 226V219.455H311.092V220.494H311.16C311.279 220.142 311.49 219.865 311.791 219.663C312.095 219.459 312.439 219.357 312.822 219.357C312.902 219.357 312.995 219.359 313.103 219.365C313.214 219.371 313.301 219.378 313.363 219.386V220.605C313.312 220.591 313.221 220.575 313.091 220.558C312.96 220.538 312.829 220.528 312.699 220.528C312.397 220.528 312.129 220.592 311.893 220.72C311.66 220.845 311.475 221.02 311.339 221.244C311.203 221.466 311.135 221.719 311.135 222.003V226H309.86ZM317.053 226.132C316.408 226.132 315.852 225.994 315.386 225.719C314.923 225.44 314.565 225.05 314.312 224.547C314.062 224.041 313.938 223.449 313.938 222.77C313.938 222.099 314.062 221.509 314.312 220.997C314.565 220.486 314.918 220.087 315.369 219.8C315.824 219.513 316.355 219.369 316.963 219.369C317.332 219.369 317.69 219.43 318.037 219.553C318.384 219.675 318.695 219.866 318.97 220.128C319.246 220.389 319.463 220.729 319.622 221.146C319.781 221.561 319.861 222.065 319.861 222.659V223.111H314.658V222.156H318.612C318.612 221.821 318.544 221.524 318.408 221.266C318.271 221.004 318.08 220.798 317.832 220.648C317.588 220.497 317.301 220.422 316.972 220.422C316.614 220.422 316.301 220.51 316.034 220.686C315.77 220.859 315.565 221.087 315.42 221.368C315.278 221.646 315.207 221.949 315.207 222.276V223.021C315.207 223.459 315.284 223.831 315.438 224.138C315.594 224.445 315.811 224.679 316.089 224.841C316.368 225 316.693 225.08 317.065 225.08C317.307 225.08 317.527 225.045 317.726 224.977C317.925 224.906 318.097 224.801 318.241 224.662C318.386 224.523 318.497 224.351 318.574 224.146L319.78 224.364C319.683 224.719 319.51 225.03 319.26 225.297C319.013 225.561 318.702 225.767 318.327 225.915C317.955 226.06 317.53 226.132 317.053 226.132ZM321.275 226V219.455H322.498V220.52H322.578C322.715 220.159 322.938 219.878 323.248 219.676C323.557 219.472 323.928 219.369 324.36 219.369C324.797 219.369 325.164 219.472 325.459 219.676C325.757 219.881 325.978 220.162 326.12 220.52H326.188C326.344 220.17 326.593 219.892 326.934 219.685C327.275 219.474 327.681 219.369 328.152 219.369C328.746 219.369 329.23 219.555 329.605 219.928C329.983 220.3 330.172 220.861 330.172 221.611V226H328.898V221.73C328.898 221.287 328.777 220.966 328.536 220.767C328.294 220.568 328.006 220.469 327.671 220.469C327.256 220.469 326.934 220.597 326.703 220.852C326.473 221.105 326.358 221.43 326.358 221.828V226H325.088V221.649C325.088 221.294 324.978 221.009 324.756 220.793C324.534 220.577 324.246 220.469 323.891 220.469C323.65 220.469 323.426 220.533 323.222 220.661C323.02 220.786 322.857 220.96 322.732 221.185C322.61 221.409 322.549 221.669 322.549 221.964V226H321.275Z"
        fill="#4F4F4F" />
      <path
        d="M434.221 217.273V226H432.9V218.594H432.849L430.761 219.957V218.696L432.938 217.273H434.221ZM437.752 224.807L437.689 225.271C437.646 225.612 437.574 225.967 437.471 226.337C437.372 226.709 437.268 227.054 437.16 227.372C437.055 227.69 436.968 227.943 436.9 228.131H435.997C436.034 227.955 436.085 227.716 436.15 227.415C436.216 227.116 436.279 226.783 436.342 226.413C436.404 226.044 436.451 225.668 436.483 225.284L436.525 224.807H437.752ZM442.257 226.119C441.672 226.119 441.149 226.018 440.689 225.817C440.231 225.615 439.869 225.335 439.602 224.977C439.338 224.616 439.196 224.199 439.176 223.724H440.514C440.531 223.983 440.618 224.207 440.774 224.398C440.933 224.585 441.14 224.73 441.396 224.832C441.652 224.935 441.936 224.986 442.248 224.986C442.592 224.986 442.896 224.926 443.16 224.807C443.427 224.687 443.636 224.521 443.787 224.308C443.937 224.092 444.012 223.844 444.012 223.562C444.012 223.27 443.937 223.013 443.787 222.791C443.639 222.567 443.422 222.391 443.135 222.263C442.85 222.135 442.507 222.071 442.103 222.071H441.366V220.997H442.103C442.427 220.997 442.711 220.939 442.956 220.822C443.203 220.706 443.396 220.544 443.535 220.337C443.674 220.126 443.744 219.881 443.744 219.599C443.744 219.33 443.683 219.095 443.561 218.896C443.441 218.695 443.271 218.537 443.049 218.423C442.831 218.31 442.572 218.253 442.274 218.253C441.99 218.253 441.724 218.305 441.477 218.411C441.233 218.513 441.034 218.661 440.88 218.854C440.727 219.044 440.645 219.273 440.633 219.54H439.359C439.373 219.068 439.512 218.653 439.777 218.295C440.044 217.937 440.396 217.658 440.833 217.456C441.271 217.254 441.757 217.153 442.291 217.153C442.85 217.153 443.333 217.263 443.74 217.482C444.149 217.697 444.464 217.986 444.686 218.347C444.91 218.707 445.021 219.102 445.018 219.531C445.021 220.02 444.885 220.435 444.609 220.776C444.336 221.116 443.973 221.345 443.518 221.462V221.53C444.098 221.618 444.547 221.848 444.865 222.22C445.186 222.592 445.345 223.054 445.342 223.605C445.345 224.085 445.211 224.516 444.941 224.896C444.674 225.277 444.309 225.577 443.846 225.795C443.383 226.011 442.853 226.119 442.257 226.119ZM447.247 226L451.056 218.466V218.402H446.65V217.273H452.42V218.44L448.623 226H447.247ZM458.457 224.364V223.903C458.457 223.574 458.526 223.273 458.662 223C458.801 222.724 459.003 222.504 459.267 222.339C459.534 222.172 459.857 222.088 460.234 222.088C460.621 222.088 460.945 222.17 461.206 222.335C461.467 222.5 461.665 222.72 461.798 222.996C461.935 223.271 462.003 223.574 462.003 223.903V224.364C462.003 224.693 461.935 224.996 461.798 225.271C461.662 225.544 461.462 225.764 461.197 225.932C460.936 226.097 460.615 226.179 460.234 226.179C459.851 226.179 459.527 226.097 459.263 225.932C458.999 225.764 458.798 225.544 458.662 225.271C458.526 224.996 458.457 224.693 458.457 224.364ZM459.45 223.903V224.364C459.45 224.608 459.509 224.83 459.625 225.028C459.741 225.227 459.945 225.327 460.234 225.327C460.521 225.327 460.722 225.227 460.835 225.028C460.949 224.83 461.006 224.608 461.006 224.364V223.903C461.006 223.659 460.95 223.437 460.839 223.239C460.732 223.04 460.53 222.94 460.234 222.94C459.95 222.94 459.749 223.04 459.629 223.239C459.51 223.437 459.45 223.659 459.45 223.903ZM454.068 219.369V218.909C454.068 218.58 454.136 218.277 454.273 218.001C454.412 217.726 454.614 217.506 454.878 217.341C455.145 217.176 455.467 217.094 455.845 217.094C456.232 217.094 456.555 217.176 456.817 217.341C457.078 217.506 457.276 217.726 457.409 218.001C457.543 218.277 457.609 218.58 457.609 218.909V219.369C457.609 219.699 457.541 220.001 457.405 220.277C457.271 220.55 457.072 220.77 456.808 220.938C456.547 221.102 456.226 221.185 455.845 221.185C455.459 221.185 455.134 221.102 454.869 220.938C454.608 220.77 454.409 220.55 454.273 220.277C454.136 220.001 454.068 219.699 454.068 219.369ZM455.065 218.909V219.369C455.065 219.614 455.122 219.835 455.236 220.034C455.352 220.233 455.555 220.332 455.845 220.332C456.129 220.332 456.328 220.233 456.442 220.034C456.558 219.835 456.616 219.614 456.616 219.369V218.909C456.616 218.665 456.561 218.443 456.45 218.244C456.339 218.045 456.138 217.946 455.845 217.946C455.561 217.946 455.359 218.045 455.24 218.244C455.124 218.443 455.065 218.665 455.065 218.909ZM454.473 226L460.473 217.273H461.491L455.491 226H454.473Z"
        fill="#979797" />
      <defs>
        <filter id="filter0_d_1378_8305" x="0" y="0" width="550" height="342" filterUnits="userSpaceOnUse"
          color-interpolation-filters="sRGB">
          <feFlood flood-opacity="0" result="BackgroundImageFix" />
          <feColorMatrix in="SourceAlpha" type="matrix" values="0 0 0 0 0 0 0 0 0 0 0 0 0 0 0 0 0 0 127 0"
            result="hardAlpha" />
          <feOffset dy="15" />
          <feGaussianBlur stdDeviation="25" />
          <feComposite in2="hardAlpha" operator="out" />
          <feColorMatrix type="matrix" values="0 0 0 0 0.627451 0 0 0 0 0.639216 0 0 0 0 0.741176 0 0 0 0.1 0" />
          <feBlend mode="normal" in2="BackgroundImageFix" result="effect1_dropShadow_1378_8305" />
          <feBlend mode="normal" in="SourceGraphic" in2="effect1_dropShadow_1378_8305" result="shape" />
        </filter>
        <linearGradient id="paint0_linear_1378_8305" x1="295" y1="130" x2="300.891" y2="141.785"
          gradientUnits="userSpaceOnUse">
          <stop stop-color="#282B80" />
          <stop offset="0.969835" stop-color="#28A745" />
        </linearGradient>
        <linearGradient id="paint1_linear_1378_8305" x1="75" y1="185" x2="82.1191" y2="190.478"
          gradientUnits="userSpaceOnUse">
          <stop stop-color="#282B80" />
          <stop offset="0.969835" stop-color="#28A745" />
        </linearGradient>
        <linearGradient id="paint2_linear_1378_8305" x1="75" y1="131" x2="75.7458" y2="145.692"
          gradientUnits="userSpaceOnUse">
          <stop stop-color="#282B80" />
          <stop offset="0.969835" stop-color="#28A745" />
        </linearGradient>
        <linearGradient id="paint3_linear_1378_8305" x1="295" y1="184" x2="302.119" y2="189.478"
          gradientUnits="userSpaceOnUse">
          <stop stop-color="#282B80" />
          <stop offset="0.969835" stop-color="#28A745" />
        </linearGradient>
        <linearGradient id="paint4_linear_1378_8305" x1="75" y1="238" x2="81.5757" y2="242.048"
          gradientUnits="userSpaceOnUse">
          <stop stop-color="#282B80" />
          <stop offset="0.969835" stop-color="#28A745" />
        </linearGradient>
        <linearGradient id="paint5_linear_1378_8305" x1="295" y1="237" x2="300.372" y2="249.402"
          gradientUnits="userSpaceOnUse">
          <stop stop-color="#282B80" />
          <stop offset="0.969835" stop-color="#28A745" />
        </linearGradient>
      </defs>
    </svg>
