<?xml version="1.0" encoding="utf-8"?>
<!-- Generator: Adobe Illustrator 24.3.0, SVG Export Plug-In . SVG Version: 6.00 Build 0)  -->
<svg version="1.1" id="Layer_1" xmlns="http://www.w3.org/2000/svg" xmlns:xlink="http://www.w3.org/1999/xlink" x="0px" y="0px"
	 viewBox="0 0 456 242" style="enable-background:new 0 0 456 242;" xml:space="preserve">
<style type="text/css">
	.st0{fill:#FFFFFF;}
	.st1{fill:#4F4F4F;}
	.st2{fill:#979797;}
	.st3{fill:#EFF3F9;}
	.st4{fill:url(#SVGID_1_);}
	.st5{fill:url(#SVGID_2_);}
	.st6{fill:url(#SVGID_3_);}
	.st7{fill:url(#SVGID_4_);}
	.st8{fill:url(#SVGID_5_);}
	.st9{fill:url(#SVGID_6_);}
</style>
<g>
	<path class="st0" d="M13,0.5h430c7.2,0,13,5.8,13,13v216c0,7.2-5.8,13-13,13H13c-7.2,0-13-5.8-13-13v-216C0,6.3,5.8,0.5,13,0.5z"/>
</g>
<path class="st1" d="M25.3,45.5V31H31c1.1,0,2,0.2,2.8,0.6c0.8,0.4,1.4,1,1.8,1.7c0.4,0.7,0.6,1.6,0.6,2.6c0,1-0.2,1.8-0.6,2.6
	c-0.4,0.7-1,1.3-1.8,1.7c-0.8,0.4-1.7,0.6-2.9,0.6h-3.7v-2.5h3.2c0.6,0,1.1-0.1,1.5-0.3c0.4-0.2,0.7-0.5,0.9-0.9
	c0.2-0.4,0.3-0.8,0.3-1.3c0-0.5-0.1-0.9-0.3-1.3c-0.2-0.4-0.5-0.6-0.9-0.8c-0.4-0.2-0.9-0.3-1.5-0.3h-2.1v12H25.3z M42.9,45.7
	c-1.1,0-2.1-0.2-2.9-0.7c-0.8-0.5-1.4-1.1-1.9-2c-0.4-0.8-0.7-1.8-0.7-2.9c0-1.1,0.2-2.1,0.7-3c0.4-0.8,1.1-1.5,1.9-2
	c0.8-0.5,1.8-0.7,2.9-0.7c1.1,0,2.1,0.2,2.9,0.7c0.8,0.5,1.4,1.1,1.9,2c0.4,0.8,0.7,1.8,0.7,3c0,1.1-0.2,2.1-0.7,2.9
	c-0.4,0.8-1.1,1.5-1.9,2C45,45.5,44,45.7,42.9,45.7z M42.9,43.4c0.5,0,0.9-0.1,1.3-0.4c0.3-0.3,0.6-0.7,0.8-1.2
	c0.2-0.5,0.3-1.1,0.3-1.7c0-0.6-0.1-1.2-0.3-1.7c-0.2-0.5-0.4-0.9-0.8-1.2c-0.3-0.3-0.8-0.4-1.3-0.4c-0.5,0-0.9,0.1-1.3,0.4
	c-0.3,0.3-0.6,0.7-0.8,1.2c-0.2,0.5-0.3,1.1-0.3,1.7c0,0.6,0.1,1.2,0.3,1.7c0.2,0.5,0.4,0.9,0.8,1.2C42,43.2,42.4,43.4,42.9,43.4z
	 M52.1,45.5l-3-10.9h3.1l1.7,7.3H54l1.8-7.3h3l1.8,7.3h0.1l1.7-7.3h3.1l-3,10.9h-3.2l-1.9-6.9h-0.1l-1.9,6.9H52.1z M71.7,45.7
	c-1.1,0-2.1-0.2-2.9-0.7c-0.8-0.5-1.4-1.1-1.9-1.9c-0.4-0.8-0.7-1.8-0.7-3c0-1.1,0.2-2.1,0.7-3c0.4-0.8,1-1.5,1.8-2
	c0.8-0.5,1.7-0.7,2.8-0.7c0.7,0,1.4,0.1,2,0.3c0.6,0.2,1.2,0.6,1.6,1c0.5,0.5,0.8,1,1.1,1.7c0.3,0.7,0.4,1.5,0.4,2.4v0.8h-9.2v-1.9
	h6.4c0-0.4-0.1-0.8-0.3-1.2c-0.2-0.3-0.5-0.6-0.8-0.8c-0.3-0.2-0.7-0.3-1.2-0.3c-0.5,0-0.9,0.1-1.2,0.3c-0.3,0.2-0.6,0.5-0.8,0.8
	c-0.2,0.4-0.3,0.7-0.3,1.2v1.8c0,0.5,0.1,1,0.3,1.4c0.2,0.4,0.5,0.7,0.9,0.9c0.4,0.2,0.8,0.3,1.3,0.3c0.3,0,0.6,0,0.9-0.1
	s0.5-0.2,0.7-0.4s0.4-0.4,0.5-0.7l2.8,0.2c-0.1,0.7-0.4,1.3-0.9,1.8c-0.4,0.5-1,0.9-1.7,1.2C73.4,45.6,72.6,45.7,71.7,45.7z
	 M78.7,45.5V34.6h2.9v1.9h0.1c0.2-0.7,0.5-1.2,1-1.5c0.5-0.4,1-0.5,1.6-0.5c0.2,0,0.3,0,0.5,0c0.2,0,0.3,0,0.5,0.1v2.7
	c-0.1,0-0.3-0.1-0.6-0.1c-0.3,0-0.5,0-0.7,0c-0.4,0-0.8,0.1-1.2,0.3c-0.3,0.2-0.6,0.5-0.8,0.8c-0.2,0.3-0.3,0.7-0.3,1.2v6.2H78.7z
	 M91.5,45.5V31h5.8c1.1,0,2,0.2,2.7,0.5s1.3,0.8,1.6,1.3c0.4,0.6,0.5,1.2,0.5,1.9c0,0.6-0.1,1.1-0.3,1.5c-0.2,0.4-0.5,0.8-0.9,1.1
	c-0.4,0.3-0.8,0.5-1.3,0.6V38c0.6,0,1.1,0.2,1.6,0.5c0.5,0.3,0.9,0.7,1.2,1.2c0.3,0.5,0.5,1.1,0.5,1.8c0,0.8-0.2,1.5-0.6,2.1
	c-0.4,0.6-0.9,1.1-1.7,1.4c-0.7,0.4-1.7,0.5-2.7,0.5H91.5z M94.6,43h2.5c0.9,0,1.5-0.2,1.9-0.5c0.4-0.3,0.6-0.8,0.6-1.3
	c0-0.4-0.1-0.8-0.3-1.1c-0.2-0.3-0.5-0.5-0.8-0.7c-0.4-0.2-0.8-0.3-1.3-0.3h-2.6V43z M94.6,37h2.3c0.4,0,0.8-0.1,1.1-0.2
	c0.3-0.2,0.6-0.4,0.8-0.6c0.2-0.3,0.3-0.6,0.3-1c0-0.5-0.2-0.9-0.6-1.3c-0.4-0.3-0.9-0.5-1.6-0.5h-2.3V37z M104.7,45.5V34.6h3v10.9
	H104.7z M106.2,33.2c-0.4,0-0.8-0.1-1.2-0.4c-0.3-0.3-0.5-0.7-0.5-1.1c0-0.4,0.2-0.8,0.5-1.1c0.3-0.3,0.7-0.5,1.2-0.5
	c0.5,0,0.8,0.2,1.2,0.5c0.3,0.3,0.5,0.7,0.5,1.1c0,0.4-0.2,0.8-0.5,1.1C107.1,33,106.7,33.2,106.2,33.2z"/>
<path class="st1" d="M333.4,42.5v-8.7h1.6v7.4h3.8v1.3H333.4z M343,42.6c-0.6,0-1.2-0.1-1.7-0.4c-0.5-0.3-0.8-0.7-1.1-1.2
	c-0.3-0.5-0.4-1.1-0.4-1.8c0-0.7,0.1-1.3,0.4-1.8c0.3-0.5,0.6-0.9,1.1-1.2c0.5-0.3,1-0.4,1.7-0.4c0.6,0,1.2,0.1,1.7,0.4
	c0.5,0.3,0.8,0.7,1.1,1.2c0.3,0.5,0.4,1.1,0.4,1.8c0,0.7-0.1,1.3-0.4,1.8c-0.3,0.5-0.6,0.9-1.1,1.2C344.2,42.5,343.6,42.6,343,42.6z
	 M343,41.4c0.3,0,0.6-0.1,0.9-0.3c0.2-0.2,0.4-0.5,0.5-0.8c0.1-0.3,0.2-0.7,0.2-1.1c0-0.4-0.1-0.8-0.2-1.1c-0.1-0.3-0.3-0.6-0.5-0.8
	s-0.5-0.3-0.9-0.3c-0.4,0-0.6,0.1-0.9,0.3c-0.2,0.2-0.4,0.5-0.5,0.8c-0.1,0.3-0.2,0.7-0.2,1.1c0,0.4,0.1,0.8,0.2,1.1
	c0.1,0.3,0.3,0.6,0.5,0.8C342.3,41.3,342.6,41.4,343,41.4z M347.4,42.5V36h1.5V37h0.1c0.1-0.4,0.3-0.7,0.6-0.9
	c0.3-0.2,0.6-0.3,1-0.3c0.1,0,0.2,0,0.3,0c0.1,0,0.2,0,0.3,0v1.4c-0.1,0-0.2,0-0.3-0.1c-0.1,0-0.3,0-0.4,0c-0.3,0-0.5,0.1-0.8,0.2
	c-0.2,0.1-0.4,0.3-0.5,0.5c-0.1,0.2-0.2,0.5-0.2,0.7v3.8H347.4z M354.8,42.6c-0.7,0-1.2-0.1-1.7-0.4c-0.5-0.3-0.8-0.7-1.1-1.2
	c-0.3-0.5-0.4-1.1-0.4-1.8c0-0.7,0.1-1.3,0.4-1.8c0.3-0.5,0.6-0.9,1.1-1.2c0.5-0.3,1-0.4,1.6-0.4c0.4,0,0.8,0.1,1.1,0.2
	c0.4,0.1,0.7,0.3,1,0.6c0.3,0.3,0.5,0.6,0.7,1c0.2,0.4,0.2,0.9,0.2,1.5v0.5h-5.4v-1h3.9c0-0.3-0.1-0.6-0.2-0.8
	c-0.1-0.2-0.3-0.4-0.5-0.5c-0.2-0.1-0.5-0.2-0.8-0.2c-0.3,0-0.6,0.1-0.8,0.2c-0.2,0.2-0.4,0.3-0.6,0.6c-0.1,0.2-0.2,0.5-0.2,0.8v0.9
	c0,0.4,0.1,0.7,0.2,1c0.1,0.3,0.3,0.5,0.6,0.6c0.2,0.1,0.5,0.2,0.9,0.2c0.2,0,0.4,0,0.6-0.1c0.2-0.1,0.3-0.2,0.5-0.3
	c0.1-0.1,0.2-0.3,0.3-0.5l1.4,0.2c-0.1,0.4-0.3,0.7-0.5,1c-0.3,0.3-0.6,0.5-1,0.7C355.8,42.6,355.3,42.6,354.8,42.6z M359,42.5V36
	h1.5v1.1h0.1c0.1-0.4,0.4-0.7,0.7-0.9c0.3-0.2,0.7-0.3,1.1-0.3c0.4,0,0.8,0.1,1.1,0.3c0.3,0.2,0.5,0.5,0.6,0.9h0.1
	c0.1-0.4,0.4-0.7,0.7-0.9c0.3-0.2,0.8-0.3,1.2-0.3c0.6,0,1.1,0.2,1.5,0.6c0.4,0.4,0.6,0.9,0.6,1.7v4.4h-1.5v-4.2
	c0-0.4-0.1-0.7-0.3-0.9c-0.2-0.2-0.5-0.3-0.8-0.3c-0.4,0-0.7,0.1-0.9,0.3c-0.2,0.2-0.3,0.5-0.3,0.9v4.1h-1.5v-4.2
	c0-0.3-0.1-0.6-0.3-0.8c-0.2-0.2-0.5-0.3-0.8-0.3c-0.2,0-0.4,0.1-0.6,0.2c-0.2,0.1-0.3,0.3-0.4,0.5c-0.1,0.2-0.2,0.4-0.2,0.7v4H359z
	"/>
<path class="st2" d="M381.9,42.5v-8.7h1.3v7.6h4v1.1H381.9z M391.4,42.6c-0.6,0-1.2-0.1-1.6-0.4c-0.5-0.3-0.8-0.7-1.1-1.2
	c-0.3-0.5-0.4-1.1-0.4-1.8c0-0.7,0.1-1.3,0.4-1.8c0.3-0.5,0.6-0.9,1.1-1.2c0.5-0.3,1-0.4,1.6-0.4c0.6,0,1.1,0.1,1.6,0.4
	c0.5,0.3,0.8,0.7,1.1,1.2c0.3,0.5,0.4,1.1,0.4,1.8c0,0.7-0.1,1.3-0.4,1.8c-0.3,0.5-0.6,0.9-1.1,1.2C392.5,42.5,392,42.6,391.4,42.6z
	 M391.4,41.6c0.4,0,0.7-0.1,1-0.3c0.3-0.2,0.5-0.5,0.6-0.8c0.1-0.3,0.2-0.7,0.2-1.2c0-0.4-0.1-0.8-0.2-1.2c-0.1-0.4-0.3-0.6-0.6-0.8
	c-0.3-0.2-0.6-0.3-1-0.3c-0.4,0-0.7,0.1-1,0.3c-0.3,0.2-0.5,0.5-0.6,0.8c-0.1,0.3-0.2,0.7-0.2,1.2c0,0.4,0.1,0.8,0.2,1.2
	c0.1,0.3,0.3,0.6,0.6,0.8C390.6,41.5,391,41.6,391.4,41.6z M395.8,42.5V36h1.2v1h0.1c0.1-0.4,0.3-0.6,0.6-0.8c0.3-0.2,0.6-0.3,1-0.3
	c0.1,0,0.2,0,0.3,0c0.1,0,0.2,0,0.3,0v1.2c-0.1,0-0.1,0-0.3,0c-0.1,0-0.3,0-0.4,0c-0.3,0-0.6,0.1-0.8,0.2c-0.2,0.1-0.4,0.3-0.6,0.5
	c-0.1,0.2-0.2,0.5-0.2,0.8v4H395.8z M403,42.6c-0.6,0-1.2-0.1-1.7-0.4c-0.5-0.3-0.8-0.7-1.1-1.2c-0.2-0.5-0.4-1.1-0.4-1.8
	c0-0.7,0.1-1.3,0.4-1.8c0.3-0.5,0.6-0.9,1.1-1.2c0.5-0.3,1-0.4,1.6-0.4c0.4,0,0.7,0.1,1.1,0.2c0.3,0.1,0.7,0.3,0.9,0.6
	c0.3,0.3,0.5,0.6,0.7,1c0.2,0.4,0.2,0.9,0.2,1.5v0.5h-5.2v-1h4c0-0.3-0.1-0.6-0.2-0.9c-0.1-0.3-0.3-0.5-0.6-0.6
	c-0.2-0.2-0.5-0.2-0.9-0.2c-0.4,0-0.7,0.1-0.9,0.3c-0.3,0.2-0.5,0.4-0.6,0.7c-0.1,0.3-0.2,0.6-0.2,0.9v0.7c0,0.4,0.1,0.8,0.2,1.1
	c0.2,0.3,0.4,0.5,0.7,0.7c0.3,0.2,0.6,0.2,1,0.2c0.2,0,0.5,0,0.7-0.1c0.2-0.1,0.4-0.2,0.5-0.3c0.1-0.1,0.3-0.3,0.3-0.5l1.2,0.2
	c-0.1,0.4-0.3,0.7-0.5,0.9c-0.2,0.3-0.6,0.5-0.9,0.6C403.9,42.6,403.5,42.6,403,42.6z M407.3,42.5V36h1.2V37h0.1
	c0.1-0.4,0.4-0.6,0.7-0.8c0.3-0.2,0.7-0.3,1.1-0.3c0.4,0,0.8,0.1,1.1,0.3c0.3,0.2,0.5,0.5,0.7,0.8h0.1c0.2-0.3,0.4-0.6,0.7-0.8
	c0.3-0.2,0.7-0.3,1.2-0.3c0.6,0,1.1,0.2,1.5,0.6c0.4,0.4,0.6,0.9,0.6,1.7v4.4h-1.3v-4.3c0-0.4-0.1-0.8-0.4-1
	c-0.2-0.2-0.5-0.3-0.9-0.3c-0.4,0-0.7,0.1-1,0.4c-0.2,0.3-0.3,0.6-0.3,1v4.2h-1.3v-4.4c0-0.4-0.1-0.6-0.3-0.9
	c-0.2-0.2-0.5-0.3-0.9-0.3c-0.2,0-0.5,0.1-0.7,0.2c-0.2,0.1-0.4,0.3-0.5,0.5c-0.1,0.2-0.2,0.5-0.2,0.8v4H407.3z"/>
<path class="st3" d="M252,95.5h130c2.8,0,5,2.2,5,5l0,0c0,2.8-2.2,5-5,5H252c-2.8,0-5-2.2-5-5l0,0C247,97.7,249.2,95.5,252,95.5z"/>
<linearGradient id="SVGID_1_" gradientUnits="userSpaceOnUse" x1="250.2009" y1="148.9897" x2="256.0919" y2="137.2047" gradientTransform="matrix(1 0 0 -1 0 242.8897)">
	<stop  offset="0" style="stop-color:#282B80"/>
	<stop  offset="0.9698" style="stop-color:#28A745"/>
</linearGradient>
<path class="st4" d="M252,95.5h3c2.8,0,5,2.2,5,5l0,0c0,2.8-2.2,5-5,5h-3c-2.8,0-5-2.2-5-5l0,0C247,97.7,249.2,95.5,252,95.5z"/>
<path class="st1" d="M248,84.5v-8.7h1.3v7.6h4v1.1H248z M257.4,84.6c-0.6,0-1.1-0.1-1.6-0.4c-0.5-0.3-0.8-0.7-1.1-1.2
	c-0.3-0.5-0.4-1.1-0.4-1.8c0-0.7,0.1-1.3,0.4-1.8c0.3-0.5,0.6-0.9,1.1-1.2c0.5-0.3,1-0.4,1.6-0.4c0.6,0,1.1,0.1,1.6,0.4
	c0.5,0.3,0.8,0.7,1.1,1.2c0.3,0.5,0.4,1.1,0.4,1.8c0,0.7-0.1,1.3-0.4,1.8c-0.3,0.5-0.6,0.9-1.1,1.2C258.5,84.5,258,84.6,257.4,84.6z
	 M257.4,83.6c0.4,0,0.7-0.1,1-0.3c0.3-0.2,0.5-0.5,0.6-0.8c0.1-0.3,0.2-0.7,0.2-1.2c0-0.4-0.1-0.8-0.2-1.2c-0.1-0.4-0.3-0.6-0.6-0.8
	c-0.3-0.2-0.6-0.3-1-0.3c-0.4,0-0.7,0.1-1,0.3c-0.3,0.2-0.5,0.5-0.6,0.8c-0.1,0.4-0.2,0.7-0.2,1.2c0,0.4,0.1,0.8,0.2,1.2
	c0.1,0.3,0.3,0.6,0.6,0.8C256.7,83.5,257,83.6,257.4,83.6z M261.9,84.5V78h1.2v1h0.1c0.1-0.4,0.3-0.6,0.6-0.8c0.3-0.2,0.6-0.3,1-0.3
	c0.1,0,0.2,0,0.3,0c0.1,0,0.2,0,0.3,0v1.2c-0.1,0-0.1,0-0.3,0c-0.1,0-0.3,0-0.4,0c-0.3,0-0.6,0.1-0.8,0.2c-0.2,0.1-0.4,0.3-0.6,0.5
	c-0.1,0.2-0.2,0.5-0.2,0.8v4H261.9z M269.1,84.6c-0.6,0-1.2-0.1-1.7-0.4c-0.5-0.3-0.8-0.7-1.1-1.2c-0.2-0.5-0.4-1.1-0.4-1.8
	c0-0.7,0.1-1.3,0.4-1.8c0.3-0.5,0.6-0.9,1.1-1.2c0.5-0.3,1-0.4,1.6-0.4c0.4,0,0.7,0.1,1.1,0.2c0.3,0.1,0.7,0.3,0.9,0.6
	c0.3,0.3,0.5,0.6,0.7,1c0.2,0.4,0.2,0.9,0.2,1.5v0.5h-5.2v-1h4c0-0.3-0.1-0.6-0.2-0.9c-0.1-0.3-0.3-0.5-0.6-0.6
	c-0.2-0.2-0.5-0.2-0.9-0.2c-0.4,0-0.7,0.1-0.9,0.3c-0.3,0.2-0.5,0.4-0.6,0.7c-0.1,0.3-0.2,0.6-0.2,0.9v0.7c0,0.4,0.1,0.8,0.2,1.1
	c0.2,0.3,0.4,0.5,0.7,0.7c0.3,0.2,0.6,0.2,1,0.2c0.2,0,0.5,0,0.7-0.1c0.2-0.1,0.4-0.2,0.5-0.3c0.1-0.1,0.3-0.3,0.3-0.5l1.2,0.2
	c-0.1,0.4-0.3,0.7-0.5,0.9c-0.2,0.3-0.6,0.5-0.9,0.6C270,84.6,269.5,84.6,269.1,84.6z M273.3,84.5V78h1.2V79h0.1
	c0.1-0.4,0.4-0.6,0.7-0.8c0.3-0.2,0.7-0.3,1.1-0.3c0.4,0,0.8,0.1,1.1,0.3c0.3,0.2,0.5,0.5,0.7,0.8h0.1c0.2-0.3,0.4-0.6,0.7-0.8
	c0.3-0.2,0.7-0.3,1.2-0.3c0.6,0,1.1,0.2,1.5,0.6c0.4,0.4,0.6,0.9,0.6,1.7v4.4h-1.3v-4.3c0-0.4-0.1-0.8-0.4-1
	c-0.2-0.2-0.5-0.3-0.9-0.3c-0.4,0-0.7,0.1-1,0.4c-0.2,0.3-0.3,0.6-0.3,1v4.2h-1.3v-4.4c0-0.4-0.1-0.6-0.3-0.9
	c-0.2-0.2-0.5-0.3-0.9-0.3c-0.2,0-0.5,0.1-0.7,0.2c-0.2,0.1-0.4,0.3-0.5,0.5c-0.1,0.2-0.2,0.5-0.2,0.8v4H273.3z"/>
<path class="st2" d="M386.1,84.6c-0.7,0-1.2-0.2-1.7-0.5c-0.5-0.4-0.8-0.9-1.1-1.5c-0.3-0.7-0.4-1.5-0.4-2.4c0-0.9,0.1-1.8,0.4-2.4
	c0.3-0.7,0.6-1.2,1.1-1.5c0.5-0.4,1.1-0.5,1.7-0.5c0.7,0,1.2,0.2,1.7,0.5c0.5,0.4,0.8,0.9,1.1,1.5c0.3,0.7,0.4,1.5,0.4,2.4
	c0,1-0.1,1.8-0.4,2.4c-0.3,0.7-0.6,1.2-1.1,1.5C387.3,84.5,386.7,84.6,386.1,84.6z M386.1,83.5c0.6,0,1.1-0.3,1.4-0.9
	c0.3-0.6,0.5-1.4,0.5-2.5c0-0.7-0.1-1.3-0.2-1.8c-0.2-0.5-0.4-0.9-0.7-1.1c-0.3-0.3-0.6-0.4-1-0.4c-0.6,0-1,0.3-1.4,0.9
	c-0.3,0.6-0.5,1.4-0.5,2.5c0,0.7,0.1,1.3,0.2,1.8c0.2,0.5,0.4,0.9,0.7,1.1C385.3,83.4,385.7,83.5,386.1,83.5z M392.1,83.3l-0.1,0.5
	c0,0.3-0.1,0.7-0.2,1.1c-0.1,0.4-0.2,0.7-0.3,1c-0.1,0.3-0.2,0.6-0.3,0.8h-0.9c0-0.2,0.1-0.4,0.2-0.7c0.1-0.3,0.1-0.6,0.2-1
	c0.1-0.4,0.1-0.7,0.1-1.1l0-0.5H392.1z M393.9,84.5v-1l3-3.1c0.3-0.3,0.6-0.6,0.8-0.9c0.2-0.3,0.4-0.5,0.5-0.7
	c0.1-0.2,0.2-0.5,0.2-0.7c0-0.3-0.1-0.5-0.2-0.8c-0.1-0.2-0.3-0.4-0.6-0.5c-0.2-0.1-0.5-0.2-0.8-0.2c-0.3,0-0.6,0.1-0.8,0.2
	c-0.2,0.1-0.4,0.3-0.5,0.5s-0.2,0.5-0.2,0.8h-1.3c0-0.5,0.1-1,0.4-1.4c0.2-0.4,0.6-0.7,1-0.9c0.4-0.2,0.9-0.3,1.5-0.3
	c0.5,0,1,0.1,1.4,0.3c0.4,0.2,0.7,0.5,1,0.9c0.2,0.4,0.4,0.8,0.4,1.3c0,0.3-0.1,0.6-0.2,1c-0.1,0.3-0.3,0.7-0.6,1
	c-0.3,0.4-0.7,0.8-1.2,1.4l-1.7,1.8v0.1h3.9v1.1H393.9z M404.3,84.6c-0.4,0-0.8-0.1-1.2-0.2c-0.4-0.1-0.7-0.4-1-0.7
	c-0.3-0.3-0.6-0.7-0.7-1.3c-0.2-0.5-0.3-1.2-0.3-2c0-0.8,0.1-1.4,0.2-2c0.2-0.6,0.4-1.1,0.7-1.5c0.3-0.4,0.6-0.7,1-0.9
	c0.4-0.2,0.9-0.3,1.4-0.3c0.5,0,1,0.1,1.4,0.3c0.4,0.2,0.7,0.5,1,0.8c0.3,0.4,0.4,0.8,0.5,1.2H406c-0.1-0.4-0.3-0.7-0.5-0.9
	c-0.3-0.2-0.6-0.3-1-0.3c-0.6,0-1.1,0.3-1.5,0.8c-0.4,0.6-0.5,1.3-0.5,2.3h0.1c0.2-0.2,0.3-0.5,0.6-0.6c0.2-0.2,0.5-0.3,0.7-0.4
	c0.3-0.1,0.6-0.1,0.9-0.1c0.5,0,1,0.1,1.4,0.4c0.4,0.2,0.7,0.6,1,1c0.2,0.4,0.4,0.9,0.4,1.5s-0.1,1.1-0.4,1.5
	c-0.2,0.5-0.6,0.8-1.1,1.1C405.5,84.5,404.9,84.6,404.3,84.6z M404.3,83.5c0.3,0,0.6-0.1,0.9-0.2s0.5-0.4,0.6-0.7
	c0.2-0.3,0.2-0.6,0.2-0.9c0-0.3-0.1-0.6-0.2-0.9c-0.1-0.3-0.4-0.5-0.6-0.7c-0.3-0.2-0.6-0.2-0.9-0.2c-0.3,0-0.5,0-0.7,0.1
	c-0.2,0.1-0.4,0.2-0.6,0.4c-0.2,0.2-0.3,0.4-0.4,0.6c-0.1,0.2-0.1,0.5-0.1,0.7c0,0.3,0.1,0.6,0.2,0.9c0.2,0.3,0.4,0.5,0.6,0.7
	C403.7,83.4,404,83.5,404.3,83.5z M413.5,82.9v-0.5c0-0.3,0.1-0.6,0.2-0.9c0.1-0.3,0.3-0.5,0.6-0.7c0.3-0.2,0.6-0.3,1-0.3
	c0.4,0,0.7,0.1,1,0.2c0.3,0.2,0.5,0.4,0.6,0.7c0.1,0.3,0.2,0.6,0.2,0.9v0.5c0,0.3-0.1,0.6-0.2,0.9c-0.1,0.3-0.3,0.5-0.6,0.7
	c-0.3,0.2-0.6,0.2-1,0.2c-0.4,0-0.7-0.1-1-0.2c-0.3-0.2-0.5-0.4-0.6-0.7C413.5,83.5,413.5,83.2,413.5,82.9z M414.5,82.4v0.5
	c0,0.2,0.1,0.5,0.2,0.7c0.1,0.2,0.3,0.3,0.6,0.3c0.3,0,0.5-0.1,0.6-0.3c0.1-0.2,0.2-0.4,0.2-0.7v-0.5c0-0.2-0.1-0.5-0.2-0.7
	c-0.1-0.2-0.3-0.3-0.6-0.3c-0.3,0-0.5,0.1-0.6,0.3C414.5,81.9,414.5,82.2,414.5,82.4z M409.1,77.9v-0.5c0-0.3,0.1-0.6,0.2-0.9
	c0.1-0.3,0.3-0.5,0.6-0.7c0.3-0.2,0.6-0.2,1-0.2c0.4,0,0.7,0.1,1,0.2c0.3,0.2,0.5,0.4,0.6,0.7c0.1,0.3,0.2,0.6,0.2,0.9v0.5
	c0,0.3-0.1,0.6-0.2,0.9c-0.1,0.3-0.3,0.5-0.6,0.7c-0.3,0.2-0.6,0.2-1,0.2c-0.4,0-0.7-0.1-1-0.2c-0.3-0.2-0.5-0.4-0.6-0.7
	C409.1,78.5,409.1,78.2,409.1,77.9z M410.1,77.4v0.5c0,0.2,0.1,0.5,0.2,0.7c0.1,0.2,0.3,0.3,0.6,0.3c0.3,0,0.5-0.1,0.6-0.3
	c0.1-0.2,0.2-0.4,0.2-0.7v-0.5c0-0.2-0.1-0.5-0.2-0.7c-0.1-0.2-0.3-0.3-0.6-0.3c-0.3,0-0.5,0.1-0.6,0.3
	C410.1,76.9,410.1,77.2,410.1,77.4z M409.5,84.5l6-8.7h1l-6,8.7H409.5z"/>
<path class="st3" d="M30,150.5h130c2.8,0,5,2.2,5,5l0,0c0,2.8-2.2,5-5,5H30c-2.8,0-5-2.2-5-5l0,0C25,152.7,27.2,150.5,30,150.5z"/>
<linearGradient id="SVGID_2_" gradientUnits="userSpaceOnUse" x1="23.5132" y1="90.4575" x2="30.6323" y2="84.9795" gradientTransform="matrix(1 0 0 -1 0 242.8897)">
	<stop  offset="0" style="stop-color:#282B80"/>
	<stop  offset="0.9698" style="stop-color:#28A745"/>
</linearGradient>
<path class="st5" d="M27.5,150.5L27.5,150.5c1.4,0,2.5,1.1,2.5,2.5v5c0,1.4-1.1,2.5-2.5,2.5l0,0c-1.4,0-2.5-1.1-2.5-2.5v-5
	C25,151.6,26.1,150.5,27.5,150.5z"/>
<path class="st1" d="M26,138.5v-8.7h1.3v7.6h4v1.1H26z M35.4,138.6c-0.6,0-1.1-0.1-1.6-0.4c-0.5-0.3-0.8-0.7-1.1-1.2
	s-0.4-1.1-0.4-1.8c0-0.7,0.1-1.3,0.4-1.8c0.3-0.5,0.6-0.9,1.1-1.2c0.5-0.3,1-0.4,1.6-0.4c0.6,0,1.1,0.1,1.6,0.4s0.8,0.7,1.1,1.2
	c0.3,0.5,0.4,1.1,0.4,1.8c0,0.7-0.1,1.3-0.4,1.8c-0.3,0.5-0.6,0.9-1.1,1.2C36.5,138.5,36,138.6,35.4,138.6z M35.4,137.6
	c0.4,0,0.7-0.1,1-0.3c0.3-0.2,0.5-0.5,0.6-0.8c0.1-0.4,0.2-0.7,0.2-1.2c0-0.4-0.1-0.8-0.2-1.2c-0.1-0.4-0.3-0.6-0.6-0.8
	c-0.3-0.2-0.6-0.3-1-0.3c-0.4,0-0.7,0.1-1,0.3c-0.3,0.2-0.5,0.5-0.6,0.8c-0.1,0.3-0.2,0.7-0.2,1.2c0,0.4,0.1,0.8,0.2,1.2
	c0.1,0.3,0.3,0.6,0.6,0.8C34.7,137.5,35,137.6,35.4,137.6z M39.9,138.5V132h1.2v1h0.1c0.1-0.4,0.3-0.6,0.6-0.8
	c0.3-0.2,0.6-0.3,1-0.3c0.1,0,0.2,0,0.3,0c0.1,0,0.2,0,0.3,0v1.2c-0.1,0-0.1,0-0.3,0c-0.1,0-0.3,0-0.4,0c-0.3,0-0.6,0.1-0.8,0.2
	c-0.2,0.1-0.4,0.3-0.6,0.5c-0.1,0.2-0.2,0.5-0.2,0.8v4H39.9z M47.1,138.6c-0.6,0-1.2-0.1-1.7-0.4c-0.5-0.3-0.8-0.7-1.1-1.2
	c-0.2-0.5-0.4-1.1-0.4-1.8c0-0.7,0.1-1.3,0.4-1.8c0.3-0.5,0.6-0.9,1.1-1.2c0.5-0.3,1-0.4,1.6-0.4c0.4,0,0.7,0.1,1.1,0.2
	c0.3,0.1,0.7,0.3,0.9,0.6c0.3,0.3,0.5,0.6,0.7,1c0.2,0.4,0.2,0.9,0.2,1.5v0.5h-5.2v-1h4c0-0.3-0.1-0.6-0.2-0.9
	c-0.1-0.3-0.3-0.5-0.6-0.6c-0.2-0.2-0.5-0.2-0.9-0.2c-0.4,0-0.7,0.1-0.9,0.3c-0.3,0.2-0.5,0.4-0.6,0.7c-0.1,0.3-0.2,0.6-0.2,0.9v0.7
	c0,0.4,0.1,0.8,0.2,1.1c0.2,0.3,0.4,0.5,0.7,0.7c0.3,0.2,0.6,0.2,1,0.2c0.2,0,0.5,0,0.7-0.1c0.2-0.1,0.4-0.2,0.5-0.3
	c0.1-0.1,0.3-0.3,0.3-0.5l1.2,0.2c-0.1,0.4-0.3,0.7-0.5,0.9c-0.2,0.3-0.6,0.5-0.9,0.6C48,138.6,47.5,138.6,47.1,138.6z M51.3,138.5
	V132h1.2v1.1h0.1c0.1-0.4,0.4-0.6,0.7-0.8c0.3-0.2,0.7-0.3,1.1-0.3c0.4,0,0.8,0.1,1.1,0.3c0.3,0.2,0.5,0.5,0.7,0.8h0.1
	c0.2-0.4,0.4-0.6,0.7-0.8c0.3-0.2,0.7-0.3,1.2-0.3c0.6,0,1.1,0.2,1.5,0.6c0.4,0.4,0.6,0.9,0.6,1.7v4.4h-1.3v-4.3
	c0-0.4-0.1-0.8-0.4-1c-0.2-0.2-0.5-0.3-0.9-0.3c-0.4,0-0.7,0.1-1,0.4c-0.2,0.3-0.3,0.6-0.3,1v4.2h-1.3v-4.4c0-0.4-0.1-0.6-0.3-0.9
	s-0.5-0.3-0.9-0.3c-0.2,0-0.5,0.1-0.7,0.2c-0.2,0.1-0.4,0.3-0.5,0.5c-0.1,0.2-0.2,0.5-0.2,0.8v4H51.3z"/>
<path class="st2" d="M147.9,138.6c-0.7,0-1.2-0.2-1.7-0.5c-0.5-0.4-0.8-0.9-1.1-1.5c-0.3-0.7-0.4-1.5-0.4-2.4c0-0.9,0.1-1.8,0.4-2.4
	c0.3-0.7,0.6-1.2,1.1-1.5c0.5-0.4,1.1-0.5,1.7-0.5c0.7,0,1.2,0.2,1.7,0.5c0.5,0.4,0.8,0.9,1.1,1.5c0.3,0.7,0.4,1.5,0.4,2.4
	c0,1-0.1,1.8-0.4,2.4c-0.3,0.7-0.6,1.2-1.1,1.5C149.2,138.5,148.6,138.6,147.9,138.6z M147.9,137.5c0.6,0,1.1-0.3,1.4-0.9
	c0.3-0.6,0.5-1.4,0.5-2.5c0-0.7-0.1-1.3-0.2-1.8c-0.2-0.5-0.4-0.9-0.7-1.1c-0.3-0.3-0.6-0.4-1-0.4c-0.6,0-1.1,0.3-1.4,0.9
	c-0.3,0.6-0.5,1.4-0.5,2.5c0,0.7,0.1,1.3,0.2,1.8c0.2,0.5,0.4,0.9,0.7,1.1C147.2,137.4,147.6,137.5,147.9,137.5z M154,137.3
	l-0.1,0.5c0,0.3-0.1,0.7-0.2,1.1c-0.1,0.4-0.2,0.7-0.3,1c-0.1,0.3-0.2,0.6-0.3,0.8h-0.9c0-0.2,0.1-0.4,0.2-0.7
	c0.1-0.3,0.1-0.6,0.2-1c0.1-0.4,0.1-0.7,0.1-1.1l0-0.5H154z M155.8,138.5v-1l3-3.1c0.3-0.3,0.6-0.6,0.8-0.9c0.2-0.3,0.4-0.5,0.5-0.7
	c0.1-0.2,0.2-0.5,0.2-0.7c0-0.3-0.1-0.5-0.2-0.8c-0.1-0.2-0.3-0.4-0.6-0.5c-0.2-0.1-0.5-0.2-0.8-0.2c-0.3,0-0.6,0.1-0.8,0.2
	c-0.2,0.1-0.4,0.3-0.5,0.5c-0.1,0.2-0.2,0.5-0.2,0.8h-1.3c0-0.5,0.1-1,0.4-1.4c0.2-0.4,0.6-0.7,1-0.9c0.4-0.2,0.9-0.3,1.5-0.3
	c0.5,0,1,0.1,1.4,0.3c0.4,0.2,0.7,0.5,1,0.9c0.2,0.4,0.4,0.8,0.4,1.3c0,0.3-0.1,0.6-0.2,1c-0.1,0.3-0.3,0.7-0.6,1
	c-0.3,0.4-0.7,0.8-1.2,1.4l-1.7,1.8v0.1h3.9v1.1H155.8z M166.2,138.6c-0.7,0-1.2-0.2-1.7-0.5c-0.5-0.4-0.8-0.9-1.1-1.5
	c-0.3-0.7-0.4-1.5-0.4-2.4c0-0.9,0.1-1.8,0.4-2.4c0.3-0.7,0.6-1.2,1.1-1.5c0.5-0.4,1.1-0.5,1.7-0.5c0.7,0,1.2,0.2,1.7,0.5
	c0.5,0.4,0.8,0.9,1.1,1.5c0.3,0.7,0.4,1.5,0.4,2.4c0,1-0.1,1.8-0.4,2.4c-0.3,0.7-0.6,1.2-1.1,1.5
	C167.4,138.5,166.9,138.6,166.2,138.6z M166.2,137.5c0.6,0,1.1-0.3,1.4-0.9c0.3-0.6,0.5-1.4,0.5-2.5c0-0.7-0.1-1.3-0.2-1.8
	c-0.2-0.5-0.4-0.9-0.7-1.1c-0.3-0.3-0.6-0.4-1-0.4c-0.6,0-1,0.3-1.4,0.9c-0.3,0.6-0.5,1.4-0.5,2.5c0,0.7,0.1,1.3,0.2,1.8
	c0.2,0.5,0.4,0.9,0.7,1.1C165.5,137.4,165.8,137.5,166.2,137.5z M175.5,136.9v-0.5c0-0.3,0.1-0.6,0.2-0.9c0.1-0.3,0.3-0.5,0.6-0.7
	c0.3-0.2,0.6-0.3,1-0.3c0.4,0,0.7,0.1,1,0.2c0.3,0.2,0.5,0.4,0.6,0.7c0.1,0.3,0.2,0.6,0.2,0.9v0.5c0,0.3-0.1,0.6-0.2,0.9
	c-0.1,0.3-0.3,0.5-0.6,0.7c-0.3,0.2-0.6,0.2-1,0.2c-0.4,0-0.7-0.1-1-0.2c-0.3-0.2-0.5-0.4-0.6-0.7
	C175.5,137.5,175.5,137.2,175.5,136.9z M176.5,136.4v0.5c0,0.2,0.1,0.5,0.2,0.7c0.1,0.2,0.3,0.3,0.6,0.3c0.3,0,0.5-0.1,0.6-0.3
	c0.1-0.2,0.2-0.4,0.2-0.7v-0.5c0-0.2-0.1-0.5-0.2-0.7c-0.1-0.2-0.3-0.3-0.6-0.3c-0.3,0-0.5,0.1-0.6,0.3
	C176.5,135.9,176.5,136.2,176.5,136.4z M171.1,131.9v-0.5c0-0.3,0.1-0.6,0.2-0.9c0.1-0.3,0.3-0.5,0.6-0.7c0.3-0.2,0.6-0.2,1-0.2
	c0.4,0,0.7,0.1,1,0.2c0.3,0.2,0.5,0.4,0.6,0.7c0.1,0.3,0.2,0.6,0.2,0.9v0.5c0,0.3-0.1,0.6-0.2,0.9c-0.1,0.3-0.3,0.5-0.6,0.7
	c-0.3,0.2-0.6,0.2-1,0.2c-0.4,0-0.7-0.1-1-0.2c-0.3-0.2-0.5-0.4-0.6-0.7C171.1,132.5,171.1,132.2,171.1,131.9z M172.1,131.4v0.5
	c0,0.2,0.1,0.5,0.2,0.7c0.1,0.2,0.3,0.3,0.6,0.3c0.3,0,0.5-0.1,0.6-0.3c0.1-0.2,0.2-0.4,0.2-0.7v-0.5c0-0.2-0.1-0.5-0.2-0.7
	c-0.1-0.2-0.3-0.3-0.6-0.3c-0.3,0-0.5,0.1-0.6,0.3C172.1,130.9,172.1,131.2,172.1,131.4z M171.5,138.5l6-8.7h1l-6,8.7H171.5z"/>
<path class="st3" d="M30,96.5h130c2.8,0,5,2.2,5,5l0,0c0,2.8-2.2,5-5,5H30c-2.8,0-5-2.2-5-5l0,0C25,98.7,27.2,96.5,30,96.5z"/>
<linearGradient id="SVGID_3_" gradientUnits="userSpaceOnUse" x1="88.5824" y1="149.6173" x2="89.3282" y2="134.9253" gradientTransform="matrix(1 0 0 -1 0 242.8897)">
	<stop  offset="0" style="stop-color:#282B80"/>
	<stop  offset="0.9698" style="stop-color:#28A745"/>
</linearGradient>
<path class="st6" d="M30,96.5h118c2.8,0,5,2.2,5,5l0,0c0,2.8-2.2,5-5,5H30c-2.8,0-5-2.2-5-5l0,0C25,98.7,27.2,96.5,30,96.5z"/>
<path class="st1" d="M26,84.5v-8.7h1.3v7.6h4v1.1H26z M35.4,84.6c-0.6,0-1.1-0.1-1.6-0.4c-0.5-0.3-0.8-0.7-1.1-1.2
	c-0.3-0.5-0.4-1.1-0.4-1.8c0-0.7,0.1-1.3,0.4-1.8c0.3-0.5,0.6-0.9,1.1-1.2c0.5-0.3,1-0.4,1.6-0.4c0.6,0,1.1,0.1,1.6,0.4
	s0.8,0.7,1.1,1.2c0.3,0.5,0.4,1.1,0.4,1.8c0,0.7-0.1,1.3-0.4,1.8c-0.3,0.5-0.6,0.9-1.1,1.2S36,84.6,35.4,84.6z M35.4,83.6
	c0.4,0,0.7-0.1,1-0.3c0.3-0.2,0.5-0.5,0.6-0.8c0.1-0.3,0.2-0.7,0.2-1.2c0-0.4-0.1-0.8-0.2-1.2c-0.1-0.4-0.3-0.6-0.6-0.8
	c-0.3-0.2-0.6-0.3-1-0.3c-0.4,0-0.7,0.1-1,0.3c-0.3,0.2-0.5,0.5-0.6,0.8c-0.1,0.4-0.2,0.7-0.2,1.2c0,0.4,0.1,0.8,0.2,1.2
	c0.1,0.3,0.3,0.6,0.6,0.8C34.7,83.5,35,83.6,35.4,83.6z M39.9,84.5V78h1.2v1h0.1c0.1-0.4,0.3-0.6,0.6-0.8c0.3-0.2,0.6-0.3,1-0.3
	c0.1,0,0.2,0,0.3,0c0.1,0,0.2,0,0.3,0v1.2c-0.1,0-0.1,0-0.3,0c-0.1,0-0.3,0-0.4,0c-0.3,0-0.6,0.1-0.8,0.2c-0.2,0.1-0.4,0.3-0.6,0.5
	c-0.1,0.2-0.2,0.5-0.2,0.8v4H39.9z M47.1,84.6c-0.6,0-1.2-0.1-1.7-0.4c-0.5-0.3-0.8-0.7-1.1-1.2c-0.2-0.5-0.4-1.1-0.4-1.8
	c0-0.7,0.1-1.3,0.4-1.8c0.3-0.5,0.6-0.9,1.1-1.2c0.5-0.3,1-0.4,1.6-0.4c0.4,0,0.7,0.1,1.1,0.2c0.3,0.1,0.7,0.3,0.9,0.6
	c0.3,0.3,0.5,0.6,0.7,1c0.2,0.4,0.2,0.9,0.2,1.5v0.5h-5.2v-1h4c0-0.3-0.1-0.6-0.2-0.9c-0.1-0.3-0.3-0.5-0.6-0.6
	c-0.2-0.2-0.5-0.2-0.9-0.2c-0.4,0-0.7,0.1-0.9,0.3c-0.3,0.2-0.5,0.4-0.6,0.7c-0.1,0.3-0.2,0.6-0.2,0.9v0.7c0,0.4,0.1,0.8,0.2,1.1
	c0.2,0.3,0.4,0.5,0.7,0.7c0.3,0.2,0.6,0.2,1,0.2c0.2,0,0.5,0,0.7-0.1c0.2-0.1,0.4-0.2,0.5-0.3s0.3-0.3,0.3-0.5l1.2,0.2
	c-0.1,0.4-0.3,0.7-0.5,0.9c-0.2,0.3-0.6,0.5-0.9,0.6C48,84.6,47.5,84.6,47.1,84.6z M51.3,84.5V78h1.2V79h0.1
	c0.1-0.4,0.4-0.6,0.7-0.8c0.3-0.2,0.7-0.3,1.1-0.3c0.4,0,0.8,0.1,1.1,0.3c0.3,0.2,0.5,0.5,0.7,0.8h0.1c0.2-0.3,0.4-0.6,0.7-0.8
	c0.3-0.2,0.7-0.3,1.2-0.3c0.6,0,1.1,0.2,1.5,0.6c0.4,0.4,0.6,0.9,0.6,1.7v4.4h-1.3v-4.3c0-0.4-0.1-0.8-0.4-1
	C58.3,79.1,58,79,57.7,79c-0.4,0-0.7,0.1-1,0.4c-0.2,0.3-0.3,0.6-0.3,1v4.2h-1.3v-4.4c0-0.4-0.1-0.6-0.3-0.9
	c-0.2-0.2-0.5-0.3-0.9-0.3c-0.2,0-0.5,0.1-0.7,0.2c-0.2,0.1-0.4,0.3-0.5,0.5c-0.1,0.2-0.2,0.5-0.2,0.8v4H51.3z"/>
<path class="st2" d="M158.3,75.7c0.4,0,0.8,0.1,1.1,0.2c0.4,0.1,0.7,0.4,1,0.7c0.3,0.3,0.6,0.7,0.7,1.3c0.2,0.5,0.3,1.2,0.3,2
	c0,0.8-0.1,1.4-0.2,2c-0.2,0.6-0.4,1.1-0.7,1.5c-0.3,0.4-0.6,0.7-1,0.9c-0.4,0.2-0.9,0.3-1.4,0.3c-0.5,0-1-0.1-1.4-0.3
	c-0.4-0.2-0.7-0.5-1-0.8c-0.3-0.4-0.4-0.8-0.5-1.3h1.3c0.1,0.4,0.3,0.7,0.5,0.9c0.3,0.2,0.6,0.3,1,0.3c0.6,0,1.1-0.3,1.5-0.8
	c0.4-0.6,0.5-1.3,0.5-2.3h-0.1c-0.1,0.2-0.3,0.5-0.6,0.6c-0.2,0.2-0.5,0.3-0.7,0.4c-0.3,0.1-0.6,0.1-0.9,0.1c-0.5,0-1-0.1-1.4-0.4
	c-0.4-0.2-0.7-0.6-1-1s-0.4-0.9-0.4-1.5c0-0.6,0.1-1.1,0.4-1.5c0.3-0.4,0.6-0.8,1.1-1.1C157.2,75.8,157.7,75.6,158.3,75.7z
	 M158.3,76.8c-0.3,0-0.6,0.1-0.9,0.2c-0.3,0.2-0.5,0.4-0.6,0.7c-0.2,0.3-0.2,0.6-0.2,0.9c0,0.3,0.1,0.6,0.2,0.9
	c0.1,0.3,0.4,0.5,0.6,0.7c0.3,0.2,0.6,0.2,0.9,0.2c0.2,0,0.5,0,0.7-0.1c0.2-0.1,0.4-0.2,0.6-0.4c0.2-0.2,0.3-0.4,0.4-0.6
	c0.1-0.2,0.1-0.4,0.1-0.7c0-0.3-0.1-0.6-0.2-0.9c-0.1-0.3-0.4-0.5-0.6-0.7C159,76.8,158.7,76.8,158.3,76.8z M162.9,82.8v-1.1l3.8-6
	h0.8v1.6h-0.5l-2.7,4.3v0.1h5.2v1.1H162.9z M167,84.5v-2l0-0.5v-6.2h1.2v8.7H167z M175.5,82.9v-0.5c0-0.3,0.1-0.6,0.2-0.9
	c0.1-0.3,0.3-0.5,0.6-0.7c0.3-0.2,0.6-0.3,1-0.3c0.4,0,0.7,0.1,1,0.2c0.3,0.2,0.5,0.4,0.6,0.7c0.1,0.3,0.2,0.6,0.2,0.9v0.5
	c0,0.3-0.1,0.6-0.2,0.9c-0.1,0.3-0.3,0.5-0.6,0.7c-0.3,0.2-0.6,0.2-1,0.2c-0.4,0-0.7-0.1-1-0.2c-0.3-0.2-0.5-0.4-0.6-0.7
	C175.5,83.5,175.5,83.2,175.5,82.9z M176.5,82.4v0.5c0,0.2,0.1,0.5,0.2,0.7c0.1,0.2,0.3,0.3,0.6,0.3c0.3,0,0.5-0.1,0.6-0.3
	c0.1-0.2,0.2-0.4,0.2-0.7v-0.5c0-0.2-0.1-0.5-0.2-0.7c-0.1-0.2-0.3-0.3-0.6-0.3c-0.3,0-0.5,0.1-0.6,0.3
	C176.5,81.9,176.5,82.2,176.5,82.4z M171.1,77.9v-0.5c0-0.3,0.1-0.6,0.2-0.9c0.1-0.3,0.3-0.5,0.6-0.7c0.3-0.2,0.6-0.2,1-0.2
	c0.4,0,0.7,0.1,1,0.2c0.3,0.2,0.5,0.4,0.6,0.7c0.1,0.3,0.2,0.6,0.2,0.9v0.5c0,0.3-0.1,0.6-0.2,0.9c-0.1,0.3-0.3,0.5-0.6,0.7
	c-0.3,0.2-0.6,0.2-1,0.2c-0.4,0-0.7-0.1-1-0.2c-0.3-0.2-0.5-0.4-0.6-0.7C171.1,78.5,171.1,78.2,171.1,77.9z M172.1,77.4v0.5
	c0,0.2,0.1,0.5,0.2,0.7c0.1,0.2,0.3,0.3,0.6,0.3c0.3,0,0.5-0.1,0.6-0.3c0.1-0.2,0.2-0.4,0.2-0.7v-0.5c0-0.2-0.1-0.5-0.2-0.7
	c-0.1-0.2-0.3-0.3-0.6-0.3c-0.3,0-0.5,0.1-0.6,0.3C172.1,76.9,172.1,77.2,172.1,77.4z M171.5,84.5l6-8.7h1l-6,8.7H171.5z"/>
<path class="st3" d="M252,149.5h130c2.8,0,5,2.2,5,5l0,0c0,2.8-2.2,5-5,5H252c-2.8,0-5-2.2-5-5l0,0C247,151.7,249.2,149.5,252,149.5
	z"/>
<linearGradient id="SVGID_4_" gradientUnits="userSpaceOnUse" x1="245.5132" y1="91.4575" x2="252.6322" y2="85.9795" gradientTransform="matrix(1 0 0 -1 0 242.8897)">
	<stop  offset="0" style="stop-color:#282B80"/>
	<stop  offset="0.9698" style="stop-color:#28A745"/>
</linearGradient>
<path class="st7" d="M249.5,149.5L249.5,149.5c1.4,0,2.5,1.1,2.5,2.5v5c0,1.4-1.1,2.5-2.5,2.5l0,0c-1.4,0-2.5-1.1-2.5-2.5v-5
	C247,150.6,248.1,149.5,249.5,149.5z"/>
<path class="st1" d="M248,137.5v-8.7h1.3v7.6h4v1.1H248z M257.4,137.6c-0.6,0-1.1-0.1-1.6-0.4c-0.5-0.3-0.8-0.7-1.1-1.2
	s-0.4-1.1-0.4-1.8c0-0.7,0.1-1.3,0.4-1.8c0.3-0.5,0.6-0.9,1.1-1.2c0.5-0.3,1-0.4,1.6-0.4c0.6,0,1.1,0.1,1.6,0.4
	c0.5,0.3,0.8,0.7,1.1,1.2c0.3,0.5,0.4,1.1,0.4,1.8c0,0.7-0.1,1.3-0.4,1.8c-0.3,0.5-0.6,0.9-1.1,1.2
	C258.5,137.5,258,137.6,257.4,137.6z M257.4,136.6c0.4,0,0.7-0.1,1-0.3c0.3-0.2,0.5-0.5,0.6-0.8c0.1-0.4,0.2-0.7,0.2-1.2
	c0-0.4-0.1-0.8-0.2-1.2c-0.1-0.4-0.3-0.6-0.6-0.8c-0.3-0.2-0.6-0.3-1-0.3c-0.4,0-0.7,0.1-1,0.3c-0.3,0.2-0.5,0.5-0.6,0.8
	c-0.1,0.3-0.2,0.7-0.2,1.2c0,0.4,0.1,0.8,0.2,1.2c0.1,0.3,0.3,0.6,0.6,0.8C256.7,136.5,257,136.6,257.4,136.6z M261.9,137.5V131h1.2
	v1h0.1c0.1-0.4,0.3-0.6,0.6-0.8c0.3-0.2,0.6-0.3,1-0.3c0.1,0,0.2,0,0.3,0c0.1,0,0.2,0,0.3,0v1.2c-0.1,0-0.1,0-0.3,0
	c-0.1,0-0.3,0-0.4,0c-0.3,0-0.6,0.1-0.8,0.2c-0.2,0.1-0.4,0.3-0.6,0.5c-0.1,0.2-0.2,0.5-0.2,0.8v4H261.9z M269.1,137.6
	c-0.6,0-1.2-0.1-1.7-0.4c-0.5-0.3-0.8-0.7-1.1-1.2c-0.2-0.5-0.4-1.1-0.4-1.8c0-0.7,0.1-1.3,0.4-1.8c0.3-0.5,0.6-0.9,1.1-1.2
	c0.5-0.3,1-0.4,1.6-0.4c0.4,0,0.7,0.1,1.1,0.2c0.3,0.1,0.7,0.3,0.9,0.6c0.3,0.3,0.5,0.6,0.7,1c0.2,0.4,0.2,0.9,0.2,1.5v0.5h-5.2v-1
	h4c0-0.3-0.1-0.6-0.2-0.9c-0.1-0.3-0.3-0.5-0.6-0.6c-0.2-0.2-0.5-0.2-0.9-0.2c-0.4,0-0.7,0.1-0.9,0.3c-0.3,0.2-0.5,0.4-0.6,0.7
	c-0.1,0.3-0.2,0.6-0.2,0.9v0.7c0,0.4,0.1,0.8,0.2,1.1c0.2,0.3,0.4,0.5,0.7,0.7c0.3,0.2,0.6,0.2,1,0.2c0.2,0,0.5,0,0.7-0.1
	c0.2-0.1,0.4-0.2,0.5-0.3c0.1-0.1,0.3-0.3,0.3-0.5l1.2,0.2c-0.1,0.4-0.3,0.7-0.5,0.9c-0.2,0.3-0.6,0.5-0.9,0.6
	C270,137.6,269.5,137.6,269.1,137.6z M273.3,137.5V131h1.2v1.1h0.1c0.1-0.4,0.4-0.6,0.7-0.8c0.3-0.2,0.7-0.3,1.1-0.3
	c0.4,0,0.8,0.1,1.1,0.3c0.3,0.2,0.5,0.5,0.7,0.8h0.1c0.2-0.4,0.4-0.6,0.7-0.8c0.3-0.2,0.7-0.3,1.2-0.3c0.6,0,1.1,0.2,1.5,0.6
	c0.4,0.4,0.6,0.9,0.6,1.7v4.4h-1.3v-4.3c0-0.4-0.1-0.8-0.4-1c-0.2-0.2-0.5-0.3-0.9-0.3c-0.4,0-0.7,0.1-1,0.4c-0.2,0.3-0.3,0.6-0.3,1
	v4.2h-1.3v-4.4c0-0.4-0.1-0.6-0.3-0.9c-0.2-0.2-0.5-0.3-0.9-0.3c-0.2,0-0.5,0.1-0.7,0.2c-0.2,0.1-0.4,0.3-0.5,0.5
	c-0.1,0.2-0.2,0.5-0.2,0.8v4H273.3z"/>
<path class="st2" d="M385.9,137.6c-0.7,0-1.2-0.2-1.7-0.5c-0.5-0.4-0.8-0.9-1.1-1.5c-0.3-0.7-0.4-1.5-0.4-2.4c0-0.9,0.1-1.8,0.4-2.4
	c0.3-0.7,0.6-1.2,1.1-1.5c0.5-0.4,1.1-0.5,1.7-0.5c0.7,0,1.2,0.2,1.7,0.5c0.5,0.4,0.8,0.9,1.1,1.5c0.3,0.7,0.4,1.5,0.4,2.4
	c0,1-0.1,1.8-0.4,2.4c-0.3,0.7-0.6,1.2-1.1,1.5C387.2,137.5,386.6,137.6,385.9,137.6z M385.9,136.5c0.6,0,1.1-0.3,1.4-0.9
	c0.3-0.6,0.5-1.4,0.5-2.5c0-0.7-0.1-1.3-0.2-1.8c-0.2-0.5-0.4-0.9-0.7-1.1c-0.3-0.3-0.6-0.4-1-0.4c-0.6,0-1,0.3-1.4,0.9
	c-0.3,0.6-0.5,1.4-0.5,2.5c0,0.7,0.1,1.3,0.2,1.8c0.2,0.5,0.4,0.9,0.7,1.1C385.2,136.4,385.6,136.5,385.9,136.5z M392,136.3
	l-0.1,0.5c0,0.3-0.1,0.7-0.2,1.1c-0.1,0.4-0.2,0.7-0.3,1c-0.1,0.3-0.2,0.6-0.3,0.8h-0.9c0-0.2,0.1-0.4,0.2-0.7
	c0.1-0.3,0.1-0.6,0.2-1c0.1-0.4,0.1-0.7,0.1-1.1l0-0.5H392z M393.8,137.5v-1l3-3.1c0.3-0.3,0.6-0.6,0.8-0.9c0.2-0.3,0.4-0.5,0.5-0.7
	c0.1-0.2,0.2-0.5,0.2-0.7c0-0.3-0.1-0.5-0.2-0.8c-0.1-0.2-0.3-0.4-0.6-0.5c-0.2-0.1-0.5-0.2-0.8-0.2c-0.3,0-0.6,0.1-0.8,0.2
	c-0.2,0.1-0.4,0.3-0.5,0.5c-0.1,0.2-0.2,0.5-0.2,0.8h-1.3c0-0.5,0.1-1,0.4-1.4c0.2-0.4,0.6-0.7,1-0.9c0.4-0.2,0.9-0.3,1.5-0.3
	c0.5,0,1,0.1,1.4,0.3c0.4,0.2,0.7,0.5,1,0.9c0.2,0.4,0.4,0.8,0.4,1.3c0,0.3-0.1,0.6-0.2,1c-0.1,0.3-0.3,0.7-0.6,1
	c-0.3,0.4-0.7,0.8-1.2,1.4l-1.7,1.8v0.1h3.9v1.1H393.8z M404.2,137.6c-0.7,0-1.2-0.2-1.7-0.5c-0.5-0.4-0.8-0.9-1.1-1.5
	c-0.3-0.7-0.4-1.5-0.4-2.4c0-0.9,0.1-1.8,0.4-2.4c0.3-0.7,0.6-1.2,1.1-1.5c0.5-0.4,1.1-0.5,1.7-0.5c0.7,0,1.2,0.2,1.7,0.5
	c0.5,0.4,0.8,0.9,1.1,1.5c0.3,0.7,0.4,1.5,0.4,2.4c0,1-0.1,1.8-0.4,2.4c-0.3,0.7-0.6,1.2-1.1,1.5
	C405.4,137.5,404.9,137.6,404.2,137.6z M404.2,136.5c0.6,0,1.1-0.3,1.4-0.9c0.3-0.6,0.5-1.4,0.5-2.5c0-0.7-0.1-1.3-0.2-1.8
	c-0.2-0.5-0.4-0.9-0.7-1.1c-0.3-0.3-0.6-0.4-1-0.4c-0.6,0-1,0.3-1.4,0.9c-0.3,0.6-0.5,1.4-0.5,2.5c0,0.7,0.1,1.3,0.2,1.8
	c0.2,0.5,0.4,0.9,0.7,1.1C403.5,136.4,403.8,136.5,404.2,136.5z M413.5,135.9v-0.5c0-0.3,0.1-0.6,0.2-0.9c0.1-0.3,0.3-0.5,0.6-0.7
	c0.3-0.2,0.6-0.3,1-0.3c0.4,0,0.7,0.1,1,0.2c0.3,0.2,0.5,0.4,0.6,0.7c0.1,0.3,0.2,0.6,0.2,0.9v0.5c0,0.3-0.1,0.6-0.2,0.9
	c-0.1,0.3-0.3,0.5-0.6,0.7c-0.3,0.2-0.6,0.2-1,0.2c-0.4,0-0.7-0.1-1-0.2c-0.3-0.2-0.5-0.4-0.6-0.7
	C413.5,136.5,413.5,136.2,413.5,135.9z M414.5,135.4v0.5c0,0.2,0.1,0.5,0.2,0.7c0.1,0.2,0.3,0.3,0.6,0.3c0.3,0,0.5-0.1,0.6-0.3
	c0.1-0.2,0.2-0.4,0.2-0.7v-0.5c0-0.2-0.1-0.5-0.2-0.7c-0.1-0.2-0.3-0.3-0.6-0.3c-0.3,0-0.5,0.1-0.6,0.3
	C414.5,134.9,414.5,135.2,414.5,135.4z M409.1,130.9v-0.5c0-0.3,0.1-0.6,0.2-0.9c0.1-0.3,0.3-0.5,0.6-0.7c0.3-0.2,0.6-0.2,1-0.2
	c0.4,0,0.7,0.1,1,0.2c0.3,0.2,0.5,0.4,0.6,0.7c0.1,0.3,0.2,0.6,0.2,0.9v0.5c0,0.3-0.1,0.6-0.2,0.9c-0.1,0.3-0.3,0.5-0.6,0.7
	c-0.3,0.2-0.6,0.2-1,0.2c-0.4,0-0.7-0.1-1-0.2c-0.3-0.2-0.5-0.4-0.6-0.7C409.1,131.5,409.1,131.2,409.1,130.9z M410.1,130.4v0.5
	c0,0.2,0.1,0.5,0.2,0.7c0.1,0.2,0.3,0.3,0.6,0.3c0.3,0,0.5-0.1,0.6-0.3c0.1-0.2,0.2-0.4,0.2-0.7v-0.5c0-0.2-0.1-0.5-0.2-0.7
	c-0.1-0.2-0.3-0.3-0.6-0.3c-0.3,0-0.5,0.1-0.6,0.3C410.1,129.9,410.1,130.2,410.1,130.4z M409.5,137.5l6-8.7h1l-6,8.7H409.5z"/>
<path class="st3" d="M30,203.5h130c2.8,0,5,2.2,5,5l0,0c0,2.8-2.2,5-5,5H30c-2.8,0-5-2.2-5-5l0,0C25,205.7,27.2,203.5,30,203.5z"/>
<linearGradient id="SVGID_5_" gradientUnits="userSpaceOnUse" x1="23.3176" y1="36.6567" x2="29.8933" y2="32.6087" gradientTransform="matrix(1 0 0 -1 0 242.8897)">
	<stop  offset="0" style="stop-color:#282B80"/>
	<stop  offset="0.9698" style="stop-color:#28A745"/>
</linearGradient>
<path class="st8" d="M27,203.5L27,203.5c1.1,0,2,0.9,2,2v6c0,1.1-0.9,2-2,2l0,0c-1.1,0-2-0.9-2-2v-6C25,204.4,25.9,203.5,27,203.5z"
	/>
<path class="st1" d="M26,192.5v-8.7h1.3v7.6h4v1.1H26z M35.4,192.6c-0.6,0-1.1-0.1-1.6-0.4c-0.5-0.3-0.8-0.7-1.1-1.2
	s-0.4-1.1-0.4-1.8c0-0.7,0.1-1.3,0.4-1.8c0.3-0.5,0.6-0.9,1.1-1.2c0.5-0.3,1-0.4,1.6-0.4c0.6,0,1.1,0.1,1.6,0.4s0.8,0.7,1.1,1.2
	c0.3,0.5,0.4,1.1,0.4,1.8c0,0.7-0.1,1.3-0.4,1.8c-0.3,0.5-0.6,0.9-1.1,1.2C36.5,192.5,36,192.6,35.4,192.6z M35.4,191.6
	c0.4,0,0.7-0.1,1-0.3c0.3-0.2,0.5-0.5,0.6-0.8c0.1-0.4,0.2-0.7,0.2-1.2c0-0.4-0.1-0.8-0.2-1.2c-0.1-0.4-0.3-0.6-0.6-0.8
	c-0.3-0.2-0.6-0.3-1-0.3c-0.4,0-0.7,0.1-1,0.3c-0.3,0.2-0.5,0.5-0.6,0.8c-0.1,0.3-0.2,0.7-0.2,1.2c0,0.4,0.1,0.8,0.2,1.2
	c0.1,0.3,0.3,0.6,0.6,0.8C34.7,191.5,35,191.6,35.4,191.6z M39.9,192.5V186h1.2v1h0.1c0.1-0.4,0.3-0.6,0.6-0.8
	c0.3-0.2,0.6-0.3,1-0.3c0.1,0,0.2,0,0.3,0c0.1,0,0.2,0,0.3,0v1.2c-0.1,0-0.1,0-0.3,0c-0.1,0-0.3,0-0.4,0c-0.3,0-0.6,0.1-0.8,0.2
	c-0.2,0.1-0.4,0.3-0.6,0.5c-0.1,0.2-0.2,0.5-0.2,0.8v4H39.9z M47.1,192.6c-0.6,0-1.2-0.1-1.7-0.4c-0.5-0.3-0.8-0.7-1.1-1.2
	c-0.2-0.5-0.4-1.1-0.4-1.8c0-0.7,0.1-1.3,0.4-1.8c0.3-0.5,0.6-0.9,1.1-1.2c0.5-0.3,1-0.4,1.6-0.4c0.4,0,0.7,0.1,1.1,0.2
	c0.3,0.1,0.7,0.3,0.9,0.6c0.3,0.3,0.5,0.6,0.7,1c0.2,0.4,0.2,0.9,0.2,1.5v0.5h-5.2v-1h4c0-0.3-0.1-0.6-0.2-0.9
	c-0.1-0.3-0.3-0.5-0.6-0.6c-0.2-0.2-0.5-0.2-0.9-0.2c-0.4,0-0.7,0.1-0.9,0.3c-0.3,0.2-0.5,0.4-0.6,0.7c-0.1,0.3-0.2,0.6-0.2,0.9v0.7
	c0,0.4,0.1,0.8,0.2,1.1c0.2,0.3,0.4,0.5,0.7,0.7c0.3,0.2,0.6,0.2,1,0.2c0.2,0,0.5,0,0.7-0.1c0.2-0.1,0.4-0.2,0.5-0.3
	c0.1-0.1,0.3-0.3,0.3-0.5l1.2,0.2c-0.1,0.4-0.3,0.7-0.5,0.9c-0.2,0.3-0.6,0.5-0.9,0.6C48,192.6,47.5,192.6,47.1,192.6z M51.3,192.5
	V186h1.2v1.1h0.1c0.1-0.4,0.4-0.6,0.7-0.8c0.3-0.2,0.7-0.3,1.1-0.3c0.4,0,0.8,0.1,1.1,0.3c0.3,0.2,0.5,0.5,0.7,0.8h0.1
	c0.2-0.4,0.4-0.6,0.7-0.8c0.3-0.2,0.7-0.3,1.2-0.3c0.6,0,1.1,0.2,1.5,0.6c0.4,0.4,0.6,0.9,0.6,1.7v4.4h-1.3v-4.3
	c0-0.4-0.1-0.8-0.4-1c-0.2-0.2-0.5-0.3-0.9-0.3c-0.4,0-0.7,0.1-1,0.4c-0.2,0.3-0.3,0.6-0.3,1v4.2h-1.3v-4.4c0-0.4-0.1-0.6-0.3-0.9
	s-0.5-0.3-0.9-0.3c-0.2,0-0.5,0.1-0.7,0.2c-0.2,0.1-0.4,0.3-0.5,0.5c-0.1,0.2-0.2,0.5-0.2,0.8v4H51.3z"/>
<path class="st2" d="M150.7,192.6c-0.7,0-1.2-0.2-1.7-0.5s-0.8-0.9-1.1-1.5c-0.3-0.7-0.4-1.5-0.4-2.4c0-0.9,0.1-1.8,0.4-2.4
	c0.3-0.7,0.6-1.2,1.1-1.5c0.5-0.4,1.1-0.5,1.7-0.5s1.2,0.2,1.7,0.5c0.5,0.4,0.8,0.9,1.1,1.5c0.3,0.7,0.4,1.5,0.4,2.4
	c0,1-0.1,1.8-0.4,2.4c-0.3,0.7-0.6,1.2-1.1,1.5C151.9,192.5,151.4,192.6,150.7,192.6z M150.7,191.5c0.6,0,1.1-0.3,1.4-0.9
	c0.3-0.6,0.5-1.4,0.5-2.5c0-0.7-0.1-1.3-0.2-1.8c-0.2-0.5-0.4-0.9-0.7-1.1c-0.3-0.3-0.6-0.4-1-0.4c-0.6,0-1.1,0.3-1.4,0.9
	c-0.3,0.6-0.5,1.4-0.5,2.5c0,0.7,0.1,1.3,0.2,1.8c0.2,0.5,0.4,0.9,0.7,1.1C150,191.4,150.3,191.5,150.7,191.5z M156.8,191.3
	l-0.1,0.5c0,0.3-0.1,0.7-0.2,1.1c-0.1,0.4-0.2,0.7-0.3,1c-0.1,0.3-0.2,0.6-0.3,0.8H155c0-0.2,0.1-0.4,0.2-0.7c0.1-0.3,0.1-0.6,0.2-1
	c0.1-0.4,0.1-0.7,0.1-1.1l0-0.5H156.8z M160.8,183.8v8.7h-1.3v-7.4h-0.1l-2.1,1.4v-1.3l2.2-1.4H160.8z M166.2,192.6
	c-0.6,0-1.1-0.1-1.6-0.3c-0.5-0.2-0.8-0.5-1.1-0.8c-0.3-0.4-0.4-0.8-0.4-1.3h1.3c0,0.3,0.1,0.5,0.3,0.7c0.2,0.2,0.4,0.3,0.6,0.4
	c0.3,0.1,0.5,0.2,0.9,0.2c0.3,0,0.6-0.1,0.9-0.2c0.3-0.1,0.5-0.3,0.6-0.5c0.2-0.2,0.2-0.5,0.2-0.7c0-0.3-0.1-0.5-0.2-0.8
	c-0.1-0.2-0.4-0.4-0.7-0.5c-0.3-0.1-0.6-0.2-1-0.2h-0.7v-1.1h0.7c0.3,0,0.6-0.1,0.9-0.2c0.2-0.1,0.4-0.3,0.6-0.5
	c0.1-0.2,0.2-0.5,0.2-0.7c0-0.3-0.1-0.5-0.2-0.7c-0.1-0.2-0.3-0.4-0.5-0.5c-0.2-0.1-0.5-0.2-0.8-0.2c-0.3,0-0.6,0.1-0.8,0.2
	c-0.2,0.1-0.4,0.2-0.6,0.4c-0.2,0.2-0.2,0.4-0.2,0.7h-1.3c0-0.5,0.2-0.9,0.4-1.2c0.3-0.4,0.6-0.6,1.1-0.8c0.4-0.2,0.9-0.3,1.5-0.3
	c0.6,0,1,0.1,1.4,0.3c0.4,0.2,0.7,0.5,0.9,0.9c0.2,0.4,0.3,0.8,0.3,1.2c0,0.5-0.1,0.9-0.4,1.2c-0.3,0.3-0.6,0.6-1.1,0.7v0.1
	c0.6,0.1,1,0.3,1.3,0.7c0.3,0.4,0.5,0.8,0.5,1.4c0,0.5-0.1,0.9-0.4,1.3c-0.3,0.4-0.6,0.7-1.1,0.9
	C167.3,192.5,166.8,192.6,166.2,192.6z M175.5,190.9v-0.5c0-0.3,0.1-0.6,0.2-0.9c0.1-0.3,0.3-0.5,0.6-0.7c0.3-0.2,0.6-0.3,1-0.3
	c0.4,0,0.7,0.1,1,0.2c0.3,0.2,0.5,0.4,0.6,0.7c0.1,0.3,0.2,0.6,0.2,0.9v0.5c0,0.3-0.1,0.6-0.2,0.9c-0.1,0.3-0.3,0.5-0.6,0.7
	c-0.3,0.2-0.6,0.2-1,0.2c-0.4,0-0.7-0.1-1-0.2c-0.3-0.2-0.5-0.4-0.6-0.7C175.5,191.5,175.5,191.2,175.5,190.9z M176.5,190.4v0.5
	c0,0.2,0.1,0.5,0.2,0.7c0.1,0.2,0.3,0.3,0.6,0.3c0.3,0,0.5-0.1,0.6-0.3c0.1-0.2,0.2-0.4,0.2-0.7v-0.5c0-0.2-0.1-0.5-0.2-0.7
	c-0.1-0.2-0.3-0.3-0.6-0.3c-0.3,0-0.5,0.1-0.6,0.3C176.5,189.9,176.5,190.2,176.5,190.4z M171.1,185.9v-0.5c0-0.3,0.1-0.6,0.2-0.9
	c0.1-0.3,0.3-0.5,0.6-0.7c0.3-0.2,0.6-0.2,1-0.2c0.4,0,0.7,0.1,1,0.2c0.3,0.2,0.5,0.4,0.6,0.7c0.1,0.3,0.2,0.6,0.2,0.9v0.5
	c0,0.3-0.1,0.6-0.2,0.9c-0.1,0.3-0.3,0.5-0.6,0.7c-0.3,0.2-0.6,0.2-1,0.2c-0.4,0-0.7-0.1-1-0.2c-0.3-0.2-0.5-0.4-0.6-0.7
	C171.1,186.5,171.1,186.2,171.1,185.9z M172.1,185.4v0.5c0,0.2,0.1,0.5,0.2,0.7c0.1,0.2,0.3,0.3,0.6,0.3c0.3,0,0.5-0.1,0.6-0.3
	c0.1-0.2,0.2-0.4,0.2-0.7v-0.5c0-0.2-0.1-0.5-0.2-0.7c-0.1-0.2-0.3-0.3-0.6-0.3c-0.3,0-0.5,0.1-0.6,0.3
	C172.1,184.9,172.1,185.2,172.1,185.4z M171.5,192.5l6-8.7h1l-6,8.7H171.5z"/>
<path class="st3" d="M252,202.5h130c2.8,0,5,2.2,5,5l0,0c0,2.8-2.2,5-5,5H252c-2.8,0-5-2.2-5-5l0,0C247,204.7,249.2,202.5,252,202.5
	z"/>
<linearGradient id="SVGID_6_" gradientUnits="userSpaceOnUse" x1="251.4915" y1="42.3353" x2="256.8636" y2="29.9333" gradientTransform="matrix(1 0 0 -1 0 242.8897)">
	<stop  offset="0" style="stop-color:#282B80"/>
	<stop  offset="0.9698" style="stop-color:#28A745"/>
</linearGradient>
<path class="st9" d="M252,202.5h5c2.8,0,5,2.2,5,5l0,0c0,2.8-2.2,5-5,5h-5c-2.8,0-5-2.2-5-5l0,0C247,204.7,249.2,202.5,252,202.5z"
	/>
<path class="st1" d="M248,191.5v-8.7h1.3v7.6h4v1.1H248z M257.4,191.6c-0.6,0-1.1-0.1-1.6-0.4c-0.5-0.3-0.8-0.7-1.1-1.2
	s-0.4-1.1-0.4-1.8c0-0.7,0.1-1.3,0.4-1.8c0.3-0.5,0.6-0.9,1.1-1.2c0.5-0.3,1-0.4,1.6-0.4c0.6,0,1.1,0.1,1.6,0.4
	c0.5,0.3,0.8,0.7,1.1,1.2c0.3,0.5,0.4,1.1,0.4,1.8c0,0.7-0.1,1.3-0.4,1.8c-0.3,0.5-0.6,0.9-1.1,1.2
	C258.5,191.5,258,191.6,257.4,191.6z M257.4,190.6c0.4,0,0.7-0.1,1-0.3c0.3-0.2,0.5-0.5,0.6-0.8c0.1-0.4,0.2-0.7,0.2-1.2
	c0-0.4-0.1-0.8-0.2-1.2c-0.1-0.4-0.3-0.6-0.6-0.8c-0.3-0.2-0.6-0.3-1-0.3c-0.4,0-0.7,0.1-1,0.3c-0.3,0.2-0.5,0.5-0.6,0.8
	c-0.1,0.3-0.2,0.7-0.2,1.2c0,0.4,0.1,0.8,0.2,1.2c0.1,0.3,0.3,0.6,0.6,0.8C256.7,190.5,257,190.6,257.4,190.6z M261.9,191.5V185h1.2
	v1h0.1c0.1-0.4,0.3-0.6,0.6-0.8c0.3-0.2,0.6-0.3,1-0.3c0.1,0,0.2,0,0.3,0c0.1,0,0.2,0,0.3,0v1.2c-0.1,0-0.1,0-0.3,0
	c-0.1,0-0.3,0-0.4,0c-0.3,0-0.6,0.1-0.8,0.2c-0.2,0.1-0.4,0.3-0.6,0.5c-0.1,0.2-0.2,0.5-0.2,0.8v4H261.9z M269.1,191.6
	c-0.6,0-1.2-0.1-1.7-0.4c-0.5-0.3-0.8-0.7-1.1-1.2c-0.2-0.5-0.4-1.1-0.4-1.8c0-0.7,0.1-1.3,0.4-1.8c0.3-0.5,0.6-0.9,1.1-1.2
	c0.5-0.3,1-0.4,1.6-0.4c0.4,0,0.7,0.1,1.1,0.2c0.3,0.1,0.7,0.3,0.9,0.6c0.3,0.3,0.5,0.6,0.7,1c0.2,0.4,0.2,0.9,0.2,1.5v0.5h-5.2v-1
	h4c0-0.3-0.1-0.6-0.2-0.9c-0.1-0.3-0.3-0.5-0.6-0.6c-0.2-0.2-0.5-0.2-0.9-0.2c-0.4,0-0.7,0.1-0.9,0.3c-0.3,0.2-0.5,0.4-0.6,0.7
	c-0.1,0.3-0.2,0.6-0.2,0.9v0.7c0,0.4,0.1,0.8,0.2,1.1c0.2,0.3,0.4,0.5,0.7,0.7c0.3,0.2,0.6,0.2,1,0.2c0.2,0,0.5,0,0.7-0.1
	c0.2-0.1,0.4-0.2,0.5-0.3c0.1-0.1,0.3-0.3,0.3-0.5l1.2,0.2c-0.1,0.4-0.3,0.7-0.5,0.9c-0.2,0.3-0.6,0.5-0.9,0.6
	C270,191.6,269.5,191.6,269.1,191.6z M273.3,191.5V185h1.2v1.1h0.1c0.1-0.4,0.4-0.6,0.7-0.8c0.3-0.2,0.7-0.3,1.1-0.3
	c0.4,0,0.8,0.1,1.1,0.3c0.3,0.2,0.5,0.5,0.7,0.8h0.1c0.2-0.4,0.4-0.6,0.7-0.8c0.3-0.2,0.7-0.3,1.2-0.3c0.6,0,1.1,0.2,1.5,0.6
	c0.4,0.4,0.6,0.9,0.6,1.7v4.4h-1.3v-4.3c0-0.4-0.1-0.8-0.4-1c-0.2-0.2-0.5-0.3-0.9-0.3c-0.4,0-0.7,0.1-1,0.4c-0.2,0.3-0.3,0.6-0.3,1
	v4.2h-1.3v-4.4c0-0.4-0.1-0.6-0.3-0.9c-0.2-0.2-0.5-0.3-0.9-0.3c-0.2,0-0.5,0.1-0.7,0.2c-0.2,0.1-0.4,0.3-0.5,0.5
	c-0.1,0.2-0.2,0.5-0.2,0.8v4H273.3z"/>
<path class="st2" d="M389.2,182.8v8.7h-1.3v-7.4h-0.1l-2.1,1.4v-1.3l2.2-1.4H389.2z M392.8,190.3l-0.1,0.5c0,0.3-0.1,0.7-0.2,1.1
	c-0.1,0.4-0.2,0.7-0.3,1c-0.1,0.3-0.2,0.6-0.3,0.8H391c0-0.2,0.1-0.4,0.2-0.7c0.1-0.3,0.1-0.6,0.2-1c0.1-0.4,0.1-0.7,0.1-1.1l0-0.5
	H392.8z M397.3,191.6c-0.6,0-1.1-0.1-1.6-0.3c-0.5-0.2-0.8-0.5-1.1-0.8c-0.3-0.4-0.4-0.8-0.4-1.3h1.3c0,0.3,0.1,0.5,0.3,0.7
	c0.2,0.2,0.4,0.3,0.6,0.4c0.3,0.1,0.5,0.2,0.9,0.2c0.3,0,0.6-0.1,0.9-0.2c0.3-0.1,0.5-0.3,0.6-0.5c0.2-0.2,0.2-0.5,0.2-0.7
	c0-0.3-0.1-0.5-0.2-0.8c-0.1-0.2-0.4-0.4-0.7-0.5c-0.3-0.1-0.6-0.2-1-0.2h-0.7v-1.1h0.7c0.3,0,0.6-0.1,0.9-0.2
	c0.2-0.1,0.4-0.3,0.6-0.5c0.1-0.2,0.2-0.5,0.2-0.7c0-0.3-0.1-0.5-0.2-0.7c-0.1-0.2-0.3-0.4-0.5-0.5c-0.2-0.1-0.5-0.2-0.8-0.2
	c-0.3,0-0.5,0.1-0.8,0.2c-0.2,0.1-0.4,0.2-0.6,0.4c-0.2,0.2-0.2,0.4-0.2,0.7h-1.3c0-0.5,0.2-0.9,0.4-1.2c0.3-0.4,0.6-0.6,1.1-0.8
	c0.4-0.2,0.9-0.3,1.5-0.3c0.6,0,1,0.1,1.4,0.3c0.4,0.2,0.7,0.5,0.9,0.9c0.2,0.4,0.3,0.8,0.3,1.2c0,0.5-0.1,0.9-0.4,1.2
	c-0.3,0.3-0.6,0.6-1.1,0.7v0.1c0.6,0.1,1,0.3,1.3,0.7c0.3,0.4,0.5,0.8,0.5,1.4c0,0.5-0.1,0.9-0.4,1.3c-0.3,0.4-0.6,0.7-1.1,0.9
	C398.4,191.5,397.9,191.6,397.3,191.6z M402.2,191.5l3.8-7.5v-0.1h-4.4v-1.1h5.8v1.2l-3.8,7.6H402.2z M413.5,189.9v-0.5
	c0-0.3,0.1-0.6,0.2-0.9c0.1-0.3,0.3-0.5,0.6-0.7c0.3-0.2,0.6-0.3,1-0.3c0.4,0,0.7,0.1,1,0.2c0.3,0.2,0.5,0.4,0.6,0.7
	c0.1,0.3,0.2,0.6,0.2,0.9v0.5c0,0.3-0.1,0.6-0.2,0.9c-0.1,0.3-0.3,0.5-0.6,0.7c-0.3,0.2-0.6,0.2-1,0.2c-0.4,0-0.7-0.1-1-0.2
	c-0.3-0.2-0.5-0.4-0.6-0.7C413.5,190.5,413.5,190.2,413.5,189.9z M414.5,189.4v0.5c0,0.2,0.1,0.5,0.2,0.7c0.1,0.2,0.3,0.3,0.6,0.3
	c0.3,0,0.5-0.1,0.6-0.3c0.1-0.2,0.2-0.4,0.2-0.7v-0.5c0-0.2-0.1-0.5-0.2-0.7c-0.1-0.2-0.3-0.3-0.6-0.3c-0.3,0-0.5,0.1-0.6,0.3
	C414.5,188.9,414.5,189.2,414.5,189.4z M409.1,184.9v-0.5c0-0.3,0.1-0.6,0.2-0.9c0.1-0.3,0.3-0.5,0.6-0.7c0.3-0.2,0.6-0.2,1-0.2
	c0.4,0,0.7,0.1,1,0.2c0.3,0.2,0.5,0.4,0.6,0.7c0.1,0.3,0.2,0.6,0.2,0.9v0.5c0,0.3-0.1,0.6-0.2,0.9c-0.1,0.3-0.3,0.5-0.6,0.7
	c-0.3,0.2-0.6,0.2-1,0.2c-0.4,0-0.7-0.1-1-0.2c-0.3-0.2-0.5-0.4-0.6-0.7C409.1,185.5,409.1,185.2,409.1,184.9z M410.1,184.4v0.5
	c0,0.2,0.1,0.5,0.2,0.7c0.1,0.2,0.3,0.3,0.6,0.3c0.3,0,0.5-0.1,0.6-0.3c0.1-0.2,0.2-0.4,0.2-0.7v-0.5c0-0.2-0.1-0.5-0.2-0.7
	c-0.1-0.2-0.3-0.3-0.6-0.3c-0.3,0-0.5,0.1-0.6,0.3C410.1,183.9,410.1,184.2,410.1,184.4z M409.5,191.5l6-8.7h1l-6,8.7H409.5z"/>
</svg>
