<?xml version="1.0" encoding="utf-8"?>
<!-- Generator: Adobe Illustrator 24.3.0, SVG Export Plug-In . SVG Version: 6.00 Build 0)  -->
<svg version="1.1" id="Layer_1" xmlns="http://www.w3.org/2000/svg" xmlns:xlink="http://www.w3.org/1999/xlink" x="0px" y="0px"
	 viewBox="0 0 300 244" style="enable-background:new 0 0 300 244;" xml:space="preserve">
<style type="text/css">
	.st0{fill:#FFFFFF;}
	.st1{fill:#171717;}
	.st2{fill:#B9B9B9;}
	.st3{fill:#7433FF;fill-opacity:0.1;}
	.st4{fill:#5F2EEA;}
	.st5{fill:none;stroke:#EEEEEE;}
	.st6{fill:#5887FF;fill-opacity:0.1;}
	.st7{fill:#0061F7;}
	.st8{fill:#F55B5D;fill-opacity:0.1;}
	.st9{fill:#F26464;}
</style>
<path class="st0" d="M10,0.5h280c5.5,0,10,4.5,10,10v224c0,5.5-4.5,10-10,10H10c-5.5,0-10-4.5-10-10v-224C0,5,4.5,0.5,10,0.5z"/>
<path class="st1" d="M22.1,35.5V23.9h4.4c0.9,0,1.6,0.2,2.2,0.5c0.6,0.3,1.1,0.8,1.4,1.4c0.3,0.6,0.5,1.2,0.5,2c0,0.7-0.2,1.4-0.5,2
	c-0.3,0.6-0.8,1-1.4,1.4c-0.6,0.3-1.4,0.5-2.3,0.5h-2.9v-1.7h2.6c0.5,0,1-0.1,1.3-0.3c0.3-0.2,0.6-0.4,0.7-0.8
	c0.2-0.3,0.2-0.7,0.2-1.1c0-0.4-0.1-0.8-0.2-1.1c-0.2-0.3-0.4-0.6-0.7-0.7c-0.3-0.2-0.8-0.3-1.3-0.3h-1.9v9.9H22.1z M35.5,35.7
	c-0.9,0-1.6-0.2-2.2-0.6s-1.1-0.9-1.5-1.6c-0.3-0.7-0.5-1.5-0.5-2.4c0-0.9,0.2-1.7,0.5-2.4c0.3-0.7,0.8-1.2,1.5-1.6s1.4-0.6,2.2-0.6
	c0.9,0,1.6,0.2,2.2,0.6s1.1,0.9,1.4,1.6c0.3,0.7,0.5,1.5,0.5,2.4c0,0.9-0.2,1.7-0.5,2.4c-0.3,0.7-0.8,1.2-1.4,1.6
	S36.4,35.7,35.5,35.7z M35.6,34c0.5,0,0.8-0.1,1.2-0.4c0.3-0.3,0.5-0.6,0.7-1c0.2-0.4,0.2-0.9,0.2-1.4c0-0.5-0.1-1-0.2-1.4
	c-0.2-0.4-0.4-0.8-0.7-1c-0.3-0.3-0.7-0.4-1.2-0.4c-0.5,0-0.9,0.1-1.2,0.4c-0.3,0.3-0.5,0.6-0.7,1c-0.2,0.4-0.2,0.9-0.2,1.4
	c0,0.5,0.1,1,0.2,1.4c0.2,0.4,0.4,0.8,0.7,1C34.7,33.9,35.1,34,35.6,34z M42.6,35.5l-2.5-8.7h2.1l1.5,6.1h0.1l1.6-6.1h2.1l1.6,6.1
	h0.1l1.5-6.1h2.1l-2.5,8.7h-2.1l-1.6-5.9h-0.1l-1.6,5.9H42.6z M57.4,35.7c-0.9,0-1.6-0.2-2.3-0.5c-0.6-0.4-1.1-0.9-1.5-1.6
	c-0.3-0.7-0.5-1.5-0.5-2.4c0-0.9,0.2-1.7,0.5-2.4c0.3-0.7,0.8-1.2,1.4-1.6c0.6-0.4,1.3-0.6,2.2-0.6c0.5,0,1,0.1,1.5,0.3
	c0.5,0.2,0.9,0.4,1.3,0.8c0.4,0.4,0.7,0.8,0.9,1.4c0.2,0.6,0.3,1.2,0.3,2v0.6h-7.2v-1.4h5.2c0-0.4-0.1-0.7-0.3-1.1
	c-0.2-0.3-0.4-0.6-0.7-0.7c-0.3-0.2-0.6-0.3-1-0.3c-0.4,0-0.8,0.1-1.1,0.3c-0.3,0.2-0.6,0.5-0.7,0.8c-0.2,0.3-0.3,0.7-0.3,1.1v1.2
	c0,0.5,0.1,0.9,0.3,1.3c0.2,0.4,0.4,0.6,0.8,0.8c0.3,0.2,0.7,0.3,1.2,0.3c0.3,0,0.6,0,0.8-0.1c0.2-0.1,0.5-0.2,0.6-0.4
	c0.2-0.2,0.3-0.4,0.4-0.6l1.9,0.2c-0.1,0.5-0.4,1-0.7,1.3c-0.3,0.4-0.8,0.7-1.3,0.9C58.7,35.6,58.1,35.7,57.4,35.7z M62.6,35.5v-8.7
	h2v1.5h0.1c0.2-0.5,0.4-0.9,0.8-1.2c0.4-0.3,0.8-0.4,1.3-0.4c0.1,0,0.2,0,0.4,0c0.1,0,0.3,0,0.4,0v1.9c-0.1,0-0.2-0.1-0.4-0.1
	c-0.2,0-0.4,0-0.5,0c-0.4,0-0.7,0.1-1,0.2c-0.3,0.2-0.5,0.4-0.7,0.7c-0.2,0.3-0.3,0.6-0.3,1v5.1H62.6z M72.2,35.5V23.9h4.5
	c0.8,0,1.5,0.1,2.1,0.4c0.6,0.3,1,0.6,1.3,1.1c0.3,0.5,0.4,1,0.4,1.5c0,0.5-0.1,0.9-0.3,1.2c-0.2,0.3-0.4,0.6-0.7,0.8
	c-0.3,0.2-0.6,0.4-1,0.4v0.1c0.4,0,0.8,0.1,1.2,0.4c0.4,0.2,0.7,0.5,0.9,1c0.2,0.4,0.4,0.9,0.4,1.5c0,0.6-0.1,1.1-0.4,1.6
	c-0.3,0.5-0.7,0.9-1.3,1.1c-0.6,0.3-1.3,0.4-2.2,0.4H72.2z M74.4,33.8h2.3c0.8,0,1.3-0.1,1.7-0.4c0.3-0.3,0.5-0.7,0.5-1.1
	c0-0.3-0.1-0.7-0.3-0.9c-0.2-0.3-0.4-0.5-0.7-0.7c-0.3-0.2-0.7-0.2-1.1-0.2h-2.3V33.8z M74.4,28.8h2.1c0.4,0,0.7-0.1,1-0.2
	c0.3-0.1,0.5-0.3,0.7-0.6c0.2-0.2,0.3-0.5,0.3-0.9c0-0.5-0.2-0.8-0.5-1.1c-0.3-0.3-0.8-0.4-1.4-0.4h-2.1V28.8z M82.3,35.5v-8.7h2.1
	v8.7H82.3z M83.3,25.6c-0.3,0-0.6-0.1-0.8-0.3c-0.2-0.2-0.4-0.5-0.4-0.8c0-0.3,0.1-0.6,0.4-0.8c0.2-0.2,0.5-0.3,0.8-0.3
	c0.3,0,0.6,0.1,0.8,0.3c0.2,0.2,0.4,0.5,0.4,0.8c0,0.3-0.1,0.6-0.4,0.8C83.9,25.4,83.6,25.6,83.3,25.6z"/>
<path class="st2" d="M23,44.3V53h-1.3v-8.7H23z M27.1,53.2c-0.6,0-1.1-0.1-1.6-0.4c-0.5-0.3-0.8-0.7-1.1-1.2s-0.4-1.1-0.4-1.8
	c0-0.7,0.1-1.3,0.4-1.8c0.3-0.5,0.6-0.9,1.1-1.2c0.5-0.3,1-0.4,1.6-0.4c0.6,0,1.1,0.1,1.6,0.4c0.5,0.3,0.8,0.7,1.1,1.2
	c0.3,0.5,0.4,1.1,0.4,1.8c0,0.7-0.1,1.3-0.4,1.8c-0.3,0.5-0.6,0.9-1.1,1.2C28.3,53,27.7,53.2,27.1,53.2z M27.1,52.1
	c0.4,0,0.7-0.1,1-0.3c0.3-0.2,0.5-0.5,0.6-0.8c0.1-0.3,0.2-0.7,0.2-1.2c0-0.4-0.1-0.8-0.2-1.2c-0.1-0.4-0.3-0.6-0.6-0.8
	c-0.3-0.2-0.6-0.3-1-0.3c-0.4,0-0.7,0.1-1,0.3c-0.3,0.2-0.5,0.5-0.6,0.8c-0.1,0.3-0.2,0.7-0.2,1.2c0,0.4,0.1,0.8,0.2,1.2
	c0.1,0.3,0.3,0.6,0.6,0.8C26.4,52,26.7,52.1,27.1,52.1z M31.2,53v-6.5h1.2v1h0.1c0.1-0.4,0.3-0.6,0.6-0.8c0.3-0.2,0.6-0.3,1-0.3
	c0.1,0,0.2,0,0.3,0c0.1,0,0.2,0,0.3,0v1.2c-0.1,0-0.1,0-0.3,0c-0.1,0-0.3,0-0.4,0c-0.3,0-0.6,0.1-0.8,0.2c-0.2,0.1-0.4,0.3-0.6,0.5
	c-0.1,0.2-0.2,0.5-0.2,0.8v4H31.2z M38,53.2c-0.6,0-1.2-0.1-1.7-0.4c-0.5-0.3-0.8-0.7-1.1-1.2c-0.2-0.5-0.4-1.1-0.4-1.8
	c0-0.7,0.1-1.3,0.4-1.8c0.3-0.5,0.6-0.9,1.1-1.2c0.5-0.3,1-0.4,1.6-0.4c0.4,0,0.7,0.1,1.1,0.2c0.3,0.1,0.7,0.3,0.9,0.6
	c0.3,0.3,0.5,0.6,0.7,1c0.2,0.4,0.2,0.9,0.2,1.5v0.5h-5.2v-1h4c0-0.3-0.1-0.6-0.2-0.9c-0.1-0.3-0.3-0.5-0.6-0.6
	c-0.2-0.2-0.5-0.2-0.9-0.2c-0.4,0-0.7,0.1-0.9,0.3c-0.3,0.2-0.5,0.4-0.6,0.7c-0.1,0.3-0.2,0.6-0.2,0.9v0.7c0,0.4,0.1,0.8,0.2,1.1
	c0.2,0.3,0.4,0.5,0.7,0.7c0.3,0.2,0.6,0.2,1,0.2c0.2,0,0.5,0,0.7-0.1c0.2-0.1,0.4-0.2,0.5-0.3c0.1-0.1,0.3-0.3,0.3-0.5l1.2,0.2
	c-0.1,0.4-0.3,0.7-0.5,0.9c-0.2,0.3-0.6,0.5-0.9,0.6C38.9,53.1,38.5,53.2,38,53.2z M41.8,53v-6.5H43v1.1h0.1
	c0.1-0.4,0.4-0.6,0.7-0.8c0.3-0.2,0.7-0.3,1.1-0.3c0.4,0,0.8,0.1,1.1,0.3c0.3,0.2,0.5,0.5,0.7,0.8h0.1c0.2-0.3,0.4-0.6,0.7-0.8
	c0.3-0.2,0.7-0.3,1.2-0.3c0.6,0,1.1,0.2,1.5,0.6c0.4,0.4,0.6,0.9,0.6,1.7V53h-1.3v-4.3c0-0.4-0.1-0.8-0.4-1
	c-0.2-0.2-0.5-0.3-0.9-0.3c-0.4,0-0.7,0.1-1,0.4c-0.2,0.3-0.3,0.6-0.3,1V53h-1.3v-4.4c0-0.4-0.1-0.6-0.3-0.9
	c-0.2-0.2-0.5-0.3-0.9-0.3c-0.2,0-0.5,0.1-0.7,0.2c-0.2,0.1-0.4,0.3-0.5,0.5c-0.1,0.2-0.2,0.5-0.2,0.8v4H41.8z M54.8,53v-6.5h1.3V53
	H54.8z M55.4,45.5c-0.2,0-0.4-0.1-0.6-0.2c-0.2-0.2-0.2-0.3-0.2-0.5c0-0.2,0.1-0.4,0.2-0.5C55,44,55.2,44,55.4,44s0.4,0.1,0.6,0.2
	c0.2,0.1,0.2,0.3,0.2,0.5c0,0.2-0.1,0.4-0.2,0.5C55.8,45.4,55.6,45.5,55.4,45.5z M57.4,55.5v-9h1.2v1.1h0.1c0.1-0.1,0.2-0.3,0.3-0.5
	c0.1-0.2,0.3-0.3,0.6-0.5c0.2-0.1,0.6-0.2,1-0.2c0.5,0,1,0.1,1.4,0.4c0.4,0.3,0.7,0.7,1,1.2c0.2,0.5,0.4,1.1,0.4,1.8
	c0,0.7-0.1,1.3-0.4,1.8c-0.2,0.5-0.6,0.9-1,1.2c-0.4,0.3-0.9,0.4-1.4,0.4c-0.4,0-0.7-0.1-1-0.2c-0.2-0.1-0.4-0.3-0.6-0.5
	c-0.1-0.2-0.3-0.3-0.3-0.5h-0.1v3.5H57.4z M58.6,49.8c0,0.5,0.1,0.9,0.2,1.2s0.3,0.6,0.6,0.8c0.3,0.2,0.6,0.3,0.9,0.3
	c0.4,0,0.7-0.1,1-0.3c0.3-0.2,0.4-0.5,0.6-0.8c0.1-0.3,0.2-0.7,0.2-1.2c0-0.4-0.1-0.8-0.2-1.2c-0.1-0.3-0.3-0.6-0.6-0.8
	c-0.3-0.2-0.6-0.3-1-0.3c-0.4,0-0.7,0.1-0.9,0.3c-0.3,0.2-0.4,0.5-0.6,0.8S58.6,49.3,58.6,49.8z M69.3,48.1l-1.2,0.2
	c0-0.1-0.1-0.3-0.2-0.4c-0.1-0.1-0.2-0.2-0.4-0.3c-0.2-0.1-0.4-0.1-0.7-0.1c-0.4,0-0.7,0.1-0.9,0.2c-0.2,0.2-0.4,0.4-0.4,0.6
	c0,0.2,0.1,0.4,0.2,0.5c0.2,0.1,0.4,0.2,0.8,0.3l1,0.2c0.6,0.1,1.1,0.4,1.3,0.6c0.3,0.3,0.4,0.7,0.4,1.1c0,0.4-0.1,0.7-0.3,1
	c-0.2,0.3-0.5,0.5-0.9,0.7c-0.4,0.2-0.9,0.3-1.4,0.3c-0.7,0-1.3-0.2-1.8-0.5c-0.5-0.3-0.7-0.8-0.9-1.3l1.2-0.2
	c0.1,0.3,0.2,0.6,0.5,0.7c0.2,0.2,0.5,0.2,0.9,0.2c0.4,0,0.8-0.1,1-0.3c0.2-0.2,0.4-0.4,0.4-0.6c0-0.2-0.1-0.4-0.2-0.5
	c-0.2-0.1-0.4-0.2-0.7-0.3l-1.1-0.2c-0.6-0.1-1.1-0.4-1.4-0.7c-0.3-0.3-0.4-0.7-0.4-1.2c0-0.4,0.1-0.7,0.3-1
	c0.2-0.3,0.5-0.5,0.9-0.7c0.4-0.2,0.8-0.2,1.3-0.2c0.7,0,1.3,0.2,1.7,0.5C68.9,47.2,69.1,47.6,69.3,48.1z M74.6,50.3v-3.8h1.3V53
	h-1.3v-1.1h-0.1c-0.2,0.3-0.4,0.6-0.7,0.9c-0.3,0.2-0.7,0.3-1.2,0.3c-0.4,0-0.8-0.1-1.1-0.3c-0.3-0.2-0.6-0.5-0.8-0.8
	c-0.2-0.4-0.3-0.8-0.3-1.4v-4.2h1.3v4c0,0.4,0.1,0.8,0.4,1.1c0.2,0.3,0.6,0.4,1,0.4c0.2,0,0.5-0.1,0.7-0.2c0.2-0.1,0.4-0.3,0.6-0.5
	C74.5,51,74.6,50.7,74.6,50.3z M77.1,53v-6.5h1.2v1.1h0.1c0.1-0.4,0.4-0.6,0.7-0.8c0.3-0.2,0.7-0.3,1.1-0.3c0.4,0,0.8,0.1,1.1,0.3
	c0.3,0.2,0.5,0.5,0.7,0.8h0.1c0.2-0.3,0.4-0.6,0.7-0.8c0.3-0.2,0.7-0.3,1.2-0.3c0.6,0,1.1,0.2,1.5,0.6c0.4,0.4,0.6,0.9,0.6,1.7V53
	h-1.3v-4.3c0-0.4-0.1-0.8-0.4-1c-0.2-0.2-0.5-0.3-0.9-0.3c-0.4,0-0.7,0.1-1,0.4c-0.2,0.3-0.3,0.6-0.3,1V53H81v-4.4
	c0-0.4-0.1-0.6-0.3-0.9c-0.2-0.2-0.5-0.3-0.9-0.3c-0.2,0-0.5,0.1-0.7,0.2c-0.2,0.1-0.4,0.3-0.5,0.5c-0.1,0.2-0.2,0.5-0.2,0.8v4H77.1
	z M92.6,53.2c-0.5,0-1-0.1-1.4-0.4c-0.4-0.3-0.7-0.7-1-1.2c-0.2-0.5-0.3-1.1-0.3-1.8c0-0.7,0.1-1.3,0.4-1.8c0.2-0.5,0.6-0.9,1-1.2
	c0.4-0.3,0.9-0.4,1.4-0.4c0.4,0,0.7,0.1,1,0.2c0.2,0.1,0.4,0.3,0.6,0.5c0.1,0.2,0.2,0.3,0.3,0.5h0.1v-3.2h1.3V53h-1.2v-1h-0.1
	c-0.1,0.1-0.2,0.3-0.3,0.5c-0.1,0.2-0.3,0.3-0.6,0.5S93,53.2,92.6,53.2z M92.9,52.1c0.4,0,0.7-0.1,0.9-0.3c0.3-0.2,0.4-0.5,0.6-0.8
	c0.1-0.3,0.2-0.8,0.2-1.2c0-0.5-0.1-0.9-0.2-1.2c-0.1-0.3-0.3-0.6-0.6-0.8c-0.3-0.2-0.6-0.3-0.9-0.3c-0.4,0-0.7,0.1-1,0.3
	c-0.3,0.2-0.4,0.5-0.6,0.8c-0.1,0.3-0.2,0.7-0.2,1.2c0,0.4,0.1,0.8,0.2,1.2c0.1,0.3,0.3,0.6,0.6,0.8C92.2,52,92.5,52.1,92.9,52.1z
	 M100,53.2c-0.6,0-1.1-0.1-1.6-0.4c-0.5-0.3-0.8-0.7-1.1-1.2c-0.3-0.5-0.4-1.1-0.4-1.8c0-0.7,0.1-1.3,0.4-1.8
	c0.3-0.5,0.6-0.9,1.1-1.2c0.5-0.3,1-0.4,1.6-0.4c0.6,0,1.1,0.1,1.6,0.4c0.5,0.3,0.8,0.7,1.1,1.2c0.3,0.5,0.4,1.1,0.4,1.8
	c0,0.7-0.1,1.3-0.4,1.8c-0.3,0.5-0.6,0.9-1.1,1.2C101.1,53,100.6,53.2,100,53.2z M100,52.1c0.4,0,0.7-0.1,1-0.3
	c0.3-0.2,0.5-0.5,0.6-0.8c0.1-0.3,0.2-0.7,0.2-1.2c0-0.4-0.1-0.8-0.2-1.2c-0.1-0.4-0.3-0.6-0.6-0.8c-0.3-0.2-0.6-0.3-1-0.3
	c-0.4,0-0.7,0.1-1,0.3c-0.3,0.2-0.5,0.5-0.6,0.8c-0.1,0.3-0.2,0.7-0.2,1.2c0,0.4,0.1,0.8,0.2,1.2c0.1,0.3,0.3,0.6,0.6,0.8
	C99.3,52,99.6,52.1,100,52.1z M105.3,44.3V53h-1.3v-8.7H105.3z M109.4,53.2c-0.6,0-1.2-0.1-1.6-0.4c-0.5-0.3-0.8-0.7-1.1-1.2
	c-0.3-0.5-0.4-1.1-0.4-1.8c0-0.7,0.1-1.3,0.4-1.8c0.3-0.5,0.6-0.9,1.1-1.2c0.5-0.3,1-0.4,1.6-0.4c0.6,0,1.1,0.1,1.6,0.4
	c0.5,0.3,0.8,0.7,1.1,1.2c0.3,0.5,0.4,1.1,0.4,1.8c0,0.7-0.1,1.3-0.4,1.8c-0.3,0.5-0.6,0.9-1.1,1.2C110.6,53,110,53.2,109.4,53.2z
	 M109.4,52.1c0.4,0,0.7-0.1,1-0.3c0.3-0.2,0.5-0.5,0.6-0.8c0.1-0.3,0.2-0.7,0.2-1.2c0-0.4-0.1-0.8-0.2-1.2c-0.1-0.4-0.3-0.6-0.6-0.8
	c-0.3-0.2-0.6-0.3-1-0.3c-0.4,0-0.7,0.1-1,0.3c-0.3,0.2-0.5,0.5-0.6,0.8c-0.1,0.3-0.2,0.7-0.2,1.2c0,0.4,0.1,0.8,0.2,1.2
	c0.1,0.3,0.3,0.6,0.6,0.8C108.7,52,109,52.1,109.4,52.1z M113.5,53v-6.5h1.2v1h0.1c0.1-0.4,0.3-0.6,0.6-0.8c0.3-0.2,0.6-0.3,1-0.3
	c0.1,0,0.2,0,0.3,0c0.1,0,0.2,0,0.3,0v1.2c-0.1,0-0.1,0-0.3,0c-0.1,0-0.3,0-0.4,0c-0.3,0-0.6,0.1-0.8,0.2c-0.2,0.1-0.4,0.3-0.6,0.5
	c-0.1,0.2-0.2,0.5-0.2,0.8v4H113.5z M120.3,53.2c-0.6,0-1.2-0.1-1.7-0.4c-0.5-0.3-0.8-0.7-1.1-1.2c-0.2-0.5-0.4-1.1-0.4-1.8
	c0-0.7,0.1-1.3,0.4-1.8c0.3-0.5,0.6-0.9,1.1-1.2c0.5-0.3,1-0.4,1.6-0.4c0.4,0,0.7,0.1,1.1,0.2c0.3,0.1,0.7,0.3,0.9,0.6
	c0.3,0.3,0.5,0.6,0.7,1c0.2,0.4,0.2,0.9,0.2,1.5v0.5h-5.2v-1h4c0-0.3-0.1-0.6-0.2-0.9c-0.1-0.3-0.3-0.5-0.6-0.6
	c-0.2-0.2-0.5-0.2-0.9-0.2c-0.4,0-0.7,0.1-0.9,0.3c-0.3,0.2-0.5,0.4-0.6,0.7c-0.1,0.3-0.2,0.6-0.2,0.9v0.7c0,0.4,0.1,0.8,0.2,1.1
	c0.2,0.3,0.4,0.5,0.7,0.7c0.3,0.2,0.6,0.2,1,0.2c0.2,0,0.5,0,0.7-0.1c0.2-0.1,0.4-0.2,0.5-0.3c0.1-0.1,0.3-0.3,0.3-0.5l1.2,0.2
	c-0.1,0.4-0.3,0.7-0.5,0.9c-0.2,0.3-0.6,0.5-0.9,0.6C121.2,53.1,120.8,53.2,120.3,53.2z M129,48.1l-1.2,0.2c0-0.1-0.1-0.3-0.2-0.4
	c-0.1-0.1-0.2-0.2-0.4-0.3c-0.2-0.1-0.4-0.1-0.7-0.1c-0.4,0-0.7,0.1-0.9,0.2c-0.2,0.2-0.4,0.4-0.4,0.6c0,0.2,0.1,0.4,0.2,0.5
	c0.2,0.1,0.4,0.2,0.8,0.3l1,0.2c0.6,0.1,1.1,0.4,1.3,0.6c0.3,0.3,0.4,0.7,0.4,1.1c0,0.4-0.1,0.7-0.3,1c-0.2,0.3-0.5,0.5-0.9,0.7
	c-0.4,0.2-0.9,0.3-1.4,0.3c-0.7,0-1.3-0.2-1.8-0.5c-0.5-0.3-0.7-0.8-0.9-1.3l1.2-0.2c0.1,0.3,0.2,0.6,0.5,0.7
	c0.2,0.2,0.5,0.2,0.9,0.2c0.4,0,0.8-0.1,1-0.3c0.2-0.2,0.4-0.4,0.4-0.6c0-0.2-0.1-0.4-0.2-0.5c-0.2-0.1-0.4-0.2-0.7-0.3l-1.1-0.2
	c-0.6-0.1-1.1-0.4-1.4-0.7c-0.3-0.3-0.4-0.7-0.4-1.2c0-0.4,0.1-0.7,0.3-1c0.2-0.3,0.5-0.5,0.9-0.7c0.4-0.2,0.8-0.2,1.3-0.2
	c0.7,0,1.3,0.2,1.7,0.5C128.6,47.2,128.9,47.6,129,48.1z"/>
<rect x="13" y="67.5" class="st0" width="270" height="52"/>
<path class="st1" d="M33.9,88.5v-8.7h1.6v7.4h3.8v1.3H33.9z M43,88.6c-0.6,0-1.2-0.1-1.7-0.4c-0.5-0.3-0.8-0.7-1.1-1.2
	c-0.3-0.5-0.4-1.1-0.4-1.8c0-0.7,0.1-1.3,0.4-1.8c0.3-0.5,0.6-0.9,1.1-1.2c0.5-0.3,1-0.4,1.7-0.4c0.6,0,1.2,0.1,1.7,0.4
	c0.5,0.3,0.8,0.7,1.1,1.2c0.3,0.5,0.4,1.1,0.4,1.8c0,0.7-0.1,1.3-0.4,1.8c-0.3,0.5-0.6,0.9-1.1,1.2C44.2,88.5,43.7,88.6,43,88.6z
	 M43.1,87.4c0.3,0,0.6-0.1,0.9-0.3c0.2-0.2,0.4-0.5,0.5-0.8c0.1-0.3,0.2-0.7,0.2-1.1c0-0.4-0.1-0.8-0.2-1.1
	c-0.1-0.3-0.3-0.6-0.5-0.8c-0.2-0.2-0.5-0.3-0.9-0.3c-0.4,0-0.7,0.1-0.9,0.3c-0.2,0.2-0.4,0.5-0.5,0.8c-0.1,0.3-0.2,0.7-0.2,1.1
	c0,0.4,0.1,0.8,0.2,1.1c0.1,0.3,0.3,0.6,0.5,0.8C42.4,87.3,42.7,87.4,43.1,87.4z M47.1,88.5V82h1.5V83h0.1c0.1-0.4,0.3-0.7,0.6-0.9
	c0.3-0.2,0.6-0.3,1-0.3c0.1,0,0.2,0,0.3,0c0.1,0,0.2,0,0.3,0v1.4c-0.1,0-0.2,0-0.3-0.1c-0.1,0-0.3,0-0.4,0c-0.3,0-0.5,0.1-0.8,0.2
	c-0.2,0.1-0.4,0.3-0.5,0.5c-0.1,0.2-0.2,0.5-0.2,0.7v3.8H47.1z M54.1,88.6c-0.7,0-1.2-0.1-1.7-0.4c-0.5-0.3-0.8-0.7-1.1-1.2
	c-0.3-0.5-0.4-1.1-0.4-1.8c0-0.7,0.1-1.3,0.4-1.8c0.3-0.5,0.6-0.9,1.1-1.2c0.5-0.3,1-0.4,1.6-0.4c0.4,0,0.8,0.1,1.1,0.2
	c0.4,0.1,0.7,0.3,1,0.6c0.3,0.3,0.5,0.6,0.7,1c0.2,0.4,0.2,0.9,0.2,1.5v0.5h-5.4v-1h3.9c0-0.3-0.1-0.6-0.2-0.8
	c-0.1-0.2-0.3-0.4-0.5-0.5c-0.2-0.1-0.5-0.2-0.8-0.2c-0.3,0-0.6,0.1-0.8,0.2c-0.2,0.2-0.4,0.3-0.6,0.6c-0.1,0.2-0.2,0.5-0.2,0.8v0.9
	c0,0.4,0.1,0.7,0.2,1c0.1,0.3,0.3,0.5,0.6,0.6c0.2,0.1,0.5,0.2,0.9,0.2c0.2,0,0.4,0,0.6-0.1c0.2-0.1,0.3-0.2,0.5-0.3
	c0.1-0.1,0.2-0.3,0.3-0.5l1.4,0.2c-0.1,0.4-0.3,0.7-0.5,1c-0.3,0.3-0.6,0.5-1,0.7C55,88.6,54.6,88.6,54.1,88.6z M57.9,88.5V82h1.5
	v1.1h0.1c0.1-0.4,0.4-0.7,0.7-0.9c0.3-0.2,0.7-0.3,1.1-0.3c0.4,0,0.8,0.1,1.1,0.3c0.3,0.2,0.5,0.5,0.6,0.9h0.1
	c0.1-0.4,0.4-0.7,0.7-0.9c0.3-0.2,0.8-0.3,1.2-0.3c0.6,0,1.1,0.2,1.5,0.6c0.4,0.4,0.6,0.9,0.6,1.7v4.4h-1.5v-4.2
	c0-0.4-0.1-0.7-0.3-0.9c-0.2-0.2-0.5-0.3-0.8-0.3c-0.4,0-0.7,0.1-0.9,0.3c-0.2,0.2-0.3,0.5-0.3,0.9v4.1h-1.5v-4.2
	c0-0.3-0.1-0.6-0.3-0.8c-0.2-0.2-0.5-0.3-0.8-0.3c-0.2,0-0.4,0.1-0.6,0.2c-0.2,0.1-0.3,0.3-0.4,0.5c-0.1,0.2-0.2,0.4-0.2,0.7v4H57.9
	z"/>
<path class="st2" d="M36.7,106.5h-2.7v-8.7h2.8c0.8,0,1.6,0.2,2.2,0.5c0.6,0.3,1.1,0.8,1.4,1.5c0.3,0.6,0.5,1.4,0.5,2.3
	c0,0.9-0.2,1.7-0.5,2.3c-0.3,0.7-0.8,1.2-1.4,1.5C38.4,106.3,37.6,106.5,36.7,106.5z M35.1,105.6h1.6c0.7,0,1.3-0.1,1.8-0.4
	c0.5-0.3,0.8-0.7,1.1-1.2c0.2-0.5,0.3-1.1,0.3-1.8c0-0.7-0.1-1.3-0.3-1.8c-0.2-0.5-0.6-0.9-1-1.2c-0.5-0.3-1-0.4-1.7-0.4h-1.7V105.6
	z M44.1,106.7c-0.4,0-0.8-0.1-1.1-0.2c-0.3-0.2-0.6-0.4-0.8-0.7c-0.2-0.3-0.3-0.7-0.3-1.1c0-0.4,0.1-0.7,0.2-0.9
	c0.1-0.2,0.3-0.4,0.6-0.6c0.2-0.1,0.5-0.2,0.8-0.3c0.3-0.1,0.6-0.1,0.9-0.2c0.4-0.1,0.7-0.1,1-0.1c0.2,0,0.4-0.1,0.5-0.1
	c0.1-0.1,0.2-0.2,0.2-0.3v0c0-0.4-0.1-0.7-0.3-1c-0.2-0.2-0.6-0.3-1-0.3c-0.5,0-0.9,0.1-1.1,0.3c-0.3,0.2-0.5,0.4-0.6,0.7l-1-0.3
	c0.2-0.4,0.4-0.7,0.7-0.9c0.3-0.2,0.6-0.4,0.9-0.5c0.3-0.1,0.7-0.1,1-0.1c0.2,0,0.5,0,0.7,0.1c0.3,0,0.5,0.1,0.8,0.3
	c0.3,0.2,0.5,0.4,0.6,0.7c0.2,0.3,0.3,0.7,0.3,1.2v4.3h-1v-0.9H46c-0.1,0.1-0.2,0.3-0.3,0.5s-0.4,0.3-0.6,0.4
	C44.8,106.6,44.5,106.7,44.1,106.7z M44.2,105.8c0.4,0,0.7-0.1,1-0.2c0.3-0.2,0.5-0.4,0.6-0.6c0.1-0.2,0.2-0.5,0.2-0.8v-0.9
	c0,0.1-0.1,0.1-0.3,0.1c-0.1,0-0.3,0.1-0.5,0.1c-0.2,0-0.4,0.1-0.5,0.1c-0.2,0-0.3,0-0.4,0.1c-0.3,0-0.5,0.1-0.7,0.2
	c-0.2,0.1-0.4,0.2-0.5,0.3c-0.1,0.1-0.2,0.3-0.2,0.6c0,0.3,0.1,0.6,0.4,0.8C43.5,105.7,43.8,105.8,44.2,105.8z M48.5,106.5V100h1
	v6.5H48.5z M49,98.9c-0.2,0-0.4-0.1-0.5-0.2c-0.1-0.1-0.2-0.3-0.2-0.5s0.1-0.3,0.2-0.5c0.1-0.1,0.3-0.2,0.5-0.2
	c0.2,0,0.4,0.1,0.5,0.2c0.1,0.1,0.2,0.3,0.2,0.5s-0.1,0.3-0.2,0.5C49.4,98.8,49.2,98.9,49,98.9z M52,97.8v8.7h-1v-8.7H52z
	 M53.4,106.5V100h1v6.5H53.4z M53.9,98.9c-0.2,0-0.4-0.1-0.5-0.2c-0.1-0.1-0.2-0.3-0.2-0.5s0.1-0.3,0.2-0.5c0.1-0.1,0.3-0.2,0.5-0.2
	c0.2,0,0.4,0.1,0.5,0.2c0.1,0.1,0.2,0.3,0.2,0.5s-0.1,0.3-0.2,0.5C54.3,98.8,54.1,98.9,53.9,98.9z M56.5,109c-0.2,0-0.3,0-0.5,0
	c-0.1,0-0.2-0.1-0.3-0.1l0.3-0.9c0.2,0.1,0.5,0.1,0.6,0.1s0.4-0.1,0.5-0.3c0.1-0.1,0.3-0.4,0.4-0.7l0.2-0.5l-2.4-6.6h1.1l1.8,5.2
	h0.1l1.8-5.2h1.1l-2.8,7.5c-0.1,0.3-0.3,0.6-0.5,0.8c-0.2,0.2-0.4,0.4-0.6,0.5C57.1,108.9,56.8,109,56.5,109z M66.1,97.8v8.7h-1
	v-8.7H66.1z M67.6,106.5V100h1v6.5H67.6z M68.1,98.9c-0.2,0-0.4-0.1-0.5-0.2c-0.1-0.1-0.2-0.3-0.2-0.5s0.1-0.3,0.2-0.5
	c0.1-0.1,0.3-0.2,0.5-0.2c0.2,0,0.4,0.1,0.5,0.2c0.1,0.1,0.2,0.3,0.2,0.5s-0.1,0.3-0.2,0.5C68.4,98.8,68.3,98.9,68.1,98.9z
	 M72.9,100v0.9h-3.5V100H72.9z M70.4,106.5v-7.4c0-0.4,0.1-0.7,0.3-0.9c0.2-0.2,0.4-0.4,0.7-0.6c0.3-0.1,0.6-0.2,0.9-0.2
	c0.2,0,0.4,0,0.6,0.1c0.2,0,0.3,0.1,0.3,0.1l-0.3,0.9c-0.1,0-0.1,0-0.2-0.1c-0.1,0-0.2,0-0.3,0c-0.3,0-0.6,0.1-0.7,0.3
	c-0.1,0.2-0.2,0.4-0.2,0.7v7.2H70.4z M76.4,106.6c-0.6,0-1.2-0.1-1.6-0.4c-0.5-0.3-0.8-0.7-1.1-1.2c-0.2-0.5-0.4-1.1-0.4-1.8
	c0-0.7,0.1-1.3,0.4-1.8c0.2-0.5,0.6-0.9,1-1.2c0.4-0.3,1-0.4,1.6-0.4c0.3,0,0.7,0.1,1,0.2c0.3,0.1,0.6,0.3,0.9,0.6
	c0.3,0.3,0.5,0.6,0.7,1c0.2,0.4,0.2,0.9,0.2,1.5v0.4h-5v-0.9h4c0-0.4-0.1-0.7-0.2-1c-0.1-0.3-0.4-0.5-0.6-0.7
	c-0.3-0.2-0.6-0.3-0.9-0.3c-0.4,0-0.7,0.1-1,0.3c-0.3,0.2-0.5,0.5-0.7,0.8c-0.2,0.3-0.2,0.7-0.2,1v0.6c0,0.5,0.1,0.9,0.3,1.3
	c0.2,0.3,0.4,0.6,0.7,0.8c0.3,0.2,0.7,0.3,1.1,0.3c0.3,0,0.5,0,0.7-0.1c0.2-0.1,0.4-0.2,0.6-0.3c0.2-0.2,0.3-0.3,0.4-0.6l1,0.3
	c-0.1,0.3-0.3,0.6-0.5,0.9c-0.2,0.2-0.5,0.4-0.9,0.6C77.2,106.6,76.8,106.6,76.4,106.6z M84.9,101.4l-0.9,0.3
	c-0.1-0.2-0.1-0.3-0.3-0.4c-0.1-0.1-0.3-0.3-0.4-0.4c-0.2-0.1-0.4-0.1-0.7-0.1c-0.4,0-0.7,0.1-1,0.3c-0.3,0.2-0.4,0.4-0.4,0.7
	c0,0.2,0.1,0.4,0.3,0.6c0.2,0.1,0.5,0.3,0.9,0.4l1,0.2c0.6,0.1,1,0.4,1.3,0.7c0.3,0.3,0.4,0.7,0.4,1.1c0,0.4-0.1,0.7-0.3,1
	c-0.2,0.3-0.5,0.5-0.9,0.7c-0.4,0.2-0.8,0.3-1.3,0.3c-0.7,0-1.2-0.1-1.7-0.4c-0.4-0.3-0.7-0.7-0.8-1.3l1-0.2
	c0.1,0.4,0.3,0.6,0.5,0.8c0.3,0.2,0.6,0.3,1,0.3c0.5,0,0.8-0.1,1.1-0.3c0.3-0.2,0.4-0.4,0.4-0.7c0-0.2-0.1-0.4-0.2-0.6
	c-0.2-0.2-0.4-0.3-0.7-0.3l-1.1-0.3c-0.6-0.1-1-0.4-1.3-0.7c-0.3-0.3-0.4-0.7-0.4-1.1c0-0.4,0.1-0.7,0.3-1c0.2-0.3,0.5-0.5,0.9-0.7
	c0.4-0.2,0.8-0.2,1.2-0.2c0.6,0,1.2,0.1,1.5,0.4C84.5,100.6,84.7,101,84.9,101.4z M89,100v0.9h-3.4V100H89z M86.6,98.4h1v6.2
	c0,0.3,0,0.5,0.1,0.6c0.1,0.1,0.2,0.2,0.3,0.3c0.1,0,0.3,0.1,0.4,0.1c0.1,0,0.2,0,0.3,0c0.1,0,0.1,0,0.2,0l0.2,0.9
	c-0.1,0-0.2,0.1-0.3,0.1c-0.1,0-0.3,0-0.5,0c-0.3,0-0.6-0.1-0.8-0.2c-0.3-0.1-0.5-0.3-0.7-0.6c-0.2-0.2-0.3-0.6-0.3-0.9V98.4z
	 M90.7,109c-0.2,0-0.3,0-0.5,0c-0.1,0-0.2-0.1-0.3-0.1l0.3-0.9c0.2,0.1,0.5,0.1,0.6,0.1s0.4-0.1,0.5-0.3c0.1-0.1,0.3-0.4,0.4-0.7
	l0.2-0.5l-2.4-6.6h1.1l1.8,5.2h0.1l1.8-5.2h1.1l-2.8,7.5c-0.1,0.3-0.3,0.6-0.5,0.8c-0.2,0.2-0.4,0.4-0.6,0.5
	C91.3,108.9,91,109,90.7,109z M97.4,97.8v8.7h-1v-8.7H97.4z M101.5,106.6c-0.6,0-1.2-0.1-1.6-0.4c-0.5-0.3-0.8-0.7-1.1-1.2
	c-0.2-0.5-0.4-1.1-0.4-1.8c0-0.7,0.1-1.3,0.4-1.8c0.2-0.5,0.6-0.9,1-1.2c0.4-0.3,1-0.4,1.6-0.4c0.3,0,0.7,0.1,1,0.2
	c0.3,0.1,0.6,0.3,0.9,0.6c0.3,0.3,0.5,0.6,0.7,1c0.2,0.4,0.2,0.9,0.2,1.5v0.4h-5v-0.9h4c0-0.4-0.1-0.7-0.2-1
	c-0.1-0.3-0.4-0.5-0.6-0.7c-0.3-0.2-0.6-0.3-0.9-0.3c-0.4,0-0.7,0.1-1,0.3c-0.3,0.2-0.5,0.5-0.7,0.8c-0.2,0.3-0.2,0.7-0.2,1v0.6
	c0,0.5,0.1,0.9,0.3,1.3c0.2,0.3,0.4,0.6,0.7,0.8c0.3,0.2,0.7,0.3,1.1,0.3c0.3,0,0.5,0,0.7-0.1c0.2-0.1,0.4-0.2,0.6-0.3
	c0.2-0.2,0.3-0.3,0.4-0.6l1,0.3c-0.1,0.3-0.3,0.6-0.5,0.9c-0.2,0.2-0.5,0.4-0.9,0.6C102.4,106.6,102,106.6,101.5,106.6z
	 M110.3,106.7c-0.4,0-0.8-0.1-1.1-0.2c-0.3-0.2-0.6-0.4-0.8-0.7c-0.2-0.3-0.3-0.7-0.3-1.1c0-0.4,0.1-0.7,0.2-0.9
	c0.1-0.2,0.3-0.4,0.6-0.6c0.2-0.1,0.5-0.2,0.8-0.3c0.3-0.1,0.6-0.1,0.9-0.2c0.4-0.1,0.7-0.1,1-0.1c0.2,0,0.4-0.1,0.5-0.1
	c0.1-0.1,0.2-0.2,0.2-0.3v0c0-0.4-0.1-0.7-0.3-1c-0.2-0.2-0.6-0.3-1-0.3c-0.5,0-0.9,0.1-1.1,0.3c-0.3,0.2-0.5,0.4-0.6,0.7l-1-0.3
	c0.2-0.4,0.4-0.7,0.7-0.9c0.3-0.2,0.6-0.4,0.9-0.5c0.3-0.1,0.7-0.1,1-0.1c0.2,0,0.5,0,0.7,0.1c0.3,0,0.5,0.1,0.8,0.3
	c0.3,0.2,0.5,0.4,0.6,0.7c0.2,0.3,0.3,0.7,0.3,1.2v4.3h-1v-0.9h-0.1c-0.1,0.1-0.2,0.3-0.3,0.5c-0.2,0.2-0.4,0.3-0.6,0.4
	S110.7,106.7,110.3,106.7z M110.4,105.8c0.4,0,0.7-0.1,1-0.2c0.3-0.2,0.5-0.4,0.6-0.6c0.1-0.2,0.2-0.5,0.2-0.8v-0.9
	c0,0.1-0.1,0.1-0.3,0.1c-0.1,0-0.3,0.1-0.5,0.1c-0.2,0-0.4,0.1-0.5,0.1c-0.2,0-0.3,0-0.4,0.1c-0.3,0-0.5,0.1-0.7,0.2
	c-0.2,0.1-0.4,0.2-0.5,0.3c-0.1,0.1-0.2,0.3-0.2,0.6c0,0.3,0.1,0.6,0.4,0.8C109.7,105.7,110,105.8,110.4,105.8z M114.7,106.5V100h1
	v1h0.1c0.1-0.3,0.3-0.6,0.6-0.8c0.3-0.2,0.7-0.3,1.1-0.3c0.1,0,0.2,0,0.3,0c0.1,0,0.2,0,0.3,0v1c0,0-0.1,0-0.2,0c-0.1,0-0.2,0-0.4,0
	c-0.3,0-0.6,0.1-0.9,0.2c-0.2,0.1-0.4,0.3-0.6,0.5c-0.1,0.2-0.2,0.5-0.2,0.8v4.1H114.7z M122,100v0.9h-3.4V100H122z M119.6,98.4h1
	v6.2c0,0.3,0,0.5,0.1,0.6c0.1,0.1,0.2,0.2,0.3,0.3c0.1,0,0.3,0.1,0.4,0.1c0.1,0,0.2,0,0.3,0c0.1,0,0.1,0,0.2,0l0.2,0.9
	c-0.1,0-0.2,0.1-0.3,0.1c-0.1,0-0.3,0-0.5,0c-0.3,0-0.6-0.1-0.8-0.2c-0.3-0.1-0.5-0.3-0.7-0.6c-0.2-0.2-0.3-0.6-0.3-0.9V98.4z
	 M123.2,106.5V100h1v6.5H123.2z M123.7,98.9c-0.2,0-0.4-0.1-0.5-0.2c-0.1-0.1-0.2-0.3-0.2-0.5s0.1-0.3,0.2-0.5
	c0.1-0.1,0.3-0.2,0.5-0.2s0.4,0.1,0.5,0.2c0.1,0.1,0.2,0.3,0.2,0.5s-0.1,0.3-0.2,0.5C124,98.8,123.9,98.9,123.7,98.9z M128.3,106.6
	c-0.6,0-1.1-0.1-1.6-0.4c-0.4-0.3-0.8-0.7-1-1.2c-0.2-0.5-0.4-1.1-0.4-1.7c0-0.7,0.1-1.3,0.4-1.8c0.2-0.5,0.6-0.9,1-1.2
	c0.4-0.3,1-0.4,1.6-0.4c0.5,0,0.9,0.1,1.2,0.3s0.7,0.4,0.9,0.7c0.2,0.3,0.4,0.7,0.4,1.1h-1c-0.1-0.3-0.2-0.6-0.5-0.8
	c-0.3-0.2-0.6-0.3-1.1-0.3c-0.4,0-0.7,0.1-1,0.3c-0.3,0.2-0.5,0.5-0.7,0.9c-0.2,0.4-0.2,0.8-0.2,1.3c0,0.5,0.1,0.9,0.2,1.3
	c0.2,0.4,0.4,0.7,0.7,0.9c0.3,0.2,0.6,0.3,1,0.3c0.3,0,0.5,0,0.7-0.1c0.2-0.1,0.4-0.2,0.5-0.4c0.1-0.2,0.3-0.4,0.3-0.6h1
	c-0.1,0.4-0.2,0.7-0.4,1c-0.2,0.3-0.5,0.6-0.9,0.7C129.2,106.5,128.7,106.6,128.3,106.6z M132.9,97.8v8.7h-1v-8.7H132.9z
	 M137.1,106.6c-0.6,0-1.2-0.1-1.6-0.4c-0.5-0.3-0.8-0.7-1.1-1.2c-0.2-0.5-0.4-1.1-0.4-1.8c0-0.7,0.1-1.3,0.4-1.8
	c0.2-0.5,0.6-0.9,1-1.2c0.4-0.3,1-0.4,1.6-0.4c0.3,0,0.7,0.1,1,0.2c0.3,0.1,0.6,0.3,0.9,0.6c0.3,0.3,0.5,0.6,0.7,1
	c0.2,0.4,0.2,0.9,0.2,1.5v0.4h-5v-0.9h4c0-0.4-0.1-0.7-0.2-1c-0.1-0.3-0.4-0.5-0.6-0.7c-0.3-0.2-0.6-0.3-0.9-0.3
	c-0.4,0-0.7,0.1-1,0.3c-0.3,0.2-0.5,0.5-0.7,0.8c-0.2,0.3-0.2,0.7-0.2,1v0.6c0,0.5,0.1,0.9,0.3,1.3c0.2,0.3,0.4,0.6,0.7,0.8
	c0.3,0.2,0.7,0.3,1.1,0.3c0.3,0,0.5,0,0.7-0.1c0.2-0.1,0.4-0.2,0.6-0.3c0.2-0.2,0.3-0.3,0.4-0.6l1,0.3c-0.1,0.3-0.3,0.6-0.5,0.9
	c-0.2,0.2-0.5,0.4-0.9,0.6C137.9,106.6,137.5,106.6,137.1,106.6z M145.6,101.4l-0.9,0.3c-0.1-0.2-0.1-0.3-0.3-0.4
	c-0.1-0.1-0.3-0.3-0.4-0.4c-0.2-0.1-0.4-0.1-0.7-0.1c-0.4,0-0.7,0.1-1,0.3c-0.3,0.2-0.4,0.4-0.4,0.7c0,0.2,0.1,0.4,0.3,0.6
	c0.2,0.1,0.5,0.3,0.9,0.4l1,0.2c0.6,0.1,1,0.4,1.3,0.7c0.3,0.3,0.4,0.7,0.4,1.1c0,0.4-0.1,0.7-0.3,1c-0.2,0.3-0.5,0.5-0.9,0.7
	c-0.4,0.2-0.8,0.3-1.3,0.3c-0.7,0-1.2-0.1-1.7-0.4c-0.4-0.3-0.7-0.7-0.8-1.3l1-0.2c0.1,0.4,0.3,0.6,0.5,0.8c0.3,0.2,0.6,0.3,1,0.3
	c0.5,0,0.8-0.1,1.1-0.3c0.3-0.2,0.4-0.4,0.4-0.7c0-0.2-0.1-0.4-0.2-0.6c-0.2-0.2-0.4-0.3-0.7-0.3l-1.1-0.3c-0.6-0.1-1-0.4-1.3-0.7
	c-0.3-0.3-0.4-0.7-0.4-1.1c0-0.4,0.1-0.7,0.3-1c0.2-0.3,0.5-0.5,0.9-0.7c0.4-0.2,0.8-0.2,1.2-0.2c0.6,0,1.2,0.1,1.5,0.4
	C145.1,100.6,145.4,101,145.6,101.4z"/>
<path d="M242.9,88.6c1.9,0,3.2-1,3.2-2.5c0-1.1-0.8-2-1.8-2.2v-0.1c0.9-0.2,1.5-1,1.5-1.9c0-1.3-1.2-2.3-2.9-2.3
	c-1.7,0-2.9,1-2.9,2.3c0,0.9,0.6,1.7,1.5,1.9V84c-1,0.2-1.8,1.1-1.8,2.2C239.6,87.6,241,88.6,242.9,88.6z M242.9,87.4
	c-1,0-1.6-0.5-1.6-1.4c0-0.8,0.7-1.4,1.6-1.4c0.9,0,1.6,0.6,1.6,1.4C244.5,86.9,243.9,87.4,242.9,87.4z M242.9,83.4
	c-0.8,0-1.4-0.5-1.4-1.3c0-0.8,0.6-1.3,1.4-1.3c0.8,0,1.4,0.5,1.4,1.3C244.2,82.9,243.7,83.4,242.9,83.4z M247.8,88.6
	c0.5,0,0.9-0.4,0.9-0.9c0-0.5-0.4-0.9-0.9-0.9c-0.5,0-0.9,0.4-0.9,0.9C246.9,88.2,247.3,88.6,247.8,88.6z M249.9,88.5h6v-1.3h-3.8
	v-0.1l1.5-1.5c1.7-1.6,2.2-2.4,2.2-3.4c0-1.5-1.2-2.5-2.9-2.5c-1.7,0-3,1.1-3,2.7h1.5c0-0.9,0.6-1.4,1.4-1.4c0.8,0,1.4,0.5,1.4,1.3
	c0,0.7-0.4,1.2-1.3,2.1l-3,3V88.5z M257,88.5h1.5v-2.2l0.6-0.6l2,2.8h1.8l-2.7-3.7l2.5-2.8H261l-2.4,2.6h-0.1v-4.8H257V88.5z"/>
<path class="st3" d="M235,93.5h26c1.7,0,3,1.3,3,3v10c0,1.7-1.3,3-3,3h-26c-1.7,0-3-1.3-3-3v-10C232,94.8,233.3,93.5,235,93.5z"/>
<path class="st4" d="M238.9,104.3h1v-1.9h1.9v-1h-1.9v-1.9h-1v1.9h-1.9v1h1.9V104.3z M242.8,104.1h3.4v1.4h1v-1.4h1v-0.9h-1v-4.9
	h-1.4l-3.1,5V104.1z M246.3,103.1H244v-0.1l2.2-3.6h0.1V103.1z M249.3,105.5h1.1l3.2-6.3v-1h-4.8v0.9h3.7v0.1L249.3,105.5z
	 M254.5,105.5h4.8v-0.9H256v-0.1l1.4-1.5c1.3-1.3,1.7-2,1.7-2.8c0-1.2-1-2.1-2.3-2.1c-1.4,0-2.4,0.9-2.4,2.2h1
	c0-0.8,0.5-1.3,1.3-1.3c0.7,0,1.3,0.5,1.3,1.2c0,0.6-0.4,1.1-1.2,1.9l-2.5,2.6V105.5z"/>
<line class="st5" x1="33" y1="119" x2="264" y2="119"/>
<rect x="13" y="119.5" class="st0" width="270" height="52"/>
<path class="st1" d="M33.9,140.5v-8.7h1.6v7.4h3.8v1.3H33.9z M43,140.6c-0.6,0-1.2-0.1-1.7-0.4c-0.5-0.3-0.8-0.7-1.1-1.2
	c-0.3-0.5-0.4-1.1-0.4-1.8c0-0.7,0.1-1.3,0.4-1.8c0.3-0.5,0.6-0.9,1.1-1.2c0.5-0.3,1-0.4,1.7-0.4c0.6,0,1.2,0.1,1.7,0.4
	c0.5,0.3,0.8,0.7,1.1,1.2c0.3,0.5,0.4,1.1,0.4,1.8c0,0.7-0.1,1.3-0.4,1.8c-0.3,0.5-0.6,0.9-1.1,1.2C44.2,140.5,43.7,140.6,43,140.6z
	 M43.1,139.4c0.3,0,0.6-0.1,0.9-0.3c0.2-0.2,0.4-0.5,0.5-0.8c0.1-0.3,0.2-0.7,0.2-1.1c0-0.4-0.1-0.8-0.2-1.1
	c-0.1-0.3-0.3-0.6-0.5-0.8c-0.2-0.2-0.5-0.3-0.9-0.3c-0.4,0-0.7,0.1-0.9,0.3c-0.2,0.2-0.4,0.5-0.5,0.8c-0.1,0.3-0.2,0.7-0.2,1.1
	c0,0.4,0.1,0.8,0.2,1.1c0.1,0.3,0.3,0.6,0.5,0.8C42.4,139.3,42.7,139.4,43.1,139.4z M47.1,140.5V134h1.5v1.1h0.1
	c0.1-0.4,0.3-0.7,0.6-0.9c0.3-0.2,0.6-0.3,1-0.3c0.1,0,0.2,0,0.3,0c0.1,0,0.2,0,0.3,0v1.4c-0.1,0-0.2,0-0.3-0.1c-0.1,0-0.3,0-0.4,0
	c-0.3,0-0.5,0.1-0.8,0.2c-0.2,0.1-0.4,0.3-0.5,0.5c-0.1,0.2-0.2,0.5-0.2,0.7v3.8H47.1z M54.1,140.6c-0.7,0-1.2-0.1-1.7-0.4
	c-0.5-0.3-0.8-0.7-1.1-1.2c-0.3-0.5-0.4-1.1-0.4-1.8c0-0.7,0.1-1.3,0.4-1.8c0.3-0.5,0.6-0.9,1.1-1.2c0.5-0.3,1-0.4,1.6-0.4
	c0.4,0,0.8,0.1,1.1,0.2c0.4,0.1,0.7,0.3,1,0.6c0.3,0.3,0.5,0.6,0.7,1c0.2,0.4,0.2,0.9,0.2,1.5v0.5h-5.4v-1h3.9
	c0-0.3-0.1-0.6-0.2-0.8c-0.1-0.2-0.3-0.4-0.5-0.6c-0.2-0.1-0.5-0.2-0.8-0.2c-0.3,0-0.6,0.1-0.8,0.2c-0.2,0.2-0.4,0.4-0.6,0.6
	c-0.1,0.2-0.2,0.5-0.2,0.8v0.9c0,0.4,0.1,0.7,0.2,1c0.1,0.3,0.3,0.5,0.6,0.6c0.2,0.1,0.5,0.2,0.9,0.2c0.2,0,0.4,0,0.6-0.1
	c0.2-0.1,0.3-0.2,0.5-0.3c0.1-0.1,0.2-0.3,0.3-0.5l1.4,0.2c-0.1,0.4-0.3,0.7-0.5,1c-0.3,0.3-0.6,0.5-1,0.7
	C55,140.6,54.6,140.6,54.1,140.6z M57.9,140.5V134h1.5v1.1h0.1c0.1-0.4,0.4-0.7,0.7-0.9c0.3-0.2,0.7-0.3,1.1-0.3
	c0.4,0,0.8,0.1,1.1,0.3c0.3,0.2,0.5,0.5,0.6,0.9h0.1c0.1-0.4,0.4-0.7,0.7-0.9c0.3-0.2,0.8-0.3,1.2-0.3c0.6,0,1.1,0.2,1.5,0.6
	c0.4,0.4,0.6,0.9,0.6,1.7v4.4h-1.5v-4.2c0-0.4-0.1-0.7-0.3-0.9c-0.2-0.2-0.5-0.3-0.8-0.3c-0.4,0-0.7,0.1-0.9,0.3
	c-0.2,0.2-0.3,0.5-0.3,0.9v4.1h-1.5v-4.2c0-0.3-0.1-0.6-0.3-0.8c-0.2-0.2-0.5-0.3-0.8-0.3c-0.2,0-0.4,0.1-0.6,0.2
	c-0.2,0.1-0.3,0.3-0.4,0.5c-0.1,0.2-0.2,0.4-0.2,0.7v4H57.9z"/>
<path class="st2" d="M34.9,149.8v8.7h-1v-8.7H34.9z M39,158.6c-0.6,0-1.1-0.1-1.6-0.4c-0.4-0.3-0.8-0.7-1-1.2
	c-0.2-0.5-0.4-1.1-0.4-1.8c0-0.7,0.1-1.3,0.4-1.8c0.2-0.5,0.6-0.9,1-1.2c0.4-0.3,1-0.4,1.6-0.4s1.1,0.1,1.6,0.4
	c0.4,0.3,0.8,0.7,1,1.2c0.2,0.5,0.4,1.1,0.4,1.8c0,0.7-0.1,1.3-0.4,1.8c-0.2,0.5-0.6,0.9-1,1.2C40.1,158.5,39.6,158.6,39,158.6z
	 M39,157.7c0.4,0,0.8-0.1,1.1-0.3c0.3-0.2,0.5-0.5,0.6-0.9c0.1-0.4,0.2-0.8,0.2-1.2c0-0.4-0.1-0.8-0.2-1.2c-0.1-0.4-0.4-0.7-0.6-0.9
	c-0.3-0.2-0.7-0.3-1.1-0.3c-0.4,0-0.8,0.1-1.1,0.3c-0.3,0.2-0.5,0.5-0.6,0.9c-0.1,0.4-0.2,0.8-0.2,1.2c0,0.4,0.1,0.8,0.2,1.2
	c0.1,0.4,0.4,0.7,0.6,0.9C38.2,157.6,38.6,157.7,39,157.7z M43.1,158.5V152h1v1h0.1c0.1-0.3,0.3-0.6,0.6-0.8s0.7-0.3,1.1-0.3
	c0.1,0,0.2,0,0.3,0c0.1,0,0.2,0,0.3,0v1c0,0-0.1,0-0.2,0c-0.1,0-0.2,0-0.4,0c-0.3,0-0.6,0.1-0.9,0.2c-0.2,0.1-0.4,0.3-0.6,0.5
	c-0.1,0.2-0.2,0.5-0.2,0.8v4.1H43.1z M49.7,158.6c-0.6,0-1.2-0.1-1.6-0.4c-0.5-0.3-0.8-0.7-1.1-1.2c-0.2-0.5-0.4-1.1-0.4-1.8
	c0-0.7,0.1-1.3,0.4-1.8c0.2-0.5,0.6-0.9,1-1.2c0.4-0.3,1-0.4,1.6-0.4c0.3,0,0.7,0.1,1,0.2c0.3,0.1,0.6,0.3,0.9,0.6
	c0.3,0.3,0.5,0.6,0.7,1c0.2,0.4,0.2,0.9,0.2,1.5v0.4h-5v-0.9h4c0-0.4-0.1-0.7-0.2-1c-0.1-0.3-0.4-0.5-0.6-0.7
	c-0.3-0.2-0.6-0.3-0.9-0.3c-0.4,0-0.7,0.1-1,0.3c-0.3,0.2-0.5,0.5-0.7,0.8c-0.2,0.3-0.2,0.7-0.2,1v0.6c0,0.5,0.1,0.9,0.3,1.3
	c0.2,0.3,0.4,0.6,0.7,0.8c0.3,0.2,0.7,0.3,1.1,0.3c0.3,0,0.5,0,0.7-0.1c0.2-0.1,0.4-0.2,0.6-0.3c0.2-0.2,0.3-0.3,0.4-0.6l1,0.3
	c-0.1,0.3-0.3,0.6-0.5,0.9c-0.2,0.2-0.5,0.4-0.9,0.6C50.6,158.6,50.2,158.6,49.7,158.6z M53.6,158.5V152h1v1h0.1
	c0.1-0.3,0.4-0.6,0.7-0.8c0.3-0.2,0.7-0.3,1.1-0.3c0.4,0,0.8,0.1,1.1,0.3c0.3,0.2,0.5,0.5,0.7,0.8h0.1c0.2-0.3,0.4-0.6,0.8-0.8
	c0.3-0.2,0.7-0.3,1.2-0.3c0.6,0,1.1,0.2,1.4,0.6c0.4,0.4,0.6,0.9,0.6,1.7v4.4h-1v-4.4c0-0.5-0.1-0.8-0.4-1c-0.3-0.2-0.6-0.3-0.9-0.3
	c-0.5,0-0.8,0.1-1.1,0.4c-0.3,0.3-0.4,0.6-0.4,1v4.3h-1V154c0-0.4-0.1-0.7-0.4-0.9c-0.2-0.2-0.6-0.3-0.9-0.3c-0.3,0-0.5,0.1-0.7,0.2
	c-0.2,0.1-0.4,0.3-0.5,0.6c-0.1,0.2-0.2,0.5-0.2,0.8v4.1H53.6z M66.6,158.5V152h1v6.5H66.6z M67.1,150.9c-0.2,0-0.4-0.1-0.5-0.2
	c-0.1-0.1-0.2-0.3-0.2-0.5c0-0.2,0.1-0.3,0.2-0.5c0.1-0.1,0.3-0.2,0.5-0.2s0.4,0.1,0.5,0.2c0.1,0.1,0.2,0.3,0.2,0.5
	c0,0.2-0.1,0.3-0.2,0.5C67.5,150.8,67.3,150.9,67.1,150.9z M69,161v-9h1v1h0.1c0.1-0.1,0.2-0.3,0.3-0.4c0.1-0.2,0.3-0.3,0.6-0.5
	c0.2-0.1,0.6-0.2,1-0.2c0.6,0,1,0.1,1.5,0.4c0.4,0.3,0.7,0.7,1,1.2c0.2,0.5,0.4,1.1,0.4,1.8c0,0.7-0.1,1.3-0.4,1.8
	c-0.2,0.5-0.6,0.9-1,1.2c-0.4,0.3-0.9,0.4-1.4,0.4c-0.4,0-0.8-0.1-1-0.2c-0.3-0.1-0.4-0.3-0.6-0.5c-0.1-0.2-0.2-0.3-0.3-0.5H70v3.5
	H69z M70,155.2c0,0.5,0.1,0.9,0.2,1.3c0.1,0.4,0.4,0.7,0.6,0.9c0.3,0.2,0.6,0.3,1,0.3c0.4,0,0.8-0.1,1.1-0.3
	c0.3-0.2,0.5-0.5,0.6-0.9c0.1-0.4,0.2-0.8,0.2-1.3c0-0.5-0.1-0.9-0.2-1.2c-0.1-0.4-0.4-0.7-0.6-0.9c-0.3-0.2-0.6-0.3-1.1-0.3
	c-0.4,0-0.8,0.1-1,0.3c-0.3,0.2-0.5,0.5-0.6,0.9C70.1,154.3,70,154.7,70,155.2z M80.6,153.4l-0.9,0.3c-0.1-0.1-0.1-0.3-0.3-0.4
	c-0.1-0.1-0.3-0.3-0.4-0.4c-0.2-0.1-0.4-0.1-0.7-0.1c-0.4,0-0.7,0.1-1,0.3c-0.3,0.2-0.4,0.4-0.4,0.7c0,0.2,0.1,0.4,0.3,0.6
	c0.2,0.1,0.5,0.3,0.9,0.4l1,0.2c0.6,0.1,1,0.4,1.3,0.7c0.3,0.3,0.4,0.7,0.4,1.1c0,0.4-0.1,0.7-0.3,1c-0.2,0.3-0.5,0.5-0.9,0.7
	c-0.4,0.2-0.8,0.3-1.3,0.3c-0.7,0-1.2-0.1-1.7-0.4c-0.4-0.3-0.7-0.7-0.8-1.3l1-0.2c0.1,0.4,0.3,0.6,0.5,0.8c0.3,0.2,0.6,0.3,1,0.3
	c0.5,0,0.8-0.1,1.1-0.3c0.3-0.2,0.4-0.4,0.4-0.7c0-0.2-0.1-0.4-0.2-0.6c-0.2-0.2-0.4-0.3-0.7-0.3l-1.1-0.3c-0.6-0.1-1-0.4-1.3-0.7
	c-0.3-0.3-0.4-0.7-0.4-1.1c0-0.4,0.1-0.7,0.3-1c0.2-0.3,0.5-0.5,0.9-0.7c0.4-0.2,0.8-0.2,1.2-0.2c0.6,0,1.2,0.1,1.5,0.4
	C80.2,152.6,80.4,153,80.6,153.4z M85.9,155.8V152h1v6.5h-1v-1.1h-0.1c-0.2,0.3-0.4,0.6-0.7,0.8c-0.3,0.2-0.7,0.3-1.2,0.3
	c-0.4,0-0.8-0.1-1.1-0.3c-0.3-0.2-0.6-0.5-0.8-0.8c-0.2-0.4-0.3-0.8-0.3-1.4V152h1v4.1c0,0.5,0.1,0.9,0.4,1.1c0.3,0.3,0.6,0.4,1,0.4
	c0.2,0,0.5-0.1,0.8-0.2c0.3-0.1,0.5-0.3,0.7-0.6C85.8,156.6,85.9,156.2,85.9,155.8z M88.4,158.5V152h1v1h0.1
	c0.1-0.3,0.4-0.6,0.7-0.8c0.3-0.2,0.7-0.3,1.1-0.3c0.4,0,0.8,0.1,1.1,0.3c0.3,0.2,0.5,0.5,0.7,0.8H93c0.2-0.3,0.4-0.6,0.8-0.8
	c0.3-0.2,0.7-0.3,1.2-0.3c0.6,0,1.1,0.2,1.4,0.6c0.4,0.4,0.6,0.9,0.6,1.7v4.4h-1v-4.4c0-0.5-0.1-0.8-0.4-1c-0.3-0.2-0.6-0.3-0.9-0.3
	c-0.5,0-0.8,0.1-1.1,0.4c-0.3,0.3-0.4,0.6-0.4,1v4.3h-1V154c0-0.4-0.1-0.7-0.4-0.9c-0.2-0.2-0.6-0.3-0.9-0.3c-0.3,0-0.5,0.1-0.7,0.2
	c-0.2,0.1-0.4,0.3-0.5,0.6c-0.1,0.2-0.2,0.5-0.2,0.8v4.1H88.4z M103.9,158.6c-0.5,0-1-0.1-1.4-0.4c-0.4-0.3-0.7-0.7-1-1.2
	c-0.2-0.5-0.4-1.1-0.4-1.8c0-0.7,0.1-1.3,0.4-1.8c0.2-0.5,0.6-0.9,1-1.2c0.4-0.3,0.9-0.4,1.5-0.4c0.4,0,0.8,0.1,1,0.2
	c0.2,0.1,0.4,0.3,0.6,0.5c0.1,0.2,0.2,0.3,0.3,0.4h0.1v-3.2h1v8.7h-1v-1h-0.1c-0.1,0.1-0.2,0.3-0.3,0.5c-0.1,0.2-0.3,0.3-0.6,0.5
	C104.6,158.6,104.3,158.6,103.9,158.6z M104,157.7c0.4,0,0.7-0.1,1-0.3c0.3-0.2,0.5-0.5,0.6-0.9c0.1-0.4,0.2-0.8,0.2-1.3
	c0-0.5-0.1-0.9-0.2-1.3c-0.1-0.4-0.4-0.7-0.6-0.9c-0.3-0.2-0.6-0.3-1-0.3c-0.4,0-0.8,0.1-1.1,0.3c-0.3,0.2-0.5,0.5-0.6,0.9
	c-0.1,0.4-0.2,0.8-0.2,1.2c0,0.5,0.1,0.9,0.2,1.3c0.1,0.4,0.4,0.7,0.6,0.9C103.2,157.6,103.6,157.7,104,157.7z M111.1,158.6
	c-0.6,0-1.1-0.1-1.6-0.4c-0.4-0.3-0.8-0.7-1-1.2c-0.2-0.5-0.4-1.1-0.4-1.8c0-0.7,0.1-1.3,0.4-1.8c0.2-0.5,0.6-0.9,1-1.2
	c0.4-0.3,1-0.4,1.6-0.4c0.6,0,1.1,0.1,1.6,0.4c0.4,0.3,0.8,0.7,1,1.2c0.2,0.5,0.4,1.1,0.4,1.8c0,0.7-0.1,1.3-0.4,1.8
	c-0.2,0.5-0.6,0.9-1,1.2C112.2,158.5,111.7,158.6,111.1,158.6z M111.1,157.7c0.4,0,0.8-0.1,1.1-0.3s0.5-0.5,0.6-0.9
	c0.1-0.4,0.2-0.8,0.2-1.2c0-0.4-0.1-0.8-0.2-1.2c-0.1-0.4-0.4-0.7-0.6-0.9c-0.3-0.2-0.7-0.3-1.1-0.3c-0.4,0-0.8,0.1-1.1,0.3
	c-0.3,0.2-0.5,0.5-0.6,0.9c-0.1,0.4-0.2,0.8-0.2,1.2c0,0.4,0.1,0.8,0.2,1.2s0.4,0.7,0.6,0.9C110.3,157.6,110.7,157.7,111.1,157.7z
	 M116.2,149.8v8.7h-1v-8.7H116.2z M120.3,158.6c-0.6,0-1.1-0.1-1.6-0.4c-0.4-0.3-0.8-0.7-1-1.2c-0.2-0.5-0.4-1.1-0.4-1.8
	c0-0.7,0.1-1.3,0.4-1.8c0.2-0.5,0.6-0.9,1-1.2c0.4-0.3,1-0.4,1.6-0.4c0.6,0,1.1,0.1,1.6,0.4c0.4,0.3,0.8,0.7,1,1.2
	c0.2,0.5,0.4,1.1,0.4,1.8c0,0.7-0.1,1.3-0.4,1.8c-0.2,0.5-0.6,0.9-1,1.2C121.4,158.5,120.9,158.6,120.3,158.6z M120.3,157.7
	c0.4,0,0.8-0.1,1.1-0.3s0.5-0.5,0.6-0.9c0.1-0.4,0.2-0.8,0.2-1.2c0-0.4-0.1-0.8-0.2-1.2c-0.1-0.4-0.4-0.7-0.6-0.9
	c-0.3-0.2-0.7-0.3-1.1-0.3c-0.4,0-0.8,0.1-1.1,0.3c-0.3,0.2-0.5,0.5-0.6,0.9c-0.1,0.4-0.2,0.8-0.2,1.2c0,0.4,0.1,0.8,0.2,1.2
	c0.1,0.4,0.4,0.7,0.6,0.9C119.5,157.6,119.9,157.7,120.3,157.7z M124.4,158.5V152h1v1h0.1c0.1-0.3,0.3-0.6,0.6-0.8
	c0.3-0.2,0.7-0.3,1.1-0.3c0.1,0,0.2,0,0.3,0c0.1,0,0.2,0,0.3,0v1c0,0-0.1,0-0.2,0c-0.1,0-0.2,0-0.4,0c-0.3,0-0.6,0.1-0.9,0.2
	c-0.2,0.1-0.4,0.3-0.6,0.5c-0.1,0.2-0.2,0.5-0.2,0.8v4.1H124.4z M131,158.6c-0.6,0-1.2-0.1-1.6-0.4c-0.5-0.3-0.8-0.7-1.1-1.2
	c-0.2-0.5-0.4-1.1-0.4-1.8c0-0.7,0.1-1.3,0.4-1.8c0.2-0.5,0.6-0.9,1-1.2c0.4-0.3,1-0.4,1.6-0.4c0.3,0,0.7,0.1,1,0.2
	c0.3,0.1,0.6,0.3,0.9,0.6c0.3,0.3,0.5,0.6,0.7,1c0.2,0.4,0.2,0.9,0.2,1.5v0.4h-5v-0.9h4c0-0.4-0.1-0.7-0.2-1
	c-0.1-0.3-0.4-0.5-0.6-0.7c-0.3-0.2-0.6-0.3-0.9-0.3c-0.4,0-0.7,0.1-1,0.3c-0.3,0.2-0.5,0.5-0.7,0.8c-0.2,0.3-0.2,0.7-0.2,1v0.6
	c0,0.5,0.1,0.9,0.3,1.3c0.2,0.3,0.4,0.6,0.7,0.8c0.3,0.2,0.7,0.3,1.1,0.3c0.3,0,0.5,0,0.7-0.1c0.2-0.1,0.4-0.2,0.6-0.3
	c0.2-0.2,0.3-0.3,0.4-0.6l1,0.3c-0.1,0.3-0.3,0.6-0.5,0.9c-0.2,0.2-0.5,0.4-0.9,0.6C131.9,158.6,131.5,158.6,131,158.6z
	 M139.5,153.4l-0.9,0.3c-0.1-0.1-0.1-0.3-0.3-0.4c-0.1-0.1-0.3-0.3-0.4-0.4c-0.2-0.1-0.4-0.1-0.7-0.1c-0.4,0-0.7,0.1-1,0.3
	c-0.3,0.2-0.4,0.4-0.4,0.7c0,0.2,0.1,0.4,0.3,0.6c0.2,0.1,0.5,0.3,0.9,0.4l1,0.2c0.6,0.1,1,0.4,1.3,0.7c0.3,0.3,0.4,0.7,0.4,1.1
	c0,0.4-0.1,0.7-0.3,1c-0.2,0.3-0.5,0.5-0.9,0.7c-0.4,0.2-0.8,0.3-1.3,0.3c-0.7,0-1.2-0.1-1.7-0.4c-0.4-0.3-0.7-0.7-0.8-1.3l1-0.2
	c0.1,0.4,0.3,0.6,0.5,0.8c0.3,0.2,0.6,0.3,1,0.3c0.5,0,0.8-0.1,1.1-0.3c0.3-0.2,0.4-0.4,0.4-0.7c0-0.2-0.1-0.4-0.2-0.6
	c-0.2-0.2-0.4-0.3-0.7-0.3l-1.1-0.3c-0.6-0.1-1-0.4-1.3-0.7c-0.3-0.3-0.4-0.7-0.4-1.1c0-0.4,0.1-0.7,0.3-1c0.2-0.3,0.5-0.5,0.9-0.7
	c0.4-0.2,0.8-0.2,1.2-0.2c0.6,0,1.2,0.1,1.5,0.4C139.1,152.6,139.3,153,139.5,153.4z"/>
<path d="M242.9,140.6c1.9,0,3.2-1,3.2-2.5c0-1.1-0.8-2-1.8-2.2v-0.1c0.9-0.2,1.5-1,1.5-1.9c0-1.3-1.2-2.3-2.9-2.3
	c-1.7,0-2.9,1-2.9,2.3c0,0.9,0.6,1.7,1.5,1.9v0.1c-1,0.2-1.8,1.1-1.8,2.2C239.6,139.6,241,140.6,242.9,140.6z M242.9,139.4
	c-1,0-1.6-0.5-1.6-1.4c0-0.8,0.7-1.4,1.6-1.4c0.9,0,1.6,0.6,1.6,1.4C244.5,138.9,243.9,139.4,242.9,139.4z M242.9,135.4
	c-0.8,0-1.4-0.5-1.4-1.3c0-0.8,0.6-1.3,1.4-1.3c0.8,0,1.4,0.5,1.4,1.3C244.2,134.9,243.7,135.4,242.9,135.4z M247.8,140.6
	c0.5,0,0.9-0.4,0.9-0.9c0-0.5-0.4-0.9-0.9-0.9c-0.5,0-0.9,0.4-0.9,0.9C246.9,140.2,247.3,140.6,247.8,140.6z M249.9,140.5h6v-1.3
	h-3.8v-0.1l1.5-1.5c1.7-1.6,2.2-2.4,2.2-3.4c0-1.5-1.2-2.5-2.9-2.5c-1.7,0-3,1.1-3,2.7h1.5c0-0.9,0.6-1.4,1.4-1.4
	c0.8,0,1.4,0.5,1.4,1.3c0,0.7-0.4,1.2-1.3,2.1l-3,3V140.5z M257,140.5h1.5v-2.2l0.6-0.6l2,2.8h1.8l-2.7-3.7l2.5-2.8H261l-2.4,2.6
	h-0.1v-4.8H257V140.5z"/>
<path class="st6" d="M235,145.5h26c1.7,0,3,1.3,3,3v10c0,1.7-1.3,3-3,3h-26c-1.7,0-3-1.3-3-3v-10C232,146.8,233.3,145.5,235,145.5z"
	/>
<path class="st7" d="M238.9,156.3h1v-1.9h1.9v-1h-1.9v-1.9h-1v1.9h-1.9v1h1.9V156.3z M242.8,156.1h3.4v1.4h1v-1.4h1v-0.9h-1v-4.9
	h-1.4l-3.1,5V156.1z M246.3,155.1H244v-0.1l2.2-3.6h0.1V155.1z M249.3,157.5h1.1l3.2-6.3v-1h-4.8v0.9h3.7v0.1L249.3,157.5z
	 M254.5,157.5h4.8v-0.9H256v-0.1l1.4-1.5c1.3-1.3,1.7-2,1.7-2.8c0-1.2-1-2.1-2.3-2.1c-1.4,0-2.4,0.9-2.4,2.2h1
	c0-0.8,0.5-1.3,1.3-1.3c0.7,0,1.3,0.5,1.3,1.2c0,0.6-0.4,1.1-1.2,1.9l-2.5,2.6V157.5z"/>
<line class="st5" x1="33" y1="171" x2="264" y2="171"/>
<rect x="13" y="171.5" class="st0" width="270" height="52"/>
<path class="st1" d="M33.9,192.5v-8.7h1.6v7.4h3.8v1.3H33.9z M43,192.6c-0.6,0-1.2-0.1-1.7-0.4c-0.5-0.3-0.8-0.7-1.1-1.2
	c-0.3-0.5-0.4-1.1-0.4-1.8c0-0.7,0.1-1.3,0.4-1.8c0.3-0.5,0.6-0.9,1.1-1.2c0.5-0.3,1-0.4,1.7-0.4c0.6,0,1.2,0.1,1.7,0.4
	c0.5,0.3,0.8,0.7,1.1,1.2c0.3,0.5,0.4,1.1,0.4,1.8c0,0.7-0.1,1.3-0.4,1.8c-0.3,0.5-0.6,0.9-1.1,1.2C44.2,192.5,43.7,192.6,43,192.6z
	 M43.1,191.4c0.3,0,0.6-0.1,0.9-0.3c0.2-0.2,0.4-0.5,0.5-0.8c0.1-0.3,0.2-0.7,0.2-1.1c0-0.4-0.1-0.8-0.2-1.1
	c-0.1-0.3-0.3-0.6-0.5-0.8c-0.2-0.2-0.5-0.3-0.9-0.3c-0.4,0-0.7,0.1-0.9,0.3c-0.2,0.2-0.4,0.5-0.5,0.8c-0.1,0.3-0.2,0.7-0.2,1.1
	c0,0.4,0.1,0.8,0.2,1.1c0.1,0.3,0.3,0.6,0.5,0.8C42.4,191.3,42.7,191.4,43.1,191.4z M47.1,192.5V186h1.5v1.1h0.1
	c0.1-0.4,0.3-0.7,0.6-0.9c0.3-0.2,0.6-0.3,1-0.3c0.1,0,0.2,0,0.3,0c0.1,0,0.2,0,0.3,0v1.4c-0.1,0-0.2,0-0.3-0.1c-0.1,0-0.3,0-0.4,0
	c-0.3,0-0.5,0.1-0.8,0.2c-0.2,0.1-0.4,0.3-0.5,0.5c-0.1,0.2-0.2,0.5-0.2,0.7v3.8H47.1z M54.1,192.6c-0.7,0-1.2-0.1-1.7-0.4
	c-0.5-0.3-0.8-0.7-1.1-1.2c-0.3-0.5-0.4-1.1-0.4-1.8c0-0.7,0.1-1.3,0.4-1.8c0.3-0.5,0.6-0.9,1.1-1.2c0.5-0.3,1-0.4,1.6-0.4
	c0.4,0,0.8,0.1,1.1,0.2c0.4,0.1,0.7,0.3,1,0.6c0.3,0.3,0.5,0.6,0.7,1c0.2,0.4,0.2,0.9,0.2,1.5v0.5h-5.4v-1h3.9
	c0-0.3-0.1-0.6-0.2-0.8c-0.1-0.2-0.3-0.4-0.5-0.6c-0.2-0.1-0.5-0.2-0.8-0.2c-0.3,0-0.6,0.1-0.8,0.2c-0.2,0.2-0.4,0.4-0.6,0.6
	c-0.1,0.2-0.2,0.5-0.2,0.8v0.9c0,0.4,0.1,0.7,0.2,1c0.1,0.3,0.3,0.5,0.6,0.6c0.2,0.1,0.5,0.2,0.9,0.2c0.2,0,0.4,0,0.6-0.1
	c0.2-0.1,0.3-0.2,0.5-0.3c0.1-0.1,0.2-0.3,0.3-0.5l1.4,0.2c-0.1,0.4-0.3,0.7-0.5,1c-0.3,0.3-0.6,0.5-1,0.7
	C55,192.6,54.6,192.6,54.1,192.6z M57.9,192.5V186h1.5v1.1h0.1c0.1-0.4,0.4-0.7,0.7-0.9c0.3-0.2,0.7-0.3,1.1-0.3
	c0.4,0,0.8,0.1,1.1,0.3c0.3,0.2,0.5,0.5,0.6,0.9h0.1c0.1-0.4,0.4-0.7,0.7-0.9c0.3-0.2,0.8-0.3,1.2-0.3c0.6,0,1.1,0.2,1.5,0.6
	c0.4,0.4,0.6,0.9,0.6,1.7v4.4h-1.5v-4.2c0-0.4-0.1-0.7-0.3-0.9c-0.2-0.2-0.5-0.3-0.8-0.3c-0.4,0-0.7,0.1-0.9,0.3
	c-0.2,0.2-0.3,0.5-0.3,0.9v4.1h-1.5v-4.2c0-0.3-0.1-0.6-0.3-0.8c-0.2-0.2-0.5-0.3-0.8-0.3c-0.2,0-0.4,0.1-0.6,0.2
	c-0.2,0.1-0.3,0.3-0.4,0.5c-0.1,0.2-0.2,0.4-0.2,0.7v4H57.9z"/>
<path class="st2" d="M34.9,201.8v8.7h-1v-8.7H34.9z M39,210.6c-0.6,0-1.1-0.1-1.6-0.4c-0.4-0.3-0.8-0.7-1-1.2
	c-0.2-0.5-0.4-1.1-0.4-1.8c0-0.7,0.1-1.3,0.4-1.8c0.2-0.5,0.6-0.9,1-1.2c0.4-0.3,1-0.4,1.6-0.4s1.1,0.1,1.6,0.4
	c0.4,0.3,0.8,0.7,1,1.2c0.2,0.5,0.4,1.1,0.4,1.8c0,0.7-0.1,1.3-0.4,1.8c-0.2,0.5-0.6,0.9-1,1.2C40.1,210.5,39.6,210.6,39,210.6z
	 M39,209.7c0.4,0,0.8-0.1,1.1-0.3c0.3-0.2,0.5-0.5,0.6-0.9c0.1-0.4,0.2-0.8,0.2-1.2c0-0.4-0.1-0.8-0.2-1.2c-0.1-0.4-0.4-0.7-0.6-0.9
	c-0.3-0.2-0.7-0.3-1.1-0.3c-0.4,0-0.8,0.1-1.1,0.3c-0.3,0.2-0.5,0.5-0.6,0.9c-0.1,0.4-0.2,0.8-0.2,1.2c0,0.4,0.1,0.8,0.2,1.2
	c0.1,0.4,0.4,0.7,0.6,0.9C38.2,209.6,38.6,209.7,39,209.7z M43.1,210.5V204h1v1h0.1c0.1-0.3,0.3-0.6,0.6-0.8s0.7-0.3,1.1-0.3
	c0.1,0,0.2,0,0.3,0c0.1,0,0.2,0,0.3,0v1c0,0-0.1,0-0.2,0c-0.1,0-0.2,0-0.4,0c-0.3,0-0.6,0.1-0.9,0.2c-0.2,0.1-0.4,0.3-0.6,0.5
	c-0.1,0.2-0.2,0.5-0.2,0.8v4.1H43.1z M49.7,210.6c-0.6,0-1.2-0.1-1.6-0.4c-0.5-0.3-0.8-0.7-1.1-1.2c-0.2-0.5-0.4-1.1-0.4-1.8
	c0-0.7,0.1-1.3,0.4-1.8c0.2-0.5,0.6-0.9,1-1.2c0.4-0.3,1-0.4,1.6-0.4c0.3,0,0.7,0.1,1,0.2c0.3,0.1,0.6,0.3,0.9,0.6
	c0.3,0.3,0.5,0.6,0.7,1c0.2,0.4,0.2,0.9,0.2,1.5v0.4h-5v-0.9h4c0-0.4-0.1-0.7-0.2-1c-0.1-0.3-0.4-0.5-0.6-0.7
	c-0.3-0.2-0.6-0.3-0.9-0.3c-0.4,0-0.7,0.1-1,0.3c-0.3,0.2-0.5,0.5-0.7,0.8c-0.2,0.3-0.2,0.7-0.2,1v0.6c0,0.5,0.1,0.9,0.3,1.3
	c0.2,0.3,0.4,0.6,0.7,0.8c0.3,0.2,0.7,0.3,1.1,0.3c0.3,0,0.5,0,0.7-0.1c0.2-0.1,0.4-0.2,0.6-0.3c0.2-0.2,0.3-0.3,0.4-0.6l1,0.3
	c-0.1,0.3-0.3,0.6-0.5,0.9c-0.2,0.2-0.5,0.4-0.9,0.6C50.6,210.6,50.2,210.6,49.7,210.6z M53.6,210.5V204h1v1h0.1
	c0.1-0.3,0.4-0.6,0.7-0.8c0.3-0.2,0.7-0.3,1.1-0.3c0.4,0,0.8,0.1,1.1,0.3c0.3,0.2,0.5,0.5,0.7,0.8h0.1c0.2-0.3,0.4-0.6,0.8-0.8
	c0.3-0.2,0.7-0.3,1.2-0.3c0.6,0,1.1,0.2,1.4,0.6c0.4,0.4,0.6,0.9,0.6,1.7v4.4h-1v-4.4c0-0.5-0.1-0.8-0.4-1c-0.3-0.2-0.6-0.3-0.9-0.3
	c-0.5,0-0.8,0.1-1.1,0.4c-0.3,0.3-0.4,0.6-0.4,1v4.3h-1V206c0-0.4-0.1-0.7-0.4-0.9c-0.2-0.2-0.6-0.3-0.9-0.3c-0.3,0-0.5,0.1-0.7,0.2
	c-0.2,0.1-0.4,0.3-0.5,0.6c-0.1,0.2-0.2,0.5-0.2,0.8v4.1H53.6z M66.6,210.5V204h1v6.5H66.6z M67.1,202.9c-0.2,0-0.4-0.1-0.5-0.2
	c-0.1-0.1-0.2-0.3-0.2-0.5c0-0.2,0.1-0.3,0.2-0.5c0.1-0.1,0.3-0.2,0.5-0.2s0.4,0.1,0.5,0.2c0.1,0.1,0.2,0.3,0.2,0.5
	c0,0.2-0.1,0.3-0.2,0.5C67.5,202.8,67.3,202.9,67.1,202.9z M69,213v-9h1v1h0.1c0.1-0.1,0.2-0.3,0.3-0.4c0.1-0.2,0.3-0.3,0.6-0.5
	c0.2-0.1,0.6-0.2,1-0.2c0.6,0,1,0.1,1.5,0.4c0.4,0.3,0.7,0.7,1,1.2c0.2,0.5,0.4,1.1,0.4,1.8c0,0.7-0.1,1.3-0.4,1.8
	c-0.2,0.5-0.6,0.9-1,1.2c-0.4,0.3-0.9,0.4-1.4,0.4c-0.4,0-0.8-0.1-1-0.2c-0.3-0.1-0.4-0.3-0.6-0.5c-0.1-0.2-0.2-0.3-0.3-0.5H70v3.5
	H69z M70,207.2c0,0.5,0.1,0.9,0.2,1.3c0.1,0.4,0.4,0.7,0.6,0.9c0.3,0.2,0.6,0.3,1,0.3c0.4,0,0.8-0.1,1.1-0.3
	c0.3-0.2,0.5-0.5,0.6-0.9c0.1-0.4,0.2-0.8,0.2-1.3c0-0.5-0.1-0.9-0.2-1.2c-0.1-0.4-0.4-0.7-0.6-0.9c-0.3-0.2-0.6-0.3-1.1-0.3
	c-0.4,0-0.8,0.1-1,0.3c-0.3,0.2-0.5,0.5-0.6,0.9C70.1,206.3,70,206.7,70,207.2z M80.6,205.4l-0.9,0.3c-0.1-0.1-0.1-0.3-0.3-0.4
	c-0.1-0.1-0.3-0.3-0.4-0.4c-0.2-0.1-0.4-0.1-0.7-0.1c-0.4,0-0.7,0.1-1,0.3c-0.3,0.2-0.4,0.4-0.4,0.7c0,0.2,0.1,0.4,0.3,0.6
	c0.2,0.1,0.5,0.3,0.9,0.4l1,0.2c0.6,0.1,1,0.4,1.3,0.7c0.3,0.3,0.4,0.7,0.4,1.1c0,0.4-0.1,0.7-0.3,1c-0.2,0.3-0.5,0.5-0.9,0.7
	c-0.4,0.2-0.8,0.3-1.3,0.3c-0.7,0-1.2-0.1-1.7-0.4c-0.4-0.3-0.7-0.7-0.8-1.3l1-0.2c0.1,0.4,0.3,0.6,0.5,0.8c0.3,0.2,0.6,0.3,1,0.3
	c0.5,0,0.8-0.1,1.1-0.3c0.3-0.2,0.4-0.4,0.4-0.7c0-0.2-0.1-0.4-0.2-0.6c-0.2-0.2-0.4-0.3-0.7-0.3l-1.1-0.3c-0.6-0.1-1-0.4-1.3-0.7
	c-0.3-0.3-0.4-0.7-0.4-1.1c0-0.4,0.1-0.7,0.3-1c0.2-0.3,0.5-0.5,0.9-0.7c0.4-0.2,0.8-0.2,1.2-0.2c0.6,0,1.2,0.1,1.5,0.4
	C80.2,204.6,80.4,205,80.6,205.4z M85.9,207.8V204h1v6.5h-1v-1.1h-0.1c-0.2,0.3-0.4,0.6-0.7,0.8c-0.3,0.2-0.7,0.3-1.2,0.3
	c-0.4,0-0.8-0.1-1.1-0.3c-0.3-0.2-0.6-0.5-0.8-0.8c-0.2-0.4-0.3-0.8-0.3-1.4V204h1v4.1c0,0.5,0.1,0.9,0.4,1.1c0.3,0.3,0.6,0.4,1,0.4
	c0.2,0,0.5-0.1,0.8-0.2c0.3-0.1,0.5-0.3,0.7-0.6C85.8,208.6,85.9,208.2,85.9,207.8z M88.4,210.5V204h1v1h0.1
	c0.1-0.3,0.4-0.6,0.7-0.8c0.3-0.2,0.7-0.3,1.1-0.3c0.4,0,0.8,0.1,1.1,0.3c0.3,0.2,0.5,0.5,0.7,0.8H93c0.2-0.3,0.4-0.6,0.8-0.8
	c0.3-0.2,0.7-0.3,1.2-0.3c0.6,0,1.1,0.2,1.4,0.6c0.4,0.4,0.6,0.9,0.6,1.7v4.4h-1v-4.4c0-0.5-0.1-0.8-0.4-1c-0.3-0.2-0.6-0.3-0.9-0.3
	c-0.5,0-0.8,0.1-1.1,0.4c-0.3,0.3-0.4,0.6-0.4,1v4.3h-1V206c0-0.4-0.1-0.7-0.4-0.9c-0.2-0.2-0.6-0.3-0.9-0.3c-0.3,0-0.5,0.1-0.7,0.2
	c-0.2,0.1-0.4,0.3-0.5,0.6c-0.1,0.2-0.2,0.5-0.2,0.8v4.1H88.4z M103.9,210.6c-0.5,0-1-0.1-1.4-0.4c-0.4-0.3-0.7-0.7-1-1.2
	c-0.2-0.5-0.4-1.1-0.4-1.8c0-0.7,0.1-1.3,0.4-1.8c0.2-0.5,0.6-0.9,1-1.2c0.4-0.3,0.9-0.4,1.5-0.4c0.4,0,0.8,0.1,1,0.2
	c0.2,0.1,0.4,0.3,0.6,0.5c0.1,0.2,0.2,0.3,0.3,0.4h0.1v-3.2h1v8.7h-1v-1h-0.1c-0.1,0.1-0.2,0.3-0.3,0.5c-0.1,0.2-0.3,0.3-0.6,0.5
	C104.6,210.6,104.3,210.6,103.9,210.6z M104,209.7c0.4,0,0.7-0.1,1-0.3c0.3-0.2,0.5-0.5,0.6-0.9c0.1-0.4,0.2-0.8,0.2-1.3
	c0-0.5-0.1-0.9-0.2-1.3c-0.1-0.4-0.4-0.7-0.6-0.9c-0.3-0.2-0.6-0.3-1-0.3c-0.4,0-0.8,0.1-1.1,0.3c-0.3,0.2-0.5,0.5-0.6,0.9
	c-0.1,0.4-0.2,0.8-0.2,1.2c0,0.5,0.1,0.9,0.2,1.3c0.1,0.4,0.4,0.7,0.6,0.9C103.2,209.6,103.6,209.7,104,209.7z M111.1,210.6
	c-0.6,0-1.1-0.1-1.6-0.4c-0.4-0.3-0.8-0.7-1-1.2c-0.2-0.5-0.4-1.1-0.4-1.8c0-0.7,0.1-1.3,0.4-1.8c0.2-0.5,0.6-0.9,1-1.2
	c0.4-0.3,1-0.4,1.6-0.4c0.6,0,1.1,0.1,1.6,0.4c0.4,0.3,0.8,0.7,1,1.2c0.2,0.5,0.4,1.1,0.4,1.8c0,0.7-0.1,1.3-0.4,1.8
	c-0.2,0.5-0.6,0.9-1,1.2C112.2,210.5,111.7,210.6,111.1,210.6z M111.1,209.7c0.4,0,0.8-0.1,1.1-0.3s0.5-0.5,0.6-0.9
	c0.1-0.4,0.2-0.8,0.2-1.2c0-0.4-0.1-0.8-0.2-1.2c-0.1-0.4-0.4-0.7-0.6-0.9c-0.3-0.2-0.7-0.3-1.1-0.3c-0.4,0-0.8,0.1-1.1,0.3
	c-0.3,0.2-0.5,0.5-0.6,0.9c-0.1,0.4-0.2,0.8-0.2,1.2c0,0.4,0.1,0.8,0.2,1.2s0.4,0.7,0.6,0.9C110.3,209.6,110.7,209.7,111.1,209.7z
	 M116.2,201.8v8.7h-1v-8.7H116.2z M120.3,210.6c-0.6,0-1.1-0.1-1.6-0.4c-0.4-0.3-0.8-0.7-1-1.2c-0.2-0.5-0.4-1.1-0.4-1.8
	c0-0.7,0.1-1.3,0.4-1.8c0.2-0.5,0.6-0.9,1-1.2c0.4-0.3,1-0.4,1.6-0.4c0.6,0,1.1,0.1,1.6,0.4c0.4,0.3,0.8,0.7,1,1.2
	c0.2,0.5,0.4,1.1,0.4,1.8c0,0.7-0.1,1.3-0.4,1.8c-0.2,0.5-0.6,0.9-1,1.2C121.4,210.5,120.9,210.6,120.3,210.6z M120.3,209.7
	c0.4,0,0.8-0.1,1.1-0.3s0.5-0.5,0.6-0.9c0.1-0.4,0.2-0.8,0.2-1.2c0-0.4-0.1-0.8-0.2-1.2c-0.1-0.4-0.4-0.7-0.6-0.9
	c-0.3-0.2-0.7-0.3-1.1-0.3c-0.4,0-0.8,0.1-1.1,0.3c-0.3,0.2-0.5,0.5-0.6,0.9c-0.1,0.4-0.2,0.8-0.2,1.2c0,0.4,0.1,0.8,0.2,1.2
	c0.1,0.4,0.4,0.7,0.6,0.9C119.5,209.6,119.9,209.7,120.3,209.7z M124.4,210.5V204h1v1h0.1c0.1-0.3,0.3-0.6,0.6-0.8
	c0.3-0.2,0.7-0.3,1.1-0.3c0.1,0,0.2,0,0.3,0c0.1,0,0.2,0,0.3,0v1c0,0-0.1,0-0.2,0c-0.1,0-0.2,0-0.4,0c-0.3,0-0.6,0.1-0.9,0.2
	c-0.2,0.1-0.4,0.3-0.6,0.5c-0.1,0.2-0.2,0.5-0.2,0.8v4.1H124.4z M131,210.6c-0.6,0-1.2-0.1-1.6-0.4c-0.5-0.3-0.8-0.7-1.1-1.2
	c-0.2-0.5-0.4-1.1-0.4-1.8c0-0.7,0.1-1.3,0.4-1.8c0.2-0.5,0.6-0.9,1-1.2c0.4-0.3,1-0.4,1.6-0.4c0.3,0,0.7,0.1,1,0.2
	c0.3,0.1,0.6,0.3,0.9,0.6c0.3,0.3,0.5,0.6,0.7,1c0.2,0.4,0.2,0.9,0.2,1.5v0.4h-5v-0.9h4c0-0.4-0.1-0.7-0.2-1
	c-0.1-0.3-0.4-0.5-0.6-0.7c-0.3-0.2-0.6-0.3-0.9-0.3c-0.4,0-0.7,0.1-1,0.3c-0.3,0.2-0.5,0.5-0.7,0.8c-0.2,0.3-0.2,0.7-0.2,1v0.6
	c0,0.5,0.1,0.9,0.3,1.3c0.2,0.3,0.4,0.6,0.7,0.8c0.3,0.2,0.7,0.3,1.1,0.3c0.3,0,0.5,0,0.7-0.1c0.2-0.1,0.4-0.2,0.6-0.3
	c0.2-0.2,0.3-0.3,0.4-0.6l1,0.3c-0.1,0.3-0.3,0.6-0.5,0.9c-0.2,0.2-0.5,0.4-0.9,0.6C131.9,210.6,131.5,210.6,131,210.6z
	 M139.5,205.4l-0.9,0.3c-0.1-0.1-0.1-0.3-0.3-0.4c-0.1-0.1-0.3-0.3-0.4-0.4c-0.2-0.1-0.4-0.1-0.7-0.1c-0.4,0-0.7,0.1-1,0.3
	c-0.3,0.2-0.4,0.4-0.4,0.7c0,0.2,0.1,0.4,0.3,0.6c0.2,0.1,0.5,0.3,0.9,0.4l1,0.2c0.6,0.1,1,0.4,1.3,0.7c0.3,0.3,0.4,0.7,0.4,1.1
	c0,0.4-0.1,0.7-0.3,1c-0.2,0.3-0.5,0.5-0.9,0.7c-0.4,0.2-0.8,0.3-1.3,0.3c-0.7,0-1.2-0.1-1.7-0.4c-0.4-0.3-0.7-0.7-0.8-1.3l1-0.2
	c0.1,0.4,0.3,0.6,0.5,0.8c0.3,0.2,0.6,0.3,1,0.3c0.5,0,0.8-0.1,1.1-0.3c0.3-0.2,0.4-0.4,0.4-0.7c0-0.2-0.1-0.4-0.2-0.6
	c-0.2-0.2-0.4-0.3-0.7-0.3l-1.1-0.3c-0.6-0.1-1-0.4-1.3-0.7c-0.3-0.3-0.4-0.7-0.4-1.1c0-0.4,0.1-0.7,0.3-1c0.2-0.3,0.5-0.5,0.9-0.7
	c0.4-0.2,0.8-0.2,1.2-0.2c0.6,0,1.2,0.1,1.5,0.4C139.1,204.6,139.3,205,139.5,205.4z"/>
<path d="M242.9,192.6c1.9,0,3.2-1,3.2-2.5c0-1.1-0.8-2-1.8-2.2v-0.1c0.9-0.2,1.5-1,1.5-1.9c0-1.3-1.2-2.3-2.9-2.3
	c-1.7,0-2.9,1-2.9,2.3c0,0.9,0.6,1.7,1.5,1.9v0.1c-1,0.2-1.8,1.1-1.8,2.2C239.6,191.6,241,192.6,242.9,192.6z M242.9,191.4
	c-1,0-1.6-0.5-1.6-1.4c0-0.8,0.7-1.4,1.6-1.4c0.9,0,1.6,0.6,1.6,1.4C244.5,190.9,243.9,191.4,242.9,191.4z M242.9,187.4
	c-0.8,0-1.4-0.5-1.4-1.3c0-0.8,0.6-1.3,1.4-1.3c0.8,0,1.4,0.5,1.4,1.3C244.2,186.9,243.7,187.4,242.9,187.4z M247.8,192.6
	c0.5,0,0.9-0.4,0.9-0.9c0-0.5-0.4-0.9-0.9-0.9c-0.5,0-0.9,0.4-0.9,0.9C246.9,192.2,247.3,192.6,247.8,192.6z M249.9,192.5h6v-1.3
	h-3.8v-0.1l1.5-1.5c1.7-1.6,2.2-2.4,2.2-3.4c0-1.5-1.2-2.5-2.9-2.5c-1.7,0-3,1.1-3,2.7h1.5c0-0.9,0.6-1.4,1.4-1.4
	c0.8,0,1.4,0.5,1.4,1.3c0,0.7-0.4,1.2-1.3,2.1l-3,3V192.5z M257,192.5h1.5v-2.2l0.6-0.6l2,2.8h1.8l-2.7-3.7l2.5-2.8H261l-2.4,2.6
	h-0.1v-4.8H257V192.5z"/>
<path class="st8" d="M235,197.5h26c1.7,0,3,1.3,3,3v10c0,1.7-1.3,3-3,3h-26c-1.7,0-3-1.3-3-3v-10C232,198.8,233.3,197.5,235,197.5z"
	/>
<path class="st9" d="M238.9,208.3h1v-1.9h1.9v-1h-1.9v-1.9h-1v1.9h-1.9v1h1.9V208.3z M242.8,208.1h3.4v1.4h1v-1.4h1v-0.9h-1v-4.9
	h-1.4l-3.1,5V208.1z M246.3,207.1H244v-0.1l2.2-3.6h0.1V207.1z M249.3,209.5h1.1l3.2-6.3v-1h-4.8v0.9h3.7v0.1L249.3,209.5z
	 M254.5,209.5h4.8v-0.9H256v-0.1l1.4-1.5c1.3-1.3,1.7-2,1.7-2.8c0-1.2-1-2.1-2.3-2.1c-1.4,0-2.4,0.9-2.4,2.2h1
	c0-0.8,0.5-1.3,1.3-1.3c0.7,0,1.3,0.5,1.3,1.2c0,0.6-0.4,1.1-1.2,1.9l-2.5,2.6V209.5z"/>
<line class="st5" x1="33" y1="223" x2="264" y2="223"/>
</svg>
