<?xml version="1.0" encoding="utf-8"?>
<!-- Generator: Adobe Illustrator 24.3.0, SVG Export Plug-In . SVG Version: 6.00 Build 0)  -->
<svg version="1.1" id="Layer_1" xmlns="http://www.w3.org/2000/svg" xmlns:xlink="http://www.w3.org/1999/xlink" x="0px" y="0px"
	 viewBox="0 0 450 242" style="enable-background:new 0 0 450 242;" xml:space="preserve">
<style type="text/css">
	.st0{fill:#FFFFFF;}
	.st1{fill:#4F4F4F;}
	.st2{fill:#979797;}
	.st3{fill:#EFF3F9;}
	.st4{fill:url(#SVGID_1_);}
	.st5{fill:url(#SVGID_2_);}
	.st6{fill:url(#SVGID_3_);}
	.st7{fill:url(#SVGID_4_);}
	.st8{fill:url(#SVGID_5_);}
	.st9{fill:url(#SVGID_6_);}
</style>
<g>
	<path class="st0" d="M13,0h424c7.2,0,13,5.8,13,13v216c0,7.2-5.8,13-13,13H13c-7.2,0-13-5.8-13-13V13C0,5.8,5.8,0,13,0z"/>
</g>
<path class="st1" d="M25.3,45V30.5H31c1.1,0,2,0.2,2.8,0.6c0.8,0.4,1.4,1,1.8,1.7c0.4,0.7,0.6,1.6,0.6,2.6c0,1-0.2,1.8-0.6,2.6
	c-0.4,0.7-1,1.3-1.8,1.7c-0.8,0.4-1.7,0.6-2.9,0.6h-3.7v-2.5h3.2c0.6,0,1.1-0.1,1.5-0.3c0.4-0.2,0.7-0.5,0.9-0.9
	c0.2-0.4,0.3-0.8,0.3-1.3c0-0.5-0.1-0.9-0.3-1.3c-0.2-0.4-0.5-0.6-0.9-0.8C31.5,33.1,31,33,30.4,33h-2.1v12H25.3z M42.9,45.2
	c-1.1,0-2.1-0.2-2.9-0.7c-0.8-0.5-1.4-1.1-1.9-2c-0.4-0.8-0.7-1.8-0.7-2.9c0-1.1,0.2-2.1,0.7-3c0.4-0.8,1.1-1.5,1.9-2
	c0.8-0.5,1.8-0.7,2.9-0.7c1.1,0,2.1,0.2,2.9,0.7c0.8,0.5,1.4,1.1,1.9,2c0.4,0.8,0.7,1.8,0.7,3c0,1.1-0.2,2.1-0.7,2.9
	c-0.4,0.8-1.1,1.5-1.9,2C45,45,44,45.2,42.9,45.2z M42.9,42.9c0.5,0,0.9-0.1,1.3-0.4c0.3-0.3,0.6-0.7,0.8-1.2
	c0.2-0.5,0.3-1.1,0.3-1.7c0-0.6-0.1-1.2-0.3-1.7c-0.2-0.5-0.4-0.9-0.8-1.2c-0.3-0.3-0.8-0.4-1.3-0.4c-0.5,0-0.9,0.1-1.3,0.4
	c-0.3,0.3-0.6,0.7-0.8,1.2c-0.2,0.5-0.3,1.1-0.3,1.7c0,0.6,0.1,1.2,0.3,1.7c0.2,0.5,0.4,0.9,0.8,1.2C42,42.7,42.4,42.9,42.9,42.9z
	 M52.1,45l-3-10.9h3.1l1.7,7.3H54l1.8-7.3h3l1.8,7.3h0.1l1.7-7.3h3.1l-3,10.9h-3.2l-1.9-6.9h-0.1L55.3,45H52.1z M71.7,45.2
	c-1.1,0-2.1-0.2-2.9-0.7c-0.8-0.5-1.4-1.1-1.9-1.9c-0.4-0.8-0.7-1.8-0.7-3c0-1.1,0.2-2.1,0.7-3c0.4-0.8,1-1.5,1.8-2
	c0.8-0.5,1.7-0.7,2.8-0.7c0.7,0,1.4,0.1,2,0.3c0.6,0.2,1.2,0.6,1.6,1c0.5,0.5,0.8,1,1.1,1.7c0.3,0.7,0.4,1.5,0.4,2.4v0.8h-9.2v-1.9
	h6.4c0-0.4-0.1-0.8-0.3-1.2c-0.2-0.3-0.5-0.6-0.8-0.8c-0.3-0.2-0.7-0.3-1.2-0.3c-0.5,0-0.9,0.1-1.2,0.3c-0.3,0.2-0.6,0.5-0.8,0.8
	c-0.2,0.4-0.3,0.7-0.3,1.2v1.8c0,0.5,0.1,1,0.3,1.4c0.2,0.4,0.5,0.7,0.9,0.9c0.4,0.2,0.8,0.3,1.3,0.3c0.3,0,0.6,0,0.9-0.1
	s0.5-0.2,0.7-0.4s0.4-0.4,0.5-0.7l2.8,0.2c-0.1,0.7-0.4,1.3-0.9,1.8c-0.4,0.5-1,0.9-1.7,1.2C73.4,45.1,72.6,45.2,71.7,45.2z
	 M78.7,45V34.1h2.9V36h0.1c0.2-0.7,0.5-1.2,1-1.5c0.5-0.4,1-0.5,1.6-0.5c0.2,0,0.3,0,0.5,0c0.2,0,0.3,0,0.5,0.1v2.7
	c-0.1,0-0.3-0.1-0.6-0.1c-0.3,0-0.5,0-0.7,0c-0.4,0-0.8,0.1-1.2,0.3c-0.3,0.2-0.6,0.5-0.8,0.8c-0.2,0.3-0.3,0.7-0.3,1.2V45H78.7z
	 M91.5,45V30.5h5.8c1.1,0,2,0.2,2.7,0.5s1.3,0.8,1.6,1.3c0.4,0.6,0.5,1.2,0.5,1.9c0,0.6-0.1,1.1-0.3,1.5c-0.2,0.4-0.5,0.8-0.9,1.1
	c-0.4,0.3-0.8,0.5-1.3,0.6v0.1c0.6,0,1.1,0.2,1.6,0.5c0.5,0.3,0.9,0.7,1.2,1.2c0.3,0.5,0.5,1.1,0.5,1.8c0,0.8-0.2,1.5-0.6,2.1
	c-0.4,0.6-0.9,1.1-1.7,1.4c-0.7,0.4-1.7,0.5-2.7,0.5H91.5z M94.6,42.5h2.5c0.9,0,1.5-0.2,1.9-0.5c0.4-0.3,0.6-0.8,0.6-1.3
	c0-0.4-0.1-0.8-0.3-1.1c-0.2-0.3-0.5-0.5-0.8-0.7c-0.4-0.2-0.8-0.3-1.3-0.3h-2.6V42.5z M94.6,36.5h2.3c0.4,0,0.8-0.1,1.1-0.2
	c0.3-0.2,0.6-0.4,0.8-0.6c0.2-0.3,0.3-0.6,0.3-1c0-0.5-0.2-0.9-0.6-1.3c-0.4-0.3-0.9-0.5-1.6-0.5h-2.3V36.5z M104.7,45V34.1h3V45
	H104.7z M106.2,32.7c-0.4,0-0.8-0.1-1.2-0.4c-0.3-0.3-0.5-0.7-0.5-1.1c0-0.4,0.2-0.8,0.5-1.1c0.3-0.3,0.7-0.5,1.2-0.5
	c0.5,0,0.8,0.2,1.2,0.5c0.3,0.3,0.5,0.7,0.5,1.1c0,0.4-0.2,0.8-0.5,1.1C107.1,32.5,106.7,32.7,106.2,32.7z"/>
<path class="st1" d="M329.4,42v-8.7h1.6v7.4h3.8V42H329.4z M339,42.1c-0.6,0-1.2-0.1-1.7-0.4c-0.5-0.3-0.8-0.7-1.1-1.2
	c-0.3-0.5-0.4-1.1-0.4-1.8c0-0.7,0.1-1.3,0.4-1.8c0.3-0.5,0.6-0.9,1.1-1.2c0.5-0.3,1-0.4,1.7-0.4c0.6,0,1.2,0.1,1.7,0.4
	c0.5,0.3,0.8,0.7,1.1,1.2c0.3,0.5,0.4,1.1,0.4,1.8c0,0.7-0.1,1.3-0.4,1.8c-0.3,0.5-0.6,0.9-1.1,1.2C340.2,42,339.6,42.1,339,42.1z
	 M339,40.9c0.3,0,0.6-0.1,0.9-0.3c0.2-0.2,0.4-0.5,0.5-0.8c0.1-0.3,0.2-0.7,0.2-1.1c0-0.4-0.1-0.8-0.2-1.1c-0.1-0.3-0.3-0.6-0.5-0.8
	s-0.5-0.3-0.9-0.3c-0.4,0-0.6,0.1-0.9,0.3c-0.2,0.2-0.4,0.5-0.5,0.8c-0.1,0.3-0.2,0.7-0.2,1.1c0,0.4,0.1,0.8,0.2,1.1
	c0.1,0.3,0.3,0.6,0.5,0.8C338.3,40.8,338.6,40.9,339,40.9z M343.4,42v-6.5h1.5v1.1h0.1c0.1-0.4,0.3-0.7,0.6-0.9
	c0.3-0.2,0.6-0.3,1-0.3c0.1,0,0.2,0,0.3,0c0.1,0,0.2,0,0.3,0v1.4c-0.1,0-0.2,0-0.3-0.1c-0.1,0-0.3,0-0.4,0c-0.3,0-0.5,0.1-0.8,0.2
	c-0.2,0.1-0.4,0.3-0.5,0.5c-0.1,0.2-0.2,0.5-0.2,0.7V42H343.4z M350.8,42.1c-0.7,0-1.2-0.1-1.7-0.4c-0.5-0.3-0.8-0.7-1.1-1.2
	c-0.3-0.5-0.4-1.1-0.4-1.8c0-0.7,0.1-1.3,0.4-1.8c0.3-0.5,0.6-0.9,1.1-1.2c0.5-0.3,1-0.4,1.6-0.4c0.4,0,0.8,0.1,1.1,0.2
	c0.4,0.1,0.7,0.3,1,0.6c0.3,0.3,0.5,0.6,0.7,1c0.2,0.4,0.2,0.9,0.2,1.5v0.5h-5.4v-1h3.9c0-0.3-0.1-0.6-0.2-0.8
	c-0.1-0.2-0.3-0.4-0.5-0.5c-0.2-0.1-0.5-0.2-0.8-0.2c-0.3,0-0.6,0.1-0.8,0.2c-0.2,0.2-0.4,0.3-0.6,0.6c-0.1,0.2-0.2,0.5-0.2,0.8v0.9
	c0,0.4,0.1,0.7,0.2,1c0.1,0.3,0.3,0.5,0.6,0.6c0.2,0.1,0.5,0.2,0.9,0.2c0.2,0,0.4,0,0.6-0.1c0.2-0.1,0.3-0.2,0.5-0.3
	c0.1-0.1,0.2-0.3,0.3-0.5l1.4,0.2c-0.1,0.4-0.3,0.7-0.5,1c-0.3,0.3-0.6,0.5-1,0.7C351.8,42.1,351.3,42.1,350.8,42.1z M355,42v-6.5
	h1.5v1.1h0.1c0.1-0.4,0.4-0.7,0.7-0.9c0.3-0.2,0.7-0.3,1.1-0.3c0.4,0,0.8,0.1,1.1,0.3c0.3,0.2,0.5,0.5,0.6,0.9h0.1
	c0.1-0.4,0.4-0.7,0.7-0.9c0.3-0.2,0.8-0.3,1.2-0.3c0.6,0,1.1,0.2,1.5,0.6c0.4,0.4,0.6,0.9,0.6,1.7V42h-1.5v-4.2
	c0-0.4-0.1-0.7-0.3-0.9c-0.2-0.2-0.5-0.3-0.8-0.3c-0.4,0-0.7,0.1-0.9,0.3c-0.2,0.2-0.3,0.5-0.3,0.9V42h-1.5v-4.2
	c0-0.3-0.1-0.6-0.3-0.8c-0.2-0.2-0.5-0.3-0.8-0.3c-0.2,0-0.4,0.1-0.6,0.2c-0.2,0.1-0.3,0.3-0.4,0.5c-0.1,0.2-0.2,0.4-0.2,0.7v4H355z
	"/>
<path class="st2" d="M376.9,42v-8.7h1.3v7.6h4V42H376.9z M386.4,42.1c-0.6,0-1.2-0.1-1.6-0.4c-0.5-0.3-0.8-0.7-1.1-1.2
	c-0.3-0.5-0.4-1.1-0.4-1.8c0-0.7,0.1-1.3,0.4-1.8c0.3-0.5,0.6-0.9,1.1-1.2c0.5-0.3,1-0.4,1.6-0.4c0.6,0,1.1,0.1,1.6,0.4
	c0.5,0.3,0.8,0.7,1.1,1.2c0.3,0.5,0.4,1.1,0.4,1.8c0,0.7-0.1,1.3-0.4,1.8c-0.3,0.5-0.6,0.9-1.1,1.2C387.5,42,387,42.1,386.4,42.1z
	 M386.4,41.1c0.4,0,0.7-0.1,1-0.3c0.3-0.2,0.5-0.5,0.6-0.8c0.1-0.3,0.2-0.7,0.2-1.2c0-0.4-0.1-0.8-0.2-1.2c-0.1-0.4-0.3-0.6-0.6-0.8
	c-0.3-0.2-0.6-0.3-1-0.3c-0.4,0-0.7,0.1-1,0.3c-0.3,0.2-0.5,0.5-0.6,0.8c-0.1,0.3-0.2,0.7-0.2,1.2c0,0.4,0.1,0.8,0.2,1.2
	c0.1,0.3,0.3,0.6,0.6,0.8C385.6,41,386,41.1,386.4,41.1z M390.8,42v-6.5h1.2v1h0.1c0.1-0.4,0.3-0.6,0.6-0.8c0.3-0.2,0.6-0.3,1-0.3
	c0.1,0,0.2,0,0.3,0c0.1,0,0.2,0,0.3,0v1.2c-0.1,0-0.1,0-0.3,0c-0.1,0-0.3,0-0.4,0c-0.3,0-0.6,0.1-0.8,0.2c-0.2,0.1-0.4,0.3-0.6,0.5
	c-0.1,0.2-0.2,0.5-0.2,0.8v4H390.8z M398,42.1c-0.6,0-1.2-0.1-1.7-0.4c-0.5-0.3-0.8-0.7-1.1-1.2c-0.2-0.5-0.4-1.1-0.4-1.8
	c0-0.7,0.1-1.3,0.4-1.8c0.3-0.5,0.6-0.9,1.1-1.2c0.5-0.3,1-0.4,1.6-0.4c0.4,0,0.7,0.1,1.1,0.2c0.3,0.1,0.7,0.3,0.9,0.6
	c0.3,0.3,0.5,0.6,0.7,1c0.2,0.4,0.2,0.9,0.2,1.5v0.5h-5.2v-1h4c0-0.3-0.1-0.6-0.2-0.9c-0.1-0.3-0.3-0.5-0.6-0.6
	c-0.2-0.2-0.5-0.2-0.9-0.2c-0.4,0-0.7,0.1-0.9,0.3c-0.3,0.2-0.5,0.4-0.6,0.7c-0.1,0.3-0.2,0.6-0.2,0.9V39c0,0.4,0.1,0.8,0.2,1.1
	c0.2,0.3,0.4,0.5,0.7,0.7c0.3,0.2,0.6,0.2,1,0.2c0.2,0,0.5,0,0.7-0.1c0.2-0.1,0.4-0.2,0.5-0.3c0.1-0.1,0.3-0.3,0.3-0.5l1.2,0.2
	c-0.1,0.4-0.3,0.7-0.5,0.9c-0.2,0.3-0.6,0.5-0.9,0.6C398.9,42.1,398.5,42.1,398,42.1z M402.3,42v-6.5h1.2v1.1h0.1
	c0.1-0.4,0.4-0.6,0.7-0.8c0.3-0.2,0.7-0.3,1.1-0.3c0.4,0,0.8,0.1,1.1,0.3c0.3,0.2,0.5,0.5,0.7,0.8h0.1c0.2-0.3,0.4-0.6,0.7-0.8
	c0.3-0.2,0.7-0.3,1.2-0.3c0.6,0,1.1,0.2,1.5,0.6c0.4,0.4,0.6,0.9,0.6,1.7V42h-1.3v-4.3c0-0.4-0.1-0.8-0.4-1
	c-0.2-0.2-0.5-0.3-0.9-0.3c-0.4,0-0.7,0.1-1,0.4c-0.2,0.3-0.3,0.6-0.3,1V42h-1.3v-4.4c0-0.4-0.1-0.6-0.3-0.9
	c-0.2-0.2-0.5-0.3-0.9-0.3c-0.2,0-0.5,0.1-0.7,0.2c-0.2,0.1-0.4,0.3-0.5,0.5c-0.1,0.2-0.2,0.5-0.2,0.8v4H402.3z"/>
<path class="st3" d="M250,95h130c2.8,0,5,2.2,5,5l0,0c0,2.8-2.2,5-5,5H250c-2.8,0-5-2.2-5-5l0,0C245,97.2,247.2,95,250,95z"/>
<linearGradient id="SVGID_1_" gradientUnits="userSpaceOnUse" x1="248.2008" y1="148.4897" x2="254.0918" y2="136.7047" gradientTransform="matrix(1 0 0 -1 0 241.8897)">
	<stop  offset="0" style="stop-color:#282B80"/>
	<stop  offset="0.9698" style="stop-color:#28A745"/>
</linearGradient>
<path class="st4" d="M250,95h3c2.8,0,5,2.2,5,5l0,0c0,2.8-2.2,5-5,5h-3c-2.8,0-5-2.2-5-5l0,0C245,97.2,247.2,95,250,95z"/>
<path class="st1" d="M246,84v-8.7h1.3v7.6h4V84H246z M255.4,84.1c-0.6,0-1.1-0.1-1.6-0.4c-0.5-0.3-0.8-0.7-1.1-1.2
	c-0.3-0.5-0.4-1.1-0.4-1.8c0-0.7,0.1-1.3,0.4-1.8c0.3-0.5,0.6-0.9,1.1-1.2c0.5-0.3,1-0.4,1.6-0.4c0.6,0,1.1,0.1,1.6,0.4
	c0.5,0.3,0.8,0.7,1.1,1.2c0.3,0.5,0.4,1.1,0.4,1.8c0,0.7-0.1,1.3-0.4,1.8c-0.3,0.5-0.6,0.9-1.1,1.2C256.5,84,256,84.1,255.4,84.1z
	 M255.4,83.1c0.4,0,0.7-0.1,1-0.3c0.3-0.2,0.5-0.5,0.6-0.8c0.1-0.3,0.2-0.7,0.2-1.2c0-0.4-0.1-0.8-0.2-1.2c-0.1-0.4-0.3-0.6-0.6-0.8
	c-0.3-0.2-0.6-0.3-1-0.3c-0.4,0-0.7,0.1-1,0.3c-0.3,0.2-0.5,0.5-0.6,0.8c-0.1,0.4-0.2,0.7-0.2,1.2c0,0.4,0.1,0.8,0.2,1.2
	c0.1,0.3,0.3,0.6,0.6,0.8C254.7,83,255,83.1,255.4,83.1z M259.9,84v-6.5h1.2v1h0.1c0.1-0.4,0.3-0.6,0.6-0.8c0.3-0.2,0.6-0.3,1-0.3
	c0.1,0,0.2,0,0.3,0c0.1,0,0.2,0,0.3,0v1.2c-0.1,0-0.1,0-0.3,0c-0.1,0-0.3,0-0.4,0c-0.3,0-0.6,0.1-0.8,0.2c-0.2,0.1-0.4,0.3-0.6,0.5
	c-0.1,0.2-0.2,0.5-0.2,0.8v4H259.9z M267.1,84.1c-0.6,0-1.2-0.1-1.7-0.4c-0.5-0.3-0.8-0.7-1.1-1.2c-0.2-0.5-0.4-1.1-0.4-1.8
	c0-0.7,0.1-1.3,0.4-1.8c0.3-0.5,0.6-0.9,1.1-1.2c0.5-0.3,1-0.4,1.6-0.4c0.4,0,0.7,0.1,1.1,0.2c0.3,0.1,0.7,0.3,0.9,0.6
	c0.3,0.3,0.5,0.6,0.7,1c0.2,0.4,0.2,0.9,0.2,1.5v0.5h-5.2v-1h4c0-0.3-0.1-0.6-0.2-0.9c-0.1-0.3-0.3-0.5-0.6-0.6
	c-0.2-0.2-0.5-0.2-0.9-0.2c-0.4,0-0.7,0.1-0.9,0.3c-0.3,0.2-0.5,0.4-0.6,0.7c-0.1,0.3-0.2,0.6-0.2,0.9V81c0,0.4,0.1,0.8,0.2,1.1
	c0.2,0.3,0.4,0.5,0.7,0.7c0.3,0.2,0.6,0.2,1,0.2c0.2,0,0.5,0,0.7-0.1c0.2-0.1,0.4-0.2,0.5-0.3c0.1-0.1,0.3-0.3,0.3-0.5l1.2,0.2
	c-0.1,0.4-0.3,0.7-0.5,0.9c-0.2,0.3-0.6,0.5-0.9,0.6C268,84.1,267.5,84.1,267.1,84.1z M271.3,84v-6.5h1.2v1.1h0.1
	c0.1-0.4,0.4-0.6,0.7-0.8c0.3-0.2,0.7-0.3,1.1-0.3c0.4,0,0.8,0.1,1.1,0.3c0.3,0.2,0.5,0.5,0.7,0.8h0.1c0.2-0.3,0.4-0.6,0.7-0.8
	c0.3-0.2,0.7-0.3,1.2-0.3c0.6,0,1.1,0.2,1.5,0.6c0.4,0.4,0.6,0.9,0.6,1.7V84h-1.3v-4.3c0-0.4-0.1-0.8-0.4-1
	c-0.2-0.2-0.5-0.3-0.9-0.3c-0.4,0-0.7,0.1-1,0.4c-0.2,0.3-0.3,0.6-0.3,1V84h-1.3v-4.4c0-0.4-0.1-0.6-0.3-0.9
	c-0.2-0.2-0.5-0.3-0.9-0.3c-0.2,0-0.5,0.1-0.7,0.2c-0.2,0.1-0.4,0.3-0.5,0.5c-0.1,0.2-0.2,0.5-0.2,0.8v4H271.3z"/>
<path class="st2" d="M381.1,84.1c-0.7,0-1.2-0.2-1.7-0.5c-0.5-0.4-0.8-0.9-1.1-1.5c-0.3-0.7-0.4-1.5-0.4-2.4c0-0.9,0.1-1.8,0.4-2.4
	c0.3-0.7,0.6-1.2,1.1-1.5c0.5-0.4,1.1-0.5,1.7-0.5c0.7,0,1.2,0.2,1.7,0.5c0.5,0.4,0.8,0.9,1.1,1.5c0.3,0.7,0.4,1.5,0.4,2.4
	c0,1-0.1,1.8-0.4,2.4c-0.3,0.7-0.6,1.2-1.1,1.5C382.3,84,381.7,84.1,381.1,84.1z M381.1,83c0.6,0,1.1-0.3,1.4-0.9
	c0.3-0.6,0.5-1.4,0.5-2.5c0-0.7-0.1-1.3-0.2-1.8c-0.2-0.5-0.4-0.9-0.7-1.1c-0.3-0.3-0.6-0.4-1-0.4c-0.6,0-1,0.3-1.4,0.9
	c-0.3,0.6-0.5,1.4-0.5,2.5c0,0.7,0.1,1.3,0.2,1.8c0.2,0.5,0.4,0.9,0.7,1.1C380.3,82.9,380.7,83,381.1,83z M387.1,82.8l-0.1,0.5
	c0,0.3-0.1,0.7-0.2,1.1c-0.1,0.4-0.2,0.7-0.3,1c-0.1,0.3-0.2,0.6-0.3,0.8h-0.9c0-0.2,0.1-0.4,0.2-0.7c0.1-0.3,0.1-0.6,0.2-1
	c0.1-0.4,0.1-0.7,0.1-1.1l0-0.5H387.1z M388.9,84v-1l3-3.1c0.3-0.3,0.6-0.6,0.8-0.9c0.2-0.3,0.4-0.5,0.5-0.7
	c0.1-0.2,0.2-0.5,0.2-0.7c0-0.3-0.1-0.5-0.2-0.8c-0.1-0.2-0.3-0.4-0.6-0.5c-0.2-0.1-0.5-0.2-0.8-0.2c-0.3,0-0.6,0.1-0.8,0.2
	c-0.2,0.1-0.4,0.3-0.5,0.5s-0.2,0.5-0.2,0.8h-1.3c0-0.5,0.1-1,0.4-1.4c0.2-0.4,0.6-0.7,1-0.9c0.4-0.2,0.9-0.3,1.5-0.3
	c0.5,0,1,0.1,1.4,0.3c0.4,0.2,0.7,0.5,1,0.9c0.2,0.4,0.4,0.8,0.4,1.3c0,0.3-0.1,0.6-0.2,1c-0.1,0.3-0.3,0.7-0.6,1
	c-0.3,0.4-0.7,0.8-1.2,1.4l-1.7,1.8v0.1h3.9V84H388.9z M399.3,84.1c-0.4,0-0.8-0.1-1.2-0.2c-0.4-0.1-0.7-0.4-1-0.7
	c-0.3-0.3-0.6-0.7-0.7-1.3c-0.2-0.5-0.3-1.2-0.3-2c0-0.8,0.1-1.4,0.2-2c0.2-0.6,0.4-1.1,0.7-1.5c0.3-0.4,0.6-0.7,1-0.9
	c0.4-0.2,0.9-0.3,1.4-0.3c0.5,0,1,0.1,1.4,0.3c0.4,0.2,0.7,0.5,1,0.8c0.3,0.4,0.4,0.8,0.5,1.2H401c-0.1-0.4-0.3-0.7-0.5-0.9
	c-0.3-0.2-0.6-0.3-1-0.3c-0.6,0-1.1,0.3-1.5,0.8c-0.4,0.6-0.5,1.3-0.5,2.3h0.1c0.2-0.2,0.3-0.5,0.6-0.6c0.2-0.2,0.5-0.3,0.7-0.4
	c0.3-0.1,0.6-0.1,0.9-0.1c0.5,0,1,0.1,1.4,0.4c0.4,0.2,0.7,0.6,1,1c0.2,0.4,0.4,0.9,0.4,1.5s-0.1,1.1-0.4,1.5
	c-0.2,0.5-0.6,0.8-1.1,1.1C400.5,84,399.9,84.1,399.3,84.1z M399.3,83c0.3,0,0.6-0.1,0.9-0.2s0.5-0.4,0.6-0.7
	c0.2-0.3,0.2-0.6,0.2-0.9c0-0.3-0.1-0.6-0.2-0.9c-0.1-0.3-0.4-0.5-0.6-0.7c-0.3-0.2-0.6-0.2-0.9-0.2c-0.3,0-0.5,0-0.7,0.1
	c-0.2,0.1-0.4,0.2-0.6,0.4c-0.2,0.2-0.3,0.4-0.4,0.6c-0.1,0.2-0.1,0.5-0.1,0.7c0,0.3,0.1,0.6,0.2,0.9c0.2,0.3,0.4,0.5,0.6,0.7
	C398.7,82.9,399,83,399.3,83z M408.5,82.4v-0.5c0-0.3,0.1-0.6,0.2-0.9c0.1-0.3,0.3-0.5,0.6-0.7c0.3-0.2,0.6-0.3,1-0.3
	c0.4,0,0.7,0.1,1,0.2c0.3,0.2,0.5,0.4,0.6,0.7c0.1,0.3,0.2,0.6,0.2,0.9v0.5c0,0.3-0.1,0.6-0.2,0.9c-0.1,0.3-0.3,0.5-0.6,0.7
	c-0.3,0.2-0.6,0.2-1,0.2c-0.4,0-0.7-0.1-1-0.2c-0.3-0.2-0.5-0.4-0.6-0.7C408.5,83,408.5,82.7,408.5,82.4z M409.5,81.9v0.5
	c0,0.2,0.1,0.5,0.2,0.7c0.1,0.2,0.3,0.3,0.6,0.3c0.3,0,0.5-0.1,0.6-0.3c0.1-0.2,0.2-0.4,0.2-0.7v-0.5c0-0.2-0.1-0.5-0.2-0.7
	c-0.1-0.2-0.3-0.3-0.6-0.3c-0.3,0-0.5,0.1-0.6,0.3C409.5,81.4,409.5,81.7,409.5,81.9z M404.1,77.4v-0.5c0-0.3,0.1-0.6,0.2-0.9
	c0.1-0.3,0.3-0.5,0.6-0.7c0.3-0.2,0.6-0.2,1-0.2c0.4,0,0.7,0.1,1,0.2c0.3,0.2,0.5,0.4,0.6,0.7c0.1,0.3,0.2,0.6,0.2,0.9v0.5
	c0,0.3-0.1,0.6-0.2,0.9c-0.1,0.3-0.3,0.5-0.6,0.7c-0.3,0.2-0.6,0.2-1,0.2c-0.4,0-0.7-0.1-1-0.2c-0.3-0.2-0.5-0.4-0.6-0.7
	C404.1,78,404.1,77.7,404.1,77.4z M405.1,76.9v0.5c0,0.2,0.1,0.5,0.2,0.7c0.1,0.2,0.3,0.3,0.6,0.3c0.3,0,0.5-0.1,0.6-0.3
	c0.1-0.2,0.2-0.4,0.2-0.7v-0.5c0-0.2-0.1-0.5-0.2-0.7c-0.1-0.2-0.3-0.3-0.6-0.3c-0.3,0-0.5,0.1-0.6,0.3
	C405.1,76.4,405.1,76.7,405.1,76.9z M404.5,84l6-8.7h1l-6,8.7H404.5z"/>
<path class="st3" d="M30,150h130c2.8,0,5,2.2,5,5l0,0c0,2.8-2.2,5-5,5H30c-2.8,0-5-2.2-5-5l0,0C25,152.2,27.2,150,30,150z"/>
<linearGradient id="SVGID_2_" gradientUnits="userSpaceOnUse" x1="23.5132" y1="89.9575" x2="30.6323" y2="84.4795" gradientTransform="matrix(1 0 0 -1 0 241.8897)">
	<stop  offset="0" style="stop-color:#282B80"/>
	<stop  offset="0.9698" style="stop-color:#28A745"/>
</linearGradient>
<path class="st5" d="M27.5,150L27.5,150c1.4,0,2.5,1.1,2.5,2.5v5c0,1.4-1.1,2.5-2.5,2.5l0,0c-1.4,0-2.5-1.1-2.5-2.5v-5
	C25,151.1,26.1,150,27.5,150z"/>
<path class="st1" d="M26,138v-8.7h1.3v7.6h4v1.1H26z M35.4,138.1c-0.6,0-1.1-0.1-1.6-0.4c-0.5-0.3-0.8-0.7-1.1-1.2s-0.4-1.1-0.4-1.8
	c0-0.7,0.1-1.3,0.4-1.8c0.3-0.5,0.6-0.9,1.1-1.2c0.5-0.3,1-0.4,1.6-0.4c0.6,0,1.1,0.1,1.6,0.4s0.8,0.7,1.1,1.2
	c0.3,0.5,0.4,1.1,0.4,1.8c0,0.7-0.1,1.3-0.4,1.8c-0.3,0.5-0.6,0.9-1.1,1.2C36.5,138,36,138.1,35.4,138.1z M35.4,137.1
	c0.4,0,0.7-0.1,1-0.3c0.3-0.2,0.5-0.5,0.6-0.8c0.1-0.4,0.2-0.7,0.2-1.2c0-0.4-0.1-0.8-0.2-1.2c-0.1-0.4-0.3-0.6-0.6-0.8
	c-0.3-0.2-0.6-0.3-1-0.3c-0.4,0-0.7,0.1-1,0.3c-0.3,0.2-0.5,0.5-0.6,0.8c-0.1,0.3-0.2,0.7-0.2,1.2c0,0.4,0.1,0.8,0.2,1.2
	c0.1,0.3,0.3,0.6,0.6,0.8C34.7,137,35,137.1,35.4,137.1z M39.9,138v-6.5h1.2v1h0.1c0.1-0.4,0.3-0.6,0.6-0.8c0.3-0.2,0.6-0.3,1-0.3
	c0.1,0,0.2,0,0.3,0c0.1,0,0.2,0,0.3,0v1.2c-0.1,0-0.1,0-0.3,0c-0.1,0-0.3,0-0.4,0c-0.3,0-0.6,0.1-0.8,0.2c-0.2,0.1-0.4,0.3-0.6,0.5
	c-0.1,0.2-0.2,0.5-0.2,0.8v4H39.9z M47.1,138.1c-0.6,0-1.2-0.1-1.7-0.4c-0.5-0.3-0.8-0.7-1.1-1.2c-0.2-0.5-0.4-1.1-0.4-1.8
	c0-0.7,0.1-1.3,0.4-1.8c0.3-0.5,0.6-0.9,1.1-1.2c0.5-0.3,1-0.4,1.6-0.4c0.4,0,0.7,0.1,1.1,0.2c0.3,0.1,0.7,0.3,0.9,0.6
	c0.3,0.3,0.5,0.6,0.7,1c0.2,0.4,0.2,0.9,0.2,1.5v0.5h-5.2v-1h4c0-0.3-0.1-0.6-0.2-0.9c-0.1-0.3-0.3-0.5-0.6-0.6
	c-0.2-0.2-0.5-0.2-0.9-0.2c-0.4,0-0.7,0.1-0.9,0.3c-0.3,0.2-0.5,0.4-0.6,0.7c-0.1,0.3-0.2,0.6-0.2,0.9v0.7c0,0.4,0.1,0.8,0.2,1.1
	c0.2,0.3,0.4,0.5,0.7,0.7c0.3,0.2,0.6,0.2,1,0.2c0.2,0,0.5,0,0.7-0.1c0.2-0.1,0.4-0.2,0.5-0.3c0.1-0.1,0.3-0.3,0.3-0.5l1.2,0.2
	c-0.1,0.4-0.3,0.7-0.5,0.9c-0.2,0.3-0.6,0.5-0.9,0.6C48,138.1,47.5,138.1,47.1,138.1z M51.3,138v-6.5h1.2v1.1h0.1
	c0.1-0.4,0.4-0.6,0.7-0.8c0.3-0.2,0.7-0.3,1.1-0.3c0.4,0,0.8,0.1,1.1,0.3c0.3,0.2,0.5,0.5,0.7,0.8h0.1c0.2-0.4,0.4-0.6,0.7-0.8
	c0.3-0.2,0.7-0.3,1.2-0.3c0.6,0,1.1,0.2,1.5,0.6c0.4,0.4,0.6,0.9,0.6,1.7v4.4h-1.3v-4.3c0-0.4-0.1-0.8-0.4-1
	c-0.2-0.2-0.5-0.3-0.9-0.3c-0.4,0-0.7,0.1-1,0.4c-0.2,0.3-0.3,0.6-0.3,1v4.2h-1.3v-4.4c0-0.4-0.1-0.6-0.3-0.9s-0.5-0.3-0.9-0.3
	c-0.2,0-0.5,0.1-0.7,0.2c-0.2,0.1-0.4,0.3-0.5,0.5c-0.1,0.2-0.2,0.5-0.2,0.8v4H51.3z"/>
<path class="st2" d="M146.9,138.1c-0.7,0-1.2-0.2-1.7-0.5c-0.5-0.4-0.8-0.9-1.1-1.5c-0.3-0.7-0.4-1.5-0.4-2.4c0-0.9,0.1-1.8,0.4-2.4
	c0.3-0.7,0.6-1.2,1.1-1.5c0.5-0.4,1.1-0.5,1.7-0.5c0.7,0,1.2,0.2,1.7,0.5c0.5,0.4,0.8,0.9,1.1,1.5c0.3,0.7,0.4,1.5,0.4,2.4
	c0,1-0.1,1.8-0.4,2.4c-0.3,0.7-0.6,1.2-1.1,1.5C148.2,138,147.6,138.1,146.9,138.1z M146.9,137c0.6,0,1.1-0.3,1.4-0.9
	c0.3-0.6,0.5-1.4,0.5-2.5c0-0.7-0.1-1.3-0.2-1.8c-0.2-0.5-0.4-0.9-0.7-1.1c-0.3-0.3-0.6-0.4-1-0.4c-0.6,0-1.1,0.3-1.4,0.9
	c-0.3,0.6-0.5,1.4-0.5,2.5c0,0.7,0.1,1.3,0.2,1.8c0.2,0.5,0.4,0.9,0.7,1.1C146.2,136.9,146.6,137,146.9,137z M153,136.8l-0.1,0.5
	c0,0.3-0.1,0.7-0.2,1.1c-0.1,0.4-0.2,0.7-0.3,1c-0.1,0.3-0.2,0.6-0.3,0.8h-0.9c0-0.2,0.1-0.4,0.2-0.7c0.1-0.3,0.1-0.6,0.2-1
	c0.1-0.4,0.1-0.7,0.1-1.1l0-0.5H153z M154.8,138v-1l3-3.1c0.3-0.3,0.6-0.6,0.8-0.9c0.2-0.3,0.4-0.5,0.5-0.7c0.1-0.2,0.2-0.5,0.2-0.7
	c0-0.3-0.1-0.5-0.2-0.8c-0.1-0.2-0.3-0.4-0.6-0.5c-0.2-0.1-0.5-0.2-0.8-0.2c-0.3,0-0.6,0.1-0.8,0.2c-0.2,0.1-0.4,0.3-0.5,0.5
	c-0.1,0.2-0.2,0.5-0.2,0.8h-1.3c0-0.5,0.1-1,0.4-1.4c0.2-0.4,0.6-0.7,1-0.9c0.4-0.2,0.9-0.3,1.5-0.3c0.5,0,1,0.1,1.4,0.3
	c0.4,0.2,0.7,0.5,1,0.9c0.2,0.4,0.4,0.8,0.4,1.3c0,0.3-0.1,0.6-0.2,1c-0.1,0.3-0.3,0.7-0.6,1c-0.3,0.4-0.7,0.8-1.2,1.4l-1.7,1.8v0.1
	h3.9v1.1H154.8z M165.2,138.1c-0.7,0-1.2-0.2-1.7-0.5c-0.5-0.4-0.8-0.9-1.1-1.5c-0.3-0.7-0.4-1.5-0.4-2.4c0-0.9,0.1-1.8,0.4-2.4
	c0.3-0.7,0.6-1.2,1.1-1.5c0.5-0.4,1.1-0.5,1.7-0.5c0.7,0,1.2,0.2,1.7,0.5c0.5,0.4,0.8,0.9,1.1,1.5c0.3,0.7,0.4,1.5,0.4,2.4
	c0,1-0.1,1.8-0.4,2.4c-0.3,0.7-0.6,1.2-1.1,1.5C166.4,138,165.9,138.1,165.2,138.1z M165.2,137c0.6,0,1.1-0.3,1.4-0.9
	c0.3-0.6,0.5-1.4,0.5-2.5c0-0.7-0.1-1.3-0.2-1.8c-0.2-0.5-0.4-0.9-0.7-1.1c-0.3-0.3-0.6-0.4-1-0.4c-0.6,0-1,0.3-1.4,0.9
	c-0.3,0.6-0.5,1.4-0.5,2.5c0,0.7,0.1,1.3,0.2,1.8c0.2,0.5,0.4,0.9,0.7,1.1C164.5,136.9,164.8,137,165.2,137z M174.5,136.4v-0.5
	c0-0.3,0.1-0.6,0.2-0.9c0.1-0.3,0.3-0.5,0.6-0.7c0.3-0.2,0.6-0.3,1-0.3c0.4,0,0.7,0.1,1,0.2c0.3,0.2,0.5,0.4,0.6,0.7
	c0.1,0.3,0.2,0.6,0.2,0.9v0.5c0,0.3-0.1,0.6-0.2,0.9c-0.1,0.3-0.3,0.5-0.6,0.7c-0.3,0.2-0.6,0.2-1,0.2c-0.4,0-0.7-0.1-1-0.2
	c-0.3-0.2-0.5-0.4-0.6-0.7C174.5,137,174.5,136.7,174.5,136.4z M175.4,135.9v0.5c0,0.2,0.1,0.5,0.2,0.7c0.1,0.2,0.3,0.3,0.6,0.3
	c0.3,0,0.5-0.1,0.6-0.3c0.1-0.2,0.2-0.4,0.2-0.7v-0.5c0-0.2-0.1-0.5-0.2-0.7c-0.1-0.2-0.3-0.3-0.6-0.3c-0.3,0-0.5,0.1-0.6,0.3
	C175.5,135.4,175.4,135.7,175.4,135.9z M170.1,131.4v-0.5c0-0.3,0.1-0.6,0.2-0.9c0.1-0.3,0.3-0.5,0.6-0.7c0.3-0.2,0.6-0.2,1-0.2
	c0.4,0,0.7,0.1,1,0.2c0.3,0.2,0.5,0.4,0.6,0.7c0.1,0.3,0.2,0.6,0.2,0.9v0.5c0,0.3-0.1,0.6-0.2,0.9c-0.1,0.3-0.3,0.5-0.6,0.7
	c-0.3,0.2-0.6,0.2-1,0.2c-0.4,0-0.7-0.1-1-0.2c-0.3-0.2-0.5-0.4-0.6-0.7C170.1,132,170.1,131.7,170.1,131.4z M171.1,130.9v0.5
	c0,0.2,0.1,0.5,0.2,0.7c0.1,0.2,0.3,0.3,0.6,0.3c0.3,0,0.5-0.1,0.6-0.3c0.1-0.2,0.2-0.4,0.2-0.7v-0.5c0-0.2-0.1-0.5-0.2-0.7
	c-0.1-0.2-0.3-0.3-0.6-0.3c-0.3,0-0.5,0.1-0.6,0.3C171.1,130.4,171.1,130.7,171.1,130.9z M170.5,138l6-8.7h1l-6,8.7H170.5z"/>
<path class="st3" d="M30,96h130c2.8,0,5,2.2,5,5l0,0c0,2.8-2.2,5-5,5H30c-2.8,0-5-2.2-5-5l0,0C25,98.2,27.2,96,30,96z"/>
<linearGradient id="SVGID_3_" gradientUnits="userSpaceOnUse" x1="88.5824" y1="149.1173" x2="89.3281" y2="134.4253" gradientTransform="matrix(1 0 0 -1 0 241.8897)">
	<stop  offset="0" style="stop-color:#282B80"/>
	<stop  offset="0.9698" style="stop-color:#28A745"/>
</linearGradient>
<path class="st6" d="M30,96h118c2.8,0,5,2.2,5,5l0,0c0,2.8-2.2,5-5,5H30c-2.8,0-5-2.2-5-5l0,0C25,98.2,27.2,96,30,96z"/>
<path class="st1" d="M26,84v-8.7h1.3v7.6h4V84H26z M35.4,84.1c-0.6,0-1.1-0.1-1.6-0.4c-0.5-0.3-0.8-0.7-1.1-1.2
	c-0.3-0.5-0.4-1.1-0.4-1.8c0-0.7,0.1-1.3,0.4-1.8c0.3-0.5,0.6-0.9,1.1-1.2c0.5-0.3,1-0.4,1.6-0.4c0.6,0,1.1,0.1,1.6,0.4
	s0.8,0.7,1.1,1.2c0.3,0.5,0.4,1.1,0.4,1.8c0,0.7-0.1,1.3-0.4,1.8c-0.3,0.5-0.6,0.9-1.1,1.2S36,84.1,35.4,84.1z M35.4,83.1
	c0.4,0,0.7-0.1,1-0.3c0.3-0.2,0.5-0.5,0.6-0.8c0.1-0.3,0.2-0.7,0.2-1.2c0-0.4-0.1-0.8-0.2-1.2c-0.1-0.4-0.3-0.6-0.6-0.8
	c-0.3-0.2-0.6-0.3-1-0.3c-0.4,0-0.7,0.1-1,0.3c-0.3,0.2-0.5,0.5-0.6,0.8c-0.1,0.4-0.2,0.7-0.2,1.2c0,0.4,0.1,0.8,0.2,1.2
	c0.1,0.3,0.3,0.6,0.6,0.8C34.7,83,35,83.1,35.4,83.1z M39.9,84v-6.5h1.2v1h0.1c0.1-0.4,0.3-0.6,0.6-0.8c0.3-0.2,0.6-0.3,1-0.3
	c0.1,0,0.2,0,0.3,0c0.1,0,0.2,0,0.3,0v1.2c-0.1,0-0.1,0-0.3,0c-0.1,0-0.3,0-0.4,0c-0.3,0-0.6,0.1-0.8,0.2c-0.2,0.1-0.4,0.3-0.6,0.5
	c-0.1,0.2-0.2,0.5-0.2,0.8v4H39.9z M47.1,84.1c-0.6,0-1.2-0.1-1.7-0.4c-0.5-0.3-0.8-0.7-1.1-1.2c-0.2-0.5-0.4-1.1-0.4-1.8
	c0-0.7,0.1-1.3,0.4-1.8c0.3-0.5,0.6-0.9,1.1-1.2c0.5-0.3,1-0.4,1.6-0.4c0.4,0,0.7,0.1,1.1,0.2c0.3,0.1,0.7,0.3,0.9,0.6
	c0.3,0.3,0.5,0.6,0.7,1c0.2,0.4,0.2,0.9,0.2,1.5v0.5h-5.2v-1h4c0-0.3-0.1-0.6-0.2-0.9c-0.1-0.3-0.3-0.5-0.6-0.6
	c-0.2-0.2-0.5-0.2-0.9-0.2c-0.4,0-0.7,0.1-0.9,0.3c-0.3,0.2-0.5,0.4-0.6,0.7c-0.1,0.3-0.2,0.6-0.2,0.9V81c0,0.4,0.1,0.8,0.2,1.1
	c0.2,0.3,0.4,0.5,0.7,0.7c0.3,0.2,0.6,0.2,1,0.2c0.2,0,0.5,0,0.7-0.1c0.2-0.1,0.4-0.2,0.5-0.3s0.3-0.3,0.3-0.5l1.2,0.2
	c-0.1,0.4-0.3,0.7-0.5,0.9c-0.2,0.3-0.6,0.5-0.9,0.6C48,84.1,47.5,84.1,47.1,84.1z M51.3,84v-6.5h1.2v1.1h0.1
	c0.1-0.4,0.4-0.6,0.7-0.8c0.3-0.2,0.7-0.3,1.1-0.3c0.4,0,0.8,0.1,1.1,0.3c0.3,0.2,0.5,0.5,0.7,0.8h0.1c0.2-0.3,0.4-0.6,0.7-0.8
	c0.3-0.2,0.7-0.3,1.2-0.3c0.6,0,1.1,0.2,1.5,0.6c0.4,0.4,0.6,0.9,0.6,1.7V84h-1.3v-4.3c0-0.4-0.1-0.8-0.4-1
	c-0.2-0.2-0.5-0.3-0.9-0.3c-0.4,0-0.7,0.1-1,0.4c-0.2,0.3-0.3,0.6-0.3,1V84h-1.3v-4.4c0-0.4-0.1-0.6-0.3-0.9
	c-0.2-0.2-0.5-0.3-0.9-0.3c-0.2,0-0.5,0.1-0.7,0.2c-0.2,0.1-0.4,0.3-0.5,0.5c-0.1,0.2-0.2,0.5-0.2,0.8v4H51.3z"/>
<path class="st2" d="M157.3,75.2c0.4,0,0.8,0.1,1.1,0.2c0.4,0.1,0.7,0.4,1,0.7c0.3,0.3,0.6,0.7,0.7,1.3c0.2,0.5,0.3,1.2,0.3,2
	c0,0.8-0.1,1.4-0.2,2c-0.2,0.6-0.4,1.1-0.7,1.5c-0.3,0.4-0.6,0.7-1,0.9c-0.4,0.2-0.9,0.3-1.4,0.3c-0.5,0-1-0.1-1.4-0.3
	c-0.4-0.2-0.7-0.5-1-0.8c-0.3-0.4-0.4-0.8-0.5-1.3h1.3c0.1,0.4,0.3,0.7,0.5,0.9c0.3,0.2,0.6,0.3,1,0.3c0.6,0,1.1-0.3,1.5-0.8
	c0.4-0.6,0.5-1.3,0.5-2.3h-0.1c-0.1,0.2-0.3,0.5-0.6,0.6c-0.2,0.2-0.5,0.3-0.7,0.4c-0.3,0.1-0.6,0.1-0.9,0.1c-0.5,0-1-0.1-1.4-0.4
	c-0.4-0.2-0.7-0.6-1-1s-0.4-0.9-0.4-1.5c0-0.6,0.1-1.1,0.4-1.5c0.3-0.4,0.6-0.8,1.1-1.1C156.2,75.3,156.7,75.1,157.3,75.2z
	 M157.3,76.3c-0.3,0-0.6,0.1-0.9,0.2c-0.3,0.2-0.5,0.4-0.6,0.7c-0.2,0.3-0.2,0.6-0.2,0.9c0,0.3,0.1,0.6,0.2,0.9
	c0.1,0.3,0.4,0.5,0.6,0.7c0.3,0.2,0.6,0.2,0.9,0.2c0.2,0,0.5,0,0.7-0.1c0.2-0.1,0.4-0.2,0.6-0.4c0.2-0.2,0.3-0.4,0.4-0.6
	c0.1-0.2,0.1-0.4,0.1-0.7c0-0.3-0.1-0.6-0.2-0.9c-0.1-0.3-0.4-0.5-0.6-0.7C158,76.3,157.7,76.3,157.3,76.3z M161.9,82.3v-1.1l3.8-6
	h0.8v1.6h-0.5l-2.7,4.3v0.1h5.2v1.1H161.9z M166,84v-2l0-0.5v-6.2h1.2V84H166z M174.5,82.4v-0.5c0-0.3,0.1-0.6,0.2-0.9
	c0.1-0.3,0.3-0.5,0.6-0.7c0.3-0.2,0.6-0.3,1-0.3c0.4,0,0.7,0.1,1,0.2c0.3,0.2,0.5,0.4,0.6,0.7c0.1,0.3,0.2,0.6,0.2,0.9v0.5
	c0,0.3-0.1,0.6-0.2,0.9c-0.1,0.3-0.3,0.5-0.6,0.7c-0.3,0.2-0.6,0.2-1,0.2c-0.4,0-0.7-0.1-1-0.2c-0.3-0.2-0.5-0.4-0.6-0.7
	C174.5,83,174.5,82.7,174.5,82.4z M175.4,81.9v0.5c0,0.2,0.1,0.5,0.2,0.7c0.1,0.2,0.3,0.3,0.6,0.3c0.3,0,0.5-0.1,0.6-0.3
	c0.1-0.2,0.2-0.4,0.2-0.7v-0.5c0-0.2-0.1-0.5-0.2-0.7c-0.1-0.2-0.3-0.3-0.6-0.3c-0.3,0-0.5,0.1-0.6,0.3
	C175.5,81.4,175.4,81.7,175.4,81.9z M170.1,77.4v-0.5c0-0.3,0.1-0.6,0.2-0.9c0.1-0.3,0.3-0.5,0.6-0.7c0.3-0.2,0.6-0.2,1-0.2
	c0.4,0,0.7,0.1,1,0.2c0.3,0.2,0.5,0.4,0.6,0.7c0.1,0.3,0.2,0.6,0.2,0.9v0.5c0,0.3-0.1,0.6-0.2,0.9c-0.1,0.3-0.3,0.5-0.6,0.7
	c-0.3,0.2-0.6,0.2-1,0.2c-0.4,0-0.7-0.1-1-0.2c-0.3-0.2-0.5-0.4-0.6-0.7C170.1,78,170.1,77.7,170.1,77.4z M171.1,76.9v0.5
	c0,0.2,0.1,0.5,0.2,0.7c0.1,0.2,0.3,0.3,0.6,0.3c0.3,0,0.5-0.1,0.6-0.3c0.1-0.2,0.2-0.4,0.2-0.7v-0.5c0-0.2-0.1-0.5-0.2-0.7
	c-0.1-0.2-0.3-0.3-0.6-0.3c-0.3,0-0.5,0.1-0.6,0.3C171.1,76.4,171.1,76.7,171.1,76.9z M170.5,84l6-8.7h1l-6,8.7H170.5z"/>
<path class="st3" d="M250,149h130c2.8,0,5,2.2,5,5l0,0c0,2.8-2.2,5-5,5H250c-2.8,0-5-2.2-5-5l0,0C245,151.2,247.2,149,250,149z"/>
<linearGradient id="SVGID_4_" gradientUnits="userSpaceOnUse" x1="243.5132" y1="90.9575" x2="250.6322" y2="85.4795" gradientTransform="matrix(1 0 0 -1 0 241.8897)">
	<stop  offset="0" style="stop-color:#282B80"/>
	<stop  offset="0.9698" style="stop-color:#28A745"/>
</linearGradient>
<path class="st7" d="M247.5,149L247.5,149c1.4,0,2.5,1.1,2.5,2.5v5c0,1.4-1.1,2.5-2.5,2.5l0,0c-1.4,0-2.5-1.1-2.5-2.5v-5
	C245,150.1,246.1,149,247.5,149z"/>
<path class="st1" d="M246,137v-8.7h1.3v7.6h4v1.1H246z M255.4,137.1c-0.6,0-1.1-0.1-1.6-0.4c-0.5-0.3-0.8-0.7-1.1-1.2
	s-0.4-1.1-0.4-1.8c0-0.7,0.1-1.3,0.4-1.8c0.3-0.5,0.6-0.9,1.1-1.2c0.5-0.3,1-0.4,1.6-0.4c0.6,0,1.1,0.1,1.6,0.4
	c0.5,0.3,0.8,0.7,1.1,1.2c0.3,0.5,0.4,1.1,0.4,1.8c0,0.7-0.1,1.3-0.4,1.8c-0.3,0.5-0.6,0.9-1.1,1.2C256.5,137,256,137.1,255.4,137.1
	z M255.4,136.1c0.4,0,0.7-0.1,1-0.3c0.3-0.2,0.5-0.5,0.6-0.8c0.1-0.4,0.2-0.7,0.2-1.2c0-0.4-0.1-0.8-0.2-1.2
	c-0.1-0.4-0.3-0.6-0.6-0.8c-0.3-0.2-0.6-0.3-1-0.3c-0.4,0-0.7,0.1-1,0.3c-0.3,0.2-0.5,0.5-0.6,0.8c-0.1,0.3-0.2,0.7-0.2,1.2
	c0,0.4,0.1,0.8,0.2,1.2c0.1,0.3,0.3,0.6,0.6,0.8C254.7,136,255,136.1,255.4,136.1z M259.9,137v-6.5h1.2v1h0.1
	c0.1-0.4,0.3-0.6,0.6-0.8c0.3-0.2,0.6-0.3,1-0.3c0.1,0,0.2,0,0.3,0c0.1,0,0.2,0,0.3,0v1.2c-0.1,0-0.1,0-0.3,0c-0.1,0-0.3,0-0.4,0
	c-0.3,0-0.6,0.1-0.8,0.2c-0.2,0.1-0.4,0.3-0.6,0.5c-0.1,0.2-0.2,0.5-0.2,0.8v4H259.9z M267.1,137.1c-0.6,0-1.2-0.1-1.7-0.4
	c-0.5-0.3-0.8-0.7-1.1-1.2c-0.2-0.5-0.4-1.1-0.4-1.8c0-0.7,0.1-1.3,0.4-1.8c0.3-0.5,0.6-0.9,1.1-1.2c0.5-0.3,1-0.4,1.6-0.4
	c0.4,0,0.7,0.1,1.1,0.2c0.3,0.1,0.7,0.3,0.9,0.6c0.3,0.3,0.5,0.6,0.7,1c0.2,0.4,0.2,0.9,0.2,1.5v0.5h-5.2v-1h4
	c0-0.3-0.1-0.6-0.2-0.9c-0.1-0.3-0.3-0.5-0.6-0.6c-0.2-0.2-0.5-0.2-0.9-0.2c-0.4,0-0.7,0.1-0.9,0.3c-0.3,0.2-0.5,0.4-0.6,0.7
	c-0.1,0.3-0.2,0.6-0.2,0.9v0.7c0,0.4,0.1,0.8,0.2,1.1c0.2,0.3,0.4,0.5,0.7,0.7c0.3,0.2,0.6,0.2,1,0.2c0.2,0,0.5,0,0.7-0.1
	c0.2-0.1,0.4-0.2,0.5-0.3c0.1-0.1,0.3-0.3,0.3-0.5l1.2,0.2c-0.1,0.4-0.3,0.7-0.5,0.9c-0.2,0.3-0.6,0.5-0.9,0.6
	C268,137.1,267.5,137.1,267.1,137.1z M271.3,137v-6.5h1.2v1.1h0.1c0.1-0.4,0.4-0.6,0.7-0.8c0.3-0.2,0.7-0.3,1.1-0.3
	c0.4,0,0.8,0.1,1.1,0.3c0.3,0.2,0.5,0.5,0.7,0.8h0.1c0.2-0.4,0.4-0.6,0.7-0.8c0.3-0.2,0.7-0.3,1.2-0.3c0.6,0,1.1,0.2,1.5,0.6
	c0.4,0.4,0.6,0.9,0.6,1.7v4.4h-1.3v-4.3c0-0.4-0.1-0.8-0.4-1c-0.2-0.2-0.5-0.3-0.9-0.3c-0.4,0-0.7,0.1-1,0.4c-0.2,0.3-0.3,0.6-0.3,1
	v4.2h-1.3v-4.4c0-0.4-0.1-0.6-0.3-0.9c-0.2-0.2-0.5-0.3-0.9-0.3c-0.2,0-0.5,0.1-0.7,0.2c-0.2,0.1-0.4,0.3-0.5,0.5
	c-0.1,0.2-0.2,0.5-0.2,0.8v4H271.3z"/>
<path class="st2" d="M380.9,137.1c-0.7,0-1.2-0.2-1.7-0.5c-0.5-0.4-0.8-0.9-1.1-1.5c-0.3-0.7-0.4-1.5-0.4-2.4c0-0.9,0.1-1.8,0.4-2.4
	c0.3-0.7,0.6-1.2,1.1-1.5c0.5-0.4,1.1-0.5,1.7-0.5c0.7,0,1.2,0.2,1.7,0.5c0.5,0.4,0.8,0.9,1.1,1.5c0.3,0.7,0.4,1.5,0.4,2.4
	c0,1-0.1,1.8-0.4,2.4c-0.3,0.7-0.6,1.2-1.1,1.5C382.2,137,381.6,137.1,380.9,137.1z M380.9,136c0.6,0,1.1-0.3,1.4-0.9
	c0.3-0.6,0.5-1.4,0.5-2.5c0-0.7-0.1-1.3-0.2-1.8c-0.2-0.5-0.4-0.9-0.7-1.1c-0.3-0.3-0.6-0.4-1-0.4c-0.6,0-1,0.3-1.4,0.9
	c-0.3,0.6-0.5,1.4-0.5,2.5c0,0.7,0.1,1.3,0.2,1.8c0.2,0.5,0.4,0.9,0.7,1.1C380.2,135.9,380.6,136,380.9,136z M387,135.8l-0.1,0.5
	c0,0.3-0.1,0.7-0.2,1.1c-0.1,0.4-0.2,0.7-0.3,1c-0.1,0.3-0.2,0.6-0.3,0.8h-0.9c0-0.2,0.1-0.4,0.2-0.7c0.1-0.3,0.1-0.6,0.2-1
	c0.1-0.4,0.1-0.7,0.1-1.1l0-0.5H387z M388.8,137v-1l3-3.1c0.3-0.3,0.6-0.6,0.8-0.9c0.2-0.3,0.4-0.5,0.5-0.7c0.1-0.2,0.2-0.5,0.2-0.7
	c0-0.3-0.1-0.5-0.2-0.8c-0.1-0.2-0.3-0.4-0.6-0.5c-0.2-0.1-0.5-0.2-0.8-0.2c-0.3,0-0.6,0.1-0.8,0.2c-0.2,0.1-0.4,0.3-0.5,0.5
	c-0.1,0.2-0.2,0.5-0.2,0.8h-1.3c0-0.5,0.1-1,0.4-1.4c0.2-0.4,0.6-0.7,1-0.9c0.4-0.2,0.9-0.3,1.5-0.3c0.5,0,1,0.1,1.4,0.3
	c0.4,0.2,0.7,0.5,1,0.9c0.2,0.4,0.4,0.8,0.4,1.3c0,0.3-0.1,0.6-0.2,1c-0.1,0.3-0.3,0.7-0.6,1c-0.3,0.4-0.7,0.8-1.2,1.4l-1.7,1.8v0.1
	h3.9v1.1H388.8z M399.2,137.1c-0.7,0-1.2-0.2-1.7-0.5c-0.5-0.4-0.8-0.9-1.1-1.5c-0.3-0.7-0.4-1.5-0.4-2.4c0-0.9,0.1-1.8,0.4-2.4
	c0.3-0.7,0.6-1.2,1.1-1.5c0.5-0.4,1.1-0.5,1.7-0.5c0.7,0,1.2,0.2,1.7,0.5c0.5,0.4,0.8,0.9,1.1,1.5c0.3,0.7,0.4,1.5,0.4,2.4
	c0,1-0.1,1.8-0.4,2.4c-0.3,0.7-0.6,1.2-1.1,1.5C400.4,137,399.9,137.1,399.2,137.1z M399.2,136c0.6,0,1.1-0.3,1.4-0.9
	c0.3-0.6,0.5-1.4,0.5-2.5c0-0.7-0.1-1.3-0.2-1.8c-0.2-0.5-0.4-0.9-0.7-1.1c-0.3-0.3-0.6-0.4-1-0.4c-0.6,0-1,0.3-1.4,0.9
	c-0.3,0.6-0.5,1.4-0.5,2.5c0,0.7,0.1,1.3,0.2,1.8c0.2,0.5,0.4,0.9,0.7,1.1C398.5,135.9,398.8,136,399.2,136z M408.5,135.4v-0.5
	c0-0.3,0.1-0.6,0.2-0.9c0.1-0.3,0.3-0.5,0.6-0.7c0.3-0.2,0.6-0.3,1-0.3c0.4,0,0.7,0.1,1,0.2c0.3,0.2,0.5,0.4,0.6,0.7
	c0.1,0.3,0.2,0.6,0.2,0.9v0.5c0,0.3-0.1,0.6-0.2,0.9c-0.1,0.3-0.3,0.5-0.6,0.7c-0.3,0.2-0.6,0.2-1,0.2c-0.4,0-0.7-0.1-1-0.2
	c-0.3-0.2-0.5-0.4-0.6-0.7C408.5,136,408.5,135.7,408.5,135.4z M409.5,134.9v0.5c0,0.2,0.1,0.5,0.2,0.7c0.1,0.2,0.3,0.3,0.6,0.3
	c0.3,0,0.5-0.1,0.6-0.3c0.1-0.2,0.2-0.4,0.2-0.7v-0.5c0-0.2-0.1-0.5-0.2-0.7c-0.1-0.2-0.3-0.3-0.6-0.3c-0.3,0-0.5,0.1-0.6,0.3
	C409.5,134.4,409.5,134.7,409.5,134.9z M404.1,130.4v-0.5c0-0.3,0.1-0.6,0.2-0.9c0.1-0.3,0.3-0.5,0.6-0.7c0.3-0.2,0.6-0.2,1-0.2
	c0.4,0,0.7,0.1,1,0.2c0.3,0.2,0.5,0.4,0.6,0.7c0.1,0.3,0.2,0.6,0.2,0.9v0.5c0,0.3-0.1,0.6-0.2,0.9c-0.1,0.3-0.3,0.5-0.6,0.7
	c-0.3,0.2-0.6,0.2-1,0.2c-0.4,0-0.7-0.1-1-0.2c-0.3-0.2-0.5-0.4-0.6-0.7C404.1,131,404.1,130.7,404.1,130.4z M405.1,129.9v0.5
	c0,0.2,0.1,0.5,0.2,0.7c0.1,0.2,0.3,0.3,0.6,0.3c0.3,0,0.5-0.1,0.6-0.3c0.1-0.2,0.2-0.4,0.2-0.7v-0.5c0-0.2-0.1-0.5-0.2-0.7
	c-0.1-0.2-0.3-0.3-0.6-0.3c-0.3,0-0.5,0.1-0.6,0.3C405.1,129.4,405.1,129.7,405.1,129.9z M404.5,137l6-8.7h1l-6,8.7H404.5z"/>
<path class="st3" d="M30,203h130c2.8,0,5,2.2,5,5l0,0c0,2.8-2.2,5-5,5H30c-2.8,0-5-2.2-5-5l0,0C25,205.2,27.2,203,30,203z"/>
<linearGradient id="SVGID_5_" gradientUnits="userSpaceOnUse" x1="23.3175" y1="36.1567" x2="29.8932" y2="32.1087" gradientTransform="matrix(1 0 0 -1 0 241.8897)">
	<stop  offset="0" style="stop-color:#282B80"/>
	<stop  offset="0.9698" style="stop-color:#28A745"/>
</linearGradient>
<path class="st8" d="M27,203L27,203c1.1,0,2,0.9,2,2v6c0,1.1-0.9,2-2,2l0,0c-1.1,0-2-0.9-2-2v-6C25,203.9,25.9,203,27,203z"/>
<path class="st1" d="M26,192v-8.7h1.3v7.6h4v1.1H26z M35.4,192.1c-0.6,0-1.1-0.1-1.6-0.4c-0.5-0.3-0.8-0.7-1.1-1.2s-0.4-1.1-0.4-1.8
	c0-0.7,0.1-1.3,0.4-1.8c0.3-0.5,0.6-0.9,1.1-1.2c0.5-0.3,1-0.4,1.6-0.4c0.6,0,1.1,0.1,1.6,0.4s0.8,0.7,1.1,1.2
	c0.3,0.5,0.4,1.1,0.4,1.8c0,0.7-0.1,1.3-0.4,1.8c-0.3,0.5-0.6,0.9-1.1,1.2C36.5,192,36,192.1,35.4,192.1z M35.4,191.1
	c0.4,0,0.7-0.1,1-0.3c0.3-0.2,0.5-0.5,0.6-0.8c0.1-0.4,0.2-0.7,0.2-1.2c0-0.4-0.1-0.8-0.2-1.2c-0.1-0.4-0.3-0.6-0.6-0.8
	c-0.3-0.2-0.6-0.3-1-0.3c-0.4,0-0.7,0.1-1,0.3c-0.3,0.2-0.5,0.5-0.6,0.8c-0.1,0.3-0.2,0.7-0.2,1.2c0,0.4,0.1,0.8,0.2,1.2
	c0.1,0.3,0.3,0.6,0.6,0.8C34.7,191,35,191.1,35.4,191.1z M39.9,192v-6.5h1.2v1h0.1c0.1-0.4,0.3-0.6,0.6-0.8c0.3-0.2,0.6-0.3,1-0.3
	c0.1,0,0.2,0,0.3,0c0.1,0,0.2,0,0.3,0v1.2c-0.1,0-0.1,0-0.3,0c-0.1,0-0.3,0-0.4,0c-0.3,0-0.6,0.1-0.8,0.2c-0.2,0.1-0.4,0.3-0.6,0.5
	c-0.1,0.2-0.2,0.5-0.2,0.8v4H39.9z M47.1,192.1c-0.6,0-1.2-0.1-1.7-0.4c-0.5-0.3-0.8-0.7-1.1-1.2c-0.2-0.5-0.4-1.1-0.4-1.8
	c0-0.7,0.1-1.3,0.4-1.8c0.3-0.5,0.6-0.9,1.1-1.2c0.5-0.3,1-0.4,1.6-0.4c0.4,0,0.7,0.1,1.1,0.2c0.3,0.1,0.7,0.3,0.9,0.6
	c0.3,0.3,0.5,0.6,0.7,1c0.2,0.4,0.2,0.9,0.2,1.5v0.5h-5.2v-1h4c0-0.3-0.1-0.6-0.2-0.9c-0.1-0.3-0.3-0.5-0.6-0.6
	c-0.2-0.2-0.5-0.2-0.9-0.2c-0.4,0-0.7,0.1-0.9,0.3c-0.3,0.2-0.5,0.4-0.6,0.7c-0.1,0.3-0.2,0.6-0.2,0.9v0.7c0,0.4,0.1,0.8,0.2,1.1
	c0.2,0.3,0.4,0.5,0.7,0.7c0.3,0.2,0.6,0.2,1,0.2c0.2,0,0.5,0,0.7-0.1c0.2-0.1,0.4-0.2,0.5-0.3c0.1-0.1,0.3-0.3,0.3-0.5l1.2,0.2
	c-0.1,0.4-0.3,0.7-0.5,0.9c-0.2,0.3-0.6,0.5-0.9,0.6C48,192.1,47.5,192.1,47.1,192.1z M51.3,192v-6.5h1.2v1.1h0.1
	c0.1-0.4,0.4-0.6,0.7-0.8c0.3-0.2,0.7-0.3,1.1-0.3c0.4,0,0.8,0.1,1.1,0.3c0.3,0.2,0.5,0.5,0.7,0.8h0.1c0.2-0.4,0.4-0.6,0.7-0.8
	c0.3-0.2,0.7-0.3,1.2-0.3c0.6,0,1.1,0.2,1.5,0.6c0.4,0.4,0.6,0.9,0.6,1.7v4.4h-1.3v-4.3c0-0.4-0.1-0.8-0.4-1
	c-0.2-0.2-0.5-0.3-0.9-0.3c-0.4,0-0.7,0.1-1,0.4c-0.2,0.3-0.3,0.6-0.3,1v4.2h-1.3v-4.4c0-0.4-0.1-0.6-0.3-0.9s-0.5-0.3-0.9-0.3
	c-0.2,0-0.5,0.1-0.7,0.2c-0.2,0.1-0.4,0.3-0.5,0.5c-0.1,0.2-0.2,0.5-0.2,0.8v4H51.3z"/>
<path class="st2" d="M149.7,192.1c-0.7,0-1.2-0.2-1.7-0.5s-0.8-0.9-1.1-1.5c-0.3-0.7-0.4-1.5-0.4-2.4c0-0.9,0.1-1.8,0.4-2.4
	c0.3-0.7,0.6-1.2,1.1-1.5c0.5-0.4,1.1-0.5,1.7-0.5s1.2,0.2,1.7,0.5c0.5,0.4,0.8,0.9,1.1,1.5c0.3,0.7,0.4,1.5,0.4,2.4
	c0,1-0.1,1.8-0.4,2.4c-0.3,0.7-0.6,1.2-1.1,1.5C150.9,192,150.4,192.1,149.7,192.1z M149.7,191c0.6,0,1.1-0.3,1.4-0.9
	c0.3-0.6,0.5-1.4,0.5-2.5c0-0.7-0.1-1.3-0.2-1.8c-0.2-0.5-0.4-0.9-0.7-1.1c-0.3-0.3-0.6-0.4-1-0.4c-0.6,0-1.1,0.3-1.4,0.9
	c-0.3,0.6-0.5,1.4-0.5,2.5c0,0.7,0.1,1.3,0.2,1.8c0.2,0.5,0.4,0.9,0.7,1.1C149,190.9,149.3,191,149.7,191z M155.8,190.8l-0.1,0.5
	c0,0.3-0.1,0.7-0.2,1.1c-0.1,0.4-0.2,0.7-0.3,1c-0.1,0.3-0.2,0.6-0.3,0.8H154c0-0.2,0.1-0.4,0.2-0.7c0.1-0.3,0.1-0.6,0.2-1
	c0.1-0.4,0.1-0.7,0.1-1.1l0-0.5H155.8z M159.8,183.3v8.7h-1.3v-7.4h-0.1l-2.1,1.4v-1.3l2.2-1.4H159.8z M165.2,192.1
	c-0.6,0-1.1-0.1-1.6-0.3c-0.5-0.2-0.8-0.5-1.1-0.8c-0.3-0.4-0.4-0.8-0.4-1.3h1.3c0,0.3,0.1,0.5,0.3,0.7c0.2,0.2,0.4,0.3,0.6,0.4
	c0.3,0.1,0.5,0.2,0.9,0.2c0.3,0,0.6-0.1,0.9-0.2c0.3-0.1,0.5-0.3,0.6-0.5c0.2-0.2,0.2-0.5,0.2-0.7c0-0.3-0.1-0.5-0.2-0.8
	c-0.1-0.2-0.4-0.4-0.7-0.5c-0.3-0.1-0.6-0.2-1-0.2h-0.7V187h0.7c0.3,0,0.6-0.1,0.9-0.2c0.2-0.1,0.4-0.3,0.6-0.5
	c0.1-0.2,0.2-0.5,0.2-0.7c0-0.3-0.1-0.5-0.2-0.7c-0.1-0.2-0.3-0.4-0.5-0.5c-0.2-0.1-0.5-0.2-0.8-0.2c-0.3,0-0.6,0.1-0.8,0.2
	c-0.2,0.1-0.4,0.2-0.6,0.4c-0.2,0.2-0.2,0.4-0.2,0.7h-1.3c0-0.5,0.2-0.9,0.4-1.2c0.3-0.4,0.6-0.6,1.1-0.8c0.4-0.2,0.9-0.3,1.5-0.3
	c0.6,0,1,0.1,1.4,0.3c0.4,0.2,0.7,0.5,0.9,0.9c0.2,0.4,0.3,0.8,0.3,1.2c0,0.5-0.1,0.9-0.4,1.2c-0.3,0.3-0.6,0.6-1.1,0.7v0.1
	c0.6,0.1,1,0.3,1.3,0.7c0.3,0.4,0.5,0.8,0.5,1.4c0,0.5-0.1,0.9-0.4,1.3c-0.3,0.4-0.6,0.7-1.1,0.9C166.3,192,165.8,192.1,165.2,192.1
	z M174.5,190.4v-0.5c0-0.3,0.1-0.6,0.2-0.9c0.1-0.3,0.3-0.5,0.6-0.7c0.3-0.2,0.6-0.3,1-0.3c0.4,0,0.7,0.1,1,0.2
	c0.3,0.2,0.5,0.4,0.6,0.7c0.1,0.3,0.2,0.6,0.2,0.9v0.5c0,0.3-0.1,0.6-0.2,0.9c-0.1,0.3-0.3,0.5-0.6,0.7c-0.3,0.2-0.6,0.2-1,0.2
	c-0.4,0-0.7-0.1-1-0.2c-0.3-0.2-0.5-0.4-0.6-0.7C174.5,191,174.5,190.7,174.5,190.4z M175.4,189.9v0.5c0,0.2,0.1,0.5,0.2,0.7
	c0.1,0.2,0.3,0.3,0.6,0.3c0.3,0,0.5-0.1,0.6-0.3c0.1-0.2,0.2-0.4,0.2-0.7v-0.5c0-0.2-0.1-0.5-0.2-0.7c-0.1-0.2-0.3-0.3-0.6-0.3
	c-0.3,0-0.5,0.1-0.6,0.3C175.5,189.4,175.4,189.7,175.4,189.9z M170.1,185.4v-0.5c0-0.3,0.1-0.6,0.2-0.9c0.1-0.3,0.3-0.5,0.6-0.7
	c0.3-0.2,0.6-0.2,1-0.2c0.4,0,0.7,0.1,1,0.2c0.3,0.2,0.5,0.4,0.6,0.7c0.1,0.3,0.2,0.6,0.2,0.9v0.5c0,0.3-0.1,0.6-0.2,0.9
	c-0.1,0.3-0.3,0.5-0.6,0.7c-0.3,0.2-0.6,0.2-1,0.2c-0.4,0-0.7-0.1-1-0.2c-0.3-0.2-0.5-0.4-0.6-0.7
	C170.1,186,170.1,185.7,170.1,185.4z M171.1,184.9v0.5c0,0.2,0.1,0.5,0.2,0.7c0.1,0.2,0.3,0.3,0.6,0.3c0.3,0,0.5-0.1,0.6-0.3
	c0.1-0.2,0.2-0.4,0.2-0.7v-0.5c0-0.2-0.1-0.5-0.2-0.7c-0.1-0.2-0.3-0.3-0.6-0.3c-0.3,0-0.5,0.1-0.6,0.3
	C171.1,184.4,171.1,184.7,171.1,184.9z M170.5,192l6-8.7h1l-6,8.7H170.5z"/>
<path class="st3" d="M250,202h130c2.8,0,5,2.2,5,5l0,0c0,2.8-2.2,5-5,5H250c-2.8,0-5-2.2-5-5l0,0C245,204.2,247.2,202,250,202z"/>
<linearGradient id="SVGID_6_" gradientUnits="userSpaceOnUse" x1="249.4915" y1="41.8353" x2="254.8635" y2="29.4333" gradientTransform="matrix(1 0 0 -1 0 241.8897)">
	<stop  offset="0" style="stop-color:#282B80"/>
	<stop  offset="0.9698" style="stop-color:#28A745"/>
</linearGradient>
<path class="st9" d="M250,202h5c2.8,0,5,2.2,5,5l0,0c0,2.8-2.2,5-5,5h-5c-2.8,0-5-2.2-5-5l0,0C245,204.2,247.2,202,250,202z"/>
<path class="st1" d="M246,191v-8.7h1.3v7.6h4v1.1H246z M255.4,191.1c-0.6,0-1.1-0.1-1.6-0.4c-0.5-0.3-0.8-0.7-1.1-1.2
	s-0.4-1.1-0.4-1.8c0-0.7,0.1-1.3,0.4-1.8c0.3-0.5,0.6-0.9,1.1-1.2c0.5-0.3,1-0.4,1.6-0.4c0.6,0,1.1,0.1,1.6,0.4
	c0.5,0.3,0.8,0.7,1.1,1.2c0.3,0.5,0.4,1.1,0.4,1.8c0,0.7-0.1,1.3-0.4,1.8c-0.3,0.5-0.6,0.9-1.1,1.2C256.5,191,256,191.1,255.4,191.1
	z M255.4,190.1c0.4,0,0.7-0.1,1-0.3c0.3-0.2,0.5-0.5,0.6-0.8c0.1-0.4,0.2-0.7,0.2-1.2c0-0.4-0.1-0.8-0.2-1.2
	c-0.1-0.4-0.3-0.6-0.6-0.8c-0.3-0.2-0.6-0.3-1-0.3c-0.4,0-0.7,0.1-1,0.3c-0.3,0.2-0.5,0.5-0.6,0.8c-0.1,0.3-0.2,0.7-0.2,1.2
	c0,0.4,0.1,0.8,0.2,1.2c0.1,0.3,0.3,0.6,0.6,0.8C254.7,190,255,190.1,255.4,190.1z M259.9,191v-6.5h1.2v1h0.1
	c0.1-0.4,0.3-0.6,0.6-0.8c0.3-0.2,0.6-0.3,1-0.3c0.1,0,0.2,0,0.3,0c0.1,0,0.2,0,0.3,0v1.2c-0.1,0-0.1,0-0.3,0c-0.1,0-0.3,0-0.4,0
	c-0.3,0-0.6,0.1-0.8,0.2c-0.2,0.1-0.4,0.3-0.6,0.5c-0.1,0.2-0.2,0.5-0.2,0.8v4H259.9z M267.1,191.1c-0.6,0-1.2-0.1-1.7-0.4
	c-0.5-0.3-0.8-0.7-1.1-1.2c-0.2-0.5-0.4-1.1-0.4-1.8c0-0.7,0.1-1.3,0.4-1.8c0.3-0.5,0.6-0.9,1.1-1.2c0.5-0.3,1-0.4,1.6-0.4
	c0.4,0,0.7,0.1,1.1,0.2c0.3,0.1,0.7,0.3,0.9,0.6c0.3,0.3,0.5,0.6,0.7,1c0.2,0.4,0.2,0.9,0.2,1.5v0.5h-5.2v-1h4
	c0-0.3-0.1-0.6-0.2-0.9c-0.1-0.3-0.3-0.5-0.6-0.6c-0.2-0.2-0.5-0.2-0.9-0.2c-0.4,0-0.7,0.1-0.9,0.3c-0.3,0.2-0.5,0.4-0.6,0.7
	c-0.1,0.3-0.2,0.6-0.2,0.9v0.7c0,0.4,0.1,0.8,0.2,1.1c0.2,0.3,0.4,0.5,0.7,0.7c0.3,0.2,0.6,0.2,1,0.2c0.2,0,0.5,0,0.7-0.1
	c0.2-0.1,0.4-0.2,0.5-0.3c0.1-0.1,0.3-0.3,0.3-0.5l1.2,0.2c-0.1,0.4-0.3,0.7-0.5,0.9c-0.2,0.3-0.6,0.5-0.9,0.6
	C268,191.1,267.5,191.1,267.1,191.1z M271.3,191v-6.5h1.2v1.1h0.1c0.1-0.4,0.4-0.6,0.7-0.8c0.3-0.2,0.7-0.3,1.1-0.3
	c0.4,0,0.8,0.1,1.1,0.3c0.3,0.2,0.5,0.5,0.7,0.8h0.1c0.2-0.4,0.4-0.6,0.7-0.8c0.3-0.2,0.7-0.3,1.2-0.3c0.6,0,1.1,0.2,1.5,0.6
	c0.4,0.4,0.6,0.9,0.6,1.7v4.4h-1.3v-4.3c0-0.4-0.1-0.8-0.4-1c-0.2-0.2-0.5-0.3-0.9-0.3c-0.4,0-0.7,0.1-1,0.4c-0.2,0.3-0.3,0.6-0.3,1
	v4.2h-1.3v-4.4c0-0.4-0.1-0.6-0.3-0.9c-0.2-0.2-0.5-0.3-0.9-0.3c-0.2,0-0.5,0.1-0.7,0.2c-0.2,0.1-0.4,0.3-0.5,0.5
	c-0.1,0.2-0.2,0.5-0.2,0.8v4H271.3z"/>
<path class="st2" d="M384.2,182.3v8.7h-1.3v-7.4h-0.1l-2.1,1.4v-1.3l2.2-1.4H384.2z M387.8,189.8l-0.1,0.5c0,0.3-0.1,0.7-0.2,1.1
	c-0.1,0.4-0.2,0.7-0.3,1c-0.1,0.3-0.2,0.6-0.3,0.8H386c0-0.2,0.1-0.4,0.2-0.7c0.1-0.3,0.1-0.6,0.2-1c0.1-0.4,0.1-0.7,0.1-1.1l0-0.5
	H387.8z M392.3,191.1c-0.6,0-1.1-0.1-1.6-0.3c-0.5-0.2-0.8-0.5-1.1-0.8c-0.3-0.4-0.4-0.8-0.4-1.3h1.3c0,0.3,0.1,0.5,0.3,0.7
	c0.2,0.2,0.4,0.3,0.6,0.4c0.3,0.1,0.5,0.2,0.9,0.2c0.3,0,0.6-0.1,0.9-0.2c0.3-0.1,0.5-0.3,0.6-0.5c0.2-0.2,0.2-0.5,0.2-0.7
	c0-0.3-0.1-0.5-0.2-0.8c-0.1-0.2-0.4-0.4-0.7-0.5c-0.3-0.1-0.6-0.2-1-0.2h-0.7V186h0.7c0.3,0,0.6-0.1,0.9-0.2
	c0.2-0.1,0.4-0.3,0.6-0.5c0.1-0.2,0.2-0.5,0.2-0.7c0-0.3-0.1-0.5-0.2-0.7c-0.1-0.2-0.3-0.4-0.5-0.5c-0.2-0.1-0.5-0.2-0.8-0.2
	c-0.3,0-0.5,0.1-0.8,0.2c-0.2,0.1-0.4,0.2-0.6,0.4c-0.2,0.2-0.2,0.4-0.2,0.7h-1.3c0-0.5,0.2-0.9,0.4-1.2c0.3-0.4,0.6-0.6,1.1-0.8
	c0.4-0.2,0.9-0.3,1.5-0.3c0.6,0,1,0.1,1.4,0.3c0.4,0.2,0.7,0.5,0.9,0.9c0.2,0.4,0.3,0.8,0.3,1.2c0,0.5-0.1,0.9-0.4,1.2
	c-0.3,0.3-0.6,0.6-1.1,0.7v0.1c0.6,0.1,1,0.3,1.3,0.7c0.3,0.4,0.5,0.8,0.5,1.4c0,0.5-0.1,0.9-0.4,1.3c-0.3,0.4-0.6,0.7-1.1,0.9
	C393.4,191,392.9,191.1,392.3,191.1z M397.2,191l3.8-7.5v-0.1h-4.4v-1.1h5.8v1.2l-3.8,7.6H397.2z M408.5,189.4v-0.5
	c0-0.3,0.1-0.6,0.2-0.9c0.1-0.3,0.3-0.5,0.6-0.7c0.3-0.2,0.6-0.3,1-0.3c0.4,0,0.7,0.1,1,0.2c0.3,0.2,0.5,0.4,0.6,0.7
	c0.1,0.3,0.2,0.6,0.2,0.9v0.5c0,0.3-0.1,0.6-0.2,0.9c-0.1,0.3-0.3,0.5-0.6,0.7c-0.3,0.2-0.6,0.2-1,0.2c-0.4,0-0.7-0.1-1-0.2
	c-0.3-0.2-0.5-0.4-0.6-0.7C408.5,190,408.5,189.7,408.5,189.4z M409.5,188.9v0.5c0,0.2,0.1,0.5,0.2,0.7c0.1,0.2,0.3,0.3,0.6,0.3
	c0.3,0,0.5-0.1,0.6-0.3c0.1-0.2,0.2-0.4,0.2-0.7v-0.5c0-0.2-0.1-0.5-0.2-0.7c-0.1-0.2-0.3-0.3-0.6-0.3c-0.3,0-0.5,0.1-0.6,0.3
	C409.5,188.4,409.5,188.7,409.5,188.9z M404.1,184.4v-0.5c0-0.3,0.1-0.6,0.2-0.9c0.1-0.3,0.3-0.5,0.6-0.7c0.3-0.2,0.6-0.2,1-0.2
	c0.4,0,0.7,0.1,1,0.2c0.3,0.2,0.5,0.4,0.6,0.7c0.1,0.3,0.2,0.6,0.2,0.9v0.5c0,0.3-0.1,0.6-0.2,0.9c-0.1,0.3-0.3,0.5-0.6,0.7
	c-0.3,0.2-0.6,0.2-1,0.2c-0.4,0-0.7-0.1-1-0.2c-0.3-0.2-0.5-0.4-0.6-0.7C404.1,185,404.1,184.7,404.1,184.4z M405.1,183.9v0.5
	c0,0.2,0.1,0.5,0.2,0.7c0.1,0.2,0.3,0.3,0.6,0.3c0.3,0,0.5-0.1,0.6-0.3c0.1-0.2,0.2-0.4,0.2-0.7v-0.5c0-0.2-0.1-0.5-0.2-0.7
	c-0.1-0.2-0.3-0.3-0.6-0.3c-0.3,0-0.5,0.1-0.6,0.3C405.1,183.4,405.1,183.7,405.1,183.9z M404.5,191l6-8.7h1l-6,8.7H404.5z"/>
</svg>
