 <svg width="556" height="317" viewBox="0 0 556 317" fill="none" xmlns="http://www.w3.org/2000/svg">
      <g filter="url(#filter0_d_1353_5878)">
        <rect x="50" y="35" width="456" height="242" rx="13" fill="white" />
      </g>
      <path
        d="M75.2642 80V65.4545H81.0028C82.1061 65.4545 83.0459 65.6652 83.8224 66.0866C84.599 66.5033 85.1908 67.0833 85.598 67.8267C86.0099 68.5653 86.2159 69.4176 86.2159 70.3835C86.2159 71.3494 86.0076 72.2017 85.5909 72.9403C85.1742 73.679 84.5705 74.2543 83.7798 74.6662C82.9938 75.0781 82.0421 75.2841 80.9247 75.2841H77.267V72.8196H80.4276C81.0194 72.8196 81.5071 72.7178 81.8906 72.5142C82.2789 72.3059 82.5677 72.0194 82.7571 71.6548C82.9512 71.2855 83.0483 70.8617 83.0483 70.3835C83.0483 69.9006 82.9512 69.4792 82.7571 69.1193C82.5677 68.7547 82.2789 68.473 81.8906 68.2741C81.5024 68.0705 81.0099 67.9688 80.4134 67.9688H78.3395V80H75.2642ZM92.9098 80.2131C91.8066 80.2131 90.8525 79.9787 90.0476 79.5099C89.2474 79.0365 88.6295 78.3783 88.1939 77.5355C87.7583 76.688 87.5405 75.7055 87.5405 74.5881C87.5405 73.4612 87.7583 72.4763 88.1939 71.6335C88.6295 70.786 89.2474 70.1278 90.0476 69.6591C90.8525 69.1856 91.8066 68.9489 92.9098 68.9489C94.013 68.9489 94.9647 69.1856 95.7649 69.6591C96.5698 70.1278 97.1901 70.786 97.6257 71.6335C98.0613 72.4763 98.2791 73.4612 98.2791 74.5881C98.2791 75.7055 98.0613 76.688 97.6257 77.5355C97.1901 78.3783 96.5698 79.0365 95.7649 79.5099C94.9647 79.9787 94.013 80.2131 92.9098 80.2131ZM92.924 77.8693C93.4259 77.8693 93.8449 77.7273 94.1811 77.4432C94.5173 77.1544 94.7706 76.7614 94.9411 76.2642C95.1162 75.767 95.2038 75.2012 95.2038 74.5668C95.2038 73.9323 95.1162 73.3665 94.9411 72.8693C94.7706 72.3722 94.5173 71.9792 94.1811 71.6903C93.8449 71.4015 93.4259 71.2571 92.924 71.2571C92.4174 71.2571 91.9912 71.4015 91.6456 71.6903C91.3047 71.9792 91.0466 72.3722 90.8714 72.8693C90.701 73.3665 90.6158 73.9323 90.6158 74.5668C90.6158 75.2012 90.701 75.767 90.8714 76.2642C91.0466 76.7614 91.3047 77.1544 91.6456 77.4432C91.9912 77.7273 92.4174 77.8693 92.924 77.8693ZM102.125 80L99.1562 69.0909H102.217L103.908 76.4205H104.007L105.768 69.0909H108.773L110.562 76.3778H110.655L112.317 69.0909H115.371L112.409 80H109.206L107.331 73.1392H107.196L105.321 80H102.125ZM121.683 80.2131C120.561 80.2131 119.595 79.9858 118.785 79.5312C117.98 79.072 117.36 78.4233 116.924 77.5852C116.489 76.7424 116.271 75.7457 116.271 74.5952C116.271 73.473 116.489 72.4882 116.924 71.6406C117.36 70.7931 117.973 70.1326 118.764 69.6591C119.559 69.1856 120.492 68.9489 121.562 68.9489C122.282 68.9489 122.952 69.0649 123.572 69.2969C124.197 69.5241 124.742 69.8674 125.206 70.3267C125.674 70.786 126.039 71.3636 126.299 72.0597C126.56 72.7509 126.69 73.5606 126.69 74.4886V75.3196H117.478V73.4446H123.842C123.842 73.009 123.747 72.6231 123.558 72.2869C123.368 71.9508 123.106 71.688 122.77 71.4986C122.438 71.3045 122.052 71.2074 121.612 71.2074C121.153 71.2074 120.745 71.3139 120.39 71.527C120.04 71.7353 119.765 72.017 119.566 72.3722C119.368 72.7225 119.266 73.1132 119.261 73.544V75.3267C119.261 75.8665 119.36 76.3329 119.559 76.7259C119.763 77.1188 120.049 77.4219 120.419 77.6349C120.788 77.848 121.226 77.9545 121.733 77.9545C122.069 77.9545 122.377 77.9072 122.656 77.8125C122.935 77.7178 123.174 77.5758 123.373 77.3864C123.572 77.197 123.724 76.965 123.828 76.6903L126.626 76.875C126.484 77.5473 126.193 78.1345 125.752 78.6364C125.317 79.1335 124.753 79.5218 124.062 79.8011C123.376 80.0758 122.583 80.2131 121.683 80.2131ZM128.664 80V69.0909H131.598V70.9943H131.711C131.91 70.3172 132.244 69.8059 132.713 69.4602C133.181 69.1098 133.721 68.9347 134.332 68.9347C134.484 68.9347 134.647 68.9441 134.822 68.9631C134.997 68.982 135.151 69.008 135.284 69.0412V71.7259C135.142 71.6832 134.945 71.6454 134.694 71.6122C134.443 71.5791 134.214 71.5625 134.005 71.5625C133.56 71.5625 133.163 71.6596 132.812 71.8537C132.467 72.0431 132.192 72.3082 131.988 72.6491C131.789 72.9901 131.69 73.383 131.69 73.8281V80H128.664ZM141.534 80V65.4545H147.358C148.428 65.4545 149.32 65.6132 150.035 65.9304C150.75 66.2476 151.288 66.688 151.647 67.2514C152.007 67.8101 152.187 68.4541 152.187 69.1832C152.187 69.7514 152.074 70.2509 151.846 70.6818C151.619 71.108 151.306 71.4583 150.909 71.733C150.516 72.0028 150.066 72.1946 149.559 72.3082V72.4503C150.113 72.474 150.632 72.6302 151.115 72.919C151.602 73.2079 151.998 73.6127 152.301 74.1335C152.604 74.6496 152.755 75.2652 152.755 75.9801C152.755 76.7519 152.564 77.4408 152.18 78.0469C151.801 78.6482 151.24 79.1241 150.497 79.4744C149.753 79.8248 148.837 80 147.748 80H141.534ZM144.609 77.4858H147.116C147.973 77.4858 148.598 77.3224 148.991 76.9957C149.384 76.6643 149.581 76.224 149.581 75.6747C149.581 75.2723 149.484 74.9171 149.289 74.6094C149.095 74.3016 148.818 74.0601 148.458 73.8849C148.103 73.7098 147.68 73.6222 147.187 73.6222H144.609V77.4858ZM144.609 71.5412H146.889C147.31 71.5412 147.684 71.4678 148.011 71.321C148.342 71.1695 148.603 70.9564 148.792 70.6818C148.986 70.4072 149.083 70.0781 149.083 69.6946C149.083 69.169 148.896 68.7453 148.522 68.4233C148.153 68.1013 147.627 67.9403 146.946 67.9403H144.609V71.5412ZM154.7 80V69.0909H157.725V80H154.7ZM156.219 67.6847C155.77 67.6847 155.384 67.5355 155.062 67.2372C154.745 66.9342 154.586 66.572 154.586 66.1506C154.586 65.7339 154.745 65.3764 155.062 65.0781C155.384 64.7751 155.77 64.6236 156.219 64.6236C156.669 64.6236 157.053 64.7751 157.37 65.0781C157.692 65.3764 157.853 65.7339 157.853 66.1506C157.853 66.572 157.692 66.9342 157.37 67.2372C157.053 67.5355 156.669 67.6847 156.219 67.6847Z"
        fill="#4F4F4F" />
      <path
        d="M383.392 77V68.2727H384.973V75.6747H388.817V77H383.392ZM392.976 77.1278C392.337 77.1278 391.783 76.9872 391.314 76.706C390.845 76.4247 390.482 76.0312 390.223 75.5256C389.967 75.0199 389.839 74.429 389.839 73.7528C389.839 73.0767 389.967 72.4844 390.223 71.9759C390.482 71.4673 390.845 71.0724 391.314 70.7912C391.783 70.5099 392.337 70.3693 392.976 70.3693C393.615 70.3693 394.169 70.5099 394.638 70.7912C395.107 71.0724 395.469 71.4673 395.724 71.9759C395.983 72.4844 396.112 73.0767 396.112 73.7528C396.112 74.429 395.983 75.0199 395.724 75.5256C395.469 76.0312 395.107 76.4247 394.638 76.706C394.169 76.9872 393.615 77.1278 392.976 77.1278ZM392.984 75.892C393.331 75.892 393.621 75.7969 393.854 75.6065C394.087 75.4134 394.26 75.1548 394.374 74.831C394.49 74.5071 394.548 74.1463 394.548 73.7486C394.548 73.348 394.49 72.9858 394.374 72.6619C394.26 72.3352 394.087 72.0753 393.854 71.8821C393.621 71.6889 393.331 71.5923 392.984 71.5923C392.629 71.5923 392.334 71.6889 392.098 71.8821C391.865 72.0753 391.69 72.3352 391.574 72.6619C391.46 72.9858 391.403 73.348 391.403 73.7486C391.403 74.1463 391.46 74.5071 391.574 74.831C391.69 75.1548 391.865 75.4134 392.098 75.6065C392.334 75.7969 392.629 75.892 392.984 75.892ZM397.422 77V70.4545H398.917V71.5455H398.985C399.105 71.1676 399.309 70.8764 399.599 70.6719C399.892 70.4645 400.225 70.3608 400.6 70.3608C400.686 70.3608 400.781 70.3651 400.886 70.3736C400.994 70.3793 401.083 70.3892 401.154 70.4034V71.8224C401.089 71.7997 400.985 71.7798 400.843 71.7628C400.704 71.7429 400.569 71.733 400.439 71.733C400.157 71.733 399.904 71.794 399.68 71.9162C399.458 72.0355 399.284 72.2017 399.156 72.4148C399.028 72.6278 398.964 72.8736 398.964 73.152V77H397.422ZM404.808 77.1278C404.151 77.1278 403.585 76.9915 403.107 76.7188C402.633 76.4432 402.268 76.054 402.012 75.5511C401.756 75.0455 401.629 74.4503 401.629 73.7656C401.629 73.0923 401.756 72.5014 402.012 71.9929C402.271 71.4815 402.631 71.0838 403.094 70.7997C403.558 70.5128 404.102 70.3693 404.727 70.3693C405.13 70.3693 405.511 70.4347 405.869 70.5653C406.229 70.6932 406.548 70.892 406.823 71.1619C407.102 71.4318 407.32 71.7756 407.479 72.1932C407.638 72.608 407.718 73.1023 407.718 73.6761V74.1491H402.353V73.1094H406.239C406.237 72.8139 406.173 72.5511 406.048 72.321C405.923 72.0881 405.748 71.9048 405.523 71.7713C405.302 71.6378 405.043 71.571 404.748 71.571C404.433 71.571 404.156 71.6477 403.917 71.8011C403.678 71.9517 403.492 72.1506 403.359 72.3977C403.228 72.642 403.161 72.9105 403.158 73.2031V74.1108C403.158 74.4915 403.228 74.8182 403.367 75.0909C403.506 75.3608 403.701 75.5682 403.951 75.7131C404.201 75.8551 404.494 75.9261 404.829 75.9261C405.053 75.9261 405.256 75.8949 405.438 75.8324C405.62 75.767 405.778 75.6719 405.911 75.5469C406.045 75.4219 406.146 75.267 406.214 75.0824L407.654 75.2443C407.563 75.625 407.39 75.9574 407.134 76.2415C406.881 76.5227 406.558 76.7415 406.163 76.8977C405.768 77.0511 405.316 77.1278 404.808 77.1278ZM409.023 77V70.4545H410.498V71.5668H410.574C410.711 71.1918 410.936 70.8991 411.252 70.6889C411.567 70.4759 411.944 70.3693 412.381 70.3693C412.824 70.3693 413.198 70.4773 413.502 70.6932C413.809 70.9062 414.025 71.1974 414.15 71.5668H414.218C414.363 71.2031 414.607 70.9134 414.951 70.6974C415.297 70.4787 415.708 70.3693 416.182 70.3693C416.784 70.3693 417.276 70.5597 417.657 70.9403C418.037 71.321 418.228 71.8764 418.228 72.6065V77H416.681V72.8452C416.681 72.4389 416.573 72.142 416.357 71.9545C416.141 71.7642 415.877 71.669 415.564 71.669C415.192 71.669 414.901 71.7855 414.691 72.0185C414.483 72.2486 414.38 72.5483 414.38 72.9176V77H412.867V72.7812C412.867 72.4432 412.765 72.1733 412.56 71.9716C412.358 71.7699 412.094 71.669 411.767 71.669C411.546 71.669 411.344 71.7259 411.162 71.8395C410.98 71.9503 410.836 72.108 410.728 72.3125C410.62 72.5142 410.566 72.75 410.566 73.0199V77H409.023Z"
        fill="#4F4F4F" />
      <path
        d="M431.935 77V68.2727H433.252V75.8665H437.207V77H431.935ZM441.364 77.1321C440.75 77.1321 440.214 76.9915 439.757 76.7102C439.3 76.429 438.945 76.0355 438.692 75.5298C438.439 75.0241 438.312 74.4332 438.312 73.7571C438.312 73.0781 438.439 72.4844 438.692 71.9759C438.945 71.4673 439.3 71.0724 439.757 70.7912C440.214 70.5099 440.75 70.3693 441.364 70.3693C441.977 70.3693 442.513 70.5099 442.97 70.7912C443.428 71.0724 443.783 71.4673 444.036 71.9759C444.288 72.4844 444.415 73.0781 444.415 73.7571C444.415 74.4332 444.288 75.0241 444.036 75.5298C443.783 76.0355 443.428 76.429 442.97 76.7102C442.513 76.9915 441.977 77.1321 441.364 77.1321ZM441.368 76.0625C441.766 76.0625 442.095 75.9574 442.357 75.7472C442.618 75.5369 442.811 75.2571 442.936 74.9077C443.064 74.5582 443.128 74.1733 443.128 73.7528C443.128 73.3352 443.064 72.9517 442.936 72.6023C442.811 72.25 442.618 71.9673 442.357 71.7543C442.095 71.5412 441.766 71.4347 441.368 71.4347C440.967 71.4347 440.635 71.5412 440.371 71.7543C440.109 71.9673 439.915 72.25 439.787 72.6023C439.662 72.9517 439.599 73.3352 439.599 73.7528C439.599 74.1733 439.662 74.5582 439.787 74.9077C439.915 75.2571 440.109 75.5369 440.371 75.7472C440.635 75.9574 440.967 76.0625 441.368 76.0625ZM445.837 77V70.4545H447.069V71.4943H447.137C447.256 71.142 447.466 70.8651 447.767 70.6634C448.071 70.4588 448.415 70.3565 448.799 70.3565C448.878 70.3565 448.972 70.3594 449.08 70.3651C449.191 70.3707 449.277 70.3778 449.34 70.3864V71.6051C449.289 71.5909 449.198 71.5753 449.067 71.5582C448.936 71.5384 448.806 71.5284 448.675 71.5284C448.374 71.5284 448.105 71.5923 447.87 71.7202C447.637 71.8452 447.452 72.0199 447.316 72.2443C447.179 72.4659 447.111 72.7187 447.111 73.0028V77H445.837ZM453.029 77.1321C452.384 77.1321 451.829 76.9943 451.363 76.7188C450.9 76.4403 450.542 76.0497 450.289 75.5469C450.039 75.0412 449.914 74.4489 449.914 73.7699C449.914 73.0994 450.039 72.5085 450.289 71.9972C450.542 71.4858 450.894 71.0866 451.346 70.7997C451.8 70.5128 452.332 70.3693 452.94 70.3693C453.309 70.3693 453.667 70.4304 454.013 70.5526C454.36 70.6747 454.671 70.8665 454.947 71.1278C455.222 71.3892 455.44 71.7287 455.599 72.1463C455.758 72.5611 455.837 73.0653 455.837 73.6591V74.1108H450.634V73.1562H454.589C454.589 72.821 454.521 72.5241 454.384 72.2656C454.248 72.0043 454.056 71.7983 453.809 71.6477C453.565 71.4972 453.278 71.4219 452.948 71.4219C452.59 71.4219 452.278 71.5099 452.011 71.6861C451.746 71.8594 451.542 72.0866 451.397 72.3679C451.255 72.6463 451.184 72.9489 451.184 73.2756V74.0213C451.184 74.4588 451.261 74.831 451.414 75.1378C451.57 75.4446 451.788 75.679 452.066 75.8409C452.344 76 452.67 76.0795 453.042 76.0795C453.283 76.0795 453.504 76.0455 453.702 75.9773C453.901 75.9062 454.073 75.8011 454.218 75.6619C454.363 75.5227 454.474 75.3509 454.55 75.1463L455.756 75.3636C455.66 75.7187 455.487 76.0298 455.237 76.2969C454.989 76.5611 454.678 76.767 454.303 76.9148C453.931 77.0597 453.506 77.1321 453.029 77.1321ZM457.251 77V70.4545H458.474V71.5199H458.555C458.691 71.1591 458.914 70.8778 459.224 70.6761C459.534 70.4716 459.904 70.3693 460.336 70.3693C460.774 70.3693 461.14 70.4716 461.436 70.6761C461.734 70.8807 461.954 71.1619 462.096 71.5199H462.164C462.321 71.1705 462.569 70.892 462.91 70.6847C463.251 70.4744 463.657 70.3693 464.129 70.3693C464.723 70.3693 465.207 70.5554 465.582 70.9276C465.96 71.2997 466.149 71.8608 466.149 72.6108V77H464.875V72.7301C464.875 72.2869 464.754 71.9659 464.512 71.767C464.271 71.5682 463.983 71.4688 463.647 71.4688C463.233 71.4688 462.91 71.5966 462.68 71.8523C462.45 72.1051 462.335 72.4304 462.335 72.8281V77H461.065V72.6491C461.065 72.294 460.954 72.0085 460.733 71.7926C460.511 71.5767 460.223 71.4688 459.868 71.4688C459.626 71.4688 459.403 71.5327 459.199 71.6605C458.997 71.7855 458.833 71.9602 458.708 72.1847C458.586 72.4091 458.525 72.669 458.525 72.9645V77H457.251Z"
        fill="#979797" />
      <rect x="297" y="130" width="140" height="10" rx="5" fill="#EFF3F9" />
      <rect x="297" y="130" width="13" height="10" rx="5" fill="url(#paint0_linear_1353_5878)" />
      <path
        d="M297.959 119V110.273H299.276V117.866H303.23V119H297.959ZM307.387 119.132C306.773 119.132 306.238 118.991 305.781 118.71C305.323 118.429 304.968 118.036 304.715 117.53C304.462 117.024 304.336 116.433 304.336 115.757C304.336 115.078 304.462 114.484 304.715 113.976C304.968 113.467 305.323 113.072 305.781 112.791C306.238 112.51 306.773 112.369 307.387 112.369C308.001 112.369 308.536 112.51 308.994 112.791C309.451 113.072 309.806 113.467 310.059 113.976C310.312 114.484 310.438 115.078 310.438 115.757C310.438 116.433 310.312 117.024 310.059 117.53C309.806 118.036 309.451 118.429 308.994 118.71C308.536 118.991 308.001 119.132 307.387 119.132ZM307.391 118.062C307.789 118.062 308.119 117.957 308.38 117.747C308.641 117.537 308.835 117.257 308.96 116.908C309.087 116.558 309.151 116.173 309.151 115.753C309.151 115.335 309.087 114.952 308.96 114.602C308.835 114.25 308.641 113.967 308.38 113.754C308.119 113.541 307.789 113.435 307.391 113.435C306.991 113.435 306.658 113.541 306.394 113.754C306.133 113.967 305.938 114.25 305.81 114.602C305.685 114.952 305.623 115.335 305.623 115.753C305.623 116.173 305.685 116.558 305.81 116.908C305.938 117.257 306.133 117.537 306.394 117.747C306.658 117.957 306.991 118.062 307.391 118.062ZM311.86 119V112.455H313.092V113.494H313.16C313.279 113.142 313.49 112.865 313.791 112.663C314.095 112.459 314.439 112.357 314.822 112.357C314.902 112.357 314.995 112.359 315.103 112.365C315.214 112.371 315.301 112.378 315.363 112.386V113.605C315.312 113.591 315.221 113.575 315.091 113.558C314.96 113.538 314.829 113.528 314.699 113.528C314.397 113.528 314.129 113.592 313.893 113.72C313.66 113.845 313.475 114.02 313.339 114.244C313.203 114.466 313.135 114.719 313.135 115.003V119H311.86ZM319.053 119.132C318.408 119.132 317.852 118.994 317.386 118.719C316.923 118.44 316.565 118.05 316.312 117.547C316.062 117.041 315.938 116.449 315.938 115.77C315.938 115.099 316.062 114.509 316.312 113.997C316.565 113.486 316.918 113.087 317.369 112.8C317.824 112.513 318.355 112.369 318.963 112.369C319.332 112.369 319.69 112.43 320.037 112.553C320.384 112.675 320.695 112.866 320.97 113.128C321.246 113.389 321.463 113.729 321.622 114.146C321.781 114.561 321.861 115.065 321.861 115.659V116.111H316.658V115.156H320.612C320.612 114.821 320.544 114.524 320.408 114.266C320.271 114.004 320.08 113.798 319.832 113.648C319.588 113.497 319.301 113.422 318.972 113.422C318.614 113.422 318.301 113.51 318.034 113.686C317.77 113.859 317.565 114.087 317.42 114.368C317.278 114.646 317.207 114.949 317.207 115.276V116.021C317.207 116.459 317.284 116.831 317.438 117.138C317.594 117.445 317.811 117.679 318.089 117.841C318.368 118 318.693 118.08 319.065 118.08C319.307 118.08 319.527 118.045 319.726 117.977C319.925 117.906 320.097 117.801 320.241 117.662C320.386 117.523 320.497 117.351 320.574 117.146L321.78 117.364C321.683 117.719 321.51 118.03 321.26 118.297C321.013 118.561 320.702 118.767 320.327 118.915C319.955 119.06 319.53 119.132 319.053 119.132ZM323.275 119V112.455H324.498V113.52H324.578C324.715 113.159 324.938 112.878 325.248 112.676C325.557 112.472 325.928 112.369 326.36 112.369C326.797 112.369 327.164 112.472 327.459 112.676C327.757 112.881 327.978 113.162 328.12 113.52H328.188C328.344 113.17 328.593 112.892 328.934 112.685C329.275 112.474 329.681 112.369 330.152 112.369C330.746 112.369 331.23 112.555 331.605 112.928C331.983 113.3 332.172 113.861 332.172 114.611V119H330.898V114.73C330.898 114.287 330.777 113.966 330.536 113.767C330.294 113.568 330.006 113.469 329.671 113.469C329.256 113.469 328.934 113.597 328.703 113.852C328.473 114.105 328.358 114.43 328.358 114.828V119H327.088V114.649C327.088 114.294 326.978 114.009 326.756 113.793C326.534 113.577 326.246 113.469 325.891 113.469C325.65 113.469 325.426 113.533 325.222 113.661C325.02 113.786 324.857 113.96 324.732 114.185C324.61 114.409 324.549 114.669 324.549 114.964V119H323.275Z"
        fill="#4F4F4F" />
      <path
        d="M436.065 119.145C435.392 119.142 434.817 118.964 434.339 118.612C433.862 118.26 433.497 117.747 433.244 117.074C432.991 116.401 432.865 115.589 432.865 114.641C432.865 113.695 432.991 112.886 433.244 112.216C433.5 111.545 433.866 111.034 434.344 110.682C434.824 110.33 435.398 110.153 436.065 110.153C436.733 110.153 437.305 110.331 437.783 110.686C438.26 111.038 438.625 111.55 438.878 112.22C439.134 112.888 439.261 113.695 439.261 114.641C439.261 115.592 439.135 116.405 438.882 117.078C438.629 117.749 438.264 118.261 437.787 118.616C437.31 118.969 436.736 119.145 436.065 119.145ZM436.065 118.007C436.656 118.007 437.118 117.719 437.45 117.142C437.786 116.565 437.953 115.732 437.953 114.641C437.953 113.916 437.876 113.304 437.723 112.804C437.572 112.301 437.355 111.92 437.071 111.662C436.79 111.401 436.455 111.27 436.065 111.27C435.477 111.27 435.016 111.56 434.68 112.139C434.345 112.719 434.176 113.553 434.173 114.641C434.173 115.368 434.249 115.983 434.399 116.486C434.553 116.986 434.77 117.365 435.051 117.624C435.332 117.879 435.67 118.007 436.065 118.007ZM442.131 117.807L442.067 118.271C442.025 118.612 441.952 118.967 441.85 119.337C441.751 119.709 441.647 120.054 441.539 120.372C441.434 120.69 441.347 120.943 441.279 121.131H440.376C440.413 120.955 440.464 120.716 440.529 120.415C440.594 120.116 440.658 119.783 440.721 119.413C440.783 119.044 440.83 118.668 440.862 118.284L440.904 117.807H442.131ZM443.914 119V118.045L446.867 114.986C447.182 114.653 447.442 114.362 447.647 114.112C447.854 113.859 448.009 113.619 448.111 113.392C448.213 113.165 448.265 112.923 448.265 112.668C448.265 112.378 448.196 112.128 448.06 111.918C447.924 111.705 447.738 111.541 447.502 111.428C447.266 111.311 447 111.253 446.705 111.253C446.392 111.253 446.12 111.317 445.887 111.445C445.654 111.572 445.475 111.753 445.35 111.986C445.225 112.219 445.162 112.491 445.162 112.804H443.905C443.905 112.273 444.027 111.808 444.272 111.411C444.516 111.013 444.851 110.705 445.277 110.486C445.703 110.264 446.188 110.153 446.73 110.153C447.279 110.153 447.762 110.263 448.179 110.482C448.6 110.697 448.928 110.993 449.164 111.368C449.4 111.74 449.517 112.161 449.517 112.629C449.517 112.953 449.456 113.27 449.334 113.58C449.215 113.889 449.006 114.234 448.708 114.615C448.409 114.993 447.995 115.452 447.463 115.991L445.729 117.807V117.871H449.658V119H443.914ZM454.32 119.119C453.931 119.114 453.547 119.043 453.169 118.906C452.794 118.77 452.453 118.543 452.147 118.224C451.84 117.906 451.594 117.479 451.409 116.942C451.228 116.405 451.137 115.734 451.137 114.93C451.137 114.169 451.212 113.493 451.363 112.902C451.516 112.311 451.736 111.812 452.023 111.406C452.31 110.997 452.657 110.686 453.063 110.473C453.469 110.26 453.925 110.153 454.431 110.153C454.951 110.153 455.412 110.256 455.816 110.46C456.219 110.665 456.546 110.947 456.796 111.308C457.049 111.669 457.209 112.08 457.277 112.54H455.978C455.89 112.176 455.715 111.879 455.453 111.649C455.192 111.419 454.851 111.304 454.431 111.304C453.792 111.304 453.293 111.582 452.935 112.139C452.58 112.696 452.401 113.47 452.398 114.462H452.462C452.613 114.214 452.797 114.004 453.016 113.831C453.238 113.655 453.485 113.52 453.757 113.426C454.033 113.33 454.323 113.281 454.627 113.281C455.132 113.281 455.59 113.405 455.999 113.652C456.411 113.896 456.739 114.234 456.983 114.666C457.228 115.098 457.35 115.592 457.35 116.149C457.35 116.706 457.223 117.21 456.971 117.662C456.721 118.114 456.368 118.472 455.914 118.736C455.459 118.997 454.928 119.125 454.32 119.119ZM454.316 118.011C454.651 118.011 454.951 117.929 455.215 117.764C455.479 117.599 455.688 117.378 455.841 117.099C455.995 116.821 456.071 116.51 456.071 116.166C456.071 115.831 455.996 115.526 455.846 115.25C455.698 114.974 455.493 114.756 455.232 114.594C454.973 114.432 454.678 114.351 454.346 114.351C454.093 114.351 453.858 114.399 453.642 114.496C453.429 114.592 453.242 114.726 453.08 114.896C452.918 115.067 452.79 115.263 452.696 115.484C452.605 115.703 452.56 115.935 452.56 116.179C452.56 116.506 452.635 116.808 452.786 117.087C452.939 117.365 453.148 117.589 453.412 117.76C453.679 117.928 453.98 118.011 454.316 118.011ZM463.457 117.364V116.903C463.457 116.574 463.526 116.273 463.662 116C463.801 115.724 464.003 115.504 464.267 115.339C464.534 115.172 464.857 115.088 465.234 115.088C465.621 115.088 465.945 115.17 466.206 115.335C466.467 115.5 466.665 115.72 466.798 115.996C466.935 116.271 467.003 116.574 467.003 116.903V117.364C467.003 117.693 466.935 117.996 466.798 118.271C466.662 118.544 466.462 118.764 466.197 118.932C465.936 119.097 465.615 119.179 465.234 119.179C464.851 119.179 464.527 119.097 464.263 118.932C463.999 118.764 463.798 118.544 463.662 118.271C463.526 117.996 463.457 117.693 463.457 117.364ZM464.45 116.903V117.364C464.45 117.608 464.509 117.83 464.625 118.028C464.741 118.227 464.945 118.327 465.234 118.327C465.521 118.327 465.722 118.227 465.835 118.028C465.949 117.83 466.006 117.608 466.006 117.364V116.903C466.006 116.659 465.95 116.437 465.839 116.239C465.732 116.04 465.53 115.94 465.234 115.94C464.95 115.94 464.749 116.04 464.629 116.239C464.51 116.437 464.45 116.659 464.45 116.903ZM459.068 112.369V111.909C459.068 111.58 459.136 111.277 459.273 111.001C459.412 110.726 459.614 110.506 459.878 110.341C460.145 110.176 460.467 110.094 460.845 110.094C461.232 110.094 461.555 110.176 461.817 110.341C462.078 110.506 462.276 110.726 462.409 111.001C462.543 111.277 462.609 111.58 462.609 111.909V112.369C462.609 112.699 462.541 113.001 462.405 113.277C462.271 113.55 462.072 113.77 461.808 113.938C461.547 114.102 461.226 114.185 460.845 114.185C460.459 114.185 460.134 114.102 459.869 113.938C459.608 113.77 459.409 113.55 459.273 113.277C459.136 113.001 459.068 112.699 459.068 112.369ZM460.065 111.909V112.369C460.065 112.614 460.122 112.835 460.236 113.034C460.352 113.233 460.555 113.332 460.845 113.332C461.129 113.332 461.328 113.233 461.442 113.034C461.558 112.835 461.616 112.614 461.616 112.369V111.909C461.616 111.665 461.561 111.443 461.45 111.244C461.339 111.045 461.138 110.946 460.845 110.946C460.561 110.946 460.359 111.045 460.24 111.244C460.124 111.443 460.065 111.665 460.065 111.909ZM459.473 119L465.473 110.273H466.491L460.491 119H459.473Z"
        fill="#979797" />
      <rect x="75" y="185" width="140" height="10" rx="5" fill="#EFF3F9" />
      <rect x="75" y="185" width="5" height="10" rx="2.5" fill="url(#paint1_linear_1353_5878)" />
      <path
        d="M75.9588 173V164.273H77.2756V171.866H81.2301V173H75.9588ZM85.3871 173.132C84.7734 173.132 84.2379 172.991 83.7805 172.71C83.3232 172.429 82.968 172.036 82.7152 171.53C82.4624 171.024 82.3359 170.433 82.3359 169.757C82.3359 169.078 82.4624 168.484 82.7152 167.976C82.968 167.467 83.3232 167.072 83.7805 166.791C84.2379 166.51 84.7734 166.369 85.3871 166.369C86.0007 166.369 86.5362 166.51 86.9936 166.791C87.451 167.072 87.8061 167.467 88.0589 167.976C88.3118 168.484 88.4382 169.078 88.4382 169.757C88.4382 170.433 88.3118 171.024 88.0589 171.53C87.8061 172.036 87.451 172.429 86.9936 172.71C86.5362 172.991 86.0007 173.132 85.3871 173.132ZM85.3913 172.062C85.7891 172.062 86.1186 171.957 86.38 171.747C86.6413 171.537 86.8345 171.257 86.9595 170.908C87.0874 170.558 87.1513 170.173 87.1513 169.753C87.1513 169.335 87.0874 168.952 86.9595 168.602C86.8345 168.25 86.6413 167.967 86.38 167.754C86.1186 167.541 85.7891 167.435 85.3913 167.435C84.9908 167.435 84.6584 167.541 84.3942 167.754C84.1328 167.967 83.9382 168.25 83.8104 168.602C83.6854 168.952 83.6229 169.335 83.6229 169.753C83.6229 170.173 83.6854 170.558 83.8104 170.908C83.9382 171.257 84.1328 171.537 84.3942 171.747C84.6584 171.957 84.9908 172.062 85.3913 172.062ZM89.8604 173V166.455H91.092V167.494H91.1602C91.2795 167.142 91.4897 166.865 91.7908 166.663C92.0948 166.459 92.4386 166.357 92.8221 166.357C92.9016 166.357 92.9954 166.359 93.1033 166.365C93.2141 166.371 93.3008 166.378 93.3633 166.386V167.605C93.3121 167.591 93.2212 167.575 93.0906 167.558C92.9599 167.538 92.8292 167.528 92.6985 167.528C92.3974 167.528 92.1289 167.592 91.8931 167.72C91.6602 167.845 91.4755 168.02 91.3391 168.244C91.2028 168.466 91.1346 168.719 91.1346 169.003V173H89.8604ZM97.0526 173.132C96.4077 173.132 95.8523 172.994 95.3864 172.719C94.9233 172.44 94.5653 172.05 94.3125 171.547C94.0625 171.041 93.9375 170.449 93.9375 169.77C93.9375 169.099 94.0625 168.509 94.3125 167.997C94.5653 167.486 94.9176 167.087 95.3693 166.8C95.8239 166.513 96.3551 166.369 96.9631 166.369C97.3324 166.369 97.6903 166.43 98.0369 166.553C98.3835 166.675 98.6946 166.866 98.9702 167.128C99.2457 167.389 99.4631 167.729 99.6222 168.146C99.7813 168.561 99.8608 169.065 99.8608 169.659V170.111H94.6577V169.156H98.6122C98.6122 168.821 98.544 168.524 98.4077 168.266C98.2713 168.004 98.0795 167.798 97.8324 167.648C97.5881 167.497 97.3011 167.422 96.9716 167.422C96.6136 167.422 96.3011 167.51 96.0341 167.686C95.7699 167.859 95.5653 168.087 95.4205 168.368C95.2784 168.646 95.2074 168.949 95.2074 169.276V170.021C95.2074 170.459 95.2841 170.831 95.4375 171.138C95.5938 171.445 95.8111 171.679 96.0895 171.841C96.3679 172 96.6932 172.08 97.0653 172.08C97.3068 172.08 97.527 172.045 97.7259 171.977C97.9247 171.906 98.0966 171.801 98.2415 171.662C98.3864 171.523 98.4972 171.351 98.5739 171.146L99.7798 171.364C99.6832 171.719 99.5099 172.03 99.2599 172.297C99.0128 172.561 98.7017 172.767 98.3267 172.915C97.9545 173.06 97.5298 173.132 97.0526 173.132ZM101.275 173V166.455H102.498V167.52H102.578C102.715 167.159 102.938 166.878 103.248 166.676C103.557 166.472 103.928 166.369 104.36 166.369C104.797 166.369 105.164 166.472 105.459 166.676C105.757 166.881 105.978 167.162 106.12 167.52H106.188C106.344 167.17 106.593 166.892 106.934 166.685C107.275 166.474 107.681 166.369 108.152 166.369C108.746 166.369 109.23 166.555 109.605 166.928C109.983 167.3 110.172 167.861 110.172 168.611V173H108.898V168.73C108.898 168.287 108.777 167.966 108.536 167.767C108.294 167.568 108.006 167.469 107.671 167.469C107.256 167.469 106.934 167.597 106.703 167.852C106.473 168.105 106.358 168.43 106.358 168.828V173H105.088V168.649C105.088 168.294 104.978 168.009 104.756 167.793C104.534 167.577 104.246 167.469 103.891 167.469C103.65 167.469 103.426 167.533 103.222 167.661C103.02 167.786 102.857 167.96 102.732 168.185C102.61 168.409 102.549 168.669 102.549 168.964V173H101.275Z"
        fill="#4F4F4F" />
      <path
        d="M197.948 173.145C197.275 173.142 196.7 172.964 196.222 172.612C195.745 172.26 195.38 171.747 195.127 171.074C194.874 170.401 194.748 169.589 194.748 168.641C194.748 167.695 194.874 166.886 195.127 166.216C195.383 165.545 195.749 165.034 196.227 164.682C196.707 164.33 197.281 164.153 197.948 164.153C198.616 164.153 199.188 164.331 199.665 164.686C200.143 165.038 200.508 165.55 200.761 166.22C201.016 166.888 201.144 167.695 201.144 168.641C201.144 169.592 201.018 170.405 200.765 171.078C200.512 171.749 200.147 172.261 199.67 172.616C199.192 172.969 198.619 173.145 197.948 173.145ZM197.948 172.007C198.539 172.007 199.001 171.719 199.333 171.142C199.668 170.565 199.836 169.732 199.836 168.641C199.836 167.916 199.759 167.304 199.606 166.804C199.455 166.301 199.238 165.92 198.954 165.662C198.673 165.401 198.337 165.27 197.948 165.27C197.36 165.27 196.898 165.56 196.563 166.139C196.228 166.719 196.059 167.553 196.056 168.641C196.056 169.368 196.131 169.983 196.282 170.486C196.435 170.986 196.653 171.365 196.934 171.624C197.215 171.879 197.553 172.007 197.948 172.007ZM204.014 171.807L203.95 172.271C203.908 172.612 203.835 172.967 203.733 173.337C203.634 173.709 203.53 174.054 203.422 174.372C203.317 174.69 203.23 174.943 203.162 175.131H202.259C202.295 174.955 202.347 174.716 202.412 174.415C202.477 174.116 202.541 173.783 202.604 173.413C202.666 173.044 202.713 172.668 202.744 172.284L202.787 171.807H204.014ZM205.797 173V172.045L208.75 168.986C209.065 168.653 209.325 168.362 209.529 168.112C209.737 167.859 209.892 167.619 209.994 167.392C210.096 167.165 210.147 166.923 210.147 166.668C210.147 166.378 210.079 166.128 209.943 165.918C209.806 165.705 209.62 165.541 209.385 165.428C209.149 165.311 208.883 165.253 208.588 165.253C208.275 165.253 208.002 165.317 207.77 165.445C207.537 165.572 207.358 165.753 207.233 165.986C207.108 166.219 207.045 166.491 207.045 166.804H205.788C205.788 166.273 205.91 165.808 206.154 165.411C206.399 165.013 206.734 164.705 207.16 164.486C207.586 164.264 208.071 164.153 208.613 164.153C209.162 164.153 209.645 164.263 210.062 164.482C210.483 164.697 210.811 164.993 211.047 165.368C211.282 165.74 211.4 166.161 211.4 166.629C211.4 166.953 211.339 167.27 211.217 167.58C211.098 167.889 210.889 168.234 210.591 168.615C210.292 168.993 209.877 169.452 209.346 169.991L207.612 171.807V171.871H211.541V173H205.797ZM216.194 173.145C215.521 173.142 214.946 172.964 214.468 172.612C213.991 172.26 213.626 171.747 213.373 171.074C213.12 170.401 212.994 169.589 212.994 168.641C212.994 167.695 213.12 166.886 213.373 166.216C213.629 165.545 213.995 165.034 214.473 164.682C214.953 164.33 215.527 164.153 216.194 164.153C216.862 164.153 217.434 164.331 217.912 164.686C218.389 165.038 218.754 165.55 219.007 166.22C219.262 166.888 219.39 167.695 219.39 168.641C219.39 169.592 219.264 170.405 219.011 171.078C218.758 171.749 218.393 172.261 217.916 172.616C217.439 172.969 216.865 173.145 216.194 173.145ZM216.194 172.007C216.785 172.007 217.247 171.719 217.579 171.142C217.914 170.565 218.082 169.732 218.082 168.641C218.082 167.916 218.005 167.304 217.852 166.804C217.701 166.301 217.484 165.92 217.2 165.662C216.919 165.401 216.583 165.27 216.194 165.27C215.606 165.27 215.145 165.56 214.809 166.139C214.474 166.719 214.305 167.553 214.302 168.641C214.302 169.368 214.377 169.983 214.528 170.486C214.681 170.986 214.899 171.365 215.18 171.624C215.461 171.879 215.799 172.007 216.194 172.007ZM225.457 171.364V170.903C225.457 170.574 225.526 170.273 225.662 170C225.801 169.724 226.003 169.504 226.267 169.339C226.534 169.172 226.857 169.088 227.234 169.088C227.621 169.088 227.945 169.17 228.206 169.335C228.467 169.5 228.665 169.72 228.798 169.996C228.935 170.271 229.003 170.574 229.003 170.903V171.364C229.003 171.693 228.935 171.996 228.798 172.271C228.662 172.544 228.462 172.764 228.197 172.932C227.936 173.097 227.615 173.179 227.234 173.179C226.851 173.179 226.527 173.097 226.263 172.932C225.999 172.764 225.798 172.544 225.662 172.271C225.526 171.996 225.457 171.693 225.457 171.364ZM226.45 170.903V171.364C226.45 171.608 226.509 171.83 226.625 172.028C226.741 172.227 226.945 172.327 227.234 172.327C227.521 172.327 227.722 172.227 227.835 172.028C227.949 171.83 228.006 171.608 228.006 171.364V170.903C228.006 170.659 227.95 170.437 227.839 170.239C227.732 170.04 227.53 169.94 227.234 169.94C226.95 169.94 226.749 170.04 226.629 170.239C226.51 170.437 226.45 170.659 226.45 170.903ZM221.068 166.369V165.909C221.068 165.58 221.136 165.277 221.273 165.001C221.412 164.726 221.614 164.506 221.878 164.341C222.145 164.176 222.467 164.094 222.845 164.094C223.232 164.094 223.555 164.176 223.817 164.341C224.078 164.506 224.276 164.726 224.409 165.001C224.543 165.277 224.609 165.58 224.609 165.909V166.369C224.609 166.699 224.541 167.001 224.405 167.277C224.271 167.55 224.072 167.77 223.808 167.938C223.547 168.102 223.226 168.185 222.845 168.185C222.459 168.185 222.134 168.102 221.869 167.938C221.608 167.77 221.409 167.55 221.273 167.277C221.136 167.001 221.068 166.699 221.068 166.369ZM222.065 165.909V166.369C222.065 166.614 222.122 166.835 222.236 167.034C222.352 167.233 222.555 167.332 222.845 167.332C223.129 167.332 223.328 167.233 223.442 167.034C223.558 166.835 223.616 166.614 223.616 166.369V165.909C223.616 165.665 223.561 165.443 223.45 165.244C223.339 165.045 223.138 164.946 222.845 164.946C222.561 164.946 222.359 165.045 222.24 165.244C222.124 165.443 222.065 165.665 222.065 165.909ZM221.473 173L227.473 164.273H228.491L222.491 173H221.473Z"
        fill="#979797" />
      <rect x="75" y="131" width="140" height="10" rx="5" fill="#EFF3F9" />
      <rect x="75" y="131" width="128" height="10" rx="5" fill="url(#paint2_linear_1353_5878)" />
      <path
        d="M75.9588 119V110.273H77.2756V117.866H81.2301V119H75.9588ZM85.3871 119.132C84.7734 119.132 84.2379 118.991 83.7805 118.71C83.3232 118.429 82.968 118.036 82.7152 117.53C82.4624 117.024 82.3359 116.433 82.3359 115.757C82.3359 115.078 82.4624 114.484 82.7152 113.976C82.968 113.467 83.3232 113.072 83.7805 112.791C84.2379 112.51 84.7734 112.369 85.3871 112.369C86.0007 112.369 86.5362 112.51 86.9936 112.791C87.451 113.072 87.8061 113.467 88.0589 113.976C88.3118 114.484 88.4382 115.078 88.4382 115.757C88.4382 116.433 88.3118 117.024 88.0589 117.53C87.8061 118.036 87.451 118.429 86.9936 118.71C86.5362 118.991 86.0007 119.132 85.3871 119.132ZM85.3913 118.062C85.7891 118.062 86.1186 117.957 86.38 117.747C86.6413 117.537 86.8345 117.257 86.9595 116.908C87.0874 116.558 87.1513 116.173 87.1513 115.753C87.1513 115.335 87.0874 114.952 86.9595 114.602C86.8345 114.25 86.6413 113.967 86.38 113.754C86.1186 113.541 85.7891 113.435 85.3913 113.435C84.9908 113.435 84.6584 113.541 84.3942 113.754C84.1328 113.967 83.9382 114.25 83.8104 114.602C83.6854 114.952 83.6229 115.335 83.6229 115.753C83.6229 116.173 83.6854 116.558 83.8104 116.908C83.9382 117.257 84.1328 117.537 84.3942 117.747C84.6584 117.957 84.9908 118.062 85.3913 118.062ZM89.8604 119V112.455H91.092V113.494H91.1602C91.2795 113.142 91.4897 112.865 91.7908 112.663C92.0948 112.459 92.4386 112.357 92.8221 112.357C92.9016 112.357 92.9954 112.359 93.1033 112.365C93.2141 112.371 93.3008 112.378 93.3633 112.386V113.605C93.3121 113.591 93.2212 113.575 93.0906 113.558C92.9599 113.538 92.8292 113.528 92.6985 113.528C92.3974 113.528 92.1289 113.592 91.8931 113.72C91.6602 113.845 91.4755 114.02 91.3391 114.244C91.2028 114.466 91.1346 114.719 91.1346 115.003V119H89.8604ZM97.0526 119.132C96.4077 119.132 95.8523 118.994 95.3864 118.719C94.9233 118.44 94.5653 118.05 94.3125 117.547C94.0625 117.041 93.9375 116.449 93.9375 115.77C93.9375 115.099 94.0625 114.509 94.3125 113.997C94.5653 113.486 94.9176 113.087 95.3693 112.8C95.8239 112.513 96.3551 112.369 96.9631 112.369C97.3324 112.369 97.6903 112.43 98.0369 112.553C98.3835 112.675 98.6946 112.866 98.9702 113.128C99.2457 113.389 99.4631 113.729 99.6222 114.146C99.7813 114.561 99.8608 115.065 99.8608 115.659V116.111H94.6577V115.156H98.6122C98.6122 114.821 98.544 114.524 98.4077 114.266C98.2713 114.004 98.0795 113.798 97.8324 113.648C97.5881 113.497 97.3011 113.422 96.9716 113.422C96.6136 113.422 96.3011 113.51 96.0341 113.686C95.7699 113.859 95.5653 114.087 95.4205 114.368C95.2784 114.646 95.2074 114.949 95.2074 115.276V116.021C95.2074 116.459 95.2841 116.831 95.4375 117.138C95.5938 117.445 95.8111 117.679 96.0895 117.841C96.3679 118 96.6932 118.08 97.0653 118.08C97.3068 118.08 97.527 118.045 97.7259 117.977C97.9247 117.906 98.0966 117.801 98.2415 117.662C98.3864 117.523 98.4972 117.351 98.5739 117.146L99.7798 117.364C99.6832 117.719 99.5099 118.03 99.2599 118.297C99.0128 118.561 98.7017 118.767 98.3267 118.915C97.9545 119.06 97.5298 119.132 97.0526 119.132ZM101.275 119V112.455H102.498V113.52H102.578C102.715 113.159 102.938 112.878 103.248 112.676C103.557 112.472 103.928 112.369 104.36 112.369C104.797 112.369 105.164 112.472 105.459 112.676C105.757 112.881 105.978 113.162 106.12 113.52H106.188C106.344 113.17 106.593 112.892 106.934 112.685C107.275 112.474 107.681 112.369 108.152 112.369C108.746 112.369 109.23 112.555 109.605 112.928C109.983 113.3 110.172 113.861 110.172 114.611V119H108.898V114.73C108.898 114.287 108.777 113.966 108.536 113.767C108.294 113.568 108.006 113.469 107.671 113.469C107.256 113.469 106.934 113.597 106.703 113.852C106.473 114.105 106.358 114.43 106.358 114.828V119H105.088V114.649C105.088 114.294 104.978 114.009 104.756 113.793C104.534 113.577 104.246 113.469 103.891 113.469C103.65 113.469 103.426 113.533 103.222 113.661C103.02 113.786 102.857 113.96 102.732 114.185C102.61 114.409 102.549 114.669 102.549 114.964V119H101.275Z"
        fill="#4F4F4F" />
      <path
        d="M208.324 110.153C208.713 110.156 209.096 110.227 209.474 110.366C209.852 110.506 210.193 110.733 210.497 111.048C210.804 111.364 211.048 111.79 211.23 112.327C211.414 112.861 211.508 113.526 211.511 114.321C211.511 115.085 211.434 115.766 211.281 116.362C211.127 116.956 210.907 117.457 210.62 117.866C210.336 118.276 209.991 118.587 209.585 118.8C209.179 119.013 208.721 119.119 208.213 119.119C207.693 119.119 207.231 119.017 206.828 118.812C206.424 118.608 206.096 118.325 205.843 117.964C205.591 117.601 205.433 117.183 205.37 116.712H206.67C206.755 117.087 206.929 117.391 207.19 117.624C207.454 117.854 207.795 117.969 208.213 117.969C208.852 117.969 209.35 117.69 209.708 117.134C210.066 116.574 210.247 115.793 210.25 114.79H210.181C210.034 115.034 209.849 115.244 209.627 115.42C209.409 115.597 209.163 115.733 208.89 115.83C208.618 115.926 208.326 115.974 208.017 115.974C207.514 115.974 207.056 115.851 206.645 115.604C206.233 115.357 205.904 115.017 205.66 114.585C205.416 114.153 205.294 113.661 205.294 113.107C205.294 112.555 205.419 112.055 205.669 111.607C205.922 111.158 206.274 110.803 206.725 110.541C207.18 110.277 207.713 110.148 208.324 110.153ZM208.328 111.261C207.995 111.261 207.696 111.344 207.429 111.509C207.164 111.67 206.956 111.891 206.802 112.169C206.649 112.445 206.572 112.751 206.572 113.089C206.572 113.428 206.646 113.734 206.794 114.01C206.944 114.283 207.149 114.5 207.407 114.662C207.669 114.821 207.967 114.901 208.302 114.901C208.552 114.901 208.785 114.852 209.001 114.756C209.217 114.659 209.406 114.526 209.568 114.355C209.73 114.182 209.856 113.986 209.947 113.767C210.038 113.548 210.083 113.318 210.083 113.077C210.083 112.756 210.007 112.457 209.853 112.182C209.703 111.906 209.495 111.685 209.231 111.517C208.967 111.347 208.666 111.261 208.328 111.261ZM212.867 117.295V116.23L216.638 110.273H217.478V111.841H216.945L214.248 116.111V116.179H219.417V117.295H212.867ZM217.005 119V116.972L217.013 116.486V110.273H218.262V119H217.005ZM225.457 117.364V116.903C225.457 116.574 225.526 116.273 225.662 116C225.801 115.724 226.003 115.504 226.267 115.339C226.534 115.172 226.857 115.088 227.234 115.088C227.621 115.088 227.945 115.17 228.206 115.335C228.467 115.5 228.665 115.72 228.798 115.996C228.935 116.271 229.003 116.574 229.003 116.903V117.364C229.003 117.693 228.935 117.996 228.798 118.271C228.662 118.544 228.462 118.764 228.197 118.932C227.936 119.097 227.615 119.179 227.234 119.179C226.851 119.179 226.527 119.097 226.263 118.932C225.999 118.764 225.798 118.544 225.662 118.271C225.526 117.996 225.457 117.693 225.457 117.364ZM226.45 116.903V117.364C226.45 117.608 226.509 117.83 226.625 118.028C226.741 118.227 226.945 118.327 227.234 118.327C227.521 118.327 227.722 118.227 227.835 118.028C227.949 117.83 228.006 117.608 228.006 117.364V116.903C228.006 116.659 227.95 116.437 227.839 116.239C227.732 116.04 227.53 115.94 227.234 115.94C226.95 115.94 226.749 116.04 226.629 116.239C226.51 116.437 226.45 116.659 226.45 116.903ZM221.068 112.369V111.909C221.068 111.58 221.136 111.277 221.273 111.001C221.412 110.726 221.614 110.506 221.878 110.341C222.145 110.176 222.467 110.094 222.845 110.094C223.232 110.094 223.555 110.176 223.817 110.341C224.078 110.506 224.276 110.726 224.409 111.001C224.543 111.277 224.609 111.58 224.609 111.909V112.369C224.609 112.699 224.541 113.001 224.405 113.277C224.271 113.55 224.072 113.77 223.808 113.938C223.547 114.102 223.226 114.185 222.845 114.185C222.459 114.185 222.134 114.102 221.869 113.938C221.608 113.77 221.409 113.55 221.273 113.277C221.136 113.001 221.068 112.699 221.068 112.369ZM222.065 111.909V112.369C222.065 112.614 222.122 112.835 222.236 113.034C222.352 113.233 222.555 113.332 222.845 113.332C223.129 113.332 223.328 113.233 223.442 113.034C223.558 112.835 223.616 112.614 223.616 112.369V111.909C223.616 111.665 223.561 111.443 223.45 111.244C223.339 111.045 223.138 110.946 222.845 110.946C222.561 110.946 222.359 111.045 222.24 111.244C222.124 111.443 222.065 111.665 222.065 111.909ZM221.473 119L227.473 110.273H228.491L222.491 119H221.473Z"
        fill="#979797" />
      <rect x="297" y="184" width="140" height="10" rx="5" fill="#EFF3F9" />
      <rect x="297" y="184" width="5" height="10" rx="2.5" fill="url(#paint3_linear_1353_5878)" />
      <path
        d="M297.959 172V163.273H299.276V170.866H303.23V172H297.959ZM307.387 172.132C306.773 172.132 306.238 171.991 305.781 171.71C305.323 171.429 304.968 171.036 304.715 170.53C304.462 170.024 304.336 169.433 304.336 168.757C304.336 168.078 304.462 167.484 304.715 166.976C304.968 166.467 305.323 166.072 305.781 165.791C306.238 165.51 306.773 165.369 307.387 165.369C308.001 165.369 308.536 165.51 308.994 165.791C309.451 166.072 309.806 166.467 310.059 166.976C310.312 167.484 310.438 168.078 310.438 168.757C310.438 169.433 310.312 170.024 310.059 170.53C309.806 171.036 309.451 171.429 308.994 171.71C308.536 171.991 308.001 172.132 307.387 172.132ZM307.391 171.062C307.789 171.062 308.119 170.957 308.38 170.747C308.641 170.537 308.835 170.257 308.96 169.908C309.087 169.558 309.151 169.173 309.151 168.753C309.151 168.335 309.087 167.952 308.96 167.602C308.835 167.25 308.641 166.967 308.38 166.754C308.119 166.541 307.789 166.435 307.391 166.435C306.991 166.435 306.658 166.541 306.394 166.754C306.133 166.967 305.938 167.25 305.81 167.602C305.685 167.952 305.623 168.335 305.623 168.753C305.623 169.173 305.685 169.558 305.81 169.908C305.938 170.257 306.133 170.537 306.394 170.747C306.658 170.957 306.991 171.062 307.391 171.062ZM311.86 172V165.455H313.092V166.494H313.16C313.279 166.142 313.49 165.865 313.791 165.663C314.095 165.459 314.439 165.357 314.822 165.357C314.902 165.357 314.995 165.359 315.103 165.365C315.214 165.371 315.301 165.378 315.363 165.386V166.605C315.312 166.591 315.221 166.575 315.091 166.558C314.96 166.538 314.829 166.528 314.699 166.528C314.397 166.528 314.129 166.592 313.893 166.72C313.66 166.845 313.475 167.02 313.339 167.244C313.203 167.466 313.135 167.719 313.135 168.003V172H311.86ZM319.053 172.132C318.408 172.132 317.852 171.994 317.386 171.719C316.923 171.44 316.565 171.05 316.312 170.547C316.062 170.041 315.938 169.449 315.938 168.77C315.938 168.099 316.062 167.509 316.312 166.997C316.565 166.486 316.918 166.087 317.369 165.8C317.824 165.513 318.355 165.369 318.963 165.369C319.332 165.369 319.69 165.43 320.037 165.553C320.384 165.675 320.695 165.866 320.97 166.128C321.246 166.389 321.463 166.729 321.622 167.146C321.781 167.561 321.861 168.065 321.861 168.659V169.111H316.658V168.156H320.612C320.612 167.821 320.544 167.524 320.408 167.266C320.271 167.004 320.08 166.798 319.832 166.648C319.588 166.497 319.301 166.422 318.972 166.422C318.614 166.422 318.301 166.51 318.034 166.686C317.77 166.859 317.565 167.087 317.42 167.368C317.278 167.646 317.207 167.949 317.207 168.276V169.021C317.207 169.459 317.284 169.831 317.438 170.138C317.594 170.445 317.811 170.679 318.089 170.841C318.368 171 318.693 171.08 319.065 171.08C319.307 171.08 319.527 171.045 319.726 170.977C319.925 170.906 320.097 170.801 320.241 170.662C320.386 170.523 320.497 170.351 320.574 170.146L321.78 170.364C321.683 170.719 321.51 171.03 321.26 171.297C321.013 171.561 320.702 171.767 320.327 171.915C319.955 172.06 319.53 172.132 319.053 172.132ZM323.275 172V165.455H324.498V166.52H324.578C324.715 166.159 324.938 165.878 325.248 165.676C325.557 165.472 325.928 165.369 326.36 165.369C326.797 165.369 327.164 165.472 327.459 165.676C327.757 165.881 327.978 166.162 328.12 166.52H328.188C328.344 166.17 328.593 165.892 328.934 165.685C329.275 165.474 329.681 165.369 330.152 165.369C330.746 165.369 331.23 165.555 331.605 165.928C331.983 166.3 332.172 166.861 332.172 167.611V172H330.898V167.73C330.898 167.287 330.777 166.966 330.536 166.767C330.294 166.568 330.006 166.469 329.671 166.469C329.256 166.469 328.934 166.597 328.703 166.852C328.473 167.105 328.358 167.43 328.358 167.828V172H327.088V167.649C327.088 167.294 326.978 167.009 326.756 166.793C326.534 166.577 326.246 166.469 325.891 166.469C325.65 166.469 325.426 166.533 325.222 166.661C325.02 166.786 324.857 166.96 324.732 167.185C324.61 167.409 324.549 167.669 324.549 167.964V172H323.275Z"
        fill="#4F4F4F" />
      <path
        d="M435.948 172.145C435.275 172.142 434.7 171.964 434.222 171.612C433.745 171.26 433.38 170.747 433.127 170.074C432.874 169.401 432.748 168.589 432.748 167.641C432.748 166.695 432.874 165.886 433.127 165.216C433.383 164.545 433.749 164.034 434.227 163.682C434.707 163.33 435.281 163.153 435.948 163.153C436.616 163.153 437.188 163.331 437.665 163.686C438.143 164.038 438.508 164.55 438.761 165.22C439.016 165.888 439.144 166.695 439.144 167.641C439.144 168.592 439.018 169.405 438.765 170.078C438.512 170.749 438.147 171.261 437.67 171.616C437.192 171.969 436.619 172.145 435.948 172.145ZM435.948 171.007C436.539 171.007 437.001 170.719 437.333 170.142C437.668 169.565 437.836 168.732 437.836 167.641C437.836 166.916 437.759 166.304 437.606 165.804C437.455 165.301 437.238 164.92 436.954 164.662C436.673 164.401 436.337 164.27 435.948 164.27C435.36 164.27 434.898 164.56 434.563 165.139C434.228 165.719 434.059 166.553 434.056 167.641C434.056 168.368 434.131 168.983 434.282 169.486C434.435 169.986 434.653 170.365 434.934 170.624C435.215 170.879 435.553 171.007 435.948 171.007ZM442.014 170.807L441.95 171.271C441.908 171.612 441.835 171.967 441.733 172.337C441.634 172.709 441.53 173.054 441.422 173.372C441.317 173.69 441.23 173.943 441.162 174.131H440.259C440.295 173.955 440.347 173.716 440.412 173.415C440.477 173.116 440.541 172.783 440.604 172.413C440.666 172.044 440.713 171.668 440.744 171.284L440.787 170.807H442.014ZM443.797 172V171.045L446.75 167.986C447.065 167.653 447.325 167.362 447.529 167.112C447.737 166.859 447.892 166.619 447.994 166.392C448.096 166.165 448.147 165.923 448.147 165.668C448.147 165.378 448.079 165.128 447.943 164.918C447.806 164.705 447.62 164.541 447.385 164.428C447.149 164.311 446.883 164.253 446.588 164.253C446.275 164.253 446.002 164.317 445.77 164.445C445.537 164.572 445.358 164.753 445.233 164.986C445.108 165.219 445.045 165.491 445.045 165.804H443.788C443.788 165.273 443.91 164.808 444.154 164.411C444.399 164.013 444.734 163.705 445.16 163.486C445.586 163.264 446.071 163.153 446.613 163.153C447.162 163.153 447.645 163.263 448.062 163.482C448.483 163.697 448.811 163.993 449.047 164.368C449.282 164.74 449.4 165.161 449.4 165.629C449.4 165.953 449.339 166.27 449.217 166.58C449.098 166.889 448.889 167.234 448.591 167.615C448.292 167.993 447.877 168.452 447.346 168.991L445.612 170.807V170.871H449.541V172H443.797ZM454.194 172.145C453.521 172.142 452.946 171.964 452.468 171.612C451.991 171.26 451.626 170.747 451.373 170.074C451.12 169.401 450.994 168.589 450.994 167.641C450.994 166.695 451.12 165.886 451.373 165.216C451.629 164.545 451.995 164.034 452.473 163.682C452.953 163.33 453.527 163.153 454.194 163.153C454.862 163.153 455.434 163.331 455.912 163.686C456.389 164.038 456.754 164.55 457.007 165.22C457.262 165.888 457.39 166.695 457.39 167.641C457.39 168.592 457.264 169.405 457.011 170.078C456.758 170.749 456.393 171.261 455.916 171.616C455.439 171.969 454.865 172.145 454.194 172.145ZM454.194 171.007C454.785 171.007 455.247 170.719 455.579 170.142C455.914 169.565 456.082 168.732 456.082 167.641C456.082 166.916 456.005 166.304 455.852 165.804C455.701 165.301 455.484 164.92 455.2 164.662C454.919 164.401 454.583 164.27 454.194 164.27C453.606 164.27 453.145 164.56 452.809 165.139C452.474 165.719 452.305 166.553 452.302 167.641C452.302 168.368 452.377 168.983 452.528 169.486C452.681 169.986 452.899 170.365 453.18 170.624C453.461 170.879 453.799 171.007 454.194 171.007ZM463.457 170.364V169.903C463.457 169.574 463.526 169.273 463.662 169C463.801 168.724 464.003 168.504 464.267 168.339C464.534 168.172 464.857 168.088 465.234 168.088C465.621 168.088 465.945 168.17 466.206 168.335C466.467 168.5 466.665 168.72 466.798 168.996C466.935 169.271 467.003 169.574 467.003 169.903V170.364C467.003 170.693 466.935 170.996 466.798 171.271C466.662 171.544 466.462 171.764 466.197 171.932C465.936 172.097 465.615 172.179 465.234 172.179C464.851 172.179 464.527 172.097 464.263 171.932C463.999 171.764 463.798 171.544 463.662 171.271C463.526 170.996 463.457 170.693 463.457 170.364ZM464.45 169.903V170.364C464.45 170.608 464.509 170.83 464.625 171.028C464.741 171.227 464.945 171.327 465.234 171.327C465.521 171.327 465.722 171.227 465.835 171.028C465.949 170.83 466.006 170.608 466.006 170.364V169.903C466.006 169.659 465.95 169.437 465.839 169.239C465.732 169.04 465.53 168.94 465.234 168.94C464.95 168.94 464.749 169.04 464.629 169.239C464.51 169.437 464.45 169.659 464.45 169.903ZM459.068 165.369V164.909C459.068 164.58 459.136 164.277 459.273 164.001C459.412 163.726 459.614 163.506 459.878 163.341C460.145 163.176 460.467 163.094 460.845 163.094C461.232 163.094 461.555 163.176 461.817 163.341C462.078 163.506 462.276 163.726 462.409 164.001C462.543 164.277 462.609 164.58 462.609 164.909V165.369C462.609 165.699 462.541 166.001 462.405 166.277C462.271 166.55 462.072 166.77 461.808 166.938C461.547 167.102 461.226 167.185 460.845 167.185C460.459 167.185 460.134 167.102 459.869 166.938C459.608 166.77 459.409 166.55 459.273 166.277C459.136 166.001 459.068 165.699 459.068 165.369ZM460.065 164.909V165.369C460.065 165.614 460.122 165.835 460.236 166.034C460.352 166.233 460.555 166.332 460.845 166.332C461.129 166.332 461.328 166.233 461.442 166.034C461.558 165.835 461.616 165.614 461.616 165.369V164.909C461.616 164.665 461.561 164.443 461.45 164.244C461.339 164.045 461.138 163.946 460.845 163.946C460.561 163.946 460.359 164.045 460.24 164.244C460.124 164.443 460.065 164.665 460.065 164.909ZM459.473 172L465.473 163.273H466.491L460.491 172H459.473Z"
        fill="#979797" />
      <rect x="75" y="238" width="140" height="10" rx="5" fill="#EFF3F9" />
      <rect x="75" y="238" width="4" height="10" rx="2" fill="url(#paint4_linear_1353_5878)" />
      <path
        d="M75.9588 227V218.273H77.2756V225.866H81.2301V227H75.9588ZM85.3871 227.132C84.7734 227.132 84.2379 226.991 83.7805 226.71C83.3232 226.429 82.968 226.036 82.7152 225.53C82.4624 225.024 82.3359 224.433 82.3359 223.757C82.3359 223.078 82.4624 222.484 82.7152 221.976C82.968 221.467 83.3232 221.072 83.7805 220.791C84.2379 220.51 84.7734 220.369 85.3871 220.369C86.0007 220.369 86.5362 220.51 86.9936 220.791C87.451 221.072 87.8061 221.467 88.0589 221.976C88.3118 222.484 88.4382 223.078 88.4382 223.757C88.4382 224.433 88.3118 225.024 88.0589 225.53C87.8061 226.036 87.451 226.429 86.9936 226.71C86.5362 226.991 86.0007 227.132 85.3871 227.132ZM85.3913 226.062C85.7891 226.062 86.1186 225.957 86.38 225.747C86.6413 225.537 86.8345 225.257 86.9595 224.908C87.0874 224.558 87.1513 224.173 87.1513 223.753C87.1513 223.335 87.0874 222.952 86.9595 222.602C86.8345 222.25 86.6413 221.967 86.38 221.754C86.1186 221.541 85.7891 221.435 85.3913 221.435C84.9908 221.435 84.6584 221.541 84.3942 221.754C84.1328 221.967 83.9382 222.25 83.8104 222.602C83.6854 222.952 83.6229 223.335 83.6229 223.753C83.6229 224.173 83.6854 224.558 83.8104 224.908C83.9382 225.257 84.1328 225.537 84.3942 225.747C84.6584 225.957 84.9908 226.062 85.3913 226.062ZM89.8604 227V220.455H91.092V221.494H91.1602C91.2795 221.142 91.4897 220.865 91.7908 220.663C92.0948 220.459 92.4386 220.357 92.8221 220.357C92.9016 220.357 92.9954 220.359 93.1033 220.365C93.2141 220.371 93.3008 220.378 93.3633 220.386V221.605C93.3121 221.591 93.2212 221.575 93.0906 221.558C92.9599 221.538 92.8292 221.528 92.6985 221.528C92.3974 221.528 92.1289 221.592 91.8931 221.72C91.6602 221.845 91.4755 222.02 91.3391 222.244C91.2028 222.466 91.1346 222.719 91.1346 223.003V227H89.8604ZM97.0526 227.132C96.4077 227.132 95.8523 226.994 95.3864 226.719C94.9233 226.44 94.5653 226.05 94.3125 225.547C94.0625 225.041 93.9375 224.449 93.9375 223.77C93.9375 223.099 94.0625 222.509 94.3125 221.997C94.5653 221.486 94.9176 221.087 95.3693 220.8C95.8239 220.513 96.3551 220.369 96.9631 220.369C97.3324 220.369 97.6903 220.43 98.0369 220.553C98.3835 220.675 98.6946 220.866 98.9702 221.128C99.2457 221.389 99.4631 221.729 99.6222 222.146C99.7813 222.561 99.8608 223.065 99.8608 223.659V224.111H94.6577V223.156H98.6122C98.6122 222.821 98.544 222.524 98.4077 222.266C98.2713 222.004 98.0795 221.798 97.8324 221.648C97.5881 221.497 97.3011 221.422 96.9716 221.422C96.6136 221.422 96.3011 221.51 96.0341 221.686C95.7699 221.859 95.5653 222.087 95.4205 222.368C95.2784 222.646 95.2074 222.949 95.2074 223.276V224.021C95.2074 224.459 95.2841 224.831 95.4375 225.138C95.5938 225.445 95.8111 225.679 96.0895 225.841C96.3679 226 96.6932 226.08 97.0653 226.08C97.3068 226.08 97.527 226.045 97.7259 225.977C97.9247 225.906 98.0966 225.801 98.2415 225.662C98.3864 225.523 98.4972 225.351 98.5739 225.146L99.7798 225.364C99.6832 225.719 99.5099 226.03 99.2599 226.297C99.0128 226.561 98.7017 226.767 98.3267 226.915C97.9545 227.06 97.5298 227.132 97.0526 227.132ZM101.275 227V220.455H102.498V221.52H102.578C102.715 221.159 102.938 220.878 103.248 220.676C103.557 220.472 103.928 220.369 104.36 220.369C104.797 220.369 105.164 220.472 105.459 220.676C105.757 220.881 105.978 221.162 106.12 221.52H106.188C106.344 221.17 106.593 220.892 106.934 220.685C107.275 220.474 107.681 220.369 108.152 220.369C108.746 220.369 109.23 220.555 109.605 220.928C109.983 221.3 110.172 221.861 110.172 222.611V227H108.898V222.73C108.898 222.287 108.777 221.966 108.536 221.767C108.294 221.568 108.006 221.469 107.671 221.469C107.256 221.469 106.934 221.597 106.703 221.852C106.473 222.105 106.358 222.43 106.358 222.828V227H105.088V222.649C105.088 222.294 104.978 222.009 104.756 221.793C104.534 221.577 104.246 221.469 103.891 221.469C103.65 221.469 103.426 221.533 103.222 221.661C103.02 221.786 102.857 221.96 102.732 222.185C102.61 222.409 102.549 222.669 102.549 222.964V227H101.275Z"
        fill="#4F4F4F" />
      <path
        d="M200.702 227.145C200.029 227.142 199.453 226.964 198.976 226.612C198.499 226.26 198.134 225.747 197.881 225.074C197.628 224.401 197.502 223.589 197.502 222.641C197.502 221.695 197.628 220.886 197.881 220.216C198.137 219.545 198.503 219.034 198.98 218.682C199.461 218.33 200.034 218.153 200.702 218.153C201.37 218.153 201.942 218.331 202.419 218.686C202.897 219.038 203.262 219.55 203.515 220.22C203.77 220.888 203.898 221.695 203.898 222.641C203.898 223.592 203.772 224.405 203.519 225.078C203.266 225.749 202.901 226.261 202.424 226.616C201.946 226.969 201.373 227.145 200.702 227.145ZM200.702 226.007C201.293 226.007 201.755 225.719 202.087 225.142C202.422 224.565 202.59 223.732 202.59 222.641C202.59 221.916 202.513 221.304 202.36 220.804C202.209 220.301 201.992 219.92 201.708 219.662C201.426 219.401 201.091 219.27 200.702 219.27C200.114 219.27 199.652 219.56 199.317 220.139C198.982 220.719 198.813 221.553 198.81 222.641C198.81 223.368 198.885 223.983 199.036 224.486C199.189 224.986 199.407 225.365 199.688 225.624C199.969 225.879 200.307 226.007 200.702 226.007ZM206.768 225.807L206.704 226.271C206.662 226.612 206.589 226.967 206.487 227.337C206.387 227.709 206.284 228.054 206.176 228.372C206.071 228.69 205.984 228.943 205.916 229.131H205.012C205.049 228.955 205.1 228.716 205.166 228.415C205.231 228.116 205.295 227.783 205.358 227.413C205.42 227.044 205.467 226.668 205.498 226.284L205.541 225.807H206.768ZM210.807 218.273V227H209.486V219.594H209.435L207.347 220.957V219.696L209.524 218.273H210.807ZM216.206 227.119C215.621 227.119 215.098 227.018 214.638 226.817C214.18 226.615 213.818 226.335 213.551 225.977C213.287 225.616 213.145 225.199 213.125 224.724H214.463C214.48 224.983 214.567 225.207 214.723 225.398C214.882 225.585 215.089 225.73 215.345 225.832C215.601 225.935 215.885 225.986 216.197 225.986C216.541 225.986 216.845 225.926 217.109 225.807C217.376 225.687 217.585 225.521 217.736 225.308C217.886 225.092 217.962 224.844 217.962 224.562C217.962 224.27 217.886 224.013 217.736 223.791C217.588 223.567 217.371 223.391 217.084 223.263C216.8 223.135 216.456 223.071 216.053 223.071H215.315V221.997H216.053C216.376 221.997 216.661 221.939 216.905 221.822C217.152 221.706 217.345 221.544 217.484 221.337C217.624 221.126 217.693 220.881 217.693 220.599C217.693 220.33 217.632 220.095 217.51 219.896C217.391 219.695 217.22 219.537 216.999 219.423C216.78 219.31 216.521 219.253 216.223 219.253C215.939 219.253 215.673 219.305 215.426 219.411C215.182 219.513 214.983 219.661 214.83 219.854C214.676 220.044 214.594 220.273 214.582 220.54H213.308C213.322 220.068 213.462 219.653 213.726 219.295C213.993 218.937 214.345 218.658 214.783 218.456C215.22 218.254 215.706 218.153 216.24 218.153C216.8 218.153 217.283 218.263 217.689 218.482C218.098 218.697 218.413 218.986 218.635 219.347C218.859 219.707 218.97 220.102 218.967 220.531C218.97 221.02 218.834 221.435 218.558 221.776C218.286 222.116 217.922 222.345 217.467 222.462V222.53C218.047 222.618 218.496 222.848 218.814 223.22C219.135 223.592 219.294 224.054 219.291 224.605C219.294 225.085 219.161 225.516 218.891 225.896C218.624 226.277 218.259 226.577 217.795 226.795C217.332 227.011 216.803 227.119 216.206 227.119ZM225.457 225.364V224.903C225.457 224.574 225.526 224.273 225.662 224C225.801 223.724 226.003 223.504 226.267 223.339C226.534 223.172 226.857 223.088 227.234 223.088C227.621 223.088 227.945 223.17 228.206 223.335C228.467 223.5 228.665 223.72 228.798 223.996C228.935 224.271 229.003 224.574 229.003 224.903V225.364C229.003 225.693 228.935 225.996 228.798 226.271C228.662 226.544 228.462 226.764 228.197 226.932C227.936 227.097 227.615 227.179 227.234 227.179C226.851 227.179 226.527 227.097 226.263 226.932C225.999 226.764 225.798 226.544 225.662 226.271C225.526 225.996 225.457 225.693 225.457 225.364ZM226.45 224.903V225.364C226.45 225.608 226.509 225.83 226.625 226.028C226.741 226.227 226.945 226.327 227.234 226.327C227.521 226.327 227.722 226.227 227.835 226.028C227.949 225.83 228.006 225.608 228.006 225.364V224.903C228.006 224.659 227.95 224.437 227.839 224.239C227.732 224.04 227.53 223.94 227.234 223.94C226.95 223.94 226.749 224.04 226.629 224.239C226.51 224.437 226.45 224.659 226.45 224.903ZM221.068 220.369V219.909C221.068 219.58 221.136 219.277 221.273 219.001C221.412 218.726 221.614 218.506 221.878 218.341C222.145 218.176 222.467 218.094 222.845 218.094C223.232 218.094 223.555 218.176 223.817 218.341C224.078 218.506 224.276 218.726 224.409 219.001C224.543 219.277 224.609 219.58 224.609 219.909V220.369C224.609 220.699 224.541 221.001 224.405 221.277C224.271 221.55 224.072 221.77 223.808 221.938C223.547 222.102 223.226 222.185 222.845 222.185C222.459 222.185 222.134 222.102 221.869 221.938C221.608 221.77 221.409 221.55 221.273 221.277C221.136 221.001 221.068 220.699 221.068 220.369ZM222.065 219.909V220.369C222.065 220.614 222.122 220.835 222.236 221.034C222.352 221.233 222.555 221.332 222.845 221.332C223.129 221.332 223.328 221.233 223.442 221.034C223.558 220.835 223.616 220.614 223.616 220.369V219.909C223.616 219.665 223.561 219.443 223.45 219.244C223.339 219.045 223.138 218.946 222.845 218.946C222.561 218.946 222.359 219.045 222.24 219.244C222.124 219.443 222.065 219.665 222.065 219.909ZM221.473 227L227.473 218.273H228.491L222.491 227H221.473Z"
        fill="#979797" />
      <rect x="297" y="237" width="140" height="10" rx="5" fill="#EFF3F9" />
      <rect x="297" y="237" width="15" height="10" rx="5" fill="url(#paint5_linear_1353_5878)" />
      <path
        d="M297.959 226V217.273H299.276V224.866H303.23V226H297.959ZM307.387 226.132C306.773 226.132 306.238 225.991 305.781 225.71C305.323 225.429 304.968 225.036 304.715 224.53C304.462 224.024 304.336 223.433 304.336 222.757C304.336 222.078 304.462 221.484 304.715 220.976C304.968 220.467 305.323 220.072 305.781 219.791C306.238 219.51 306.773 219.369 307.387 219.369C308.001 219.369 308.536 219.51 308.994 219.791C309.451 220.072 309.806 220.467 310.059 220.976C310.312 221.484 310.438 222.078 310.438 222.757C310.438 223.433 310.312 224.024 310.059 224.53C309.806 225.036 309.451 225.429 308.994 225.71C308.536 225.991 308.001 226.132 307.387 226.132ZM307.391 225.062C307.789 225.062 308.119 224.957 308.38 224.747C308.641 224.537 308.835 224.257 308.96 223.908C309.087 223.558 309.151 223.173 309.151 222.753C309.151 222.335 309.087 221.952 308.96 221.602C308.835 221.25 308.641 220.967 308.38 220.754C308.119 220.541 307.789 220.435 307.391 220.435C306.991 220.435 306.658 220.541 306.394 220.754C306.133 220.967 305.938 221.25 305.81 221.602C305.685 221.952 305.623 222.335 305.623 222.753C305.623 223.173 305.685 223.558 305.81 223.908C305.938 224.257 306.133 224.537 306.394 224.747C306.658 224.957 306.991 225.062 307.391 225.062ZM311.86 226V219.455H313.092V220.494H313.16C313.279 220.142 313.49 219.865 313.791 219.663C314.095 219.459 314.439 219.357 314.822 219.357C314.902 219.357 314.995 219.359 315.103 219.365C315.214 219.371 315.301 219.378 315.363 219.386V220.605C315.312 220.591 315.221 220.575 315.091 220.558C314.96 220.538 314.829 220.528 314.699 220.528C314.397 220.528 314.129 220.592 313.893 220.72C313.66 220.845 313.475 221.02 313.339 221.244C313.203 221.466 313.135 221.719 313.135 222.003V226H311.86ZM319.053 226.132C318.408 226.132 317.852 225.994 317.386 225.719C316.923 225.44 316.565 225.05 316.312 224.547C316.062 224.041 315.938 223.449 315.938 222.77C315.938 222.099 316.062 221.509 316.312 220.997C316.565 220.486 316.918 220.087 317.369 219.8C317.824 219.513 318.355 219.369 318.963 219.369C319.332 219.369 319.69 219.43 320.037 219.553C320.384 219.675 320.695 219.866 320.97 220.128C321.246 220.389 321.463 220.729 321.622 221.146C321.781 221.561 321.861 222.065 321.861 222.659V223.111H316.658V222.156H320.612C320.612 221.821 320.544 221.524 320.408 221.266C320.271 221.004 320.08 220.798 319.832 220.648C319.588 220.497 319.301 220.422 318.972 220.422C318.614 220.422 318.301 220.51 318.034 220.686C317.77 220.859 317.565 221.087 317.42 221.368C317.278 221.646 317.207 221.949 317.207 222.276V223.021C317.207 223.459 317.284 223.831 317.438 224.138C317.594 224.445 317.811 224.679 318.089 224.841C318.368 225 318.693 225.08 319.065 225.08C319.307 225.08 319.527 225.045 319.726 224.977C319.925 224.906 320.097 224.801 320.241 224.662C320.386 224.523 320.497 224.351 320.574 224.146L321.78 224.364C321.683 224.719 321.51 225.03 321.26 225.297C321.013 225.561 320.702 225.767 320.327 225.915C319.955 226.06 319.53 226.132 319.053 226.132ZM323.275 226V219.455H324.498V220.52H324.578C324.715 220.159 324.938 219.878 325.248 219.676C325.557 219.472 325.928 219.369 326.36 219.369C326.797 219.369 327.164 219.472 327.459 219.676C327.757 219.881 327.978 220.162 328.12 220.52H328.188C328.344 220.17 328.593 219.892 328.934 219.685C329.275 219.474 329.681 219.369 330.152 219.369C330.746 219.369 331.23 219.555 331.605 219.928C331.983 220.3 332.172 220.861 332.172 221.611V226H330.898V221.73C330.898 221.287 330.777 220.966 330.536 220.767C330.294 220.568 330.006 220.469 329.671 220.469C329.256 220.469 328.934 220.597 328.703 220.852C328.473 221.105 328.358 221.43 328.358 221.828V226H327.088V221.649C327.088 221.294 326.978 221.009 326.756 220.793C326.534 220.577 326.246 220.469 325.891 220.469C325.65 220.469 325.426 220.533 325.222 220.661C325.02 220.786 324.857 220.96 324.732 221.185C324.61 221.409 324.549 221.669 324.549 221.964V226H323.275Z"
        fill="#4F4F4F" />
      <path
        d="M439.221 217.273V226H437.9V218.594H437.849L435.761 219.957V218.696L437.938 217.273H439.221ZM442.752 224.807L442.689 225.271C442.646 225.612 442.574 225.967 442.471 226.337C442.372 226.709 442.268 227.054 442.16 227.372C442.055 227.69 441.968 227.943 441.9 228.131H440.997C441.034 227.955 441.085 227.716 441.15 227.415C441.216 227.116 441.279 226.783 441.342 226.413C441.404 226.044 441.451 225.668 441.483 225.284L441.525 224.807H442.752ZM447.257 226.119C446.672 226.119 446.149 226.018 445.689 225.817C445.231 225.615 444.869 225.335 444.602 224.977C444.338 224.616 444.196 224.199 444.176 223.724H445.514C445.531 223.983 445.618 224.207 445.774 224.398C445.933 224.585 446.14 224.73 446.396 224.832C446.652 224.935 446.936 224.986 447.248 224.986C447.592 224.986 447.896 224.926 448.16 224.807C448.427 224.687 448.636 224.521 448.787 224.308C448.937 224.092 449.012 223.844 449.012 223.562C449.012 223.27 448.937 223.013 448.787 222.791C448.639 222.567 448.422 222.391 448.135 222.263C447.85 222.135 447.507 222.071 447.103 222.071H446.366V220.997H447.103C447.427 220.997 447.711 220.939 447.956 220.822C448.203 220.706 448.396 220.544 448.535 220.337C448.674 220.126 448.744 219.881 448.744 219.599C448.744 219.33 448.683 219.095 448.561 218.896C448.441 218.695 448.271 218.537 448.049 218.423C447.831 218.31 447.572 218.253 447.274 218.253C446.99 218.253 446.724 218.305 446.477 218.411C446.233 218.513 446.034 218.661 445.88 218.854C445.727 219.044 445.645 219.273 445.633 219.54H444.359C444.373 219.068 444.512 218.653 444.777 218.295C445.044 217.937 445.396 217.658 445.833 217.456C446.271 217.254 446.757 217.153 447.291 217.153C447.85 217.153 448.333 217.263 448.74 217.482C449.149 217.697 449.464 217.986 449.686 218.347C449.91 218.707 450.021 219.102 450.018 219.531C450.021 220.02 449.885 220.435 449.609 220.776C449.336 221.116 448.973 221.345 448.518 221.462V221.53C449.098 221.618 449.547 221.848 449.865 222.22C450.186 222.592 450.345 223.054 450.342 223.605C450.345 224.085 450.211 224.516 449.941 224.896C449.674 225.277 449.309 225.577 448.846 225.795C448.383 226.011 447.853 226.119 447.257 226.119ZM452.247 226L456.056 218.466V218.402H451.65V217.273H457.42V218.44L453.623 226H452.247ZM463.457 224.364V223.903C463.457 223.574 463.526 223.273 463.662 223C463.801 222.724 464.003 222.504 464.267 222.339C464.534 222.172 464.857 222.088 465.234 222.088C465.621 222.088 465.945 222.17 466.206 222.335C466.467 222.5 466.665 222.72 466.798 222.996C466.935 223.271 467.003 223.574 467.003 223.903V224.364C467.003 224.693 466.935 224.996 466.798 225.271C466.662 225.544 466.462 225.764 466.197 225.932C465.936 226.097 465.615 226.179 465.234 226.179C464.851 226.179 464.527 226.097 464.263 225.932C463.999 225.764 463.798 225.544 463.662 225.271C463.526 224.996 463.457 224.693 463.457 224.364ZM464.45 223.903V224.364C464.45 224.608 464.509 224.83 464.625 225.028C464.741 225.227 464.945 225.327 465.234 225.327C465.521 225.327 465.722 225.227 465.835 225.028C465.949 224.83 466.006 224.608 466.006 224.364V223.903C466.006 223.659 465.95 223.437 465.839 223.239C465.732 223.04 465.53 222.94 465.234 222.94C464.95 222.94 464.749 223.04 464.629 223.239C464.51 223.437 464.45 223.659 464.45 223.903ZM459.068 219.369V218.909C459.068 218.58 459.136 218.277 459.273 218.001C459.412 217.726 459.614 217.506 459.878 217.341C460.145 217.176 460.467 217.094 460.845 217.094C461.232 217.094 461.555 217.176 461.817 217.341C462.078 217.506 462.276 217.726 462.409 218.001C462.543 218.277 462.609 218.58 462.609 218.909V219.369C462.609 219.699 462.541 220.001 462.405 220.277C462.271 220.55 462.072 220.77 461.808 220.938C461.547 221.102 461.226 221.185 460.845 221.185C460.459 221.185 460.134 221.102 459.869 220.938C459.608 220.77 459.409 220.55 459.273 220.277C459.136 220.001 459.068 219.699 459.068 219.369ZM460.065 218.909V219.369C460.065 219.614 460.122 219.835 460.236 220.034C460.352 220.233 460.555 220.332 460.845 220.332C461.129 220.332 461.328 220.233 461.442 220.034C461.558 219.835 461.616 219.614 461.616 219.369V218.909C461.616 218.665 461.561 218.443 461.45 218.244C461.339 218.045 461.138 217.946 460.845 217.946C460.561 217.946 460.359 218.045 460.24 218.244C460.124 218.443 460.065 218.665 460.065 218.909ZM459.473 226L465.473 217.273H466.491L460.491 226H459.473Z"
        fill="#979797" />
      <defs>
        <filter id="filter0_d_1353_5878" x="0" y="0" width="556" height="342" filterUnits="userSpaceOnUse"
          color-interpolation-filters="sRGB">
          <feFlood flood-opacity="0" result="BackgroundImageFix" />
          <feColorMatrix in="SourceAlpha" type="matrix" values="0 0 0 0 0 0 0 0 0 0 0 0 0 0 0 0 0 0 127 0"
            result="hardAlpha" />
          <feOffset dy="15" />
          <feGaussianBlur stdDeviation="25" />
          <feComposite in2="hardAlpha" operator="out" />
          <feColorMatrix type="matrix" values="0 0 0 0 0.627451 0 0 0 0 0.639216 0 0 0 0 0.741176 0 0 0 0.1 0" />
          <feBlend mode="normal" in2="BackgroundImageFix" result="effect1_dropShadow_1353_5878" />
          <feBlend mode="normal" in="SourceGraphic" in2="effect1_dropShadow_1353_5878" result="shape" />
        </filter>
        <linearGradient id="paint0_linear_1353_5878" x1="297" y1="130" x2="302.891" y2="141.785"
          gradientUnits="userSpaceOnUse">
          <stop stop-color="#282B80" />
          <stop offset="0.969835" stop-color="#28A745" />
        </linearGradient>
        <linearGradient id="paint1_linear_1353_5878" x1="75" y1="185" x2="82.1191" y2="190.478"
          gradientUnits="userSpaceOnUse">
          <stop stop-color="#282B80" />
          <stop offset="0.969835" stop-color="#28A745" />
        </linearGradient>
        <linearGradient id="paint2_linear_1353_5878" x1="75" y1="131" x2="75.7458" y2="145.692"
          gradientUnits="userSpaceOnUse">
          <stop stop-color="#282B80" />
          <stop offset="0.969835" stop-color="#28A745" />
        </linearGradient>
        <linearGradient id="paint3_linear_1353_5878" x1="297" y1="184" x2="304.119" y2="189.478"
          gradientUnits="userSpaceOnUse">
          <stop stop-color="#282B80" />
          <stop offset="0.969835" stop-color="#28A745" />
        </linearGradient>
        <linearGradient id="paint4_linear_1353_5878" x1="75" y1="238" x2="81.5757" y2="242.048"
          gradientUnits="userSpaceOnUse">
          <stop stop-color="#282B80" />
          <stop offset="0.969835" stop-color="#28A745" />
        </linearGradient>
        <linearGradient id="paint5_linear_1353_5878" x1="297" y1="237" x2="302.372" y2="249.402"
          gradientUnits="userSpaceOnUse">
          <stop stop-color="#282B80" />
          <stop offset="0.969835" stop-color="#28A745" />
        </linearGradient>
      </defs>
    </svg>
