<svg width="300" height="283" viewBox="0 0 300 283" fill="none" xmlns="http://www.w3.org/2000/svg">
      <rect width="300" height="244" rx="10" fill="white" />
      <path
        d="M22.054 35.0195V23.3832H26.4176C27.3116 23.3832 28.0616 23.5498 28.6676 23.8832C29.2775 24.2165 29.7377 24.6748 30.0483 25.2582C30.3627 25.8377 30.5199 26.4968 30.5199 27.2354C30.5199 27.9817 30.3627 28.6445 30.0483 29.2241C29.7339 29.8036 29.2699 30.2601 28.6562 30.5934C28.0426 30.9229 27.2869 31.0877 26.3892 31.0877H23.4972V29.3548H26.1051C26.6278 29.3548 27.0559 29.2638 27.3892 29.082C27.7225 28.9002 27.9688 28.6502 28.1278 28.332C28.2907 28.0138 28.3722 27.6483 28.3722 27.2354C28.3722 26.8226 28.2907 26.4589 28.1278 26.1445C27.9688 25.8301 27.7206 25.5858 27.3835 25.4116C27.0502 25.2335 26.6203 25.1445 26.0938 25.1445H24.1619V35.0195H22.054ZM35.5418 35.19C34.6895 35.19 33.9509 35.0025 33.3259 34.6275C32.7009 34.2525 32.216 33.7279 31.8713 33.0536C31.5304 32.3794 31.3599 31.5915 31.3599 30.69C31.3599 29.7885 31.5304 28.9987 31.8713 28.3207C32.216 27.6426 32.7009 27.1161 33.3259 26.7411C33.9509 26.3661 34.6895 26.1786 35.5418 26.1786C36.394 26.1786 37.1327 26.3661 37.7577 26.7411C38.3827 27.1161 38.8656 27.6426 39.2065 28.3207C39.5512 28.9987 39.7236 29.7885 39.7236 30.69C39.7236 31.5915 39.5512 32.3794 39.2065 33.0536C38.8656 33.7279 38.3827 34.2525 37.7577 34.6275C37.1327 35.0025 36.394 35.19 35.5418 35.19ZM35.5531 33.5423C36.0152 33.5423 36.4016 33.4154 36.7122 33.1616C37.0228 32.904 37.2539 32.5593 37.4054 32.1275C37.5607 31.6957 37.6384 31.2146 37.6384 30.6843C37.6384 30.1502 37.5607 29.6673 37.4054 29.2354C37.2539 28.7998 37.0228 28.4532 36.7122 28.1957C36.4016 27.9381 36.0152 27.8093 35.5531 27.8093C35.0796 27.8093 34.6857 27.9381 34.3713 28.1957C34.0607 28.4532 33.8277 28.7998 33.6724 29.2354C33.5209 29.6673 33.4452 30.1502 33.4452 30.6843C33.4452 31.2146 33.5209 31.6957 33.6724 32.1275C33.8277 32.5593 34.0607 32.904 34.3713 33.1616C34.6857 33.4154 35.0796 33.5423 35.5531 33.5423ZM42.6205 35.0195L40.1545 26.2923H42.2511L43.7852 32.4286H43.8648L45.433 26.2923H47.5068L49.075 32.3945H49.1602L50.6716 26.2923H52.7739L50.3023 35.0195H48.1602L46.5239 29.1218H46.4045L44.7682 35.0195H42.6205ZM57.4236 35.19C56.5486 35.19 55.7929 35.0082 55.1565 34.6445C54.524 34.2771 54.0372 33.7582 53.6963 33.0877C53.3554 32.4135 53.1849 31.6199 53.1849 30.707C53.1849 29.8093 53.3554 29.0214 53.6963 28.3434C54.041 27.6616 54.5221 27.1313 55.1395 26.7525C55.7569 26.3699 56.4823 26.1786 57.3156 26.1786C57.8535 26.1786 58.3611 26.2657 58.8384 26.44C59.3194 26.6104 59.7437 26.8756 60.1111 27.2354C60.4823 27.5953 60.774 28.0536 60.9861 28.6104C61.1982 29.1635 61.3043 29.8226 61.3043 30.5877V31.2184H54.1509V29.832H59.3327C59.3289 29.4381 59.2437 29.0877 59.077 28.7809C58.9103 28.4703 58.6774 28.226 58.3781 28.0479C58.0827 27.8699 57.738 27.7809 57.344 27.7809C56.9236 27.7809 56.5543 27.8832 56.2361 28.0877C55.9179 28.2885 55.6698 28.5536 55.4918 28.8832C55.3175 29.2089 55.2285 29.5669 55.2247 29.957V31.1673C55.2247 31.6748 55.3175 32.1104 55.5031 32.4741C55.6887 32.8339 55.9482 33.1104 56.2815 33.3036C56.6149 33.493 57.005 33.5877 57.452 33.5877C57.7512 33.5877 58.0221 33.546 58.2645 33.4627C58.5069 33.3756 58.7171 33.2487 58.8952 33.082C59.0732 32.9154 59.2077 32.7089 59.2986 32.4627L61.219 32.6786C61.0978 33.1862 60.8668 33.6294 60.5259 34.0082C60.1887 34.3832 59.7569 34.6748 59.2304 34.8832C58.7039 35.0877 58.1016 35.19 57.4236 35.19ZM62.6443 35.0195V26.2923H64.6386V27.7468H64.7295C64.8886 27.243 65.1614 26.8548 65.5477 26.582C65.9379 26.3055 66.383 26.1673 66.883 26.1673C66.9966 26.1673 67.1235 26.1729 67.2636 26.1843C67.4076 26.1919 67.5269 26.2051 67.6216 26.2241V28.1161C67.5345 28.0858 67.3962 28.0593 67.2068 28.0366C67.0212 28.0101 66.8413 27.9968 66.667 27.9968C66.292 27.9968 65.9549 28.0782 65.6557 28.2411C65.3602 28.4002 65.1273 28.6218 64.9568 28.9059C64.7864 29.19 64.7011 29.5176 64.7011 29.8888V35.0195H62.6443ZM72.2477 35.0195V23.3832H76.7023C77.5432 23.3832 78.242 23.5157 78.7989 23.7809C79.3595 24.0423 79.778 24.4002 80.0545 24.8548C80.3348 25.3093 80.475 25.8245 80.475 26.4002C80.475 26.8737 80.3841 27.279 80.2023 27.6161C80.0205 27.9495 79.7761 28.2203 79.4693 28.4286C79.1625 28.637 78.8197 28.7866 78.4409 28.8775V28.9911C78.8538 29.0138 79.2496 29.1407 79.6284 29.3718C80.011 29.5991 80.3235 29.921 80.5659 30.3377C80.8083 30.7544 80.9295 31.2582 80.9295 31.8491C80.9295 32.4513 80.7837 32.993 80.492 33.4741C80.2004 33.9513 79.761 34.3282 79.1739 34.6048C78.5867 34.8813 77.8481 35.0195 76.958 35.0195H72.2477ZM74.3557 33.2582H76.6227C77.3879 33.2582 77.939 33.1123 78.2761 32.8207C78.617 32.5252 78.7875 32.1464 78.7875 31.6843C78.7875 31.3396 78.7023 31.029 78.5318 30.7525C78.3614 30.4722 78.1189 30.2525 77.8045 30.0934C77.4901 29.9305 77.1151 29.8491 76.6795 29.8491H74.3557V33.2582ZM74.3557 28.332H76.4409C76.8045 28.332 77.1322 28.2657 77.4239 28.1332C77.7155 27.9968 77.9447 27.8055 78.1114 27.5593C78.2818 27.3093 78.367 27.0138 78.367 26.6729C78.367 26.2222 78.208 25.851 77.8898 25.5593C77.5754 25.2676 77.1076 25.1218 76.4864 25.1218H74.3557V28.332ZM82.2724 35.0195V26.2923H84.3293V35.0195H82.2724ZM83.3065 25.0536C82.9808 25.0536 82.7005 24.9457 82.4656 24.7298C82.2308 24.5101 82.1134 24.2468 82.1134 23.94C82.1134 23.6294 82.2308 23.3661 82.4656 23.1502C82.7005 22.9305 82.9808 22.8207 83.3065 22.8207C83.6361 22.8207 83.9164 22.9305 84.1474 23.1502C84.3823 23.3661 84.4997 23.6294 84.4997 23.94C84.4997 24.2468 84.3823 24.5101 84.1474 24.7298C83.9164 24.9457 83.6361 25.0536 83.3065 25.0536Z"
        fill="#171717" />
      <path
        d="M23.0369 43.8157V52.543H21.7628V43.8157H23.0369ZM27.1082 52.6751C26.4945 52.6751 25.959 52.5344 25.5016 52.2532C25.0442 51.9719 24.6891 51.5785 24.4363 51.0728C24.1835 50.5671 24.057 49.9762 24.057 49.3001C24.057 48.6211 24.1835 48.0273 24.4363 47.5188C24.6891 47.0103 25.0442 46.6154 25.5016 46.3342C25.959 46.0529 26.4945 45.9123 27.1082 45.9123C27.7218 45.9123 28.2573 46.0529 28.7147 46.3342C29.1721 46.6154 29.5272 47.0103 29.78 47.5188C30.0329 48.0273 30.1593 48.6211 30.1593 49.3001C30.1593 49.9762 30.0329 50.5671 29.78 51.0728C29.5272 51.5785 29.1721 51.9719 28.7147 52.2532C28.2573 52.5344 27.7218 52.6751 27.1082 52.6751ZM27.1124 51.6055C27.5102 51.6055 27.8397 51.5004 28.1011 51.2901C28.3624 51.0799 28.5556 50.8001 28.6806 50.4506C28.8085 50.1012 28.8724 49.7163 28.8724 49.2958C28.8724 48.8782 28.8085 48.4947 28.6806 48.1452C28.5556 47.793 28.3624 47.5103 28.1011 47.2972C27.8397 47.0842 27.5102 46.9776 27.1124 46.9776C26.7119 46.9776 26.3795 47.0842 26.1153 47.2972C25.8539 47.5103 25.6593 47.793 25.5315 48.1452C25.4065 48.4947 25.344 48.8782 25.344 49.2958C25.344 49.7163 25.4065 50.1012 25.5315 50.4506C25.6593 50.8001 25.8539 51.0799 26.1153 51.2901C26.3795 51.5004 26.7119 51.6055 27.1124 51.6055ZM31.1815 52.543V45.9975H32.4131V47.0373H32.4812C32.6006 46.685 32.8108 46.408 33.1119 46.2063C33.4159 46.0018 33.7597 45.8995 34.1432 45.8995C34.2227 45.8995 34.3165 45.9023 34.4244 45.908C34.5352 45.9137 34.6219 45.9208 34.6844 45.9293V47.1481C34.6332 47.1339 34.5423 47.1183 34.4116 47.1012C34.281 47.0813 34.1503 47.0714 34.0196 47.0714C33.7185 47.0714 33.45 47.1353 33.2142 47.2631C32.9812 47.3881 32.7966 47.5629 32.6602 47.7873C32.5239 48.0089 32.4557 48.2617 32.4557 48.5458V52.543H31.1815ZM37.9737 52.6751C37.3288 52.6751 36.7734 52.5373 36.3075 52.2617C35.8444 51.9833 35.4864 51.5927 35.2336 51.0898C34.9836 50.5842 34.8586 49.9918 34.8586 49.3129C34.8586 48.6424 34.9836 48.0515 35.2336 47.5401C35.4864 47.0288 35.8387 46.6296 36.2904 46.3427C36.745 46.0558 37.2762 45.9123 37.8842 45.9123C38.2535 45.9123 38.6114 45.9734 38.958 46.0955C39.3046 46.2177 39.6157 46.4094 39.8913 46.6708C40.1668 46.9322 40.3842 47.2717 40.5433 47.6893C40.7023 48.104 40.7819 48.6083 40.7819 49.2021V49.6538H35.5788V48.6992H39.5333C39.5333 48.364 39.4651 48.0671 39.3288 47.8086C39.1924 47.5472 39.0006 47.3413 38.7535 47.1907C38.5092 47.0401 38.2222 46.9648 37.8927 46.9648C37.5347 46.9648 37.2222 47.0529 36.9552 47.229C36.691 47.4023 36.4864 47.6296 36.3415 47.9109C36.1995 48.1893 36.1285 48.4918 36.1285 48.8185V49.5643C36.1285 50.0018 36.2052 50.3739 36.3586 50.6808C36.5148 50.9876 36.7322 51.2219 37.0106 51.3839C37.289 51.543 37.6143 51.6225 37.9864 51.6225C38.2279 51.6225 38.4481 51.5884 38.6469 51.5202C38.8458 51.4492 39.0177 51.3441 39.1626 51.2049C39.3075 51.0657 39.4183 50.8938 39.495 50.6893L40.7009 50.9066C40.6043 51.2617 40.431 51.5728 40.181 51.8398C39.9339 52.104 39.6228 52.31 39.2478 52.4577C38.8756 52.6026 38.4509 52.6751 37.9737 52.6751ZM41.7956 52.543V45.9975H43.0186V47.0629H43.0996C43.2359 46.7021 43.4589 46.4208 43.7686 46.2191C44.0783 46.0146 44.449 45.9123 44.8808 45.9123C45.3183 45.9123 45.6848 46.0146 45.9803 46.2191C46.2786 46.4237 46.4987 46.7049 46.6408 47.0629H46.7089C46.8652 46.7134 47.1138 46.435 47.4547 46.2276C47.7956 46.0174 48.2018 45.9123 48.6734 45.9123C49.2672 45.9123 49.7516 46.0984 50.1266 46.4705C50.5044 46.8427 50.6933 47.4038 50.6933 48.1538V52.543H49.4192V48.2731C49.4192 47.8299 49.2984 47.5089 49.057 47.31C48.8155 47.1112 48.5271 47.0117 48.1919 47.0117C47.7771 47.0117 47.4547 47.1396 47.2246 47.3952C46.9945 47.6481 46.8794 47.9734 46.8794 48.3711V52.543H45.6095V48.1921C45.6095 47.837 45.4987 47.5515 45.2771 47.3356C45.0555 47.1197 44.7672 47.0117 44.4121 47.0117C44.1706 47.0117 43.9476 47.0756 43.743 47.2035C43.5413 47.3285 43.378 47.5032 43.253 47.7276C43.1308 47.9521 43.0697 48.212 43.0697 48.5075V52.543H41.7956ZM54.7768 52.543V45.9975H56.051V52.543H54.7768ZM55.4203 44.9876C55.1987 44.9876 55.0084 44.9137 54.8493 44.766C54.693 44.6154 54.6149 44.4364 54.6149 44.229C54.6149 44.0188 54.693 43.8398 54.8493 43.6921C55.0084 43.5415 55.1987 43.4663 55.4203 43.4663C55.6419 43.4663 55.8308 43.5415 55.9871 43.6921C56.1462 43.8398 56.2257 44.0188 56.2257 44.229C56.2257 44.4364 56.1462 44.6154 55.9871 44.766C55.8308 44.9137 55.6419 44.9876 55.4203 44.9876ZM57.3651 54.9975V45.9975H58.6094V47.0586H58.716C58.7898 46.9222 58.8964 46.7646 59.0356 46.5856C59.1748 46.4066 59.368 46.2504 59.6151 46.1168C59.8623 45.9805 60.189 45.9123 60.5952 45.9123C61.1237 45.9123 61.5952 46.0458 62.01 46.3129C62.4248 46.5799 62.7501 46.9648 62.9859 47.4677C63.2245 47.9705 63.3438 48.5756 63.3438 49.283C63.3438 49.9904 63.2259 50.5969 62.9901 51.1026C62.7543 51.6055 62.4305 51.9933 62.0185 52.266C61.6066 52.5359 61.1364 52.6708 60.608 52.6708C60.2103 52.6708 59.885 52.604 59.6322 52.4705C59.3822 52.337 59.1862 52.1808 59.0441 52.0018C58.9021 51.8228 58.7927 51.6637 58.716 51.5245H58.6393V54.9975H57.3651ZM58.6137 49.2702C58.6137 49.7305 58.6805 50.1339 58.814 50.4805C58.9475 50.8271 59.1407 51.0984 59.3935 51.2944C59.6464 51.4876 59.956 51.5842 60.3225 51.5842C60.7032 51.5842 61.0214 51.4833 61.2771 51.2816C61.5327 51.0771 61.7259 50.8001 61.8566 50.4506C61.9901 50.1012 62.0569 49.7077 62.0569 49.2702C62.0569 48.8384 61.9915 48.4506 61.8609 48.1069C61.733 47.7631 61.5398 47.4918 61.2813 47.293C61.0256 47.0941 60.706 46.9947 60.3225 46.9947C59.9532 46.9947 59.6407 47.0898 59.385 47.2802C59.1322 47.4705 58.9404 47.7362 58.8097 48.0771C58.679 48.418 58.6137 48.8157 58.6137 49.2702ZM69.2762 47.5955L68.1214 47.8001C68.0731 47.6523 67.9964 47.5117 67.8913 47.3782C67.789 47.2447 67.6498 47.1353 67.4737 47.0501C67.2975 46.9648 67.0773 46.9222 66.8131 46.9222C66.4523 46.9222 66.1512 47.0032 65.9097 47.1651C65.6683 47.3242 65.5475 47.5302 65.5475 47.783C65.5475 48.0018 65.6285 48.1779 65.7904 48.3114C65.9523 48.445 66.2137 48.5543 66.5745 48.6396L67.6143 48.8782C68.2165 49.0174 68.6654 49.2319 68.9609 49.5217C69.2563 49.8114 69.404 50.1879 69.404 50.6509C69.404 51.043 69.2904 51.3924 69.0631 51.6992C68.8387 52.0032 68.5248 52.2418 68.1214 52.4151C67.7208 52.5884 67.2563 52.6751 66.7279 52.6751C65.995 52.6751 65.3969 52.5188 64.9339 52.2063C64.4708 51.891 64.1867 51.4435 64.0816 50.864L65.3131 50.6765C65.3898 50.9975 65.5475 51.2404 65.7861 51.4052C66.0248 51.5671 66.3359 51.6481 66.7194 51.6481C67.137 51.6481 67.4708 51.5614 67.7208 51.3881C67.9708 51.212 68.0958 50.9975 68.0958 50.7447C68.0958 50.5401 68.0191 50.3683 67.8657 50.229C67.7151 50.0898 67.4836 49.9847 67.1711 49.9137L66.0631 49.6708C65.4523 49.5316 65.0006 49.31 64.708 49.006C64.4183 48.7021 64.2734 48.3171 64.2734 47.8512C64.2734 47.4648 64.3813 47.1268 64.5972 46.837C64.8131 46.5472 65.1114 46.3214 65.4921 46.1594C65.8728 45.9947 66.3089 45.9123 66.8004 45.9123C67.5077 45.9123 68.0646 46.0657 68.4708 46.3725C68.8771 46.6765 69.1455 47.0842 69.2762 47.5955ZM74.5513 49.8285V45.9975H75.8297V52.543H74.5768V51.4094H74.5087C74.3581 51.7589 74.1166 52.0501 73.7842 52.283C73.4547 52.5131 73.0442 52.6282 72.5527 52.6282C72.1322 52.6282 71.7601 52.5359 71.4362 52.3512C71.1152 52.1637 70.8624 51.8867 70.6777 51.5202C70.4959 51.1538 70.405 50.7006 70.405 50.1609V45.9975H71.6791V50.0075C71.6791 50.4535 71.8027 50.8086 72.0499 51.0728C72.297 51.337 72.618 51.4691 73.0129 51.4691C73.2516 51.4691 73.4888 51.4094 73.7246 51.2901C73.9632 51.1708 74.1607 50.9904 74.3169 50.7489C74.476 50.5075 74.5541 50.2006 74.5513 49.8285ZM77.1417 52.543V45.9975H78.3647V47.0629H78.4457C78.582 46.7021 78.805 46.4208 79.1147 46.2191C79.4244 46.0146 79.7951 45.9123 80.2269 45.9123C80.6644 45.9123 81.0309 46.0146 81.3263 46.2191C81.6246 46.4237 81.8448 46.7049 81.9869 47.0629H82.055C82.2113 46.7134 82.4599 46.435 82.8008 46.2276C83.1417 46.0174 83.5479 45.9123 84.0195 45.9123C84.6133 45.9123 85.0977 46.0984 85.4727 46.4705C85.8505 46.8427 86.0394 47.4038 86.0394 48.1538V52.543H84.7653V48.2731C84.7653 47.8299 84.6445 47.5089 84.4031 47.31C84.1616 47.1112 83.8732 47.0117 83.538 47.0117C83.1232 47.0117 82.8008 47.1396 82.5707 47.3952C82.3406 47.6481 82.2255 47.9734 82.2255 48.3711V52.543H80.9556V48.1921C80.9556 47.837 80.8448 47.5515 80.6232 47.3356C80.4016 47.1197 80.1133 47.0117 79.7582 47.0117C79.5167 47.0117 79.2937 47.0756 79.0891 47.2035C78.8874 47.3285 78.7241 47.5032 78.5991 47.7276C78.4769 47.9521 78.4158 48.212 78.4158 48.5075V52.543H77.1417ZM92.5732 52.6708C92.0448 52.6708 91.5732 52.5359 91.1584 52.266C90.7465 51.9933 90.4227 51.6055 90.1869 51.1026C89.9539 50.5969 89.8374 49.9904 89.8374 49.283C89.8374 48.5756 89.9553 47.9705 90.1911 47.4677C90.4298 46.9648 90.7565 46.5799 91.1712 46.3129C91.586 46.0458 92.0562 45.9123 92.5817 45.9123C92.988 45.9123 93.3147 45.9805 93.5619 46.1168C93.8119 46.2504 94.005 46.4066 94.1414 46.5856C94.2806 46.7646 94.3886 46.9222 94.4653 47.0586H94.542V43.8157H95.8161V52.543H94.5718V51.5245H94.4653C94.3886 51.6637 94.2778 51.8228 94.1329 52.0018C93.9908 52.1808 93.7948 52.337 93.5448 52.4705C93.2948 52.604 92.9709 52.6708 92.5732 52.6708ZM92.8545 51.5842C93.2209 51.5842 93.5306 51.4876 93.7834 51.2944C94.0391 51.0984 94.2323 50.8271 94.363 50.4805C94.4965 50.1339 94.5633 49.7305 94.5633 49.2702C94.5633 48.8157 94.4979 48.418 94.3673 48.0771C94.2366 47.7362 94.0448 47.4705 93.792 47.2802C93.5391 47.0898 93.2266 46.9947 92.8545 46.9947C92.4709 46.9947 92.1513 47.0941 91.8957 47.293C91.64 47.4918 91.4468 47.7631 91.3161 48.1069C91.1883 48.4506 91.1244 48.8384 91.1244 49.2702C91.1244 49.7077 91.1897 50.1012 91.3204 50.4506C91.4511 50.8001 91.6442 51.0771 91.8999 51.2816C92.1584 51.4833 92.4766 51.5842 92.8545 51.5842ZM99.9918 52.6751C99.3781 52.6751 98.8426 52.5344 98.3852 52.2532C97.9278 51.9719 97.5727 51.5785 97.3199 51.0728C97.067 50.5671 96.9406 49.9762 96.9406 49.3001C96.9406 48.6211 97.067 48.0273 97.3199 47.5188C97.5727 47.0103 97.9278 46.6154 98.3852 46.3342C98.8426 46.0529 99.3781 45.9123 99.9918 45.9123C100.605 45.9123 101.141 46.0529 101.598 46.3342C102.056 46.6154 102.411 47.0103 102.664 47.5188C102.916 48.0273 103.043 48.6211 103.043 49.3001C103.043 49.9762 102.916 50.5671 102.664 51.0728C102.411 51.5785 102.056 51.9719 101.598 52.2532C101.141 52.5344 100.605 52.6751 99.9918 52.6751ZM99.996 51.6055C100.394 51.6055 100.723 51.5004 100.985 51.2901C101.246 51.0799 101.439 50.8001 101.564 50.4506C101.692 50.1012 101.756 49.7163 101.756 49.2958C101.756 48.8782 101.692 48.4947 101.564 48.1452C101.439 47.793 101.246 47.5103 100.985 47.2972C100.723 47.0842 100.394 46.9776 99.996 46.9776C99.5955 46.9776 99.2631 47.0842 98.9989 47.2972C98.7375 47.5103 98.5429 47.793 98.4151 48.1452C98.2901 48.4947 98.2276 48.8782 98.2276 49.2958C98.2276 49.7163 98.2901 50.1012 98.4151 50.4506C98.5429 50.8001 98.7375 51.0799 98.9989 51.2901C99.2631 51.5004 99.5955 51.6055 99.996 51.6055ZM105.339 43.8157V52.543H104.065V43.8157H105.339ZM109.411 52.6751C108.797 52.6751 108.261 52.5344 107.804 52.2532C107.347 51.9719 106.991 51.5785 106.739 51.0728C106.486 50.5671 106.359 49.9762 106.359 49.3001C106.359 48.6211 106.486 48.0273 106.739 47.5188C106.991 47.0103 107.347 46.6154 107.804 46.3342C108.261 46.0529 108.797 45.9123 109.411 45.9123C110.024 45.9123 110.56 46.0529 111.017 46.3342C111.474 46.6154 111.83 47.0103 112.082 47.5188C112.335 48.0273 112.462 48.6211 112.462 49.3001C112.462 49.9762 112.335 50.5671 112.082 51.0728C111.83 51.5785 111.474 51.9719 111.017 52.2532C110.56 52.5344 110.024 52.6751 109.411 52.6751ZM109.415 51.6055C109.813 51.6055 110.142 51.5004 110.403 51.2901C110.665 51.0799 110.858 50.8001 110.983 50.4506C111.111 50.1012 111.175 49.7163 111.175 49.2958C111.175 48.8782 111.111 48.4947 110.983 48.1452C110.858 47.793 110.665 47.5103 110.403 47.2972C110.142 47.0842 109.813 46.9776 109.415 46.9776C109.014 46.9776 108.682 47.0842 108.418 47.2972C108.156 47.5103 107.962 47.793 107.834 48.1452C107.709 48.4947 107.646 48.8782 107.646 49.2958C107.646 49.7163 107.709 50.1012 107.834 50.4506C107.962 50.8001 108.156 51.0799 108.418 51.2901C108.682 51.5004 109.014 51.6055 109.415 51.6055ZM113.484 52.543V45.9975H114.715V47.0373H114.784C114.903 46.685 115.113 46.408 115.414 46.2063C115.718 46.0018 116.062 45.8995 116.446 45.8995C116.525 45.8995 116.619 45.9023 116.727 45.908C116.838 45.9137 116.924 45.9208 116.987 45.9293V47.1481C116.936 47.1339 116.845 47.1183 116.714 47.1012C116.583 47.0813 116.453 47.0714 116.322 47.0714C116.021 47.0714 115.752 47.1353 115.517 47.2631C115.284 47.3881 115.099 47.5629 114.963 47.7873C114.826 48.0089 114.758 48.2617 114.758 48.5458V52.543H113.484ZM120.276 52.6751C119.631 52.6751 119.076 52.5373 118.61 52.2617C118.147 51.9833 117.789 51.5927 117.536 51.0898C117.286 50.5842 117.161 49.9918 117.161 49.3129C117.161 48.6424 117.286 48.0515 117.536 47.5401C117.789 47.0288 118.141 46.6296 118.593 46.3427C119.047 46.0558 119.579 45.9123 120.187 45.9123C120.556 45.9123 120.914 45.9734 121.26 46.0955C121.607 46.2177 121.918 46.4094 122.194 46.6708C122.469 46.9322 122.687 47.2717 122.846 47.6893C123.005 48.104 123.084 48.6083 123.084 49.2021V49.6538H117.881V48.6992H121.836C121.836 48.364 121.767 48.0671 121.631 47.8086C121.495 47.5472 121.303 47.3413 121.056 47.1907C120.812 47.0401 120.525 46.9648 120.195 46.9648C119.837 46.9648 119.525 47.0529 119.258 47.229C118.993 47.4023 118.789 47.6296 118.644 47.9109C118.502 48.1893 118.431 48.4918 118.431 48.8185V49.5643C118.431 50.0018 118.508 50.3739 118.661 50.6808C118.817 50.9876 119.035 51.2219 119.313 51.3839C119.591 51.543 119.917 51.6225 120.289 51.6225C120.53 51.6225 120.75 51.5884 120.949 51.5202C121.148 51.4492 121.32 51.3441 121.465 51.2049C121.61 51.0657 121.721 50.8938 121.797 50.6893L123.003 50.9066C122.907 51.2617 122.733 51.5728 122.483 51.8398C122.236 52.104 121.925 52.31 121.55 52.4577C121.178 52.6026 120.753 52.6751 120.276 52.6751ZM129.003 47.5955L127.848 47.8001C127.8 47.6523 127.723 47.5117 127.618 47.3782C127.516 47.2447 127.376 47.1353 127.2 47.0501C127.024 46.9648 126.804 46.9222 126.54 46.9222C126.179 46.9222 125.878 47.0032 125.636 47.1651C125.395 47.3242 125.274 47.5302 125.274 47.783C125.274 48.0018 125.355 48.1779 125.517 48.3114C125.679 48.445 125.94 48.5543 126.301 48.6396L127.341 48.8782C127.943 49.0174 128.392 49.2319 128.687 49.5217C128.983 49.8114 129.131 50.1879 129.131 50.6509C129.131 51.043 129.017 51.3924 128.79 51.6992C128.565 52.0032 128.251 52.2418 127.848 52.4151C127.447 52.5884 126.983 52.6751 126.454 52.6751C125.722 52.6751 125.124 52.5188 124.66 52.2063C124.197 51.891 123.913 51.4435 123.808 50.864L125.04 50.6765C125.116 50.9975 125.274 51.2404 125.513 51.4052C125.751 51.5671 126.062 51.6481 126.446 51.6481C126.864 51.6481 127.197 51.5614 127.447 51.3881C127.697 51.212 127.822 50.9975 127.822 50.7447C127.822 50.5401 127.746 50.3683 127.592 50.229C127.442 50.0898 127.21 49.9847 126.898 49.9137L125.79 49.6708C125.179 49.5316 124.727 49.31 124.435 49.006C124.145 48.7021 124 48.3171 124 47.8512C124 47.4648 124.108 47.1268 124.324 46.837C124.54 46.5472 124.838 46.3214 125.219 46.1594C125.599 45.9947 126.035 45.9123 126.527 45.9123C127.234 45.9123 127.791 46.0657 128.197 46.3725C128.604 46.6765 128.872 47.0842 129.003 47.5955Z"
        fill="#B9B9B9" />
      <rect x="13" y="67" width="270" height="52" fill="white" />
      <path
        d="M33.8608 88V79.2727H35.4418V86.6747H39.2855V88H33.8608ZM43.0446 88.1278C42.4054 88.1278 41.8514 87.9872 41.3827 87.706C40.9139 87.4247 40.5503 87.0312 40.2918 86.5256C40.0361 86.0199 39.9082 85.429 39.9082 84.7528C39.9082 84.0767 40.0361 83.4844 40.2918 82.9759C40.5503 82.4673 40.9139 82.0724 41.3827 81.7912C41.8514 81.5099 42.4054 81.3693 43.0446 81.3693C43.6838 81.3693 44.2378 81.5099 44.7065 81.7912C45.1753 82.0724 45.5375 82.4673 45.7932 82.9759C46.0517 83.4844 46.181 84.0767 46.181 84.7528C46.181 85.429 46.0517 86.0199 45.7932 86.5256C45.5375 87.0312 45.1753 87.4247 44.7065 87.706C44.2378 87.9872 43.6838 88.1278 43.0446 88.1278ZM43.0531 86.892C43.3997 86.892 43.6895 86.7969 43.9224 86.6065C44.1554 86.4134 44.3287 86.1548 44.4423 85.831C44.5588 85.5071 44.617 85.1463 44.617 84.7486C44.617 84.348 44.5588 83.9858 44.4423 83.6619C44.3287 83.3352 44.1554 83.0753 43.9224 82.8821C43.6895 82.6889 43.3997 82.5923 43.0531 82.5923C42.698 82.5923 42.4026 82.6889 42.1668 82.8821C41.9338 83.0753 41.7591 83.3352 41.6426 83.6619C41.529 83.9858 41.4722 84.348 41.4722 84.7486C41.4722 85.1463 41.529 85.5071 41.6426 85.831C41.7591 86.1548 41.9338 86.4134 42.1668 86.6065C42.4026 86.7969 42.698 86.892 43.0531 86.892ZM47.0903 88V81.4545H48.586V82.5455H48.6542C48.7735 82.1676 48.9781 81.8764 49.2678 81.6719C49.5604 81.4645 49.8942 81.3608 50.2692 81.3608C50.3545 81.3608 50.4496 81.3651 50.5548 81.3736C50.6627 81.3793 50.7522 81.3892 50.8232 81.4034V82.8224C50.7579 82.7997 50.6542 82.7798 50.5121 82.7628C50.3729 82.7429 50.238 82.733 50.1073 82.733C49.8261 82.733 49.5732 82.794 49.3488 82.9162C49.1272 83.0355 48.9525 83.2017 48.8246 83.4148C48.6968 83.6278 48.6329 83.8736 48.6329 84.152V88H47.0903ZM54.0763 88.1278C53.42 88.1278 52.8533 87.9915 52.376 87.7188C51.9016 87.4432 51.5365 87.054 51.2808 86.5511C51.0251 86.0455 50.8973 85.4503 50.8973 84.7656C50.8973 84.0923 51.0251 83.5014 51.2808 82.9929C51.5393 82.4815 51.9001 82.0838 52.3632 81.7997C52.8263 81.5128 53.3703 81.3693 53.9953 81.3693C54.3987 81.3693 54.7794 81.4347 55.1374 81.5653C55.4982 81.6932 55.8163 81.892 56.0919 82.1619C56.3703 82.4318 56.5891 82.7756 56.7482 83.1932C56.9072 83.608 56.9868 84.1023 56.9868 84.6761V85.1491H51.6217V84.1094H55.5081C55.5053 83.8139 55.4413 83.5511 55.3163 83.321C55.1913 83.0881 55.0166 82.9048 54.7922 82.7713C54.5706 82.6378 54.3121 82.571 54.0166 82.571C53.7013 82.571 53.4243 82.6477 53.1857 82.8011C52.947 82.9517 52.7609 83.1506 52.6274 83.3977C52.4967 83.642 52.43 83.9105 52.4271 84.2031V85.1108C52.4271 85.4915 52.4967 85.8182 52.6359 86.0909C52.7751 86.3608 52.9697 86.5682 53.2197 86.7131C53.4697 86.8551 53.7624 86.9261 54.0976 86.9261C54.322 86.9261 54.5251 86.8949 54.707 86.8324C54.8888 86.767 55.0464 86.6719 55.18 86.5469C55.3135 86.4219 55.4143 86.267 55.4825 86.0824L56.9229 86.2443C56.832 86.625 56.6587 86.9574 56.403 87.2415C56.1501 87.5227 55.8263 87.7415 55.4314 87.8977C55.0365 88.0511 54.5848 88.1278 54.0763 88.1278ZM57.8918 88V81.4545H59.3663V82.5668H59.443C59.5793 82.1918 59.8052 81.8991 60.1205 81.6889C60.4359 81.4759 60.8123 81.3693 61.2498 81.3693C61.693 81.3693 62.0665 81.4773 62.3705 81.6932C62.6773 81.9062 62.8933 82.1974 63.0183 82.5668H63.0864C63.2313 82.2031 63.4756 81.9134 63.8194 81.6974C64.166 81.4787 64.5765 81.3693 65.0509 81.3693C65.6532 81.3693 66.1447 81.5597 66.5254 81.9403C66.906 82.321 67.0964 82.8764 67.0964 83.6065V88H65.5495V83.8452C65.5495 83.4389 65.4415 83.142 65.2256 82.9545C65.0097 82.7642 64.7455 82.669 64.433 82.669C64.0609 82.669 63.7697 82.7855 63.5594 83.0185C63.3521 83.2486 63.2484 83.5483 63.2484 83.9176V88H61.7356V83.7812C61.7356 83.4432 61.6333 83.1733 61.4288 82.9716C61.2271 82.7699 60.9629 82.669 60.6362 82.669C60.4146 82.669 60.2129 82.7259 60.031 82.8395C59.8492 82.9503 59.7043 83.108 59.5964 83.3125C59.4884 83.5142 59.4344 83.75 59.4344 84.0199V88H57.8918Z"
        fill="#171717" />
      <path
        d="M36.75 106H34.0568V97.2727H36.8693C37.7159 97.2727 38.4403 97.4474 39.0426 97.7969C39.6449 98.1435 40.1065 98.642 40.4276 99.2926C40.7486 99.9403 40.9091 100.716 40.9091 101.619C40.9091 102.528 40.7472 103.311 40.4233 103.967C40.0994 104.621 39.6278 105.124 39.0085 105.476C38.3892 105.825 37.6364 106 36.75 106ZM35.1136 105.062H36.6818C37.4034 105.062 38.0014 104.923 38.4759 104.645C38.9503 104.366 39.304 103.97 39.5369 103.456C39.7699 102.942 39.8864 102.33 39.8864 101.619C39.8864 100.915 39.7713 100.308 39.5412 99.7997C39.3111 99.2884 38.9673 98.8963 38.5099 98.6236C38.0526 98.348 37.483 98.2102 36.8011 98.2102H35.1136V105.062ZM44.0716 106.153C43.6568 106.153 43.2804 106.075 42.9423 105.919C42.6043 105.76 42.3358 105.531 42.1369 105.233C41.9381 104.932 41.8386 104.568 41.8386 104.142C41.8386 103.767 41.9125 103.463 42.0602 103.23C42.208 102.994 42.4054 102.81 42.6526 102.676C42.8997 102.543 43.1724 102.443 43.4707 102.378C43.7719 102.31 44.0744 102.256 44.3784 102.216C44.7761 102.165 45.0986 102.126 45.3457 102.101C45.5957 102.072 45.7776 102.026 45.8912 101.96C46.0077 101.895 46.0659 101.781 46.0659 101.619V101.585C46.0659 101.165 45.9509 100.838 45.7207 100.605C45.4935 100.372 45.1483 100.256 44.6852 100.256C44.2051 100.256 43.8287 100.361 43.556 100.571C43.2832 100.781 43.0915 101.006 42.9807 101.244L42.0261 100.903C42.1966 100.506 42.4239 100.196 42.708 99.9744C42.9949 99.75 43.3074 99.5937 43.6455 99.5057C43.9864 99.4148 44.3216 99.3693 44.6511 99.3693C44.8614 99.3693 45.1028 99.3949 45.3756 99.446C45.6511 99.4943 45.9168 99.5952 46.1724 99.7486C46.431 99.902 46.6455 100.134 46.8159 100.443C46.9864 100.753 47.0716 101.168 47.0716 101.688V106H46.0659V105.114H46.0148C45.9466 105.256 45.833 105.408 45.6739 105.57C45.5148 105.732 45.3031 105.869 45.0389 105.983C44.7747 106.097 44.4523 106.153 44.0716 106.153ZM44.225 105.25C44.6227 105.25 44.958 105.172 45.2307 105.016C45.5063 104.859 45.7136 104.658 45.8528 104.411C45.9949 104.163 46.0659 103.903 46.0659 103.631V102.71C46.0233 102.761 45.9295 102.808 45.7847 102.851C45.6426 102.891 45.4778 102.926 45.2903 102.957C45.1057 102.986 44.9253 103.011 44.7491 103.034C44.5759 103.054 44.4352 103.071 44.3273 103.085C44.0659 103.119 43.8216 103.175 43.5943 103.251C43.3699 103.325 43.1881 103.437 43.0489 103.588C42.9125 103.736 42.8443 103.937 42.8443 104.193C42.8443 104.543 42.9736 104.807 43.2321 104.986C43.4935 105.162 43.8244 105.25 44.225 105.25ZM48.5072 106V99.4545H49.5129V106H48.5072ZM49.0185 98.3636C48.8225 98.3636 48.6535 98.2969 48.5114 98.1634C48.3722 98.0298 48.3026 97.8693 48.3026 97.6818C48.3026 97.4943 48.3722 97.3338 48.5114 97.2003C48.6535 97.0668 48.8225 97 49.0185 97C49.2146 97 49.3822 97.0668 49.5214 97.2003C49.6634 97.3338 49.7344 97.4943 49.7344 97.6818C49.7344 97.8693 49.6634 98.0298 49.5214 98.1634C49.3822 98.2969 49.2146 98.3636 49.0185 98.3636ZM51.9605 97.2727V106H50.9548V97.2727H51.9605ZM53.4025 106V99.4545H54.4082V106H53.4025ZM53.9138 98.3636C53.7178 98.3636 53.5488 98.2969 53.4067 98.1634C53.2675 98.0298 53.1979 97.8693 53.1979 97.6818C53.1979 97.4943 53.2675 97.3338 53.4067 97.2003C53.5488 97.0668 53.7178 97 53.9138 97C54.1099 97 54.2775 97.0668 54.4167 97.2003C54.5587 97.3338 54.6298 97.4943 54.6298 97.6818C54.6298 97.8693 54.5587 98.0298 54.4167 98.1634C54.2775 98.2969 54.1099 98.3636 53.9138 98.3636ZM56.4979 108.455C56.3274 108.455 56.1754 108.44 56.0419 108.412C55.9084 108.386 55.8161 108.361 55.7649 108.335L56.0206 107.449C56.2649 107.511 56.4808 107.534 56.6683 107.517C56.8558 107.5 57.022 107.416 57.1669 107.266C57.3146 107.118 57.4496 106.878 57.5717 106.545L57.7592 106.034L55.3388 99.4545H56.4297L58.2365 104.67H58.3047L60.1115 99.4545H61.2024L58.424 106.955C58.299 107.293 58.1442 107.572 57.9595 107.794C57.7749 108.018 57.5604 108.185 57.3161 108.293C57.0746 108.401 56.8018 108.455 56.4979 108.455ZM66.1105 97.2727V106H65.1048V97.2727H66.1105ZM67.5525 106V99.4545H68.5582V106H67.5525ZM68.0638 98.3636C67.8678 98.3636 67.6988 98.2969 67.5567 98.1634C67.4175 98.0298 67.3479 97.8693 67.3479 97.6818C67.3479 97.4943 67.4175 97.3338 67.5567 97.2003C67.6988 97.0668 67.8678 97 68.0638 97C68.2599 97 68.4275 97.0668 68.5667 97.2003C68.7087 97.3338 68.7798 97.4943 68.7798 97.6818C68.7798 97.8693 68.7087 98.0298 68.5667 98.1634C68.4275 98.2969 68.2599 98.3636 68.0638 98.3636ZM72.9149 99.4545V100.307H69.3865V99.4545H72.9149ZM70.4433 106V98.5511C70.4433 98.1761 70.5314 97.8636 70.7075 97.6136C70.8837 97.3636 71.1124 97.1761 71.3936 97.0511C71.6749 96.9261 71.9717 96.8636 72.2842 96.8636C72.5314 96.8636 72.7331 96.8835 72.8893 96.9233C73.0456 96.9631 73.1621 97 73.2388 97.0341L72.949 97.9034C72.8979 97.8864 72.8268 97.8651 72.7359 97.8395C72.6479 97.8139 72.5314 97.8011 72.3865 97.8011C72.0541 97.8011 71.8141 97.8849 71.6663 98.0526C71.5215 98.2202 71.449 98.4659 71.449 98.7898V106H70.4433ZM76.3991 106.136C75.7685 106.136 75.2244 105.997 74.767 105.719C74.3125 105.438 73.9616 105.045 73.7145 104.543C73.4702 104.037 73.348 103.449 73.348 102.778C73.348 102.108 73.4702 101.517 73.7145 101.006C73.9616 100.491 74.3054 100.091 74.7457 99.804C75.1889 99.5142 75.706 99.3693 76.2969 99.3693C76.6378 99.3693 76.9744 99.4261 77.3068 99.5398C77.6392 99.6534 77.9418 99.8381 78.2145 100.094C78.4872 100.347 78.7045 100.682 78.8665 101.099C79.0284 101.517 79.1094 102.031 79.1094 102.642V103.068H74.0639V102.199H78.0866C78.0866 101.83 78.0128 101.5 77.8651 101.21C77.7202 100.92 77.5128 100.692 77.2429 100.524C76.9759 100.357 76.6605 100.273 76.2969 100.273C75.8963 100.273 75.5497 100.372 75.2571 100.571C74.9673 100.767 74.7443 101.023 74.5881 101.338C74.4318 101.653 74.3537 101.991 74.3537 102.352V102.932C74.3537 103.426 74.4389 103.845 74.6094 104.189C74.7827 104.53 75.0227 104.79 75.3295 104.969C75.6364 105.145 75.9929 105.233 76.3991 105.233C76.6634 105.233 76.902 105.196 77.1151 105.122C77.331 105.045 77.517 104.932 77.6733 104.781C77.8295 104.628 77.9503 104.437 78.0355 104.21L79.0071 104.483C78.9048 104.812 78.733 105.102 78.4915 105.352C78.25 105.599 77.9517 105.793 77.5966 105.932C77.2415 106.068 76.8423 106.136 76.3991 106.136ZM84.8756 100.92L83.9722 101.176C83.9153 101.026 83.8315 100.879 83.7207 100.737C83.6128 100.592 83.4651 100.473 83.2776 100.379C83.0901 100.286 82.85 100.239 82.5574 100.239C82.1568 100.239 81.823 100.331 81.556 100.516C81.2918 100.697 81.1597 100.929 81.1597 101.21C81.1597 101.46 81.2506 101.658 81.4324 101.803C81.6142 101.947 81.8983 102.068 82.2847 102.165L83.2562 102.403C83.8415 102.545 84.2776 102.763 84.5645 103.055C84.8514 103.345 84.9949 103.719 84.9949 104.176C84.9949 104.551 84.8869 104.886 84.671 105.182C84.458 105.477 84.1597 105.71 83.7761 105.881C83.3926 106.051 82.9466 106.136 82.4381 106.136C81.7705 106.136 81.2179 105.991 80.7804 105.702C80.3429 105.412 80.0659 104.989 79.9494 104.432L80.904 104.193C80.9949 104.545 81.1668 104.81 81.4196 104.986C81.6753 105.162 82.0091 105.25 82.421 105.25C82.8898 105.25 83.2619 105.151 83.5375 104.952C83.8159 104.75 83.9551 104.509 83.9551 104.227C83.9551 104 83.8756 103.81 83.7165 103.656C83.5574 103.5 83.3131 103.384 82.9835 103.307L81.8926 103.051C81.2932 102.909 80.8528 102.689 80.5716 102.391C80.2932 102.089 80.154 101.713 80.154 101.261C80.154 100.892 80.2577 100.565 80.4651 100.281C80.6753 99.9972 80.9608 99.7741 81.3216 99.6122C81.6852 99.4503 82.0972 99.3693 82.5574 99.3693C83.2051 99.3693 83.7136 99.5114 84.083 99.7955C84.4551 100.08 84.7193 100.455 84.8756 100.92ZM88.9553 99.4545V100.307H85.5633V99.4545H88.9553ZM86.5519 97.8864H87.5576V104.125C87.5576 104.409 87.5988 104.622 87.6812 104.764C87.7664 104.903 87.8744 104.997 88.005 105.045C88.1386 105.091 88.2792 105.114 88.4269 105.114C88.5377 105.114 88.6286 105.108 88.6996 105.097C88.7707 105.082 88.8275 105.071 88.8701 105.062L89.0746 105.966C89.0065 105.991 88.9113 106.017 88.7891 106.043C88.667 106.071 88.5121 106.085 88.3246 106.085C88.0406 106.085 87.7621 106.024 87.4894 105.902C87.2195 105.78 86.9951 105.594 86.8161 105.344C86.64 105.094 86.5519 104.778 86.5519 104.398V97.8864ZM90.7158 108.455C90.5454 108.455 90.3934 108.44 90.2599 108.412C90.1263 108.386 90.034 108.361 89.9829 108.335L90.2386 107.449C90.4829 107.511 90.6988 107.534 90.8863 107.517C91.0738 107.5 91.24 107.416 91.3849 107.266C91.5326 107.118 91.6675 106.878 91.7897 106.545L91.9772 106.034L89.5567 99.4545H90.6477L92.4545 104.67H92.5227L94.3295 99.4545H95.4204L92.642 106.955C92.517 107.293 92.3621 107.572 92.1775 107.794C91.9928 108.018 91.7783 108.185 91.534 108.293C91.2925 108.401 91.0198 108.455 90.7158 108.455ZM97.3535 97.2727V106H96.3478V97.2727H97.3535ZM101.54 106.136C100.909 106.136 100.365 105.997 99.9077 105.719C99.4531 105.438 99.1023 105.045 98.8551 104.543C98.6108 104.037 98.4886 103.449 98.4886 102.778C98.4886 102.108 98.6108 101.517 98.8551 101.006C99.1023 100.491 99.446 100.091 99.8864 99.804C100.33 99.5142 100.847 99.3693 101.438 99.3693C101.778 99.3693 102.115 99.4261 102.447 99.5398C102.78 99.6534 103.082 99.8381 103.355 100.094C103.628 100.347 103.845 100.682 104.007 101.099C104.169 101.517 104.25 102.031 104.25 102.642V103.068H99.2045V102.199H103.227C103.227 101.83 103.153 101.5 103.006 101.21C102.861 100.92 102.653 100.692 102.384 100.524C102.116 100.357 101.801 100.273 101.438 100.273C101.037 100.273 100.69 100.372 100.398 100.571C100.108 100.767 99.8849 101.023 99.7287 101.338C99.5724 101.653 99.4943 101.991 99.4943 102.352V102.932C99.4943 103.426 99.5795 103.845 99.75 104.189C99.9233 104.53 100.163 104.79 100.47 104.969C100.777 105.145 101.134 105.233 101.54 105.233C101.804 105.233 102.043 105.196 102.256 105.122C102.472 105.045 102.658 104.932 102.814 104.781C102.97 104.628 103.091 104.437 103.176 104.21L104.148 104.483C104.045 104.812 103.874 105.102 103.632 105.352C103.391 105.599 103.092 105.793 102.737 105.932C102.382 106.068 101.983 106.136 101.54 106.136ZM110.281 106.153C109.866 106.153 109.49 106.075 109.152 105.919C108.814 105.76 108.545 105.531 108.346 105.233C108.147 104.932 108.048 104.568 108.048 104.142C108.048 103.767 108.122 103.463 108.27 103.23C108.417 102.994 108.615 102.81 108.862 102.676C109.109 102.543 109.382 102.443 109.68 102.378C109.981 102.31 110.284 102.256 110.588 102.216C110.986 102.165 111.308 102.126 111.555 102.101C111.805 102.072 111.987 102.026 112.101 101.96C112.217 101.895 112.275 101.781 112.275 101.619V101.585C112.275 101.165 112.16 100.838 111.93 100.605C111.703 100.372 111.358 100.256 110.895 100.256C110.414 100.256 110.038 100.361 109.765 100.571C109.493 100.781 109.301 101.006 109.19 101.244L108.236 100.903C108.406 100.506 108.633 100.196 108.917 99.9744C109.204 99.75 109.517 99.5937 109.855 99.5057C110.196 99.4148 110.531 99.3693 110.861 99.3693C111.071 99.3693 111.312 99.3949 111.585 99.446C111.861 99.4943 112.126 99.5952 112.382 99.7486C112.64 99.902 112.855 100.134 113.025 100.443C113.196 100.753 113.281 101.168 113.281 101.688V106H112.275V105.114H112.224C112.156 105.256 112.042 105.408 111.883 105.57C111.724 105.732 111.512 105.869 111.248 105.983C110.984 106.097 110.662 106.153 110.281 106.153ZM110.434 105.25C110.832 105.25 111.167 105.172 111.44 105.016C111.716 104.859 111.923 104.658 112.062 104.411C112.204 104.163 112.275 103.903 112.275 103.631V102.71C112.233 102.761 112.139 102.808 111.994 102.851C111.852 102.891 111.687 102.926 111.5 102.957C111.315 102.986 111.135 103.011 110.959 103.034C110.785 103.054 110.645 103.071 110.537 103.085C110.275 103.119 110.031 103.175 109.804 103.251C109.579 103.325 109.397 103.437 109.258 103.588C109.122 103.736 109.054 103.937 109.054 104.193C109.054 104.543 109.183 104.807 109.441 104.986C109.703 105.162 110.034 105.25 110.434 105.25ZM114.717 106V99.4545H115.688V100.443H115.756C115.876 100.119 116.092 99.8565 116.404 99.6548C116.717 99.4531 117.069 99.3523 117.461 99.3523C117.535 99.3523 117.627 99.3537 117.738 99.3565C117.849 99.3594 117.932 99.3636 117.989 99.3693V100.392C117.955 100.384 117.877 100.371 117.755 100.354C117.636 100.334 117.509 100.324 117.376 100.324C117.057 100.324 116.773 100.391 116.523 100.524C116.276 100.655 116.08 100.837 115.935 101.07C115.793 101.3 115.722 101.562 115.722 101.858V106H114.717ZM122.038 99.4545V100.307H118.646V99.4545H122.038ZM119.635 97.8864H120.64V104.125C120.64 104.409 120.682 104.622 120.764 104.764C120.849 104.903 120.957 104.997 121.088 105.045C121.221 105.091 121.362 105.114 121.51 105.114C121.621 105.114 121.711 105.108 121.782 105.097C121.853 105.082 121.91 105.071 121.953 105.062L122.157 105.966C122.089 105.991 121.994 106.017 121.872 106.043C121.75 106.071 121.595 106.085 121.407 106.085C121.123 106.085 120.845 106.024 120.572 105.902C120.302 105.78 120.078 105.594 119.899 105.344C119.723 105.094 119.635 104.778 119.635 104.398V97.8864ZM123.151 106V99.4545H124.157V106H123.151ZM123.662 98.3636C123.466 98.3636 123.297 98.2969 123.155 98.1634C123.016 98.0298 122.946 97.8693 122.946 97.6818C122.946 97.4943 123.016 97.3338 123.155 97.2003C123.297 97.0668 123.466 97 123.662 97C123.858 97 124.026 97.0668 124.165 97.2003C124.307 97.3338 124.378 97.4943 124.378 97.6818C124.378 97.8693 124.307 98.0298 124.165 98.1634C124.026 98.2969 123.858 98.3636 123.662 98.3636ZM128.258 106.136C127.644 106.136 127.116 105.991 126.672 105.702C126.229 105.412 125.888 105.013 125.65 104.504C125.411 103.996 125.292 103.415 125.292 102.761C125.292 102.097 125.414 101.51 125.658 101.001C125.905 100.49 126.249 100.091 126.689 99.804C127.133 99.5142 127.65 99.3693 128.241 99.3693C128.701 99.3693 129.116 99.4545 129.485 99.625C129.854 99.7955 130.157 100.034 130.393 100.341C130.628 100.648 130.775 101.006 130.832 101.415H129.826C129.749 101.116 129.579 100.852 129.314 100.622C129.053 100.389 128.701 100.273 128.258 100.273C127.866 100.273 127.522 100.375 127.226 100.58C126.934 100.781 126.705 101.067 126.54 101.436C126.378 101.803 126.297 102.233 126.297 102.727C126.297 103.233 126.377 103.673 126.536 104.048C126.698 104.423 126.925 104.714 127.218 104.922C127.513 105.129 127.86 105.233 128.258 105.233C128.519 105.233 128.756 105.188 128.969 105.097C129.182 105.006 129.363 104.875 129.511 104.705C129.658 104.534 129.763 104.33 129.826 104.091H130.832C130.775 104.477 130.634 104.825 130.41 105.135C130.188 105.442 129.894 105.686 129.528 105.868C129.164 106.047 128.741 106.136 128.258 106.136ZM132.907 97.2727V106H131.902V97.2727H132.907ZM137.094 106.136C136.463 106.136 135.919 105.997 135.462 105.719C135.007 105.438 134.656 105.045 134.409 104.543C134.165 104.037 134.043 103.449 134.043 102.778C134.043 102.108 134.165 101.517 134.409 101.006C134.656 100.491 135 100.091 135.44 99.804C135.883 99.5142 136.401 99.3693 136.991 99.3693C137.332 99.3693 137.669 99.4261 138.001 99.5398C138.334 99.6534 138.636 99.8381 138.909 100.094C139.182 100.347 139.399 100.682 139.561 101.099C139.723 101.517 139.804 102.031 139.804 102.642V103.068H134.758V102.199H138.781C138.781 101.83 138.707 101.5 138.56 101.21C138.415 100.92 138.207 100.692 137.937 100.524C137.67 100.357 137.355 100.273 136.991 100.273C136.591 100.273 136.244 100.372 135.952 100.571C135.662 100.767 135.439 101.023 135.283 101.338C135.126 101.653 135.048 101.991 135.048 102.352V102.932C135.048 103.426 135.133 103.845 135.304 104.189C135.477 104.53 135.717 104.79 136.024 104.969C136.331 105.145 136.687 105.233 137.094 105.233C137.358 105.233 137.597 105.196 137.81 105.122C138.026 105.045 138.212 104.932 138.368 104.781C138.524 104.628 138.645 104.437 138.73 104.21L139.702 104.483C139.599 104.812 139.427 105.102 139.186 105.352C138.945 105.599 138.646 105.793 138.291 105.932C137.936 106.068 137.537 106.136 137.094 106.136ZM145.57 100.92L144.667 101.176C144.61 101.026 144.526 100.879 144.415 100.737C144.307 100.592 144.16 100.473 143.972 100.379C143.785 100.286 143.545 100.239 143.252 100.239C142.851 100.239 142.518 100.331 142.25 100.516C141.986 100.697 141.854 100.929 141.854 101.21C141.854 101.46 141.945 101.658 142.127 101.803C142.309 101.947 142.593 102.068 142.979 102.165L143.951 102.403C144.536 102.545 144.972 102.763 145.259 103.055C145.546 103.345 145.689 103.719 145.689 104.176C145.689 104.551 145.581 104.886 145.366 105.182C145.152 105.477 144.854 105.71 144.471 105.881C144.087 106.051 143.641 106.136 143.133 106.136C142.465 106.136 141.912 105.991 141.475 105.702C141.037 105.412 140.76 104.989 140.644 104.432L141.599 104.193C141.689 104.545 141.861 104.81 142.114 104.986C142.37 105.162 142.704 105.25 143.116 105.25C143.584 105.25 143.956 105.151 144.232 104.952C144.51 104.75 144.65 104.509 144.65 104.227C144.65 104 144.57 103.81 144.411 103.656C144.252 103.5 144.008 103.384 143.678 103.307L142.587 103.051C141.988 102.909 141.547 102.689 141.266 102.391C140.988 102.089 140.849 101.713 140.849 101.261C140.849 100.892 140.952 100.565 141.16 100.281C141.37 99.9972 141.655 99.7741 142.016 99.6122C142.38 99.4503 142.792 99.3693 143.252 99.3693C143.9 99.3693 144.408 99.5114 144.777 99.7955C145.15 100.08 145.414 100.455 145.57 100.92Z"
        fill="#B9B9B9" />
      <path
        d="M242.878 88.1193C244.766 88.1193 246.116 87.0795 246.121 85.6605C246.116 84.5696 245.311 83.6577 244.297 83.4872V83.4276C245.179 83.2315 245.793 82.4389 245.797 81.4929C245.793 80.1506 244.557 79.1534 242.878 79.1534C241.186 79.1534 239.95 80.1463 239.955 81.4929C239.95 82.4389 240.555 83.2315 241.455 83.4276V83.4872C240.423 83.6577 239.626 84.5696 239.631 85.6605C239.626 87.0795 240.973 88.1193 242.878 88.1193ZM242.878 86.9006C241.889 86.9006 241.25 86.3551 241.259 85.5497C241.25 84.7145 241.936 84.1222 242.878 84.1222C243.807 84.1222 244.489 84.7188 244.497 85.5497C244.489 86.3551 243.854 86.9006 242.878 86.9006ZM242.878 82.9247C242.068 82.9247 241.489 82.4006 241.497 81.642C241.489 80.892 242.051 80.3892 242.878 80.3892C243.692 80.3892 244.25 80.892 244.259 81.642C244.25 82.4048 243.675 82.9247 242.878 82.9247ZM247.831 88.0938C248.334 88.0938 248.764 87.6761 248.769 87.1562C248.764 86.6449 248.334 86.2273 247.831 86.2273C247.311 86.2273 246.889 86.6449 246.894 87.1562C246.889 87.6761 247.311 88.0938 247.831 88.0938ZM249.944 88H255.927V86.679H252.126V86.6193L253.63 85.0895C255.326 83.4616 255.795 82.669 255.795 81.6847C255.795 80.223 254.606 79.1534 252.851 79.1534C251.12 79.1534 249.893 80.2273 249.893 81.8849H251.397C251.397 80.9943 251.96 80.4361 252.829 80.4361C253.66 80.4361 254.278 80.9432 254.278 81.7656C254.278 82.4943 253.835 83.0142 252.974 83.8878L249.944 86.858V88ZM257.014 88H258.557V85.8011L259.12 85.2003L261.122 88H262.968L260.283 84.2798L262.818 81.4545H261.016L258.664 84.0838H258.557V79.2727H257.014V88Z"
        fill="black" />
      <rect x="232" y="93" width="32" height="16" rx="3" fill="#7433FF" fill-opacity="0.1" />
      <path
        d="M238.852 103.778H239.807V101.854H241.732V100.898H239.807V98.9773H238.852V100.898H236.93V101.854H238.852V103.778ZM242.807 103.58H246.255V105H247.303V103.58H248.265V102.649H247.303V97.7273H245.95L242.807 102.692V103.58ZM246.262 102.649H243.958V102.592L246.205 99.0341H246.262V102.649ZM249.348 105H250.495L253.659 98.7003V97.7273H248.851V98.6683H252.522V98.7216L249.348 105ZM254.494 105H259.281V104.059H256.006V104.006L257.452 102.493C258.783 101.147 259.163 100.504 259.163 99.6911C259.163 98.5227 258.212 97.6278 256.841 97.6278C255.481 97.6278 254.487 98.5085 254.487 99.8366H255.534C255.531 99.0554 256.035 98.544 256.82 98.544C257.558 98.544 258.119 98.9986 258.119 99.723C258.119 100.366 257.736 100.827 256.955 101.655L254.494 104.205V105Z"
        fill="#5F2EEA" />
      <line x1="33" y1="118.5" x2="264" y2="118.5" stroke="#EEEEEE" />
      <rect x="13" y="119" width="270" height="52" fill="white" />
      <path
        d="M33.8608 140V131.273H35.4418V138.675H39.2855V140H33.8608ZM43.0446 140.128C42.4054 140.128 41.8514 139.987 41.3827 139.706C40.9139 139.425 40.5503 139.031 40.2918 138.526C40.0361 138.02 39.9082 137.429 39.9082 136.753C39.9082 136.077 40.0361 135.484 40.2918 134.976C40.5503 134.467 40.9139 134.072 41.3827 133.791C41.8514 133.51 42.4054 133.369 43.0446 133.369C43.6838 133.369 44.2378 133.51 44.7065 133.791C45.1753 134.072 45.5375 134.467 45.7932 134.976C46.0517 135.484 46.181 136.077 46.181 136.753C46.181 137.429 46.0517 138.02 45.7932 138.526C45.5375 139.031 45.1753 139.425 44.7065 139.706C44.2378 139.987 43.6838 140.128 43.0446 140.128ZM43.0531 138.892C43.3997 138.892 43.6895 138.797 43.9224 138.607C44.1554 138.413 44.3287 138.155 44.4423 137.831C44.5588 137.507 44.617 137.146 44.617 136.749C44.617 136.348 44.5588 135.986 44.4423 135.662C44.3287 135.335 44.1554 135.075 43.9224 134.882C43.6895 134.689 43.3997 134.592 43.0531 134.592C42.698 134.592 42.4026 134.689 42.1668 134.882C41.9338 135.075 41.7591 135.335 41.6426 135.662C41.529 135.986 41.4722 136.348 41.4722 136.749C41.4722 137.146 41.529 137.507 41.6426 137.831C41.7591 138.155 41.9338 138.413 42.1668 138.607C42.4026 138.797 42.698 138.892 43.0531 138.892ZM47.0903 140V133.455H48.586V134.545H48.6542C48.7735 134.168 48.9781 133.876 49.2678 133.672C49.5604 133.464 49.8942 133.361 50.2692 133.361C50.3545 133.361 50.4496 133.365 50.5548 133.374C50.6627 133.379 50.7522 133.389 50.8232 133.403V134.822C50.7579 134.8 50.6542 134.78 50.5121 134.763C50.3729 134.743 50.238 134.733 50.1073 134.733C49.8261 134.733 49.5732 134.794 49.3488 134.916C49.1272 135.036 48.9525 135.202 48.8246 135.415C48.6968 135.628 48.6329 135.874 48.6329 136.152V140H47.0903ZM54.0763 140.128C53.42 140.128 52.8533 139.991 52.376 139.719C51.9016 139.443 51.5365 139.054 51.2808 138.551C51.0251 138.045 50.8973 137.45 50.8973 136.766C50.8973 136.092 51.0251 135.501 51.2808 134.993C51.5393 134.482 51.9001 134.084 52.3632 133.8C52.8263 133.513 53.3703 133.369 53.9953 133.369C54.3987 133.369 54.7794 133.435 55.1374 133.565C55.4982 133.693 55.8163 133.892 56.0919 134.162C56.3703 134.432 56.5891 134.776 56.7482 135.193C56.9072 135.608 56.9868 136.102 56.9868 136.676V137.149H51.6217V136.109H55.5081C55.5053 135.814 55.4413 135.551 55.3163 135.321C55.1913 135.088 55.0166 134.905 54.7922 134.771C54.5706 134.638 54.3121 134.571 54.0166 134.571C53.7013 134.571 53.4243 134.648 53.1857 134.801C52.947 134.952 52.7609 135.151 52.6274 135.398C52.4967 135.642 52.43 135.911 52.4271 136.203V137.111C52.4271 137.491 52.4967 137.818 52.6359 138.091C52.7751 138.361 52.9697 138.568 53.2197 138.713C53.4697 138.855 53.7624 138.926 54.0976 138.926C54.322 138.926 54.5251 138.895 54.707 138.832C54.8888 138.767 55.0464 138.672 55.18 138.547C55.3135 138.422 55.4143 138.267 55.4825 138.082L56.9229 138.244C56.832 138.625 56.6587 138.957 56.403 139.241C56.1501 139.523 55.8263 139.741 55.4314 139.898C55.0365 140.051 54.5848 140.128 54.0763 140.128ZM57.8918 140V133.455H59.3663V134.567H59.443C59.5793 134.192 59.8052 133.899 60.1205 133.689C60.4359 133.476 60.8123 133.369 61.2498 133.369C61.693 133.369 62.0665 133.477 62.3705 133.693C62.6773 133.906 62.8933 134.197 63.0183 134.567H63.0864C63.2313 134.203 63.4756 133.913 63.8194 133.697C64.166 133.479 64.5765 133.369 65.0509 133.369C65.6532 133.369 66.1447 133.56 66.5254 133.94C66.906 134.321 67.0964 134.876 67.0964 135.607V140H65.5495V135.845C65.5495 135.439 65.4415 135.142 65.2256 134.955C65.0097 134.764 64.7455 134.669 64.433 134.669C64.0609 134.669 63.7697 134.786 63.5594 135.018C63.3521 135.249 63.2484 135.548 63.2484 135.918V140H61.7356V135.781C61.7356 135.443 61.6333 135.173 61.4288 134.972C61.2271 134.77 60.9629 134.669 60.6362 134.669C60.4146 134.669 60.2129 134.726 60.031 134.839C59.8492 134.95 59.7043 135.108 59.5964 135.312C59.4884 135.514 59.4344 135.75 59.4344 136.02V140H57.8918Z"
        fill="#171717" />
      <path
        d="M34.9261 149.273V158H33.9205V149.273H34.9261ZM39.0272 158.136C38.4363 158.136 37.9178 157.996 37.4718 157.714C37.0286 157.433 36.682 157.04 36.432 156.534C36.1849 156.028 36.0613 155.437 36.0613 154.761C36.0613 154.08 36.1849 153.484 36.432 152.976C36.682 152.467 37.0286 152.072 37.4718 151.791C37.9178 151.51 38.4363 151.369 39.0272 151.369C39.6181 151.369 40.1352 151.51 40.5783 151.791C41.0244 152.072 41.371 152.467 41.6181 152.976C41.8681 153.484 41.9931 154.08 41.9931 154.761C41.9931 155.437 41.8681 156.028 41.6181 156.534C41.371 157.04 41.0244 157.433 40.5783 157.714C40.1352 157.996 39.6181 158.136 39.0272 158.136ZM39.0272 157.233C39.4761 157.233 39.8454 157.118 40.1352 156.888C40.4249 156.658 40.6394 156.355 40.7786 155.98C40.9178 155.605 40.9874 155.199 40.9874 154.761C40.9874 154.324 40.9178 153.916 40.7786 153.538C40.6394 153.161 40.4249 152.855 40.1352 152.622C39.8454 152.389 39.4761 152.273 39.0272 152.273C38.5783 152.273 38.209 152.389 37.9192 152.622C37.6295 152.855 37.415 153.161 37.2758 153.538C37.1366 153.916 37.067 154.324 37.067 154.761C37.067 155.199 37.1366 155.605 37.2758 155.98C37.415 156.355 37.6295 156.658 37.9192 156.888C38.209 157.118 38.5783 157.233 39.0272 157.233ZM43.1283 158V151.455H44.0999V152.443H44.168C44.2874 152.119 44.5033 151.857 44.8158 151.655C45.1283 151.453 45.4805 151.352 45.8726 151.352C45.9464 151.352 46.0388 151.354 46.1496 151.357C46.2604 151.359 46.3442 151.364 46.401 151.369V152.392C46.3669 152.384 46.2888 152.371 46.1666 152.354C46.0473 152.334 45.9209 152.324 45.7874 152.324C45.4692 152.324 45.1851 152.391 44.9351 152.524C44.6879 152.655 44.4919 152.837 44.347 153.07C44.205 153.3 44.1339 153.562 44.1339 153.858V158H43.1283ZM49.7382 158.136C49.1075 158.136 48.5635 157.997 48.1061 157.719C47.6516 157.438 47.3007 157.045 47.0536 156.543C46.8092 156.037 46.6871 155.449 46.6871 154.778C46.6871 154.108 46.8092 153.517 47.0536 153.006C47.3007 152.491 47.6445 152.091 48.0848 151.804C48.528 151.514 49.045 151.369 49.6359 151.369C49.9768 151.369 50.3135 151.426 50.6459 151.54C50.9783 151.653 51.2808 151.838 51.5536 152.094C51.8263 152.347 52.0436 152.682 52.2055 153.099C52.3675 153.517 52.4484 154.031 52.4484 154.642V155.068H47.403V154.199H51.4257C51.4257 153.83 51.3518 153.5 51.2041 153.21C51.0592 152.92 50.8518 152.692 50.582 152.524C50.3149 152.357 49.9996 152.273 49.6359 152.273C49.2354 152.273 48.8888 152.372 48.5962 152.571C48.3064 152.767 48.0834 153.023 47.9271 153.338C47.7709 153.653 47.6928 153.991 47.6928 154.352V154.932C47.6928 155.426 47.778 155.845 47.9484 156.189C48.1217 156.53 48.3618 156.79 48.6686 156.969C48.9754 157.145 49.332 157.233 49.7382 157.233C50.0024 157.233 50.2411 157.196 50.4541 157.122C50.67 157.045 50.8561 156.932 51.0124 156.781C51.1686 156.628 51.2893 156.437 51.3746 156.21L52.3462 156.483C52.2439 156.812 52.072 157.102 51.8305 157.352C51.5891 157.599 51.2908 157.793 50.9357 157.932C50.5805 158.068 50.1814 158.136 49.7382 158.136ZM53.5783 158V151.455H54.5499V152.477H54.6351C54.7714 152.128 54.9916 151.857 55.2956 151.663C55.5996 151.467 55.9646 151.369 56.3908 151.369C56.8226 151.369 57.182 151.467 57.4689 151.663C57.7587 151.857 57.9845 152.128 58.1464 152.477H58.2146C58.3822 152.139 58.6337 151.871 58.9689 151.672C59.3041 151.47 59.7061 151.369 60.1749 151.369C60.7601 151.369 61.2388 151.553 61.6109 151.919C61.9831 152.283 62.1692 152.849 62.1692 153.619V158H61.1635V153.619C61.1635 153.136 61.0314 152.791 60.7672 152.584C60.503 152.376 60.1919 152.273 59.8339 152.273C59.3737 152.273 59.0172 152.412 58.7643 152.69C58.5115 152.966 58.3851 153.315 58.3851 153.739V158H57.3624V153.517C57.3624 153.145 57.2416 152.845 57.0001 152.618C56.7587 152.388 56.4476 152.273 56.0669 152.273C55.8055 152.273 55.5612 152.342 55.3339 152.482C55.1095 152.621 54.9277 152.814 54.7885 153.061C54.6521 153.305 54.5839 153.588 54.5839 153.909V158H53.5783ZM66.583 158V151.455H67.5886V158H66.583ZM67.0943 150.364C66.8983 150.364 66.7293 150.297 66.5872 150.163C66.448 150.03 66.3784 149.869 66.3784 149.682C66.3784 149.494 66.448 149.334 66.5872 149.2C66.7293 149.067 66.8983 149 67.0943 149C67.2903 149 67.458 149.067 67.5972 149.2C67.7392 149.334 67.8102 149.494 67.8102 149.682C67.8102 149.869 67.7392 150.03 67.5972 150.163C67.458 150.297 67.2903 150.364 67.0943 150.364ZM69.0306 160.455V151.455H70.0022V152.494H70.1215C70.1954 152.381 70.2977 152.236 70.4283 152.06C70.5619 151.881 70.7522 151.722 70.9994 151.582C71.2494 151.44 71.5874 151.369 72.0136 151.369C72.5647 151.369 73.0505 151.507 73.471 151.783C73.8914 152.058 74.2195 152.449 74.4553 152.955C74.6911 153.46 74.809 154.057 74.809 154.744C74.809 155.438 74.6911 156.038 74.4553 156.547C74.2195 157.053 73.8928 157.445 73.4752 157.723C73.0576 157.999 72.5761 158.136 72.0306 158.136C71.6102 158.136 71.2735 158.067 71.0207 157.928C70.7678 157.786 70.5732 157.625 70.4369 157.446C70.3005 157.264 70.1954 157.114 70.1215 156.994H70.0363V160.455H69.0306ZM70.0192 154.727C70.0192 155.222 70.0917 155.658 70.2366 156.036C70.3815 156.411 70.5931 156.705 70.8715 156.918C71.1499 157.128 71.4908 157.233 71.8942 157.233C72.3147 157.233 72.6656 157.122 72.9468 156.901C73.2309 156.676 73.444 156.375 73.586 155.997C73.7309 155.616 73.8033 155.193 73.8033 154.727C73.8033 154.267 73.7323 153.852 73.5903 153.483C73.4511 153.111 73.2394 152.817 72.9553 152.601C72.6741 152.382 72.3204 152.273 71.8942 152.273C71.4852 152.273 71.1414 152.376 70.863 152.584C70.5846 152.788 70.3744 153.075 70.2323 153.445C70.0903 153.811 70.0192 154.239 70.0192 154.727ZM80.5795 152.92L79.6761 153.176C79.6192 153.026 79.5354 152.879 79.4246 152.737C79.3167 152.592 79.169 152.473 78.9815 152.379C78.794 152.286 78.5539 152.239 78.2613 152.239C77.8607 152.239 77.5269 152.331 77.2599 152.516C76.9957 152.697 76.8636 152.929 76.8636 153.21C76.8636 153.46 76.9545 153.658 77.1363 153.803C77.3181 153.947 77.6022 154.068 77.9886 154.165L78.9602 154.403C79.5454 154.545 79.9815 154.763 80.2684 155.055C80.5553 155.345 80.6988 155.719 80.6988 156.176C80.6988 156.551 80.5908 156.886 80.3749 157.182C80.1619 157.477 79.8636 157.71 79.48 157.881C79.0965 158.051 78.6505 158.136 78.142 158.136C77.4744 158.136 76.9218 157.991 76.4843 157.702C76.0468 157.412 75.7698 156.989 75.6533 156.432L76.6079 156.193C76.6988 156.545 76.8707 156.81 77.1235 156.986C77.3792 157.162 77.713 157.25 78.1249 157.25C78.5937 157.25 78.9658 157.151 79.2414 156.952C79.5198 156.75 79.659 156.509 79.659 156.227C79.659 156 79.5795 155.81 79.4204 155.656C79.2613 155.5 79.017 155.384 78.6874 155.307L77.5965 155.051C76.9971 154.909 76.5567 154.689 76.2755 154.391C75.9971 154.089 75.8579 153.713 75.8579 153.261C75.8579 152.892 75.9616 152.565 76.169 152.281C76.3792 151.997 76.6647 151.774 77.0255 151.612C77.3891 151.45 77.8011 151.369 78.2613 151.369C78.909 151.369 79.4175 151.511 79.7869 151.795C80.159 152.08 80.4232 152.455 80.5795 152.92ZM85.9376 155.324V151.455H86.9433V158H85.9376V156.892H85.8695C85.7161 157.224 85.4774 157.507 85.1536 157.74C84.8297 157.97 84.4206 158.085 83.9263 158.085C83.5172 158.085 83.1536 157.996 82.8354 157.817C82.5172 157.635 82.2672 157.362 82.0854 156.999C81.9036 156.632 81.8126 156.17 81.8126 155.614V151.455H82.8183V155.545C82.8183 156.023 82.9518 156.403 83.2189 156.688C83.4888 156.972 83.8325 157.114 84.2501 157.114C84.5001 157.114 84.7544 157.05 85.0129 156.922C85.2743 156.794 85.493 156.598 85.6692 156.334C85.8482 156.07 85.9376 155.733 85.9376 155.324ZM88.3853 158V151.455H89.3569V152.477H89.4421C89.5785 152.128 89.7987 151.857 90.1026 151.663C90.4066 151.467 90.7717 151.369 91.1978 151.369C91.6296 151.369 91.989 151.467 92.2759 151.663C92.5657 151.857 92.7915 152.128 92.9535 152.477H93.0217C93.1893 152.139 93.4407 151.871 93.7759 151.672C94.1112 151.47 94.5131 151.369 94.9819 151.369C95.5671 151.369 96.0458 151.553 96.418 151.919C96.7901 152.283 96.9762 152.849 96.9762 153.619V158H95.9705V153.619C95.9705 153.136 95.8384 152.791 95.5742 152.584C95.31 152.376 94.9989 152.273 94.641 152.273C94.1808 152.273 93.8242 152.412 93.5714 152.69C93.3185 152.966 93.1921 153.315 93.1921 153.739V158H92.1694V153.517C92.1694 153.145 92.0487 152.845 91.8072 152.618C91.5657 152.388 91.2546 152.273 90.8739 152.273C90.6126 152.273 90.3683 152.342 90.141 152.482C89.9165 152.621 89.7347 152.814 89.5955 153.061C89.4592 153.305 89.391 153.588 89.391 153.909V158H88.3853ZM103.862 158.136C103.316 158.136 102.835 157.999 102.417 157.723C101.999 157.445 101.673 157.053 101.437 156.547C101.201 156.038 101.083 155.438 101.083 154.744C101.083 154.057 101.201 153.46 101.437 152.955C101.673 152.449 102.001 152.058 102.421 151.783C102.842 151.507 103.327 151.369 103.879 151.369C104.305 151.369 104.641 151.44 104.889 151.582C105.139 151.722 105.329 151.881 105.46 152.06C105.593 152.236 105.697 152.381 105.771 152.494H105.856V149.273H106.862V158H105.89V156.994H105.771C105.697 157.114 105.592 157.264 105.455 157.446C105.319 157.625 105.124 157.786 104.872 157.928C104.619 158.067 104.282 158.136 103.862 158.136ZM103.998 157.233C104.401 157.233 104.742 157.128 105.021 156.918C105.299 156.705 105.511 156.411 105.656 156.036C105.8 155.658 105.873 155.222 105.873 154.727C105.873 154.239 105.802 153.811 105.66 153.445C105.518 153.075 105.308 152.788 105.029 152.584C104.751 152.376 104.407 152.273 103.998 152.273C103.572 152.273 103.217 152.382 102.933 152.601C102.651 152.817 102.44 153.111 102.298 153.483C102.158 153.852 102.089 154.267 102.089 154.727C102.089 155.193 102.16 155.616 102.302 155.997C102.447 156.375 102.66 156.676 102.941 156.901C103.225 157.122 103.577 157.233 103.998 157.233ZM111.102 158.136C110.511 158.136 109.993 157.996 109.547 157.714C109.104 157.433 108.757 157.04 108.507 156.534C108.26 156.028 108.136 155.437 108.136 154.761C108.136 154.08 108.26 153.484 108.507 152.976C108.757 152.467 109.104 152.072 109.547 151.791C109.993 151.51 110.511 151.369 111.102 151.369C111.693 151.369 112.21 151.51 112.653 151.791C113.099 152.072 113.446 152.467 113.693 152.976C113.943 153.484 114.068 154.08 114.068 154.761C114.068 155.437 113.943 156.028 113.693 156.534C113.446 157.04 113.099 157.433 112.653 157.714C112.21 157.996 111.693 158.136 111.102 158.136ZM111.102 157.233C111.551 157.233 111.92 157.118 112.21 156.888C112.5 156.658 112.714 156.355 112.854 155.98C112.993 155.605 113.062 155.199 113.062 154.761C113.062 154.324 112.993 153.916 112.854 153.538C112.714 153.161 112.5 152.855 112.21 152.622C111.92 152.389 111.551 152.273 111.102 152.273C110.653 152.273 110.284 152.389 109.994 152.622C109.704 152.855 109.49 153.161 109.351 153.538C109.212 153.916 109.142 154.324 109.142 154.761C109.142 155.199 109.212 155.605 109.351 155.98C109.49 156.355 109.704 156.658 109.994 156.888C110.284 157.118 110.653 157.233 111.102 157.233ZM116.209 149.273V158H115.203V149.273H116.209ZM120.31 158.136C119.719 158.136 119.201 157.996 118.755 157.714C118.311 157.433 117.965 157.04 117.715 156.534C117.468 156.028 117.344 155.437 117.344 154.761C117.344 154.08 117.468 153.484 117.715 152.976C117.965 152.467 118.311 152.072 118.755 151.791C119.201 151.51 119.719 151.369 120.31 151.369C120.901 151.369 121.418 151.51 121.861 151.791C122.307 152.072 122.654 152.467 122.901 152.976C123.151 153.484 123.276 154.08 123.276 154.761C123.276 155.437 123.151 156.028 122.901 156.534C122.654 157.04 122.307 157.433 121.861 157.714C121.418 157.996 120.901 158.136 120.31 158.136ZM120.31 157.233C120.759 157.233 121.128 157.118 121.418 156.888C121.708 156.658 121.922 156.355 122.061 155.98C122.201 155.605 122.27 155.199 122.27 154.761C122.27 154.324 122.201 153.916 122.061 153.538C121.922 153.161 121.708 152.855 121.418 152.622C121.128 152.389 120.759 152.273 120.31 152.273C119.861 152.273 119.492 152.389 119.202 152.622C118.912 152.855 118.698 153.161 118.559 153.538C118.419 153.916 118.35 154.324 118.35 154.761C118.35 155.199 118.419 155.605 118.559 155.98C118.698 156.355 118.912 156.658 119.202 156.888C119.492 157.118 119.861 157.233 120.31 157.233ZM124.411 158V151.455H125.383V152.443H125.451C125.57 152.119 125.786 151.857 126.099 151.655C126.411 151.453 126.763 151.352 127.155 151.352C127.229 151.352 127.322 151.354 127.432 151.357C127.543 151.359 127.627 151.364 127.684 151.369V152.392C127.65 152.384 127.572 152.371 127.449 152.354C127.33 152.334 127.204 152.324 127.07 152.324C126.752 152.324 126.468 152.391 126.218 152.524C125.971 152.655 125.775 152.837 125.63 153.07C125.488 153.3 125.417 153.562 125.417 153.858V158H124.411ZM131.021 158.136C130.39 158.136 129.846 157.997 129.389 157.719C128.934 157.438 128.584 157.045 128.336 156.543C128.092 156.037 127.97 155.449 127.97 154.778C127.97 154.108 128.092 153.517 128.336 153.006C128.584 152.491 128.927 152.091 129.368 151.804C129.811 151.514 130.328 151.369 130.919 151.369C131.26 151.369 131.596 151.426 131.929 151.54C132.261 151.653 132.564 151.838 132.836 152.094C133.109 152.347 133.326 152.682 133.488 153.099C133.65 153.517 133.731 154.031 133.731 154.642V155.068H128.686V154.199H132.709C132.709 153.83 132.635 153.5 132.487 153.21C132.342 152.92 132.135 152.692 131.865 152.524C131.598 152.357 131.282 152.273 130.919 152.273C130.518 152.273 130.172 152.372 129.879 152.571C129.589 152.767 129.366 153.023 129.21 153.338C129.054 153.653 128.976 153.991 128.976 154.352V154.932C128.976 155.426 129.061 155.845 129.231 156.189C129.405 156.53 129.645 156.79 129.951 156.969C130.258 157.145 130.615 157.233 131.021 157.233C131.285 157.233 131.524 157.196 131.737 157.122C131.953 157.045 132.139 156.932 132.295 156.781C132.451 156.628 132.572 156.437 132.657 156.21L133.629 156.483C133.527 156.812 133.355 157.102 133.113 157.352C132.872 157.599 132.574 157.793 132.218 157.932C131.863 158.068 131.464 158.136 131.021 158.136ZM139.497 152.92L138.594 153.176C138.537 153.026 138.453 152.879 138.343 152.737C138.235 152.592 138.087 152.473 137.899 152.379C137.712 152.286 137.472 152.239 137.179 152.239C136.779 152.239 136.445 152.331 136.178 152.516C135.914 152.697 135.782 152.929 135.782 153.21C135.782 153.46 135.872 153.658 136.054 153.803C136.236 153.947 136.52 154.068 136.907 154.165L137.878 154.403C138.463 154.545 138.899 154.763 139.186 155.055C139.473 155.345 139.617 155.719 139.617 156.176C139.617 156.551 139.509 156.886 139.293 157.182C139.08 157.477 138.782 157.71 138.398 157.881C138.014 158.051 137.568 158.136 137.06 158.136C136.392 158.136 135.84 157.991 135.402 157.702C134.965 157.412 134.688 156.989 134.571 156.432L135.526 156.193C135.617 156.545 135.789 156.81 136.041 156.986C136.297 157.162 136.631 157.25 137.043 157.25C137.512 157.25 137.884 157.151 138.159 156.952C138.438 156.75 138.577 156.509 138.577 156.227C138.577 156 138.497 155.81 138.338 155.656C138.179 155.5 137.935 155.384 137.605 155.307L136.514 155.051C135.915 154.909 135.475 154.689 135.193 154.391C134.915 154.089 134.776 153.713 134.776 153.261C134.776 152.892 134.88 152.565 135.087 152.281C135.297 151.997 135.583 151.774 135.943 151.612C136.307 151.45 136.719 151.369 137.179 151.369C137.827 151.369 138.336 151.511 138.705 151.795C139.077 152.08 139.341 152.455 139.497 152.92Z"
        fill="#B9B9B9" />
      <path
        d="M242.878 140.119C244.766 140.119 246.116 139.08 246.121 137.661C246.116 136.57 245.311 135.658 244.297 135.487V135.428C245.179 135.232 245.793 134.439 245.797 133.493C245.793 132.151 244.557 131.153 242.878 131.153C241.186 131.153 239.95 132.146 239.955 133.493C239.95 134.439 240.555 135.232 241.455 135.428V135.487C240.423 135.658 239.626 136.57 239.631 137.661C239.626 139.08 240.973 140.119 242.878 140.119ZM242.878 138.901C241.889 138.901 241.25 138.355 241.259 137.55C241.25 136.714 241.936 136.122 242.878 136.122C243.807 136.122 244.489 136.719 244.497 137.55C244.489 138.355 243.854 138.901 242.878 138.901ZM242.878 134.925C242.068 134.925 241.489 134.401 241.497 133.642C241.489 132.892 242.051 132.389 242.878 132.389C243.692 132.389 244.25 132.892 244.259 133.642C244.25 134.405 243.675 134.925 242.878 134.925ZM247.831 140.094C248.334 140.094 248.764 139.676 248.769 139.156C248.764 138.645 248.334 138.227 247.831 138.227C247.311 138.227 246.889 138.645 246.894 139.156C246.889 139.676 247.311 140.094 247.831 140.094ZM249.944 140H255.927V138.679H252.126V138.619L253.63 137.089C255.326 135.462 255.795 134.669 255.795 133.685C255.795 132.223 254.606 131.153 252.851 131.153C251.12 131.153 249.893 132.227 249.893 133.885H251.397C251.397 132.994 251.96 132.436 252.829 132.436C253.66 132.436 254.278 132.943 254.278 133.766C254.278 134.494 253.835 135.014 252.974 135.888L249.944 138.858V140ZM257.014 140H258.557V137.801L259.12 137.2L261.122 140H262.968L260.283 136.28L262.818 133.455H261.016L258.664 136.084H258.557V131.273H257.014V140Z"
        fill="black" />
      <rect x="232" y="145" width="32" height="16" rx="3" fill="#5887FF" fill-opacity="0.1" />
      <path
        d="M238.852 155.778H239.807V153.854H241.732V152.898H239.807V150.977H238.852V152.898H236.93V153.854H238.852V155.778ZM242.807 155.58H246.255V157H247.303V155.58H248.265V154.649H247.303V149.727H245.95L242.807 154.692V155.58ZM246.262 154.649H243.958V154.592L246.205 151.034H246.262V154.649ZM249.348 157H250.495L253.659 150.7V149.727H248.851V150.668H252.522V150.722L249.348 157ZM254.494 157H259.281V156.059H256.006V156.006L257.452 154.493C258.783 153.147 259.163 152.504 259.163 151.691C259.163 150.523 258.212 149.628 256.841 149.628C255.481 149.628 254.487 150.509 254.487 151.837H255.534C255.531 151.055 256.035 150.544 256.82 150.544C257.558 150.544 258.119 150.999 258.119 151.723C258.119 152.366 257.736 152.827 256.955 153.655L254.494 156.205V157Z"
        fill="#0061F7" />
      <line x1="33" y1="170.5" x2="264" y2="170.5" stroke="#EEEEEE" />
      <rect x="13" y="171" width="270" height="52" fill="white" />
      <path
        d="M33.8608 192V183.273H35.4418V190.675H39.2855V192H33.8608ZM43.0446 192.128C42.4054 192.128 41.8514 191.987 41.3827 191.706C40.9139 191.425 40.5503 191.031 40.2918 190.526C40.0361 190.02 39.9082 189.429 39.9082 188.753C39.9082 188.077 40.0361 187.484 40.2918 186.976C40.5503 186.467 40.9139 186.072 41.3827 185.791C41.8514 185.51 42.4054 185.369 43.0446 185.369C43.6838 185.369 44.2378 185.51 44.7065 185.791C45.1753 186.072 45.5375 186.467 45.7932 186.976C46.0517 187.484 46.181 188.077 46.181 188.753C46.181 189.429 46.0517 190.02 45.7932 190.526C45.5375 191.031 45.1753 191.425 44.7065 191.706C44.2378 191.987 43.6838 192.128 43.0446 192.128ZM43.0531 190.892C43.3997 190.892 43.6895 190.797 43.9224 190.607C44.1554 190.413 44.3287 190.155 44.4423 189.831C44.5588 189.507 44.617 189.146 44.617 188.749C44.617 188.348 44.5588 187.986 44.4423 187.662C44.3287 187.335 44.1554 187.075 43.9224 186.882C43.6895 186.689 43.3997 186.592 43.0531 186.592C42.698 186.592 42.4026 186.689 42.1668 186.882C41.9338 187.075 41.7591 187.335 41.6426 187.662C41.529 187.986 41.4722 188.348 41.4722 188.749C41.4722 189.146 41.529 189.507 41.6426 189.831C41.7591 190.155 41.9338 190.413 42.1668 190.607C42.4026 190.797 42.698 190.892 43.0531 190.892ZM47.0903 192V185.455H48.586V186.545H48.6542C48.7735 186.168 48.9781 185.876 49.2678 185.672C49.5604 185.464 49.8942 185.361 50.2692 185.361C50.3545 185.361 50.4496 185.365 50.5548 185.374C50.6627 185.379 50.7522 185.389 50.8232 185.403V186.822C50.7579 186.8 50.6542 186.78 50.5121 186.763C50.3729 186.743 50.238 186.733 50.1073 186.733C49.8261 186.733 49.5732 186.794 49.3488 186.916C49.1272 187.036 48.9525 187.202 48.8246 187.415C48.6968 187.628 48.6329 187.874 48.6329 188.152V192H47.0903ZM54.0763 192.128C53.42 192.128 52.8533 191.991 52.376 191.719C51.9016 191.443 51.5365 191.054 51.2808 190.551C51.0251 190.045 50.8973 189.45 50.8973 188.766C50.8973 188.092 51.0251 187.501 51.2808 186.993C51.5393 186.482 51.9001 186.084 52.3632 185.8C52.8263 185.513 53.3703 185.369 53.9953 185.369C54.3987 185.369 54.7794 185.435 55.1374 185.565C55.4982 185.693 55.8163 185.892 56.0919 186.162C56.3703 186.432 56.5891 186.776 56.7482 187.193C56.9072 187.608 56.9868 188.102 56.9868 188.676V189.149H51.6217V188.109H55.5081C55.5053 187.814 55.4413 187.551 55.3163 187.321C55.1913 187.088 55.0166 186.905 54.7922 186.771C54.5706 186.638 54.3121 186.571 54.0166 186.571C53.7013 186.571 53.4243 186.648 53.1857 186.801C52.947 186.952 52.7609 187.151 52.6274 187.398C52.4967 187.642 52.43 187.911 52.4271 188.203V189.111C52.4271 189.491 52.4967 189.818 52.6359 190.091C52.7751 190.361 52.9697 190.568 53.2197 190.713C53.4697 190.855 53.7624 190.926 54.0976 190.926C54.322 190.926 54.5251 190.895 54.707 190.832C54.8888 190.767 55.0464 190.672 55.18 190.547C55.3135 190.422 55.4143 190.267 55.4825 190.082L56.9229 190.244C56.832 190.625 56.6587 190.957 56.403 191.241C56.1501 191.523 55.8263 191.741 55.4314 191.898C55.0365 192.051 54.5848 192.128 54.0763 192.128ZM57.8918 192V185.455H59.3663V186.567H59.443C59.5793 186.192 59.8052 185.899 60.1205 185.689C60.4359 185.476 60.8123 185.369 61.2498 185.369C61.693 185.369 62.0665 185.477 62.3705 185.693C62.6773 185.906 62.8933 186.197 63.0183 186.567H63.0864C63.2313 186.203 63.4756 185.913 63.8194 185.697C64.166 185.479 64.5765 185.369 65.0509 185.369C65.6532 185.369 66.1447 185.56 66.5254 185.94C66.906 186.321 67.0964 186.876 67.0964 187.607V192H65.5495V187.845C65.5495 187.439 65.4415 187.142 65.2256 186.955C65.0097 186.764 64.7455 186.669 64.433 186.669C64.0609 186.669 63.7697 186.786 63.5594 187.018C63.3521 187.249 63.2484 187.548 63.2484 187.918V192H61.7356V187.781C61.7356 187.443 61.6333 187.173 61.4288 186.972C61.2271 186.77 60.9629 186.669 60.6362 186.669C60.4146 186.669 60.2129 186.726 60.031 186.839C59.8492 186.95 59.7043 187.108 59.5964 187.312C59.4884 187.514 59.4344 187.75 59.4344 188.02V192H57.8918Z"
        fill="#171717" />
      <path
        d="M34.9261 201.273V210H33.9205V201.273H34.9261ZM39.0272 210.136C38.4363 210.136 37.9178 209.996 37.4718 209.714C37.0286 209.433 36.682 209.04 36.432 208.534C36.1849 208.028 36.0613 207.437 36.0613 206.761C36.0613 206.08 36.1849 205.484 36.432 204.976C36.682 204.467 37.0286 204.072 37.4718 203.791C37.9178 203.51 38.4363 203.369 39.0272 203.369C39.6181 203.369 40.1352 203.51 40.5783 203.791C41.0244 204.072 41.371 204.467 41.6181 204.976C41.8681 205.484 41.9931 206.08 41.9931 206.761C41.9931 207.437 41.8681 208.028 41.6181 208.534C41.371 209.04 41.0244 209.433 40.5783 209.714C40.1352 209.996 39.6181 210.136 39.0272 210.136ZM39.0272 209.233C39.4761 209.233 39.8454 209.118 40.1352 208.888C40.4249 208.658 40.6394 208.355 40.7786 207.98C40.9178 207.605 40.9874 207.199 40.9874 206.761C40.9874 206.324 40.9178 205.916 40.7786 205.538C40.6394 205.161 40.4249 204.855 40.1352 204.622C39.8454 204.389 39.4761 204.273 39.0272 204.273C38.5783 204.273 38.209 204.389 37.9192 204.622C37.6295 204.855 37.415 205.161 37.2758 205.538C37.1366 205.916 37.067 206.324 37.067 206.761C37.067 207.199 37.1366 207.605 37.2758 207.98C37.415 208.355 37.6295 208.658 37.9192 208.888C38.209 209.118 38.5783 209.233 39.0272 209.233ZM43.1283 210V203.455H44.0999V204.443H44.168C44.2874 204.119 44.5033 203.857 44.8158 203.655C45.1283 203.453 45.4805 203.352 45.8726 203.352C45.9464 203.352 46.0388 203.354 46.1496 203.357C46.2604 203.359 46.3442 203.364 46.401 203.369V204.392C46.3669 204.384 46.2888 204.371 46.1666 204.354C46.0473 204.334 45.9209 204.324 45.7874 204.324C45.4692 204.324 45.1851 204.391 44.9351 204.524C44.6879 204.655 44.4919 204.837 44.347 205.07C44.205 205.3 44.1339 205.562 44.1339 205.858V210H43.1283ZM49.7382 210.136C49.1075 210.136 48.5635 209.997 48.1061 209.719C47.6516 209.438 47.3007 209.045 47.0536 208.543C46.8092 208.037 46.6871 207.449 46.6871 206.778C46.6871 206.108 46.8092 205.517 47.0536 205.006C47.3007 204.491 47.6445 204.091 48.0848 203.804C48.528 203.514 49.045 203.369 49.6359 203.369C49.9768 203.369 50.3135 203.426 50.6459 203.54C50.9783 203.653 51.2808 203.838 51.5536 204.094C51.8263 204.347 52.0436 204.682 52.2055 205.099C52.3675 205.517 52.4484 206.031 52.4484 206.642V207.068H47.403V206.199H51.4257C51.4257 205.83 51.3518 205.5 51.2041 205.21C51.0592 204.92 50.8518 204.692 50.582 204.524C50.3149 204.357 49.9996 204.273 49.6359 204.273C49.2354 204.273 48.8888 204.372 48.5962 204.571C48.3064 204.767 48.0834 205.023 47.9271 205.338C47.7709 205.653 47.6928 205.991 47.6928 206.352V206.932C47.6928 207.426 47.778 207.845 47.9484 208.189C48.1217 208.53 48.3618 208.79 48.6686 208.969C48.9754 209.145 49.332 209.233 49.7382 209.233C50.0024 209.233 50.2411 209.196 50.4541 209.122C50.67 209.045 50.8561 208.932 51.0124 208.781C51.1686 208.628 51.2893 208.437 51.3746 208.21L52.3462 208.483C52.2439 208.812 52.072 209.102 51.8305 209.352C51.5891 209.599 51.2908 209.793 50.9357 209.932C50.5805 210.068 50.1814 210.136 49.7382 210.136ZM53.5783 210V203.455H54.5499V204.477H54.6351C54.7714 204.128 54.9916 203.857 55.2956 203.663C55.5996 203.467 55.9646 203.369 56.3908 203.369C56.8226 203.369 57.182 203.467 57.4689 203.663C57.7587 203.857 57.9845 204.128 58.1464 204.477H58.2146C58.3822 204.139 58.6337 203.871 58.9689 203.672C59.3041 203.47 59.7061 203.369 60.1749 203.369C60.7601 203.369 61.2388 203.553 61.6109 203.919C61.9831 204.283 62.1692 204.849 62.1692 205.619V210H61.1635V205.619C61.1635 205.136 61.0314 204.791 60.7672 204.584C60.503 204.376 60.1919 204.273 59.8339 204.273C59.3737 204.273 59.0172 204.412 58.7643 204.69C58.5115 204.966 58.3851 205.315 58.3851 205.739V210H57.3624V205.517C57.3624 205.145 57.2416 204.845 57.0001 204.618C56.7587 204.388 56.4476 204.273 56.0669 204.273C55.8055 204.273 55.5612 204.342 55.3339 204.482C55.1095 204.621 54.9277 204.814 54.7885 205.061C54.6521 205.305 54.5839 205.588 54.5839 205.909V210H53.5783ZM66.583 210V203.455H67.5886V210H66.583ZM67.0943 202.364C66.8983 202.364 66.7293 202.297 66.5872 202.163C66.448 202.03 66.3784 201.869 66.3784 201.682C66.3784 201.494 66.448 201.334 66.5872 201.2C66.7293 201.067 66.8983 201 67.0943 201C67.2903 201 67.458 201.067 67.5972 201.2C67.7392 201.334 67.8102 201.494 67.8102 201.682C67.8102 201.869 67.7392 202.03 67.5972 202.163C67.458 202.297 67.2903 202.364 67.0943 202.364ZM69.0306 212.455V203.455H70.0022V204.494H70.1215C70.1954 204.381 70.2977 204.236 70.4283 204.06C70.5619 203.881 70.7522 203.722 70.9994 203.582C71.2494 203.44 71.5874 203.369 72.0136 203.369C72.5647 203.369 73.0505 203.507 73.471 203.783C73.8914 204.058 74.2195 204.449 74.4553 204.955C74.6911 205.46 74.809 206.057 74.809 206.744C74.809 207.438 74.6911 208.038 74.4553 208.547C74.2195 209.053 73.8928 209.445 73.4752 209.723C73.0576 209.999 72.5761 210.136 72.0306 210.136C71.6102 210.136 71.2735 210.067 71.0207 209.928C70.7678 209.786 70.5732 209.625 70.4369 209.446C70.3005 209.264 70.1954 209.114 70.1215 208.994H70.0363V212.455H69.0306ZM70.0192 206.727C70.0192 207.222 70.0917 207.658 70.2366 208.036C70.3815 208.411 70.5931 208.705 70.8715 208.918C71.1499 209.128 71.4908 209.233 71.8942 209.233C72.3147 209.233 72.6656 209.122 72.9468 208.901C73.2309 208.676 73.444 208.375 73.586 207.997C73.7309 207.616 73.8033 207.193 73.8033 206.727C73.8033 206.267 73.7323 205.852 73.5903 205.483C73.4511 205.111 73.2394 204.817 72.9553 204.601C72.6741 204.382 72.3204 204.273 71.8942 204.273C71.4852 204.273 71.1414 204.376 70.863 204.584C70.5846 204.788 70.3744 205.075 70.2323 205.445C70.0903 205.811 70.0192 206.239 70.0192 206.727ZM80.5795 204.92L79.6761 205.176C79.6192 205.026 79.5354 204.879 79.4246 204.737C79.3167 204.592 79.169 204.473 78.9815 204.379C78.794 204.286 78.5539 204.239 78.2613 204.239C77.8607 204.239 77.5269 204.331 77.2599 204.516C76.9957 204.697 76.8636 204.929 76.8636 205.21C76.8636 205.46 76.9545 205.658 77.1363 205.803C77.3181 205.947 77.6022 206.068 77.9886 206.165L78.9602 206.403C79.5454 206.545 79.9815 206.763 80.2684 207.055C80.5553 207.345 80.6988 207.719 80.6988 208.176C80.6988 208.551 80.5908 208.886 80.3749 209.182C80.1619 209.477 79.8636 209.71 79.48 209.881C79.0965 210.051 78.6505 210.136 78.142 210.136C77.4744 210.136 76.9218 209.991 76.4843 209.702C76.0468 209.412 75.7698 208.989 75.6533 208.432L76.6079 208.193C76.6988 208.545 76.8707 208.81 77.1235 208.986C77.3792 209.162 77.713 209.25 78.1249 209.25C78.5937 209.25 78.9658 209.151 79.2414 208.952C79.5198 208.75 79.659 208.509 79.659 208.227C79.659 208 79.5795 207.81 79.4204 207.656C79.2613 207.5 79.017 207.384 78.6874 207.307L77.5965 207.051C76.9971 206.909 76.5567 206.689 76.2755 206.391C75.9971 206.089 75.8579 205.713 75.8579 205.261C75.8579 204.892 75.9616 204.565 76.169 204.281C76.3792 203.997 76.6647 203.774 77.0255 203.612C77.3891 203.45 77.8011 203.369 78.2613 203.369C78.909 203.369 79.4175 203.511 79.7869 203.795C80.159 204.08 80.4232 204.455 80.5795 204.92ZM85.9376 207.324V203.455H86.9433V210H85.9376V208.892H85.8695C85.7161 209.224 85.4774 209.507 85.1536 209.74C84.8297 209.97 84.4206 210.085 83.9263 210.085C83.5172 210.085 83.1536 209.996 82.8354 209.817C82.5172 209.635 82.2672 209.362 82.0854 208.999C81.9036 208.632 81.8126 208.17 81.8126 207.614V203.455H82.8183V207.545C82.8183 208.023 82.9518 208.403 83.2189 208.688C83.4888 208.972 83.8325 209.114 84.2501 209.114C84.5001 209.114 84.7544 209.05 85.0129 208.922C85.2743 208.794 85.493 208.598 85.6692 208.334C85.8482 208.07 85.9376 207.733 85.9376 207.324ZM88.3853 210V203.455H89.3569V204.477H89.4421C89.5785 204.128 89.7987 203.857 90.1026 203.663C90.4066 203.467 90.7717 203.369 91.1978 203.369C91.6296 203.369 91.989 203.467 92.2759 203.663C92.5657 203.857 92.7915 204.128 92.9535 204.477H93.0217C93.1893 204.139 93.4407 203.871 93.7759 203.672C94.1112 203.47 94.5131 203.369 94.9819 203.369C95.5671 203.369 96.0458 203.553 96.418 203.919C96.7901 204.283 96.9762 204.849 96.9762 205.619V210H95.9705V205.619C95.9705 205.136 95.8384 204.791 95.5742 204.584C95.31 204.376 94.9989 204.273 94.641 204.273C94.1808 204.273 93.8242 204.412 93.5714 204.69C93.3185 204.966 93.1921 205.315 93.1921 205.739V210H92.1694V205.517C92.1694 205.145 92.0487 204.845 91.8072 204.618C91.5657 204.388 91.2546 204.273 90.8739 204.273C90.6126 204.273 90.3683 204.342 90.141 204.482C89.9165 204.621 89.7347 204.814 89.5955 205.061C89.4592 205.305 89.391 205.588 89.391 205.909V210H88.3853ZM103.862 210.136C103.316 210.136 102.835 209.999 102.417 209.723C101.999 209.445 101.673 209.053 101.437 208.547C101.201 208.038 101.083 207.438 101.083 206.744C101.083 206.057 101.201 205.46 101.437 204.955C101.673 204.449 102.001 204.058 102.421 203.783C102.842 203.507 103.327 203.369 103.879 203.369C104.305 203.369 104.641 203.44 104.889 203.582C105.139 203.722 105.329 203.881 105.46 204.06C105.593 204.236 105.697 204.381 105.771 204.494H105.856V201.273H106.862V210H105.89V208.994H105.771C105.697 209.114 105.592 209.264 105.455 209.446C105.319 209.625 105.124 209.786 104.872 209.928C104.619 210.067 104.282 210.136 103.862 210.136ZM103.998 209.233C104.401 209.233 104.742 209.128 105.021 208.918C105.299 208.705 105.511 208.411 105.656 208.036C105.8 207.658 105.873 207.222 105.873 206.727C105.873 206.239 105.802 205.811 105.66 205.445C105.518 205.075 105.308 204.788 105.029 204.584C104.751 204.376 104.407 204.273 103.998 204.273C103.572 204.273 103.217 204.382 102.933 204.601C102.651 204.817 102.44 205.111 102.298 205.483C102.158 205.852 102.089 206.267 102.089 206.727C102.089 207.193 102.16 207.616 102.302 207.997C102.447 208.375 102.66 208.676 102.941 208.901C103.225 209.122 103.577 209.233 103.998 209.233ZM111.102 210.136C110.511 210.136 109.993 209.996 109.547 209.714C109.104 209.433 108.757 209.04 108.507 208.534C108.26 208.028 108.136 207.437 108.136 206.761C108.136 206.08 108.26 205.484 108.507 204.976C108.757 204.467 109.104 204.072 109.547 203.791C109.993 203.51 110.511 203.369 111.102 203.369C111.693 203.369 112.21 203.51 112.653 203.791C113.099 204.072 113.446 204.467 113.693 204.976C113.943 205.484 114.068 206.08 114.068 206.761C114.068 207.437 113.943 208.028 113.693 208.534C113.446 209.04 113.099 209.433 112.653 209.714C112.21 209.996 111.693 210.136 111.102 210.136ZM111.102 209.233C111.551 209.233 111.92 209.118 112.21 208.888C112.5 208.658 112.714 208.355 112.854 207.98C112.993 207.605 113.062 207.199 113.062 206.761C113.062 206.324 112.993 205.916 112.854 205.538C112.714 205.161 112.5 204.855 112.21 204.622C111.92 204.389 111.551 204.273 111.102 204.273C110.653 204.273 110.284 204.389 109.994 204.622C109.704 204.855 109.49 205.161 109.351 205.538C109.212 205.916 109.142 206.324 109.142 206.761C109.142 207.199 109.212 207.605 109.351 207.98C109.49 208.355 109.704 208.658 109.994 208.888C110.284 209.118 110.653 209.233 111.102 209.233ZM116.209 201.273V210H115.203V201.273H116.209ZM120.31 210.136C119.719 210.136 119.201 209.996 118.755 209.714C118.311 209.433 117.965 209.04 117.715 208.534C117.468 208.028 117.344 207.437 117.344 206.761C117.344 206.08 117.468 205.484 117.715 204.976C117.965 204.467 118.311 204.072 118.755 203.791C119.201 203.51 119.719 203.369 120.31 203.369C120.901 203.369 121.418 203.51 121.861 203.791C122.307 204.072 122.654 204.467 122.901 204.976C123.151 205.484 123.276 206.08 123.276 206.761C123.276 207.437 123.151 208.028 122.901 208.534C122.654 209.04 122.307 209.433 121.861 209.714C121.418 209.996 120.901 210.136 120.31 210.136ZM120.31 209.233C120.759 209.233 121.128 209.118 121.418 208.888C121.708 208.658 121.922 208.355 122.061 207.98C122.201 207.605 122.27 207.199 122.27 206.761C122.27 206.324 122.201 205.916 122.061 205.538C121.922 205.161 121.708 204.855 121.418 204.622C121.128 204.389 120.759 204.273 120.31 204.273C119.861 204.273 119.492 204.389 119.202 204.622C118.912 204.855 118.698 205.161 118.559 205.538C118.419 205.916 118.35 206.324 118.35 206.761C118.35 207.199 118.419 207.605 118.559 207.98C118.698 208.355 118.912 208.658 119.202 208.888C119.492 209.118 119.861 209.233 120.31 209.233ZM124.411 210V203.455H125.383V204.443H125.451C125.57 204.119 125.786 203.857 126.099 203.655C126.411 203.453 126.763 203.352 127.155 203.352C127.229 203.352 127.322 203.354 127.432 203.357C127.543 203.359 127.627 203.364 127.684 203.369V204.392C127.65 204.384 127.572 204.371 127.449 204.354C127.33 204.334 127.204 204.324 127.07 204.324C126.752 204.324 126.468 204.391 126.218 204.524C125.971 204.655 125.775 204.837 125.63 205.07C125.488 205.3 125.417 205.562 125.417 205.858V210H124.411ZM131.021 210.136C130.39 210.136 129.846 209.997 129.389 209.719C128.934 209.438 128.584 209.045 128.336 208.543C128.092 208.037 127.97 207.449 127.97 206.778C127.97 206.108 128.092 205.517 128.336 205.006C128.584 204.491 128.927 204.091 129.368 203.804C129.811 203.514 130.328 203.369 130.919 203.369C131.26 203.369 131.596 203.426 131.929 203.54C132.261 203.653 132.564 203.838 132.836 204.094C133.109 204.347 133.326 204.682 133.488 205.099C133.65 205.517 133.731 206.031 133.731 206.642V207.068H128.686V206.199H132.709C132.709 205.83 132.635 205.5 132.487 205.21C132.342 204.92 132.135 204.692 131.865 204.524C131.598 204.357 131.282 204.273 130.919 204.273C130.518 204.273 130.172 204.372 129.879 204.571C129.589 204.767 129.366 205.023 129.21 205.338C129.054 205.653 128.976 205.991 128.976 206.352V206.932C128.976 207.426 129.061 207.845 129.231 208.189C129.405 208.53 129.645 208.79 129.951 208.969C130.258 209.145 130.615 209.233 131.021 209.233C131.285 209.233 131.524 209.196 131.737 209.122C131.953 209.045 132.139 208.932 132.295 208.781C132.451 208.628 132.572 208.437 132.657 208.21L133.629 208.483C133.527 208.812 133.355 209.102 133.113 209.352C132.872 209.599 132.574 209.793 132.218 209.932C131.863 210.068 131.464 210.136 131.021 210.136ZM139.497 204.92L138.594 205.176C138.537 205.026 138.453 204.879 138.343 204.737C138.235 204.592 138.087 204.473 137.899 204.379C137.712 204.286 137.472 204.239 137.179 204.239C136.779 204.239 136.445 204.331 136.178 204.516C135.914 204.697 135.782 204.929 135.782 205.21C135.782 205.46 135.872 205.658 136.054 205.803C136.236 205.947 136.52 206.068 136.907 206.165L137.878 206.403C138.463 206.545 138.899 206.763 139.186 207.055C139.473 207.345 139.617 207.719 139.617 208.176C139.617 208.551 139.509 208.886 139.293 209.182C139.08 209.477 138.782 209.71 138.398 209.881C138.014 210.051 137.568 210.136 137.06 210.136C136.392 210.136 135.84 209.991 135.402 209.702C134.965 209.412 134.688 208.989 134.571 208.432L135.526 208.193C135.617 208.545 135.789 208.81 136.041 208.986C136.297 209.162 136.631 209.25 137.043 209.25C137.512 209.25 137.884 209.151 138.159 208.952C138.438 208.75 138.577 208.509 138.577 208.227C138.577 208 138.497 207.81 138.338 207.656C138.179 207.5 137.935 207.384 137.605 207.307L136.514 207.051C135.915 206.909 135.475 206.689 135.193 206.391C134.915 206.089 134.776 205.713 134.776 205.261C134.776 204.892 134.88 204.565 135.087 204.281C135.297 203.997 135.583 203.774 135.943 203.612C136.307 203.45 136.719 203.369 137.179 203.369C137.827 203.369 138.336 203.511 138.705 203.795C139.077 204.08 139.341 204.455 139.497 204.92Z"
        fill="#B9B9B9" />
      <path
        d="M242.878 192.119C244.766 192.119 246.116 191.08 246.121 189.661C246.116 188.57 245.311 187.658 244.297 187.487V187.428C245.179 187.232 245.793 186.439 245.797 185.493C245.793 184.151 244.557 183.153 242.878 183.153C241.186 183.153 239.95 184.146 239.955 185.493C239.95 186.439 240.555 187.232 241.455 187.428V187.487C240.423 187.658 239.626 188.57 239.631 189.661C239.626 191.08 240.973 192.119 242.878 192.119ZM242.878 190.901C241.889 190.901 241.25 190.355 241.259 189.55C241.25 188.714 241.936 188.122 242.878 188.122C243.807 188.122 244.489 188.719 244.497 189.55C244.489 190.355 243.854 190.901 242.878 190.901ZM242.878 186.925C242.068 186.925 241.489 186.401 241.497 185.642C241.489 184.892 242.051 184.389 242.878 184.389C243.692 184.389 244.25 184.892 244.259 185.642C244.25 186.405 243.675 186.925 242.878 186.925ZM247.831 192.094C248.334 192.094 248.764 191.676 248.769 191.156C248.764 190.645 248.334 190.227 247.831 190.227C247.311 190.227 246.889 190.645 246.894 191.156C246.889 191.676 247.311 192.094 247.831 192.094ZM249.944 192H255.927V190.679H252.126V190.619L253.63 189.089C255.326 187.462 255.795 186.669 255.795 185.685C255.795 184.223 254.606 183.153 252.851 183.153C251.12 183.153 249.893 184.227 249.893 185.885H251.397C251.397 184.994 251.96 184.436 252.829 184.436C253.66 184.436 254.278 184.943 254.278 185.766C254.278 186.494 253.835 187.014 252.974 187.888L249.944 190.858V192ZM257.014 192H258.557V189.801L259.12 189.2L261.122 192H262.968L260.283 188.28L262.818 185.455H261.016L258.664 188.084H258.557V183.273H257.014V192Z"
        fill="black" />
      <rect x="232" y="197" width="32" height="16" rx="3" fill="#F55B5D" fill-opacity="0.1" />
      <path
        d="M238.852 207.778H239.807V205.854H241.732V204.898H239.807V202.977H238.852V204.898H236.93V205.854H238.852V207.778ZM242.807 207.58H246.255V209H247.303V207.58H248.265V206.649H247.303V201.727H245.95L242.807 206.692V207.58ZM246.262 206.649H243.958V206.592L246.205 203.034H246.262V206.649ZM249.348 209H250.495L253.659 202.7V201.727H248.851V202.668H252.522V202.722L249.348 209ZM254.494 209H259.281V208.059H256.006V208.006L257.452 206.493C258.783 205.147 259.163 204.504 259.163 203.691C259.163 202.523 258.212 201.628 256.841 201.628C255.481 201.628 254.487 202.509 254.487 203.837H255.534C255.531 203.055 256.035 202.544 256.82 202.544C257.558 202.544 258.119 202.999 258.119 203.723C258.119 204.366 257.736 204.827 256.955 205.655L254.494 208.205V209Z"
        fill="#F26464" />
      <line x1="33" y1="222.5" x2="264" y2="222.5" stroke="#EEEEEE" />
    </svg>
