<svg width="110" height="48" viewBox="0 0 110 48" fill="none" xmlns="http://www.w3.org/2000/svg">
<rect x="0.75" y="0.75" width="108.5" height="46.5" rx="7.75" fill="white"/>
<path fill-rule="evenodd" clip-rule="evenodd" d="M31.5 19C31.7761 19 32 19.2239 32 19.5L32 29.5C32 29.7761 31.7761 30 31.5 30C31.2239 30 31 29.7761 31 29.5L31 19.5C31 19.2239 31.2239 19 31.5 19Z" fill="black"/>
<path fill-rule="evenodd" clip-rule="evenodd" d="M33.8536 27.1464C34.0488 27.3417 34.0488 27.6583 33.8536 27.8536L31.8536 29.8536C31.6583 30.0488 31.3417 30.0488 31.1464 29.8536L29.1464 27.8536C28.9512 27.6583 28.9512 27.3417 29.1464 27.1464C29.3417 26.9512 29.6583 26.9512 29.8536 27.1464L31.5 28.7929L33.1464 27.1464C33.3417 26.9512 33.6583 26.9512 33.8536 27.1464Z" fill="black"/>
<path fill-rule="evenodd" clip-rule="evenodd" d="M35.5 22.5C35.5 22.7761 35.7239 23 36 23H39C39.2761 23 39.5 22.7761 39.5 22.5C39.5 22.2239 39.2761 22 39 22H36C35.7239 22 35.5 22.2239 35.5 22.5Z" fill="black"/>
<path fill-rule="evenodd" clip-rule="evenodd" d="M35.5 25.5C35.5 25.7761 35.7239 26 36 26H41C41.2761 26 41.5 25.7761 41.5 25.5C41.5 25.2239 41.2761 25 41 25H36C35.7239 25 35.5 25.2239 35.5 25.5Z" fill="black"/>
<path fill-rule="evenodd" clip-rule="evenodd" d="M35.5 28.5C35.5 28.7761 35.7239 29 36 29H43C43.2761 29 43.5 28.7761 43.5 28.5C43.5 28.2239 43.2761 28 43 28H36C35.7239 28 35.5 28.2239 35.5 28.5Z" fill="black"/>
<path fill-rule="evenodd" clip-rule="evenodd" d="M35.5 19.5C35.5 19.7761 35.7239 20 36 20H37C37.2761 20 37.5 19.7761 37.5 19.5C37.5 19.2239 37.2761 19 37 19H36C35.7239 19 35.5 19.2239 35.5 19.5Z" fill="black"/>
<path d="M59.3011 21.8636C59.2415 21.3598 58.9995 20.9688 58.5753 20.6903C58.151 20.4119 57.6307 20.2727 57.0142 20.2727C56.5634 20.2727 56.169 20.3456 55.831 20.4915C55.4962 20.6373 55.2344 20.8378 55.0455 21.093C54.8598 21.3482 54.767 21.6383 54.767 21.9631C54.767 22.2348 54.8317 22.4685 54.9609 22.6641C55.0935 22.8563 55.2625 23.017 55.468 23.1463C55.6735 23.2723 55.889 23.3767 56.1143 23.4595C56.3397 23.5391 56.5469 23.6037 56.7358 23.6534L57.7699 23.9318C58.035 24.0014 58.33 24.0975 58.6548 24.2202C58.983 24.3428 59.2962 24.5102 59.5945 24.7223C59.8961 24.9311 60.1446 25.1996 60.3402 25.5277C60.5357 25.8558 60.6335 26.2585 60.6335 26.7358C60.6335 27.286 60.4893 27.7831 60.201 28.2273C59.916 28.6714 59.4983 29.0244 58.9482 29.2862C58.4013 29.5481 57.7367 29.679 56.9545 29.679C56.2254 29.679 55.594 29.5613 55.0604 29.326C54.5301 29.0907 54.1125 28.7625 53.8075 28.3416C53.5059 27.9207 53.3352 27.4318 53.2955 26.875H54.5682C54.6013 27.2595 54.7306 27.5777 54.956 27.8295C55.1847 28.0781 55.473 28.2637 55.821 28.3864C56.1723 28.5057 56.5502 28.5653 56.9545 28.5653C57.4252 28.5653 57.8478 28.4891 58.2223 28.3366C58.5968 28.1809 58.8935 27.9654 59.1122 27.6903C59.331 27.4119 59.4403 27.0871 59.4403 26.7159C59.4403 26.3778 59.3459 26.1027 59.157 25.8906C58.968 25.6785 58.7195 25.5062 58.4112 25.3736C58.103 25.241 57.7699 25.125 57.4119 25.0256L56.1591 24.6676C55.3636 24.4389 54.7339 24.1125 54.2699 23.6882C53.8059 23.264 53.5739 22.7088 53.5739 22.0227C53.5739 21.4527 53.728 20.9555 54.0362 20.5312C54.3478 20.1037 54.7654 19.7723 55.2891 19.5369C55.8161 19.2983 56.4044 19.179 57.054 19.179C57.7102 19.179 58.2936 19.2966 58.804 19.532C59.3144 19.764 59.7188 20.0821 60.017 20.4865C60.3187 20.8909 60.4777 21.3499 60.4943 21.8636H59.3011ZM65.6039 29.6591C64.9145 29.6591 64.3096 29.495 63.7892 29.1669C63.2722 28.8388 62.8678 28.3797 62.5762 27.7898C62.2878 27.1998 62.1436 26.5104 62.1436 25.7216C62.1436 24.9261 62.2878 24.2318 62.5762 23.6385C62.8678 23.0452 63.2722 22.5845 63.7892 22.2564C64.3096 21.9283 64.9145 21.7642 65.6039 21.7642C66.2933 21.7642 66.8965 21.9283 67.4135 22.2564C67.9339 22.5845 68.3382 23.0452 68.6266 23.6385C68.9183 24.2318 69.0641 24.9261 69.0641 25.7216C69.0641 26.5104 68.9183 27.1998 68.6266 27.7898C68.3382 28.3797 67.9339 28.8388 67.4135 29.1669C66.8965 29.495 66.2933 29.6591 65.6039 29.6591ZM65.6039 28.6051C66.1275 28.6051 66.5584 28.4709 66.8965 28.2024C67.2346 27.9339 67.4848 27.581 67.6472 27.1435C67.8096 26.706 67.8908 26.232 67.8908 25.7216C67.8908 25.2112 67.8096 24.7356 67.6472 24.2947C67.4848 23.8539 67.2346 23.4976 66.8965 23.2259C66.5584 22.9541 66.1275 22.8182 65.6039 22.8182C65.0802 22.8182 64.6493 22.9541 64.3113 23.2259C63.9732 23.4976 63.723 23.8539 63.5605 24.2947C63.3981 24.7356 63.3169 25.2112 63.3169 25.7216C63.3169 26.232 63.3981 26.706 63.5605 27.1435C63.723 27.581 63.9732 27.9339 64.3113 28.2024C64.6493 28.4709 65.0802 28.6051 65.6039 28.6051ZM70.8551 29.5V21.8636H71.9886V23.017H72.0682C72.2041 22.6392 72.4543 22.3326 72.8189 22.0973C73.1835 21.862 73.5961 21.7443 74.0568 21.7443C74.2689 21.7443 74.4545 21.7692 74.6136 21.8189C74.7727 21.8686 74.9119 21.9366 75.0312 22.0227L74.6335 23.017C74.5507 22.974 74.4529 22.9408 74.3402 22.9176C74.2308 22.8911 74.1032 22.8778 73.9574 22.8778C73.5862 22.8778 73.2547 22.9557 72.9631 23.1115C72.6747 23.2673 72.446 23.4794 72.277 23.7479C72.1113 24.0163 72.0284 24.3229 72.0284 24.6676V29.5H70.8551ZM80.0277 21.8636V22.858H76.0703V21.8636H80.0277ZM77.2237 20.0341H78.397V27.3125C78.397 27.6439 78.4451 27.8925 78.5412 28.0582C78.6406 28.2206 78.7666 28.33 78.919 28.3864C79.0748 28.4394 79.2389 28.4659 79.4112 28.4659C79.5405 28.4659 79.6465 28.4593 79.7294 28.446C79.8123 28.4295 79.8786 28.4162 79.9283 28.4062L80.1669 29.4602C80.0874 29.4901 79.9763 29.5199 79.8338 29.5497C79.6913 29.5829 79.5107 29.5994 79.2919 29.5994C78.9605 29.5994 78.6357 29.5282 78.3175 29.3857C78.0026 29.2431 77.7408 29.026 77.532 28.7344C77.3265 28.4427 77.2237 28.0748 77.2237 27.6307V20.0341Z" fill="#414141"/>
<rect x="0.75" y="0.75" width="108.5" height="46.5" rx="7.75" stroke="#C0C0C0" stroke-width="0.5"/>
</svg>
